<svg width="516" height="79" viewBox="0 0 516 79" fill="none" xmlns="http://www.w3.org/2000/svg">
<path d="M497.905 16.46L496.294 46.2207H488.677L487.065 16.46H497.905ZM497.1 48.0762V55.9863H487.871V48.0762H497.1Z" fill="black"/>
<path d="M484.917 23.5889L480.986 39.0674L485.747 55.9863H476.152C475.208 51.722 474.492 48.0518 474.004 44.9756C473.353 48.8167 472.645 52.487 471.88 55.9863H463.628L467.876 39.0674L463.628 23.5889H471.88C473.198 30.1969 473.906 33.9486 474.004 34.8438C474.948 29.3262 475.664 25.5745 476.152 23.5889H484.917Z" fill="black"/>
<path d="M449.004 36.1377H439.751V33.9648C439.751 31.4583 440.036 29.5296 440.605 28.1787C441.191 26.8115 442.355 25.6071 444.097 24.5654C445.838 23.5238 448.101 23.0029 450.884 23.0029C454.22 23.0029 456.735 23.597 458.428 24.7852C460.12 25.957 461.138 27.4056 461.479 29.1309C461.821 30.8398 461.992 34.3717 461.992 39.7266V55.9863H452.397V53.1055C451.795 54.2611 451.014 55.1318 450.054 55.7178C449.11 56.2874 447.979 56.5723 446.66 56.5723C444.935 56.5723 443.348 56.0921 441.899 55.1318C440.467 54.1553 439.751 52.0312 439.751 48.7598V46.0986C439.751 43.6735 440.133 42.0215 440.898 41.1426C441.663 40.2637 443.56 39.2383 446.587 38.0664C449.826 36.7969 451.559 35.9424 451.787 35.5029C452.015 35.0635 452.129 34.1683 452.129 32.8174C452.129 31.1247 451.999 30.026 451.738 29.5215C451.494 29.0007 451.079 28.7402 450.493 28.7402C449.826 28.7402 449.411 28.96 449.248 29.3994C449.085 29.8226 449.004 30.9375 449.004 32.7441V36.1377ZM452.129 40.5811C450.55 41.7367 449.631 42.7051 449.37 43.4863C449.126 44.2676 449.004 45.3906 449.004 46.8555C449.004 48.5319 449.11 49.6143 449.321 50.1025C449.549 50.5908 449.989 50.835 450.64 50.835C451.258 50.835 451.657 50.6478 451.836 50.2734C452.031 49.8828 452.129 48.8737 452.129 47.2461V40.5811Z" fill="black"/>
<path d="M436.65 55.9863H428.203V33.6475L424.102 55.9863H418.706L414.458 33.6475V55.9863H406.011V23.5889H418.242L421.392 41.4844L424.248 23.5889H436.65V55.9863Z" fill="black"/>
<path d="M402.764 40.3613H389.995V47.3682C389.995 48.833 390.101 49.777 390.312 50.2002C390.524 50.6234 390.931 50.835 391.533 50.835C392.282 50.835 392.778 50.5583 393.022 50.0049C393.283 49.4352 393.413 48.3447 393.413 46.7334V42.4609H402.764V44.8535C402.764 46.8555 402.633 48.3936 402.373 49.4678C402.129 50.542 401.543 51.6895 400.615 52.9102C399.688 54.1309 398.507 55.0505 397.075 55.6689C395.659 56.2712 393.877 56.5723 391.729 56.5723C389.645 56.5723 387.806 56.2712 386.211 55.6689C384.616 55.0667 383.371 54.2448 382.476 53.2031C381.597 52.1452 380.986 50.9896 380.645 49.7363C380.303 48.4668 380.132 46.6276 380.132 44.2188V34.7705C380.132 31.9385 380.514 29.7087 381.279 28.0811C382.044 26.4372 383.298 25.1839 385.039 24.3213C386.781 23.4424 388.783 23.0029 391.045 23.0029C393.812 23.0029 396.09 23.5319 397.881 24.5898C399.688 25.6315 400.949 27.0231 401.665 28.7646C402.397 30.4899 402.764 32.9232 402.764 36.0645V40.3613ZM392.876 35.0879V32.7197C392.876 31.0433 392.786 29.9609 392.607 29.4727C392.428 28.9844 392.062 28.7402 391.509 28.7402C390.825 28.7402 390.402 28.9518 390.239 29.375C390.076 29.7819 389.995 30.8968 389.995 32.7197V35.0879H392.876Z" fill="black"/>
<path d="M376.885 55.9863H368.438V33.6475L364.336 55.9863H358.94L354.692 33.6475V55.9863H346.245V23.5889H358.477L361.626 41.4844L364.482 23.5889H376.885V55.9863Z" fill="black"/>
<path d="M334.136 34.9658V42.9004C334.136 45.8138 333.989 47.9541 333.696 49.3213C333.403 50.6722 332.777 51.9417 331.816 53.1299C330.856 54.3018 329.619 55.1725 328.105 55.7422C326.608 56.2956 324.883 56.5723 322.93 56.5723C320.749 56.5723 318.901 56.3363 317.388 55.8643C315.874 55.376 314.694 54.6517 313.848 53.6914C313.018 52.7148 312.424 51.543 312.065 50.1758C311.707 48.7923 311.528 46.7253 311.528 43.9746V35.6738C311.528 32.6628 311.854 30.3109 312.505 28.6182C313.156 26.9255 314.328 25.5664 316.021 24.541C317.713 23.5156 319.878 23.0029 322.515 23.0029C324.728 23.0029 326.624 23.3366 328.203 24.0039C329.798 24.6549 331.027 25.5094 331.89 26.5674C332.752 27.6253 333.338 28.7158 333.647 29.8389C333.973 30.9619 334.136 32.6709 334.136 34.9658ZM324.272 32.5244C324.272 30.8643 324.183 29.8226 324.004 29.3994C323.825 28.96 323.442 28.7402 322.856 28.7402C322.271 28.7402 321.88 28.96 321.685 29.3994C321.489 29.8226 321.392 30.8643 321.392 32.5244V47.1484C321.392 48.6784 321.489 49.6794 321.685 50.1514C321.88 50.6071 322.262 50.835 322.832 50.835C323.418 50.835 323.8 50.6234 323.979 50.2002C324.175 49.777 324.272 48.8656 324.272 47.4658V32.5244Z" fill="black"/>
<path d="M286.602 36.1377H277.349V33.9648C277.349 31.4583 277.633 29.5296 278.203 28.1787C278.789 26.8115 279.953 25.6071 281.694 24.5654C283.436 23.5238 285.698 23.0029 288.481 23.0029C291.818 23.0029 294.333 23.597 296.025 24.7852C297.718 25.957 298.735 27.4056 299.077 29.1309C299.419 30.8398 299.59 34.3717 299.59 39.7266V55.9863H289.995V53.1055C289.393 54.2611 288.612 55.1318 287.651 55.7178C286.707 56.2874 285.576 56.5723 284.258 56.5723C282.533 56.5723 280.946 56.0921 279.497 55.1318C278.065 54.1553 277.349 52.0312 277.349 48.7598V46.0986C277.349 43.6735 277.731 42.0215 278.496 41.1426C279.261 40.2637 281.157 39.2383 284.185 38.0664C287.424 36.7969 289.157 35.9424 289.385 35.5029C289.613 35.0635 289.727 34.1683 289.727 32.8174C289.727 31.1247 289.596 30.026 289.336 29.5215C289.092 29.0007 288.677 28.7402 288.091 28.7402C287.424 28.7402 287.008 28.96 286.846 29.3994C286.683 29.8226 286.602 30.9375 286.602 32.7441V36.1377ZM289.727 40.5811C288.148 41.7367 287.228 42.7051 286.968 43.4863C286.724 44.2676 286.602 45.3906 286.602 46.8555C286.602 48.5319 286.707 49.6143 286.919 50.1025C287.147 50.5908 287.586 50.835 288.237 50.835C288.856 50.835 289.255 50.6478 289.434 50.2734C289.629 49.8828 289.727 48.8737 289.727 47.2461V40.5811Z" fill="black"/>
<path d="M274.248 55.9863H265.654V38.4814L258.794 55.9863H249.81V23.5889H258.403V40.9473L265.142 23.5889H274.248V55.9863Z" fill="black"/>
<path d="M247.344 62.2363H240.752V55.9863H224.15V62.2363H217.559V48.2471H219.658C220.911 46.3102 221.937 43.3073 222.734 39.2383C223.548 35.153 223.955 30.3353 223.955 24.7852V23.5889H245.244V48.1982H247.344V62.2363ZM235.454 48.1982V30.8887H232.891V31.2305C232.891 37.2526 231.914 42.9085 229.961 48.1982H235.454Z" fill="black"/>
<path d="M215.41 40.3613H202.642V47.3682C202.642 48.833 202.747 49.777 202.959 50.2002C203.171 50.6234 203.577 50.835 204.18 50.835C204.928 50.835 205.425 50.5583 205.669 50.0049C205.929 49.4352 206.06 48.3447 206.06 46.7334V42.4609H215.41V44.8535C215.41 46.8555 215.28 48.3936 215.02 49.4678C214.775 50.542 214.189 51.6895 213.262 52.9102C212.334 54.1309 211.154 55.0505 209.722 55.6689C208.306 56.2712 206.523 56.5723 204.375 56.5723C202.292 56.5723 200.452 56.2712 198.857 55.6689C197.262 55.0667 196.017 54.2448 195.122 53.2031C194.243 52.1452 193.633 50.9896 193.291 49.7363C192.949 48.4668 192.778 46.6276 192.778 44.2188V34.7705C192.778 31.9385 193.161 29.7087 193.926 28.0811C194.691 26.4372 195.944 25.1839 197.686 24.3213C199.427 23.4424 201.429 23.0029 203.691 23.0029C206.458 23.0029 208.737 23.5319 210.527 24.5898C212.334 25.6315 213.595 27.0231 214.312 28.7646C215.044 30.4899 215.41 32.9232 215.41 36.0645V40.3613ZM205.522 35.0879V32.7197C205.522 31.0433 205.433 29.9609 205.254 29.4727C205.075 28.9844 204.709 28.7402 204.155 28.7402C203.472 28.7402 203.049 28.9518 202.886 29.375C202.723 29.7819 202.642 30.8968 202.642 32.7197V35.0879H205.522Z" fill="black"/>
<path d="M189.531 55.9863H181.084V33.6475L176.982 55.9863H171.587L167.339 33.6475V55.9863H158.892V23.5889H171.123L174.272 41.4844L177.129 23.5889H189.531V55.9863Z" fill="black"/>
<path d="M98.0029 36.748H148.589V42.8271H98.0029V36.748Z" fill="black"/>
<path d="M74.9561 46.7334C74.9561 49.6956 74.6061 51.8197 73.9062 53.1055C73.2227 54.3913 72.1403 55.1969 70.6592 55.5225C69.1781 55.8317 66.7611 55.9863 63.4082 55.9863H52.0068V23.5889H61.7969V34.3799H63.4082C66.5495 34.3799 68.8932 34.5671 70.4395 34.9414C71.9857 35.3158 73.125 36.1377 73.8574 37.4072C74.5898 38.6768 74.9561 40.6868 74.9561 43.4375V46.7334ZM65.1416 45.5371V44.2432C65.1416 42.5667 64.9707 41.5495 64.6289 41.1914C64.3034 40.8333 63.3594 40.6299 61.7969 40.5811V49.1748C63.099 49.1748 63.9779 49.012 64.4336 48.6865C64.9056 48.3447 65.1416 47.2949 65.1416 45.5371ZM87.749 55.9863H77.959V23.5889H87.749V55.9863Z" fill="black"/>
<path d="M48.1738 16.46V55.9863H39.1895V29.3018L35.6006 55.9863H29.2285L25.4443 29.9121V55.9863H16.46V16.46H29.7656C30.1562 18.8363 30.5713 21.6357 31.0107 24.8584L32.4268 34.917L34.7705 16.46H48.1738Z" fill="black"/>
<path d="M515.28 0L513.56 31.7783V72.4463H471.411V55.9863H471.88C472.645 52.487 473.353 48.8167 474.004 44.9756C474.492 48.0518 475.208 51.722 476.152 55.9863H485.747L480.986 39.0674L484.917 23.5889H476.152C475.664 25.5745 474.948 29.3262 474.004 34.8438C473.906 33.9486 473.198 30.1969 471.88 23.5889H470.968L469.69 0H515.28ZM487.871 48.0762V55.9863H497.1V48.0762H487.871ZM487.065 16.46L488.677 46.2207H496.294L497.905 16.46H487.065Z" fill="black"/>
<path d="M506.079 7.12891L498.023 38.8477L507.478 72.4463H442.524L446.511 56.5693C446.56 56.5701 446.61 56.5723 446.66 56.5723C447.979 56.5723 449.11 56.2874 450.054 55.7178C451.014 55.1318 451.795 54.2611 452.397 53.1055V55.9863H461.992V39.7266C461.992 34.3717 461.821 30.8398 461.479 29.1309C461.138 27.4056 460.12 25.957 458.428 24.7852C456.735 23.597 454.22 23.0029 450.884 23.0029C449.26 23.0029 447.813 23.1814 446.544 23.5361L442.042 7.12891H506.079ZM463.628 23.5889L467.876 39.0674L463.628 55.9863H471.88C472.645 52.487 473.353 48.8167 474.004 44.9756C474.492 48.0518 475.208 51.722 476.152 55.9863H485.747L480.986 39.0674L484.917 23.5889H476.152C475.664 25.5745 474.948 29.3262 474.004 34.8438C473.906 33.9486 473.198 30.1969 471.88 23.5889H463.628ZM487.871 48.0762V55.9863H497.1V48.0762H487.871ZM452.129 47.2461C452.129 48.8737 452.031 49.8828 451.836 50.2734C451.657 50.6478 451.258 50.835 450.64 50.835C449.989 50.835 449.549 50.5908 449.321 50.1025C449.11 49.6143 449.004 48.5319 449.004 46.8555C449.004 46.7797 449.005 46.7048 449.006 46.6309L450.076 42.3701C450.548 41.8343 451.232 41.2378 452.129 40.5811V47.2461ZM487.065 16.46L488.677 46.2207H496.294L497.905 16.46H487.065ZM450.493 28.7402C451.079 28.7402 451.494 29.0007 451.738 29.5215C451.999 30.026 452.129 31.1247 452.129 32.8174C452.129 34.1683 452.015 35.0635 451.787 35.5029C451.665 35.7386 451.108 36.091 450.12 36.5654L449.005 32.501C449.012 30.8371 449.093 29.8033 449.248 29.3994C449.411 28.96 449.826 28.7402 450.493 28.7402Z" fill="black"/>
<path d="M450.884 6.54297C455.159 6.54297 460.747 7.15469 465.929 10.082L468.589 8.13477V11.8232C472.267 14.58 475.454 18.5001 477.032 23.5889H476.152C475.664 25.5745 474.948 29.3262 474.004 34.8438C473.906 33.9486 473.198 30.1969 471.88 23.5889H463.628L467.876 39.0674L463.628 55.9863H471.88C472.645 52.487 473.353 48.8167 474.004 44.9756C474.492 48.0518 475.208 51.722 476.152 55.9863H478.452V72.4463H451.977C450.15 72.8587 448.356 73.0322 446.66 73.0322C444.818 73.0322 443.008 72.8336 441.25 72.4463H435.938V70.623C434.86 70.1106 433.813 69.5193 432.805 68.8506L432.716 68.792L432.627 68.7314C427.448 65.2006 425.128 60.2713 424.098 55.9863H424.102L428.203 33.6475V55.9863H436.65V23.5889H429.896L425.477 21.6953C427.847 16.1646 431.993 12.6251 435.647 10.4395L436.124 10.1611C441.062 7.35143 446.333 6.54297 450.884 6.54297ZM450.884 23.0029C448.101 23.0029 445.838 23.5238 444.097 24.5654C442.355 25.6071 441.191 26.8115 440.605 28.1787C440.036 29.5296 439.751 31.4583 439.751 33.9648V36.1377H449.004V32.7441C449.004 30.9375 449.085 29.8226 449.248 29.3994C449.411 28.96 449.826 28.7402 450.493 28.7402C451.079 28.7402 451.494 29.0007 451.738 29.5215C451.999 30.026 452.129 31.1247 452.129 32.8174C452.129 34.1683 452.015 35.0635 451.787 35.5029C451.559 35.9424 449.826 36.7969 446.587 38.0664C443.56 39.2383 441.663 40.2637 440.898 41.1426C440.133 42.0215 439.751 43.6735 439.751 46.0986V48.7598C439.751 52.0312 440.467 54.1553 441.899 55.1318C443.348 56.0921 444.935 56.5723 446.66 56.5723C447.979 56.5723 449.11 56.2874 450.054 55.7178C451.014 55.1318 451.795 54.2611 452.397 53.1055V55.9863H461.992V39.7266C461.992 34.3717 461.821 30.8398 461.479 29.1309C461.138 27.4056 460.12 25.957 458.428 24.7852C456.735 23.597 454.22 23.0029 450.884 23.0029ZM452.129 47.2461C452.129 48.8737 452.031 49.8828 451.836 50.2734C451.657 50.6478 451.258 50.835 450.64 50.835C449.989 50.835 449.549 50.5908 449.321 50.1025C449.11 49.6143 449.004 48.5319 449.004 46.8555C449.004 45.3906 449.126 44.2676 449.37 43.4863C449.631 42.7051 450.55 41.7367 452.129 40.5811V47.2461ZM429.896 23.5889H424.767C424.965 22.9863 425.187 22.3827 425.439 21.7832L425.477 21.6953L429.896 23.5889Z" fill="black"/>
<path d="M424.248 23.5889L421.392 41.4844L418.242 23.5889H406.011V55.9863H414.458V33.6475L418.706 55.9863H424.102L428.203 33.6475V55.9863H436.65V23.5889H424.248ZM452.129 47.2461C452.129 48.8737 452.031 49.8828 451.836 50.2734C451.657 50.6478 451.258 50.835 450.64 50.835C449.989 50.835 449.549 50.5908 449.321 50.1025C449.11 49.6143 449.004 48.5319 449.004 46.8555C449.004 45.3906 449.126 44.2676 449.37 43.4863C449.631 42.7051 450.55 41.7367 452.129 40.5811V47.2461ZM391.509 28.7402C392.062 28.7402 392.428 28.9844 392.607 29.4727C392.786 29.9609 392.876 31.0433 392.876 32.7197V35.0879H389.995V32.7197C389.995 30.8968 390.076 29.7819 390.239 29.375C390.402 28.9518 390.825 28.7402 391.509 28.7402ZM450.884 23.0029C448.101 23.0029 445.838 23.5238 444.097 24.5654C442.355 25.6071 441.191 26.8115 440.605 28.1787C440.036 29.5296 439.751 31.4583 439.751 33.9648V36.1377H449.004V32.7441C449.004 30.9375 449.085 29.8226 449.248 29.3994C449.411 28.96 449.826 28.7402 450.493 28.7402C451.079 28.7402 451.494 29.0007 451.738 29.5215C451.999 30.026 452.129 31.1247 452.129 32.8174C452.129 34.1683 452.015 35.0635 451.787 35.5029C451.559 35.9424 449.826 36.7969 446.587 38.0664C443.56 39.2383 441.663 40.2637 440.898 41.1426C440.133 42.0215 439.751 43.6735 439.751 46.0986V48.7598C439.751 52.0312 440.467 54.1553 441.899 55.1318C443.348 56.0921 444.935 56.5723 446.66 56.5723C447.979 56.5723 449.11 56.2874 450.054 55.7178C451.014 55.1318 451.795 54.2611 452.397 53.1055V55.9863H453.11V72.4463H389.551V56.4521C390.244 56.5319 390.97 56.5723 391.729 56.5723C393.877 56.5723 395.659 56.2712 397.075 55.6689C398.507 55.0505 399.688 54.1309 400.615 52.9102C401.543 51.6895 402.129 50.542 402.373 49.4678C402.633 48.3936 402.764 46.8555 402.764 44.8535V42.4609H393.413V46.7334C393.413 48.3447 393.283 49.4352 393.022 50.0049C392.778 50.5583 392.282 50.835 391.533 50.835C390.931 50.835 390.524 50.6234 390.312 50.2002C390.101 49.777 389.995 48.833 389.995 47.3682V40.3613H402.764V36.0645C402.764 32.9232 402.397 30.4899 401.665 28.7646C400.949 27.0231 399.688 25.6315 397.881 24.5898C396.09 23.5319 393.812 23.0029 391.045 23.0029C390.534 23.0029 390.036 23.0254 389.551 23.0703V7.12891H453.11V23.1035C452.414 23.0372 451.672 23.0029 450.884 23.0029Z" fill="black"/>
<path d="M391.946 6.55371C396.44 6.6626 401.428 7.61226 406.102 10.3311C406.152 10.3604 406.204 10.3893 406.255 10.4189L406.254 10.4199C410.743 13.0465 414.578 17.0078 416.814 22.333H416.816C416.993 22.7494 417.157 23.1685 417.31 23.5889H406.011V55.9863H414.458V33.6475L418.706 55.9863H419.224V56.8213H417.238C416.245 59.2207 414.955 61.2443 413.72 62.8701C411.047 66.3862 407.585 69.0598 403.601 70.7803L403.517 70.8154C399.427 72.5548 395.274 73.0322 391.729 73.0322C388.086 73.0322 384.212 72.5075 380.397 71.0674C376.837 69.723 373.068 67.5099 369.992 63.9307L369.902 63.8271L369.814 63.7217C367.523 60.9634 365.761 57.7215 364.765 54.0674L364.758 54.041L364.751 54.0156C364.74 53.9751 364.73 53.9341 364.72 53.8936L368.438 33.6475V55.9863H376.885V23.5889H365.366C365.605 22.8983 365.874 22.2079 366.18 21.5225L366.383 21.0801C368.827 15.8613 372.853 12.0187 377.623 9.62793V9.62695C377.634 9.62127 377.646 9.61602 377.657 9.61035C377.683 9.59766 377.708 9.5839 377.733 9.57129V9.57227C382.083 7.40108 386.655 6.54297 391.045 6.54297L391.946 6.55371ZM391.045 23.0029C388.783 23.0029 386.781 23.4424 385.039 24.3213C383.298 25.1839 382.044 26.4372 381.279 28.0811C380.514 29.7087 380.132 31.9385 380.132 34.7705V44.2188C380.132 46.6276 380.303 48.4668 380.645 49.7363C380.986 50.9896 381.597 52.1452 382.476 53.2031C383.371 54.2448 384.616 55.0667 386.211 55.6689C387.806 56.2712 389.645 56.5723 391.729 56.5723C393.877 56.5723 395.659 56.2712 397.075 55.6689C398.507 55.0505 399.688 54.1309 400.615 52.9102C401.543 51.6895 402.129 50.542 402.373 49.4678C402.633 48.3936 402.764 46.8555 402.764 44.8535V42.4609H393.413V46.7334C393.413 48.3447 393.283 49.4352 393.022 50.0049C392.778 50.5583 392.282 50.835 391.533 50.835C390.931 50.835 390.524 50.6234 390.312 50.2002C390.101 49.777 389.995 48.833 389.995 47.3682V40.3613H402.764V36.0645C402.764 32.9232 402.397 30.4899 401.665 28.7646C400.949 27.0231 399.688 25.6315 397.881 24.5898C396.09 23.5319 393.812 23.0029 391.045 23.0029ZM391.509 28.7402C392.062 28.7402 392.428 28.9844 392.607 29.4727C392.786 29.9609 392.876 31.0433 392.876 32.7197V35.0879H389.995V32.7197C389.995 30.8968 390.076 29.7819 390.239 29.375C390.402 28.9518 390.825 28.7402 391.509 28.7402ZM419.224 26.001V29.165L418.667 26.001H419.224Z" fill="black"/>
<path d="M364.482 23.5889L361.626 41.4844L358.477 23.5889H346.245V55.9863H354.692V33.6475L358.94 55.9863H364.336L368.438 33.6475V55.9863H376.885V23.5889H364.482ZM393.345 48.4639C393.282 49.1568 393.175 49.6706 393.022 50.0049C392.778 50.5583 392.282 50.835 391.533 50.835C390.931 50.835 390.524 50.6234 390.312 50.2002C390.101 49.777 389.995 48.833 389.995 47.3682V40.3613H393.345V48.4639ZM391.509 28.7402C392.062 28.7402 392.428 28.9844 392.607 29.4727C392.786 29.9609 392.876 31.0433 392.876 32.7197V35.0879H389.995V32.7197C389.995 30.8968 390.076 29.7819 390.239 29.375C390.402 28.9518 390.825 28.7402 391.509 28.7402ZM391.045 23.0029C388.783 23.0029 386.781 23.4424 385.039 24.3213C383.298 25.1839 382.044 26.4372 381.279 28.0811C380.514 29.7087 380.132 31.9385 380.132 34.7705V44.2188C380.132 46.6276 380.303 48.4668 380.645 49.7363C380.986 50.9896 381.597 52.1452 382.476 53.2031C383.371 54.2448 384.616 55.0667 386.211 55.6689C387.806 56.2712 389.645 56.5723 391.729 56.5723C392.293 56.5723 392.831 56.5503 393.345 56.5088V72.4463H329.785V54.915C330.562 54.4283 331.239 53.834 331.816 53.1299C332.777 51.9417 333.403 50.6722 333.696 49.3213C333.989 47.9541 334.136 45.8138 334.136 42.9004V34.9658C334.136 32.6709 333.973 30.9619 333.647 29.8389C333.338 28.7158 332.752 27.6253 331.89 26.5674C331.338 25.8909 330.636 25.2982 329.785 24.7881V7.12891H393.345V23.1396C392.62 23.0494 391.853 23.0029 391.045 23.0029Z" fill="black"/>
<path d="M322.515 6.54297C326.258 6.54297 330.378 7.0935 334.422 8.7666L334.423 8.76465C334.459 8.77941 334.495 8.7956 334.531 8.81055C334.558 8.82166 334.585 8.83157 334.611 8.84277L334.61 8.84473C337.936 10.2289 341.468 12.4077 344.363 15.8252L344.646 16.166L345.029 16.6465C346.574 18.6283 347.944 20.9422 348.913 23.5889H346.245V55.9863H348.866C347.853 58.7906 346.38 61.2963 344.618 63.4766L344.548 63.5625C341.63 67.1239 337.936 69.6299 333.903 71.1475L333.857 71.1641L333.812 71.1816C330.131 72.542 326.409 73.0322 322.93 73.0322C319.664 73.0322 316.057 72.6913 312.487 71.5781L312.335 71.5293C308.682 70.3509 304.726 68.2352 301.499 64.5742L301.401 64.4639L301.307 64.3516C299.123 61.7829 297.605 58.9238 296.631 55.9863H299.59V39.7266C299.59 34.3717 299.419 30.8398 299.077 29.1309C298.759 27.5265 297.857 26.1619 296.371 25.0361C296.592 24.2568 296.847 23.4786 297.143 22.709L297.343 22.2061C299.46 17.0409 303.122 13.1101 307.492 10.4629C312.476 7.44362 317.841 6.54297 322.515 6.54297ZM322.515 23.0029C319.878 23.0029 317.713 23.5156 316.021 24.541C314.328 25.5664 313.156 26.9255 312.505 28.6182C311.854 30.3109 311.528 32.6628 311.528 35.6738V43.9746C311.528 46.7253 311.707 48.7923 312.065 50.1758C312.424 51.543 313.018 52.7148 313.848 53.6914C314.694 54.6517 315.874 55.376 317.388 55.8643C318.901 56.3363 320.749 56.5723 322.93 56.5723C324.883 56.5723 326.608 56.2956 328.105 55.7422C329.619 55.1725 330.856 54.3018 331.816 53.1299C332.777 51.9417 333.403 50.6722 333.696 49.3213C333.989 47.9541 334.136 45.8138 334.136 42.9004V34.9658C334.136 32.6709 333.973 30.9619 333.647 29.8389C333.338 28.7158 332.752 27.6253 331.89 26.5674C331.027 25.5094 329.798 24.6549 328.203 24.0039C326.624 23.3366 324.728 23.0029 322.515 23.0029ZM324.272 47.4658C324.272 48.8656 324.175 49.777 323.979 50.2002C323.8 50.6234 323.418 50.835 322.832 50.835C322.262 50.835 321.88 50.6071 321.685 50.1514C321.489 49.6794 321.392 48.6784 321.392 47.1484V32.5244C321.392 30.8643 321.489 29.8226 321.685 29.3994C321.88 28.96 322.271 28.7402 322.856 28.7402C323.442 28.7402 323.825 28.96 324.004 29.3994C324.183 29.8226 324.272 30.8643 324.272 32.5244V47.4658Z" fill="black"/>
<path d="M288.481 6.54297C292.757 6.54297 298.345 7.15469 303.526 10.082L306.187 8.13477V11.8232C310.244 14.864 313.702 19.3205 315.064 25.1992C313.879 26.1258 313.025 27.2652 312.505 28.6182C311.854 30.3109 311.528 32.6628 311.528 35.6738V43.9746C311.528 46.7253 311.707 48.7923 312.065 50.1758C312.424 51.543 313.018 52.7148 313.848 53.6914C314.426 54.3474 315.16 54.8924 316.05 55.3281V72.4463H289.574C287.748 72.8587 285.954 73.0322 284.258 73.0322C282.415 73.0322 280.606 72.8336 278.848 72.4463H273.535V70.623C272.458 70.1106 271.411 69.5193 270.402 68.8506L270.313 68.792L270.225 68.7314C263.603 64.2164 261.656 57.4148 261.102 52.5977H260.889V50.6406L265.654 38.4814V55.9863H274.248V23.5889H267.493L263.074 21.6953C265.445 16.1646 269.591 12.6251 273.245 10.4395L273.722 10.1611C278.66 7.35143 283.931 6.54297 288.481 6.54297ZM288.481 23.0029C285.698 23.0029 283.436 23.5238 281.694 24.5654C279.953 25.6071 278.789 26.8115 278.203 28.1787C277.633 29.5296 277.349 31.4583 277.349 33.9648V36.1377H286.602V32.7441C286.602 30.9375 286.683 29.8226 286.846 29.3994C287.008 28.96 287.424 28.7402 288.091 28.7402C288.677 28.7402 289.092 29.0007 289.336 29.5215C289.596 30.026 289.727 31.1247 289.727 32.8174C289.727 34.1683 289.613 35.0635 289.385 35.5029C289.157 35.9424 287.424 36.7969 284.185 38.0664C281.157 39.2383 279.261 40.2637 278.496 41.1426C277.731 42.0215 277.349 43.6735 277.349 46.0986V48.7598C277.349 52.0312 278.065 54.1553 279.497 55.1318C280.946 56.0921 282.533 56.5723 284.258 56.5723C285.576 56.5723 286.707 56.2874 287.651 55.7178C288.612 55.1318 289.393 54.2611 289.995 53.1055V55.9863H299.59V39.7266C299.59 34.3717 299.419 30.8398 299.077 29.1309C298.735 27.4056 297.718 25.957 296.025 24.7852C294.333 23.597 291.818 23.0029 288.481 23.0029ZM289.727 47.2461C289.727 48.8737 289.629 49.8828 289.434 50.2734C289.255 50.6478 288.856 50.835 288.237 50.835C287.586 50.835 287.147 50.5908 286.919 50.1025C286.707 49.6143 286.602 48.5319 286.602 46.8555C286.602 45.3906 286.724 44.2676 286.968 43.4863C287.228 42.7051 288.148 41.7367 289.727 40.5811V47.2461ZM260.889 33.9648C260.889 30.6007 261.214 26.1066 263.037 21.7832L263.074 21.6953L267.493 23.5889H265.142L260.889 34.5439V33.9648Z" fill="black"/>
<path d="M274.248 23.5889H265.142L258.403 40.9473V23.5889H249.81V55.9863H258.794L265.654 38.4814V55.9863H274.248V23.5889ZM289.727 47.2461C289.727 48.8737 289.629 49.8828 289.434 50.2734C289.255 50.6478 288.856 50.835 288.237 50.835C287.586 50.835 287.147 50.5908 286.919 50.1025C286.707 49.6143 286.602 48.5319 286.602 46.8555C286.602 45.3906 286.724 44.2676 286.968 43.4863C287.228 42.7051 288.148 41.7367 289.727 40.5811V47.2461ZM235.454 30.8887V48.1982H233.35V30.8887H235.454ZM288.481 23.0029C285.698 23.0029 283.436 23.5238 281.694 24.5654C279.953 25.6071 278.789 26.8115 278.203 28.1787C277.633 29.5296 277.349 31.4583 277.349 33.9648V36.1377H286.602V32.7441C286.602 30.9375 286.683 29.8226 286.846 29.3994C287.008 28.96 287.424 28.7402 288.091 28.7402C288.677 28.7402 289.092 29.0007 289.336 29.5215C289.596 30.026 289.727 31.1247 289.727 32.8174C289.727 34.1683 289.613 35.0635 289.385 35.5029C289.157 35.9424 287.424 36.7969 284.185 38.0664C281.157 39.2383 279.261 40.2637 278.496 41.1426C277.731 42.0215 277.349 43.6735 277.349 46.0986V48.7598C277.349 52.0312 278.065 54.1553 279.497 55.1318C280.946 56.0921 282.533 56.5723 284.258 56.5723C285.576 56.5723 286.707 56.2874 287.651 55.7178C288.612 55.1318 289.393 54.2611 289.995 53.1055V55.9863H290.708V72.4463H233.35V55.9863H240.752V62.2363H247.344V48.1982H245.244V23.5889H233.35V7.12891H290.708V23.1035C290.012 23.0372 289.27 23.0029 288.481 23.0029Z" fill="black"/>
<path d="M223.955 23.5889V24.7852C223.955 30.3353 223.548 35.153 222.734 39.2383C221.937 43.3073 220.911 46.3102 219.658 48.2471H217.559V62.2363H224.15V55.9863H240.752V62.2363H247.344V48.1982H245.244V23.5889H223.955ZM235.454 30.8887V48.1982H229.961C231.914 42.9085 232.891 37.2526 232.891 31.2305V30.8887H235.454ZM258.403 23.5889H249.81V55.9863H258.794L263.804 43.2031V78.6963H201.099V56.2871C202.114 56.4767 203.206 56.5723 204.375 56.5723C206.523 56.5723 208.306 56.2712 209.722 55.6689C211.154 55.0505 212.334 54.1309 213.262 52.9102C214.189 51.6895 214.775 50.542 215.02 49.4678C215.28 48.3936 215.41 46.8555 215.41 44.8535V42.4609H206.06V46.7334C206.06 48.3447 205.929 49.4352 205.669 50.0049C205.425 50.5583 204.928 50.835 204.18 50.835C203.577 50.835 203.171 50.6234 202.959 50.2002C202.747 49.777 202.642 48.833 202.642 47.3682V40.3613H215.41V36.0645C215.41 32.9232 215.044 30.4899 214.312 28.7646C213.595 27.0231 212.334 25.6315 210.527 24.5898C209.637 24.0639 208.627 23.6688 207.495 23.4043V7.12891H261.704V31.7383H261.979L258.403 40.9473V23.5889ZM205.511 31.7871C205.518 32.0743 205.522 32.3852 205.522 32.7197V35.0879H202.642V32.7197C202.642 32.385 202.646 32.0741 202.651 31.7871H205.511Z" fill="black"/>
<path d="M204.593 6.55371C209.086 6.6626 214.075 7.61226 218.748 10.3311C218.799 10.3604 218.851 10.3893 218.901 10.4189L218.9 10.4199C223.389 13.0465 227.224 17.0078 229.461 22.333H229.463C229.64 22.7494 229.803 23.1685 229.956 23.5889H223.955V24.7852C223.955 30.3353 223.548 35.153 222.734 39.2383C221.937 43.3073 220.911 46.3102 219.658 48.2471H217.559V62.2363H224.15V55.9863H231.87V56.8213H229.885C228.892 59.2207 227.602 61.2443 226.366 62.8701C223.694 66.3862 220.231 69.0598 216.247 70.7803L216.163 70.8154C212.073 72.5548 207.92 73.0322 204.375 73.0322C200.733 73.0322 196.858 72.5075 193.044 71.0674C189.483 69.723 185.715 67.5099 182.639 63.9307L182.549 63.8271L182.461 63.7217C180.169 60.9634 178.408 57.7215 177.411 54.0674L177.404 54.041L177.397 54.0156C177.387 53.9751 177.377 53.9341 177.366 53.8936L181.084 33.6475V55.9863H189.531V23.5889H178.013C178.251 22.8983 178.52 22.2079 178.826 21.5225L179.029 21.0801C181.474 15.8613 185.5 12.0187 190.27 9.62793V9.62695C190.281 9.62127 190.292 9.61602 190.304 9.61035C190.329 9.59766 190.354 9.5839 190.38 9.57129V9.57227C194.73 7.40108 199.302 6.54297 203.691 6.54297L204.593 6.55371ZM203.691 23.0029C201.429 23.0029 199.427 23.4424 197.686 24.3213C195.944 25.1839 194.691 26.4372 193.926 28.0811C193.161 29.7087 192.778 31.9385 192.778 34.7705V44.2188C192.778 46.6276 192.949 48.4668 193.291 49.7363C193.633 50.9896 194.243 52.1452 195.122 53.2031C196.017 54.2448 197.262 55.0667 198.857 55.6689C200.452 56.2712 202.292 56.5723 204.375 56.5723C206.523 56.5723 208.306 56.2712 209.722 55.6689C211.154 55.0505 212.334 54.1309 213.262 52.9102C214.189 51.6895 214.775 50.542 215.02 49.4678C215.28 48.3936 215.41 46.8555 215.41 44.8535V42.4609H206.06V46.7334C206.06 48.3447 205.929 49.4352 205.669 50.0049C205.425 50.5583 204.928 50.835 204.18 50.835C203.577 50.835 203.171 50.6234 202.959 50.2002C202.747 49.777 202.642 48.833 202.642 47.3682V40.3613H215.41V36.0645C215.41 32.9232 215.044 30.4899 214.312 28.7646C213.595 27.0231 212.334 25.6315 210.527 24.5898C208.737 23.5319 206.458 23.0029 203.691 23.0029ZM231.87 48.1982H229.961C230.763 46.0258 231.397 43.791 231.87 41.4951V48.1982ZM204.155 28.7402C204.709 28.7402 205.075 28.9844 205.254 29.4727C205.433 29.9609 205.522 31.0433 205.522 32.7197V35.0879H202.642V32.7197C202.642 30.8968 202.723 29.7819 202.886 29.375C203.049 28.9518 203.472 28.7402 204.155 28.7402Z" fill="black"/>
<path d="M177.129 23.5889L174.272 41.4844L171.123 23.5889H158.892V55.9863H167.339V33.6475L171.587 55.9863H176.982L181.084 33.6475V55.9863H189.531V23.5889H177.129ZM205.991 48.4639C205.928 49.1568 205.822 49.6706 205.669 50.0049C205.425 50.5583 204.928 50.835 204.18 50.835C203.577 50.835 203.171 50.6234 202.959 50.2002C202.747 49.777 202.642 48.833 202.642 47.3682V40.3613H205.991V48.4639ZM204.155 28.7402C204.709 28.7402 205.075 28.9844 205.254 29.4727C205.433 29.9609 205.522 31.0433 205.522 32.7197V35.0879H202.642V32.7197C202.642 30.8968 202.723 29.7819 202.886 29.375C203.049 28.9518 203.472 28.7402 204.155 28.7402ZM203.691 23.0029C201.429 23.0029 199.427 23.4424 197.686 24.3213C195.944 25.1839 194.691 26.4372 193.926 28.0811C193.161 29.7087 192.778 31.9385 192.778 34.7705V44.2188C192.778 46.6276 192.949 48.4668 193.291 49.7363C193.633 50.9896 194.243 52.1452 195.122 53.2031C196.017 54.2448 197.262 55.0667 198.857 55.6689C200.452 56.2712 202.292 56.5723 204.375 56.5723C204.939 56.5723 205.478 56.5503 205.991 56.5088V72.4463H142.432V42.8271H148.589V36.748H142.432V7.12891H205.991V23.1396C205.266 23.0494 204.5 23.0029 203.691 23.0029Z" fill="black"/>
<path d="M165.049 20.2881V23.5889H158.892V55.9863H165.049V59.2871H81.543V55.9863H87.749V23.5889H81.543V20.2881H165.049ZM98.0029 36.748V42.8271H148.589V36.748H98.0029Z" fill="black"/>
<path d="M77.959 23.5889V55.9863H87.749V23.5889H77.959ZM61.7969 40.5811C63.3594 40.6299 64.3034 40.8333 64.6289 41.1914C64.9707 41.5495 65.1416 42.5667 65.1416 44.2432V45.5371C65.1416 47.2949 64.9056 48.3447 64.4336 48.6865C63.9779 49.012 63.099 49.1748 61.7969 49.1748V40.5811ZM52.0068 55.9863H63.4082C66.7611 55.9863 69.1781 55.8317 70.6592 55.5225C72.1403 55.1969 73.2227 54.3913 73.9062 53.1055C74.6061 51.8197 74.9561 49.6956 74.9561 46.7334V43.4375C74.9561 40.6868 74.5898 38.6768 73.8574 37.4072C73.125 36.1377 71.9857 35.3158 70.4395 34.9414C68.8932 34.5671 66.5495 34.3799 63.4082 34.3799H61.7969V23.5889H52.0068V55.9863ZM104.209 36.748H98.0029V42.8271H104.209V72.4463H35.5469V55.9863H35.6006L39.1895 29.3018V55.9863H48.1738V16.46H35.5469V7.12891H104.209V36.748Z" fill="black"/>
<path d="M34.7705 16.46L32.4268 34.917L31.0107 24.8584C30.5713 21.6357 30.1562 18.8363 29.7656 16.46H16.46V55.9863H25.4443V29.9121L29.2285 55.9863H35.6006L39.1895 29.3018V55.9863H48.1738V16.46H34.7705ZM61.7969 40.5811C63.3594 40.6299 64.3034 40.8333 64.6289 41.1914C64.6307 41.1932 64.6321 41.1954 64.6338 41.1973V48.4766C64.5722 48.5631 64.5065 48.6338 64.4336 48.6865C63.9779 49.012 63.099 49.1748 61.7969 49.1748V40.5811ZM64.6338 34.3906C64.2397 34.3838 63.8312 34.3799 63.4082 34.3799H61.7969V23.5889H52.0068V55.9863H63.4082C63.8317 55.9863 64.2402 55.9834 64.6338 55.9785V72.4463H0V0H64.6338V34.3906Z" fill="black"/>
</svg>
