<svg width="2314" height="353" viewBox="0 0 2314 353" fill="none" xmlns="http://www.w3.org/2000/svg">
<rect y="53.8887" width="244.129" height="244.129" fill="black"/>
<rect x="457.286" y="53.8887" width="244.129" height="244.129" fill="black"/>
<rect x="147.571" y="53.8887" width="244.129" height="278.744" fill="black"/>
<path d="M725.101 137.694L818.189 298.929H632.012L725.101 137.694Z" fill="black"/>
<path d="M725.101 216.034L632.012 54.7996L818.189 54.7996L725.101 216.034Z" fill="black"/>
<circle cx="402.631" cy="194.171" r="123.886" fill="black"/>
<path d="M736.41 239.543C736.41 250.27 694.026 246.772 681.483 246.772C664.184 246.772 593.255 251.669 593.255 237.911V127.142C593.255 112.917 732.518 114.316 732.95 125.976C732.95 129.007 723.435 133.904 717.38 133.904L653.804 134.138C633.044 134.138 625.692 143.232 625.692 153.26C625.692 189.639 718.245 160.256 718.245 179.611C718.245 202.931 625.692 167.018 625.692 209.694C625.692 255.167 736.41 216.223 736.41 239.543Z" fill="white"/>
<path d="M586.196 240.476L585.764 240.242C585.764 249.804 554.624 249.337 554.624 239.543V192.67C554.624 188.939 552.462 171.449 543.379 171.449C525.647 171.449 525.214 205.03 503.59 205.03C481.533 205.03 479.37 171.449 463.368 171.216C453.853 171.216 451.691 188.473 451.691 192.437L451.258 239.776C451.258 249.57 420.119 250.27 420.119 240.242V128.307C420.119 121.078 436.553 120.146 446.933 120.146C494.507 120.146 475.91 155.125 503.157 155.125C528.242 155.125 516.565 120.146 554.624 120.146C564.571 120.146 586.196 120.612 586.196 128.307V240.476Z" fill="white"/>
<path d="M409.239 233.014H408.806C408.806 241.875 401.454 242.808 386.749 243.041C372.909 243.041 364.259 241.875 364.259 233.247C364.259 224.619 373.342 223.22 387.181 223.22C401.886 222.986 409.239 224.152 409.239 233.014Z" fill="white"/>
<path d="M343.618 239.543C343.618 250.27 301.234 246.772 288.691 246.772C271.392 246.772 200.463 251.669 200.463 237.911V127.142C200.463 112.917 339.726 114.316 340.158 125.976C340.158 129.007 330.643 133.904 324.588 133.904L261.012 134.138C240.252 134.138 232.9 143.232 232.9 153.26C232.9 189.639 325.453 160.256 325.453 179.611C325.453 202.931 232.9 167.018 232.9 209.694C232.9 255.167 343.618 216.223 343.618 239.543Z" fill="white"/>
<path d="M193.404 240.476L192.972 240.242C192.972 249.804 161.832 249.337 161.832 239.543V192.67C161.832 188.939 159.67 171.449 150.588 171.449C132.855 171.449 132.423 205.03 110.798 205.03C88.7412 205.03 86.5787 171.449 70.5765 171.216C61.0616 171.216 58.8991 188.473 58.8991 192.437L58.4666 239.776C58.4666 249.57 27.3271 250.27 27.3271 240.242V128.307C27.3271 121.078 43.7619 120.146 54.1417 120.146C101.716 120.146 83.1187 155.125 110.366 155.125C135.45 155.125 123.773 120.146 161.832 120.146C171.78 120.146 193.404 120.612 193.404 128.307V240.476Z" fill="white"/>
<rect x="742.658" y="53.8887" width="244.129" height="244.129" fill="black"/>
<rect x="1199.94" y="53.8887" width="244.129" height="244.129" fill="black"/>
<rect x="890.229" y="53.8887" width="244.129" height="278.744" fill="black"/>
<path d="M1467.76 137.694L1560.85 298.929H1374.67L1467.76 137.694Z" fill="black"/>
<path d="M1467.76 216.034L1374.67 54.7996L1560.85 54.7996L1467.76 216.034Z" fill="black"/>
<circle cx="1145.29" cy="194.171" r="123.886" fill="black"/>
<path d="M1479.07 239.543C1479.07 250.27 1436.68 246.772 1424.14 246.772C1406.84 246.772 1335.91 251.669 1335.91 237.911V127.142C1335.91 112.917 1475.18 114.316 1475.61 125.976C1475.61 129.007 1466.09 133.904 1460.04 133.904L1396.46 134.138C1375.7 134.138 1368.35 143.232 1368.35 153.26C1368.35 189.639 1460.9 160.256 1460.9 179.611C1460.9 202.931 1368.35 167.018 1368.35 209.694C1368.35 255.167 1479.07 216.223 1479.07 239.543Z" fill="white"/>
<path d="M1328.85 240.476L1328.42 240.242C1328.42 249.804 1297.28 249.337 1297.28 239.543V192.67C1297.28 188.939 1295.12 171.449 1286.04 171.449C1268.31 171.449 1267.87 205.03 1246.25 205.03C1224.19 205.03 1222.03 171.449 1206.03 171.216C1196.51 171.216 1194.35 188.473 1194.35 192.437L1193.92 239.776C1193.92 249.57 1162.78 250.27 1162.78 240.242V128.307C1162.78 121.078 1179.21 120.146 1189.59 120.146C1237.17 120.146 1218.57 155.125 1245.82 155.125C1270.9 155.125 1259.22 120.146 1297.28 120.146C1307.23 120.146 1328.85 120.612 1328.85 128.307V240.476Z" fill="white"/>
<path d="M1151.9 233.014H1151.46C1151.46 241.875 1144.11 242.808 1129.41 243.041C1115.57 243.041 1106.92 241.875 1106.92 233.247C1106.92 224.619 1116 223.22 1129.84 223.22C1144.54 222.986 1151.9 224.152 1151.9 233.014Z" fill="white"/>
<path d="M1086.28 239.543C1086.28 250.27 1043.89 246.772 1031.35 246.772C1014.05 246.772 943.121 251.669 943.121 237.911V127.142C943.121 112.917 1082.38 114.316 1082.82 125.976C1082.82 129.007 1073.3 133.904 1067.25 133.904L1003.67 134.138C982.91 134.138 975.558 143.232 975.558 153.26C975.558 189.639 1068.11 160.256 1068.11 179.611C1068.11 202.931 975.558 167.018 975.558 209.694C975.558 255.167 1086.28 216.223 1086.28 239.543Z" fill="white"/>
<path d="M936.063 240.476L935.63 240.242C935.63 249.804 904.491 249.337 904.491 239.543V192.67C904.491 188.939 902.328 171.449 893.246 171.449C875.514 171.449 875.081 205.03 853.457 205.03C831.399 205.03 829.237 171.449 813.235 171.216C803.72 171.216 801.557 188.473 801.557 192.437L801.125 239.776C801.125 249.57 769.985 250.27 769.985 240.242V128.307C769.985 121.078 786.42 120.146 796.8 120.146C844.374 120.146 825.777 155.125 853.024 155.125C878.109 155.125 866.431 120.146 904.491 120.146C914.438 120.146 936.063 120.612 936.063 128.307V240.476Z" fill="white"/>
<rect x="1481.09" y="52.835" width="244.129" height="244.129" fill="black"/>
<rect x="1938.38" y="52.835" width="244.129" height="244.129" fill="black"/>
<rect x="1628.66" y="52.835" width="244.129" height="278.744" fill="black"/>
<path d="M2206.19 136.64L2299.28 297.874H2113.1L2206.19 136.64Z" fill="black"/>
<path d="M2206.19 214.979L2113.1 53.7449L2299.28 53.7449L2206.19 214.979Z" fill="black"/>
<circle cx="1883.72" cy="193.117" r="123.886" fill="black"/>
<path d="M2217.5 238.488C2217.5 249.216 2175.12 245.718 2162.58 245.718C2145.28 245.718 2074.35 250.615 2074.35 236.856V126.087C2074.35 111.862 2213.61 113.261 2214.04 124.921C2214.04 127.953 2204.53 132.85 2198.47 132.85L2134.9 133.083C2114.14 133.083 2106.79 142.178 2106.79 152.205C2106.79 188.584 2199.34 159.201 2199.34 178.556C2199.34 201.876 2106.79 165.964 2106.79 208.639C2106.79 254.113 2217.5 215.169 2217.5 238.488Z" fill="white"/>
<path d="M2067.29 239.422L2066.86 239.189C2066.86 248.75 2035.72 248.284 2035.72 238.489V191.616C2035.72 187.885 2033.55 170.395 2024.47 170.395C2006.74 170.395 2006.31 203.976 1984.68 203.976C1962.63 203.976 1960.46 170.395 1944.46 170.162C1934.95 170.162 1932.78 187.419 1932.78 191.383L1932.35 238.722C1932.35 248.517 1901.21 249.216 1901.21 239.189V127.254C1901.21 120.025 1917.65 119.092 1928.03 119.092C1975.6 119.092 1957 154.072 1984.25 154.072C2009.33 154.072 1997.66 119.092 2035.72 119.092C2045.66 119.092 2067.29 119.558 2067.29 127.254V239.422Z" fill="white"/>
<path d="M1890.33 231.959H1889.9C1889.9 240.821 1882.55 241.754 1867.84 241.987C1854 241.987 1845.35 240.821 1845.35 232.192C1845.35 223.564 1854.43 222.165 1868.27 222.165C1882.98 221.932 1890.33 223.098 1890.33 231.959Z" fill="white"/>
<path d="M1824.71 238.488C1824.71 249.216 1782.33 245.718 1769.78 245.718C1752.48 245.718 1681.56 250.615 1681.56 236.856V126.087C1681.56 111.862 1820.82 113.261 1821.25 124.921C1821.25 127.953 1811.74 132.85 1805.68 132.85L1742.1 133.083C1721.35 133.083 1713.99 142.178 1713.99 152.205C1713.99 188.584 1806.55 159.201 1806.55 178.556C1806.55 201.876 1713.99 165.964 1713.99 208.639C1713.99 254.113 1824.71 215.169 1824.71 238.488Z" fill="white"/>
<path d="M1674.5 239.422L1674.06 239.189C1674.06 248.75 1642.93 248.284 1642.93 238.489V191.616C1642.93 187.885 1640.76 170.395 1631.68 170.395C1613.95 170.395 1613.52 203.976 1591.89 203.976C1569.83 203.976 1567.67 170.395 1551.67 170.162C1542.15 170.162 1539.99 187.419 1539.99 191.383L1539.56 238.722C1539.56 248.517 1508.42 249.216 1508.42 239.189V127.254C1508.42 120.025 1524.85 119.092 1535.23 119.092C1582.81 119.092 1564.21 154.072 1591.46 154.072C1616.54 154.072 1604.87 119.092 1642.93 119.092C1652.87 119.092 1674.5 119.558 1674.5 127.254V239.422Z" fill="white"/>
</svg>
