<svg xmlns="http://www.w3.org/2000/svg" width="754" height="789" viewBox="0 0 754 789" fill="none">
  <path fill-rule="evenodd" clip-rule="evenodd" d="M629.086 710.544C628.823 710.483 628.566 710.394 628.32 710.279C628.307 710.273 628.294 710.269 628.282 710.263C628.269 710.257 628.257 710.25 628.244 710.244C628.239 710.241 628.233 710.238 628.228 710.235C628.224 710.233 628.216 710.228 628.213 710.227C628.218 710.229 628.223 710.232 628.228 710.235C628.233 710.238 628.239 710.241 628.244 710.244C628.257 710.25 628.269 710.257 628.282 710.263C628.294 710.269 628.307 710.273 628.32 710.279C628.567 710.394 628.823 710.483 629.086 710.544ZM637.404 700.633L637.401 700.614L637.398 700.596L637.396 700.584C637.397 700.588 637.397 700.592 637.398 700.596C637.399 700.602 637.4 700.608 637.401 700.614C637.401 700.617 637.403 700.63 637.404 700.633C637.406 700.649 637.409 700.666 637.411 700.682C637.414 700.702 637.416 700.722 637.418 700.742C637.419 700.751 637.42 700.76 637.421 700.768C637.422 700.775 637.423 700.783 637.423 700.79C637.424 700.797 637.425 700.804 637.426 700.811C637.425 700.807 637.424 700.793 637.423 700.79C637.424 700.793 637.423 700.786 637.423 700.79C637.423 700.786 637.421 700.772 637.421 700.768C637.42 700.76 637.419 700.751 637.418 700.742C637.416 700.722 637.414 700.702 637.411 700.682C637.409 700.666 637.406 700.649 637.404 700.633C637.404 700.636 637.403 700.63 637.404 700.633ZM485.265 699.095C485.264 699.092 485.267 699.098 485.265 699.095C485.268 699.1 485.271 699.106 485.274 699.111L485.265 699.095ZM677.987 519.537C677.99 519.536 678.005 519.534 678.008 519.533L677.987 519.537ZM94.0157 560.86C94.0112 560.863 94.006 560.864 94.0015 560.867L94.0157 560.86ZM106.721 380.747C106.722 380.749 106.719 380.745 106.721 380.747C106.715 380.74 106.709 380.732 106.702 380.724C106.698 380.718 106.693 380.712 106.689 380.707L106.682 380.699C106.684 380.701 106.687 380.705 106.689 380.707C106.693 380.712 106.698 380.718 106.702 380.724C106.709 380.732 106.715 380.74 106.721 380.747C106.725 380.752 106.729 380.757 106.732 380.761C106.738 380.768 106.745 380.777 106.752 380.786L106.732 380.761L106.721 380.747ZM685.63 336.218C685.609 336.215 685.579 336.213 685.558 336.21L685.536 336.207C685.533 336.206 685.52 336.204 685.516 336.203C685.514 336.203 685.502 336.201 685.5 336.2L685.516 336.203C685.513 336.203 685.52 336.204 685.516 336.203C685.52 336.204 685.533 336.206 685.536 336.207C685.543 336.208 685.552 336.209 685.558 336.21C685.582 336.213 685.606 336.215 685.63 336.218ZM86.6263 296.512C86.62 296.522 86.6136 296.533 86.6073 296.543C86.6037 296.549 86.6001 296.555 86.5965 296.561C86.5917 296.57 86.5869 296.578 86.5821 296.586L86.5965 296.561L86.6073 296.543L86.6263 296.512ZM87.6205 295.161C87.6243 295.156 87.6275 295.152 87.6313 295.147C87.6287 295.15 87.623 295.157 87.6205 295.161ZM677.5 326.925C677.509 326.928 677.524 326.932 677.532 326.934C677.536 326.936 677.54 326.938 677.545 326.939C677.54 326.938 677.539 326.937 677.532 326.934C677.523 326.931 677.507 326.927 677.5 326.925ZM96.5177 220.607C96.519 220.6 96.5213 220.588 96.5229 220.582C96.5212 220.591 96.5196 220.599 96.5177 220.607C96.5131 220.624 96.5075 220.641 96.5029 220.658C96.5007 220.666 96.4965 220.68 96.4943 220.688C96.4943 220.688 96.5014 220.664 96.5029 220.658C96.5075 220.641 96.5131 220.624 96.5177 220.607ZM306.896 158.319C306.893 158.311 306.891 158.304 306.888 158.296C306.886 158.289 306.883 158.282 306.881 158.275C306.88 158.269 306.878 158.262 306.876 158.256C306.878 158.262 306.879 158.269 306.881 158.275C306.883 158.282 306.886 158.289 306.888 158.296C306.891 158.304 306.893 158.311 306.896 158.319C306.9 158.334 306.906 158.351 306.911 158.366C306.911 158.369 306.909 158.363 306.911 158.366C306.912 158.372 306.915 158.378 306.917 158.384C306.916 158.381 306.912 158.369 306.911 158.366C306.906 158.351 306.9 158.334 306.896 158.319ZM305.804 151.867C305.804 151.859 305.803 151.851 305.804 151.843C305.803 151.853 305.804 151.86 305.804 151.867ZM643.763 151.781C643.762 151.775 643.761 151.769 643.76 151.763C643.759 151.758 643.758 151.75 643.758 151.745L643.756 151.731C643.756 151.736 643.757 151.741 643.758 151.745C643.758 151.751 643.759 151.757 643.76 151.763C643.761 151.769 643.762 151.775 643.763 151.781C643.766 151.797 643.768 151.813 643.771 151.83C643.772 151.839 643.774 151.855 643.775 151.864C643.773 151.853 643.772 151.841 643.771 151.83C643.768 151.813 643.766 151.797 643.763 151.781ZM643.706 151.396L643.704 151.382C643.705 151.386 643.705 151.391 643.706 151.396ZM432.087 147.3L432.099 147.283C432.095 147.288 432.091 147.295 432.087 147.3Z" fill="#FF65A6"/>
  <path d="M725.575 610.578L698.104 605.412L697.488 571.859L697.362 540.726C697.594 538.518 697.714 536.314 697.728 534.132L697.729 533.419C697.718 530.928 697.569 528.416 697.276 525.911L699.589 520.559L696.828 519.012C696.881 518.67 696.931 518.329 696.979 517.986L697.27 517.983L697.262 515.652C697.473 513.609 697.593 511.561 697.621 509.519L697.627 508.276C697.622 506.862 697.571 505.447 697.478 504.033L703.075 503.981C703.155 502.774 703.204 501.567 703.221 500.361L703.227 499.118C703.209 494.827 702.793 490.516 701.96 486.292C702.497 482.872 702.691 479.77 702.73 477.222L702.743 477.221L702.67 459.033C702.882 456.99 703.001 454.942 703.03 452.9L703.036 451.657C703.026 449.198 702.885 446.732 702.61 444.28L702.438 401.172L702.437 401.12L752.891 400.655L703.609 353.549L752.698 353.095L702.442 305.06V304.539C702.434 302.617 702.345 300.705 702.174 298.81C702.105 328.093 701.993 362.361 701.833 360.958L701.746 339.251L701.461 289.918C701.692 287.717 701.811 285.518 701.825 283.34L701.826 282.626C701.817 280.222 701.675 277.8 701.403 275.381L701.402 275.056L701.924 273.849L701.903 268.767L701.375 268.472L701.364 265.616C701.569 263.655 701.69 261.69 701.721 259.73L701.729 258.382C701.729 258.244 701.727 258.105 701.726 257.967L701.725 257.86L724.942 228.045L753.113 222.089L710.246 202.954L751.38 183.5L704.074 170C702.214 159.465 704.205 126.649 697.598 118.371L697.539 118.295L697.479 118.222C693.371 113.126 688.757 109.225 683.842 106.462L683.817 101.3L681.325 101.319L681.001 16.6244L667.5 103.5L676.5 101.071C674.806 101.083 677.099 101.262 675.436 101.602L641.165 101.85C639.891 101.612 638.614 101.471 637.341 101.418L637.003 14.0345L594.419 102.191L572.77 102.348C571.235 102.058 569.702 101.907 568.185 101.889L567.688 101.888C565.957 101.901 564.211 102.088 562.468 102.455L558.747 99.5566L557.671 103.018C557.433 102.952 557.196 102.888 556.957 102.829L556.956 102.462L555.335 102.474C553.914 102.208 552.49 102.059 551.071 102.023L550.206 102.015C549.223 102.022 548.239 102.087 547.255 102.202L546.933 17.8396L522.841 84.7306L520.738 80.8672L520.546 22.0056L510.214 61.547L498.283 18.1923L498.503 82.0487L496.631 85.3232L496.382 15.0542L453.795 103.21L441.63 103.299C440.099 103.01 438.569 102.86 437.056 102.843L436.558 102.842C434.885 102.854 433.199 103.03 431.518 103.372L431.294 103.375L427.617 100.51L426.717 103.407L426.06 103.413L426.063 103.844C424.029 103.314 421.98 103.027 419.94 102.977L419.075 102.968C416.092 102.99 413.094 103.511 410.157 104.556C407.78 103.883 405.622 103.641 403.85 103.591L403.849 103.575L391.203 103.666C389.782 103.4 388.358 103.251 386.939 103.215L386.075 103.207C384.365 103.219 382.65 103.396 380.944 103.74L350.969 103.958L350.933 103.959L350.61 19.2631L317.856 102.489L317.541 19.5054L284.139 103.952H283.777C282.08 103.964 280.394 104.142 278.73 104.483L256.799 104.642C255.177 104.334 253.662 104.205 252.302 104.186L251.764 104.185C250.144 104.197 248.467 104.363 246.758 104.715L183.369 105.174L184.163 104.414L171.18 104.533L168.43 102.391L167.753 104.565L160.033 104.636L131.951 53.0788L126.853 0L110.478 69.5765L93.8288 1.94505L104.665 94.229C100.135 95.6708 95.7585 98.2029 91.7165 101.884L70.0617 102.084L70.0765 105.665L19.6222 106.131L69.8782 154.168V154.687C69.8879 157.125 70.0304 159.547 70.3017 161.938L70.5001 211.227C70.3103 213.058 70.1973 214.892 70.1552 216.723L17.5562 217.21L70.7717 278.454L70.8968 309.588C70.6654 311.795 70.5458 313.999 70.5316 316.182L70.5307 316.895C70.5407 319.386 70.6905 321.897 70.983 324.403L68.6704 329.755L71.4316 331.302C71.3786 331.644 71.3282 331.985 71.2805 332.328L70.9886 332.33L70.9978 334.662C70.7858 336.705 70.6664 338.753 70.6382 340.794L70.6317 342.038C70.6374 343.451 70.6885 344.866 70.7809 346.281L68.7382 346.3L71.5855 349.576L71.6559 367.073C71.4255 369.275 71.3059 371.475 71.2916 373.651L71.2907 374.365C71.3004 376.772 71.4411 379.197 71.7143 381.616L71.7162 381.935L69.4305 387.224L71.7421 388.52L71.7467 389.464L72.0906 389.46C71.668 392.385 71.4389 395.332 71.3982 398.265L71.3918 399.508C71.409 403.799 71.8254 408.111 72.6588 412.335C72.1218 415.755 71.9281 418.856 71.8886 421.404L71.8755 421.406L71.9488 439.594C71.7369 441.637 71.6175 443.684 71.5892 445.726L71.5827 446.969C71.5926 449.428 71.7337 451.894 72.0081 454.346L72.1814 497.454L72.1824 497.507L66.8595 497.556L66.5098 488.72L66.5135 489.608L66.5455 497.559L21.7281 497.972L66.72 540.977L66.7366 545.117L21.9209 545.531L66.6173 588.253C66.5773 589.03 66.551 589.807 66.5386 590.583L66.5302 591.931C66.5309 592.105 66.5328 592.28 66.5349 592.454L25.2299 633.008L0 640.339L38.3917 663.889L16 676L58.0603 703.17C59.9205 713.706 64.054 723.664 70.6613 731.942L70.7206 732.019L70.78 732.091C72.0918 733.72 73.4555 700.724 74.8639 702.109C75.963 704.163 77.1681 706.139 78.4834 708.022L78.5362 708.098L78.5881 708.172C79.8595 709.975 81.1876 711.629 82.5626 713.138L80.8154 724.742L101.865 724.589C103.843 724.972 84.341 725.156 86.3484 725.141C86.4823 725.141 86.6171 725.135 86.7518 725.132L105.533 778.136L115.74 747.897L120.762 755.017L120.905 783.057L147.341 735.523L209.186 735.072L221.914 742.343L232.81 773.404L244.806 734.814L246.854 734.799L249.11 727.829L251.469 730.574L254.179 723.327L272.437 723.195C274.24 723.572 276.07 723.761 277.916 723.75L312.375 788.5L312.053 725.513L345.444 788.259L345.109 722.665L345.202 722.664L374.643 722.453C376.509 722.836 378.386 723.022 380.255 723.007C382.12 722.994 383.993 722.782 385.856 722.371L397.877 722.281L398.025 722.279C399.979 722.253 402.176 722.003 404.506 721.371C407.394 722.33 410.335 722.788 413.257 722.768C415.58 722.751 417.919 722.429 420.234 721.79L420.575 788.36L463.066 721.81L475.657 721.718C477.143 722.019 478.63 722.199 480.107 722.253L492.904 745.186L493.084 780.355L502.789 762.903L515.247 785.232L515.022 740.906L516.199 738.788L541.768 786.835L541.491 732.66L551.188 732.589L551.129 720.902C551.641 720.765 552.152 720.612 552.66 720.444L560.878 725.141L561.196 787.341L603.687 720.788L621.271 720.66L621.297 726.123L677.197 725.715L675.835 785.619L675.5 720.027L677.991 720.008L677.959 713.916L698.198 713.73L698.182 710.149L748.637 709.682L698.381 696.146V695.626C698.371 693.189 698.229 690.766 697.958 688.375L697.759 639.086C697.949 637.255 698.062 635.421 698.104 633.59L710.488 623L725.014 613.298L698.104 613.345L717.305 610.655L725.575 610.578ZM68.7407 545.098L68.6506 542.822L71.0098 545.077L68.7407 545.098ZM629.086 710.544C628.81 710.481 628.539 710.387 628.282 710.263C628.269 710.257 628.257 710.25 628.244 710.244C628.239 710.241 628.233 710.238 628.228 710.235L628.213 710.227C628.248 710.245 628.284 710.262 628.32 710.279C628.567 710.394 628.823 710.483 629.086 710.544ZM624.947 704.153L624.948 704.172L624.949 704.184L624.95 704.208L624.951 704.219L624.954 704.249L624.956 704.279C624.948 704.2 624.944 704.12 624.938 704.039C624.939 704.051 624.94 704.065 624.941 704.078L624.945 704.119L624.947 704.153ZM481.255 714.891L481.273 714.89L481.292 714.89L481.317 714.889C481.296 714.89 481.276 714.89 481.255 714.891ZM551.677 702.291L551.675 702.272C551.675 702.267 551.675 702.261 551.674 702.256C551.677 702.29 551.68 702.325 551.682 702.359L551.678 702.306L551.677 702.291ZM637.513 701.711C637.514 701.721 637.514 701.73 637.514 701.74L637.51 701.695C637.511 701.697 637.513 701.709 637.513 701.711ZM485.259 699.086C485.264 699.094 485.269 699.103 485.274 699.111C485.271 699.106 485.268 699.1 485.265 699.095C485.263 699.092 485.261 699.089 485.259 699.086ZM550.464 697.408L550.469 697.418L550.489 697.46C550.498 697.48 550.507 697.5 550.516 697.52L550.555 697.607L550.563 697.623L550.577 697.655L550.583 697.667L550.597 697.699C550.647 697.812 550.694 697.927 550.74 698.043L550.758 698.09L550.769 698.117C550.671 697.868 550.566 697.624 550.453 697.386L550.464 697.408ZM678.008 519.533L677.987 519.537C677.956 519.541 677.926 519.547 677.895 519.551C677.871 519.553 677.847 519.554 677.824 519.557C677.898 519.548 677.971 519.539 678.043 519.528C678.031 519.53 678.02 519.532 678.008 519.533ZM88.9464 562.417C88.9663 562.419 88.9857 562.423 89.005 562.426C88.9604 562.419 88.9156 562.413 88.8705 562.408C88.8084 562.401 88.7458 562.395 88.6826 562.39C88.7718 562.396 88.86 562.405 88.9464 562.417ZM94.0157 560.86C94.0181 560.859 94.0135 560.861 94.0157 560.86C94.0133 560.861 94.0038 560.866 94.0015 560.867C94.0793 560.819 94.1581 560.775 94.2378 560.735C94.2949 560.705 94.3533 560.677 94.4116 560.65C94.3442 560.681 94.2768 560.714 94.2113 560.749C94.1453 560.783 94.0804 560.821 94.0157 560.86ZM86.6263 296.512C86.6368 296.494 86.6475 296.477 86.6581 296.46C86.6602 296.456 86.6616 296.452 86.6637 296.449C86.6362 296.494 86.6087 296.54 86.5821 296.586L86.5965 296.561L86.6073 296.543L86.6263 296.512ZM677.532 326.934C677.522 326.932 677.511 326.928 677.5 326.925C677.507 326.927 677.523 326.931 677.532 326.934C677.539 326.937 677.54 326.938 677.545 326.939C677.54 326.938 677.536 326.936 677.532 326.934ZM96.4943 220.688L96.4866 220.714C96.5008 220.662 96.5146 220.61 96.5281 220.558C96.527 220.562 96.5241 220.576 96.5229 220.582C96.5212 220.591 96.5196 220.599 96.5177 220.607L96.5029 220.658L96.4943 220.688ZM634.608 161.394C634.616 161.398 634.625 161.4 634.633 161.404C634.612 161.395 634.592 161.385 634.572 161.374C634.577 161.377 634.583 161.38 634.589 161.383C634.596 161.387 634.602 161.391 634.608 161.394ZM306.911 158.366L306.896 158.319L306.888 158.296L306.881 158.275C306.88 158.269 306.878 158.262 306.876 158.256C306.891 158.298 306.904 158.341 306.917 158.384L306.911 158.366C306.911 158.369 306.909 158.363 306.911 158.366ZM305.804 151.867L305.804 151.843C305.806 151.805 305.809 151.775 305.811 151.736C305.813 151.704 305.814 151.663 305.815 151.63L305.814 151.655L305.814 151.669L305.813 151.694L305.812 151.713L305.811 151.736L305.81 151.76L305.809 151.774C305.807 151.805 305.806 151.836 305.804 151.867ZM643.777 151.887L643.78 151.908C643.781 151.921 643.782 151.933 643.783 151.946C643.774 151.874 643.765 151.802 643.756 151.731L643.758 151.745L643.76 151.763L643.763 151.781C643.766 151.797 643.768 151.813 643.771 151.83C643.772 151.839 643.774 151.855 643.775 151.864L643.777 151.887ZM643.601 150.811C643.596 150.786 643.59 150.761 643.585 150.736L643.588 150.747C643.589 150.753 643.591 150.761 643.592 150.766L643.595 150.781L643.597 150.793L643.601 150.811ZM432.17 147.18L432.177 147.171C432.18 147.167 432.183 147.164 432.186 147.16C432.145 147.215 432.108 147.272 432.068 147.328L432.075 147.318L432.087 147.3L432.099 147.283C432.102 147.278 432.105 147.273 432.109 147.269L432.13 147.237L432.147 147.213C432.154 147.202 432.162 147.191 432.17 147.18ZM643.706 151.396L643.704 151.382C643.707 151.399 643.711 151.428 643.714 151.446C643.712 151.435 643.71 151.422 643.708 151.412L643.706 151.396ZM300.522 707.127C300.526 707.139 300.53 707.152 300.534 707.164C300.536 707.172 300.539 707.18 300.541 707.187C300.533 707.16 300.526 707.134 300.517 707.108C300.519 707.114 300.521 707.121 300.522 707.127ZM556.671 148.251L556.663 148.235C556.667 148.244 556.672 148.254 556.676 148.263C556.674 148.259 556.673 148.255 556.671 148.251ZM315.721 715.502L315.799 715.503L318.211 715.484L315.721 715.502ZM299.441 700.773C299.439 700.793 299.437 700.812 299.435 700.832C299.439 700.776 299.443 700.72 299.447 700.664C299.451 700.59 299.455 700.517 299.458 700.443C299.455 700.506 299.453 700.571 299.449 700.634C299.447 700.677 299.444 700.719 299.441 700.761L299.441 700.773ZM637.401 700.614L637.404 700.633C637.406 700.649 637.409 700.666 637.411 700.682C637.414 700.702 637.416 700.722 637.418 700.742C637.419 700.751 637.42 700.76 637.421 700.768L637.423 700.79L637.426 700.811C637.416 700.735 637.407 700.659 637.396 700.584L637.398 700.596L637.401 700.614ZM681.877 517.8C681.839 517.832 681.801 517.864 681.762 517.895C681.725 517.925 681.688 517.954 681.652 517.983C681.647 517.986 681.643 517.989 681.638 517.993C681.763 517.895 681.885 517.792 682.005 517.685C681.988 517.7 681.972 517.715 681.955 517.73C681.932 517.751 681.901 517.779 681.877 517.8ZM682.089 517.61L682.103 517.596L682.124 517.576C682.145 517.557 682.168 517.535 682.191 517.514C682.209 517.497 682.226 517.48 682.243 517.465C682.241 517.467 682.233 517.475 682.231 517.477C682.233 517.475 682.229 517.48 682.231 517.477C682.229 517.479 682.22 517.489 682.218 517.491C682.22 517.489 682.216 517.493 682.218 517.491C682.178 517.529 682.131 517.572 682.089 517.61ZM87.6954 562.451C87.7989 562.431 87.9052 562.415 88.0134 562.404C87.8993 562.417 87.7877 562.434 87.6782 562.455C87.6839 562.454 87.6896 562.452 87.6954 562.451ZM90.7251 539.121C90.632 539.148 90.5399 539.175 90.4496 539.206C90.6641 539.133 90.886 539.07 91.1161 539.022L90.7251 539.121ZM106.702 380.724L106.721 380.747L106.732 380.761L106.752 380.786C106.73 380.759 106.704 380.727 106.682 380.699L106.689 380.707L106.702 380.724ZM685.63 336.218C685.694 336.225 685.758 336.232 685.823 336.236C685.734 336.23 685.645 336.222 685.558 336.21L685.536 336.207L685.516 336.203L685.5 336.2C685.522 336.204 685.536 336.207 685.558 336.21C685.579 336.213 685.609 336.215 685.63 336.218ZM87.6032 295.179L87.6205 295.161C87.6221 295.158 87.6295 295.149 87.6313 295.147C87.6157 295.165 87.5997 295.182 87.5842 295.199C87.5904 295.192 87.5968 295.186 87.6032 295.179ZM322.08 166.65L322.158 166.651L324.57 166.632L322.08 166.65ZM288.92 149.217L288.875 149.135L288.866 149.12L288.92 149.217ZM179.008 734.67L178.952 723.871L182.645 723.845L179.008 734.67ZM100.499 692V132H660.499V692H100.499ZM100.211 300.989C100.212 300.999 100.213 301.005 100.213 301.015L100.213 301.03L100.213 301.068L100.214 301.085L100.214 301.116C100.213 301.073 100.212 301.031 100.211 300.989Z" fill="#FF65A6"/>
</svg>