<svg width="868" height="691" viewBox="0 0 868 691" fill="none" xmlns="http://www.w3.org/2000/svg">
<path d="M161.675 44.5312L191.262 87.7861L199.396 87.7266L200.109 85.9023L203.007 87.6992L216.685 87.5996L215.849 88.2373L266.731 87.9434H266.732L267.382 87.9395L282.635 87.8525C284.436 87.5567 286.202 87.4171 287.909 87.4072L288.476 87.4082C289.909 87.4238 291.505 87.5325 293.214 87.791L310.511 87.6914L316.32 87.6572C318.074 87.3714 319.85 87.2223 321.638 87.2119H322.019L357.211 16.3643L357.543 85.9844L392.053 16.1611L392.393 87.2178L392.431 87.2168L410.724 87.1113L424.012 87.0342C425.809 86.7455 427.616 86.5973 429.418 86.5869L430.328 86.5938C431.824 86.6235 433.324 86.7488 434.821 86.9717L444.328 86.918L448.145 86.8955L448.146 86.9092C450.013 86.9508 452.286 87.154 454.791 87.7188C457.885 86.8423 461.044 86.4049 464.187 86.3867L465.098 86.3936C467.247 86.4363 469.406 86.6767 471.549 87.1211L471.546 86.7598L472.238 86.7549L473.187 84.3242L477.061 86.7275L477.296 86.7256C479.068 86.4384 480.844 86.2905 482.607 86.2803L483.131 86.2812C484.725 86.2962 486.337 86.4217 487.95 86.6641L500.767 86.5898L545.637 12.6299L545.899 71.583L547.871 68.8359L547.64 15.2627L560.21 51.6357L571.096 18.4619L571.299 67.8447L573.514 71.0859L598.898 14.9668L599.237 85.7441C600.274 85.6469 601.31 85.5929 602.346 85.5869L603.257 85.5938C604.752 85.6235 606.253 85.7488 607.75 85.9717L609.458 85.9619L609.459 86.2695C609.71 86.3196 609.96 86.3729 610.211 86.4287L611.345 83.5244L615.265 85.9561C617.101 85.6485 618.941 85.491 620.765 85.4805L621.288 85.4814C622.887 85.4964 624.502 85.6229 626.119 85.8662L648.928 85.7344L693.795 11.7744L694.151 85.0859C695.492 85.1302 696.837 85.2487 698.179 85.4482L734.287 85.2402C736.039 84.955 737.814 84.8052 739.599 84.7949H739.98L775.172 13.9473L775.513 85.0029L778.138 84.9873L778.165 89.3174C783.343 91.636 788.205 94.9087 792.533 99.1836L792.596 99.2451L792.658 99.3086C799.619 106.254 803.974 114.609 805.934 123.448L865.471 136.315L826.657 156.403L867.106 176.161L840.524 182.311L797.006 216.335C797.008 216.481 797.01 216.627 797.011 216.773L797.002 217.904C796.969 219.548 796.842 221.197 796.626 222.842L796.638 225.238L799.073 226.325L796.666 230.762L796.667 231.035C796.954 233.064 797.103 235.096 797.113 237.113L797.112 237.712C797.097 239.539 796.971 241.384 796.728 243.231L797.028 284.619V284.62L797.032 285.364L797.12 302.831C797.416 304.894 797.556 214.917 797.566 216.872L797.565 217.521C797.55 219.162 797.441 220.99 797.181 222.947L797.281 242.754L797.315 249.408C797.602 251.416 797.751 253.45 797.762 255.497V255.934L850.711 296.234L798.991 296.615L850.914 336.135L797.756 336.525L797.757 336.569L797.862 357.517L797.939 372.735C798.228 374.792 798.377 376.861 798.388 378.924L798.381 379.967C798.351 381.68 798.225 383.398 798.002 385.112L798.056 395.999L798.079 400.371L798.065 400.372C798.024 402.51 797.82 405.112 797.254 407.981C798.132 411.525 798.57 415.142 798.589 418.742L798.582 419.785C798.539 422.246 798.298 424.718 797.852 427.172L798.215 427.169L798.22 427.961L800.655 429.048L798.247 433.485L798.249 433.753C798.537 435.783 798.685 437.817 798.695 439.836L798.694 440.435C798.679 442.261 798.553 444.107 798.31 445.954L798.385 460.633L854.452 512.016L813.421 512.317L816.173 514.574L851.814 514.311L833.406 528.705L848.609 541.172L817.166 541.403L813.919 543.941L845.411 422.477L792.532 422.865C792.63 424.052 792.683 425.239 792.689 426.425L792.683 427.468C792.653 429.181 792.527 430.899 792.304 432.613L792.313 434.569L792.006 434.571C791.956 434.859 791.903 435.145 791.847 435.432L794.756 436.73L792.319 441.22C792.628 443.322 792.785 445.429 792.796 447.519L792.795 448.117C792.78 449.948 792.654 451.797 792.41 453.649L792.542 479.769L848.609 531.151L793.191 531.559C793.147 533.095 793.028 534.634 792.828 536.17L793.037 577.522C793.323 579.528 793.473 581.56 793.483 583.605V584.041L846.433 624.342L793.274 624.733L793.29 627.738L771.967 627.894L772 633.005L769.376 633.021L769.729 688.05L736.143 637.793L677.247 638.135L677.22 633.552L658.693 633.659L613.925 689.495L613.59 637.311L604.932 633.371C604.396 633.512 603.858 633.64 603.319 633.755L603.381 643.56L593.164 643.619L593.456 689.07L566.517 648.76L565.276 650.537L565.514 687.725L552.388 668.992L542.162 683.634L541.973 654.128L528.49 634.888C526.934 634.843 525.367 634.692 523.801 634.439L521.391 634.452L510.535 634.517L465.767 690.35L465.408 634.5C462.969 635.036 460.505 635.306 458.057 635.32C454.978 635.337 451.88 634.953 448.837 634.148C446.382 634.678 444.068 634.888 442.009 634.91V634.912H441.853C441.851 634.912 441.847 634.913 441.847 634.913L429.188 634.987C427.225 635.332 425.251 635.51 423.286 635.521C421.317 635.533 419.34 635.377 417.374 635.056L386.355 635.233L386.257 635.234L386.61 690.265L351.429 637.623L351.769 690.467L315.463 636.144C313.518 636.153 311.59 635.995 309.69 635.679L291.419 635.784L290.454 635.789L287.599 641.869L285.113 639.566L282.736 645.414L280.578 645.426L267.94 677.802L256.46 651.743L243.05 645.643L211.257 645.827L177.89 646.021L150.038 685.901L149.887 662.376L144.596 656.403L133.842 681.772L114.054 637.304C113.912 637.306 113.77 637.311 113.629 637.311C111.514 637.324 109.408 637.169 107.324 636.848L85.1465 636.976L86.9873 627.241C85.5386 625.975 84.1393 624.587 82.7998 623.075L82.7451 623.013L82.6895 622.949C81.3037 621.369 80.034 619.711 78.876 617.988C77.3921 616.826 75.9553 615.564 74.5732 614.198L74.5107 614.137L74.4482 614.073C67.4868 607.128 63.1318 598.773 61.1719 589.934L1.63477 577.067L40.4492 556.979L0 537.221L26.582 531.071L70.1006 497.047C70.0984 496.901 70.0964 496.755 70.0957 496.609L70.1045 495.478C70.1376 493.834 70.2638 492.185 70.4805 490.54L70.4688 488.144L68.0332 487.057L70.4404 482.62L70.4395 482.347C70.1521 480.318 70.0034 478.286 69.9932 476.269L69.9941 475.67C70.0091 473.843 70.1351 471.998 70.3779 470.151L70.0781 410.763V410.762L70.0742 410.018L76.6865 543.084C76.39 541.021 76.2501 538.998 76.2402 537.043L76.2412 536.394C76.2568 534.753 76.3659 532.925 76.625 530.968L76.5254 511.161L76.4912 504.507C76.2048 502.499 76.0553 500.465 76.0449 498.418V497.981L23.0957 457.681L74.8154 457.3L22.8926 417.78L76.0508 417.39L76.0498 417.346L75.9443 396.398L75.8672 381.18C75.578 379.123 75.4294 377.054 75.419 374.991L75.4258 373.948C75.4556 372.235 75.5814 370.517 75.8047 368.803L75.75 357.916L75.7275 353.544L75.7412 353.543C75.7829 351.405 75.9869 348.803 76.5527 345.934C75.6746 342.39 75.236 338.773 75.2178 335.173L75.2246 334.13C75.2674 331.669 75.5088 329.197 75.9541 326.743L75.5918 326.746L75.5869 325.954L73.1514 324.867L75.5596 320.43L75.5576 320.162C75.2698 318.132 75.1215 316.098 75.1113 314.079L75.1123 313.48C75.1273 311.654 75.2533 309.808 75.4961 307.961L75.4219 293.282L19.3545 241.899L60.3857 241.598L57.6338 239.341L21.9922 239.604L40.4004 225.21L25.1973 304.743L56.6406 304.512L59.8877 301.974L21.6953 290.905L74.5742 290.517C74.4768 289.33 74.423 288.143 74.417 286.957L74.4238 285.914C74.4536 284.201 74.5794 282.483 74.8027 280.769L74.793 278.813L75.1006 278.811C75.1508 278.523 75.2039 278.237 75.2598 277.95L72.3506 276.652L74.7871 272.162C74.4789 270.06 74.3211 267.953 74.3106 265.863L74.3115 265.265C74.3265 263.434 74.4525 261.585 74.6963 259.733L74.5645 233.613L18.4971 182.231L73.915 181.823C73.9593 180.287 74.0784 178.748 74.2783 177.212L74.0693 135.86C73.7835 133.854 73.6334 131.822 73.6231 129.777V129.341L20.6738 89.04L73.832 88.6494L73.8164 85.6445L96.6318 85.4766C100.89 82.3887 105.501 80.2643 110.274 79.0547L121.51 1.63184L139.052 58.3721L156.304 0L161.675 44.5312ZM211.195 636.246L211.254 645.306L215.086 636.224L211.195 636.246ZM349.555 600.792C349.741 600.805 349.93 600.811 350.121 600.81V600.809C349.93 600.81 349.741 600.805 349.555 600.792ZM355.294 600.28L355.376 600.281L357.917 600.265L355.294 600.28ZM529.51 599.772L529.509 599.773C529.578 599.773 529.648 599.769 529.718 599.767C529.759 599.766 529.8 599.765 529.841 599.763C529.731 599.769 529.621 599.771 529.51 599.772ZM533.095 598.807C533.146 598.777 533.199 598.748 533.25 598.716C533.269 598.705 533.288 598.692 533.307 598.68C533.237 598.724 533.165 598.766 533.095 598.807ZM378.129 592.152L378.163 597.484H378.164L378.13 592.152L378.131 592.151L378.129 592.152ZM684.606 595.885C685.006 596.038 685.428 596.135 685.867 596.178C685.442 596.137 685.035 596.042 684.646 595.898C684.553 595.863 684.461 595.826 684.369 595.785L684.606 595.885ZM682.103 593.831C682.156 593.912 682.211 593.992 682.269 594.07L682.27 594.071C682.184 593.955 682.104 593.834 682.027 593.71C682.001 593.668 681.973 593.627 681.947 593.584L682.103 593.831ZM339.364 593.468C339.388 593.534 339.413 593.602 339.435 593.67C339.415 593.608 339.394 593.547 339.372 593.488C339.37 593.481 339.367 593.474 339.364 593.468ZM497.428 582.171L498.433 582.166L498.507 593.579L498.434 582.165L497.428 582.171ZM694.085 592.427L694.087 592.426C694.096 592.387 694.105 592.348 694.114 592.309C694.105 592.348 694.094 592.388 694.085 592.427ZM417.681 591.339C417.683 591.651 417.698 591.953 417.726 592.244L417.694 591.799C417.687 591.648 417.683 591.494 417.682 591.338L417.681 591.339ZM590.609 590.339C590.613 590.842 590.651 591.317 590.721 591.765C590.652 591.317 590.614 590.842 590.61 590.34V590.338C590.61 590.269 590.612 590.201 590.612 590.133C590.611 590.201 590.609 590.27 590.609 590.339ZM694.38 589.739C694.384 590.317 694.348 590.872 694.276 591.406C694.328 591.023 694.362 590.628 694.375 590.223L694.381 589.738C694.38 589.621 694.376 589.504 694.372 589.388C694.376 589.504 694.379 589.621 694.38 589.739ZM449.884 589.26C449.794 589.863 449.751 590.493 449.755 591.153H449.756C449.752 590.493 449.794 589.863 449.884 589.26ZM681.083 590.663C681.089 590.731 681.094 590.798 681.102 590.864C681.097 590.819 681.094 590.775 681.09 590.73C681.088 590.708 681.086 590.685 681.083 590.663ZM355.206 589.793C355.234 589.931 355.259 590.071 355.28 590.215L355.279 590.204C355.237 589.917 355.18 589.642 355.113 589.377C355.148 589.513 355.178 589.652 355.206 589.793ZM603.937 589.816L603.936 589.773C603.932 589.688 603.925 589.603 603.92 589.52C603.926 589.618 603.933 589.716 603.937 589.816ZM603.907 589.332C603.906 589.32 603.906 589.307 603.905 589.294C603.9 589.231 603.893 589.168 603.887 589.106C603.894 589.181 603.901 589.256 603.907 589.332ZM694.342 588.842C694.34 588.819 694.34 588.796 694.338 588.773C694.333 588.71 694.324 588.648 694.318 588.586C694.327 588.671 694.335 588.756 694.342 588.842ZM471.87 588.359C471.855 588.418 471.842 588.48 471.829 588.541C471.855 588.421 471.885 588.302 471.918 588.187C471.901 588.243 471.885 588.3 471.87 588.359ZM354.521 587.88C354.584 587.991 354.643 588.105 354.698 588.222C354.734 588.296 354.767 588.372 354.8 588.448C354.716 588.251 354.624 588.061 354.521 587.88ZM661.956 581.219L664.528 581.207L664.575 588.287L664.539 582.693L664.529 581.205L661.956 581.219ZM338.131 588.008C338.133 587.98 338.138 587.952 338.141 587.923C338.149 587.832 338.155 587.739 338.159 587.646C338.153 587.768 338.144 587.889 338.131 588.008ZM694.24 587.955C694.235 587.919 694.231 587.883 694.225 587.847C694.22 587.819 694.214 587.792 694.209 587.764C694.22 587.827 694.23 587.891 694.24 587.955ZM338.165 587.343C338.165 587.433 338.166 587.521 338.162 587.609C338.166 587.521 338.166 587.431 338.166 587.341C338.165 587.22 338.159 587.101 338.151 586.984C338.159 587.101 338.164 587.221 338.165 587.343ZM694.167 587.536C694.158 587.491 694.151 587.446 694.142 587.402C694.136 587.374 694.128 587.346 694.122 587.319C694.138 587.391 694.153 587.463 694.167 587.536ZM694.029 586.929C694.043 586.982 694.055 587.036 694.068 587.09C694.058 587.049 694.05 587.008 694.04 586.967C694.037 586.954 694.033 586.942 694.029 586.929ZM338.115 586.608C338.13 586.717 338.141 586.829 338.149 586.944C338.141 586.829 338.13 586.716 338.115 586.606V586.608ZM534.127 586.791V586.787C534.098 586.747 534.067 586.709 534.038 586.669C534.068 586.71 534.098 586.75 534.127 586.791ZM693.92 586.542C693.943 586.617 693.962 586.692 693.983 586.768C693.923 586.551 693.858 586.338 693.783 586.129L693.92 586.542ZM533.934 586.529C533.939 586.534 533.944 586.54 533.949 586.547C533.932 586.525 533.915 586.503 533.897 586.481C533.91 586.496 533.921 586.513 533.934 586.529ZM224.155 586.5L224.151 585.569L224.14 583.768L224.155 586.5ZM337.949 585.859C337.948 585.854 337.947 585.849 337.945 585.845C337.931 585.802 337.919 585.759 337.904 585.717L337.949 585.859ZM602.59 585.055C602.715 585.263 602.832 585.477 602.94 585.696C602.882 585.577 602.822 585.46 602.758 585.344C602.713 585.265 602.669 585.185 602.623 585.108C602.612 585.09 602.601 585.073 602.59 585.055ZM320.356 585.655L320.309 585.586C320.295 585.567 320.281 585.549 320.268 585.529L320.356 585.655ZM532.981 585.517C532.984 585.519 532.987 585.521 532.989 585.523C532.956 585.494 532.923 585.465 532.889 585.437C532.92 585.463 532.951 585.49 532.981 585.517ZM693.455 585.335L693.3 585.024C693.295 585.015 693.29 585.007 693.285 584.998C693.344 585.11 693.401 585.221 693.455 585.335ZM355.183 582.995L355.196 584.982L355.186 582.994L355.183 582.995ZM532.217 584.97C532.219 584.971 532.221 584.971 532.223 584.972L532.157 584.935C532.177 584.946 532.198 584.958 532.217 584.97ZM471.291 583.938C471.252 583.98 471.214 584.026 471.176 584.07C471.218 584.023 471.257 583.975 471.3 583.929C471.297 583.932 471.294 583.935 471.291 583.938ZM443.885 583.482C443.94 583.532 443.994 583.582 444.046 583.634L443.885 583.482C443.839 583.44 443.793 583.4 443.745 583.362L443.885 583.482ZM258.934 583.55L260.796 583.54H260.682L258.934 583.55ZM455.665 582.249C455.407 582.318 455.155 582.4 454.91 582.496L455.283 582.363C455.409 582.323 455.537 582.284 455.665 582.249ZM456.456 582.083C456.322 582.104 456.188 582.129 456.057 582.156C456.321 582.101 456.591 582.059 456.866 582.031C456.728 582.045 456.591 582.062 456.456 582.083ZM690.168 581.651C690.281 581.716 690.394 581.787 690.504 581.861C690.283 581.714 690.057 581.58 689.824 581.46L690.168 581.651ZM689.105 581.142C689.228 581.189 689.35 581.237 689.47 581.29C689.231 581.185 688.986 581.093 688.734 581.013L689.105 581.142ZM611.632 172.904C611.096 173.045 610.558 173.173 610.019 173.288L610.081 183.093L599.864 183.152L600.156 228.603L573.217 188.293L571.976 190.07L572.214 227.258L559.088 208.525L548.862 223.167L548.673 193.661L535.19 174.421C533.634 174.376 532.067 174.225 530.501 173.972L528.091 173.985L517.235 174.05L472.467 229.883L472.108 174.033C469.669 174.569 467.205 174.839 464.757 174.853C461.678 174.87 458.58 174.486 455.537 173.681C453.082 174.211 450.768 174.421 448.709 174.443V174.445H448.553C448.551 174.445 448.547 174.446 448.547 174.446L435.888 174.52C433.925 174.865 431.951 175.043 429.986 175.054C428.017 175.066 426.04 174.91 424.074 174.589L393.055 174.766L392.957 174.767L393.31 229.798L358.129 177.156L358.469 230L322.163 175.677C320.218 175.686 318.29 175.528 316.39 175.212L298.119 175.317L297.154 175.322L294.299 181.402L291.813 179.099L289.436 184.947L287.278 184.959L274.64 217.335L263.16 191.276L249.75 185.176L217.957 185.36L184.59 185.554L163.412 215.876L218.133 266.024L165.849 266.408L161.902 276.323C162.043 276.937 162.171 277.553 162.286 278.17L172.11 278.099L172.169 289.799L217.707 289.465L177.32 302.315L179.101 303.736L216.36 303.464L197.591 226.495L212.261 238.205L182.698 238.422L163.421 253.862C163.376 255.644 163.225 257.439 162.971 259.232L162.985 261.992L163.049 274.424L218.99 325.692L163.033 326.102C163.57 328.895 163.84 331.717 163.854 334.521C163.872 338.047 163.487 341.595 162.68 345.08C163.211 347.891 163.422 350.541 163.444 352.899H163.446V353.078C163.446 353.08 163.447 353.082 163.447 353.084L163.52 367.58C163.866 369.829 164.044 372.09 164.055 374.34C164.067 376.595 163.911 378.859 163.589 381.11L163.767 416.632L163.768 416.745L218.904 416.34L166.162 456.629L219.107 456.24L164.679 497.816C164.688 500.044 164.531 502.252 164.214 504.427L164.319 525.351L164.324 526.456L170.416 529.726L168.108 532.572L173.968 535.294L173.98 537.766L206.418 552.238L173.609 414.852L167.497 430.209L167.682 466.618L167.875 504.83L207.832 536.725L184.262 536.898L179.85 541.363L182.26 544.886L190.361 548.812C190.363 548.812 190.365 548.812 190.367 548.813L192.46 548.801L193.409 546.369L197.283 548.773L197.521 548.772C199.293 548.485 201.068 548.337 202.829 548.326L203.353 548.327C204.948 548.342 206.559 548.468 208.172 548.71L260.031 548.41H260.032L260.682 548.406L275.935 548.32C277.736 548.024 279.502 547.884 281.209 547.874L281.776 547.875C283.209 547.891 284.805 547.999 286.514 548.258L303.811 548.158L309.62 548.124C311.374 547.838 313.15 547.689 314.938 547.679H315.319L350.511 494.831L350.843 546.451L385.353 494.628L385.693 547.685L385.731 547.684L404.024 547.578L417.312 547.501C419.109 547.213 420.916 547.064 422.718 547.054L423.628 547.061C425.124 547.09 426.624 547.216 428.121 547.439L437.628 547.385L441.445 547.363L441.446 547.376C443.313 547.418 445.586 547.621 448.091 548.186C451.185 547.309 454.344 546.872 457.487 546.854L458.398 546.861C460.547 546.903 462.706 547.144 464.849 547.588L464.846 547.227L465.538 547.222L466.487 544.791L470.361 547.195L470.596 547.193C472.368 546.905 474.144 546.757 475.907 546.747L476.431 546.748C478.025 546.763 479.637 546.889 481.25 547.131L494.067 547.057L538.937 491.097L539.199 532.05L541.171 529.303L540.94 493.73L553.51 512.103L564.396 496.929L564.599 528.312L566.814 531.553L592.198 493.434L592.537 546.211C593.574 546.114 594.61 546.06 595.646 546.054L596.557 546.061C598.052 546.09 599.553 546.216 601.05 546.439L602.758 546.429L602.759 546.737C603.01 546.787 603.26 546.84 603.511 546.896L604.645 543.991L608.565 546.423C610.401 546.115 612.241 545.958 614.065 545.947L614.588 545.948C616.187 545.963 617.802 546.09 619.419 546.333L642.228 546.201L687.095 490.241L687.451 545.553C688.792 545.597 690.137 545.716 691.479 545.915L700.563 545.863L700.433 519.873L705.023 519.842L704.916 498.626L648.974 447.358L701.257 446.974L705.204 437.059C705.063 436.445 704.935 435.829 704.82 435.212L694.996 435.283L694.938 423.583L649.399 423.917L696.486 543.6L694.705 542.179L657.446 542.451L676.216 527.42L661.546 515.71L691.108 515.493L710.386 500.053C710.431 498.271 710.582 496.477 710.836 494.683L710.821 491.923L710.758 479.491L654.816 428.223L710.773 427.813C710.236 425.02 709.966 422.198 709.952 419.394C709.934 415.868 710.32 412.32 711.127 408.835C710.596 406.024 710.384 403.374 710.362 401.016H710.36V400.837C710.36 400.835 710.359 400.833 710.359 400.831L710.286 386.335C709.94 384.086 709.763 381.825 709.752 379.575C709.74 377.32 709.896 375.056 710.218 372.805L710.039 337.283L710.038 337.17L654.902 337.575L707.644 297.286L654.699 297.675L709.128 256.099C709.119 253.871 709.276 251.663 709.593 249.488L709.487 228.564L709.482 227.459L703.39 224.189L705.698 221.343L699.839 218.621L699.826 216.149L667.388 293.677L693.497 280.53L699.609 283.173L699.425 246.764L699.231 208.552L661.311 178.283L620.625 229.028L620.29 176.844L611.632 172.904ZM742.764 528.301C742.686 528.533 742.623 528.772 742.573 529.016C742.62 528.788 742.679 528.565 742.75 528.347C742.785 528.24 742.821 528.134 742.862 528.029L742.764 528.301ZM744.82 525.433C744.739 525.494 744.66 525.558 744.582 525.624L744.581 525.625C744.697 525.527 744.818 525.435 744.942 525.347C744.984 525.317 745.025 525.285 745.068 525.256L744.82 525.433ZM757.47 505.308L750.375 505.361L755.98 505.321L757.471 505.309L757.457 502.363L757.47 505.308ZM158.082 466.688L167.159 466.621L158.06 462.233L158.082 466.688ZM107.307 451.852L105.503 451.865L108.241 451.847L107.307 451.852ZM118.122 439.096C118.137 439.099 118.153 439.103 118.168 439.107C118.148 439.102 118.129 439.096 118.109 439.092C118.114 439.093 118.118 439.095 118.122 439.096ZM119.806 436.405C119.773 436.39 119.739 436.376 119.705 436.363C119.702 436.361 119.698 436.36 119.695 436.359C119.732 436.374 119.769 436.389 119.806 436.405ZM748.858 435.918H748.888C748.941 435.916 748.994 435.91 749.047 435.906C748.984 435.91 748.922 435.915 748.858 435.918ZM749.291 435.889C749.316 435.887 749.341 435.886 749.366 435.884C749.419 435.879 749.471 435.871 749.522 435.865C749.446 435.874 749.369 435.882 749.291 435.889ZM750.988 435.591C751 435.588 751.013 435.586 751.024 435.582C751.051 435.575 751.077 435.566 751.104 435.559C751.065 435.57 751.027 435.581 750.988 435.591ZM753.947 434.134C753.74 434.292 753.528 434.44 753.31 434.577L753.324 434.569C753.403 434.518 753.484 434.468 753.562 434.415C753.683 434.332 753.803 434.246 753.921 434.156C753.93 434.15 753.938 434.141 753.947 434.134ZM748.319 420.657C747.779 420.662 747.271 420.71 746.794 420.801C747.271 420.711 747.779 420.663 748.318 420.658L748.319 420.659L748.32 420.658C748.359 420.658 748.397 420.659 748.435 420.659C748.396 420.659 748.358 420.657 748.319 420.657ZM105.275 410.018L105.285 412.02L105.275 409.887V410.018ZM111.757 409.969L111.362 410.172L111.759 409.968L111.757 409.969ZM758.574 506.508H758.578C758.618 506.475 758.656 506.439 758.696 506.406C758.655 506.44 758.615 506.475 758.574 506.508ZM746.627 505.504C746.638 505.526 746.65 505.547 746.662 505.568C746.618 505.488 746.576 505.407 746.535 505.326C746.565 505.385 746.595 505.445 746.627 505.504ZM760.399 504.32C760.398 504.322 760.398 504.325 760.397 504.327L760.434 504.252C760.423 504.275 760.411 504.298 760.399 504.32ZM745.573 501.459C745.574 501.506 745.575 501.552 745.577 501.599C745.571 501.473 745.569 501.347 745.568 501.22L745.567 501.219C745.567 501.299 745.571 501.379 745.573 501.459ZM112.537 473.344C112.503 473.386 112.472 473.43 112.44 473.475C112.472 473.431 112.504 473.386 112.537 473.344C112.587 473.281 112.638 473.22 112.69 473.161L112.537 473.344ZM115.383 471.837C115.187 471.854 114.998 471.88 114.814 471.919L115.048 471.876C115.157 471.859 115.269 471.846 115.383 471.837ZM116.451 471.858C116.423 471.855 116.395 471.85 116.366 471.847C116.275 471.837 116.182 471.83 116.088 471.825C116.211 471.832 116.332 471.843 116.451 471.858ZM115.783 471.817C115.664 471.818 115.548 471.823 115.433 471.832C115.548 471.824 115.666 471.819 115.785 471.818C115.875 471.818 115.963 471.818 116.051 471.822C115.963 471.818 115.873 471.817 115.783 471.817ZM121.941 470.436C121.857 470.47 121.774 470.507 121.692 470.547C121.697 470.545 121.702 470.543 121.707 470.541C121.775 470.508 121.843 470.477 121.913 470.448C121.982 470.419 122.053 470.391 122.124 470.365C122.062 470.387 122.001 470.411 121.941 470.436ZM763.208 465.632L757.47 465.674L763.209 465.633L763.203 464.481L763.208 465.632ZM129.278 458.126C129.279 458.345 129.273 458.562 129.261 458.775C129.273 458.562 129.279 458.346 129.278 458.127C129.278 458.017 129.275 457.907 129.27 457.799V457.798C129.275 457.906 129.278 458.016 129.278 458.126ZM116.897 452.767C116.705 452.86 116.52 452.961 116.344 453.073C116.448 453.007 116.555 452.944 116.666 452.885C116.742 452.844 116.819 452.805 116.897 452.767ZM117.533 452.504C117.436 452.537 117.341 452.574 117.248 452.611C117.341 452.574 117.436 452.538 117.533 452.504ZM118.652 452.22C118.364 452.268 118.088 452.333 117.823 452.41C117.959 452.37 118.098 452.335 118.24 452.303L118.652 452.22ZM111.428 452.327L111.429 452.33L113.419 452.315L111.428 452.327ZM128.747 452.203L128.748 452.109L128.732 449.199L128.747 452.203ZM757.177 435.268C757.12 435.249 757.063 435.23 757.004 435.213C756.944 435.196 756.881 435.181 756.82 435.166C756.941 435.196 757.061 435.23 757.177 435.268ZM761.442 434.56C761.439 434.556 761.436 434.553 761.433 434.55C761.39 434.505 761.346 434.461 761.302 434.417C761.348 434.465 761.396 434.511 761.442 434.56ZM763.011 416.218C763.052 416.362 763.09 416.508 763.125 416.655C763.056 416.36 762.974 416.072 762.878 415.791L763.011 416.218ZM752.469 413.163C752.482 413.16 752.497 413.158 752.511 413.155L752.514 413.154C752.5 413.158 752.483 413.16 752.469 413.163ZM752.688 413.12C752.69 413.12 752.692 413.119 752.694 413.119C752.728 413.113 752.764 413.104 752.798 413.098L752.688 413.12ZM754.204 409.888C754.865 409.883 755.497 409.931 756.101 410.034C755.497 409.931 754.865 409.882 754.204 409.887V409.888ZM761.89 403.165C761.84 403.228 761.789 403.29 761.737 403.349L761.89 403.165C761.932 403.112 761.972 403.059 762.011 403.004L761.89 403.165ZM120.696 380.708C120.404 380.739 120.101 380.755 119.788 380.758L119.789 380.759C120.102 380.756 120.404 380.74 120.696 380.708ZM754.017 373.156C753.548 373.16 753.102 373.197 752.68 373.266C753.102 373.197 753.549 373.161 754.018 373.157L754.017 373.156ZM111.916 350.749C111.874 350.802 111.835 350.856 111.796 350.911L111.916 350.75C111.966 350.687 112.017 350.625 112.069 350.566L111.916 350.749ZM117.258 343.793C117.995 343.956 118.777 344.035 119.602 344.028V344.027C118.777 344.034 117.995 343.956 117.258 343.793ZM121.112 340.796C121.078 340.802 121.043 340.811 121.009 340.817L121.118 340.795C121.116 340.795 121.114 340.796 121.112 340.796ZM110.681 337.26C110.75 337.555 110.833 337.843 110.929 338.124L110.796 337.697C110.755 337.553 110.716 337.407 110.681 337.26ZM747.861 327.901V327.902L753.203 327.863L753.204 327.864L753.203 327.862L747.861 327.901ZM112.373 319.365C112.416 319.41 112.461 319.454 112.505 319.498C112.458 319.45 112.41 319.404 112.364 319.355C112.367 319.359 112.37 319.362 112.373 319.365ZM116.803 318.702C116.863 318.719 116.925 318.734 116.986 318.749C116.865 318.719 116.746 318.685 116.63 318.647C116.687 318.666 116.744 318.685 116.803 318.702ZM745.058 301.806L745.074 304.716L745.059 301.712L745.058 301.806ZM755.566 301.612C755.428 301.644 755.287 301.673 755.143 301.697L755.154 301.695C755.442 301.647 755.718 301.582 755.983 301.505C755.847 301.545 755.708 301.58 755.566 301.612ZM760.388 301.6L762.379 301.588L762.378 301.585L760.388 301.6ZM757.462 300.841C757.357 300.907 757.251 300.971 757.14 301.03C757.064 301.072 756.986 301.109 756.908 301.147C757.1 301.055 757.285 300.953 757.462 300.841ZM110.597 288.282L110.603 289.434L110.598 288.283L116.336 288.24L110.597 288.282ZM752.099 283.374C752.031 283.407 751.963 283.438 751.893 283.467C751.824 283.496 751.753 283.524 751.682 283.55C751.744 283.528 751.805 283.504 751.865 283.479C751.949 283.446 752.032 283.408 752.114 283.368C752.109 283.37 752.104 283.372 752.099 283.374ZM758.021 282.097C757.931 282.097 757.844 282.097 757.756 282.093C757.844 282.097 757.933 282.098 758.023 282.098C758.142 282.097 758.258 282.091 758.372 282.082C758.257 282.09 758.14 282.096 758.021 282.097ZM757.44 282.068C757.531 282.078 757.625 282.085 757.719 282.09C757.596 282.083 757.474 282.072 757.355 282.057C757.383 282.06 757.411 282.065 757.44 282.068ZM758.759 282.039C758.649 282.056 758.537 282.068 758.423 282.077C758.618 282.06 758.808 282.035 758.992 281.996L758.759 282.039ZM759.509 281.849C759.513 281.847 759.518 281.846 759.522 281.845C759.565 281.829 759.608 281.815 759.65 281.798L759.509 281.849ZM761.269 280.57C761.219 280.633 761.168 280.695 761.116 280.754L761.269 280.571C761.303 280.529 761.334 280.485 761.366 280.44C761.334 280.484 761.302 280.528 761.269 280.57ZM759.714 261.702L759.781 261.648C759.802 261.632 759.821 261.614 759.842 261.598L759.714 261.702ZM128.238 252.695L128.239 252.696C128.239 252.616 128.235 252.536 128.233 252.456C128.232 252.409 128.231 252.363 128.229 252.316C128.235 252.442 128.237 252.568 128.238 252.695ZM113.372 249.663C113.383 249.64 113.395 249.617 113.407 249.595C113.408 249.593 113.408 249.59 113.409 249.588L113.372 249.663ZM113.875 248.825C113.901 248.789 113.928 248.754 113.955 248.719C113.957 248.716 113.959 248.713 113.961 248.71C113.932 248.748 113.903 248.786 113.875 248.825ZM127.271 248.589C127.241 248.53 127.212 248.47 127.18 248.411C127.169 248.389 127.156 248.368 127.144 248.347C127.188 248.427 127.23 248.508 127.271 248.589ZM114.921 247.67C114.936 247.656 114.953 247.643 114.969 247.629C114.975 247.623 114.981 247.617 114.988 247.611C114.966 247.631 114.943 247.65 114.921 247.67ZM115.11 247.509C115.151 247.475 115.191 247.44 115.232 247.407H115.228C115.188 247.44 115.15 247.476 115.11 247.509ZM761.831 285.495V285.364L761.821 283.362L761.831 285.495ZM120.312 292.581C119.836 292.671 119.327 292.719 118.788 292.724L118.787 292.723L118.786 292.724C118.747 292.724 118.709 292.722 118.671 292.722C118.709 292.722 118.748 292.725 118.787 292.725C119.327 292.72 119.835 292.672 120.312 292.581ZM117.64 292.661C117.856 292.687 118.076 292.705 118.304 292.715C118.077 292.705 117.856 292.687 117.64 292.661ZM116.901 292.535C116.988 292.555 117.075 292.573 117.164 292.59C117.075 292.574 116.988 292.554 116.901 292.535ZM113.782 278.813C113.703 278.864 113.623 278.914 113.545 278.967C113.423 279.05 113.303 279.136 113.185 279.226C113.173 279.235 113.161 279.245 113.149 279.254C113.359 279.093 113.575 278.944 113.797 278.805L113.782 278.813ZM117.74 277.498C117.687 277.503 117.635 277.51 117.583 277.516C117.66 277.507 117.737 277.499 117.814 277.492C117.79 277.494 117.765 277.496 117.74 277.498ZM118.219 277.464C118.165 277.467 118.112 277.471 118.058 277.475C118.121 277.471 118.184 277.466 118.247 277.463L118.219 277.464ZM748.997 274.29C748.992 274.289 748.988 274.287 748.984 274.286C748.969 274.283 748.953 274.279 748.938 274.275C748.958 274.28 748.977 274.286 748.997 274.29ZM758.865 261.535L759.8 261.53L761.603 261.517L758.865 261.535ZM699.947 246.761L709.047 251.149L709.024 246.694L699.947 246.761ZM111.126 208.062L109.636 208.073L109.649 211.02L109.637 208.074L116.731 208.021L111.126 208.062ZM118.262 189.162L118.263 189.163C118.316 189.163 118.369 189.158 118.421 189.157C118.368 189.158 118.315 189.162 118.262 189.162ZM119.178 189.108C119.161 189.11 119.144 189.112 119.127 189.114C119.187 189.108 119.246 189.102 119.305 189.095C119.263 189.099 119.22 189.104 119.178 189.108ZM120.382 188.881C120.466 188.857 120.549 188.832 120.632 188.805C120.55 188.831 120.466 188.857 120.382 188.881ZM122.525 187.757C122.409 187.855 122.288 187.947 122.164 188.035C122.122 188.065 122.081 188.097 122.038 188.126L122.286 187.949C122.367 187.888 122.446 187.824 122.524 187.758L122.525 187.757ZM123.184 187.093C123.222 187.048 123.259 187.003 123.296 186.958C123.259 187.003 123.222 187.049 123.184 187.093ZM124.244 185.353L124.343 185.081C124.347 185.068 124.35 185.053 124.354 185.04C124.32 185.145 124.284 185.249 124.244 185.353ZM217.895 175.779L217.954 184.839L221.786 175.757L217.895 175.779ZM743.432 181.312C743.437 181.359 743.443 181.406 743.448 181.453C743.44 181.377 743.433 181.301 743.427 181.225C743.429 181.254 743.43 181.283 743.432 181.312ZM665.393 173.192L662.635 176.632L682.845 176.484L683.933 175.381L683.92 173.085L665.393 173.192ZM361.994 139.813L362.076 139.814L364.617 139.798L361.994 139.813ZM536.21 139.305L536.209 139.306C536.278 139.306 536.348 139.302 536.418 139.3C536.459 139.299 536.5 139.298 536.541 139.296C536.431 139.302 536.321 139.304 536.21 139.305ZM539.795 138.34C539.846 138.31 539.899 138.281 539.95 138.249C539.969 138.238 539.988 138.225 540.007 138.213C539.937 138.257 539.865 138.299 539.795 138.34ZM384.829 131.685L384.863 137.017H384.864L384.83 131.685L384.831 131.684L384.829 131.685ZM691.306 135.418C691.706 135.571 692.128 135.668 692.567 135.711C692.142 135.67 691.735 135.575 691.346 135.431C691.253 135.396 691.161 135.359 691.069 135.318L691.306 135.418ZM700.379 133.26C700.326 133.391 700.27 133.523 700.212 133.65C700.271 133.522 700.327 133.391 700.38 133.259C700.391 133.231 700.401 133.201 700.412 133.172C700.4 133.201 700.39 133.231 700.379 133.26ZM688.803 133.364C688.856 133.445 688.911 133.525 688.969 133.603L688.97 133.604C688.884 133.488 688.804 133.367 688.727 133.243C688.701 133.201 688.673 133.16 688.647 133.117L688.803 133.364ZM346.135 133.203C346.115 133.141 346.094 133.08 346.072 133.021C346.07 133.014 346.067 133.007 346.064 133.001C346.088 133.067 346.113 133.135 346.135 133.203ZM504.128 121.704L505.133 121.699L505.207 133.112L505.134 121.698L504.128 121.704ZM345.98 132.787C346.004 132.843 346.025 132.899 346.047 132.956C346.024 132.894 346.001 132.832 345.975 132.771C345.977 132.776 345.979 132.782 345.98 132.787ZM700.62 132.575C700.654 132.466 700.685 132.356 700.716 132.245L700.729 132.192C700.695 132.321 700.659 132.449 700.62 132.575ZM424.381 130.872C424.383 131.184 424.398 131.486 424.426 131.777L424.394 131.332C424.387 131.181 424.383 131.027 424.382 130.871L424.381 130.872ZM597.309 129.872C597.313 130.375 597.351 130.85 597.421 131.298C597.352 130.85 597.314 130.375 597.31 129.873V129.871C597.31 129.802 597.312 129.734 597.312 129.666C597.311 129.734 597.309 129.803 597.309 129.872ZM701.08 129.272C701.084 129.85 701.048 130.405 700.976 130.939C701.028 130.556 701.062 130.161 701.075 129.756L701.081 129.271C701.08 129.162 701.075 129.053 701.072 128.945C701.075 129.054 701.079 129.163 701.08 129.272ZM456.584 128.793C456.494 129.396 456.451 130.026 456.455 130.686H456.456C456.452 130.026 456.494 129.396 456.584 128.793ZM687.783 130.196C687.789 130.264 687.794 130.331 687.802 130.397C687.797 130.352 687.794 130.308 687.79 130.263C687.788 130.241 687.786 130.218 687.783 130.196ZM361.906 129.326C361.934 129.464 361.959 129.604 361.98 129.748L361.979 129.737C361.937 129.45 361.88 129.175 361.813 128.91C361.848 129.046 361.878 129.185 361.906 129.326ZM610.637 129.341L610.636 129.306C610.632 129.221 610.625 129.136 610.62 129.053C610.626 129.148 610.633 129.244 610.637 129.341ZM610.607 128.865C610.606 128.853 610.606 128.84 610.605 128.827C610.6 128.764 610.593 128.701 610.587 128.639C610.594 128.714 610.601 128.789 610.607 128.865ZM701.042 128.375C701.04 128.352 701.04 128.329 701.038 128.306C701.033 128.243 701.024 128.181 701.018 128.119C701.027 128.204 701.035 128.289 701.042 128.375ZM478.57 127.892C478.555 127.951 478.542 128.013 478.529 128.074C478.555 127.954 478.585 127.835 478.618 127.72C478.601 127.776 478.585 127.833 478.57 127.892ZM361.221 127.413C361.284 127.524 361.343 127.638 361.398 127.755C361.434 127.829 361.467 127.905 361.5 127.981C361.416 127.784 361.324 127.594 361.221 127.413ZM668.656 120.752L671.228 120.74L671.275 127.82L671.239 122.226L671.229 120.738L668.656 120.752ZM344.831 127.541C344.833 127.513 344.838 127.485 344.841 127.456C344.849 127.365 344.855 127.272 344.859 127.179C344.853 127.301 344.844 127.422 344.831 127.541ZM700.94 127.488C700.935 127.452 700.931 127.416 700.925 127.38C700.92 127.352 700.914 127.325 700.909 127.297C700.92 127.36 700.93 127.424 700.94 127.488ZM344.865 126.876C344.865 126.966 344.866 127.054 344.862 127.142C344.866 127.054 344.866 126.964 344.866 126.874C344.865 126.753 344.859 126.634 344.851 126.517C344.859 126.634 344.864 126.754 344.865 126.876ZM700.867 127.069C700.858 127.024 700.851 126.979 700.842 126.935C700.836 126.91 700.829 126.886 700.824 126.861C700.839 126.93 700.853 127 700.867 127.069ZM700.768 126.623C700.758 126.582 700.75 126.541 700.74 126.5C700.737 126.487 700.733 126.475 700.729 126.462C700.743 126.515 700.755 126.569 700.768 126.623ZM344.849 126.477C344.847 126.444 344.846 126.411 344.843 126.378L344.815 126.141C344.83 126.25 344.841 126.362 344.849 126.477ZM540.827 126.324V126.32C540.798 126.28 540.767 126.242 540.738 126.202C540.768 126.243 540.798 126.283 540.827 126.324ZM700.62 126.075C700.643 126.15 700.662 126.225 700.683 126.301C700.623 126.084 700.558 125.871 700.483 125.662L700.62 126.075ZM540.634 126.062C540.639 126.067 540.644 126.073 540.649 126.08C540.632 126.058 540.615 126.036 540.597 126.014C540.61 126.029 540.621 126.046 540.634 126.062ZM230.855 126.033L230.851 125.102L230.84 123.301L230.855 126.033ZM609.29 124.588C609.415 124.796 609.532 125.01 609.64 125.229C609.582 125.11 609.522 124.993 609.458 124.877C609.413 124.798 609.369 124.718 609.323 124.641C609.312 124.623 609.301 124.606 609.29 124.588ZM327.056 125.188L327.009 125.119C326.995 125.1 326.981 125.082 326.968 125.062L327.056 125.188ZM539.681 125.05C539.684 125.052 539.687 125.054 539.689 125.056C539.656 125.027 539.623 124.998 539.589 124.97C539.62 124.996 539.651 125.023 539.681 125.05ZM700.155 124.868L700 124.557C699.995 124.548 699.99 124.54 699.985 124.531C700.044 124.643 700.101 124.754 700.155 124.868ZM361.883 122.528L361.896 124.515L361.886 122.527L361.883 122.528ZM538.917 124.503C538.919 124.504 538.921 124.504 538.923 124.505L538.857 124.468C538.877 124.479 538.898 124.491 538.917 124.503ZM609.198 124.443C609.164 124.389 609.132 124.334 609.096 124.281C609.088 124.269 609.079 124.257 609.071 124.245C609.115 124.31 609.156 124.377 609.198 124.443ZM477.991 123.471C477.952 123.513 477.914 123.559 477.876 123.603C477.918 123.556 477.957 123.508 478 123.462C477.997 123.465 477.994 123.468 477.991 123.471ZM450.585 123.015C450.64 123.065 450.694 123.115 450.746 123.167L450.585 123.015C450.539 122.973 450.493 122.933 450.445 122.895L450.585 123.015ZM265.634 123.083L267.496 123.073H267.382L265.634 123.083ZM462.365 121.782C462.107 121.851 461.855 121.933 461.61 122.029L461.983 121.896C462.109 121.856 462.237 121.817 462.365 121.782ZM463.156 121.616C463.022 121.637 462.888 121.662 462.757 121.689C463.021 121.634 463.291 121.592 463.566 121.564C463.428 121.578 463.291 121.595 463.156 121.616ZM696.868 121.184C696.981 121.249 697.094 121.32 697.204 121.394C696.983 121.247 696.757 121.113 696.524 120.993L696.868 121.184ZM695.805 120.675C695.928 120.722 696.05 120.77 696.17 120.823C695.931 120.718 695.686 120.626 695.434 120.546L695.805 120.675ZM339.275 593.238C339.277 593.243 339.279 593.249 339.28 593.254C339.304 593.31 339.325 593.366 339.347 593.423C339.324 593.361 339.301 593.299 339.275 593.238ZM602.498 584.91C602.464 584.856 602.432 584.801 602.396 584.748C602.388 584.736 602.379 584.724 602.371 584.712C602.415 584.777 602.456 584.844 602.498 584.91Z" fill="black"/>
</svg>
