<svg width="867" height="867" viewBox="0 0 867 867" fill="none" xmlns="http://www.w3.org/2000/svg">
<path d="M161.655 55.9166L191.239 110.231L199.372 110.156L200.085 107.865L202.982 110.121L216.659 109.996L215.823 110.797L266.698 110.428H266.699L267.349 110.423L282.6 110.314C284.401 109.942 286.167 109.767 287.874 109.755L288.441 109.756C289.874 109.776 291.469 109.912 293.178 110.237L310.473 110.112L316.281 110.069C318.035 109.71 319.811 109.523 321.599 109.51H321.98L357.167 20.5482L357.499 107.968L392.005 20.293L392.345 109.517L392.383 109.516L410.674 109.383L423.96 109.286C425.757 108.924 427.564 108.738 429.366 108.725L430.275 108.733C431.771 108.771 433.271 108.928 434.768 109.208L444.274 109.14L448.09 109.112L448.091 109.129C449.958 109.182 452.231 109.437 454.735 110.146C457.829 109.045 460.988 108.496 464.13 108.473L465.041 108.482C467.19 108.536 469.349 108.838 471.491 109.396L471.488 108.942L472.18 108.936L473.129 105.884L477.003 108.901L477.238 108.899C479.009 108.538 480.785 108.353 482.548 108.34L483.072 108.341C484.666 108.36 486.278 108.517 487.89 108.822L500.706 108.728L545.57 15.859L545.832 89.8848L547.804 86.4353L547.573 19.1649L560.142 64.8375L571.026 23.1821L571.229 85.1907L573.444 89.2606L598.825 18.7934L599.164 107.666C600.201 107.544 601.236 107.477 602.272 107.469L603.183 107.478C604.678 107.515 606.179 107.672 607.676 107.952L609.384 107.94L609.384 108.326C609.635 108.389 609.885 108.456 610.136 108.526L611.27 104.879L615.19 107.933C617.026 107.546 618.865 107.349 620.689 107.335L621.212 107.337C622.811 107.355 624.426 107.514 626.042 107.82L648.849 107.654L693.71 14.7848L694.066 106.84C695.407 106.896 696.752 107.044 698.094 107.295L734.197 107.034C735.949 106.676 737.724 106.488 739.509 106.475H739.89L775.077 17.5132L775.418 106.736L778.043 106.716L778.07 112.153C783.247 115.065 788.109 119.174 792.436 124.542L792.499 124.619L792.561 124.699C799.521 133.42 803.876 143.911 805.835 155.01L865.365 171.167L826.556 196.391L867 221.2L840.421 228.923L796.909 271.646C796.911 271.829 796.913 272.012 796.914 272.196L796.905 273.616C796.872 275.68 796.745 277.751 796.529 279.816L796.541 282.825L798.975 284.19L796.569 289.761L796.57 290.104C796.857 292.652 797.006 295.203 797.016 297.736L797.015 298.488C797 300.782 796.874 303.099 796.631 305.418L796.931 357.388V357.389L796.935 358.324L797.023 380.256C797.319 382.847 797.458 269.865 797.468 272.32L797.468 273.135C797.453 275.196 797.344 277.491 797.084 279.948L797.184 304.819L797.218 313.175C797.504 315.696 797.653 318.25 797.664 320.82V321.369L850.607 371.973L798.893 372.451L850.81 422.075L797.658 422.565L797.659 422.62L797.764 448.924L797.841 468.033C798.13 470.616 798.279 473.214 798.29 475.804L798.283 477.114C798.253 479.265 798.127 481.422 797.904 483.574L797.958 497.245L797.981 502.735L797.967 502.736C797.926 505.421 797.722 508.688 797.157 512.29C798.034 516.74 798.472 521.282 798.491 525.803L798.484 527.112C798.441 530.202 798.2 533.306 797.754 536.388L798.117 536.384L798.122 537.379L800.557 538.744L798.149 544.315L798.151 544.651C798.439 547.2 798.587 549.755 798.597 552.29L798.596 553.042C798.581 555.335 798.455 557.653 798.212 559.972L798.287 578.404L854.348 642.924L813.322 643.302L816.073 646.136L851.71 645.806L833.304 663.88L848.505 679.535L817.066 679.825L813.82 683.011L845.308 530.493L792.435 530.98C792.533 532.47 792.586 533.961 792.592 535.45L792.586 536.76C792.556 538.911 792.43 541.068 792.207 543.22L792.216 545.676L791.909 545.679C791.859 546.04 791.806 546.399 791.75 546.76L794.659 548.39L792.222 554.028C792.531 556.667 792.688 559.313 792.699 561.937L792.698 562.688C792.683 564.987 792.557 567.309 792.313 569.634L792.445 602.433L848.505 666.951L793.094 667.464C793.05 669.392 792.931 671.325 792.731 673.254L792.94 725.178C793.226 727.697 793.376 730.249 793.386 732.816V733.364L846.33 783.969L793.177 784.46L793.193 788.233L771.873 788.429L771.906 794.847L769.282 794.867L769.635 863.965L736.053 800.859L677.164 801.288L677.137 795.533L658.612 795.668L613.85 865.78L613.515 800.254L604.858 795.306C604.322 795.483 603.784 795.644 603.245 795.788L603.307 808.1L593.091 808.174L593.383 865.246L566.448 814.63L565.207 816.861L565.445 863.557L552.32 840.035L542.096 858.42L541.907 821.37L528.425 797.211C526.87 797.155 525.303 796.965 523.737 796.647L521.327 796.664L510.473 796.745L465.71 866.853L465.351 796.724C462.912 797.397 460.449 797.736 458.001 797.754C454.922 797.775 451.825 797.293 448.782 796.282C446.327 796.947 444.014 797.211 441.955 797.239V797.241H441.799C441.797 797.241 441.793 797.242 441.793 797.242L429.136 797.335C427.173 797.769 425.199 797.992 423.234 798.006C421.266 798.021 419.289 797.825 417.323 797.422L386.308 797.644L386.21 797.646L386.563 866.746L351.386 800.645L351.726 867L315.424 798.788C313.48 798.799 311.552 798.601 309.652 798.204L291.383 798.336L290.419 798.342L287.564 805.977L285.078 803.085L282.701 810.428L280.544 810.443L267.907 851.097L256.429 818.375L243.02 810.716L211.231 810.947L177.868 811.19L150.02 861.267L149.869 831.727L144.578 824.227L133.826 856.082L114.04 800.245C113.898 800.247 113.756 800.254 113.615 800.254C111.5 800.27 109.395 800.075 107.311 799.672L85.1361 799.833L86.9767 787.609C85.5281 786.019 84.129 784.276 82.7897 782.378L82.735 782.3L82.6794 782.22C81.2938 780.236 80.0242 778.154 78.8664 775.99C77.3826 774.531 75.946 772.946 74.5641 771.231L74.5016 771.155L74.4391 771.074C67.4785 762.354 63.1241 751.863 61.1644 740.764L1.63457 724.607L40.4443 699.383L0 674.573L26.5788 666.851L70.092 624.128C70.0898 623.945 70.0878 623.761 70.0871 623.578L70.0959 622.158C70.129 620.094 70.2552 618.023 70.4719 615.957L70.4602 612.949L68.0249 611.584L70.4318 606.012L70.4309 605.67C70.1435 603.122 69.9948 600.57 69.9846 598.038L69.9855 597.286C70.0005 594.991 70.1265 592.675 70.3693 590.355L70.0695 515.784V515.782L70.0656 514.848L76.6771 681.935C76.3807 679.345 76.2408 676.805 76.2309 674.35L76.2319 673.535C76.2475 671.474 76.3566 669.179 76.6156 666.722L76.516 641.851L76.4819 633.495C76.1955 630.974 76.046 628.42 76.0356 625.85V625.301L23.0929 574.697L74.8063 574.219L22.8898 524.595L76.0415 524.105L76.0405 524.05L75.935 497.746L75.8579 478.637C75.5688 476.054 75.4202 473.456 75.4098 470.866L75.4166 469.556C75.4464 467.405 75.5722 465.248 75.7954 463.096L75.7407 449.425L75.7182 443.935L75.7319 443.934C75.7736 441.249 75.9776 437.982 76.5433 434.38C75.6653 429.93 75.2268 425.388 75.2086 420.867L75.2154 419.558C75.2582 416.467 75.4996 413.363 75.9448 410.282L75.5826 410.286L75.5777 409.291L73.1425 407.926L75.5504 402.355L75.5484 402.018C75.2606 399.469 75.1123 396.915 75.1021 394.38L75.1031 393.628C75.1181 391.335 75.2441 389.017 75.4869 386.698L75.4127 368.266L19.3521 303.746L60.3783 303.368L57.6268 300.534L21.9895 300.864L40.3955 282.79L25.1942 382.657L56.6337 382.367L59.8804 379.18L21.6926 365.281L74.5651 364.794C74.4677 363.304 74.4139 361.813 74.4079 360.324L74.4147 359.014C74.4445 356.863 74.5703 354.706 74.7936 352.554L74.7839 350.098L75.0914 350.095C75.1416 349.734 75.1947 349.374 75.2506 349.014L72.3418 347.384L74.778 341.746C74.4698 339.107 74.312 336.461 74.3015 333.837L74.3024 333.086C74.3174 330.787 74.4434 328.465 74.6872 326.139L74.5554 293.341L18.4948 228.822L73.906 228.31C73.9503 226.381 74.0693 224.449 74.2692 222.52L74.0602 170.596C73.7745 168.077 73.6244 165.525 73.6141 162.957V162.41L20.6713 111.805L73.823 111.315L73.8074 107.541L96.62 107.331C100.878 103.453 105.488 100.786 110.261 99.2668L121.495 2.04906L139.035 73.2962L156.285 0L161.655 55.9166ZM211.169 798.916L211.228 810.293L215.06 798.889L211.169 798.916ZM355.251 753.755L355.333 753.756L357.873 753.736L355.251 753.755ZM529.445 753.117L529.444 753.118C529.513 753.118 529.583 753.113 529.653 753.111C529.694 753.109 529.735 753.108 529.776 753.106C529.666 753.113 529.556 753.116 529.445 753.117ZM533.03 751.905C533.081 751.868 533.134 751.831 533.185 751.791C533.204 751.777 533.223 751.761 533.242 751.746C533.172 751.801 533.1 751.854 533.03 751.905ZM378.083 743.549L378.117 750.244H378.118L378.084 743.549L378.085 743.547L378.083 743.549ZM684.522 748.236C684.922 748.428 685.344 748.55 685.783 748.604C685.358 748.552 684.951 748.433 684.562 748.252C684.469 748.208 684.377 748.162 684.285 748.11L684.522 748.236ZM682.02 745.657C682.073 745.759 682.128 745.859 682.186 745.957L682.187 745.958C682.101 745.813 682.021 745.661 681.944 745.505C681.918 745.452 681.89 745.401 681.864 745.347L682.02 745.657ZM339.323 745.201C339.347 745.284 339.372 745.369 339.394 745.455C339.374 745.377 339.353 745.3 339.331 745.226C339.329 745.217 339.326 745.209 339.323 745.201ZM497.367 731.016L498.372 731.01L498.446 745.34L498.373 731.008L497.367 731.016ZM694 743.894L694.002 743.893C694.011 743.844 694.02 743.795 694.029 743.746C694.02 743.795 694.009 743.845 694 743.894ZM417.63 742.528C417.632 742.92 417.647 743.299 417.675 743.664L417.643 743.105C417.636 742.916 417.632 742.722 417.631 742.527L417.63 742.528ZM590.537 741.272C590.541 741.904 590.579 742.5 590.649 743.063C590.58 742.5 590.542 741.904 590.538 741.273V741.271C590.538 741.184 590.54 741.099 590.54 741.013C590.539 741.099 590.537 741.185 590.537 741.272ZM694.295 740.519C694.299 741.245 694.263 741.941 694.191 742.612C694.243 742.131 694.277 741.635 694.29 741.127L694.296 740.517C694.295 740.371 694.291 740.224 694.287 740.078C694.291 740.224 694.294 740.371 694.295 740.519ZM449.829 739.917C449.739 740.674 449.696 741.466 449.7 742.294H449.701C449.697 741.466 449.739 740.674 449.829 739.917ZM681 741.679C681.006 741.764 681.011 741.849 681.019 741.931C681.014 741.875 681.011 741.82 681.007 741.763C681.005 741.735 681.003 741.707 681 741.679ZM355.163 740.587C355.191 740.76 355.216 740.936 355.237 741.116L355.236 741.103C355.194 740.742 355.137 740.397 355.07 740.064C355.105 740.235 355.135 740.41 355.163 740.587ZM603.863 740.615L603.862 740.561C603.858 740.455 603.851 740.348 603.846 740.244C603.852 740.367 603.859 740.49 603.863 740.615ZM603.833 740.008C603.832 739.993 603.832 739.976 603.831 739.96C603.826 739.881 603.819 739.802 603.813 739.724C603.82 739.818 603.827 739.912 603.833 740.008ZM694.257 739.392C694.255 739.363 694.255 739.335 694.253 739.306C694.248 739.227 694.239 739.149 694.233 739.071C694.242 739.178 694.25 739.284 694.257 739.392ZM471.812 738.786C471.797 738.86 471.784 738.938 471.771 739.014C471.797 738.864 471.827 738.714 471.86 738.57C471.843 738.64 471.827 738.712 471.812 738.786ZM354.478 738.184C354.541 738.324 354.6 738.467 354.655 738.614C354.691 738.707 354.724 738.802 354.757 738.898C354.673 738.65 354.581 738.412 354.478 738.184ZM661.875 729.82L664.447 729.805L664.494 738.695L664.458 731.671L664.448 729.803L661.875 729.82ZM338.09 738.345C338.092 738.31 338.097 738.275 338.1 738.238C338.108 738.124 338.114 738.007 338.118 737.891C338.112 738.044 338.103 738.196 338.09 738.345ZM694.155 738.279C694.15 738.233 694.146 738.188 694.14 738.143C694.135 738.108 694.129 738.074 694.124 738.039C694.135 738.118 694.145 738.198 694.155 738.279ZM338.124 737.51C338.124 737.623 338.125 737.734 338.121 737.844C338.125 737.734 338.125 737.621 338.125 737.508C338.124 737.356 338.118 737.206 338.11 737.059C338.118 737.206 338.123 737.357 338.124 737.51ZM694.082 737.753C694.073 737.696 694.066 737.639 694.057 737.584C694.051 737.549 694.043 737.514 694.037 737.48C694.053 737.57 694.068 737.661 694.082 737.753ZM693.944 736.99C693.958 737.057 693.97 737.125 693.983 737.192C693.973 737.141 693.965 737.089 693.955 737.038C693.952 737.022 693.948 737.007 693.944 736.99ZM338.074 736.587C338.089 736.724 338.1 736.865 338.108 737.009C338.1 736.865 338.089 736.723 338.074 736.585V736.587ZM534.062 736.817V736.812C534.033 736.762 534.002 736.714 533.973 736.664C534.003 736.715 534.033 736.766 534.062 736.817ZM693.835 736.504C693.858 736.599 693.877 736.693 693.898 736.788C693.838 736.516 693.773 736.248 693.698 735.986L693.835 736.504ZM533.869 736.488C533.874 736.494 533.879 736.502 533.884 736.511C533.867 736.483 533.85 736.455 533.832 736.428C533.845 736.447 533.856 736.468 533.869 736.488ZM224.128 736.452L224.124 735.283L224.113 733.021L224.128 736.452ZM337.908 735.647C337.907 735.64 337.906 735.634 337.904 735.629C337.89 735.575 337.878 735.521 337.863 735.468L337.908 735.647ZM602.516 734.637C602.641 734.898 602.758 735.167 602.866 735.442C602.808 735.293 602.748 735.146 602.684 735C602.639 734.901 602.595 734.8 602.549 734.704C602.538 734.681 602.527 734.66 602.516 734.637ZM320.317 735.391L320.27 735.304C320.256 735.28 320.242 735.257 320.229 735.232L320.317 735.391ZM532.916 735.217C532.919 735.22 532.922 735.222 532.924 735.225C532.891 735.188 532.858 735.152 532.824 735.117C532.855 735.149 532.886 735.183 532.916 735.217ZM693.37 734.989L693.215 734.598C693.21 734.587 693.205 734.577 693.2 734.566C693.259 734.706 693.316 734.846 693.37 734.989ZM355.14 732.05L355.153 734.545L355.143 732.049L355.14 732.05ZM532.152 734.53C532.154 734.532 532.156 734.532 532.158 734.533L532.092 734.486C532.112 734.5 532.133 734.515 532.152 734.53ZM471.233 733.235C471.194 733.287 471.156 733.345 471.118 733.4C471.16 733.341 471.199 733.281 471.242 733.223C471.239 733.227 471.236 733.231 471.233 733.235ZM443.831 732.662C443.886 732.725 443.94 732.788 443.992 732.853L443.831 732.662C443.785 732.609 443.739 732.559 443.691 732.511L443.831 732.662ZM258.902 732.747L260.764 732.735H260.65L258.902 732.747ZM455.609 731.114C455.351 731.2 455.099 731.303 454.854 731.424L455.227 731.257C455.353 731.207 455.481 731.158 455.609 731.114ZM456.4 730.905C456.266 730.932 456.132 730.963 456.001 730.997C456.265 730.928 456.535 730.875 456.81 730.84C456.672 730.858 456.535 730.879 456.4 730.905ZM690.084 730.363C690.197 730.444 690.31 730.534 690.42 730.627C690.199 730.442 689.973 730.274 689.74 730.123L690.084 730.363ZM689.021 729.724C689.144 729.783 689.266 729.843 689.386 729.91C689.147 729.778 688.902 729.662 688.65 729.562L689.021 729.724ZM611.557 217.111C611.021 217.288 610.483 217.448 609.944 217.593L610.006 229.905L599.791 229.979L600.083 287.05L573.147 236.434L571.906 238.666L572.144 285.361L559.02 261.839L548.795 280.225L548.606 243.175L535.125 219.016C533.569 218.959 532.002 218.769 530.436 218.452L528.026 218.468L517.172 218.55L472.409 288.658L472.05 218.528C469.612 219.201 467.148 219.54 464.7 219.558C461.622 219.579 458.524 219.097 455.481 218.086C453.027 218.752 450.713 219.016 448.654 219.043V219.046H448.498C448.496 219.046 448.492 219.047 448.492 219.047L435.835 219.14C433.872 219.573 431.898 219.797 429.933 219.81C427.965 219.825 425.988 219.63 424.022 219.227L393.007 219.449L392.909 219.45L393.262 288.551L358.085 222.45L358.425 288.805L322.124 220.593C320.179 220.604 318.251 220.406 316.351 220.009L298.083 220.141L297.118 220.147L294.263 227.781L291.777 224.89L289.401 232.233L287.243 232.248L274.606 272.901L263.128 240.18L249.719 232.52L217.93 232.751L184.567 232.995L163.392 271.069L218.106 334.039L165.829 334.521L161.882 346.971C162.023 347.742 162.151 348.516 162.266 349.29L172.089 349.201L172.148 363.892L217.68 363.473L177.298 379.608L179.079 381.393L216.334 381.051L197.567 284.403L212.235 299.107L182.676 299.38L163.401 318.767C163.356 321.005 163.205 323.259 162.951 325.51L162.965 328.976L163.029 344.587L218.963 408.962L163.013 409.477C163.55 412.984 163.82 416.528 163.834 420.049C163.852 424.476 163.467 428.931 162.66 433.307C163.191 436.837 163.402 440.164 163.424 443.125H163.426V443.35C163.426 443.353 163.427 443.355 163.427 443.358L163.5 461.56C163.846 464.384 164.024 467.223 164.035 470.048C164.047 472.88 163.891 475.723 163.569 478.549L163.747 523.153L163.748 523.295L218.877 522.786L166.142 573.376L219.08 572.888L164.659 625.094C164.668 627.891 164.511 630.664 164.194 633.395L164.299 659.669L164.304 661.056L170.395 665.162L168.087 668.736L173.947 672.154L173.959 675.258L206.393 693.43L173.588 520.918L167.477 540.201L167.662 585.919L167.854 633.901L207.807 673.951L184.239 674.168L179.828 679.774L182.238 684.198L190.338 689.128C190.34 689.128 190.342 689.128 190.344 689.129L192.436 689.114L193.385 686.06L197.259 689.079L197.497 689.078C199.269 688.717 201.043 688.531 202.804 688.518L203.328 688.519C204.923 688.538 206.534 688.696 208.147 689L259.999 688.623H260L260.65 688.618L275.901 688.51C277.702 688.138 279.468 687.963 281.175 687.95L281.742 687.951C283.174 687.971 284.77 688.107 286.479 688.432L303.774 688.307L309.582 688.264C311.336 687.905 313.112 687.718 314.899 687.705H315.28L350.468 621.345L350.8 686.163L385.306 621.091L385.646 687.713L385.684 687.711L403.975 687.578L417.261 687.482C419.058 687.12 420.865 686.933 422.666 686.92L423.576 686.929C425.072 686.966 426.572 687.124 428.069 687.404L437.574 687.336L441.391 687.308L441.392 687.325C443.259 687.377 445.532 687.632 448.036 688.342C451.13 687.241 454.288 686.692 457.431 686.669L458.342 686.678C460.491 686.731 462.649 687.033 464.792 687.591L464.789 687.138L465.481 687.131L466.43 684.079L470.303 687.097L470.538 687.095C472.31 686.733 474.086 686.547 475.849 686.535L476.373 686.536C477.967 686.555 479.578 686.713 481.191 687.017L494.007 686.924L538.871 616.657L539.133 668.08L541.105 664.631L540.874 619.963L553.442 643.033L564.327 623.98L564.53 663.387L566.745 667.456L592.126 619.591L592.465 685.862C593.501 685.74 594.537 685.672 595.573 685.665L596.484 685.673C597.979 685.71 599.48 685.868 600.977 686.148L602.684 686.136L602.685 686.522C602.936 686.585 603.186 686.652 603.437 686.722L604.571 683.074L608.491 686.128C610.326 685.741 612.166 685.544 613.99 685.53L614.513 685.532C616.112 685.55 617.726 685.71 619.343 686.015L642.15 685.849L687.011 615.582L687.367 685.036C688.708 685.091 690.053 685.24 691.394 685.49L700.477 685.425L700.347 652.79L704.937 652.751L704.83 626.111L648.895 561.735L701.171 561.253L705.118 548.803C704.977 548.032 704.849 547.258 704.734 546.484L694.911 546.573L694.853 531.881L649.32 532.301L696.401 682.583L694.62 680.799L657.366 681.141L676.133 662.266L661.465 647.563L691.023 647.29L710.299 627.903C710.344 625.665 710.495 623.412 710.749 621.16L710.734 617.694L710.671 602.083L654.736 537.708L710.686 537.193C710.149 533.686 709.879 530.142 709.865 526.621C709.847 522.194 710.233 517.739 711.04 513.363C710.509 509.833 710.297 506.505 710.275 503.545H710.273V503.32C710.273 503.317 710.272 503.315 710.272 503.312L710.199 485.11C709.853 482.286 709.676 479.447 709.665 476.622C709.653 473.79 709.809 470.947 710.131 468.121L709.952 423.517L709.951 423.375L654.822 423.883L707.557 373.294L654.619 373.782L709.041 321.576C709.032 318.779 709.189 316.006 709.506 313.275L709.4 287.001L709.395 285.614L703.304 281.508L705.612 277.934L699.753 274.516L699.74 271.412L667.306 368.762L693.412 352.254L699.523 355.572L699.339 309.855L699.146 261.873L661.23 223.865L620.549 287.584L620.214 222.058L611.557 217.111ZM742.673 663.373C742.595 663.664 742.532 663.964 742.482 664.271C742.529 663.984 742.588 663.704 742.659 663.431C742.694 663.296 742.73 663.163 742.771 663.031L742.673 663.373ZM744.729 659.771C744.648 659.848 744.569 659.928 744.491 660.011L744.49 660.013C744.606 659.89 744.727 659.774 744.851 659.663C744.893 659.626 744.934 659.586 744.977 659.549L744.729 659.771ZM757.377 634.501L750.283 634.568L755.888 634.517L757.378 634.502L757.364 630.803L757.377 634.501ZM158.063 586.007L167.139 585.923L158.041 580.413L158.063 586.007ZM107.294 567.378L105.49 567.394L108.228 567.372L107.294 567.378ZM118.108 551.361C118.123 551.364 118.139 551.369 118.154 551.374C118.134 551.368 118.115 551.361 118.095 551.356C118.1 551.357 118.104 551.359 118.108 551.361ZM119.791 547.982C119.758 547.963 119.724 547.945 119.69 547.929C119.687 547.926 119.683 547.925 119.68 547.924C119.717 547.943 119.754 547.961 119.791 547.982ZM748.766 547.37H748.796C748.849 547.368 748.902 547.36 748.955 547.355C748.892 547.36 748.83 547.366 748.766 547.37ZM749.199 547.334C749.224 547.331 749.249 547.33 749.274 547.327C749.327 547.321 749.379 547.311 749.43 547.303C749.354 547.315 749.277 547.325 749.199 547.334ZM750.896 546.959C750.908 546.956 750.921 546.953 750.932 546.948C750.959 546.939 750.985 546.928 751.012 546.919C750.973 546.933 750.935 546.947 750.896 546.959ZM753.855 545.13C753.648 545.328 753.436 545.514 753.218 545.686L753.232 545.676C753.311 545.612 753.392 545.549 753.47 545.483C753.591 545.379 753.711 545.271 753.829 545.158C753.838 545.15 753.846 545.139 753.855 545.13ZM748.227 528.207C747.688 528.214 747.18 528.274 746.703 528.388C747.18 528.275 747.688 528.215 748.227 528.208L748.227 528.21L748.229 528.208C748.268 528.208 748.306 528.21 748.344 528.21C748.305 528.21 748.266 528.207 748.227 528.207ZM105.262 514.848L105.272 517.362L105.262 514.684V514.848ZM111.743 514.787L111.348 515.041L111.745 514.785L111.743 514.787ZM758.481 636.008H758.485C758.525 635.966 758.563 635.921 758.603 635.88C758.562 635.923 758.522 635.966 758.481 636.008ZM746.536 634.747C746.547 634.775 746.559 634.801 746.571 634.828C746.527 634.727 746.485 634.625 746.444 634.524C746.474 634.598 746.504 634.673 746.536 634.747ZM760.306 633.261C760.305 633.263 760.305 633.267 760.304 633.269L760.341 633.175C760.33 633.204 760.318 633.233 760.306 633.261ZM745.482 629.668C745.483 629.727 745.484 629.785 745.486 629.844C745.48 629.686 745.478 629.527 745.477 629.368L745.476 629.367C745.476 629.467 745.48 629.568 745.482 629.668ZM112.523 594.365C112.489 594.418 112.458 594.473 112.426 594.529C112.458 594.474 112.49 594.418 112.523 594.365C112.573 594.286 112.624 594.209 112.676 594.135L112.523 594.365ZM115.369 592.473C115.173 592.494 114.984 592.527 114.8 592.575L115.034 592.521C115.143 592.5 115.255 592.484 115.369 592.473ZM116.437 592.499C116.409 592.495 116.381 592.489 116.352 592.485C116.261 592.472 116.168 592.464 116.074 592.457C116.197 592.466 116.318 592.48 116.437 592.499ZM115.769 592.447C115.65 592.449 115.534 592.455 115.419 592.466C115.534 592.456 115.652 592.45 115.771 592.449C115.861 592.449 115.949 592.449 116.037 592.454C115.949 592.449 115.859 592.447 115.769 592.447ZM121.926 590.713C121.842 590.756 121.759 590.802 121.677 590.853C121.682 590.85 121.687 590.848 121.692 590.845C121.76 590.804 121.828 590.765 121.898 590.728C121.967 590.692 122.038 590.657 122.109 590.624C122.047 590.652 121.986 590.682 121.926 590.713ZM763.115 584.681L757.377 584.734L763.116 584.682L763.11 583.236L763.115 584.681ZM129.262 575.256C129.263 575.531 129.257 575.803 129.245 576.071C129.257 575.803 129.263 575.532 129.262 575.257C129.262 575.119 129.259 574.981 129.254 574.845V574.844C129.259 574.98 129.262 575.118 129.262 575.256ZM116.883 568.527C116.691 568.644 116.506 568.77 116.33 568.911C116.434 568.828 116.541 568.749 116.652 568.675C116.728 568.624 116.805 568.575 116.883 568.527ZM117.519 568.197C117.422 568.238 117.327 568.284 117.234 568.331C117.327 568.284 117.422 568.239 117.519 568.197ZM118.637 567.84C118.35 567.9 118.074 567.982 117.809 568.079C117.945 568.028 118.084 567.984 118.226 567.944L118.637 567.84ZM111.414 567.974L111.415 567.978L113.405 567.959L111.414 567.974ZM128.731 567.819L128.732 567.701L128.716 564.047L128.731 567.819ZM757.084 546.554C757.027 546.53 756.97 546.506 756.911 546.485C756.851 546.463 756.788 546.445 756.727 546.426C756.848 546.463 756.968 546.506 757.084 546.554ZM761.349 545.665C761.346 545.66 761.343 545.656 761.34 545.652C761.297 545.596 761.253 545.54 761.209 545.485C761.255 545.546 761.303 545.603 761.349 545.665ZM762.918 522.633C762.959 522.814 762.997 522.997 763.032 523.182C762.963 522.812 762.881 522.45 762.785 522.097L762.918 522.633ZM752.377 518.797C752.39 518.793 752.405 518.791 752.419 518.787L752.422 518.786C752.408 518.791 752.391 518.793 752.377 518.797ZM752.596 518.743C752.598 518.743 752.6 518.742 752.602 518.742C752.636 518.734 752.672 518.723 752.706 518.716L752.596 518.743ZM754.112 514.685C754.773 514.679 755.405 514.739 756.009 514.868C755.405 514.739 754.773 514.677 754.112 514.684V514.685ZM761.797 506.243C761.747 506.322 761.696 506.4 761.644 506.474L761.797 506.243C761.839 506.176 761.879 506.11 761.918 506.041L761.797 506.243ZM120.681 478.044C120.389 478.083 120.086 478.103 119.773 478.107L119.774 478.108C120.087 478.105 120.389 478.085 120.681 478.044ZM753.925 468.562C753.456 468.567 753.01 468.613 752.588 468.7C753.01 468.613 753.457 468.568 753.926 468.563L753.925 468.562ZM111.902 440.426C111.86 440.492 111.821 440.56 111.782 440.629L111.902 440.427C111.952 440.348 112.003 440.27 112.055 440.196L111.902 440.426ZM117.244 431.691C117.981 431.896 118.762 431.995 119.587 431.986V431.985C118.762 431.994 117.981 431.896 117.244 431.691ZM121.097 427.928C121.063 427.936 121.028 427.947 120.994 427.954L121.103 427.927C121.101 427.927 121.099 427.928 121.097 427.928ZM110.667 423.488C110.736 423.858 110.819 424.22 110.915 424.573L110.782 424.037C110.741 423.856 110.702 423.673 110.667 423.488ZM747.77 411.736V411.737L753.111 411.688L753.112 411.69L753.111 411.687L747.77 411.736ZM112.359 401.018C112.402 401.074 112.447 401.129 112.491 401.185C112.444 401.124 112.396 401.067 112.35 401.005C112.353 401.01 112.356 401.014 112.359 401.018ZM116.789 400.185C116.849 400.207 116.911 400.225 116.972 400.244C116.851 400.207 116.732 400.164 116.616 400.116C116.673 400.14 116.73 400.164 116.789 400.185ZM744.967 378.969L744.983 382.623L744.968 378.851L744.967 378.969ZM755.474 378.726C755.336 378.766 755.195 378.802 755.051 378.832L755.062 378.83C755.35 378.77 755.626 378.688 755.891 378.591C755.755 378.642 755.616 378.686 755.474 378.726ZM760.295 378.711L762.286 378.696L762.285 378.692L760.295 378.711ZM757.369 377.758C757.264 377.84 757.158 377.921 757.047 377.995C756.971 378.048 756.893 378.094 756.815 378.142C757.007 378.026 757.192 377.898 757.369 377.758ZM110.583 361.988L110.589 363.434L110.584 361.989L116.322 361.935L110.583 361.988ZM752.007 355.825C751.939 355.866 751.871 355.905 751.801 355.942C751.732 355.978 751.661 356.013 751.59 356.046C751.652 356.018 751.713 355.988 751.773 355.957C751.857 355.915 751.94 355.867 752.022 355.817C752.017 355.82 752.012 355.822 752.007 355.825ZM757.928 354.221C757.838 354.221 757.751 354.221 757.663 354.216C757.751 354.221 757.84 354.223 757.93 354.223C758.049 354.221 758.165 354.214 758.279 354.202C758.164 354.213 758.047 354.22 757.928 354.221ZM757.347 354.185C757.438 354.197 757.532 354.206 757.626 354.213C757.503 354.204 757.381 354.19 757.262 354.171C757.29 354.175 757.318 354.181 757.347 354.185ZM758.666 354.148C758.556 354.17 758.444 354.185 758.33 354.196C758.525 354.175 758.715 354.143 758.899 354.094L758.666 354.148ZM759.416 353.91C759.42 353.907 759.425 353.906 759.429 353.905C759.472 353.885 759.515 353.867 759.557 353.846L759.416 353.91ZM761.176 352.304C761.126 352.383 761.075 352.461 761.023 352.535L761.176 352.305C761.21 352.252 761.241 352.197 761.273 352.141C761.241 352.196 761.209 352.251 761.176 352.304ZM759.621 328.612L759.688 328.544C759.709 328.524 759.728 328.501 759.749 328.481L759.621 328.612ZM128.222 317.302L128.223 317.303C128.223 317.203 128.219 317.102 128.217 317.002C128.216 316.943 128.215 316.885 128.213 316.826C128.219 316.984 128.221 317.143 128.222 317.302ZM113.358 313.495C113.369 313.466 113.381 313.437 113.393 313.409C113.394 313.407 113.394 313.403 113.395 313.401L113.358 313.495ZM113.861 312.443C113.887 312.397 113.914 312.353 113.941 312.309C113.943 312.306 113.945 312.302 113.947 312.298C113.918 312.346 113.889 312.394 113.861 312.443ZM127.255 312.146C127.225 312.072 127.196 311.997 127.164 311.923C127.153 311.895 127.14 311.869 127.128 311.842C127.172 311.943 127.214 312.045 127.255 312.146ZM114.907 310.992C114.922 310.975 114.939 310.958 114.955 310.941C114.961 310.933 114.967 310.926 114.974 310.918C114.952 310.943 114.929 310.967 114.907 310.992ZM115.096 310.79C115.137 310.747 115.177 310.703 115.218 310.662H115.214C115.174 310.703 115.136 310.749 115.096 310.79ZM761.738 358.488V358.324L761.728 355.81L761.738 358.488ZM120.297 367.386C119.821 367.499 119.312 367.559 118.773 367.565L118.772 367.564L118.771 367.565C118.732 367.565 118.694 367.563 118.656 367.563C118.694 367.563 118.733 367.567 118.772 367.567C119.312 367.56 119.82 367.5 120.297 367.386ZM117.626 367.486C117.842 367.519 118.062 367.541 118.29 367.554C118.063 367.541 117.842 367.519 117.626 367.486ZM116.887 367.328C116.974 367.353 117.061 367.376 117.15 367.397C117.061 367.377 116.974 367.352 116.887 367.328ZM113.768 350.098C113.689 350.162 113.609 350.225 113.531 350.291C113.409 350.395 113.289 350.503 113.171 350.616C113.159 350.628 113.147 350.64 113.135 350.651C113.345 350.449 113.561 350.262 113.783 350.088L113.768 350.098ZM117.726 348.446C117.673 348.453 117.621 348.462 117.569 348.469C117.646 348.458 117.723 348.448 117.8 348.439C117.776 348.441 117.751 348.444 117.726 348.446ZM118.205 348.404C118.151 348.408 118.098 348.413 118.044 348.418C118.107 348.413 118.17 348.406 118.233 348.403L118.205 348.404ZM748.905 344.418C748.9 344.417 748.896 344.415 748.892 344.413C748.877 344.409 748.861 344.404 748.846 344.399C748.866 344.406 748.885 344.413 748.905 344.418ZM758.772 328.402L759.707 328.396L761.51 328.38L758.772 328.402ZM699.861 309.851L708.96 315.361L708.937 309.767L699.861 309.851ZM111.112 261.258L109.623 261.271L109.636 264.972L109.624 261.273L116.717 261.206L111.112 261.258ZM118.248 237.525L118.249 237.527C118.302 237.527 118.355 237.52 118.407 237.519C118.354 237.52 118.301 237.525 118.248 237.525ZM119.163 237.458C119.146 237.46 119.129 237.463 119.112 237.465C119.172 237.458 119.231 237.45 119.29 237.441C119.248 237.446 119.205 237.453 119.163 237.458ZM120.367 237.173C120.451 237.142 120.534 237.111 120.617 237.077C120.535 237.11 120.451 237.142 120.367 237.173ZM122.51 235.761C122.394 235.884 122.273 236 122.149 236.11C122.107 236.148 122.066 236.188 122.023 236.225L122.271 236.002C122.352 235.926 122.431 235.845 122.509 235.762L122.51 235.761ZM123.169 234.927C123.207 234.871 123.244 234.814 123.281 234.758C123.244 234.814 123.207 234.872 123.169 234.927ZM124.229 232.743L124.328 232.401C124.332 232.385 124.335 232.366 124.339 232.35C124.305 232.481 124.269 232.612 124.229 232.743ZM217.868 220.721L217.927 232.097L221.759 220.693L217.868 220.721ZM743.341 227.668C743.346 227.727 743.352 227.786 743.357 227.845C743.349 227.75 743.342 227.655 743.336 227.559C743.338 227.596 743.339 227.632 743.341 227.668ZM665.312 217.472L662.554 221.792L682.761 221.606L683.849 220.221L683.836 217.338L665.312 217.472ZM361.95 175.559L362.032 175.561L364.572 175.54L361.95 175.559ZM536.144 174.921L536.143 174.923C536.212 174.923 536.282 174.918 536.352 174.915C536.393 174.914 536.434 174.913 536.475 174.91C536.365 174.918 536.255 174.92 536.144 174.921ZM539.729 173.71C539.78 173.672 539.833 173.636 539.884 173.595C539.903 173.582 539.922 173.565 539.941 173.55C539.871 173.605 539.799 173.658 539.729 173.71ZM384.782 165.353L384.816 172.048H384.817L384.782 165.353ZM691.222 170.041C691.621 170.233 692.043 170.355 692.482 170.408C692.057 170.357 691.65 170.238 691.261 170.057C691.169 170.013 691.076 169.966 690.984 169.915L691.222 170.041ZM700.293 167.331C700.24 167.495 700.184 167.661 700.126 167.821C700.185 167.66 700.241 167.495 700.294 167.33C700.305 167.294 700.315 167.257 700.326 167.22C700.314 167.257 700.304 167.294 700.293 167.331ZM688.719 167.461C688.772 167.563 688.827 167.664 688.885 167.762L688.886 167.763C688.8 167.617 688.72 167.465 688.643 167.309C688.617 167.257 688.589 167.205 688.563 167.151L688.719 167.461ZM346.093 167.259C346.073 167.181 346.052 167.105 346.03 167.031C346.028 167.022 346.025 167.013 346.022 167.006C346.046 167.089 346.071 167.174 346.093 167.259ZM504.066 152.82L505.071 152.814L505.145 167.145L505.072 152.813L504.066 152.82ZM345.938 166.737C345.962 166.807 345.983 166.878 346.005 166.949C345.982 166.871 345.959 166.793 345.933 166.717C345.935 166.723 345.937 166.731 345.938 166.737ZM700.534 166.471C700.568 166.334 700.599 166.196 700.63 166.056L700.643 165.99C700.609 166.152 700.573 166.312 700.534 166.471ZM424.329 164.332C424.331 164.724 424.346 165.103 424.374 165.469L424.342 164.91C424.335 164.72 424.331 164.527 424.33 164.331L424.329 164.332ZM597.236 163.077C597.24 163.708 597.278 164.305 597.348 164.867C597.279 164.305 597.241 163.708 597.237 163.078V163.075C597.237 162.989 597.239 162.903 597.239 162.818C597.238 162.903 597.236 162.99 597.236 163.077ZM700.994 162.323C700.998 163.049 700.962 163.746 700.89 164.416C700.942 163.936 700.976 163.44 700.989 162.931L700.995 162.322C700.994 162.185 700.989 162.048 700.986 161.913C700.989 162.05 700.993 162.186 700.994 162.323ZM456.528 161.722C456.438 162.479 456.395 163.27 456.399 164.099H456.4C456.396 163.27 456.438 162.479 456.528 161.722ZM687.699 163.483C687.705 163.569 687.71 163.653 687.718 163.736C687.713 163.679 687.71 163.624 687.706 163.568C687.704 163.54 687.702 163.511 687.699 163.483ZM361.862 162.391C361.89 162.564 361.915 162.74 361.936 162.921L361.935 162.907C361.893 162.547 361.836 162.201 361.769 161.869C361.804 162.039 361.834 162.214 361.862 162.391ZM610.562 162.41L610.561 162.366C610.557 162.259 610.55 162.152 610.545 162.048C610.551 162.168 610.558 162.288 610.562 162.41ZM610.532 161.812C610.531 161.797 610.531 161.781 610.53 161.764C610.525 161.685 610.518 161.606 610.512 161.528C610.519 161.623 610.526 161.717 610.532 161.812ZM700.956 161.197C700.954 161.168 700.954 161.139 700.952 161.11C700.947 161.031 700.938 160.953 700.932 160.875C700.941 160.982 700.949 161.089 700.956 161.197ZM478.512 160.59C478.497 160.664 478.483 160.742 478.47 160.819C478.496 160.668 478.527 160.519 478.56 160.374C478.543 160.445 478.527 160.516 478.512 160.59ZM361.177 159.989C361.24 160.128 361.299 160.271 361.354 160.418C361.39 160.511 361.423 160.607 361.456 160.702C361.372 160.455 361.28 160.216 361.177 159.989ZM668.574 151.625L671.146 151.61L671.193 160.5L671.157 153.476L671.147 151.607L668.574 151.625ZM344.789 160.15C344.791 160.115 344.796 160.079 344.799 160.043C344.807 159.929 344.813 159.812 344.817 159.695C344.811 159.848 344.802 160 344.789 160.15ZM700.854 160.083C700.849 160.038 700.845 159.993 700.839 159.947C700.834 159.912 700.828 159.878 700.823 159.843C700.834 159.922 700.844 160.003 700.854 160.083ZM344.823 159.315C344.823 159.428 344.824 159.538 344.82 159.649C344.824 159.538 344.824 159.425 344.824 159.312C344.823 159.16 344.817 159.011 344.809 158.864C344.817 159.011 344.822 159.161 344.823 159.315ZM700.781 159.557C700.772 159.5 700.765 159.444 700.756 159.389C700.75 159.357 700.743 159.327 700.738 159.296C700.753 159.382 700.767 159.47 700.781 159.557ZM700.682 158.997C700.672 158.945 700.664 158.894 700.654 158.843C700.651 158.826 700.647 158.811 700.643 158.795C700.657 158.861 700.669 158.929 700.682 158.997ZM344.807 158.814C344.805 158.772 344.804 158.731 344.801 158.689L344.773 158.392C344.788 158.529 344.799 158.669 344.807 158.814ZM540.761 158.622V158.616C540.732 158.566 540.701 158.519 540.672 158.468C540.702 158.52 540.732 158.57 540.761 158.622ZM700.534 158.309C700.557 158.403 700.576 158.497 700.597 158.593C700.537 158.32 700.472 158.053 700.397 157.79L700.534 158.309ZM540.568 158.293C540.573 158.299 540.578 158.306 540.583 158.315C540.566 158.288 540.549 158.26 540.531 158.232C540.544 158.251 540.555 158.272 540.568 158.293ZM230.827 158.256L230.823 157.087L230.812 154.826L230.827 158.256ZM609.215 156.442C609.34 156.703 609.457 156.972 609.565 157.247C609.507 157.097 609.447 156.95 609.384 156.805C609.339 156.705 609.295 156.605 609.249 156.508C609.238 156.486 609.226 156.464 609.215 156.442ZM327.016 157.195L326.969 157.108C326.955 157.085 326.941 157.062 326.928 157.037L327.016 157.195ZM539.615 157.022C539.618 157.024 539.621 157.027 539.623 157.029C539.59 156.993 539.557 156.956 539.523 156.921C539.554 156.954 539.585 156.988 539.615 157.022ZM700.069 156.793L699.914 156.403C699.909 156.391 699.904 156.381 699.899 156.37C699.958 156.511 700.015 156.65 700.069 156.793ZM361.839 153.855L361.852 156.35L361.842 153.854L361.839 153.855ZM538.851 156.335C538.853 156.336 538.855 156.336 538.857 156.337L538.791 156.291C538.811 156.305 538.832 156.32 538.851 156.335ZM609.124 156.26C609.09 156.192 609.058 156.123 609.022 156.056C609.014 156.041 609.005 156.026 608.997 156.011C609.041 156.093 609.082 156.177 609.124 156.26ZM477.933 155.039C477.894 155.092 477.856 155.15 477.818 155.205C477.86 155.146 477.899 155.086 477.942 155.028C477.939 155.032 477.936 155.035 477.933 155.039ZM450.53 154.466C450.585 154.529 450.639 154.592 450.691 154.657L450.53 154.466C450.484 154.414 450.438 154.364 450.39 154.316L450.53 154.466ZM265.602 154.552L267.463 154.539H267.349L265.602 154.552ZM462.308 152.918C462.05 153.005 461.799 153.108 461.554 153.228L461.927 153.061C462.053 153.011 462.18 152.962 462.308 152.918ZM463.099 152.71C462.965 152.736 462.831 152.768 462.7 152.801C462.964 152.732 463.234 152.68 463.509 152.645C463.371 152.662 463.234 152.683 463.099 152.71ZM696.783 152.167C696.896 152.249 697.009 152.338 697.119 152.431C696.898 152.246 696.672 152.078 696.439 151.928L696.783 152.167ZM695.72 151.528C695.843 151.587 695.965 151.648 696.085 151.714C695.846 151.582 695.601 151.467 695.349 151.366L695.72 151.528ZM339.234 744.912C339.236 744.919 339.238 744.926 339.239 744.932C339.263 745.003 339.284 745.073 339.305 745.145C339.283 745.067 339.26 744.989 339.234 744.912ZM602.424 734.455C602.39 734.387 602.358 734.318 602.322 734.252C602.314 734.237 602.305 734.222 602.297 734.206C602.341 734.288 602.382 734.372 602.424 734.455Z" fill="black"/>
</svg>
