<svg width="555" height="658" viewBox="0 0 555 658" fill="none" xmlns="http://www.w3.org/2000/svg">
<path d="M101.053 17.5709L120.02 46.3382C120.1 46.3367 120.182 46.3322 120.263 46.3317L120.892 46.3372C121.811 46.3591 122.734 46.4426 123.653 46.5863L124.137 46.5844L124.981 46.5779L125.587 44.9681L128.062 46.5593L128.207 46.5583C129.341 46.3676 130.476 46.2695 131.602 46.2626L132.271 46.2691C133.176 46.2921 134.09 46.3745 135.003 46.5163L178.295 46.2515C179.438 46.0577 180.559 45.9644 181.642 45.9577L182.378 45.9661C183.192 45.9896 184.083 46.0625 185.027 46.2104L186.857 46.2002L187.537 46.1955L199.779 46.1209C200.9 45.9313 202.034 45.8322 203.175 45.8252L203.417 45.828L225.891 10.8223L226.099 45.0092L248.135 10.6853L248.349 45.8243L248.42 45.8225L260.052 45.7515L268.539 45.6994C269.684 45.5084 270.837 45.4107 271.986 45.4037L272.567 45.4084C273.522 45.4279 274.48 45.5101 275.434 45.6573L283.328 45.6098H283.331L283.943 45.606L283.944 45.6145C285.135 45.6419 286.585 45.778 288.184 46.1517C290.161 45.5708 292.176 45.2808 294.184 45.2684L294.766 45.2722C296.138 45.3003 297.516 45.4591 298.885 45.7534L298.882 45.5147L299.323 45.5119L299.931 43.9012L302.404 45.4923H302.546C303.68 45.3013 304.816 45.2026 305.944 45.1957C307.071 45.1888 308.213 45.2723 309.356 45.4503L317.538 45.4009L346.188 8.33593L346.353 35.4599L347.611 33.6403L347.468 10.0781L355.491 22.2472L362.444 12.1952L362.57 32.9827L363.983 35.126L380.193 9.87761L380.405 44.8329C381.066 44.7685 381.728 44.7325 382.389 44.7285L382.972 44.7322C383.926 44.7517 384.883 44.8349 385.837 44.9821L386.929 44.9756L386.93 45.1798C387.091 45.2131 387.251 45.2473 387.411 45.2843L388.134 43.3621L390.637 44.9718C391.809 44.768 392.983 44.6638 394.148 44.6567C395.274 44.6498 396.414 44.733 397.554 44.9103L404.922 44.8655L412.129 44.8207L440.778 7.75676L441.002 44.389C441.861 44.4182 442.723 44.4964 443.583 44.6295H443.611L452.081 44.5774L453.697 44.568L454.224 44.5643L466.62 44.4888C467.739 44.2992 468.874 44.1992 470.015 44.1921C470.096 44.1917 470.178 44.1945 470.258 44.195L492.732 9.18929L492.945 44.3274L493.924 44.3218H493.996L495 44.3152C496.12 44.1257 497.254 44.0257 498.395 44.0187C498.476 44.0182 498.557 44.021 498.637 44.0215L521.112 9.01582L521.325 44.1539L523.001 44.1437L523.022 47.7772L552.889 47.5627L523.159 70.2697L523.226 81.384L553.062 81.1704L521.695 105.127L521.899 138.582L519.973 135.593L520.053 151.085L517.022 151.107L517.033 153.229L517.094 165.112L554.031 198.964L519.513 199.211L516.908 205.757C517.001 206.163 517.086 206.569 517.162 206.977L523.648 206.931L523.687 214.657L553.75 214.44L527.089 234.802L528.264 235.74L552.864 235.563L540.473 245.486L550.159 253.219L530.641 253.358L517.917 263.549C517.888 264.723 517.787 265.905 517.62 267.087L517.673 277.126L554.609 310.977L517.665 311.242C518.02 313.086 518.199 314.949 518.209 316.801C518.221 319.128 517.967 321.47 517.435 323.772C517.786 325.626 517.923 327.376 517.937 328.934H517.94L517.99 338.633C518.217 340.115 518.337 341.605 518.344 343.088C518.352 344.576 518.249 346.069 518.037 347.554L518.158 371.084L554.557 370.822L519.74 397.414L554.692 397.163L518.763 424.607C518.77 426.077 518.665 427.534 518.456 428.969L518.53 443.514L522.553 445.673L521.03 447.552L524.898 449.349L524.906 450.981L546.323 460.539L529.088 469.214L525.052 479.354L525.177 503.558L525.307 528.618L551.689 549.678L536.129 549.79L532.178 574.79L548.959 582.922L523.208 596.016L523.352 619.739L521.677 619.749L521.899 656.194L503.054 626.942C500.013 628.67 496.747 629.87 493.362 630.54L493.518 656.368L476.208 629.493C472.236 628.174 468.476 626.068 465.133 623.128L434.479 623.317L434.461 620.283L432.669 620.294L422.634 620.355L394.047 657.337L393.839 622.777L388.312 620.169C387.969 620.261 387.626 620.345 387.282 620.422L387.32 626.916L380.795 626.955L380.98 657.056L363.784 630.363L362.993 631.538L363.142 656.169L354.762 643.763L348.233 653.461L348.115 633.918L339.509 621.178C338.517 621.149 337.518 621.049 336.52 620.882L328.044 620.934L299.459 657.917L299.234 620.927C297.678 621.281 296.104 621.461 294.54 621.47C292.575 621.483 290.597 621.229 288.654 620.696C287.086 621.047 285.61 621.185 284.295 621.199V621.202L276.104 621.252C274.853 621.479 273.594 621.599 272.342 621.607C271.085 621.615 269.825 621.511 268.571 621.299L248.701 621.42L248.923 657.863L226.466 623.003L226.678 658L203.504 622.026C202.262 622.033 201.032 621.928 199.819 621.719L187.537 621.793L185.715 625.821L184.127 624.295L182.611 628.168L181.233 628.176L173.161 649.62L165.836 632.363L157.272 628.323L136.833 628.449L115.67 628.578L97.8879 654.993L97.7924 639.413L94.4148 635.458L87.5478 652.259L78.2801 630.651C76.3991 630.988 74.484 631.165 72.5519 631.179C64.0911 631.24 55.7484 628.243 49.2377 621.812L49.1547 621.729C44.5589 617.144 41.6834 611.628 40.3889 605.793L1.0828 597.293L26.7062 584.034L0 549.986L17.5485 545.928L46.2804 523.469C46.279 523.373 46.2743 523.277 46.2738 523.18L46.2794 522.435C46.3012 521.347 46.3849 520.255 46.5284 519.167L46.5256 518.592L46.52 517.594L44.9121 516.875L46.5014 513.945L46.5004 513.773C46.3101 512.431 46.2117 511.086 46.2049 509.753L46.2113 508.961C46.2343 507.889 46.3168 506.807 46.4585 505.725L46.1936 454.458C46.0001 453.105 45.9065 451.777 45.8998 450.495L45.9082 449.625C45.9317 448.659 46.0048 447.605 46.1526 446.486L46.1423 444.319L46.1376 443.514L46.063 429.017C45.8736 427.691 45.7744 426.347 45.7675 424.996L45.7702 424.709L10.8084 398.095L44.9532 397.849L10.6722 371.754L45.7665 371.501L45.7655 371.416L45.6947 357.643L45.6424 347.592C45.4517 346.235 45.3538 344.87 45.3468 343.51L45.3514 342.822C45.371 341.691 45.4533 340.556 45.6004 339.426L45.5529 330.078V330.075L45.5491 329.35L45.5575 329.349C45.5849 327.938 45.7206 326.221 46.0938 324.329C45.5137 321.988 45.2239 319.6 45.2115 317.222L45.2153 316.534C45.2433 314.909 45.4025 313.277 45.6965 311.656L45.4577 311.659L45.455 311.137L43.8461 310.419L45.4354 307.489V307.321C45.2446 305.978 45.1458 304.632 45.1388 303.297C45.1319 301.962 45.2156 300.61 45.3934 299.256L45.344 289.567L8.32567 255.639L35.4151 255.444L33.5984 253.954L10.0651 254.124L22.2192 244.622L12.1803 236.389L32.9418 236.239L35.0822 234.567L9.86548 215.372L44.7769 215.12C44.7125 214.337 44.6765 213.553 44.6725 212.769L44.6762 212.081C44.6957 210.951 44.7791 209.817 44.9262 208.688L44.9197 207.394L45.1229 207.392C45.156 207.203 45.1906 207.013 45.2274 206.823L43.3081 205.967L44.9159 203.003C44.7122 201.616 44.6079 200.225 44.6007 198.845C44.5938 197.512 44.6772 196.163 44.8544 194.811L44.8096 186.086L44.7648 177.552L7.74743 143.626L44.333 143.361C44.3622 142.343 44.4406 141.322 44.5737 140.304V140.271L44.5214 130.24L44.5121 128.326L44.5084 127.703L44.4328 113.024C44.2434 111.698 44.1441 110.354 44.1371 109.002C44.1367 108.907 44.1394 108.811 44.14 108.716L9.1781 82.1021L44.2724 81.8493L44.2659 80.69V80.6052L44.2594 79.416C44.0699 78.0902 43.9707 76.747 43.9637 75.3955C43.9632 75.2999 43.966 75.2038 43.9665 75.1082L9.00463 48.4944L44.0989 48.2417L44.0886 46.2579L57.7378 46.1591C60.9334 43.3064 64.5071 41.4198 68.2346 40.4393L75.4123 1.08373L86.6086 26.7397L97.6272 0L101.053 17.5709ZM136.937 622.102L136.973 628.105L139.42 622.087L136.937 622.102ZM120.808 599.258C120.723 599.263 120.636 599.265 120.548 599.266C120.466 599.267 120.384 599.264 120.304 599.26C120.383 599.264 120.465 599.267 120.547 599.267C120.635 599.266 120.722 599.263 120.807 599.258C120.888 599.254 120.966 599.246 121.043 599.237C120.966 599.246 120.888 599.253 120.808 599.258ZM120.249 599.258C120.254 599.258 120.258 599.258 120.264 599.258C120.207 599.255 120.149 599.249 120.093 599.244C120.145 599.249 120.196 599.255 120.249 599.258ZM120.009 599.237C120.032 599.239 120.055 599.239 120.077 599.242C120.03 599.237 119.982 599.232 119.936 599.225C119.96 599.228 119.984 599.234 120.009 599.237ZM119.783 599.203C119.808 599.207 119.833 599.21 119.858 599.214C119.821 599.208 119.784 599.201 119.746 599.195C119.758 599.196 119.77 599.2 119.783 599.203ZM131.666 599.192C131.747 599.195 131.828 599.196 131.91 599.196C131.816 599.196 131.723 599.194 131.632 599.189C131.643 599.19 131.655 599.191 131.666 599.192ZM131.428 599.175C131.467 599.179 131.508 599.18 131.547 599.183C131.481 599.178 131.415 599.173 131.349 599.167C131.376 599.17 131.402 599.174 131.428 599.175ZM121.712 599.108C121.736 599.101 121.761 599.096 121.784 599.089C121.84 599.072 121.893 599.052 121.948 599.033C121.87 599.06 121.792 599.086 121.712 599.108ZM119.296 599.082C119.327 599.091 119.359 599.099 119.39 599.109C119.42 599.117 119.449 599.126 119.479 599.133C119.494 599.138 119.512 599.142 119.528 599.146C119.381 599.109 119.237 599.064 119.098 599.009C119.163 599.035 119.229 599.06 119.296 599.082ZM130.965 599.109C130.976 599.111 130.985 599.112 130.996 599.114C130.91 599.098 130.825 599.08 130.74 599.058L130.965 599.109ZM118.992 598.966C118.995 598.967 119 598.968 119.003 598.969C118.984 598.961 118.965 598.953 118.947 598.944C118.962 598.951 118.977 598.96 118.992 598.966ZM182.427 598.84C182.299 598.857 182.169 598.87 182.034 598.878C182.053 598.877 182.072 598.877 182.091 598.876C182.206 598.868 182.318 598.855 182.427 598.84ZM182.444 598.838C182.459 598.836 182.473 598.834 182.489 598.833C182.554 598.823 182.617 598.812 182.679 598.8C182.602 598.814 182.523 598.827 182.444 598.838ZM203.161 598.755C203.236 598.758 203.314 598.759 203.39 598.759C203.234 598.76 203.08 598.752 202.93 598.738C203.006 598.746 203.084 598.751 203.161 598.755ZM225.392 598.619C225.471 598.622 225.553 598.624 225.635 598.623C225.672 598.623 225.71 598.621 225.748 598.619L225.634 598.622C225.47 598.623 225.311 598.617 225.154 598.601L225.392 598.619ZM224.693 598.53C224.735 598.538 224.777 598.545 224.819 598.553L224.691 598.529C224.675 598.525 224.658 598.52 224.641 598.516C224.659 598.52 224.676 598.526 224.693 598.53ZM226.665 598.478C226.704 598.467 226.743 598.455 226.783 598.443L226.786 598.441C226.746 598.453 226.705 598.467 226.665 598.478ZM226.874 598.411C226.878 598.41 226.881 598.409 226.885 598.409C226.907 598.4 226.929 598.391 226.952 598.383C226.983 598.37 227.015 598.358 227.046 598.344C226.99 598.368 226.932 598.391 226.874 598.411ZM271.853 598.329C271.869 598.33 271.885 598.329 271.902 598.33C271.847 598.326 271.793 598.324 271.739 598.32C271.777 598.323 271.816 598.326 271.853 598.329ZM274.914 597.481C274.267 597.95 273.534 598.227 272.711 598.311C272.721 598.31 272.731 598.31 272.74 598.309C273.551 598.222 274.275 597.945 274.914 597.481ZM117.401 597.689C117.487 597.801 117.575 597.909 117.666 598.009C117.749 598.099 117.835 598.182 117.921 598.262L117.92 598.261C117.729 598.084 117.549 597.883 117.378 597.658C117.386 597.668 117.393 597.679 117.401 597.689ZM223.617 598.13C223.659 598.153 223.702 598.173 223.744 598.194C223.69 598.167 223.637 598.138 223.583 598.11C223.595 598.116 223.606 598.123 223.617 598.13ZM227.548 598.086C227.557 598.08 227.567 598.075 227.574 598.07C227.584 598.064 227.593 598.057 227.602 598.051C227.585 598.063 227.566 598.074 227.548 598.086ZM306.869 598.086C306.893 598.082 306.917 598.08 306.939 598.076C306.955 598.073 306.97 598.07 306.985 598.067C306.947 598.073 306.908 598.08 306.869 598.086ZM413.312 597.941L414.958 595.815L415.738 594.804L413.312 597.941ZM357.211 597.794C357.345 597.807 357.48 597.813 357.618 597.814H357.691C357.496 597.816 357.306 597.804 357.119 597.781C357.15 597.785 357.18 597.791 357.211 597.794ZM357.958 597.804C357.963 597.803 357.967 597.804 357.971 597.804C358.045 597.798 358.119 597.792 358.191 597.782C358.114 597.792 358.036 597.798 357.958 597.804ZM356.851 597.74C356.893 597.749 356.935 597.757 356.978 597.764C357.008 597.769 357.037 597.771 357.067 597.774C356.99 597.765 356.915 597.751 356.84 597.737C356.843 597.738 356.847 597.74 356.851 597.74ZM370.892 597.734L371.114 597.729C371.119 597.728 371.124 597.726 371.128 597.726C371.051 597.73 370.972 597.734 370.892 597.734ZM356.751 597.721C356.761 597.723 356.773 597.725 356.783 597.727C356.696 597.708 356.611 597.689 356.526 597.665L356.751 597.721ZM228.253 597.52C228.193 597.58 228.132 597.639 228.07 597.694L228.254 597.521C228.314 597.46 228.374 597.396 228.431 597.331L228.253 597.52ZM369.964 597.637C370.008 597.646 370.053 597.656 370.098 597.665C370.027 597.651 369.957 597.636 369.887 597.619C369.913 597.625 369.939 597.631 369.964 597.637ZM382.346 597.658C382.431 597.662 382.517 597.664 382.604 597.663L382.333 597.657C382.337 597.658 382.341 597.658 382.346 597.658ZM355.88 597.426C355.895 597.433 355.91 597.439 355.925 597.447C355.98 597.472 356.036 597.496 356.092 597.518L355.88 597.426ZM285.985 597.413C285.985 597.413 285.981 597.415 285.98 597.416L285.987 597.412L285.985 597.413ZM384.351 597.338C384.363 597.334 384.376 597.33 384.388 597.326C384.419 597.313 384.448 597.299 384.478 597.286C384.436 597.305 384.394 597.322 384.351 597.338ZM355.645 597.304C355.654 597.309 355.664 597.315 355.673 597.321C355.676 597.323 355.679 597.324 355.683 597.326C355.669 597.318 355.656 597.31 355.644 597.303L355.645 597.304ZM396.137 597.255C396.14 597.253 396.141 597.253 396.144 597.252C396.148 597.25 396.151 597.248 396.155 597.246C396.149 597.249 396.143 597.252 396.137 597.255ZM355.472 597.204C355.489 597.215 355.507 597.224 355.525 597.235C355.497 597.218 355.467 597.2 355.439 597.182C355.45 597.19 355.46 597.198 355.472 597.204ZM396.243 597.207C396.248 597.204 396.254 597.202 396.26 597.199C396.263 597.199 396.265 597.196 396.268 597.195C396.26 597.199 396.251 597.202 396.243 597.207ZM374.255 595.976C374.204 596.049 374.15 596.118 374.097 596.186C374.15 596.118 374.204 596.048 374.256 595.975L374.255 595.976ZM284.628 596.04C284.478 596.087 284.308 596.122 284.116 596.143C283.965 596.16 283.799 596.171 283.622 596.172C283.979 596.169 284.282 596.136 284.534 596.07L284.628 596.04ZM308.236 595.524C308.228 595.532 308.219 595.54 308.211 595.547C308.15 595.608 308.088 595.667 308.023 595.72C308.096 595.66 308.167 595.594 308.236 595.524ZM304.303 595.532C304.34 595.57 304.378 595.607 304.417 595.643C304.357 595.587 304.298 595.527 304.24 595.466L304.303 595.532ZM353.884 595.593C353.894 595.61 353.906 595.627 353.916 595.643C353.893 595.606 353.869 595.569 353.847 595.532C353.859 595.553 353.871 595.573 353.884 595.593ZM291.863 595.177L291.87 595.186C291.865 595.181 291.863 595.175 291.859 595.169C291.86 595.171 291.862 595.175 291.863 595.177ZM291.453 594.533C291.443 594.515 291.436 594.495 291.426 594.476C291.422 594.467 291.417 594.459 291.414 594.45C291.426 594.478 291.438 594.505 291.453 594.533ZM269.002 594.034C269.031 594.126 269.061 594.218 269.096 594.308L269.097 594.309C269.062 594.219 269.031 594.127 269.002 594.034ZM291.247 594.038C291.245 594.029 291.241 594.019 291.238 594.01C291.231 593.991 291.226 593.972 291.221 593.954C291.217 593.944 291.212 593.934 291.209 593.924C291.221 593.963 291.234 594.001 291.247 594.038ZM277.105 594.032C277.12 593.964 277.135 593.897 277.148 593.829C277.152 593.81 277.154 593.79 277.158 593.771C277.142 593.859 277.124 593.946 277.105 594.032ZM287.222 593.725C287.222 593.725 287.222 593.722 287.221 593.72C287.218 593.706 287.215 593.691 287.211 593.675L287.209 593.672C287.213 593.689 287.218 593.707 287.222 593.725ZM277.23 593.279C277.232 593.265 277.234 593.249 277.235 593.235C277.238 593.206 277.24 593.176 277.243 593.147C277.238 593.191 277.234 593.235 277.23 593.279ZM218.183 592.764C218.311 592.911 218.424 593.066 218.522 593.231L218.481 593.16C218.444 593.102 218.405 593.046 218.364 592.991C218.308 592.912 218.247 592.838 218.183 592.764ZM375.372 593.202C375.387 593.108 375.401 593.013 375.415 592.917C375.416 592.904 375.417 592.89 375.418 592.878C375.404 592.987 375.39 593.095 375.372 593.202ZM290.986 592.709C290.993 592.804 291.003 592.898 291.014 592.991C291.011 592.965 291.009 592.939 291.006 592.913C291.001 592.868 290.997 592.824 290.993 592.778C290.992 592.755 290.989 592.732 290.986 592.709ZM277.26 592.946C277.261 592.94 277.262 592.933 277.262 592.928C277.27 592.824 277.276 592.719 277.278 592.613C277.275 592.725 277.268 592.836 277.26 592.946ZM353.009 592.805C353.011 592.825 353.014 592.844 353.016 592.863C353.006 592.77 352.996 592.677 352.989 592.583C352.995 592.657 353.001 592.732 353.009 592.805ZM375.43 592.778C375.436 592.728 375.443 592.677 375.448 592.627C375.452 592.587 375.453 592.546 375.457 592.506C375.449 592.597 375.44 592.688 375.43 592.778ZM352.98 592.471C352.981 592.487 352.983 592.505 352.984 592.522C352.977 592.42 352.972 592.318 352.967 592.214C352.971 592.301 352.973 592.386 352.98 592.471ZM290.966 592.209C290.966 592.298 290.969 592.385 290.972 592.471C290.972 592.465 290.971 592.459 290.971 592.453C290.968 592.373 290.967 592.292 290.967 592.208L290.966 592.209ZM310.684 592.443L310.685 592.443V592.305L310.686 592.304C310.686 592.298 310.685 592.292 310.685 592.285L310.684 592.443ZM286.131 591.985C286.275 592.09 286.407 592.211 286.529 592.347C286.488 592.301 286.447 592.256 286.404 592.214C286.318 592.131 286.227 592.055 286.131 591.985ZM123.328 592.162C123.331 592.177 123.334 592.193 123.336 592.208C123.33 592.173 123.326 592.137 123.319 592.102L123.328 592.162ZM352.962 592.127C352.962 592.137 352.963 592.147 352.963 592.157C352.958 592.032 352.955 591.904 352.954 591.775C352.955 591.894 352.957 592.012 352.962 592.127ZM123.309 592.052C123.298 591.997 123.29 591.943 123.277 591.89C123.271 591.865 123.265 591.839 123.258 591.814C123.277 591.892 123.293 591.972 123.309 592.052ZM123.23 591.707C123.22 591.666 123.211 591.624 123.2 591.583L123.186 591.542C123.203 591.596 123.216 591.652 123.23 591.707ZM285.315 591.582C285.431 591.617 285.544 591.659 285.652 591.707C285.545 591.659 285.432 591.616 285.316 591.581L285.315 591.582ZM379.18 591.245C379.174 591.382 379.169 591.525 379.17 591.67L379.171 591.669C379.171 591.524 379.174 591.382 379.18 591.245ZM246.882 591.355C247.077 591.423 247.259 591.506 247.427 591.604L247.428 591.603C247.26 591.505 247.078 591.423 246.882 591.355ZM246.049 591.16C246.043 591.159 246.037 591.159 246.031 591.158C246 591.154 245.971 591.149 245.939 591.146C245.977 591.149 246.013 591.155 246.049 591.16ZM122.962 590.944C122.994 591.014 123.025 591.084 123.055 591.157C123.023 591.078 122.99 591 122.954 590.925L122.962 590.944ZM283.687 591.115C283.646 591.123 283.603 591.129 283.56 591.134C283.554 591.135 283.547 591.137 283.542 591.137C283.591 591.132 283.64 591.124 283.687 591.115ZM283.943 591.048C283.938 591.049 283.933 591.052 283.927 591.053C283.921 591.056 283.914 591.058 283.907 591.061C283.946 591.048 283.985 591.035 284.021 591.02L284.022 591.019C283.996 591.03 283.969 591.039 283.943 591.048ZM200.59 590.94C200.593 590.931 200.597 590.922 200.601 590.913C200.612 590.874 200.623 590.837 200.635 590.8C200.62 590.846 200.603 590.892 200.59 590.94ZM291.091 590.859C291.087 590.877 291.085 590.894 291.081 590.913C291.086 590.888 291.09 590.863 291.096 590.839L291.091 590.859ZM200.87 590.222C200.786 590.388 200.712 590.565 200.65 590.751L200.67 590.696C200.736 590.509 200.813 590.332 200.9 590.166L200.87 590.222ZM284.538 590.61L284.559 590.585C284.573 590.564 284.585 590.541 284.598 590.519C284.58 590.55 284.559 590.58 284.538 590.61ZM360.933 590.491L360.905 590.355C360.89 590.284 360.872 590.214 360.855 590.147C360.885 590.258 360.91 590.374 360.933 590.491ZM217.929 590.449C217.933 590.435 217.938 590.421 217.941 590.406C217.947 590.375 217.95 590.342 217.956 590.31C217.949 590.357 217.939 590.403 217.929 590.449ZM228.599 590.378C228.573 590.318 228.546 590.257 228.518 590.199C228.505 590.173 228.491 590.148 228.478 590.123C228.521 590.205 228.562 590.29 228.599 590.378ZM217.963 590.271C217.964 590.259 217.967 590.249 217.968 590.237C217.974 590.193 217.978 590.149 217.983 590.104C217.977 590.16 217.971 590.216 217.963 590.271ZM122.353 590.017C122.384 590.052 122.416 590.086 122.446 590.123L122.324 589.982C122.303 589.959 122.281 589.936 122.26 589.914C122.292 589.947 122.322 589.982 122.353 590.017ZM269.215 590.015C269.208 590.028 269.203 590.043 269.197 590.055C269.23 589.983 269.264 589.913 269.3 589.844L269.215 590.015ZM310.344 589.528C310.343 589.525 310.344 589.52 310.343 589.517C310.32 589.442 310.296 589.368 310.273 589.296C310.298 589.371 310.32 589.449 310.344 589.528ZM269.725 589.221C269.729 589.216 269.733 589.214 269.737 589.209V589.207C269.733 589.212 269.729 589.216 269.725 589.221ZM310.264 589.272C310.263 589.27 310.263 589.267 310.262 589.264C310.25 589.228 310.236 589.192 310.224 589.155C310.215 589.131 310.206 589.109 310.197 589.085C310.22 589.147 310.243 589.209 310.264 589.272ZM373.025 588.907C373.057 588.955 373.087 589.004 373.117 589.053L373.017 588.893C373.019 588.897 373.022 588.902 373.025 588.907ZM180.71 588.856C180.658 588.884 180.605 588.914 180.555 588.946C180.536 588.959 180.517 588.972 180.499 588.984C180.584 588.928 180.67 588.877 180.758 588.833C180.779 588.823 180.801 588.813 180.823 588.802C180.785 588.819 180.747 588.836 180.71 588.856ZM273.93 588.606C274.006 588.662 274.083 588.72 274.156 588.783C274.112 588.746 274.067 588.707 274.022 588.672C273.991 588.649 273.961 588.628 273.93 588.606ZM270.387 588.606C270.344 588.637 270.301 588.669 270.258 588.703C270.304 588.667 270.351 588.633 270.397 588.599L270.387 588.606ZM226.607 588.464C226.647 588.477 226.687 588.492 226.726 588.506C226.744 588.513 226.762 588.518 226.781 588.526C226.741 588.51 226.701 588.495 226.661 588.481C226.644 588.475 226.625 588.47 226.607 588.464ZM273.688 588.45L273.597 588.397C273.567 588.381 273.537 588.367 273.506 588.352C273.567 588.383 273.628 588.414 273.688 588.45ZM271.165 588.207C271.005 588.261 270.851 588.328 270.701 588.41C270.802 588.355 270.905 588.307 271.011 588.264C271.061 588.244 271.113 588.224 271.165 588.207ZM225.914 588.336C226.013 588.341 226.11 588.35 226.206 588.365L226.067 588.346C226.017 588.342 225.965 588.338 225.914 588.336ZM228.028 587.453C228.276 587.669 228.506 587.925 228.719 588.221L228.72 588.222C228.507 587.926 228.276 587.669 228.028 587.453C227.993 587.423 227.959 587.395 227.924 587.367L228.028 587.453ZM296.712 586.752C296.666 586.727 296.62 586.7 296.574 586.674C296.526 586.649 296.477 586.626 296.429 586.603L296.425 586.602C296.522 586.649 296.618 586.699 296.712 586.752ZM284.422 586.59C284.407 586.586 284.392 586.581 284.377 586.578C284.357 586.573 284.337 586.57 284.317 586.566C284.352 586.573 284.388 586.581 284.422 586.59ZM283.943 586.513C284.058 586.524 284.169 586.539 284.276 586.559C284.217 586.547 284.155 586.535 284.093 586.526C284.09 586.526 284.087 586.526 284.084 586.525L283.943 586.513ZM393.037 585.713C393.025 585.716 393.015 585.72 393.004 585.723C393.034 585.714 393.064 585.706 393.095 585.697C393.076 585.703 393.056 585.708 393.037 585.713ZM388.312 102.557C387.969 102.65 387.626 102.734 387.282 102.81L387.32 109.304L380.795 109.343L380.98 139.445L363.784 112.751L362.993 113.927L363.142 138.558L354.762 126.152L348.233 135.849L348.115 116.306L339.509 103.566C338.517 103.537 337.518 103.438 336.52 103.27L328.044 103.322L299.459 140.305L299.234 103.315C297.678 103.67 296.104 103.849 294.54 103.859C292.575 103.871 290.597 103.617 288.654 103.084C287.086 103.436 285.61 103.573 284.295 103.587V103.59L276.104 103.64C274.853 103.867 273.594 103.988 272.342 103.995C271.085 104.003 269.825 103.9 268.571 103.687L248.701 103.808L248.923 140.252L226.466 105.392L226.678 140.388L203.504 104.415C202.262 104.421 201.032 104.316 199.819 104.107L187.537 104.181L185.715 108.209L184.127 106.684L182.611 110.556L181.233 110.564L173.161 132.008L165.836 114.752L157.272 110.711L136.833 110.837L115.67 110.966L105.443 126.157L105.573 151.085L102.543 151.107L102.553 153.229L102.614 165.112L139.551 198.964L105.033 199.211L102.428 205.757C102.521 206.163 102.606 206.569 102.682 206.977L109.168 206.931L109.207 214.657L139.27 214.44L112.61 234.802L113.784 235.74L138.384 235.563L125.993 245.486L135.679 253.219L116.161 253.358L103.438 263.549C103.408 264.723 103.308 265.905 103.141 267.087L103.193 277.126L140.13 310.977L103.185 311.242C103.54 313.086 103.719 314.949 103.729 316.801C103.741 319.128 103.487 321.47 102.955 323.772C103.306 325.626 103.443 327.376 103.458 328.934H103.46L103.51 338.633C103.737 340.115 103.857 341.605 103.864 343.088C103.872 344.576 103.769 346.069 103.557 347.554L103.678 371.084L140.077 370.822L105.26 397.414L140.213 397.163L104.284 424.607C104.29 426.077 104.185 427.534 103.976 428.969L104.051 443.514L108.073 445.673L106.55 447.552L110.418 449.349L110.426 450.981L131.843 460.539L114.608 469.214L106.55 471.904L110.698 466.312L117.921 462.355L128.922 473.346C129.818 473.226 130.713 473.163 131.602 473.157L132.271 473.164C133.176 473.187 134.09 473.269 135.003 473.411L178.295 473.147C179.438 472.953 180.559 472.859 181.642 472.853L182.378 472.861C183.192 472.885 184.083 472.958 185.027 473.106L186.857 473.095L187.537 473.09L199.779 473.016C200.9 472.826 202.034 472.728 203.175 472.72L203.417 472.723L225.891 437.717L226.099 471.904L248.135 437.58L248.349 472.719L248.42 472.717L260.052 472.646L268.539 472.595C269.684 472.404 270.837 472.305 271.986 472.299L272.567 472.304C273.522 472.323 274.48 472.405 275.434 472.553L283.328 472.505H283.331L283.943 472.501L283.944 472.51C285.135 472.537 286.585 472.673 288.184 473.047C290.161 472.466 292.176 472.176 294.184 472.163L294.766 472.167C296.138 472.196 297.516 472.354 298.885 472.648L298.882 472.41L299.323 472.407L299.931 470.796L302.404 472.388H302.546C303.68 472.197 304.816 472.098 305.944 472.091C307.071 472.084 308.213 472.167 309.356 472.346L317.538 472.296L346.188 435.231L346.353 462.355L347.611 460.536L347.468 436.973L355.491 449.142L362.444 439.091L362.57 459.878L363.983 462.021L380.193 436.773L380.405 471.728C381.066 471.664 381.728 471.627 382.389 471.624L382.972 471.627C383.926 471.646 384.883 471.73 385.837 471.878L386.929 471.871L386.93 472.075C387.091 472.108 387.251 472.142 387.411 472.179L388.134 470.257L390.637 471.867C391.809 471.663 392.983 471.559 394.148 471.552C395.274 471.545 396.414 471.628 397.554 471.805L404.922 471.761L412.129 471.716L440.778 434.652L440.988 469.207L440.932 459.878C440.93 459.782 441.641 441.42 452.5 465H454C454.022 463.912 456.356 474.089 456.5 473L459 474.5L458.5 471.716L460.691 471.715L460.981 476.7L460.98 476.527C460.79 475.185 460.691 473.84 460.685 472.507L460.691 471.715C460.714 470.643 460.796 469.561 460.938 468.479L460.673 454.458C460.48 453.105 460.387 451.777 460.38 450.495L460.388 449.625C460.412 448.659 460.484 447.605 460.632 446.486L460.622 444.319L460.618 443.514L460.542 429.017C460.353 427.691 460.254 426.347 460.247 424.996L460.25 424.709L425.288 398.095L459.433 397.849L425.152 371.754L460.246 371.501L460.245 371.416L460.175 357.643L460.122 347.592C459.931 346.235 459.834 344.87 459.826 343.51L459.831 342.822C459.851 341.691 459.933 340.556 460.08 339.426L460.032 330.078V330.075L460.029 329.35L460.037 329.349C460.065 327.938 460.201 326.221 460.574 324.329C459.993 321.988 459.704 319.6 459.692 317.222L459.695 316.534C459.723 314.909 459.883 313.277 460.177 311.656L459.938 311.659L459.935 311.137L458.326 310.419L459.915 307.489V307.321C459.724 305.978 459.626 304.632 459.619 303.297C459.611 301.962 459.695 300.61 459.873 299.256L459.823 289.567L422.806 255.639L449.895 255.444L448.078 253.954L424.545 254.124L436.699 244.622L426.66 236.389L447.421 236.239L449.562 234.567L424.345 215.372L459.257 215.12C459.192 214.337 459.157 213.553 459.152 212.769L459.156 212.081C459.176 210.951 459.259 209.817 459.406 208.688L459.399 207.394L459.603 207.392C459.636 207.203 459.67 207.013 459.707 206.823L457.788 205.967L459.395 203.003C459.192 201.616 459.088 200.225 459.08 198.845C459.074 197.512 459.157 196.163 459.334 194.811L459.289 186.086L459.245 177.552L422.227 143.626L458.813 143.361C458.842 142.343 458.921 141.322 459.054 140.304V140.271L459.001 130.24L458.991 128.326L458.988 127.703L458.912 113.024C458.723 111.698 458.624 110.354 458.617 109.002C458.616 108.907 458.619 108.811 458.62 108.716L454.503 105.583L434.479 105.706L434.461 102.672L432.669 102.682L422.634 102.743L394.047 139.726L393.839 105.165L388.312 102.557ZM495.029 525.955C494.853 526.179 494.652 526.392 494.429 526.594C494.438 526.585 494.449 526.578 494.457 526.57C494.569 526.468 494.677 526.364 494.776 526.256C494.866 526.158 494.95 526.056 495.03 525.954L495.029 525.955ZM495.711 524.739C495.718 524.721 495.725 524.704 495.732 524.686C495.734 524.682 495.734 524.677 495.736 524.673C495.728 524.695 495.719 524.717 495.711 524.739ZM495.913 524.051C495.875 524.226 495.831 524.395 495.776 524.56C495.802 524.483 495.826 524.404 495.848 524.326C495.858 524.288 495.866 524.252 495.875 524.215C495.884 524.179 495.892 524.144 495.9 524.108C495.904 524.09 495.908 524.07 495.913 524.051ZM495.983 523.629C495.966 523.761 495.946 523.892 495.919 524.019C495.922 524.007 495.924 523.995 495.926 523.984C495.941 523.906 495.958 523.829 495.969 523.75C495.975 523.71 495.979 523.669 495.983 523.629ZM495.99 523.577C495.993 523.545 495.999 523.514 496.001 523.481C496.003 523.463 496.004 523.446 496.005 523.428C496.001 523.478 495.996 523.528 495.99 523.577ZM496.015 523.305C496.018 523.269 496.021 523.233 496.023 523.198C496.023 523.192 496.023 523.186 496.023 523.179C496.021 523.221 496.018 523.264 496.015 523.305ZM496.023 522.535C496.028 522.635 496.031 522.739 496.032 522.844C496.032 522.941 496.03 523.036 496.026 523.132C496.03 523.037 496.033 522.942 496.033 522.845C496.032 522.74 496.029 522.636 496.024 522.536C496.02 522.441 496.011 522.347 496.002 522.256C496.011 522.347 496.019 522.44 496.023 522.535ZM495.799 521.184C495.855 521.375 495.902 521.571 495.938 521.774C495.931 521.735 495.926 521.694 495.917 521.656C495.899 521.563 495.878 521.469 495.855 521.379C495.839 521.313 495.818 521.249 495.799 521.184ZM81.3448 510.774L81.3961 510.507C81.3986 510.492 81.4002 510.478 81.4026 510.462C81.4033 510.458 81.4029 510.454 81.4035 510.449C81.3864 510.559 81.3677 510.667 81.3448 510.774ZM495.825 510.774L495.875 510.507C495.878 510.492 495.88 510.478 495.882 510.462C495.883 510.458 495.883 510.454 495.883 510.449C495.866 510.559 495.848 510.667 495.825 510.774ZM81.453 510.043C81.4556 510.015 81.4601 509.987 81.4623 509.958C81.4673 509.892 81.4694 509.827 81.4726 509.762C81.468 509.857 81.4614 509.951 81.453 510.043ZM495.933 510.043C495.936 510.015 495.94 509.987 495.942 509.958C495.947 509.892 495.949 509.827 495.953 509.762C495.948 509.857 495.941 509.951 495.933 510.043ZM81.4744 509.739C81.4754 509.718 81.4774 509.697 81.4781 509.676C81.4816 509.581 81.4833 509.485 81.4828 509.389L81.4819 509.388C81.4825 509.506 81.4796 509.624 81.4744 509.739ZM495.955 509.739C495.956 509.718 495.958 509.697 495.958 509.676C495.961 509.581 495.963 509.485 495.962 509.389L495.961 509.388C495.962 509.506 495.959 509.624 495.955 509.739ZM104.359 466.189L110.355 466.146L104.346 463.248L104.359 466.189ZM518.839 503.435L524.835 503.392L518.826 500.494L518.839 503.435ZM78.878 454.739C78.6914 454.851 78.4926 454.957 78.2821 455.055C78.3872 455.006 78.4896 454.956 78.5888 454.903C78.6883 454.85 78.7846 454.795 78.878 454.739ZM493.358 454.739C493.171 454.851 492.972 454.957 492.762 455.055C492.867 455.006 492.969 454.956 493.069 454.903C493.168 454.85 493.264 454.795 493.358 454.739ZM71.1548 451.599C71.1825 451.661 71.2129 451.723 71.2453 451.784C71.2571 451.806 71.271 451.827 71.2835 451.849C71.2268 451.749 71.1764 451.646 71.1324 451.542C71.1217 451.517 71.1108 451.49 71.1007 451.465C71.1181 451.51 71.135 451.555 71.1548 451.599ZM485.635 451.599C485.662 451.661 485.693 451.723 485.725 451.784C485.737 451.806 485.751 451.827 485.764 451.849C485.706 451.749 485.657 451.646 485.612 451.542C485.601 451.517 485.591 451.49 485.58 451.465C485.598 451.51 485.615 451.555 485.635 451.599ZM81.1648 450.05C81.1634 450.021 81.1647 449.992 81.163 449.964C81.1605 449.924 81.1566 449.885 81.1536 449.846C81.1588 449.913 81.1613 449.981 81.1648 450.05ZM495.644 450.05C495.643 450.021 495.644 449.992 495.642 449.964C495.64 449.924 495.637 449.885 495.634 449.846C495.639 449.913 495.641 449.981 495.644 450.05ZM81.0865 449.268C81.1003 449.354 81.1121 449.443 81.1229 449.532C81.1212 449.519 81.1208 449.506 81.1191 449.493C81.1095 449.416 81.0983 449.342 81.0865 449.268ZM495.566 449.268C495.58 449.354 495.592 449.443 495.602 449.532C495.601 449.519 495.6 449.506 495.598 449.493C495.589 449.416 495.578 449.342 495.566 449.268ZM73.2373 428.056C73.228 428.053 73.2188 428.049 73.2094 428.045C73.1713 428.032 73.1337 428.018 73.0966 428.004C73.1429 428.022 73.1897 428.04 73.2373 428.056ZM487.718 428.056C487.708 428.053 487.699 428.049 487.689 428.045C487.651 428.032 487.614 428.018 487.576 428.004C487.623 428.022 487.67 428.04 487.718 428.056ZM72.3569 427.622C72.569 427.766 72.7994 427.887 73.048 427.987L72.993 427.962C72.8058 427.884 72.6293 427.793 72.4633 427.689C72.4277 427.667 72.3916 427.645 72.3569 427.622ZM486.837 427.622C487.049 427.766 487.279 427.887 487.528 427.987L487.473 427.962C487.286 427.884 487.109 427.793 486.943 427.689C486.908 427.667 486.871 427.645 486.837 427.622ZM81.0454 424.741C81.0464 424.927 81.0393 425.108 81.0249 425.286C81.0322 425.197 81.0383 425.104 81.0417 425.012C81.0449 424.923 81.0459 424.832 81.0454 424.741ZM495.525 424.741C495.526 424.927 495.519 425.108 495.505 425.286C495.513 425.197 495.518 425.104 495.521 425.012C495.525 424.923 495.526 424.832 495.525 424.741ZM72.7449 407.522C72.7309 407.519 72.7171 407.514 72.703 407.51C72.6673 407.502 72.6312 407.496 72.5948 407.489C72.6456 407.499 72.6956 407.51 72.7449 407.522ZM487.225 407.522C487.21 407.519 487.197 407.514 487.183 407.51C487.147 407.502 487.111 407.496 487.075 407.489C487.126 407.499 487.175 407.51 487.225 407.522ZM72.578 407.486C72.5637 407.483 72.5495 407.48 72.5351 407.478C72.4955 407.471 72.4553 407.466 72.4148 407.461C72.47 407.468 72.5244 407.477 72.578 407.486ZM487.058 407.486C487.043 407.483 487.029 407.48 487.015 407.478C486.976 407.471 486.935 407.466 486.894 407.461C486.95 407.468 487.004 407.477 487.058 407.486ZM75.4542 406.872C75.4464 406.878 75.4387 406.884 75.4309 406.89C75.4619 406.866 75.4935 406.844 75.5251 406.821L75.4542 406.872ZM489.934 406.872C489.927 406.878 489.919 406.884 489.91 406.89C489.942 406.866 489.973 406.844 490.005 406.821L489.934 406.872ZM77.9743 400.956L77.8213 401.077L77.8204 401.078C77.8725 401.039 77.9239 400.997 77.9743 400.956C78.0233 400.913 78.0709 400.87 78.1169 400.825L77.9743 400.956ZM492.454 400.956L492.301 401.077L492.3 401.078C492.352 401.039 492.404 400.997 492.454 400.956C492.503 400.913 492.551 400.87 492.597 400.825L492.454 400.956ZM80.3945 400.833C80.4015 400.818 80.4098 400.804 80.4168 400.789C80.4397 400.739 80.4599 400.688 80.4812 400.638C80.4534 400.704 80.4245 400.769 80.3945 400.833ZM494.875 400.833C494.881 400.818 494.89 400.804 494.896 400.789C494.919 400.739 494.939 400.688 494.961 400.638C494.933 400.704 494.904 400.769 494.875 400.833ZM80.8151 399.516C80.8114 399.536 80.8068 399.556 80.8029 399.576C80.8068 399.555 80.8123 399.535 80.816 399.514C80.8249 399.464 80.8317 399.414 80.8393 399.365L80.8151 399.516ZM495.295 399.516C495.291 399.536 495.286 399.556 495.282 399.576C495.286 399.555 495.292 399.535 495.296 399.514C495.304 399.464 495.311 399.414 495.319 399.365L495.295 399.516ZM80.9092 398.4C80.9098 398.497 80.909 398.592 80.9055 398.687C80.9092 398.592 80.9107 398.496 80.9102 398.399C80.91 398.354 80.9067 398.309 80.9055 398.264L80.9092 398.4ZM495.389 398.4C495.389 398.497 495.388 398.592 495.385 398.687C495.389 398.592 495.39 398.496 495.39 398.399C495.39 398.354 495.386 398.309 495.385 398.264L495.389 398.4ZM70.6465 397.887C70.6411 397.947 70.6379 398.008 70.6353 398.069C70.6402 397.952 70.6498 397.837 70.6652 397.723L70.6465 397.887ZM485.127 397.887C485.121 397.947 485.118 398.008 485.115 398.069C485.12 397.952 485.13 397.837 485.145 397.723L485.127 397.887ZM70.7808 397.183C70.7744 397.204 70.7689 397.226 70.7631 397.247C70.7762 397.2 70.7909 397.153 70.8059 397.106C70.8127 397.085 70.8185 397.063 70.8255 397.042C70.8097 397.089 70.7948 397.136 70.7808 397.183ZM485.26 397.183C485.255 397.204 485.249 397.226 485.243 397.247C485.257 397.2 485.271 397.153 485.286 397.106C485.293 397.085 485.299 397.063 485.305 397.042C485.289 397.089 485.275 397.136 485.26 397.183ZM80.7656 397.179C80.7545 397.132 80.7427 397.086 80.7302 397.04L80.7283 397.035C80.7412 397.083 80.7541 397.131 80.7656 397.179ZM495.245 397.179C495.235 397.132 495.222 397.086 495.21 397.04C495.21 397.04 495.209 397.037 495.208 397.035C495.221 397.083 495.234 397.131 495.245 397.179ZM80.6994 396.932C80.6981 396.927 80.697 396.924 80.6957 396.919C80.6878 396.893 80.6789 396.867 80.6705 396.841C80.6582 396.802 80.6455 396.765 80.6323 396.727C80.6561 396.795 80.6787 396.863 80.6994 396.932ZM495.179 396.932C495.178 396.927 495.176 396.924 495.175 396.919C495.168 396.893 495.159 396.867 495.151 396.841C495.138 396.802 495.126 396.765 495.112 396.727C495.136 396.795 495.158 396.863 495.179 396.932ZM80.373 396.133C80.3676 396.122 80.3626 396.112 80.3571 396.102C80.3511 396.091 80.3445 396.079 80.3385 396.069C80.3502 396.09 80.3616 396.112 80.373 396.133ZM494.853 396.133C494.848 396.122 494.842 396.112 494.837 396.102C494.831 396.091 494.824 396.079 494.818 396.069C494.83 396.09 494.841 396.112 494.853 396.133ZM70.5215 394.745C70.2258 394.997 69.9693 395.27 69.753 395.565C69.7234 395.606 69.6962 395.647 69.6681 395.688L69.656 395.706L69.753 395.565C69.9693 395.27 70.225 394.998 70.5206 394.746L70.5215 394.745ZM485.002 394.745C484.705 394.997 484.45 395.27 484.233 395.565C484.203 395.606 484.176 395.647 484.148 395.688L484.136 395.706L484.233 395.565C484.449 395.27 484.705 394.998 485.001 394.746L485.002 394.745ZM79.8088 395.298C79.8692 395.37 79.9277 395.441 79.9831 395.516L79.8097 395.297C79.749 395.226 79.6851 395.156 79.6194 395.087L79.8088 395.298ZM494.288 395.298C494.349 395.37 494.408 395.441 494.463 395.516L494.289 395.297C494.229 395.226 494.165 395.156 494.099 395.087L494.288 395.298ZM72.4968 394.985C72.4757 394.997 72.4552 395.011 72.4344 395.023C72.5124 394.975 72.5924 394.93 72.675 394.888C72.6145 394.919 72.5549 394.951 72.4968 394.985ZM486.977 394.985C486.956 394.997 486.935 395.011 486.914 395.023C486.992 394.975 487.072 394.93 487.155 394.888C487.094 394.919 487.035 394.951 486.977 394.985ZM73.8986 372.592C73.8184 372.755 73.7483 372.93 73.6878 373.116C73.7486 372.931 73.8194 372.756 73.8996 372.592L73.8986 372.592ZM488.378 372.592C488.298 372.755 488.229 372.93 488.167 373.116C488.229 372.931 488.299 372.756 488.379 372.592L488.378 372.592ZM74.5178 371.719C74.5543 371.681 74.5918 371.646 74.6298 371.611L74.5178 371.719ZM488.997 371.719C489.035 371.681 489.072 371.646 489.11 371.611L488.997 371.719ZM76.3206 347.045C76.4158 347.01 76.5091 346.974 76.5995 346.933L76.6004 346.932C76.5097 346.974 76.4161 347.01 76.3206 347.045ZM490.8 347.045C490.896 347.01 490.989 346.974 491.079 346.933L491.08 346.932C490.99 346.974 490.896 347.01 490.8 347.045ZM72.3132 346.792C72.3272 346.799 72.3418 346.806 72.356 346.814C72.2831 346.774 72.2111 346.733 72.1415 346.689L72.3132 346.792ZM486.793 346.792C486.807 346.799 486.822 346.806 486.836 346.814C486.763 346.774 486.691 346.733 486.621 346.689L486.793 346.792ZM77.604 346.259C77.4918 346.366 77.3726 346.463 77.2486 346.554C77.3721 346.463 77.4912 346.367 77.603 346.26L77.604 346.259ZM492.084 346.259C491.971 346.366 491.853 346.463 491.729 346.554C491.852 346.463 491.971 346.367 492.083 346.26L492.084 346.259ZM71.5204 346.187C71.5156 346.182 71.5121 346.178 71.5073 346.173H71.5054C71.5104 346.178 71.5154 346.182 71.5204 346.187ZM486 346.187C485.996 346.182 485.992 346.178 485.987 346.173H485.985C485.99 346.178 485.995 346.182 486 346.187ZM70.9057 345.403C70.9368 345.455 70.9692 345.505 71.0028 345.556C70.9666 345.501 70.9324 345.446 70.8992 345.391L70.9057 345.403ZM485.385 345.403C485.417 345.455 485.448 345.505 485.483 345.556C485.447 345.501 485.412 345.446 485.379 345.391L485.385 345.403ZM70.5065 344.481C70.5607 344.67 70.6282 344.855 70.7099 345.031C70.655 344.912 70.6069 344.79 70.5644 344.664C70.5439 344.605 70.5242 344.543 70.5065 344.481ZM484.986 344.481C485.041 344.67 485.108 344.855 485.19 345.031C485.135 344.912 485.087 344.79 485.044 344.664C485.023 344.605 485.004 344.543 484.986 344.481ZM484.828 343.331C484.829 343.576 484.85 343.814 484.889 344.044C484.85 343.815 484.83 343.577 484.828 343.331ZM80.6071 343.801C80.6101 343.757 80.6142 343.712 80.6164 343.667C80.6181 343.631 80.6179 343.595 80.6192 343.56C80.6159 343.641 80.6124 343.722 80.6071 343.801ZM495.087 343.801C495.09 343.757 495.094 343.712 495.096 343.667C495.098 343.631 495.098 343.595 495.099 343.56C495.096 343.641 495.092 343.722 495.087 343.801ZM80.4756 341.823C80.5619 342.225 80.6102 342.646 80.622 343.088C80.618 342.929 80.6108 342.771 80.5968 342.616C80.5721 342.343 80.5308 342.079 80.4756 341.823ZM494.956 341.823C495.042 342.225 495.09 342.646 495.102 343.088C495.098 342.929 495.09 342.771 495.077 342.616C495.052 342.343 495.01 342.079 494.956 341.823ZM70.6969 341.602C70.681 341.637 70.6668 341.674 70.6521 341.71C70.6821 341.637 70.7145 341.566 70.7491 341.495L70.6969 341.602ZM485.176 341.602C485.161 341.637 485.147 341.674 485.131 341.71C485.162 341.637 485.194 341.566 485.229 341.495L485.176 341.602ZM70.972 341.099C70.9019 341.207 70.838 341.317 70.7799 341.431C70.8091 341.374 70.8399 341.317 70.8722 341.262C70.9361 341.152 71.0063 341.044 71.082 340.939C71.044 340.992 71.0069 341.045 70.972 341.099ZM485.451 341.099C485.382 341.207 485.318 341.317 485.259 341.431C485.289 341.374 485.32 341.317 485.352 341.262C485.416 341.152 485.486 341.044 485.562 340.939C485.524 340.992 485.487 341.045 485.451 341.099ZM74.5981 339.277C74.4305 339.277 74.2676 339.285 74.1094 339.298L74.3509 339.283C74.4322 339.279 74.5146 339.277 74.5981 339.277ZM489.078 339.277C488.91 339.277 488.747 339.285 488.59 339.298L488.831 339.283C488.912 339.279 488.994 339.277 489.078 339.277ZM76.3533 337.455C76.2769 337.434 76.2 337.414 76.122 337.396C76.1051 337.392 76.0878 337.389 76.0707 337.386C76.166 337.407 76.2602 337.43 76.3533 337.455ZM490.833 337.455C490.756 337.434 490.68 337.414 490.602 337.396C490.585 337.392 490.567 337.389 490.55 337.386C490.646 337.407 490.74 337.43 490.833 337.455ZM75.6137 337.304C75.5854 337.301 75.5573 337.297 75.5288 337.293C75.4794 337.286 75.4296 337.282 75.3796 337.277C75.4583 337.285 75.5364 337.294 75.6137 337.304ZM490.094 337.304C490.065 337.301 490.037 337.297 490.009 337.293C489.959 337.286 489.909 337.282 489.86 337.277C489.938 337.285 490.016 337.294 490.094 337.304ZM75.263 337.264C75.2494 337.263 75.2357 337.262 75.222 337.261C75.1185 337.253 75.0137 337.246 74.9077 337.242C75.0276 337.247 75.146 337.255 75.263 337.264ZM489.743 337.264C489.729 337.263 489.716 337.262 489.702 337.261C489.598 337.253 489.494 337.246 489.388 337.242C489.507 337.247 489.626 337.255 489.743 337.264ZM69.3902 334.233L69.8221 334.23L80.248 334.156L80.2471 334.155L69.3902 334.233ZM483.87 334.233L484.301 334.23L494.727 334.156L494.727 334.155L483.87 334.233ZM73.4099 329.645C73.4181 329.697 73.4249 329.75 73.4304 329.805C73.4311 329.811 73.4325 329.819 73.4332 329.826C73.4262 329.751 73.416 329.679 73.4043 329.61C73.4061 329.621 73.408 329.633 73.4099 329.645ZM487.89 329.645C487.898 329.697 487.905 329.75 487.911 329.805C487.911 329.811 487.912 329.819 487.913 329.826C487.906 329.751 487.896 329.679 487.884 329.61C487.886 329.621 487.888 329.633 487.89 329.645ZM78.434 329.145C78.451 329.324 78.4609 329.52 78.462 329.731C78.4603 329.39 78.436 329.091 78.393 328.831C78.4096 328.93 78.4237 329.035 78.434 329.145ZM492.914 329.145C492.931 329.324 492.941 329.52 492.942 329.731C492.94 329.39 492.916 329.091 492.873 328.831C492.889 328.93 492.903 329.035 492.914 329.145ZM73.3437 329.35C73.3454 329.357 73.3475 329.362 73.3493 329.369C73.3525 329.38 73.356 329.391 73.3596 329.403C73.3462 329.353 73.3323 329.304 73.3158 329.257L73.3148 329.256C73.3256 329.287 73.3342 329.318 73.3437 329.35ZM487.824 329.35C487.826 329.357 487.827 329.362 487.829 329.369C487.832 329.38 487.836 329.391 487.839 329.403C487.826 329.353 487.812 329.304 487.796 329.257L487.795 329.256C487.805 329.287 487.814 329.318 487.824 329.35ZM68.8288 329.172C68.8284 329.176 68.8283 329.18 68.8278 329.185L68.8148 329.35C68.8246 329.23 68.8377 329.112 68.854 329C68.8454 329.056 68.8354 329.113 68.8288 329.172ZM483.308 329.172C483.308 329.176 483.308 329.18 483.307 329.185L483.295 329.35C483.304 329.23 483.318 329.112 483.334 329C483.325 329.056 483.315 329.113 483.308 329.172ZM73.1115 328.86C73.167 328.937 73.216 329.022 73.2579 329.114L73.1907 328.983C73.1664 328.94 73.1401 328.899 73.1124 328.861L73.1115 328.86ZM487.592 328.86C487.647 328.937 487.696 329.022 487.738 329.114L487.671 328.983C487.646 328.94 487.62 328.899 487.592 328.861L487.592 328.86ZM68.8791 328.837C68.8754 328.857 68.8734 328.878 68.8698 328.899C68.8761 328.861 68.8831 328.823 68.8904 328.787C68.8869 328.803 68.8823 328.82 68.8791 328.837ZM483.359 328.837C483.355 328.857 483.353 328.878 483.349 328.899C483.356 328.861 483.363 328.823 483.37 328.787C483.367 328.803 483.362 328.82 483.359 328.837ZM78.3893 328.81C78.3799 328.755 78.3716 328.703 78.3604 328.651L78.3305 328.538C78.3528 328.623 78.3723 328.714 78.3893 328.81ZM492.869 328.81C492.859 328.755 492.852 328.703 492.84 328.651L492.811 328.538C492.833 328.623 492.852 328.714 492.869 328.81ZM72.9081 328.645L72.8821 328.621C72.861 328.604 72.8378 328.59 72.8158 328.575C72.8473 328.597 72.8782 328.62 72.9081 328.645ZM487.388 328.645L487.361 328.621C487.34 328.604 487.317 328.59 487.296 328.575C487.327 328.597 487.358 328.62 487.388 328.645ZM74.6409 326.287C74.5957 326.336 74.5514 326.386 74.5095 326.437C74.214 326.796 74.0032 327.226 73.8771 327.725L73.8781 327.726C74.0221 327.155 74.2757 326.676 74.6409 326.287ZM489.121 326.287C489.076 326.336 489.031 326.386 488.99 326.437C488.694 326.796 488.483 327.226 488.357 327.725L488.357 327.726C488.502 327.155 488.756 326.676 489.121 326.287ZM76.0139 325.468C75.9989 325.472 75.9838 325.475 75.9691 325.48L75.9644 325.482C75.9824 325.476 76.0004 325.472 76.0185 325.467L76.0139 325.468ZM490.494 325.468C490.479 325.472 490.463 325.475 490.449 325.48L490.444 325.482C490.462 325.476 490.48 325.472 490.499 325.467L490.494 325.468ZM76.4223 320.661C76.417 320.663 76.4118 320.666 76.4065 320.669C76.4253 320.66 76.4447 320.654 76.4634 320.645C76.45 320.651 76.4357 320.655 76.4223 320.661ZM490.902 320.661C490.897 320.663 490.891 320.666 490.886 320.669C490.905 320.66 490.925 320.654 490.943 320.645C490.93 320.651 490.916 320.655 490.902 320.661ZM76.6881 320.532C76.6746 320.54 76.6618 320.549 76.648 320.555L76.6946 320.529C76.6926 320.53 76.6902 320.531 76.6881 320.532ZM491.168 320.532C491.155 320.54 491.141 320.549 491.128 320.555L491.175 320.529C491.173 320.53 491.17 320.531 491.168 320.532ZM77.4604 319.977C77.4625 319.976 77.4656 319.974 77.4678 319.972L77.4772 319.962C77.4717 319.968 77.4657 319.972 77.4604 319.977ZM491.94 319.977C491.943 319.976 491.946 319.974 491.947 319.972L491.957 319.962C491.951 319.968 491.945 319.972 491.94 319.977ZM68.9761 314.393C68.9508 314.45 68.9278 314.507 68.9043 314.564C68.9043 314.564 68.904 314.567 68.9034 314.569C68.9516 314.451 69.0029 314.335 69.0582 314.221C69.0301 314.278 69.0023 314.335 68.9761 314.393ZM483.456 314.393C483.431 314.45 483.408 314.507 483.384 314.564C483.384 314.564 483.384 314.567 483.383 314.569C483.431 314.451 483.483 314.335 483.538 314.221C483.51 314.278 483.482 314.335 483.456 314.393ZM69.2401 313.88C69.1768 313.988 69.1185 314.1 69.0628 314.213C69.118 314.099 69.1769 313.988 69.2401 313.88ZM483.72 313.88C483.657 313.988 483.599 314.1 483.542 314.213C483.598 314.099 483.657 313.988 483.72 313.88ZM80.373 302.201C80.3697 302.173 80.3673 302.145 80.3636 302.118C80.3613 302.1 80.3568 302.083 80.3544 302.065C80.3606 302.11 80.3677 302.155 80.373 302.201ZM494.853 302.201C494.85 302.173 494.847 302.145 494.843 302.118C494.841 302.1 494.836 302.083 494.834 302.065C494.84 302.11 494.848 302.155 494.853 302.201ZM77.7327 300.493C77.7598 300.523 77.7883 300.55 77.8148 300.581C77.823 300.591 77.83 300.602 77.8381 300.612C77.8984 300.685 77.957 300.758 78.0106 300.834C77.95 300.748 77.8849 300.664 77.8157 300.582C77.7601 300.518 77.7031 300.456 77.6451 300.396C77.675 300.427 77.7032 300.461 77.7327 300.493ZM492.213 300.493C492.24 300.523 492.268 300.55 492.294 300.581C492.303 300.591 492.31 300.602 492.318 300.612C492.378 300.685 492.436 300.758 492.491 300.834C492.43 300.748 492.365 300.664 492.295 300.582C492.24 300.518 492.183 300.456 492.125 300.396C492.155 300.427 492.183 300.461 492.213 300.493ZM71.5633 298.183C71.5265 298.197 71.4904 298.213 71.4541 298.229C71.4311 298.239 71.408 298.249 71.3852 298.259C71.4463 298.232 71.5081 298.206 71.5707 298.181C71.5684 298.182 71.5657 298.182 71.5633 298.183ZM486.043 298.183C486.006 298.197 485.97 298.213 485.934 298.229C485.911 298.239 485.888 298.249 485.865 298.259C485.926 298.232 485.988 298.206 486.05 298.181C486.048 298.182 486.045 298.182 486.043 298.183ZM71.816 298.087C71.741 298.114 71.6671 298.143 71.594 298.171C71.67 298.141 71.7472 298.113 71.8253 298.085C71.8224 298.086 71.8189 298.086 71.816 298.087ZM486.296 298.087C486.221 298.114 486.147 298.143 486.074 298.171C486.149 298.141 486.227 298.113 486.305 298.085C486.302 298.086 486.298 298.086 486.296 298.087ZM74.5804 297.681H74.5785C74.6317 297.682 74.6851 297.681 74.7389 297.682L74.738 297.681H74.6L74.599 297.681C74.5928 297.681 74.5866 297.681 74.5804 297.681ZM489.06 297.681H489.058C489.112 297.682 489.164 297.681 489.219 297.682L489.218 297.681H489.079L489.079 297.681C489.073 297.681 489.066 297.681 489.06 297.681ZM74.8387 247.589C74.5906 247.612 74.3346 247.625 74.0702 247.627C74.1894 247.626 74.3069 247.624 74.4227 247.618C74.5388 247.613 74.6533 247.607 74.766 247.597C74.7903 247.595 74.8145 247.591 74.8387 247.589ZM489.318 247.589C489.071 247.612 488.814 247.625 488.55 247.627C488.669 247.626 488.786 247.624 488.903 247.618C489.018 247.613 489.133 247.607 489.246 247.597C489.27 247.595 489.294 247.591 489.318 247.589ZM74.8816 247.585C74.955 247.578 75.0279 247.571 75.0998 247.563C75.1397 247.558 75.179 247.551 75.2182 247.546C75.1078 247.561 74.9955 247.574 74.8816 247.585ZM489.361 247.585C489.435 247.578 489.507 247.571 489.58 247.563C489.619 247.558 489.659 247.551 489.698 247.546C489.588 247.561 489.476 247.574 489.361 247.585ZM77.8483 246.55C77.86 246.542 77.8724 246.534 77.8838 246.527C77.9042 246.511 77.9234 246.495 77.9435 246.48C77.9122 246.504 77.8803 246.527 77.8483 246.55ZM492.328 246.55C492.34 246.542 492.352 246.534 492.364 246.527C492.384 246.511 492.403 246.495 492.423 246.48C492.392 246.504 492.36 246.527 492.328 246.55ZM79.4851 244.658C79.4873 244.653 79.4903 244.649 79.4925 244.645C79.4966 244.638 79.4998 244.63 79.5037 244.622C79.4976 244.634 79.4913 244.645 79.4851 244.658ZM493.965 244.658C493.967 244.653 493.97 244.649 493.972 244.645C493.977 244.638 493.98 244.63 493.983 244.622C493.978 244.634 493.971 244.645 493.965 244.658ZM79.5961 244.432C79.6003 244.424 79.6052 244.416 79.6092 244.407C79.6118 244.402 79.6139 244.396 79.6166 244.389C79.61 244.405 79.6028 244.418 79.5961 244.432ZM494.076 244.432C494.08 244.424 494.085 244.416 494.089 244.407C494.091 244.402 494.093 244.396 494.096 244.389C494.09 244.405 494.083 244.418 494.076 244.432ZM79.7146 244.162C79.7217 244.145 79.7281 244.127 79.735 244.108C79.7601 244.045 79.7845 243.978 79.8068 243.912L79.7146 244.162ZM494.195 244.162C494.201 244.145 494.208 244.127 494.215 244.108C494.239 244.045 494.264 243.978 494.286 243.912L494.195 244.162ZM79.9542 243.397L80.0092 243.132C80.0124 243.114 80.0141 243.097 80.0168 243.08C79.9984 243.187 79.9785 243.293 79.9542 243.397ZM494.434 243.397L494.489 243.132C494.493 243.114 494.493 243.097 494.496 243.08C494.478 243.187 494.458 243.293 494.434 243.397ZM80.0279 243.012C80.0359 242.963 80.0445 242.913 80.0512 242.862C80.0558 242.827 80.0584 242.792 80.0624 242.755C80.0527 242.842 80.0413 242.927 80.0279 243.012ZM494.508 243.012C494.515 242.963 494.524 242.913 494.531 242.862C494.536 242.827 494.538 242.792 494.542 242.755C494.533 242.842 494.521 242.927 494.508 243.012ZM80.0689 242.69C80.0725 242.656 80.0781 242.621 80.081 242.586C80.0858 242.53 80.0882 242.474 80.0913 242.417C80.0862 242.509 80.0781 242.601 80.0689 242.69ZM494.549 242.69C494.553 242.656 494.558 242.621 494.561 242.586C494.565 242.53 494.568 242.474 494.571 242.417C494.566 242.509 494.558 242.601 494.549 242.69ZM80.096 242.347C80.0996 242.266 80.1018 242.185 80.1025 242.104C80.1027 242.075 80.1026 242.046 80.1025 242.017C80.1031 242.129 80.1009 242.239 80.096 242.347ZM494.576 242.347C494.579 242.266 494.581 242.185 494.582 242.104C494.582 242.075 494.582 242.046 494.582 242.017C494.583 242.129 494.58 242.239 494.576 242.347ZM72.6516 238.211C72.6426 238.213 72.6336 238.216 72.6246 238.219C72.6786 238.205 72.7336 238.192 72.7888 238.179L72.6516 238.211ZM487.131 238.211C487.123 238.213 487.113 238.216 487.104 238.219C487.159 238.205 487.213 238.192 487.269 238.179L487.131 238.211ZM73.8847 238.041C73.9388 238.039 73.9935 238.039 74.0487 238.038L74.2679 238.039C74.1954 238.037 74.1218 238.036 74.0479 238.037C73.993 238.038 73.9385 238.039 73.8847 238.041ZM488.364 238.041C488.419 238.039 488.473 238.039 488.528 238.038L488.748 238.039C488.675 238.037 488.602 238.036 488.527 238.037C488.473 238.038 488.419 238.039 488.364 238.041ZM79.9953 226.996C79.9762 227.195 79.9469 227.388 79.9076 227.576C79.9139 227.546 79.9195 227.515 79.9254 227.484C79.9375 227.42 79.9499 227.356 79.9598 227.29C79.9744 227.193 79.9857 227.095 79.9953 226.996ZM494.475 226.996C494.456 227.195 494.427 227.388 494.388 227.576C494.393 227.546 494.399 227.515 494.405 227.484C494.417 227.42 494.43 227.356 494.44 227.29C494.454 227.193 494.466 227.095 494.475 226.996ZM80.0223 226.385L80.0158 226.122C80.0155 226.116 80.0142 226.11 80.0139 226.104C80.0181 226.197 80.0218 226.291 80.0223 226.385ZM494.502 226.385L494.495 226.122C494.495 226.116 494.494 226.11 494.493 226.104C494.498 226.197 494.502 226.291 494.502 226.385ZM71.1911 223.87C71.1959 223.866 71.2013 223.863 71.2061 223.859C71.2539 223.822 71.302 223.785 71.3515 223.749L71.1911 223.87ZM485.671 223.87C485.676 223.866 485.682 223.863 485.686 223.859C485.734 223.822 485.782 223.785 485.831 223.749L485.671 223.87ZM78.2661 222.403C78.4113 222.526 78.5475 222.653 78.6747 222.787C78.5474 222.653 78.4105 222.525 78.2653 222.402L78.2661 222.403ZM492.746 222.403C492.891 222.526 493.028 222.653 493.155 222.787C493.028 222.653 492.89 222.525 492.745 222.402L492.746 222.403ZM75.4963 221.08C75.402 221.062 75.3069 221.045 75.2108 221.029C75.2 221.028 75.189 221.027 75.1782 221.026C75.2853 221.041 75.3914 221.059 75.4963 221.08ZM489.976 221.08C489.882 221.062 489.786 221.045 489.691 221.029C489.68 221.028 489.669 221.027 489.658 221.026C489.765 221.041 489.871 221.059 489.976 221.08ZM75.0542 221.008C75.0099 221.003 74.9655 220.996 74.9208 220.99C74.8988 220.988 74.8766 220.987 74.8546 220.986C74.9215 220.992 74.988 221 75.0542 221.008ZM489.534 221.008C489.489 221.003 489.445 220.996 489.4 220.99C489.378 220.988 489.356 220.987 489.334 220.986C489.401 220.992 489.468 221 489.534 221.008ZM73.5358 216.57C73.6757 216.577 73.8189 216.583 73.9657 216.582L73.9648 216.58C73.8183 216.581 73.6753 216.577 73.5358 216.57ZM488.016 216.57C488.155 216.577 488.298 216.583 488.445 216.582L488.444 216.58C488.298 216.581 488.155 216.577 488.016 216.57ZM74.6792 216.534C74.6032 216.545 74.5261 216.553 74.4479 216.56L74.6792 216.534C74.7552 216.525 74.8301 216.514 74.904 216.501L74.6792 216.534ZM489.159 216.534C489.083 216.545 489.006 216.553 488.928 216.56L489.159 216.534C489.235 216.525 489.31 216.514 489.384 216.501L489.159 216.534ZM79.9458 212.837C79.946 212.832 79.9466 212.827 79.9468 212.822C79.9502 212.721 79.952 212.619 79.9514 212.515L79.9458 212.837ZM494.426 212.837C494.426 212.832 494.427 212.827 494.427 212.822C494.43 212.721 494.431 212.619 494.431 212.515L494.426 212.837ZM79.9215 211.876L79.8964 211.643C79.8941 211.625 79.8904 211.607 79.888 211.59C79.9006 211.685 79.9128 211.779 79.9215 211.876ZM494.402 211.876L494.376 211.643C494.374 211.625 494.37 211.607 494.367 211.59C494.381 211.685 494.392 211.779 494.402 211.876ZM79.6269 210.444C79.6227 210.431 79.6185 210.416 79.6138 210.403C79.6067 210.381 79.5979 210.361 79.5905 210.34C79.6029 210.374 79.6152 210.41 79.6269 210.444ZM494.107 210.444C494.103 210.431 494.098 210.416 494.093 210.403C494.087 210.381 494.078 210.361 494.07 210.34C494.083 210.374 494.095 210.41 494.107 210.444ZM493.877 209.863C493.891 209.895 493.904 209.926 493.919 209.959C493.904 209.927 493.892 209.895 493.878 209.863C493.858 209.823 493.838 209.784 493.818 209.744C493.838 209.784 493.857 209.823 493.877 209.863ZM69.5646 202.687C69.5748 202.697 69.5852 202.706 69.5954 202.716C69.5397 202.667 69.4862 202.617 69.4331 202.567C69.4764 202.607 69.5197 202.648 69.5646 202.687ZM484.045 202.687C484.055 202.697 484.065 202.706 484.075 202.716C484.02 202.667 483.966 202.617 483.913 202.567C483.956 202.607 484 202.648 484.045 202.687ZM68.0164 200.161C68.019 200.171 68.0222 200.181 68.0248 200.191C68.0185 200.166 68.0121 200.142 68.0062 200.117C68.0097 200.132 68.0128 200.147 68.0164 200.161ZM482.496 200.161C482.498 200.171 482.502 200.181 482.505 200.191C482.498 200.166 482.492 200.142 482.486 200.117C482.49 200.132 482.493 200.147 482.496 200.161ZM79.4935 196.36C79.4915 196.356 79.49 196.35 79.4879 196.345C79.4866 196.341 79.4845 196.338 79.4833 196.334C79.4866 196.343 79.4899 196.352 79.4935 196.36ZM493.973 196.36C493.971 196.356 493.97 196.35 493.967 196.345C493.966 196.341 493.964 196.338 493.963 196.334C493.966 196.343 493.97 196.352 493.973 196.36ZM80.2293 176.151L78.1048 174.202L77.0957 173.278L80.2293 176.151ZM494.709 176.151L492.584 174.202L491.576 173.278L494.709 176.151ZM77.9118 148.511L77.9127 148.512C77.978 148.445 78.0399 148.375 78.1011 148.305C78.0396 148.374 77.977 148.444 77.9118 148.511ZM492.391 148.511L492.392 148.512C492.457 148.445 492.519 148.375 492.581 148.305C492.519 148.374 492.456 148.444 492.391 148.511ZM78.3099 148.061C78.2732 148.107 78.2336 148.151 78.1952 148.197C78.214 148.174 78.2337 148.153 78.2522 148.13C78.2713 148.107 78.2913 148.085 78.3099 148.061ZM492.79 148.06C492.752 148.107 492.713 148.151 492.675 148.197C492.694 148.174 492.713 148.153 492.732 148.13C492.751 148.107 492.771 148.084 492.79 148.06ZM79.597 144.145C79.6003 144.781 79.5264 145.379 79.3779 145.939C79.3991 145.859 79.4213 145.778 79.4394 145.697C79.4829 145.502 79.5173 145.301 79.543 145.097C79.5557 144.994 79.5663 144.891 79.5747 144.786C79.5914 144.578 79.599 144.364 79.598 144.146L79.597 144.145ZM494.077 144.145C494.08 144.781 494.006 145.379 493.857 145.939C493.878 145.859 493.901 145.778 493.92 145.697C493.963 145.502 493.997 145.301 494.023 145.097C494.035 144.994 494.046 144.891 494.054 144.786C494.071 144.578 494.079 144.364 494.078 144.146L494.077 144.145ZM78.4508 140.5C79.0164 141.256 79.3706 142.126 79.5178 143.109L79.5187 143.108C79.3713 142.126 79.0168 141.256 78.4518 140.501L78.4508 140.5ZM492.931 140.5C493.496 141.256 493.851 142.126 493.998 143.109L493.999 143.108C493.851 142.126 493.496 141.255 492.931 140.5ZM71.4028 140.644C71.3198 140.686 71.24 140.734 71.1613 140.783C71.2222 140.745 71.2844 140.709 71.3478 140.676C71.4263 140.634 71.506 140.592 71.5885 140.555L71.4028 140.644ZM485.883 140.644C485.8 140.686 485.72 140.734 485.641 140.783C485.702 140.745 485.765 140.709 485.828 140.676C485.906 140.634 485.986 140.592 486.068 140.555L485.883 140.644ZM72.6199 140.247L72.6209 140.248C72.6231 140.247 72.6253 140.247 72.6275 140.247C72.6998 140.235 72.773 140.222 72.8475 140.213C72.7705 140.223 72.6946 140.234 72.6199 140.247ZM487.1 140.247L487.101 140.248C487.103 140.247 487.107 140.247 487.107 140.247C487.18 140.235 487.253 140.222 487.327 140.213C487.251 140.223 487.174 140.234 487.1 140.247ZM67.7367 125.526L70.3033 125.509L72.8336 125.491L67.7367 125.526ZM482.217 125.526L484.783 125.509L484.983 125.507L482.217 125.526ZM77.1721 124.669C77.1682 124.665 77.1641 124.661 77.16 124.656C77.1401 124.637 77.1197 124.618 77.0994 124.6C77.1239 124.623 77.1483 124.646 77.1721 124.669ZM136.937 104.49L136.973 110.493L139.42 104.476L136.937 104.49ZM493.895 108.747C493.895 108.703 493.894 108.658 493.892 108.614C493.892 108.61 493.891 108.606 493.891 108.602C493.893 108.65 493.895 108.699 493.895 108.747ZM110.71 81.3699L110.683 76.787L110.653 71.7554L110.71 81.3699ZM182.427 81.2282C182.299 81.2456 182.169 81.2578 182.034 81.2665C182.053 81.2653 182.072 81.2659 182.091 81.2646C182.206 81.2561 182.318 81.2431 182.427 81.2282ZM182.444 81.2264C182.459 81.2243 182.473 81.2229 182.489 81.2207C182.554 81.2111 182.617 81.1999 182.679 81.1881C182.602 81.2027 182.523 81.2152 182.444 81.2264ZM203.161 81.1433C203.236 81.1465 203.314 81.1476 203.39 81.1471C203.234 81.1481 203.08 81.141 202.93 81.1266C203.006 81.1339 203.084 81.14 203.161 81.1433ZM225.392 81.0072C225.471 81.0109 225.553 81.0123 225.635 81.0118C225.672 81.0116 225.71 81.0085 225.748 81.0072L225.634 81.0109C225.47 81.012 225.311 81.0051 225.154 80.9894L225.392 81.0072ZM224.693 80.9176C224.735 80.9265 224.777 80.9333 224.819 80.9409L224.691 80.9167C224.675 80.9131 224.658 80.9084 224.641 80.9045C224.659 80.9085 224.676 80.9139 224.693 80.9176ZM226.665 80.8663C226.704 80.8552 226.743 80.8434 226.783 80.8309L226.786 80.829C226.746 80.8421 226.705 80.8548 226.665 80.8663ZM226.874 80.8002C226.878 80.7989 226.881 80.7977 226.885 80.7964C226.907 80.7885 226.929 80.7795 226.952 80.7712C226.983 80.759 227.015 80.7462 227.046 80.733C226.99 80.7567 226.932 80.7794 226.874 80.8002ZM271.853 80.7172C271.869 80.718 271.885 80.7173 271.902 80.718C271.847 80.7151 271.793 80.712 271.739 80.7078C271.777 80.7109 271.816 80.7149 271.853 80.7172ZM274.914 79.8694C274.267 80.3387 273.534 80.6158 272.711 80.6994C272.721 80.6984 272.731 80.6985 272.74 80.6975C273.551 80.6105 274.275 80.3335 274.914 79.8694ZM117.401 80.0773C117.487 80.1893 117.575 80.2972 117.666 80.3972C117.749 80.4873 117.835 80.5705 117.921 80.6509L117.92 80.6499C117.729 80.4724 117.549 80.2712 117.378 80.0465C117.386 80.0567 117.393 80.0673 117.401 80.0773ZM223.617 80.5176C223.659 80.5404 223.702 80.5606 223.744 80.5819C223.69 80.5549 223.637 80.527 223.583 80.498C223.595 80.5042 223.606 80.5114 223.617 80.5176ZM227.548 80.4737C227.557 80.4684 227.567 80.4633 227.574 80.4579C227.584 80.4519 227.593 80.4453 227.602 80.4392C227.585 80.4508 227.566 80.4624 227.548 80.4737ZM306.869 80.4737C306.893 80.4705 306.917 80.468 306.939 80.4644C306.955 80.462 306.97 80.4576 306.985 80.455C306.947 80.4614 306.908 80.4683 306.869 80.4737ZM413.312 80.3301L414.958 78.2027L415.738 77.1927L413.312 80.3301ZM357.211 80.1818C357.345 80.1951 357.48 80.202 357.618 80.2033H357.691L357.389 80.1949C357.299 80.1895 357.209 80.1804 357.119 80.1696C357.15 80.1734 357.18 80.1787 357.211 80.1818ZM357.958 80.1921C357.963 80.1917 357.967 80.1924 357.971 80.1921C358.045 80.1867 358.119 80.18 358.191 80.1706C358.114 80.1805 358.036 80.1867 357.958 80.1921ZM356.851 80.1286C356.893 80.1366 356.935 80.1452 356.978 80.152C357.008 80.1566 357.037 80.1591 357.067 80.1632C356.99 80.1529 356.915 80.1401 356.84 80.1258C356.843 80.1265 356.847 80.1279 356.851 80.1286ZM370.892 80.123L371.114 80.1165C371.119 80.1162 371.124 80.114 371.128 80.1137C371.051 80.1179 370.972 80.1226 370.892 80.123ZM356.751 80.109C356.761 80.1114 356.773 80.1126 356.783 80.1146C356.696 80.0969 356.611 80.0773 356.526 80.054L356.751 80.109ZM228.253 79.9085C228.193 79.9691 228.132 80.0273 228.07 80.0829L228.254 79.9095C228.314 79.8488 228.374 79.7849 228.431 79.7192L228.253 79.9085ZM369.964 80.0251C370.008 80.0351 370.053 80.0443 370.098 80.053C370.027 80.0397 369.957 80.0247 369.887 80.0074C369.913 80.0137 369.939 80.0193 369.964 80.0251ZM382.346 80.0465C382.431 80.05 382.517 80.0518 382.604 80.0512L382.333 80.0456C382.337 80.0458 382.341 80.0464 382.346 80.0465ZM355.88 79.8143C355.895 79.8215 355.91 79.8279 355.925 79.8348C355.98 79.86 356.036 79.8842 356.092 79.9066L355.88 79.8143ZM285.985 79.8013C285.985 79.8013 285.981 79.8038 285.98 79.805L285.987 79.8003L285.985 79.8013ZM384.351 79.7266C384.363 79.7222 384.376 79.7186 384.388 79.7136C384.419 79.7014 384.448 79.6874 384.478 79.6745C384.436 79.6926 384.394 79.7098 384.351 79.7266ZM355.673 79.7089C355.676 79.7106 355.679 79.7119 355.683 79.7136L355.645 79.6921C355.654 79.6976 355.664 79.7036 355.673 79.7089ZM438.57 79.389C438.719 79.4465 438.872 79.4979 439.029 79.5392C439.194 79.5828 439.364 79.617 439.536 79.6428C439.623 79.6556 439.71 79.666 439.798 79.6745C439.974 79.6912 440.155 79.6988 440.338 79.6978L440.339 79.6968C439.704 79.7006 439.115 79.5976 438.57 79.389ZM396.137 79.6428C396.14 79.6417 396.141 79.641 396.144 79.6399C396.148 79.6383 396.151 79.636 396.155 79.6344C396.149 79.637 396.143 79.6401 396.137 79.6428ZM355.472 79.5923C355.489 79.6031 355.507 79.6128 355.525 79.6231C355.497 79.606 355.467 79.5888 355.439 79.5709C355.45 79.5778 355.46 79.5856 355.472 79.5923ZM442.92 78.9339C442.406 79.2796 441.836 79.507 441.214 79.6176L441.215 79.6185C441.836 79.5078 442.405 79.2802 442.919 78.9348L442.92 78.9339ZM396.243 79.5952C396.248 79.5926 396.254 79.5902 396.26 79.5877C396.263 79.5864 396.265 79.5843 396.268 79.5831C396.26 79.587 396.251 79.591 396.243 79.5952ZM374.255 78.3641C374.204 78.4365 374.15 78.5069 374.097 78.5749C374.15 78.5066 374.204 78.4358 374.256 78.3631L374.255 78.3641ZM437.257 78.6084C437.288 78.6344 437.32 78.658 437.351 78.6831C437.312 78.6514 437.271 78.6201 437.232 78.587L437.257 78.6084ZM284.628 78.4285C284.478 78.4751 284.308 78.5106 284.116 78.532C283.965 78.549 283.799 78.5589 283.622 78.56C283.979 78.5578 284.282 78.5241 284.534 78.4583L284.628 78.4285ZM437.033 78.4079C437.078 78.4512 437.126 78.4918 437.173 78.5328C437.098 78.4666 437.023 78.3978 436.951 78.3258L437.033 78.4079ZM436.653 78.0106C436.708 78.0746 436.764 78.1362 436.823 78.1962C436.765 78.1358 436.709 78.0737 436.654 78.0097L436.653 78.0106ZM308.211 77.936C308.15 77.9963 308.088 78.0549 308.023 78.1085C308.096 78.0478 308.167 77.982 308.236 77.9127C308.228 77.9207 308.219 77.9281 308.211 77.936ZM304.303 77.9201C304.34 77.9584 304.378 77.9954 304.417 78.0312C304.357 77.9757 304.298 77.9159 304.24 77.8539L304.303 77.9201ZM353.884 77.9817C353.894 77.9985 353.906 78.0145 353.916 78.0312C353.893 77.9945 353.869 77.9576 353.847 77.9201C353.859 77.9408 353.871 77.9614 353.884 77.9817ZM291.863 77.5648L291.87 77.5741C291.865 77.5688 291.863 77.5626 291.859 77.5574C291.86 77.5596 291.862 77.5626 291.863 77.5648ZM456.786 77.2692C456.789 77.2652 456.793 77.261 456.797 77.257C456.813 77.2372 456.829 77.2166 456.845 77.1964C456.825 77.2208 456.805 77.2453 456.786 77.2692ZM291.453 76.9212C291.443 76.9027 291.436 76.8831 291.426 76.8644C291.422 76.8557 291.417 76.847 291.414 76.8382C291.426 76.8659 291.438 76.894 291.453 76.9212ZM269.002 76.4214C269.031 76.515 269.061 76.6066 269.096 76.6956L269.097 76.6965C269.062 76.6071 269.031 76.5154 269.002 76.4214ZM291.247 76.427C291.245 76.4175 291.241 76.4076 291.238 76.3981C291.231 76.3798 291.226 76.3605 291.221 76.3421C291.217 76.3322 291.212 76.3223 291.209 76.3122C291.221 76.3507 291.234 76.3893 291.247 76.427ZM277.105 76.4196C277.12 76.3526 277.135 76.2852 277.148 76.2171C277.152 76.198 277.154 76.1785 277.158 76.1593C277.142 76.247 277.124 76.3337 277.105 76.4196ZM287.222 76.1136L287.221 76.109C287.218 76.094 287.215 76.0789 287.211 76.0642L287.209 76.0595C287.213 76.0775 287.218 76.0955 287.222 76.1136ZM277.23 75.6678C277.232 75.6531 277.234 75.6379 277.235 75.6231C277.24 75.5844 277.242 75.5454 277.246 75.5065C277.241 75.5605 277.235 75.6144 277.23 75.6678ZM218.183 75.153C218.311 75.2992 218.424 75.4545 218.522 75.6194L218.481 75.5484C218.444 75.4906 218.405 75.4343 218.364 75.3787C218.308 75.3009 218.247 75.226 218.183 75.153ZM375.372 75.5904C375.387 75.4962 375.401 75.401 375.415 75.3051C375.416 75.2921 375.417 75.2789 375.418 75.2658C375.404 75.3752 375.39 75.4835 375.372 75.5904ZM290.986 75.097C290.993 75.1926 291.003 75.2864 291.014 75.3787C291.011 75.353 291.009 75.3272 291.006 75.3013C291.001 75.2567 290.997 75.2116 290.993 75.1661C290.992 75.1432 290.989 75.1202 290.986 75.097ZM277.26 75.3339C277.261 75.3281 277.262 75.3221 277.262 75.3162C277.27 75.2126 277.276 75.1079 277.278 75.0019C277.275 75.1139 277.268 75.2245 277.26 75.3339ZM353.009 75.1941C353.011 75.2131 353.014 75.232 353.016 75.2509C353.008 75.1731 352.999 75.0945 352.993 75.015C352.998 75.0751 353.002 75.1349 353.009 75.1941ZM375.43 75.1661C375.436 75.1159 375.443 75.0656 375.448 75.015C375.452 74.9749 375.453 74.9341 375.457 74.8937C375.449 74.9853 375.44 75.076 375.43 75.1661ZM352.98 74.8593C352.981 74.876 352.983 74.893 352.984 74.9096C352.977 74.8086 352.972 74.7063 352.967 74.6027C352.971 74.6892 352.973 74.7747 352.98 74.8593ZM445.338 74.8937C445.352 74.7952 445.364 74.6952 445.376 74.5943C445.38 74.557 445.382 74.5193 445.385 74.4815C445.373 74.6211 445.358 74.7585 445.338 74.8937ZM290.966 74.598C290.966 74.6864 290.969 74.7735 290.972 74.8593C290.972 74.8534 290.971 74.8472 290.971 74.8415C290.968 74.7612 290.967 74.6796 290.967 74.5972L290.966 74.598ZM310.684 74.8321L310.685 74.8313V74.6932L310.686 74.6923C310.686 74.6861 310.685 74.6798 310.685 74.6736L310.684 74.8321ZM286.131 74.3733C286.275 74.4786 286.407 74.5994 286.529 74.7352C286.488 74.6898 286.447 74.6447 286.404 74.6027C286.318 74.5194 286.227 74.4432 286.131 74.3733ZM123.328 74.5495C123.331 74.5654 123.334 74.5812 123.336 74.5972C123.33 74.5612 123.326 74.5253 123.319 74.4898L123.328 74.5495ZM123.309 74.4405C123.298 74.3859 123.29 74.3315 123.277 74.2782C123.271 74.2529 123.265 74.2277 123.258 74.2027C123.277 74.2805 123.293 74.3598 123.309 74.4405ZM123.23 74.0954C123.22 74.0539 123.211 74.0121 123.2 73.9714L123.186 73.9303C123.203 73.9844 123.216 74.0398 123.23 74.0954ZM285.315 73.9704C285.431 74.0055 285.544 74.0473 285.652 74.0954C285.545 74.0473 285.432 74.0045 285.316 73.9695L285.315 73.9704ZM379.18 73.6328C379.174 73.7712 379.169 73.9129 379.17 74.0581L379.171 74.0571C379.171 73.9122 379.174 73.7708 379.18 73.6328ZM246.882 73.7428C247.077 73.8117 247.259 73.8941 247.427 73.9919L247.428 73.9909C247.26 73.8931 247.078 73.8113 246.882 73.7428ZM122.962 73.3325C122.994 73.4017 123.025 73.4729 123.055 73.5451C123.023 73.4663 122.99 73.3883 122.954 73.3129L122.962 73.3325ZM283.56 73.5228C283.554 73.5234 283.547 73.5249 283.542 73.5256C283.591 73.52 283.64 73.5116 283.687 73.5031C283.646 73.5108 283.603 73.5175 283.56 73.5228ZM283.943 73.436C283.938 73.4378 283.933 73.4398 283.927 73.4416C283.921 73.4439 283.914 73.4464 283.907 73.4491C283.946 73.4365 283.985 73.4235 284.021 73.408L284.022 73.4071C283.996 73.4178 283.969 73.4264 283.943 73.436ZM200.59 73.3287C200.593 73.3194 200.597 73.3102 200.601 73.3007C200.612 73.2628 200.623 73.225 200.635 73.188C200.62 73.2343 200.603 73.2811 200.59 73.3287ZM291.091 73.2477C291.087 73.2652 291.085 73.2831 291.081 73.3007C291.086 73.2761 291.09 73.2515 291.096 73.2271L291.091 73.2477ZM200.87 72.6106C200.786 72.7766 200.712 72.9528 200.65 73.1394L200.67 73.0844C200.736 72.897 200.813 72.7199 200.9 72.5537L200.87 72.6106ZM284.538 72.9976L284.559 72.9735C284.573 72.9524 284.585 72.9291 284.598 72.9072C284.58 72.9381 284.559 72.9682 284.538 72.9976ZM443.631 72.7188C443.641 72.7911 443.652 72.8644 443.66 72.9389C443.652 72.862 443.642 72.786 443.631 72.7113V72.7188ZM360.933 72.8802L360.905 72.743C360.89 72.6728 360.872 72.603 360.855 72.5351C360.885 72.6462 360.91 72.7624 360.933 72.8802ZM217.929 72.8373C217.933 72.8229 217.938 72.8089 217.941 72.7944C217.947 72.7628 217.95 72.7304 217.956 72.6983C217.949 72.7453 217.939 72.7915 217.929 72.8373ZM228.599 72.7664C228.573 72.7058 228.546 72.6454 228.518 72.5873C228.505 72.5614 228.491 72.5362 228.478 72.5108C228.521 72.5935 228.562 72.6785 228.599 72.7664ZM217.963 72.6592C217.964 72.6481 217.967 72.6366 217.968 72.6255C217.974 72.5816 217.978 72.5371 217.983 72.4921C217.977 72.5487 217.971 72.6043 217.963 72.6592ZM122.353 72.4054C122.384 72.44 122.416 72.4746 122.446 72.5108L122.324 72.3709C122.303 72.3474 122.281 72.3246 122.26 72.3019C122.292 72.3352 122.322 72.3704 122.353 72.4054ZM269.215 72.4036C269.208 72.4167 269.203 72.4304 269.197 72.4437C269.23 72.3717 269.264 72.3006 269.3 72.232L269.215 72.4036ZM310.344 71.9158C310.343 71.9128 310.344 71.9085 310.343 71.9056C310.32 71.8305 310.296 71.7567 310.273 71.6836C310.298 71.7596 310.32 71.8376 310.344 71.9158ZM121.548 71.7246C121.593 71.7513 121.639 71.7797 121.683 71.8095L121.548 71.7246C121.503 71.6977 121.457 71.672 121.411 71.6482L121.548 71.7246ZM443.371 71.678L443.297 71.4924L443.27 71.4374C443.305 71.5159 443.34 71.5955 443.371 71.678ZM310.264 71.6603C310.263 71.6579 310.263 71.6551 310.262 71.6528C310.25 71.6161 310.236 71.5799 310.224 71.5437C310.215 71.5198 310.206 71.4964 310.197 71.4728C310.22 71.5346 310.243 71.5969 310.264 71.6603ZM269.725 71.6099C269.729 71.6051 269.733 71.6016 269.737 71.5969V71.595C269.733 71.5999 269.729 71.6049 269.725 71.6099ZM373.025 71.2956C373.057 71.3433 373.087 71.3916 373.117 71.4411L373.017 71.2807C373.019 71.2854 373.022 71.291 373.025 71.2956ZM180.71 71.2443C180.658 71.2721 180.605 71.3024 180.555 71.3347C180.536 71.3466 180.517 71.3606 180.499 71.373C180.584 71.3164 180.67 71.266 180.758 71.222C180.779 71.2112 180.801 71.2003 180.823 71.1902C180.785 71.2076 180.747 71.2246 180.71 71.2443ZM273.93 70.9944C274.006 71.0494 274.083 71.1084 274.156 71.1715C274.112 71.1335 274.067 71.0956 274.022 71.0606C273.991 71.0375 273.961 71.0161 273.93 70.9944ZM270.387 70.9944C270.344 71.0254 270.301 71.0578 270.258 71.0914C270.304 71.0552 270.351 71.0209 270.397 70.9879L270.387 70.9944ZM443.023 70.9766L442.917 70.819L442.909 70.8079C442.948 70.8628 442.986 70.9189 443.023 70.9766ZM226.726 70.8946C226.744 70.9014 226.762 70.907 226.781 70.9141C226.741 70.8982 226.701 70.8834 226.661 70.8694C226.644 70.8631 226.626 70.8584 226.608 70.8526C226.648 70.8658 226.687 70.8795 226.726 70.8946ZM273.688 70.8376L273.597 70.7854C273.567 70.7695 273.537 70.7555 273.506 70.7407C273.567 70.7708 273.628 70.803 273.688 70.8376ZM271.165 70.5952C271.005 70.6492 270.851 70.7169 270.701 70.7985C270.802 70.7436 270.905 70.6954 271.011 70.653C271.061 70.6325 271.113 70.6128 271.165 70.5952ZM225.914 70.7239C226.013 70.7288 226.11 70.7383 226.206 70.7537L226.067 70.7351C226.017 70.7297 225.965 70.7265 225.914 70.7239ZM228.028 69.8407C228.276 70.0571 228.506 70.3132 228.719 70.6092L228.72 70.6101C228.507 70.3141 228.276 70.0572 228.028 69.8407C227.993 69.8111 227.959 69.7839 227.924 69.7558L228.028 69.8407ZM297.007 69.3268C296.914 69.2626 296.818 69.2041 296.722 69.1477C296.819 69.2035 296.915 69.2626 297.007 69.3268ZM296.712 69.1412C296.666 69.1146 296.62 69.0878 296.574 69.0628C296.526 69.0376 296.477 69.0145 296.429 68.991L296.425 68.9902C296.522 69.0372 296.618 69.0873 296.712 69.1412ZM284.422 68.978C284.407 68.9744 284.392 68.9693 284.377 68.9659C284.357 68.9616 284.337 68.9587 284.317 68.9546C284.352 68.9617 284.388 68.9699 284.422 68.978ZM283.943 68.9015C284.058 68.9126 284.169 68.9277 284.276 68.9472C284.217 68.9358 284.155 68.923 284.093 68.9146C284.09 68.9142 284.087 68.914 284.084 68.9137L283.943 68.9015ZM393.037 68.1013C393.025 68.1046 393.015 68.1082 393.004 68.1115C393.034 68.1023 393.064 68.0941 393.095 68.0855C393.076 68.091 393.056 68.0956 393.037 68.1013ZM121.451 599.171C121.484 599.164 121.518 599.159 121.55 599.152C121.601 599.139 121.652 599.125 121.702 599.11C121.619 599.133 121.536 599.153 121.451 599.171Z" fill="black"/>
<rect x="79.3076" y="98" width="404" height="401" fill="black"/>
</svg>
