<svg width="174" height="58" viewBox="0 0 174 58" fill="none" xmlns="http://www.w3.org/2000/svg">
<path d="M153.28 18.3086V24.6035C152.248 24.6035 151.533 24.4112 151.136 24.0273C150.752 23.6301 150.561 22.796 150.561 21.5254V21.1875C150.561 19.9432 150.732 19.1552 151.076 18.8242C151.42 18.4801 151.884 18.3086 152.467 18.3086H153.28ZM130.504 20.5527C130.504 15.7449 131.92 9.55082 137.291 5.18359L137.823 4.7666C140.977 2.38647 144.537 1.51154 146.885 1.09961C149.519 0.637625 152.401 0.476562 155.326 0.476562H173.973V52.2451H130.504V33.3604C130.504 32.3935 130.526 31.1517 130.655 29.8262H132.49V39.5361H140.473V13.1855H132.49V22.6572H130.559C130.514 21.8562 130.504 21.1425 130.504 20.5527ZM150.561 39.5361V32.2881C150.561 31.0838 150.752 30.2631 151.136 29.8262C151.533 29.3894 152.248 29.171 153.28 29.1709V39.5361H161.264V13.1855H155.326L154.401 13.1924C149.879 13.2598 146.904 13.8333 145.477 14.9131C143.968 16.0516 143.213 17.9317 143.213 20.5527C143.213 22.9222 143.497 24.5704 144.066 25.4971C144.636 26.4105 145.88 26.9529 147.8 27.125C146.317 27.5221 145.265 27.9193 144.643 28.3164C144.034 28.7136 143.643 29.2632 143.471 29.9648C143.299 30.6532 143.213 31.7851 143.213 33.3604V39.5361H150.561Z" fill="white"/>
<path d="M140.473 13.1855H132.49V22.6572H129.61V13.1855H121.647V39.5361H129.61V29.8262H132.49V39.5361H140.473V13.1855ZM109.972 19.1221V33.2012H108.938V19.1221H109.972ZM153.182 18.3086V24.6006C152.202 24.5886 151.52 24.3989 151.136 24.0273C150.752 23.6301 150.561 22.796 150.561 21.5254V21.1875C150.561 19.9432 150.732 19.1552 151.076 18.8242C151.42 18.4801 151.884 18.3086 152.467 18.3086H153.182ZM153.182 13.2246C149.34 13.3711 146.771 13.9336 145.477 14.9131C143.968 16.0516 143.213 17.9317 143.213 20.5527C143.213 22.9222 143.497 24.5704 144.066 25.4971C144.636 26.4105 145.88 26.9529 147.8 27.125C146.317 27.5221 145.265 27.9193 144.643 28.3164C144.034 28.7136 143.643 29.2632 143.471 29.9648C143.299 30.6532 143.213 31.7851 143.213 33.3604V39.5361H150.561V32.2881C150.561 31.0838 150.752 30.2631 151.136 29.8262C151.52 29.4034 152.202 29.1865 153.182 29.1729V52.2451H108.938V39.5361H114.28V44.6201H119.642V33.2012H117.935V13.1855H108.938V0.476562H153.182V13.2246Z" fill="white"/>
<path d="M100.618 13.1855V14.1582C100.618 18.6725 100.288 22.5912 99.626 25.9141C98.9773 29.2234 98.1433 31.6659 97.124 33.2412H95.416V44.6201H100.777V39.5361H114.28V44.6201H119.642V33.2012H117.935V13.1855H100.618ZM109.972 19.1221V33.2012H105.504C107.092 28.8988 107.887 24.2984 107.887 19.4004V19.1221H109.972ZM129.61 13.1855H121.647V39.5361H129.61V29.8262H132.351V57.3281H82.707V39.5361H86.2412V20.5322H87.5986C87.7957 18.7342 87.9092 16.6198 87.9092 14.1582V0.476562H130.644V20.4932H132.351V22.6572H129.61V13.1855Z" fill="white"/>
<path d="M76.1543 13.1855L73.8311 27.7412L71.2686 13.1855H61.3203V39.5361H68.1914V21.3662L71.6465 39.5361H76.0352L79.3711 21.3662V39.5361H86.2412V13.1855H76.1543ZM49.5254 17.375C49.9753 17.3751 50.2734 17.5737 50.4189 17.9707C50.5646 18.3679 50.6367 19.2488 50.6367 20.6123V22.5381H48.6113V17.6914C48.7872 17.4814 49.0911 17.375 49.5254 17.375ZM98.9502 28.8066C98.4274 30.6881 97.8193 32.1666 97.124 33.2412H95.416V44.6201H98.9502V52.2451H48.6113V39.9746C48.9658 39.9984 49.3303 40.0127 49.7041 40.0127C51.4514 40.0127 52.9011 39.7681 54.0527 39.2783C55.2176 38.7753 56.1771 38.027 56.9316 37.0342C57.6862 36.0414 58.1627 35.108 58.3613 34.2344C58.5731 33.3607 58.6797 32.1096 58.6797 30.4814V28.5352H51.0742V32.0098C51.0742 33.3204 50.9677 34.2076 50.7559 34.6709C50.5573 35.121 50.1538 35.3457 49.5449 35.3457C49.1054 35.3457 48.795 35.2068 48.6113 34.9297V26.8271H58.6797V23.332C58.6797 20.7772 58.3818 18.7977 57.7861 17.3945C57.2036 15.9781 56.1774 14.8462 54.708 13.999C53.2518 13.1385 51.398 12.709 49.1475 12.709C48.9667 12.709 48.788 12.7128 48.6113 12.7197V0.476562H98.9502V28.8066Z" fill="white"/>
<path d="M49.1475 0C52.9059 0 57.1292 0.705043 61.0547 2.98926H61.0557C61.0681 2.99644 61.0803 3.00451 61.0928 3.01172C61.1193 3.02724 61.1463 3.04195 61.1729 3.05762L61.1719 3.05859C64.712 5.12933 67.7268 8.24469 69.4834 12.4287H69.4844C69.4894 12.4406 69.493 12.453 69.498 12.4648C69.5116 12.4972 69.5267 12.529 69.54 12.5615H69.5381C69.6243 12.7689 69.7074 12.9767 69.7861 13.1855H61.3203V39.5361H68.1914V21.3662L71.3877 38.1748V39.5361H69.9922C69.194 41.6038 68.1017 43.3396 67.0498 44.7236C64.9482 47.4889 62.2262 49.5914 59.0908 50.9453L59.0264 50.9727C55.8102 52.3405 52.5301 52.7216 49.7041 52.7217C46.8057 52.7217 43.7376 52.3048 40.7266 51.168C37.9115 50.1051 34.9509 48.3621 32.5391 45.5557L32.4697 45.4756L32.4023 45.3936C30.5969 43.2203 29.2113 40.6698 28.4277 37.7969L28.4219 37.7764L28.416 37.7568C28.2709 37.2179 28.1511 36.6718 28.0498 36.125L30.7598 21.3662V39.5361H37.6299V13.1855H28.9834C29.1919 12.604 29.4258 12.023 29.6953 11.4482C31.6138 7.34299 34.7777 4.31928 38.5371 2.43555V2.43457C38.5517 2.42722 38.5665 2.4204 38.5811 2.41309C38.5947 2.40631 38.6085 2.39932 38.6221 2.39258V2.39355C42.0526 0.680827 45.665 2.72096e-05 49.1475 0ZM49.1475 12.709C47.3074 12.709 45.6791 13.0664 44.2627 13.7812C42.8464 14.4828 41.8273 15.502 41.2051 16.8389C40.5829 18.1627 40.2715 19.9768 40.2715 22.2803V29.9648C40.2715 31.9239 40.4105 33.4196 40.6885 34.4521C40.9665 35.4715 41.4629 36.412 42.1777 37.2725C42.9058 38.1197 43.9185 38.7885 45.2158 39.2783C46.5132 39.7681 48.0096 40.0127 49.7041 40.0127C51.4514 40.0127 52.9011 39.7681 54.0527 39.2783C55.2176 38.7753 56.1771 38.027 56.9316 37.0342C57.6862 36.0414 58.1627 35.108 58.3613 34.2344C58.5731 33.3607 58.6797 32.1096 58.6797 30.4814V28.5352H51.0742V32.0098C51.0742 33.3204 50.9677 34.2076 50.7559 34.6709C50.5573 35.121 50.1538 35.3457 49.5449 35.3457C49.0551 35.3457 48.7239 35.1742 48.5518 34.8301C48.3797 34.4859 48.2939 33.7178 48.2939 32.5264V26.8271H58.6797V23.332C58.6797 20.7772 58.3818 18.7977 57.7861 17.3945C57.2036 15.9781 56.1774 14.8462 54.708 13.999C53.2518 13.1385 51.398 12.709 49.1475 12.709ZM49.5254 17.375C49.9753 17.3751 50.2734 17.5737 50.4189 17.9707C50.5646 18.3679 50.6367 19.2488 50.6367 20.6123V22.5381H48.2939V20.6123C48.2939 19.13 48.3599 18.2228 48.4922 17.8916C48.6246 17.5474 48.9694 17.375 49.5254 17.375Z" fill="white"/>
<path d="M27.543 13.1855L25.2197 27.7412L22.6572 13.1855H12.709V39.5361H19.5801V21.3662L23.0352 39.5361H27.4238L30.7598 21.3662V39.5361H37.6299V13.1855H27.543ZM50.3389 35.1543C50.1314 35.2807 49.8677 35.3457 49.5449 35.3457C49.0551 35.3457 48.7239 35.1742 48.5518 34.8301C48.3797 34.4859 48.2939 33.7178 48.2939 32.5264V26.8271H50.3389V35.1543ZM49.5254 17.375C49.9061 17.3751 50.1761 17.5184 50.3389 17.8027V22.5381H48.2939V20.6123C48.2939 19.13 48.3599 18.2228 48.4922 17.8916C48.6246 17.5474 48.9694 17.375 49.5254 17.375ZM49.1475 12.709C47.3074 12.709 45.6791 13.0664 44.2627 13.7812C42.8464 14.4828 41.8273 15.502 41.2051 16.8389C40.5829 18.1627 40.2715 19.9768 40.2715 22.2803V29.9648C40.2715 31.9239 40.4105 33.4196 40.6885 34.4521C40.9665 35.4715 41.4629 36.412 42.1777 37.2725C42.9058 38.1197 43.9185 38.7885 45.2158 39.2783C46.5132 39.7681 48.0096 40.0127 49.7041 40.0127C49.9203 40.0127 50.1318 40.0085 50.3389 40.001V52.2451H0V0.476562H50.3389V12.751C49.955 12.7224 49.5577 12.709 49.1475 12.709Z" fill="white"/>
<rect x="9.91797" y="8.53613" width="160" height="36" fill="white"/>
</svg>
