<svg width="253" height="58" viewBox="0 0 253 58" fill="none" xmlns="http://www.w3.org/2000/svg">
<path d="M229.653 13.1855L227.329 27.7412L224.768 13.1855H214.819V39.5361H221.69V21.3662L225.146 39.5361H229.534L232.87 21.3662V39.5361H239.74V13.1855H229.653ZM203.023 17.375C203.474 17.375 203.772 17.5736 203.918 17.9707C204.064 18.3679 204.136 19.2488 204.136 20.6123V22.5381H202.11V17.6904C202.286 17.4809 202.59 17.3751 203.023 17.375ZM252.449 52.2451H202.11V39.9746C202.465 39.9984 202.829 40.0127 203.203 40.0127C204.95 40.0126 206.4 39.7681 207.552 39.2783C208.717 38.7753 209.676 38.027 210.431 37.0342C211.185 36.0414 211.662 35.108 211.86 34.2344C212.072 33.3607 212.179 32.1096 212.179 30.4814V28.5352H204.573V32.0098C204.573 33.3203 204.467 34.2075 204.255 34.6709C204.056 35.121 203.653 35.3457 203.044 35.3457C202.604 35.3457 202.294 35.2068 202.11 34.9297V26.8271H212.179V23.332C212.179 20.7772 211.88 18.7977 211.284 17.3945C210.702 15.9783 209.676 14.8462 208.207 13.999C206.751 13.1385 204.897 12.709 202.646 12.709C202.466 12.709 202.287 12.7128 202.11 12.7197V0.476562H252.449V52.2451Z" fill="white"/>
<path d="M202.646 0C206.405 0 210.628 0.705019 214.554 2.98926H214.555C214.567 2.99645 214.579 3.0045 214.592 3.01172C214.618 3.02724 214.645 3.04195 214.672 3.05762L214.671 3.05859C218.211 5.12927 221.225 8.24487 222.981 12.4287H222.983C222.993 12.4523 223.002 12.4764 223.012 12.5C223.02 12.5206 223.03 12.5409 223.038 12.5615H223.036C223.122 12.769 223.206 12.9766 223.285 13.1855H214.819V39.5361H221.69V21.3662L224.887 38.1748V39.5361H223.491C222.693 41.6038 221.601 43.3396 220.549 44.7236C218.447 47.4889 215.725 49.5914 212.59 50.9453L212.525 50.9727C209.309 52.3404 206.029 52.7216 203.203 52.7217C200.305 52.7217 197.237 52.3048 194.226 51.168C191.411 50.1051 188.45 48.3621 186.038 45.5557L185.969 45.4756L185.901 45.3936C184.096 43.2203 182.71 40.6698 181.927 37.7969L181.921 37.7764L181.915 37.7568C181.77 37.218 181.65 36.6718 181.549 36.125L184.259 21.3662V39.5361H191.129V13.1855H182.482C182.691 12.604 182.925 12.023 183.194 11.4482C185.113 7.34299 188.277 4.31927 192.036 2.43555V2.43457C192.051 2.42722 192.066 2.4204 192.08 2.41309C192.094 2.40632 192.107 2.39932 192.121 2.39258V2.39355C195.552 0.680836 199.164 1.85196e-05 202.646 0ZM202.646 12.709C200.806 12.709 199.178 13.0664 197.762 13.7812C196.345 14.4829 195.325 15.5018 194.703 16.8389C194.081 18.1627 193.771 19.9769 193.771 22.2803V29.9648C193.771 31.9239 193.91 33.4196 194.188 34.4521C194.466 35.4715 194.962 36.412 195.677 37.2725C196.405 38.1197 197.418 38.7885 198.715 39.2783C200.012 39.7681 201.509 40.0127 203.203 40.0127C204.95 40.0126 206.4 39.7681 207.552 39.2783C208.717 38.7753 209.676 38.027 210.431 37.0342C211.185 36.0414 211.662 35.108 211.86 34.2344C212.072 33.3607 212.179 32.1096 212.179 30.4814V28.5352H204.573V32.0098C204.573 33.3203 204.467 34.2075 204.255 34.6709C204.056 35.121 203.653 35.3457 203.044 35.3457C202.554 35.3457 202.223 35.1742 202.051 34.8301C201.879 34.4859 201.793 33.7178 201.793 32.5264V26.8271H212.179V23.332C212.179 20.7772 211.88 18.7977 211.284 17.3945C210.702 15.9783 209.676 14.8462 208.207 13.999C206.751 13.1385 204.897 12.709 202.646 12.709ZM203.023 17.375C203.474 17.375 203.772 17.5736 203.918 17.9707C204.064 18.3679 204.136 19.2488 204.136 20.6123V22.5381H201.793V20.6123C201.793 19.1299 201.859 18.2227 201.991 17.8916C202.124 17.5475 202.468 17.3751 203.023 17.375Z" fill="white"/>
<path d="M181.042 13.1855L178.718 27.7412L176.156 13.1855H166.208V39.5361H173.079V21.3662L176.534 39.5361H180.923L184.259 21.3662V39.5361H191.129V13.1855H181.042ZM203.838 35.1543C203.63 35.2808 203.367 35.3457 203.044 35.3457C202.554 35.3457 202.223 35.1742 202.051 34.8301C201.879 34.4859 201.793 33.7178 201.793 32.5264V26.8271H203.838V35.1543ZM203.023 17.375C203.404 17.375 203.675 17.5183 203.838 17.8027V22.5381H201.793V20.6123C201.793 19.1299 201.859 18.2227 201.991 17.8916C202.124 17.5475 202.468 17.3751 203.023 17.375ZM202.646 12.709C200.806 12.709 199.178 13.0664 197.762 13.7812C196.345 14.4829 195.325 15.5018 194.703 16.8389C194.081 18.1627 193.771 19.9769 193.771 22.2803V29.9648C193.771 31.9239 193.91 33.4196 194.188 34.4521C194.466 35.4715 194.962 36.412 195.677 37.2725C196.405 38.1197 197.418 38.7885 198.715 39.2783C200.012 39.7681 201.509 40.0127 203.203 40.0127C203.419 40.0127 203.631 40.0085 203.838 40.001V52.2451H153.499V38.999C154.422 38.6714 155.117 38.0706 155.584 37.1934C156.153 36.1475 156.438 34.4191 156.438 32.0098V29.3291C156.438 27.0922 156.14 25.4574 155.545 24.4248C155.072 23.6049 154.389 23.0151 153.499 22.6543V0.476562H203.838V12.751C203.454 12.7224 203.057 12.709 202.646 12.709Z" fill="white"/>
<path d="M158.443 0.476562V10.9473C161.51 12.2296 164.257 14.4037 166.208 17.5039V39.5361H168.242C167.903 40.7456 167.439 41.9714 166.805 43.1582L166.806 43.1592C166.798 43.1744 166.788 43.1889 166.78 43.2041C166.769 43.2254 166.759 43.2473 166.747 43.2686L166.745 43.2676C164.351 47.6938 160.304 50.553 155.671 51.5713L155.606 51.5859L155.541 51.5996C152.954 52.1397 149.855 52.2451 147.046 52.2451H125.063V39.5361H131.557V18.7051H136.144V13.1855H125.063V0.476562H145.734V13.1855H137.771V39.5361H147.046C149.773 39.5361 151.739 39.4107 152.943 39.1592C154.148 38.8944 155.028 38.2389 155.584 37.1934C156.153 36.1475 156.438 34.4191 156.438 32.0098V29.3291C156.438 27.0922 156.14 25.4574 155.545 24.4248C154.949 23.3923 154.022 22.7235 152.765 22.4189C151.507 22.1145 149.601 21.9619 147.046 21.9619H145.734V0.476562H158.443ZM145.734 27.0059C147.005 27.0456 147.773 27.2117 148.038 27.5029C148.316 27.7943 148.455 28.6212 148.455 29.9844V31.0371C148.455 32.4665 148.264 33.3204 147.88 33.5986C147.509 33.8634 146.793 33.9961 145.734 33.9961V27.0059Z" fill="white"/>
<path d="M145.734 27.0059C147.005 27.0456 147.773 27.2117 148.038 27.5029C148.316 27.7943 148.455 28.6212 148.455 29.9844V31.0371C148.455 31.1676 148.451 31.2932 148.448 31.4141H145.734V27.0059ZM109.475 31.4141H106.947C106.98 30.5564 107.073 29.8748 107.231 29.3691C107.443 28.7337 108.191 27.9457 109.475 27.0059V31.4141ZM106.934 20.6318C106.934 19.1624 106.999 18.2553 107.132 17.9111C107.264 17.5538 107.602 17.375 108.145 17.375C108.621 17.375 108.959 17.5871 109.157 18.0107C109.369 18.4212 109.475 19.3148 109.475 20.6914C109.475 21.7901 109.383 22.5186 109.197 22.876C109.044 23.1708 108.057 23.6932 106.238 24.4473V23.3916H106.934V20.6318ZM145.734 13.1855H137.771V39.5361H144.266V52.2451H110.845V39.5361H117.497V26.3105C117.497 21.9554 117.358 19.0824 117.08 17.6924C116.802 16.2894 115.975 15.1112 114.599 14.1582C113.222 13.1918 111.176 12.709 108.462 12.709C107.669 12.709 106.928 12.7621 106.238 12.8662V0.476562H148.853V21.9912C148.291 21.9719 147.689 21.9619 147.046 21.9619H145.734V13.1855ZM131.557 39.5361V18.7051H136.144V13.1855H118.947V18.7051H123.554V39.5361H131.557Z" fill="white"/>
<path d="M108.462 0C111.991 0 116.57 0.521084 120.742 3.00781L122.184 1.9541V3.95703C125.144 6.09959 127.72 9.17525 129.017 13.1855H118.947V18.7051H123.554V39.5361H130.206V52.2451H109.272C107.816 52.5801 106.383 52.7217 105.026 52.7217C103.552 52.7216 102.105 52.5602 100.7 52.2451H96.9844V51.0039C96.0001 50.5617 95.0465 50.0393 94.1328 49.4336L94.0635 49.3877L93.9951 49.3418C90.0243 46.6344 88.2035 42.8639 87.375 39.5361H92.3975V44.6201H97.7588V33.2012H96.0508V13.1855H91.3926L88.4209 11.9121C90.2752 7.58534 93.5248 4.80278 96.418 3.07227C100.407 0.686171 104.72 3.54392e-05 108.462 0ZM108.462 12.709C106.198 12.709 104.358 13.1323 102.941 13.9795C101.525 14.8266 100.579 15.8062 100.103 16.918C99.6392 18.0168 99.4072 19.5863 99.4072 21.625V23.3916H106.934V20.6318C106.934 19.1624 106.999 18.2553 107.132 17.9111C107.264 17.5538 107.602 17.375 108.145 17.375C108.621 17.375 108.959 17.5871 109.157 18.0107C109.369 18.4212 109.475 19.3148 109.475 20.6914C109.475 21.7901 109.383 22.5186 109.197 22.876C109.012 23.2335 107.601 23.9285 104.967 24.9609C102.505 25.914 100.963 26.7481 100.341 27.4629C99.7186 28.1778 99.4072 29.5216 99.4072 31.4941V33.6582C99.4072 36.3188 99.9896 38.0464 101.154 38.8408C102.332 39.6218 103.623 40.0126 105.026 40.0127C106.099 40.0127 107.019 39.7807 107.787 39.3174C108.568 38.8409 109.204 38.133 109.693 37.1934V39.5361H117.497V26.3105C117.497 21.9554 117.358 19.0824 117.08 17.6924C116.802 16.2894 115.975 15.1112 114.599 14.1582C113.222 13.1918 111.176 12.709 108.462 12.709ZM109.475 32.4268C109.475 33.7506 109.395 34.5719 109.236 34.8896C109.091 35.1939 108.767 35.3457 108.264 35.3457C107.734 35.3457 107.377 35.1472 107.191 34.75C107.019 34.3527 106.934 33.4725 106.934 32.1094C106.934 30.9179 107.033 30.0046 107.231 29.3691C107.443 28.7337 108.191 27.9457 109.475 27.0059V32.4268ZM86.6982 21.625C86.6982 20.8524 86.721 20.01 86.7852 19.1221H88.0879V33.2012H86.6982V21.625ZM91.3926 13.1855H87.9346C88.0722 12.783 88.223 12.3804 88.3916 11.9805L88.4209 11.9121L91.3926 13.1855Z" fill="white"/>
<path d="M108.76 0.476562V12.7109C108.661 12.7096 108.562 12.709 108.462 12.709C106.198 12.709 104.358 13.1323 102.941 13.9795C101.525 14.8266 100.579 15.8062 100.103 16.918C99.6392 18.0168 99.4072 19.5863 99.4072 21.625V23.3916H106.934V20.6318C106.934 19.1624 106.999 18.2553 107.132 17.9111C107.264 17.5538 107.602 17.375 108.145 17.375C108.385 17.375 108.59 17.4292 108.76 17.5371V20.4932H109.473C109.473 20.5581 109.475 20.6242 109.475 20.6914C109.475 21.7901 109.383 22.5186 109.197 22.876C109.012 23.2335 107.601 23.9285 104.967 24.9609C102.505 25.914 100.963 26.7481 100.341 27.4629C99.7186 28.1778 99.4072 29.5216 99.4072 31.4941V33.6582C99.4072 36.3188 99.9896 38.0464 101.154 38.8408C102.332 39.6218 103.623 40.0126 105.026 40.0127C106.099 40.0127 107.019 39.7807 107.787 39.3174C108.568 38.8409 109.204 38.133 109.693 37.1934V39.5361H110.468V57.3281H60.8242V39.4844C61.2952 39.5175 61.7917 39.5361 62.3135 39.5361C63.9285 39.5361 65.3979 39.3511 66.7217 38.9805C68.0455 38.6098 69.0843 38.0068 69.8389 37.1729C70.6067 36.3256 71.1229 35.498 71.3877 34.6904C71.6524 33.8696 71.7852 32.559 71.7852 30.7588C71.7851 29.1307 71.4873 27.9328 70.8916 27.165C70.2959 26.3972 69.369 25.8141 68.1113 25.417C69.382 25.0067 70.2558 24.418 70.7324 23.6504C71.209 22.8693 71.4473 21.6842 71.4473 20.0957C71.4473 17.7393 70.7126 15.9983 69.2432 14.873C68.4187 14.2418 67.3466 13.7869 66.0264 13.5098V0.476562H108.76ZM78.7354 13.1855V14.1582C78.7353 18.6725 78.4041 22.5912 77.7422 25.9141C77.0935 29.2235 76.2596 31.6659 75.2402 33.2412H73.5332V44.6201H78.8945V39.5361H92.3975V44.6201H97.7588V33.2012H96.0508V13.1855H78.7354ZM107.191 34.75C107.019 34.3527 106.934 33.4725 106.934 32.1094C106.934 30.9179 107.033 30.0046 107.231 29.3691C107.443 28.7337 108.191 27.9457 109.475 27.0059V32.4268C109.475 33.7506 109.395 34.5719 109.236 34.8896C109.091 35.1939 108.767 35.3457 108.264 35.3457C107.734 35.3457 107.377 35.1472 107.191 34.75ZM62.6309 34.5713C61.7042 34.5712 61.2412 33.9097 61.2412 32.5859V28.873H60.8242V27.3535C62.0769 27.3897 62.9239 27.5316 63.3652 27.7803C63.8815 28.0715 64.1396 28.6013 64.1396 29.3691V31.0371C64.1396 32.6387 64.0079 33.6316 63.7432 34.0156C63.4916 34.3863 63.1207 34.5713 62.6309 34.5713ZM88.0879 19.1221V33.2012H83.6201C85.2087 28.8988 86.0029 24.2985 86.0029 19.4004V19.1221H88.0879ZM64.1367 20.5322C64.1378 20.6033 64.1396 20.6763 64.1396 20.751V21.3066C64.1396 22.0744 64.0277 22.6241 63.8027 22.9551C63.591 23.2727 63.3128 23.4577 62.9688 23.5107C62.6307 23.5628 61.9157 23.5889 60.8242 23.5898V22.042H61.2412V20.5322H64.1367Z" fill="white"/>
<path d="M62.4717 0.476562C66.5258 0.476562 71.9065 1.1298 76.5254 4.45312L76.9707 4.7832L77.4697 5.17871C80.2729 7.4803 82.0229 10.2913 83.0264 13.1855H78.7354V14.1582C78.7353 18.6725 78.4041 22.5912 77.7422 25.9141C77.0935 29.2235 76.2596 31.6659 75.2402 33.2412H73.5332V44.6201H78.8945V39.5361H83.1445C82.1514 42.0933 80.6749 44.1385 79.2627 45.6982L79.2637 45.6992C76.5755 48.6703 73.2665 50.3457 70.1484 51.2188C67.5347 51.9506 64.8904 52.2451 62.3135 52.2451C58.1688 52.2451 51.6174 51.5759 46.6689 46.7295C44.5841 44.6876 43.2451 42.3447 42.3896 40.0068C43.8671 39.9825 45.1801 39.7622 46.3281 39.3379C47.5592 38.8745 48.5656 38.166 49.3467 37.2129C50.1276 36.2466 50.6367 35.2139 50.875 34.1152C51.1133 33.0032 51.2324 31.2622 51.2324 28.8926V22.4385C51.2324 20.572 51.1007 19.182 50.8359 18.2686C50.5844 17.3551 50.1079 16.4679 49.4062 15.6074C48.7046 14.7469 47.7046 14.052 46.4072 13.5225C45.2445 13.031 43.8701 12.7642 42.2842 12.7178C43.2371 10.1255 44.8102 7.53083 47.3516 5.33594C52.2299 1.12073 58.3467 0.476605 62.4717 0.476562ZM62.4717 13.1855C59.2949 13.1856 57.0247 13.7741 55.6611 14.9521C54.3108 16.1171 53.6357 18.0901 53.6357 20.8701V22.042H61.2412V19.8975C61.2412 18.7326 61.7306 18.1496 62.71 18.1494C63.1733 18.1494 63.5244 18.302 63.7627 18.6064C64.0142 18.911 64.1396 19.6258 64.1396 20.751V21.3066C64.1396 22.0744 64.0277 22.6241 63.8027 22.9551C63.591 23.2727 63.3128 23.4577 62.9688 23.5107C62.6246 23.5637 61.8897 23.5908 60.7646 23.5908H60.1484V27.3438C61.7763 27.3438 62.8488 27.4892 63.3652 27.7803C63.8815 28.0715 64.1396 28.6013 64.1396 29.3691V31.0371C64.1396 32.6387 64.0079 33.6316 63.7432 34.0156C63.4916 34.3863 63.1207 34.5713 62.6309 34.5713C61.7042 34.5712 61.2412 33.9097 61.2412 32.5859V28.873H53.6357V30.7988C53.6357 34.1082 54.2775 36.3917 55.5615 37.6494C56.8456 38.9071 59.0966 39.5361 62.3135 39.5361C63.9285 39.5361 65.3979 39.3511 66.7217 38.9805C68.0455 38.6098 69.0843 38.0068 69.8389 37.1729C70.6067 36.3256 71.1229 35.498 71.3877 34.6904C71.6524 33.8696 71.7852 32.559 71.7852 30.7588C71.7851 29.1307 71.4873 27.9328 70.8916 27.165C70.2959 26.3972 69.369 25.8141 68.1113 25.417C69.382 25.0067 70.2558 24.418 70.7324 23.6504C71.209 22.8693 71.4473 21.6842 71.4473 20.0957C71.4473 17.7393 70.7126 15.9983 69.2432 14.873C67.7737 13.7479 65.5164 13.1855 62.4717 13.1855ZM42.0586 17.375C42.5351 17.375 42.8466 17.5537 42.9922 17.9111C43.1378 18.2554 43.21 19.1029 43.21 20.4531V32.6055C43.21 33.744 43.1305 34.4859 42.9717 34.8301C42.8261 35.174 42.5153 35.3456 42.0391 35.3457C41.638 35.3457 41.3507 35.2073 41.1777 34.9297C41.17 34.8696 41.1626 34.8097 41.1553 34.75H41.0918C41.0201 34.5575 40.9638 34.2718 40.9268 33.8916V30.1602L40.8672 30.1406V20.8594L40.9268 20.8408V18.8047C40.9665 18.3811 41.026 18.0832 41.1055 17.9111C41.2644 17.5538 41.5821 17.375 42.0586 17.375ZM83.6201 33.2012C83.9441 32.3237 84.2333 31.4335 84.4912 30.5312C84.4919 30.6085 84.4941 30.6844 84.4941 30.7588C84.4941 31.4669 84.4797 32.2981 84.4238 33.2012H83.6201ZM32.8447 27.6074L26.3359 25.5527L32.8447 23.4502V27.6074Z" fill="white"/>
<path d="M41.7803 12.709C39.6358 12.709 37.8748 13.126 36.498 13.96C35.1216 14.7939 34.1682 15.8989 33.6387 17.2754C33.1091 18.6522 32.8447 20.5655 32.8447 23.0146V29.7666C32.8447 32.0034 32.9901 33.6844 33.2812 34.8096C33.5725 35.9216 34.0563 36.8756 34.7314 37.6699C35.4198 38.4507 36.3795 39.0394 37.6104 39.4365C38.8415 39.8204 40.3442 40.0127 42.1182 40.0127C43.7067 40.0127 45.1102 39.788 46.3281 39.3379C47.5592 38.8745 48.5656 38.166 49.3467 37.2129C50.1276 36.2466 50.6367 35.2139 50.875 34.1152C51.1133 33.0032 51.2324 31.2622 51.2324 28.8926V22.4385C51.2324 20.572 51.1007 19.182 50.8359 18.2686C50.5844 17.3551 50.1079 16.4679 49.4062 15.6074C48.7046 14.7469 47.7046 14.052 46.4072 13.5225C45.1231 12.9797 43.5806 12.709 41.7803 12.709ZM61.2412 28.873H53.6357V30.7988C53.6357 34.1082 54.2775 36.3917 55.5615 37.6494C56.8456 38.9071 59.0966 39.5361 62.3135 39.5361C62.3726 39.5361 62.4315 39.5337 62.4902 39.5332C61.6971 41.6458 60.5718 43.5415 59.2305 45.2012L59.1758 45.2676C56.8829 48.0657 53.9806 50.0372 50.8047 51.2324L50.7686 51.2451L50.7334 51.2588C47.8296 52.3319 44.8853 52.7217 42.1182 52.7217C39.5064 52.7217 36.6458 52.4483 33.8271 51.5693L33.7676 51.5508L33.709 51.5322C30.8261 50.6023 27.7235 48.9386 25.1973 46.0723L25.1211 45.9873L25.0479 45.9004C23.5037 44.0838 22.3816 42.0807 21.6133 40.0107C21.6502 40.0109 21.6875 40.0127 21.7246 40.0127C23.4984 40.0127 24.9877 39.7347 26.1924 39.1787C27.397 38.6095 28.37 37.7755 29.1113 36.6768C29.8659 35.5647 30.309 34.4853 30.4414 33.4395C30.587 32.3805 30.6664 30.7988 30.6797 28.6943H23.5312V31.8311C23.5312 33.1946 23.432 34.1215 23.2334 34.6113C23.0481 35.1011 22.6842 35.3456 22.1416 35.3457C21.6783 35.3457 21.3272 35.1146 21.0889 34.6514C20.8506 34.1748 20.7314 33.4663 20.7314 32.5264V20.0957C20.7314 18.944 20.8109 18.2021 20.9697 17.8711C21.1286 17.5404 21.4401 17.375 21.9033 17.375C22.3665 17.3751 22.6844 17.5673 22.8564 17.9512C23.0285 18.3219 23.1143 19.0369 23.1143 20.0957V23.1338H30.6797C30.6797 20.6582 30.4351 18.7448 29.9453 17.3945C29.4554 16.0444 28.4689 14.9259 26.9863 14.0391C25.54 13.1739 23.8041 12.7312 21.7783 12.71C23.4132 8.46168 26.3622 5.24143 29.9141 3.08984L30.2822 2.87207C34.096 0.672291 38.1796 2.86871e-05 41.7803 0C44.7613 0 48.0211 0.438299 51.209 1.75781L51.21 1.75586C51.2584 1.77564 51.3069 1.7962 51.3555 1.81641L51.3545 1.81738C53.8989 2.87583 56.5794 4.51611 58.8076 7.04785L59.2559 7.57617L59.5576 7.95605C60.7306 9.46089 61.7725 11.2039 62.5273 13.1855C62.509 13.1855 62.4901 13.1855 62.4717 13.1855C59.2949 13.1856 57.0247 13.7741 55.6611 14.9521C54.3108 16.1171 53.6357 18.0901 53.6357 20.8701V22.042H61.2412V19.8975C61.2412 18.7326 61.7306 18.1496 62.71 18.1494C63.1733 18.1494 63.5244 18.302 63.7627 18.6064C63.7637 18.6077 63.7646 18.6091 63.7656 18.6104C63.908 19.9983 63.9414 21.3162 63.9414 22.4385V22.6855C63.901 22.7873 63.8555 22.8774 63.8027 22.9551C63.591 23.2727 63.3128 23.4577 62.9688 23.5107C62.6246 23.5637 61.8897 23.5908 60.7646 23.5908H60.1484V27.3438C61.7763 27.3438 62.8488 27.4892 63.3652 27.7803C63.6203 27.9241 63.8124 28.1266 63.9414 28.3867V28.8926C63.9414 30.5293 63.8963 32.3129 63.7188 34.0469C63.4678 34.396 63.1062 34.5713 62.6309 34.5713C61.7042 34.5712 61.2412 33.9097 61.2412 32.5859V28.873ZM43.21 32.6055C43.21 33.744 43.1305 34.4859 42.9717 34.8301C42.8261 35.174 42.5153 35.3456 42.0391 35.3457C41.5757 35.3457 41.2643 35.1607 41.1055 34.79C40.9466 34.4061 40.8672 33.592 40.8672 32.3477V20.4531C40.8672 19.1028 40.9466 18.2553 41.1055 17.9111C41.2644 17.5538 41.5821 17.375 42.0586 17.375C42.5351 17.375 42.8466 17.5537 42.9922 17.9111C43.1378 18.2554 43.21 19.1029 43.21 20.4531V32.6055Z" fill="white"/>
<path d="M21.625 0C25.4076 0 29.419 0.788285 33.1504 2.92188L33.5107 3.13281L34.1572 3.53516C37.2857 5.55746 40.1558 8.55392 41.7588 12.709C39.624 12.7118 37.8702 13.1288 36.498 13.96C35.1216 14.7939 34.1682 15.8989 33.6387 17.2754C33.1091 18.6522 32.8447 20.5655 32.8447 23.0146V29.7666C32.8447 32.0034 32.9901 33.6844 33.2812 34.8096C33.5725 35.9216 34.0563 36.8756 34.7314 37.6699C35.4198 38.4507 36.3795 39.0394 37.6104 39.4365C38.7443 39.7901 40.1087 39.9789 41.7031 40.0068C41.111 41.4156 40.3913 42.6875 39.6279 43.8125L39.627 43.8115C37.6033 46.8005 34.87 49.1342 31.6221 50.6689L31.5703 50.6934L31.5176 50.7178C28.1807 52.2578 24.7486 52.7217 21.7246 52.7217C18.2206 52.7217 13.9399 52.1589 9.9668 49.8545L9.92578 49.8311L9.88477 49.8066C6.21089 47.639 3.35277 44.397 1.72363 40.3242L1.69629 40.2568L1.66992 40.1895C0.298313 36.6433 2.46132e-05 32.8347 0 29.6475V22.1611C0 19.4249 0.225866 15.8132 1.56543 12.4248L1.74023 11.999C3.57573 7.69363 6.81702 4.93141 9.62598 3.22266L9.625 3.22168C13.4932 0.852073 17.6963 1.1243e-05 21.625 0ZM21.625 12.709C19.5202 12.709 17.7331 13.1585 16.2637 14.0586C14.7943 14.9455 13.8339 15.9583 13.3838 17.0967C12.9337 18.2352 12.709 19.9238 12.709 22.1611V29.6475C12.709 32.2155 12.9807 34.2013 13.5234 35.6045C14.0795 36.9944 15.019 38.0803 16.3428 38.8613C17.6666 39.6292 19.4609 40.0127 21.7246 40.0127C23.4984 40.0127 24.9877 39.7347 26.1924 39.1787C27.397 38.6095 28.37 37.7755 29.1113 36.6768C29.8659 35.5647 30.309 34.4853 30.4414 33.4395C30.587 32.3805 30.6664 30.7988 30.6797 28.6943H23.5312V31.8311C23.5312 33.1946 23.432 34.1215 23.2334 34.6113C23.0481 35.1011 22.6842 35.3456 22.1416 35.3457C21.6783 35.3457 21.3272 35.1146 21.0889 34.6514C20.8506 34.1748 20.7314 33.4663 20.7314 32.5264V20.0957C20.7314 18.944 20.8109 18.2021 20.9697 17.8711C21.1286 17.5404 21.4401 17.375 21.9033 17.375C22.3665 17.3751 22.6844 17.5673 22.8564 17.9512C23.0285 18.3219 23.1143 19.0369 23.1143 20.0957V23.1338H30.6797C30.6797 20.6582 30.4351 18.7448 29.9453 17.3945C29.4554 16.0444 28.4689 14.9259 26.9863 14.0391C25.5037 13.1522 23.7166 12.709 21.625 12.709ZM42.0586 17.375C42.5351 17.375 42.8466 17.5537 42.9922 17.9111C43.1378 18.2554 43.21 19.1029 43.21 20.4531V32.6055C43.21 33.744 43.1305 34.4859 42.9717 34.8301C42.8261 35.174 42.5153 35.3456 42.0391 35.3457C41.5757 35.3457 41.2643 35.1607 41.1055 34.79C40.9466 34.4061 40.8672 33.592 40.8672 32.3477V20.4531C40.8672 19.1028 40.9466 18.2553 41.1055 17.9111C41.2644 17.5538 41.5821 17.375 42.0586 17.375Z" fill="white"/>
<rect x="7.625" y="10.5361" width="238" height="36" fill="white"/>
</svg>
