<svg width="174" height="58" viewBox="0 0 174 58" fill="none" xmlns="http://www.w3.org/2000/svg">
<mask id="path-1-outside-1_208_660" maskUnits="userSpaceOnUse" x="-0.720703" y="-0.463379" width="175" height="58" fill="black">
<rect fill="white" x="-0.720703" y="-0.463379" width="175" height="58"/>
<path d="M37.6303 39.5366H30.7596V21.367L27.4235 39.5366H23.035L19.5798 21.367V39.5366H12.709V13.1856H22.6577L25.2193 27.7412L27.5426 13.1856H37.6303V39.5366ZM58.6793 26.8278H48.2938V32.5269C48.2938 33.7184 48.3798 34.4862 48.5519 34.8304C48.724 35.1746 49.055 35.3467 49.5448 35.3467C50.1538 35.3467 50.5576 35.1216 50.7561 34.6715C50.9679 34.2082 51.0739 33.3212 51.0739 32.0106V28.5355H58.6793V30.4816C58.6793 32.1099 58.5734 33.3609 58.3616 34.2347C58.163 35.1084 57.6864 36.0417 56.9318 37.0346C56.1772 38.0274 55.2175 38.7754 54.0525 39.2785C52.9007 39.7683 51.4511 40.0132 49.7037 40.0132C48.0092 40.0132 46.5132 39.7683 45.2159 39.2785C43.9185 38.7887 42.9058 38.1201 42.1777 37.2729C41.4628 36.4124 40.9664 35.4724 40.6883 34.4531C40.4103 33.4205 40.2713 31.9246 40.2713 29.9653V22.2804C40.2713 19.9769 40.5824 18.1633 41.2046 16.8394C41.8268 15.5024 42.8462 14.483 44.2627 13.7814C45.6792 13.0665 47.3075 12.7091 49.1477 12.7091C51.3982 12.7091 53.2516 13.1393 54.7078 13.9998C56.1772 14.8471 57.2032 15.9789 57.7857 17.3954C58.3814 18.7987 58.6793 20.7778 58.6793 23.3328V26.8278ZM50.637 22.5385V20.6124C50.637 19.2488 50.5642 18.3685 50.4186 17.9713C50.2729 17.5742 49.9751 17.3756 49.525 17.3756C48.969 17.3756 48.6248 17.5477 48.4924 17.8919C48.36 18.2228 48.2938 19.1297 48.2938 20.6124V22.5385H50.637ZM86.2416 39.5366H79.3709V21.367L76.0348 39.5366H71.6463L68.1911 21.367V39.5366H61.3204V13.1856H71.269L73.8306 27.7412L76.154 13.1856H86.2416V39.5366ZM119.642 44.6202H114.28V39.5366H100.777V44.6202H95.4158V33.2418H97.1235C98.1429 31.6664 98.9769 29.2239 99.6256 25.9143C100.288 22.5915 100.618 18.6729 100.618 14.1587V13.1856H117.934V33.2021H119.642V44.6202ZM109.971 33.2021V19.123H107.886V19.4011C107.886 24.2993 107.092 28.8996 105.503 33.2021H109.971ZM140.473 39.5366H132.49V29.8263H129.611V39.5366H121.648V13.1856H129.611V22.6577H132.49V13.1856H140.473V39.5366ZM161.263 39.5366H153.281V29.171C152.248 29.171 151.533 29.3894 151.136 29.8263C150.752 30.2631 150.56 31.0839 150.56 32.2886V39.5366H143.213V33.3609C143.213 31.7856 143.299 30.6537 143.471 29.9653C143.643 29.2636 144.034 28.7142 144.643 28.3171C145.265 27.9199 146.317 27.5228 147.8 27.1256C145.88 26.9535 144.636 26.4108 144.067 25.4973C143.498 24.5706 143.213 22.9225 143.213 20.5528C143.213 17.9316 143.968 16.0517 145.477 14.9132C146.999 13.7615 150.282 13.1856 155.326 13.1856H161.263V39.5366ZM153.281 24.6037V18.3089H152.467C151.884 18.3089 151.421 18.481 151.077 18.8252C150.732 19.1561 150.56 19.9438 150.56 21.1882V21.5258C150.56 22.7967 150.752 23.6307 151.136 24.0279C151.533 24.4118 152.248 24.6037 153.281 24.6037Z"/>
</mask>
<path d="M37.6303 39.5366H30.7596V21.367L27.4235 39.5366H23.035L19.5798 21.367V39.5366H12.709V13.1856H22.6577L25.2193 27.7412L27.5426 13.1856H37.6303V39.5366ZM58.6793 26.8278H48.2938V32.5269C48.2938 33.7184 48.3798 34.4862 48.5519 34.8304C48.724 35.1746 49.055 35.3467 49.5448 35.3467C50.1538 35.3467 50.5576 35.1216 50.7561 34.6715C50.9679 34.2082 51.0739 33.3212 51.0739 32.0106V28.5355H58.6793V30.4816C58.6793 32.1099 58.5734 33.3609 58.3616 34.2347C58.163 35.1084 57.6864 36.0417 56.9318 37.0346C56.1772 38.0274 55.2175 38.7754 54.0525 39.2785C52.9007 39.7683 51.4511 40.0132 49.7037 40.0132C48.0092 40.0132 46.5132 39.7683 45.2159 39.2785C43.9185 38.7887 42.9058 38.1201 42.1777 37.2729C41.4628 36.4124 40.9664 35.4724 40.6883 34.4531C40.4103 33.4205 40.2713 31.9246 40.2713 29.9653V22.2804C40.2713 19.9769 40.5824 18.1633 41.2046 16.8394C41.8268 15.5024 42.8462 14.483 44.2627 13.7814C45.6792 13.0665 47.3075 12.7091 49.1477 12.7091C51.3982 12.7091 53.2516 13.1393 54.7078 13.9998C56.1772 14.8471 57.2032 15.9789 57.7857 17.3954C58.3814 18.7987 58.6793 20.7778 58.6793 23.3328V26.8278ZM50.637 22.5385V20.6124C50.637 19.2488 50.5642 18.3685 50.4186 17.9713C50.2729 17.5742 49.9751 17.3756 49.525 17.3756C48.969 17.3756 48.6248 17.5477 48.4924 17.8919C48.36 18.2228 48.2938 19.1297 48.2938 20.6124V22.5385H50.637ZM86.2416 39.5366H79.3709V21.367L76.0348 39.5366H71.6463L68.1911 21.367V39.5366H61.3204V13.1856H71.269L73.8306 27.7412L76.154 13.1856H86.2416V39.5366ZM119.642 44.6202H114.28V39.5366H100.777V44.6202H95.4158V33.2418H97.1235C98.1429 31.6664 98.9769 29.2239 99.6256 25.9143C100.288 22.5915 100.618 18.6729 100.618 14.1587V13.1856H117.934V33.2021H119.642V44.6202ZM109.971 33.2021V19.123H107.886V19.4011C107.886 24.2993 107.092 28.8996 105.503 33.2021H109.971ZM140.473 39.5366H132.49V29.8263H129.611V39.5366H121.648V13.1856H129.611V22.6577H132.49V13.1856H140.473V39.5366ZM161.263 39.5366H153.281V29.171C152.248 29.171 151.533 29.3894 151.136 29.8263C150.752 30.2631 150.56 31.0839 150.56 32.2886V39.5366H143.213V33.3609C143.213 31.7856 143.299 30.6537 143.471 29.9653C143.643 29.2636 144.034 28.7142 144.643 28.3171C145.265 27.9199 146.317 27.5228 147.8 27.1256C145.88 26.9535 144.636 26.4108 144.067 25.4973C143.498 24.5706 143.213 22.9225 143.213 20.5528C143.213 17.9316 143.968 16.0517 145.477 14.9132C146.999 13.7615 150.282 13.1856 155.326 13.1856H161.263V39.5366ZM153.281 24.6037V18.3089H152.467C151.884 18.3089 151.421 18.481 151.077 18.8252C150.732 19.1561 150.56 19.9438 150.56 21.1882V21.5258C150.56 22.7967 150.752 23.6307 151.136 24.0279C151.533 24.4118 152.248 24.6037 153.281 24.6037Z" fill="black"/>
<path d="M37.6303 39.5366V52.2455H50.3391V39.5366H37.6303ZM30.7596 39.5366H18.0507V52.2455H30.7596V39.5366ZM30.7596 21.367H43.4684L18.2597 19.0719L30.7596 21.367ZM27.4235 39.5366V52.2455H38.0114L39.9234 41.8317L27.4235 39.5366ZM23.035 39.5366L10.5499 41.9108L12.5151 52.2455H23.035V39.5366ZM19.5798 21.367L32.0649 18.9927L6.87092 21.367H19.5798ZM19.5798 39.5366V52.2455H32.2886V39.5366H19.5798ZM12.709 39.5366H0.000201046V52.2455H12.709V39.5366ZM12.709 13.1856V0.476795H0.000201046V13.1856H12.709ZM22.6577 13.1856L35.1742 10.9829L33.3252 0.476795H22.6577V13.1856ZM25.2193 27.7412L12.7028 29.944L37.7693 29.7444L25.2193 27.7412ZM27.5426 13.1856V0.476795H16.7015L14.9927 11.1824L27.5426 13.1856ZM37.6303 13.1856H50.3391V0.476795H37.6303V13.1856ZM37.6303 39.5366V26.8278H30.7596V39.5366V52.2455H37.6303V39.5366ZM30.7596 39.5366H43.4684V21.367H30.7596H18.0507V39.5366H30.7596ZM30.7596 21.367L18.2597 19.0719L14.9236 37.2416L27.4235 39.5366L39.9234 41.8317L43.2595 23.662L30.7596 21.367ZM27.4235 39.5366V26.8278H23.035V39.5366V52.2455H27.4235V39.5366ZM23.035 39.5366L35.5201 37.1624L32.0649 18.9927L19.5798 21.367L7.09466 23.7412L10.5499 41.9108L23.035 39.5366ZM19.5798 21.367H6.87092V39.5366H19.5798H32.2886V21.367H19.5798ZM19.5798 39.5366V26.8278H12.709V39.5366V52.2455H19.5798V39.5366ZM12.709 39.5366H25.4179V13.1856H12.709H0.000201046V39.5366H12.709ZM12.709 13.1856V25.8945H22.6577V13.1856V0.476795H12.709V13.1856ZM22.6577 13.1856L10.1412 15.3884L12.7028 29.944L25.2193 27.7412L37.7358 25.5385L35.1742 10.9829L22.6577 13.1856ZM25.2193 27.7412L37.7693 29.7444L40.0926 15.1888L27.5426 13.1856L14.9927 11.1824L12.6693 25.738L25.2193 27.7412ZM27.5426 13.1856V25.8945H37.6303V13.1856V0.476795H27.5426V13.1856ZM37.6303 13.1856H24.9214V39.5366H37.6303H50.3391V13.1856H37.6303ZM58.6793 26.8278V39.5366H71.3881V26.8278H58.6793ZM48.2938 26.8278V14.1189H35.585V26.8278H48.2938ZM50.7561 34.6715L39.1978 29.3877L39.1627 29.4645L39.1286 29.5417L50.7561 34.6715ZM51.0739 28.5355V15.8267H38.365V28.5355H51.0739ZM58.6793 28.5355H71.3881V15.8267H58.6793V28.5355ZM58.3616 34.2347L46.0105 31.2404L45.989 31.3291L45.9688 31.4181L58.3616 34.2347ZM54.0525 39.2785L59.0263 50.9736L59.0585 50.9599L59.0907 50.946L54.0525 39.2785ZM45.2159 39.2785L40.7269 51.1681L45.2159 39.2785ZM42.1777 37.2729L32.4021 45.3941L32.4699 45.4756L32.539 45.5561L42.1777 37.2729ZM40.6883 34.4531L28.4165 37.757L28.4219 37.777L28.4273 37.797L40.6883 34.4531ZM41.2046 16.8394L52.7064 22.2453L52.7168 22.2233L52.727 22.2013L41.2046 16.8394ZM44.2627 13.7814L49.9037 25.1697L49.9462 25.1486L49.9887 25.1272L44.2627 13.7814ZM54.7078 13.9998L48.2424 24.9412L48.3009 24.9757L48.3598 25.0097L54.7078 13.9998ZM57.7857 17.3954L46.0318 22.2288L46.0592 22.2954L46.0874 22.3617L57.7857 17.3954ZM50.637 22.5385V35.2474H63.3458V22.5385H50.637ZM48.4924 17.8919L60.2922 22.6118L60.3237 22.5332L60.3541 22.4541L48.4924 17.8919ZM48.2938 22.5385H35.585V35.2474H48.2938V22.5385ZM58.6793 26.8278V14.1189H48.2938V26.8278V39.5366H58.6793V26.8278ZM48.2938 26.8278H35.585V32.5269H48.2938H61.0026V26.8278H48.2938ZM48.2938 32.5269H35.585C35.585 33.3718 35.6127 34.3784 35.7286 35.4118C35.805 36.0938 36.0488 38.242 37.1848 40.5139L48.5519 34.8304L59.9191 29.1468C60.4814 30.2714 60.7225 31.2047 60.8186 31.619C60.9291 32.0948 60.9724 32.4412 60.9881 32.581C61.0179 32.8465 61.0026 32.8734 61.0026 32.5269H48.2938ZM48.5519 34.8304L37.1848 40.5139C40.1293 46.4029 45.8034 48.0555 49.5448 48.0555V35.3467V22.6378C50.7252 22.6378 52.6698 22.8383 54.7925 23.9421C57.0847 25.1341 58.8468 27.0022 59.9191 29.1468L48.5519 34.8304ZM49.5448 35.3467V48.0555C51.3497 48.0555 53.8914 47.7282 56.4918 46.2788C59.2685 44.7311 61.2451 42.3821 62.3837 39.8013L50.7561 34.6715L39.1286 29.5417C40.0686 27.411 41.744 25.3996 44.117 24.077C46.3136 22.8526 48.3489 22.6378 49.5448 22.6378V35.3467ZM50.7561 34.6715L62.3145 39.9553C63.2303 37.9521 63.5034 36.0887 63.6136 35.1656C63.7468 34.0501 63.7827 32.9602 63.7827 32.0106H51.0739H38.365C38.365 32.3716 38.3479 32.3805 38.3752 32.152C38.39 32.0281 38.4292 31.7374 38.5241 31.3338C38.6127 30.9575 38.803 30.2512 39.1978 29.3877L50.7561 34.6715ZM51.0739 32.0106H63.7827V28.5355H51.0739H38.365V32.0106H51.0739ZM51.0739 28.5355V41.2444H58.6793V28.5355V15.8267H51.0739V28.5355ZM58.6793 28.5355H45.9705V30.4816H58.6793H71.3881V28.5355H58.6793ZM58.6793 30.4816H45.9705C45.9705 31.0365 45.9518 31.3864 45.9363 31.569C45.929 31.6554 45.9251 31.6717 45.9315 31.6291C45.9374 31.5896 45.959 31.4527 46.0105 31.2404L58.3616 34.2347L70.7127 37.2289C71.2807 34.8857 71.3881 32.4458 71.3881 30.4816H58.6793ZM58.3616 34.2347L45.9688 31.4181C46.1387 30.6702 46.3741 30.1286 46.5367 29.8102C46.6195 29.648 46.6904 29.5301 46.7373 29.4566C46.7844 29.383 46.8127 29.3458 46.8135 29.3447L56.9318 37.0346L67.0501 44.7245C68.4996 42.8173 70.0289 40.2432 70.7544 37.0512L58.3616 34.2347ZM56.9318 37.0346L46.8135 29.3447C47.406 28.5651 48.2088 27.9588 49.0142 27.611L54.0525 39.2785L59.0907 50.946C62.2262 49.592 64.9485 47.4898 67.0501 44.7245L56.9318 37.0346ZM54.0525 39.2785L49.0787 27.5833C49.5617 27.3779 49.8932 27.3137 49.9843 27.2983C50.075 27.2829 49.9962 27.3044 49.7037 27.3044V40.0132V52.722C52.5298 52.722 55.8099 52.3415 59.0263 50.9736L54.0525 39.2785ZM49.7037 40.0132V27.3044C49.4652 27.3044 49.3595 27.2869 49.3642 27.2876C49.3715 27.2889 49.4962 27.31 49.7048 27.3888L45.2159 39.2785L40.7269 51.1681C43.7379 52.3049 46.8053 52.722 49.7037 52.722V40.0132ZM45.2159 39.2785L49.7048 27.3888C49.9252 27.472 50.8606 27.8776 51.8163 28.9897L42.1777 37.2729L32.539 45.5561C34.9509 48.3626 37.9118 50.1053 40.7269 51.1681L45.2159 39.2785ZM42.1777 37.2729L51.9532 29.1517C52.329 29.604 52.7218 30.2748 52.9494 31.1092L40.6883 34.4531L28.4273 37.797C29.2109 40.6701 30.5966 43.2207 32.4021 45.3941L42.1777 37.2729ZM40.6883 34.4531L52.9602 31.1491C53.0193 31.3685 53.0418 31.5022 53.0454 31.5237C53.0495 31.5488 53.0415 31.5055 53.0299 31.3808C53.0057 31.1203 52.9802 30.663 52.9802 29.9653H40.2713H27.5625C27.5625 32.279 27.7012 35.1003 28.4165 37.757L40.6883 34.4531ZM40.2713 29.9653H52.9802V22.2804H40.2713H27.5625V29.9653H40.2713ZM40.2713 22.2804H52.9802C52.9802 21.9881 52.9901 21.7643 53.0024 21.6022C53.0147 21.4394 53.028 21.356 53.0306 21.3412C53.0332 21.3256 53.0215 21.4003 52.9776 21.5477C52.9338 21.6951 52.8514 21.9369 52.7064 22.2453L41.2046 16.8394L29.7028 11.4336C27.9591 15.1437 27.5625 19.0689 27.5625 22.2804H40.2713ZM41.2046 16.8394L52.727 22.2013C52.4259 22.8484 51.9876 23.4933 51.4223 24.0586C50.8651 24.6158 50.3147 24.9661 49.9037 25.1697L44.2627 13.7814L38.6218 2.39302C34.8163 4.27796 31.6138 7.32677 29.6823 11.4775L41.2046 16.8394ZM44.2627 13.7814L49.9887 25.1272C49.6983 25.2738 49.4455 25.3522 49.2712 25.3904C49.1035 25.4272 49.0504 25.4179 49.1477 25.4179V12.7091V0.000213005C45.6365 0.000213005 41.9926 0.691458 38.5368 2.43552L44.2627 13.7814ZM49.1477 12.7091V25.4179C49.8526 25.4179 49.2887 25.5594 48.2424 24.9412L54.7078 13.9998L61.1731 3.05842C57.2144 0.719158 52.9438 0.000213005 49.1477 0.000213005V12.7091ZM54.7078 13.9998L48.3598 25.0097C48.0744 24.8451 47.63 24.5344 47.1631 24.0193C46.686 23.493 46.2983 22.8769 46.0318 22.2288L57.7857 17.3954L69.5396 12.5621C67.7724 8.26472 64.684 5.08186 61.0558 2.98993L54.7078 13.9998ZM57.7857 17.3954L46.0874 22.3617C45.9676 22.0796 45.9106 21.8823 45.8894 21.802C45.8679 21.7205 45.8732 21.7216 45.8886 21.8236C45.9217 22.0437 45.9705 22.5246 45.9705 23.3328H58.6793H71.3881C71.3881 20.0711 71.0497 16.1172 69.484 12.4292L57.7857 17.3954ZM58.6793 23.3328H45.9705V26.8278H58.6793H71.3881V23.3328H58.6793ZM50.637 22.5385H63.3458V20.6124H50.637H37.9281V22.5385H50.637ZM50.637 20.6124H63.3458C63.3458 19.7466 63.3242 18.8037 63.248 17.8819C63.1965 17.259 63.0471 15.4959 62.3506 13.5962L50.4186 17.9713L38.4865 22.3464C38.3089 21.8619 38.1972 21.4566 38.1289 21.1788C38.0586 20.8932 38.0143 20.6609 37.9871 20.5017C37.9348 20.1957 37.9189 20.002 37.9168 19.977C37.9134 19.9355 37.9281 20.1146 37.9281 20.6124H50.637ZM50.4186 17.9713L62.3506 13.5962C61.5231 11.3393 59.9149 8.80301 57.1355 6.95012C54.4198 5.13961 51.6136 4.66674 49.525 4.66674V17.3756V30.0844C47.8865 30.0844 45.4542 29.7108 43.0363 28.0989C40.5549 26.4446 39.1684 24.2061 38.4865 22.3464L50.4186 17.9713ZM49.525 17.3756V4.66674C46.8268 4.66674 39.5647 5.70118 36.6306 13.3297L48.4924 17.8919L60.3541 22.4541C59.2287 25.3802 57.0618 27.6076 54.5334 28.8718C52.3333 29.9718 50.4048 30.0844 49.525 30.0844V17.3756ZM48.4924 17.8919L36.6925 13.1719C35.8049 15.3909 35.6937 17.5467 35.6683 17.895C35.6033 18.7864 35.585 19.7282 35.585 20.6124H48.2938H61.0026C61.0026 20.3325 61.0058 20.1178 61.0102 19.9602C61.0147 19.7973 61.0195 19.7329 61.0186 19.7454C61.0179 19.7544 61.0144 19.8007 61.0061 19.8775C60.9981 19.9516 60.9823 20.0842 60.9539 20.2612C60.9266 20.431 60.8774 20.7072 60.7927 21.0544C60.7134 21.3795 60.5625 21.9362 60.2922 22.6118L48.4924 17.8919ZM48.2938 20.6124H35.585V22.5385H48.2938H61.0026V20.6124H48.2938ZM48.2938 22.5385V35.2474H50.637V22.5385V9.82971H48.2938V22.5385ZM86.2416 39.5366V52.2455H98.9504V39.5366H86.2416ZM79.3709 39.5366H66.662V52.2455H79.3709V39.5366ZM79.3709 21.367H92.0797L66.871 19.0719L79.3709 21.367ZM76.0348 39.5366V52.2455H86.6227L88.5347 41.8317L76.0348 39.5366ZM71.6463 39.5366L59.1612 41.9108L61.1265 52.2455H71.6463V39.5366ZM68.1911 21.367L80.6762 18.9927L55.4822 21.367H68.1911ZM68.1911 39.5366V52.2455H80.8999V39.5366H68.1911ZM61.3204 39.5366H48.6115V52.2455H61.3204V39.5366ZM61.3204 13.1856V0.476795H48.6115V13.1856H61.3204ZM71.269 13.1856L83.7855 10.9829L81.9365 0.476795H71.269V13.1856ZM73.8306 27.7412L61.3141 29.944L86.3806 29.7444L73.8306 27.7412ZM76.154 13.1856V0.476795H65.3128L63.604 11.1824L76.154 13.1856ZM86.2416 13.1856H98.9504V0.476795H86.2416V13.1856ZM86.2416 39.5366V26.8278H79.3709V39.5366V52.2455H86.2416V39.5366ZM79.3709 39.5366H92.0797V21.367H79.3709H66.662V39.5366H79.3709ZM79.3709 21.367L66.871 19.0719L63.5349 37.2416L76.0348 39.5366L88.5347 41.8317L91.8708 23.662L79.3709 21.367ZM76.0348 39.5366V26.8278H71.6463V39.5366V52.2455H76.0348V39.5366ZM71.6463 39.5366L84.1314 37.1624L80.6762 18.9927L68.1911 21.367L55.706 23.7412L59.1612 41.9108L71.6463 39.5366ZM68.1911 21.367H55.4822V39.5366H68.1911H80.8999V21.367H68.1911ZM68.1911 39.5366V26.8278H61.3204V39.5366V52.2455H68.1911V39.5366ZM61.3204 39.5366H74.0292V13.1856H61.3204H48.6115V39.5366H61.3204ZM61.3204 13.1856V25.8945H71.269V13.1856V0.476795H61.3204V13.1856ZM71.269 13.1856L58.7525 15.3884L61.3141 29.944L73.8306 27.7412L86.3471 25.5385L83.7855 10.9829L71.269 13.1856ZM73.8306 27.7412L86.3806 29.7444L88.7039 15.1888L76.154 13.1856L63.604 11.1824L61.2806 25.738L73.8306 27.7412ZM76.154 13.1856V25.8945H86.2416V13.1856V0.476795H76.154V13.1856ZM86.2416 13.1856H73.5328V39.5366H86.2416H98.9504V13.1856H86.2416ZM119.642 44.6202V57.329H132.351V44.6202H119.642ZM114.28 44.6202H101.572V57.329H114.28V44.6202ZM114.28 39.5366H126.989V26.8278H114.28V39.5366ZM100.777 39.5366V26.8278H88.0685V39.5366H100.777ZM100.777 44.6202V57.329H113.486V44.6202H100.777ZM95.4158 44.6202H82.707V57.329H95.4158V44.6202ZM95.4158 33.2418V20.5329H82.707V33.2418H95.4158ZM97.1235 33.2418V45.9506H104.037L107.794 40.1459L97.1235 33.2418ZM99.6256 25.9143L87.1616 23.4315L87.1578 23.4507L87.1541 23.4699L99.6256 25.9143ZM100.618 13.1856V0.476795H87.9096V13.1856H100.618ZM117.934 13.1856H130.643V0.476795H117.934V13.1856ZM117.934 33.2021H105.225V45.9109H117.934V33.2021ZM119.642 33.2021H132.351V20.4932H119.642V33.2021ZM109.971 33.2021V45.9109H122.68V33.2021H109.971ZM109.971 19.123H122.68V6.41421H109.971V19.123ZM107.886 19.123V6.41421H95.1775V19.123H107.886ZM105.503 33.2021L93.5813 28.8L87.2635 45.9109H105.503V33.2021ZM119.642 44.6202V31.9113H114.28V44.6202V57.329H119.642V44.6202ZM114.28 44.6202H126.989V39.5366H114.28H101.572V44.6202H114.28ZM114.28 39.5366V26.8278H100.777V39.5366V52.2455H114.28V39.5366ZM100.777 39.5366H88.0685V44.6202H100.777H113.486V39.5366H100.777ZM100.777 44.6202V31.9113H95.4158V44.6202V57.329H100.777V44.6202ZM95.4158 44.6202H108.125V33.2418H95.4158H82.707V44.6202H95.4158ZM95.4158 33.2418V45.9506H97.1235V33.2418V20.5329H95.4158V33.2418ZM97.1235 33.2418L107.794 40.1459C110.133 36.5307 111.345 32.1949 112.097 28.3588L99.6256 25.9143L87.1541 23.4699C86.9087 24.7215 86.6718 25.5792 86.4866 26.1216C86.2898 26.698 86.2318 26.6805 86.4536 26.3377L97.1235 33.2418ZM99.6256 25.9143L112.09 28.3972C112.958 24.0388 113.327 19.2502 113.327 14.1587H100.618H87.9096C87.9096 18.0957 87.6173 21.1442 87.1616 23.4315L99.6256 25.9143ZM100.618 14.1587H113.327V13.1856H100.618H87.9096V14.1587H100.618ZM100.618 13.1856V25.8945H117.934V13.1856V0.476795H100.618V13.1856ZM117.934 13.1856H105.225V33.2021H117.934H130.643V13.1856H117.934ZM117.934 33.2021V45.9109H119.642V33.2021V20.4932H117.934V33.2021ZM119.642 33.2021H106.933V44.6202H119.642H132.351V33.2021H119.642ZM109.971 33.2021H122.68V19.123H109.971H97.2625V33.2021H109.971ZM109.971 19.123V6.41421H107.886V19.123V31.8319H109.971V19.123ZM107.886 19.123H95.1775V19.4011H107.886H120.595V19.123H107.886ZM107.886 19.4011H95.1775C95.1775 22.8997 94.6151 26.0002 93.5813 28.8L105.503 33.2021L117.426 37.6041C119.569 31.799 120.595 25.6988 120.595 19.4011H107.886ZM105.503 33.2021V45.9109H109.971V33.2021V20.4932H105.503V33.2021ZM140.473 39.5366V52.2455H153.181V39.5366H140.473ZM132.49 39.5366H119.781V52.2455H132.49V39.5366ZM132.49 29.8263H145.199V17.1174H132.49V29.8263ZM129.611 29.8263V17.1174H116.902V29.8263H129.611ZM129.611 39.5366V52.2455H142.319V39.5366H129.611ZM121.648 39.5366H108.939V52.2455H121.648V39.5366ZM121.648 13.1856V0.476795H108.939V13.1856H121.648ZM129.611 13.1856H142.319V0.476795H129.611V13.1856ZM129.611 22.6577H116.902V35.3665H129.611V22.6577ZM132.49 22.6577V35.3665H145.199V22.6577H132.49ZM132.49 13.1856V0.476795H119.781V13.1856H132.49ZM140.473 13.1856H153.181V0.476795H140.473V13.1856ZM140.473 39.5366V26.8278H132.49V39.5366V52.2455H140.473V39.5366ZM132.49 39.5366H145.199V29.8263H132.49H119.781V39.5366H132.49ZM132.49 29.8263V17.1174H129.611V29.8263V42.5351H132.49V29.8263ZM129.611 29.8263H116.902V39.5366H129.611H142.319V29.8263H129.611ZM129.611 39.5366V26.8278H121.648V39.5366V52.2455H129.611V39.5366ZM121.648 39.5366H134.356V13.1856H121.648H108.939V39.5366H121.648ZM121.648 13.1856V25.8945H129.611V13.1856V0.476795H121.648V13.1856ZM129.611 13.1856H116.902V22.6577H129.611H142.319V13.1856H129.611ZM129.611 22.6577V35.3665H132.49V22.6577V9.94885H129.611V22.6577ZM132.49 22.6577H145.199V13.1856H132.49H119.781V22.6577H132.49ZM132.49 13.1856V25.8945H140.473V13.1856V0.476795H132.49V13.1856ZM140.473 13.1856H127.764V39.5366H140.473H153.181V13.1856H140.473ZM161.263 39.5366V52.2455H173.972V39.5366H161.263ZM153.281 39.5366H140.572V52.2455H153.281V39.5366ZM153.281 29.171H165.99V16.4621H153.281V29.171ZM151.136 29.8263L141.732 21.2774L141.66 21.3566L141.59 21.437L151.136 29.8263ZM150.56 39.5366V52.2455H163.269V39.5366H150.56ZM143.213 39.5366H130.504V52.2455H143.213V39.5366ZM143.471 29.9653L155.8 33.0476L155.807 33.0202L155.814 32.9928L143.471 29.9653ZM144.643 28.3171L137.805 17.6045L137.752 17.638L137.7 17.672L144.643 28.3171ZM147.8 27.1256L151.088 39.4017L148.935 14.4676L147.8 27.1256ZM144.067 25.4973L133.238 32.1494L133.259 32.1842L133.281 32.2189L144.067 25.4973ZM145.477 14.9132L153.13 25.0589L153.137 25.0537L153.144 25.0485L145.477 14.9132ZM161.263 13.1856H173.972V0.476795H161.263V13.1856ZM153.281 24.6037V37.3126H165.99V24.6037H153.281ZM153.281 18.3089H165.99V5.60005H153.281V18.3089ZM151.077 18.8252L159.885 27.9861L159.975 27.8998L160.063 27.8117L151.077 18.8252ZM151.136 24.0279L141.999 32.8608L142.148 33.0157L142.303 33.1654L151.136 24.0279ZM161.263 39.5366V26.8278H153.281V39.5366V52.2455H161.263V39.5366ZM153.281 39.5366H165.99V29.171H153.281H140.572V39.5366H153.281ZM153.281 29.171V16.4621C151.186 16.4621 145.827 16.7732 141.732 21.2774L151.136 29.8263L160.54 38.3752C158.842 40.2432 156.939 41.1054 155.684 41.4889C154.477 41.8576 153.58 41.8798 153.281 41.8798V29.171ZM151.136 29.8263L141.59 21.437C137.88 25.6587 137.851 30.7671 137.851 32.2886H150.56H163.269C163.269 32.3173 163.268 32.4462 163.248 32.6561C163.229 32.8612 163.185 33.2107 163.079 33.6636C162.898 34.4367 162.352 36.3153 160.683 38.2156L151.136 29.8263ZM150.56 32.2886H137.851V39.5366H150.56H163.269V32.2886H150.56ZM150.56 39.5366V26.8278H143.213V39.5366V52.2455H150.56V39.5366ZM143.213 39.5366H155.922V33.3609H143.213H130.504V39.5366H143.213ZM143.213 33.3609H155.922C155.922 33.0806 155.926 32.8506 155.932 32.6663C155.937 32.4803 155.945 32.3592 155.95 32.2939C155.955 32.2247 155.955 32.2497 155.941 32.3492C155.934 32.4017 155.921 32.486 155.9 32.5972C155.879 32.7075 155.847 32.8604 155.8 33.0476L143.471 29.9653L131.142 26.8829C130.561 29.205 130.504 31.6926 130.504 33.3609H143.213ZM143.471 29.9653L155.814 32.9928C155.546 34.0867 155.05 35.2664 154.252 36.3902C153.454 37.5128 152.509 38.3594 151.585 38.9622L144.643 28.3171L137.7 17.672C134.409 19.8186 132.074 23.0815 131.128 26.9378L143.471 29.9653ZM144.643 28.3171L151.48 39.0297C151.093 39.2771 150.791 39.4284 150.636 39.5019C150.552 39.542 150.488 39.5697 150.449 39.5863C150.409 39.603 150.387 39.6113 150.386 39.6118C150.384 39.6124 150.398 39.607 150.43 39.5961C150.462 39.5853 150.507 39.5702 150.568 39.551C150.692 39.5122 150.863 39.4619 151.088 39.4017L147.8 27.1256L144.512 14.8496C142.825 15.3014 140.168 16.0964 137.805 17.6045L144.643 28.3171ZM147.8 27.1256L148.935 14.4676C148.813 14.4567 149.473 14.4892 150.508 14.9405C151.625 15.4277 153.461 16.5419 154.853 18.7757L144.067 25.4973L133.281 32.2189C137.16 38.4432 143.781 39.5251 146.665 39.7837L147.8 27.1256ZM144.067 25.4973L154.896 18.8453C155.373 19.6221 155.627 20.2778 155.756 20.6668C155.888 21.0644 155.937 21.3299 155.95 21.4035C155.97 21.52 155.922 21.2858 155.922 20.5528H143.213H130.504C130.504 23.0961 130.656 27.9469 133.238 32.1494L144.067 25.4973ZM143.213 20.5528H155.922C155.922 20.4096 155.949 20.9749 155.573 21.9113C155.152 22.9589 154.355 24.1349 153.13 25.0589L145.477 14.9132L137.823 4.76757C132.013 9.15059 130.504 15.5899 130.504 20.5528H143.213ZM145.477 14.9132L153.144 25.0485C152.222 25.7464 151.475 26.0352 151.248 26.1169C150.995 26.208 150.968 26.1893 151.277 26.1353C151.926 26.0214 153.207 25.8945 155.326 25.8945V13.1856V0.476795C152.401 0.476795 149.519 0.637815 146.885 1.0998C144.533 1.51231 140.966 2.3896 137.809 4.77799L145.477 14.9132ZM155.326 13.1856V25.8945H161.263V13.1856V0.476795H155.326V13.1856ZM161.263 13.1856H148.555V39.5366H161.263H173.972V13.1856H161.263ZM153.281 24.6037H165.99V18.3089H153.281H140.572V24.6037H153.281ZM153.281 18.3089V5.60005H152.467V18.3089V31.0177H153.281V18.3089ZM152.467 18.3089V5.60005C149.224 5.60005 145.277 6.65204 142.09 9.83868L151.077 18.8252L160.063 27.8117C157.565 30.3099 154.545 31.0177 152.467 31.0177V18.3089ZM151.077 18.8252L142.268 9.66423C139.418 12.4049 138.566 15.612 138.273 16.9514C137.918 18.5794 137.851 20.089 137.851 21.1882H150.56H163.269C163.269 21.0431 163.289 21.5366 163.105 22.3769C163.008 22.821 162.809 23.5773 162.39 24.4848C161.974 25.3849 161.218 26.7045 159.885 27.9861L151.077 18.8252ZM150.56 21.1882H137.851V21.5258H150.56H163.269V21.1882H150.56ZM150.56 21.5258H137.851C137.851 22.7057 137.932 24.2707 138.319 25.955C138.672 27.4893 139.548 30.3258 141.999 32.8608L151.136 24.0279L160.274 15.1949C162.34 17.3328 162.928 19.5537 163.089 20.254C163.196 20.7158 163.236 21.0618 163.253 21.2429C163.261 21.3403 163.265 21.4129 163.267 21.4574C163.269 21.5021 163.269 21.5257 163.269 21.5258H150.56ZM151.136 24.0279L142.303 33.1654C146.427 37.1516 151.51 37.3126 153.281 37.3126V24.6037V11.8949C153.475 11.8949 154.219 11.9046 155.266 12.1857C156.309 12.4659 158.18 13.1605 159.969 14.8904L151.136 24.0279Z" fill="black" mask="url(#path-1-outside-1_208_660)"/>
</svg>
