<svg width="114" height="53" viewBox="0 0 114 53" fill="none" xmlns="http://www.w3.org/2000/svg">
<path d="M91.8018 0C95.5844 7.2219e-06 99.5958 0.788253 103.327 2.92188L103.688 3.13281L104.334 3.53516C107.443 5.54502 110.299 8.51654 111.907 12.6318L112.069 13.0615L112.289 13.7002C112.535 14.4555 112.733 15.2206 112.896 15.9854H113.646L113.565 28.7734V35.8428H113.104C112.563 38.992 111.26 41.6676 109.805 43.8125L109.804 43.8115C107.78 46.8004 105.047 49.1341 101.799 50.6689L101.747 50.6934L101.694 50.7178C98.3575 52.2578 94.9253 52.7216 91.9014 52.7217C88.3974 52.7217 84.1166 52.1588 80.1436 49.8545L80.1025 49.8311L80.0615 49.8066C76.3876 47.639 73.5295 44.397 71.9004 40.3242L71.873 40.2568L71.8467 40.1895C71.6667 39.7241 71.5061 39.2536 71.3613 38.7812C71.8267 38.3573 72.2278 37.8299 72.5596 37.1934V39.5361H80.3633V26.3105C80.3633 21.9554 80.2243 19.0824 79.9463 17.6924C79.6682 16.2894 78.8413 15.1112 77.4648 14.1582C76.1403 13.2285 74.1968 12.7472 71.6348 12.7119C71.6707 12.6164 71.7046 12.52 71.7422 12.4248L71.917 11.999C73.7524 7.69398 76.993 4.93144 79.8018 3.22266V3.22168C83.67 0.852102 87.8731 0 91.8018 0ZM91.8018 12.709C89.697 12.709 87.9098 13.1585 86.4404 14.0586C84.9711 14.9455 84.0107 15.9583 83.5605 17.0967C83.1104 18.2352 82.8857 19.9238 82.8857 22.1611V29.6475C82.8858 32.2155 83.1574 34.2013 83.7002 35.6045C84.2562 36.9944 85.1958 38.0803 86.5195 38.8613C87.8434 39.6291 89.6377 40.0127 91.9014 40.0127C93.6751 40.0127 95.1645 39.7347 96.3691 39.1787C97.5737 38.6095 98.5468 37.7755 99.2881 36.6768C100.043 35.5647 100.486 34.4853 100.618 33.4395C100.764 32.3805 100.843 30.7988 100.856 28.6943H93.708V31.8311C93.708 33.1945 93.6087 34.1215 93.4102 34.6113C93.2249 35.101 92.8609 35.3456 92.3184 35.3457C91.8551 35.3457 91.5039 35.1146 91.2656 34.6514C91.0273 34.1748 90.9082 33.4663 90.9082 32.5264V20.0957C90.9082 18.944 90.9876 18.2021 91.1465 17.8711C91.3054 17.5404 91.6169 17.375 92.0801 17.375C92.5432 17.3751 92.8611 17.5674 93.0332 17.9512C93.2052 18.3219 93.291 19.0369 93.291 20.0957V23.1338H100.856C100.856 20.6582 100.612 18.7448 100.122 17.3945C99.6322 16.0444 98.6457 14.926 97.1631 14.0391C95.6804 13.1521 93.8934 12.709 91.8018 12.709ZM70.1768 29.6475V29.1777C70.4628 28.5778 71.1832 27.8532 72.3408 27.0059V32.4268C72.3408 33.7506 72.2614 34.5719 72.1025 34.8896C71.9568 35.1939 71.6328 35.3457 71.1299 35.3457C70.9123 35.3457 70.7249 35.3102 70.5654 35.2432C70.2659 33.2891 70.1768 31.377 70.1768 29.6475ZM70.1768 22.1611C70.1768 20.7711 70.2349 19.1548 70.4678 17.457C70.6173 17.4023 70.7984 17.375 71.0107 17.375C71.4873 17.375 71.8249 17.5871 72.0234 18.0107C72.2352 18.4212 72.3408 19.3147 72.3408 20.6914C72.3408 21.7901 72.2488 22.5186 72.0635 22.876C71.9437 23.1065 71.3143 23.4762 70.1768 23.9873V22.1611Z" fill="white"/>
<path d="M71.3281 0C74.8574 0 79.436 0.521139 83.6084 3.00781L85.0498 1.9541V3.95703C87.8919 6.0141 90.3797 8.93134 91.7217 12.71C89.6516 12.7212 87.8912 13.1699 86.4404 14.0586C84.9711 14.9455 84.0107 15.9583 83.5605 17.0967C83.1104 18.2352 82.8857 19.9238 82.8857 22.1611V29.6475C82.8858 32.2155 83.1574 34.2013 83.7002 35.6045C84.2562 36.9944 85.1958 38.0803 86.5195 38.8613C87.8434 39.6291 89.6377 40.0127 91.9014 40.0127C92.3066 40.0127 92.6968 39.9958 93.0723 39.9668V52.2451H72.1387C70.6825 52.5801 69.2499 52.7217 67.8936 52.7217C66.4191 52.7217 64.9713 52.5603 63.5664 52.2451H59.8506V51.0039C58.8663 50.5617 57.9127 50.0393 56.999 49.4336L56.9297 49.3877L56.8613 49.3418C51.4215 45.6328 50.0153 39.9294 49.6709 36.1006H49.5645V29.8262H51.7891V39.5361H59.7715V13.1855H54.2588L51.2871 11.9121C53.1414 7.58536 56.391 4.80278 59.2842 3.07227C63.2734 0.686169 67.5866 5.31779e-05 71.3281 0ZM71.3281 12.709C69.0647 12.709 67.225 13.1324 65.8086 13.9795C64.3923 14.8266 63.4454 15.8061 62.9688 16.918C62.5054 18.0168 62.2734 19.5863 62.2734 21.625V23.3916H69.7998V20.6318C69.7998 19.1624 69.8657 18.2553 69.998 17.9111C70.1304 17.5538 70.4681 17.375 71.0107 17.375C71.4873 17.375 71.8249 17.5871 72.0234 18.0107C72.2352 18.4212 72.3408 19.3147 72.3408 20.6914C72.3408 21.7901 72.2488 22.5186 72.0635 22.876C71.8777 23.2335 70.4678 23.9286 67.834 24.9609C65.3717 25.9141 63.8292 26.748 63.207 27.4629C62.5848 28.1778 62.2734 29.5216 62.2734 31.4941V33.6582C62.2734 36.3188 62.8558 38.0464 64.0205 38.8408C65.1987 39.6219 66.4903 40.0127 67.8936 40.0127C68.9657 40.0126 69.8856 39.7807 70.6533 39.3174C71.4342 38.8409 72.0698 38.1331 72.5596 37.1934V39.5361H80.3633V26.3105C80.3633 21.9554 80.2243 19.0824 79.9463 17.6924C79.6682 16.2894 78.8413 15.1112 77.4648 14.1582C76.0881 13.1918 74.042 12.709 71.3281 12.709ZM72.3408 32.4268C72.3408 33.7506 72.2614 34.5719 72.1025 34.8896C71.9568 35.1939 71.6328 35.3457 71.1299 35.3457C70.6004 35.3457 70.2429 35.1471 70.0576 34.75C69.8856 34.3527 69.7998 33.4725 69.7998 32.1094C69.7998 30.9179 69.8991 30.0046 70.0977 29.3691C70.3095 28.7337 71.0568 27.9457 72.3408 27.0059V32.4268ZM90.9082 20.0957C90.9082 18.944 90.9876 18.2021 91.1465 17.8711C91.3054 17.5404 91.6169 17.375 92.0801 17.375C92.3572 17.3751 92.581 17.4455 92.7539 17.583C93.0178 20.1363 93.0723 23.2341 93.0723 26.3105V35.1025C92.8787 35.2631 92.629 35.3456 92.3184 35.3457C91.8551 35.3457 91.5039 35.1146 91.2656 34.6514C91.0273 34.1748 90.9082 33.4663 90.9082 32.5264V20.0957ZM49.5645 21.625C49.5645 18.9241 49.8268 15.3743 51.2578 11.9805L51.2871 11.9121L54.2588 13.1855H51.7891V22.6572H49.5645V21.625Z" fill="white"/>
<path d="M59.7715 13.1855H51.7891V22.6572H48.9092V13.1855H40.9463V39.5361H48.9092V29.8262H51.7891V39.5361H59.7715V13.1855ZM72.3408 32.4268C72.3408 33.7506 72.2614 34.5719 72.1025 34.8896C71.9568 35.1939 71.6328 35.3457 71.1299 35.3457C70.6004 35.3457 70.2429 35.1471 70.0576 34.75C69.8856 34.3527 69.7998 33.4725 69.7998 32.1094C69.7998 30.9179 69.8991 30.0046 70.0977 29.3691C70.3095 28.7337 71.0568 27.9457 72.3408 27.0059V32.4268ZM71.3281 12.709C69.0647 12.709 67.225 13.1324 65.8086 13.9795C64.3923 14.8266 63.4454 15.8061 62.9688 16.918C62.5054 18.0168 62.2734 19.5863 62.2734 21.625V23.3916H69.7998V20.6318C69.7998 19.1624 69.8657 18.2553 69.998 17.9111C70.1304 17.5538 70.4681 17.375 71.0107 17.375C71.4873 17.375 71.8249 17.5871 72.0234 18.0107C72.2352 18.4212 72.3408 19.3147 72.3408 20.6914C72.3408 21.7901 72.2488 22.5186 72.0635 22.876C71.8777 23.2335 70.4678 23.9286 67.834 24.9609C65.3717 25.9141 63.8292 26.748 63.207 27.4629C62.5848 28.1778 62.2734 29.5216 62.2734 31.4941V33.6582C62.2734 36.3188 62.8558 38.0464 64.0205 38.8408C65.1987 39.6219 66.4903 40.0127 67.8936 40.0127C68.9657 40.0126 69.8856 39.7807 70.6533 39.3174C71.3943 38.8652 72.0016 38.2032 72.4805 37.334V52.2451H28.2373V38.1816C28.5934 37.8931 28.9181 37.5702 29.2109 37.2129C29.9919 36.2466 30.5009 35.2139 30.7393 34.1152C30.9775 33.0032 31.0967 31.2622 31.0967 28.8926V22.4385C31.0967 20.572 30.9649 19.182 30.7002 18.2686C30.4487 17.3551 29.9721 16.4679 29.2705 15.6074C28.9785 15.2493 28.6325 14.9229 28.2373 14.6221V0.476562H72.4805V12.7412C72.1109 12.7204 71.7265 12.709 71.3281 12.709Z" fill="white"/>
<path d="M21.6445 0C24.6255 0 27.8854 0.438346 31.0732 1.75781L31.0742 1.75586C31.1226 1.77562 31.1712 1.79622 31.2197 1.81641L31.2188 1.81738C33.7632 2.87581 36.4436 4.51611 38.6719 7.04785L39.1201 7.57617L39.4229 7.95605C40.5957 9.46078 41.6368 11.204 42.3916 13.1855H40.9463V39.5361H42.3545C41.5613 41.6477 40.4356 43.5422 39.0947 45.2012L39.0684 45.2344L39.041 45.2676C36.7481 48.0657 33.8449 50.0372 30.6689 51.2324L30.6338 51.2451L30.5977 51.2588C27.6938 52.3319 24.7495 52.7217 21.9824 52.7217C19.3707 52.7217 16.5101 52.4483 13.6914 51.5693L13.6318 51.5508L13.5732 51.5322C10.6904 50.6023 7.58778 48.9386 5.06152 46.0723L4.98633 45.9873L4.91211 45.9004C2.87949 43.5091 1.57582 40.7955 0.851562 38.0303L0.84668 38.0117L0.842773 37.9941C0.137465 35.269 1.41387e-05 32.2824 0 29.7666V23.0146C0 19.8976 0.302701 16.1951 1.6416 12.7139L1.79883 12.3184C3.46128 8.26338 6.33649 5.1748 9.77832 3.08984L10.1465 2.87207C13.9603 0.672267 18.0438 5.02911e-05 21.6445 0ZM21.6445 12.709C19.5002 12.709 17.74 13.1261 16.3633 13.96C14.9866 14.7939 14.0325 15.8987 13.5029 17.2754C12.9734 18.6522 12.709 20.5655 12.709 23.0146V29.7666C12.709 32.0033 12.8544 33.6844 13.1455 34.8096C13.4368 35.9216 13.9205 36.8756 14.5957 37.6699C15.284 38.4508 16.2438 39.0394 17.4746 39.4365C18.7058 39.8204 20.2085 40.0127 21.9824 40.0127C23.571 40.0127 24.9745 39.788 26.1924 39.3379C27.4236 38.8745 28.4299 38.1661 29.2109 37.2129C29.9919 36.2466 30.5009 35.2139 30.7393 34.1152C30.9775 33.0032 31.0967 31.2622 31.0967 28.8926V22.4385C31.0967 20.572 30.9649 19.182 30.7002 18.2686C30.4487 17.3551 29.9721 16.4679 29.2705 15.6074C28.5689 14.747 27.5688 14.052 26.2715 13.5225C24.9874 12.9798 23.4448 12.709 21.6445 12.709ZM23.0742 32.6055C23.0742 33.744 22.9948 34.4859 22.8359 34.8301C22.6903 35.174 22.3796 35.3456 21.9033 35.3457C21.44 35.3457 21.1286 35.1607 20.9697 34.79C20.8109 34.4061 20.7314 33.5919 20.7314 32.3477V20.4531C20.7314 19.1028 20.8109 18.2553 20.9697 17.9111C21.1286 17.5538 21.4464 17.375 21.9229 17.375C22.3994 17.375 22.7108 17.5537 22.8564 17.9111C23.0021 18.2553 23.0742 19.1028 23.0742 20.4531V32.6055Z" fill="white"/>
<rect x="9.06982" y="8.53613" width="95" height="36" fill="white"/>
</svg>
