<svg width="530" height="72" viewBox="0 0 530 72" fill="none" xmlns="http://www.w3.org/2000/svg">
<path d="M505.036 28.4993H495.107C495.14 25.0095 495.435 22.4617 495.992 20.8561C496.549 19.2505 497.753 17.8496 499.605 16.6536C501.473 15.4412 503.848 14.835 506.732 14.835C508.813 14.835 510.631 15.1626 512.188 15.818C513.744 16.4734 514.981 17.3909 515.899 18.5705C516.816 19.7338 517.488 20.9954 517.914 22.3552C518.34 23.7151 518.553 25.845 518.553 28.745V33.6111C518.553 35.8229 518.348 37.6006 517.939 38.9441C517.529 40.2876 516.636 41.4672 515.26 42.483C513.884 43.4989 512.27 44.0068 510.418 44.0068C508.01 44.0068 506.216 43.0647 505.036 41.1805V45.4568H495.771V34.5204H504.815C504.848 36.0277 505.388 36.7814 506.437 36.7814C507.256 36.7814 507.772 36.4537 507.985 35.7984C508.215 35.1266 508.329 33.4964 508.329 30.9077V24.2968C508.329 22.8386 508.223 21.8637 508.01 21.3722C507.813 20.8643 507.412 20.6103 506.806 20.6103C506.052 20.6103 505.569 20.9462 505.356 21.618C505.143 22.2733 505.036 23.7643 505.036 26.0908V28.4993ZM505.036 47.4966V55.4592H495.771V47.4966H505.036Z" fill="black"/>
<path d="M491.249 55.4591H481.369V42.6304C480.091 42.6304 479.207 42.9008 478.715 43.4414C478.24 43.9821 478.002 44.9979 478.002 46.4889V55.4591H468.909V47.816C468.909 45.8663 469.016 44.4654 469.229 43.6135C469.442 42.7451 469.925 42.0652 470.679 41.5737C471.449 41.0821 472.751 40.5906 474.586 40.0991C472.211 39.8861 470.67 39.2143 469.966 38.0838C469.261 36.937 468.909 34.8971 468.909 31.9644C468.909 28.7204 469.843 26.3938 471.711 24.9848C473.595 23.5594 477.658 22.8467 483.901 22.8467H491.249V55.4591ZM481.369 36.9779V29.1873H480.362C479.641 29.1873 479.067 29.4003 478.641 29.8263C478.215 30.2359 478.002 31.2107 478.002 32.7508V33.1686C478.002 34.7415 478.24 35.7737 478.715 36.2652C479.207 36.7404 480.091 36.9779 481.369 36.9779Z" fill="black"/>
<path d="M466.083 35.1593H456.72V31.3991C456.72 30.0884 456.613 29.2037 456.4 28.7449C456.187 28.2698 455.794 28.0322 455.221 28.0322C454.647 28.0322 454.262 28.237 454.065 28.6466C453.869 29.0562 453.771 29.9737 453.771 31.3991V46.7838C453.771 47.947 453.918 48.8236 454.213 49.4134C454.508 49.9868 454.942 50.2736 455.515 50.2736C456.187 50.2736 456.638 49.9705 456.867 49.3642C457.113 48.758 457.236 47.6112 457.236 45.9236V42.0406H466.083C466.067 44.6456 465.968 46.6035 465.788 47.9143C465.624 49.2086 465.076 50.5439 464.142 51.9202C463.224 53.28 462.02 54.3122 460.529 55.0167C459.038 55.7049 457.195 56.0489 454.999 56.0489C452.198 56.0489 449.978 55.5738 448.339 54.6235C446.701 53.6569 445.538 52.3134 444.849 50.5931C444.178 48.8563 443.842 46.3987 443.842 43.2202V33.955C443.842 31.1861 444.12 29.0972 444.677 27.6881C445.234 26.2791 446.422 25.0257 448.241 23.928C450.06 22.8139 452.271 22.2568 454.876 22.2568C457.465 22.2568 459.677 22.8057 461.512 23.9034C463.347 25.0012 464.568 26.3856 465.174 28.0568C465.78 29.728 466.083 32.0955 466.083 35.1593Z" fill="black"/>
<path d="M442.121 22.8467V29.6788H436.444V55.4591H426.54V29.6788H420.838V22.8467H442.121Z" fill="black"/>
<path d="M419.192 39.7304H406.338V46.7838C406.338 48.2583 406.445 49.2086 406.658 49.6346C406.871 50.0606 407.28 50.2736 407.887 50.2736C408.64 50.2736 409.14 49.995 409.386 49.438C409.648 48.8645 409.779 47.7668 409.779 46.1448V41.844H419.192V44.2524C419.192 46.2677 419.061 47.816 418.798 48.8973C418.553 49.9786 417.963 51.1337 417.029 52.3625C416.095 53.5913 414.907 54.517 413.465 55.1396C412.04 55.7458 410.246 56.0489 408.083 56.0489C405.986 56.0489 404.135 55.7458 402.529 55.1396C400.923 54.5334 399.67 53.706 398.769 52.6574C397.884 51.5925 397.27 50.4292 396.926 49.1676C396.582 47.8897 396.41 46.0383 396.41 43.6134V34.1025C396.41 31.2517 396.795 29.0071 397.565 27.3687C398.335 25.7139 399.596 24.4523 401.349 23.5839C403.103 22.6992 405.118 22.2568 407.395 22.2568C410.18 22.2568 412.474 22.7893 414.276 23.8543C416.095 24.9029 417.365 26.3037 418.086 28.0568C418.823 29.7935 419.192 32.2429 419.192 35.405V39.7304ZM409.238 34.422V32.0381C409.238 30.3506 409.148 29.261 408.968 28.7695C408.788 28.278 408.419 28.0322 407.862 28.0322C407.174 28.0322 406.748 28.2452 406.584 28.6712C406.42 29.0808 406.338 30.2031 406.338 32.0381V34.422H409.238Z" fill="black"/>
<path d="M394.935 22.8467L392.085 46.4397C391.642 50.1753 391.265 52.723 390.954 54.0829C390.659 55.4428 390.159 56.5651 389.455 57.4498C388.75 58.3345 387.767 58.9817 386.506 59.3913C385.261 59.8173 383.262 60.0303 380.509 60.0303H374.488V54.8202C376.028 54.8202 377.019 54.7464 377.462 54.599C377.904 54.4351 378.125 54.0829 378.125 53.5422C378.125 53.2801 377.921 52.1414 377.511 50.1261L372.08 22.8467H381.099L384.343 44.8423L385.916 22.8467H394.935Z" fill="black"/>
<path d="M360.676 48.7741V32.1115C360.676 30.6533 360.635 29.7522 360.553 29.4081C360.373 28.6544 359.931 28.2776 359.226 28.2776C358.505 28.2776 358.055 28.6626 357.875 29.4327C357.793 29.7931 357.752 30.6861 357.752 32.1115V47.7173C357.752 49.5851 358.243 50.519 359.226 50.519C360.193 50.519 360.676 49.9373 360.676 48.7741ZM363.036 22.8463C367.754 22.8463 370.22 24.755 370.433 28.5725C370.531 30.3911 370.581 32.39 370.581 34.5691V42.5317C370.581 46.2181 370.335 48.7331 369.843 50.0766C368.401 53.8613 364.838 55.7537 359.153 55.7537C357.023 55.7537 355.63 55.7209 354.975 55.6554C353.598 55.4751 352.427 55.0573 351.46 54.402C349.92 53.337 348.896 51.887 348.388 50.052C348.028 48.7085 347.848 46.5704 347.848 43.6376V24.4929C347.848 21.7895 348.749 19.5941 350.551 17.9065C352.353 16.2026 354.704 15.3506 357.604 15.3506C358.817 15.3506 360.553 15.4325 362.814 15.5963C365.075 15.7602 366.558 15.8421 367.263 15.8421C368.131 15.8421 368.868 15.7438 369.475 15.5472V20.6836C368.672 20.913 368.033 21.0277 367.558 21.0277C366.673 21.0277 365.411 20.9621 363.773 20.8311C362.151 20.7 360.988 20.6344 360.283 20.6344C358.94 20.6344 358.112 21.2734 357.801 22.5514C357.703 22.9282 357.654 23.985 357.654 25.7217C359.226 23.8048 361.02 22.8463 363.036 22.8463Z" fill="black"/>
<path d="M344.579 39.7304H331.726V46.7838C331.726 48.2583 331.832 49.2086 332.045 49.6346C332.258 50.0606 332.668 50.2736 333.274 50.2736C334.028 50.2736 334.527 49.995 334.773 49.438C335.035 48.8645 335.166 47.7668 335.166 46.1448V41.844H344.579V44.2524C344.579 46.2677 344.448 47.816 344.186 48.8973C343.94 49.9786 343.35 51.1337 342.416 52.3625C341.482 53.5913 340.294 54.517 338.853 55.1396C337.427 55.7458 335.633 56.0489 333.47 56.0489C331.373 56.0489 329.522 55.7458 327.916 55.1396C326.311 54.5334 325.057 53.706 324.156 52.6574C323.271 51.5925 322.657 50.4292 322.313 49.1676C321.969 47.8897 321.797 46.0383 321.797 43.6134V34.1025C321.797 31.2517 322.182 29.0071 322.952 27.3687C323.722 25.7139 324.984 24.4523 326.737 23.5839C328.49 22.6992 330.505 22.2568 332.782 22.2568C335.568 22.2568 337.861 22.7893 339.664 23.8543C341.482 24.9029 342.752 26.3037 343.473 28.0568C344.21 29.7935 344.579 32.2429 344.579 35.405V39.7304ZM334.626 34.422V32.0381C334.626 30.3506 334.535 29.261 334.355 28.7695C334.175 28.278 333.806 28.0322 333.249 28.0322C332.561 28.0322 332.135 28.2452 331.971 28.6712C331.808 29.0808 331.726 30.2031 331.726 32.0381V34.422H334.626Z" fill="black"/>
<path d="M306.044 22.8467L305.872 25.7221C306.756 24.5588 307.731 23.6904 308.796 23.117C309.861 22.5436 311.024 22.2568 312.286 22.2568C313.826 22.2568 315.153 22.6746 316.267 23.5102C317.398 24.3294 318.102 25.2797 318.381 26.361C318.659 27.4424 318.799 29.2774 318.799 31.8661V45.6041C318.799 48.5696 318.618 50.6832 318.258 51.9447C317.914 53.1899 317.193 54.1893 316.095 54.943C315.014 55.6803 313.703 56.0489 312.163 56.0489C310.934 56.0489 309.796 55.7622 308.747 55.1888C307.698 54.6153 306.74 53.7634 305.872 52.6329V60.104H295.943V22.8467H306.044ZM308.87 32.333C308.87 30.3178 308.796 29.0972 308.649 28.6712C308.501 28.2452 308.092 28.0322 307.42 28.0322C306.765 28.0322 306.339 28.278 306.142 28.7695C305.962 29.261 305.872 30.4489 305.872 32.333V45.8499C305.872 47.816 305.97 49.0448 306.167 49.5363C306.363 50.0278 306.789 50.2736 307.444 50.2736C308.083 50.2736 308.477 50.0524 308.624 49.61C308.788 49.1513 308.87 48.0535 308.87 46.3168V32.333Z" fill="black"/>
<path d="M293.927 22.8467V29.6788H288.25V55.4591H278.346V29.6788H272.645V22.8467H293.927Z" fill="black"/>
<path d="M261.806 55.4591H251.927V42.6304C250.649 42.6304 249.764 42.9008 249.273 43.4414C248.798 43.9821 248.56 44.9979 248.56 46.4889V55.4591H239.467V47.816C239.467 45.8663 239.573 44.4654 239.786 43.6135C239.999 42.7451 240.483 42.0652 241.236 41.5737C242.006 41.0821 243.309 40.5906 245.144 40.0991C242.768 39.8861 241.228 39.2143 240.524 38.0838C239.819 36.937 239.467 34.8971 239.467 31.9644C239.467 28.7204 240.401 26.3938 242.268 24.9848C244.153 23.5594 248.216 22.8467 254.458 22.8467H261.806V55.4591ZM251.927 36.9779V29.1873H250.919C250.198 29.1873 249.625 29.4003 249.199 29.8263C248.773 30.2359 248.56 31.2107 248.56 32.7508V33.1686C248.56 34.7415 248.798 35.7737 249.273 36.2652C249.764 36.7404 250.649 36.9779 251.927 36.9779Z" fill="black"/>
<path d="M236.075 55.4591H226.196V43.4414H222.632V55.4591H212.777V22.8467H222.632V34.5695H226.196V22.8467H236.075V55.4591Z" fill="black"/>
<path d="M209.509 39.7304H196.655V46.7838C196.655 48.2583 196.762 49.2086 196.975 49.6346C197.188 50.0606 197.597 50.2736 198.204 50.2736C198.957 50.2736 199.457 49.995 199.703 49.438C199.965 48.8645 200.096 47.7668 200.096 46.1448V41.844H209.509V44.2524C209.509 46.2677 209.378 47.816 209.115 48.8973C208.87 49.9786 208.28 51.1337 207.346 52.3625C206.412 53.5913 205.224 54.517 203.782 55.1396C202.357 55.7458 200.563 56.0489 198.4 56.0489C196.303 56.0489 194.452 55.7458 192.846 55.1396C191.24 54.5334 189.987 53.706 189.086 52.6574C188.201 51.5925 187.587 50.4292 187.243 49.1676C186.899 47.8897 186.727 46.0383 186.727 43.6134V34.1025C186.727 31.2517 187.112 29.0071 187.882 27.3687C188.652 25.7139 189.913 24.4523 191.666 23.5839C193.419 22.6992 195.435 22.2568 197.712 22.2568C200.497 22.2568 202.791 22.7893 204.593 23.8543C206.412 24.9029 207.682 26.3037 208.403 28.0568C209.14 29.7935 209.509 32.2429 209.509 35.405V39.7304ZM199.555 34.422V32.0381C199.555 30.3506 199.465 29.261 199.285 28.7695C199.105 28.278 198.736 28.0322 198.179 28.0322C197.491 28.0322 197.065 28.2452 196.901 28.6712C196.737 29.0808 196.655 30.2031 196.655 32.0381V34.422H199.555Z" fill="black"/>
<path d="M183.458 55.4591H174.955V32.972L170.826 55.4591H165.395L161.119 32.972V55.4591H152.615V22.8467H164.928L168.098 40.8609L170.974 22.8467H183.458V55.4591Z" fill="black"/>
<path d="M141.703 22.8467V29.6788H136.026V55.4591H126.122V29.6788H120.42V22.8467H141.703Z" fill="black"/>
<path d="M118.749 34.2991V42.2863C118.749 45.2191 118.602 47.3736 118.307 48.7498C118.012 50.1097 117.381 51.3877 116.414 52.5837C115.448 53.7634 114.203 54.6399 112.679 55.2134C111.172 55.7704 109.435 56.0489 107.469 56.0489C105.273 56.0489 103.414 55.8114 101.89 55.3362C100.366 54.8447 99.1784 54.1156 98.3264 53.149C97.4908 52.1659 96.8928 50.9863 96.5324 49.61C96.1719 48.2174 95.9917 46.1366 95.9917 43.3677V35.0118C95.9917 31.9808 96.3194 29.6133 96.9747 27.9093C97.6301 26.2054 98.8098 24.8373 100.514 23.8051C102.218 22.7729 104.397 22.2568 107.051 22.2568C109.279 22.2568 111.188 22.5927 112.777 23.2645C114.383 23.9198 115.62 24.78 116.488 25.8449C117.357 26.9099 117.946 28.0076 118.258 29.1381C118.585 30.2686 118.749 31.989 118.749 34.2991ZM108.82 31.8415C108.82 30.1703 108.73 29.1218 108.55 28.6958C108.37 28.2534 107.985 28.0322 107.395 28.0322C106.805 28.0322 106.412 28.2534 106.215 28.6958C106.019 29.1218 105.92 30.1703 105.92 31.8415V46.5626C105.92 48.1027 106.019 49.1103 106.215 49.5854C106.412 50.0442 106.797 50.2736 107.37 50.2736C107.96 50.2736 108.345 50.0606 108.525 49.6346C108.722 49.2086 108.82 48.2911 108.82 46.8821V31.8415Z" fill="black"/>
<path d="M84.0968 34.2991V42.2863C84.0968 45.2191 83.9494 47.3736 83.6544 48.7498C83.3595 50.1097 82.7287 51.3877 81.7621 52.5837C80.7954 53.7634 79.5502 54.6399 78.0265 55.2134C76.5192 55.7704 74.7825 56.0489 72.8164 56.0489C70.6209 56.0489 68.7613 55.8114 67.2376 55.3362C65.7139 54.8447 64.5261 54.1156 63.6741 53.149C62.8385 52.1659 62.2405 50.9863 61.88 49.61C61.5196 48.2174 61.3394 46.1366 61.3394 43.3677V35.0118C61.3394 31.9808 61.667 29.6133 62.3224 27.9093C62.9778 26.2054 64.1574 24.8373 65.8614 23.8051C67.5653 22.7729 69.7444 22.2568 72.3986 22.2568C74.6268 22.2568 76.5356 22.5927 78.1248 23.2645C79.7305 23.9198 80.9674 24.78 81.8358 25.8449C82.7042 26.9099 83.294 28.0076 83.6053 29.1381C83.933 30.2686 84.0968 31.989 84.0968 34.2991ZM74.1681 31.8415C74.1681 30.1703 74.078 29.1218 73.8977 28.6958C73.7175 28.2534 73.3325 28.0322 72.7427 28.0322C72.1528 28.0322 71.7596 28.2534 71.563 28.6958C71.3664 29.1218 71.2681 30.1703 71.2681 31.8415V46.5626C71.2681 48.1027 71.3664 49.1103 71.563 49.5854C71.7596 50.0442 72.1446 50.2736 72.7181 50.2736C73.3079 50.2736 73.6929 50.0606 73.8732 49.6346C74.0698 49.2086 74.1681 48.2911 74.1681 46.8821V31.8415Z" fill="black"/>
<path d="M59.6193 22.8467V29.6788H53.9422V55.4591H44.0381V29.6788H38.3364V22.8467H59.6193Z" fill="black"/>
<path d="M25.7289 40.197C24.8933 41.0817 23.8038 41.7945 22.4603 42.3351C21.1168 42.8594 19.7569 43.1216 18.3806 43.1216C15.9067 43.1216 14.1044 42.4334 12.9739 41.0572C11.8598 39.6809 11.3027 37.551 11.3027 34.6674V15.6455H21.6738V33.5615C21.6738 35.118 21.8049 36.1911 22.0671 36.7809C22.3456 37.3544 22.7961 37.6411 23.4187 37.6411C24.9588 37.6411 25.7289 36.314 25.7289 33.6598V15.6455H36.1V55.4588H25.7289V40.197Z" fill="black"/>
<path d="M496.149 5.69043C499.583 4.1151 503.234 3.53227 506.731 3.53223C509.979 3.53223 513.347 4.0428 516.573 5.40137C519.657 6.69967 522.524 8.70537 524.771 11.5713H524.772C524.78 11.581 524.787 11.5909 524.795 11.6006C524.803 11.611 524.812 11.6214 524.82 11.6318H524.819C526.532 13.8171 527.853 16.2765 528.699 18.9766C529.665 22.0586 529.855 25.6288 529.855 28.7451V33.6113C529.855 36.3767 529.616 39.398 528.749 42.2402C527.488 46.375 524.866 49.4397 521.972 51.5762C520.209 52.8773 518.31 53.8164 516.338 54.4277V66.7607H484.469V55.459H491.249V22.8467H484.107C484.329 20.8687 484.7 18.922 485.314 17.1514L485.469 16.7227C487.113 12.3457 490.227 9.26141 493.451 7.17383V7.17285C493.545 7.11217 493.639 7.05402 493.733 6.99512V1.83008L496.149 5.69043ZM495.771 47.4961V55.459H505.036V47.4961H495.771ZM506.731 14.835C503.848 14.835 501.472 15.441 499.604 16.6533C497.753 17.8492 496.549 19.25 495.992 20.8555C495.435 22.4611 495.14 25.0092 495.107 28.499H505.036V26.0908C505.036 23.7648 505.143 22.2737 505.355 21.6182C505.568 20.9464 506.052 20.6104 506.806 20.6104C507.412 20.6104 507.813 20.8642 508.01 21.3721C508.223 21.8636 508.329 22.8388 508.329 24.2969V30.9072C508.329 33.4955 508.215 35.1259 507.985 35.7979C507.772 36.4532 507.256 36.7812 506.437 36.7812C505.388 36.7811 504.847 36.0274 504.814 34.5205H495.771V45.4561H505.036V41.1807C506.216 43.0646 508.01 44.0068 510.418 44.0068C512.269 44.0068 513.884 43.4982 515.26 42.4824C516.636 41.4668 517.529 40.2876 517.938 38.9443C518.348 37.6009 518.553 35.823 518.553 33.6113V28.7451C518.553 25.8455 518.34 23.7154 517.914 22.3555C517.488 20.9956 516.816 19.7336 515.898 18.5703C514.981 17.3907 513.744 16.4727 512.188 15.8174C510.631 15.1621 508.812 14.835 506.731 14.835Z" fill="black"/>
<path d="M502.551 11.5439V15.3535C501.458 15.6553 500.476 16.0877 499.604 16.6533C497.753 17.8492 496.549 19.25 495.992 20.8555C495.435 22.4611 495.14 25.0092 495.107 28.499H502.551V34.5205H495.771V45.4561H502.551V47.4961H495.771V55.459H502.551V66.7607H457.607V55.8613C458.697 55.6932 459.671 55.4122 460.528 55.0166C462.019 54.3121 463.224 53.2798 464.142 51.9199C465.075 50.5437 465.624 49.2084 465.788 47.9141C465.968 46.6033 466.067 44.6451 466.083 42.04H458.018C458.088 41.6452 458.168 41.2543 458.264 40.8721C458.348 40.5323 458.444 40.1976 458.551 39.8682C458.086 38.2486 457.848 36.6328 457.727 35.1592H466.083C466.083 32.0954 465.78 29.7278 465.174 28.0566C464.568 26.3855 463.347 25.0011 461.512 23.9033C460.853 23.5095 460.146 23.1881 459.391 22.9355C460.519 20.3765 462.27 17.9516 464.892 15.9707C467.964 13.6461 471.556 12.7162 474.219 12.249C477.133 11.7379 480.421 11.544 483.9 11.5439H502.551ZM481.369 29.1875V36.9775C480.091 36.9775 479.206 36.7398 478.715 36.2646C478.24 35.773 478.002 34.7412 478.002 33.1689V32.751C478.002 31.2109 478.216 30.2358 478.642 29.8262C479.068 29.4003 479.641 29.1876 480.361 29.1875H481.369ZM478.002 55.459V46.4883C478.002 44.9978 478.24 43.9821 478.715 43.4414C479.206 42.9008 480.091 42.6299 481.369 42.6299V55.459H491.249V22.8467H483.9C477.658 22.8467 473.595 23.5591 471.711 24.9844C469.843 26.3933 468.909 28.72 468.909 31.9639C468.909 34.8966 469.261 36.9371 469.966 38.084C470.67 39.2143 472.211 39.8856 474.586 40.0986C472.751 40.5901 471.449 41.0818 470.679 41.5732C469.925 42.0648 469.442 42.7449 469.229 43.6133C469.016 44.4652 468.909 45.8659 468.909 47.8154V55.459H478.002Z" fill="black"/>
<path d="M454.876 10.9541C458.946 10.9541 463.12 11.8007 466.945 13.9883L467.314 14.2041L467.983 14.6211C471.125 16.6511 473.914 19.5622 475.527 23.5049C473.823 23.857 472.55 24.3493 471.711 24.9844C469.843 26.3933 468.909 28.72 468.909 31.9639C468.909 34.8966 469.261 36.9371 469.966 38.084C470.67 39.2143 472.211 39.8856 474.586 40.0986C472.751 40.5901 471.449 41.0818 470.679 41.5732C469.925 42.0648 469.442 42.7449 469.229 43.6133C469.016 44.4652 468.909 45.8659 468.909 47.8154V55.459H475.13C474.638 56.4605 474.083 57.3981 473.494 58.2666L473.493 58.2656C471.435 61.3063 468.665 63.6722 465.357 65.2354L465.312 65.2568L465.265 65.2783C461.877 66.8416 458.306 67.3506 454.999 67.3506C451.095 67.3506 446.663 66.7169 442.669 64.4004L442.632 64.3789L442.596 64.3574C439.072 62.2785 436.316 59.2513 434.638 55.459H436.444V29.6787H442.121V22.8467H434.457C436.273 18.7845 439.411 16.0677 442.337 14.29L442.708 14.0674C446.561 11.8127 450.781 10.9541 454.876 10.9541ZM454.876 22.2568C452.271 22.2569 450.06 22.8138 448.241 23.9277C446.423 25.0255 445.234 26.2794 444.677 27.6885C444.12 29.0975 443.842 31.1865 443.842 33.9551V43.2197C443.842 46.3982 444.178 48.8561 444.85 50.5928C445.538 52.313 446.701 53.6564 448.339 54.623C449.977 55.5733 452.197 56.0488 454.999 56.0488C457.194 56.0488 459.037 55.7046 460.528 55.0166C462.019 54.3121 463.224 53.2798 464.142 51.9199C465.075 50.5437 465.624 49.2084 465.788 47.9141C465.968 46.6033 466.067 44.6451 466.083 42.04H457.235V45.9238C457.235 47.6112 457.113 48.7581 456.867 49.3643C456.638 49.9703 456.187 50.2733 455.516 50.2734C454.942 50.2734 454.508 49.9865 454.213 49.4131C453.918 48.8233 453.771 47.9464 453.771 46.7832V31.3994C453.771 29.974 453.869 29.0561 454.065 28.6465C454.262 28.2369 454.647 28.0322 455.221 28.0322C455.794 28.0323 456.187 28.2701 456.4 28.7451C456.613 29.204 456.72 30.0891 456.72 31.3994V35.1592H466.083C466.083 32.0954 465.78 29.7278 465.174 28.0566C464.568 26.3855 463.347 25.0011 461.512 23.9033C459.677 22.8056 457.465 22.2568 454.876 22.2568Z" fill="black"/>
<path d="M453.424 11.5439V22.3174C451.439 22.4898 449.712 23.027 448.241 23.9277C446.423 25.0255 445.234 26.2794 444.677 27.6885C444.12 29.0975 443.842 31.1865 443.842 33.9551V43.2197C443.842 46.3982 444.178 48.8561 444.85 50.5928C445.452 52.0977 446.417 53.314 447.746 54.2422V66.7607H415.238V54.1279C415.913 53.6326 416.511 53.0445 417.029 52.3623C417.963 51.1336 418.553 49.9787 418.799 48.8975C419.061 47.8161 419.191 46.2672 419.191 44.252V41.8438H415.238V40.9805H409.536V39.7305H419.191V35.4053C419.191 32.2432 418.823 29.7934 418.086 28.0566C417.365 26.3035 416.095 24.9031 414.276 23.8545C412.959 23.076 411.379 22.5825 409.536 22.373V11.5439H453.424ZM436.444 55.459V29.6787H442.121V22.8467H420.839V29.6787H426.54V55.459H436.444Z" fill="black"/>
<path d="M407.396 10.9541C411.519 10.9541 415.921 11.7306 419.921 14.0625H419.922C419.938 14.0719 419.954 14.0823 419.971 14.0918C419.989 14.1026 420.008 14.1131 420.026 14.124H420.025C423.45 16.1231 426.333 19.0249 428.136 22.8467H420.839V29.6787H426.54V55.459H428.363C427.67 56.8638 426.853 58.1141 426.027 59.2012C423.895 62.0062 421.14 64.1363 417.946 65.5156L417.918 65.5283L417.889 65.54C414.627 66.9271 411.205 67.3506 408.083 67.3506C404.915 67.3505 401.667 66.8944 398.537 65.7129C395.582 64.5971 392.596 62.8144 390.197 60.0234L390.136 59.9521L390.075 59.8799C389.615 59.3257 389.183 58.7486 388.78 58.1504C389.028 57.936 389.253 57.7026 389.455 57.4492C390.159 56.5646 390.659 55.4426 390.954 54.083C391.265 52.7231 391.642 50.175 392.084 46.4395L394.936 22.8467H387.205C387.248 22.7513 387.291 22.6555 387.336 22.5605C389.272 18.4235 392.468 15.3707 396.333 13.4561V13.457C399.878 11.6844 403.658 10.9541 407.396 10.9541ZM407.396 22.2568C405.118 22.2568 403.103 22.6992 401.35 23.584C399.597 24.4523 398.335 25.7135 397.564 27.3682C396.794 29.0066 396.41 31.2517 396.41 34.1025V43.6133C396.41 46.0381 396.582 47.89 396.926 49.168C397.27 50.4294 397.885 51.5924 398.77 52.6572C399.671 53.7057 400.924 54.5335 402.529 55.1396C404.135 55.7458 405.986 56.0488 408.083 56.0488C410.246 56.0488 412.04 55.7459 413.466 55.1396C414.908 54.5171 416.095 53.5911 417.029 52.3623C417.963 51.1336 418.553 49.9787 418.799 48.8975C419.061 47.8161 419.191 46.2672 419.191 44.252V41.8438H409.779V46.1445C409.779 47.7664 409.648 48.864 409.386 49.4375C409.14 49.9946 408.64 50.2734 407.887 50.2734C407.281 50.2734 406.871 50.0605 406.658 49.6348C406.445 49.2088 406.339 48.2578 406.339 46.7832V39.7305H419.191V35.4053C419.191 32.2432 418.823 29.7934 418.086 28.0566C417.365 26.3035 416.095 24.9031 414.276 23.8545C412.474 22.7896 410.181 22.2569 407.396 22.2568ZM407.862 28.0322C408.419 28.0322 408.788 28.278 408.968 28.7695C409.148 29.2611 409.238 30.3505 409.238 32.0381V34.4219H406.339V32.0381C406.339 30.2031 406.42 29.0805 406.584 28.6709C406.748 28.2449 407.174 28.0322 407.862 28.0322ZM385.107 34.1025C385.107 32.4102 385.208 30.6187 385.489 28.8096L385.107 34.1514V34.1025Z" fill="black"/>
<path d="M407.686 11.5439L406.387 22.2871C404.518 22.4001 402.839 22.8322 401.35 23.584C399.597 24.4523 398.335 25.7135 397.564 27.3682C396.794 29.0066 396.41 31.2517 396.41 34.1025V43.6133C396.41 46.0381 396.582 47.89 396.926 49.168C397.27 50.4294 397.885 51.5924 398.77 52.6572C399.624 53.6519 400.796 54.4473 402.285 55.0439C402.191 55.5655 402.094 56.0447 401.997 56.4775L401.999 56.4785C401.419 59.1518 400.303 61.9703 398.296 64.4902C396.028 67.3379 393.105 69.0982 390.163 70.083L390.164 70.085C390.138 70.0939 390.111 70.1006 390.085 70.1094C390.055 70.1192 390.026 70.1309 389.996 70.1406L389.995 70.1387C386.914 71.1562 383.4 71.332 380.509 71.332H363.186V55.3623C366.56 54.6303 368.779 52.8696 369.843 50.0771C370.334 48.7337 370.58 46.2185 370.58 42.5322V34.5693C370.58 32.3904 370.531 30.3917 370.433 28.5732C370.22 24.7558 367.754 22.8467 363.035 22.8467C362.203 22.8467 361.41 23.0112 360.653 23.3379L360.116 20.6396C360.171 20.6374 360.227 20.6348 360.283 20.6348C360.988 20.6348 362.151 20.7 363.772 20.8311C365.411 20.9621 366.673 21.0283 367.558 21.0283C368.033 21.0283 368.672 20.913 369.475 20.6836V15.5479C368.868 15.7445 368.131 15.8428 367.263 15.8428C366.558 15.8428 365.075 15.7605 362.814 15.5967C361.345 15.4902 360.096 15.4201 359.069 15.3828L358.306 11.5439H407.686ZM372.079 22.8467L377.511 50.126C377.92 52.1411 378.125 53.2797 378.125 53.542C378.125 54.0826 377.904 54.4347 377.462 54.5986C377.02 54.7461 376.028 54.8203 374.488 54.8203V60.0303H380.509C383.261 60.0303 385.261 59.8176 386.506 59.3916C387.689 59.0076 388.626 58.414 389.319 57.6123L389.455 57.4492C390.159 56.5646 390.659 55.4426 390.954 54.083C391.265 52.7231 391.642 50.175 392.084 46.4395L394.936 22.8467H385.916L384.343 44.8418L381.099 22.8467H372.079Z" fill="black"/>
<path d="M380.776 22.8467H372.079L377.511 50.126C377.92 52.1411 378.125 53.2797 378.125 53.542C378.125 54.0826 377.904 54.4347 377.462 54.5986C377.02 54.7461 376.028 54.8203 374.488 54.8203V60.0303H376.846C375.329 61.7521 373.496 63.1978 371.39 64.3164C367.445 66.411 363.131 67.0557 359.152 67.0557C357.149 67.0557 355.169 67.0333 353.85 66.9014L353.678 66.8848L353.507 66.8623C350.711 66.4961 347.794 65.5707 345.118 63.7568L345.032 63.6982C341.954 61.57 339.669 58.708 338.282 55.3574C338.478 55.2893 338.669 55.2178 338.853 55.1396C340.294 54.5171 341.482 53.5911 342.416 52.3623C343.35 51.1336 343.94 49.9787 344.186 48.8975C344.448 47.8161 344.579 46.2672 344.579 44.252V41.8438H336.545V39.7305H344.579V35.4053C344.579 32.2432 344.21 29.7934 343.473 28.0566C342.752 26.3037 341.482 24.903 339.664 23.8545C338.77 23.3264 337.755 22.9293 336.62 22.6631C337.014 17.8282 338.993 13.2459 342.826 9.65625V9.65723C347.072 5.66428 352.356 4.04883 357.604 4.04883C359.23 4.04884 361.288 4.15447 363.631 4.32422C364.727 4.40362 365.593 4.46003 366.246 4.49609C366.476 4.50879 366.669 4.5174 366.829 4.52441L380.776 0V22.8467ZM357.604 15.3506C354.705 15.3506 352.353 16.2033 350.551 17.9072C348.749 19.5947 347.848 21.7899 347.848 24.4932V43.6377C347.848 46.5704 348.027 48.7092 348.388 50.0527C348.896 51.8876 349.92 53.3374 351.46 54.4023C352.427 55.0577 353.598 55.475 354.975 55.6553C355.63 55.7208 357.023 55.7539 359.152 55.7539C364.837 55.7539 368.401 53.8616 369.843 50.0771C370.334 48.7337 370.58 46.2185 370.58 42.5322V34.5693C370.58 32.3904 370.531 30.3917 370.433 28.5732C370.22 24.7558 367.754 22.8467 363.035 22.8467C361.02 22.8468 359.226 23.8049 357.653 25.7217C357.653 23.9853 357.703 22.9287 357.801 22.5518C358.112 21.2738 358.94 20.6348 360.283 20.6348C360.988 20.6348 362.151 20.7 363.772 20.8311C365.411 20.9621 366.673 21.0283 367.558 21.0283C368.033 21.0283 368.672 20.913 369.475 20.6836V15.5479C368.868 15.7445 368.131 15.8428 367.263 15.8428C366.558 15.8428 365.075 15.7605 362.814 15.5967C360.554 15.4329 358.817 15.3506 357.604 15.3506ZM359.227 28.2783C359.931 28.2784 360.374 28.6547 360.554 29.4082C360.636 29.7522 360.676 30.6534 360.676 32.1113V48.7744C360.676 49.9375 360.193 50.5194 359.227 50.5195C358.244 50.5195 357.752 49.5854 357.752 47.7178V32.1113C357.752 30.6861 357.793 29.793 357.875 29.4326C358.055 28.6628 358.506 28.2783 359.227 28.2783Z" fill="black"/>
<path d="M332.782 10.9541C336.906 10.9541 341.308 11.7306 345.308 14.0625H345.309C345.325 14.0719 345.341 14.0824 345.357 14.0918C345.376 14.1026 345.395 14.1131 345.413 14.124H345.412C347.241 15.1915 348.916 16.5156 350.354 18.1006C348.684 19.7615 347.848 21.8912 347.848 24.4932V43.6377C347.848 46.5704 348.027 48.7092 348.388 50.0527C348.896 51.8876 349.92 53.3374 351.46 54.4023C352.131 54.8572 352.901 55.1939 353.77 55.4199C353.073 56.8407 352.248 58.1041 351.414 59.2012C349.282 62.0062 346.527 64.1364 343.333 65.5156L343.305 65.5283L343.276 65.54C340.015 66.9271 336.593 67.3506 333.471 67.3506C330.303 67.3506 327.053 66.8945 323.924 65.7129C320.969 64.5971 317.982 62.8143 315.584 60.0234L315.522 59.9521L315.463 59.8799C314.477 58.6927 313.619 57.4018 312.911 56.0166C314.132 55.9145 315.193 55.558 316.095 54.9434C317.192 54.1897 317.914 53.1895 318.258 51.9443C318.618 50.6827 318.799 48.5689 318.799 45.6035V31.8662C318.799 29.2779 318.659 27.4427 318.381 26.3613C318.102 25.28 317.398 24.329 316.268 23.5098C315.294 22.7797 314.158 22.3686 312.859 22.2764C314.807 18.2837 317.944 15.3265 321.72 13.4561V13.457C325.265 11.6843 329.045 10.9541 332.782 10.9541ZM332.782 22.2568C330.505 22.2569 328.489 22.6993 326.736 23.584C324.984 24.4523 323.722 25.7137 322.952 27.3682C322.182 29.0066 321.797 31.2517 321.797 34.1025V43.6133C321.797 46.0381 321.968 47.89 322.312 49.168C322.657 50.4294 323.272 51.5924 324.156 52.6572C325.057 53.7058 326.31 54.5334 327.916 55.1396C329.522 55.7459 331.374 56.0488 333.471 56.0488C335.633 56.0488 337.427 55.7458 338.853 55.1396C340.294 54.5171 341.482 53.5911 342.416 52.3623C343.35 51.1336 343.94 49.9787 344.186 48.8975C344.448 47.8161 344.579 46.2672 344.579 44.252V41.8438H335.166V46.1445C335.166 47.7661 335.035 48.8639 334.773 49.4375C334.528 49.9946 334.027 50.2734 333.273 50.2734C332.668 50.2733 332.258 50.0605 332.045 49.6348C331.832 49.2088 331.726 48.2578 331.726 46.7832V39.7305H344.579V35.4053C344.579 32.2432 344.21 29.7934 343.473 28.0566C342.752 26.3037 341.482 24.903 339.664 23.8545C337.862 22.7895 335.568 22.2568 332.782 22.2568ZM333.249 28.0322C333.806 28.0322 334.175 28.278 334.355 28.7695C334.536 29.2612 334.626 30.3508 334.626 32.0381V34.4219H331.726V32.0381C331.726 30.2031 331.808 29.0805 331.972 28.6709C332.136 28.2451 332.561 28.0323 333.249 28.0322Z" fill="black"/>
<path d="M312.982 10.9668C314.315 11.0145 315.65 11.2035 316.963 11.5439H318.042L318.022 11.8535C319.716 12.4075 321.36 13.2298 322.898 14.3584H322.899C322.907 14.3641 322.915 14.3702 322.923 14.376C322.965 14.4068 323.007 14.4375 323.049 14.4688L323.048 14.4697C325.525 16.3019 327.907 18.9995 329.084 22.7041C328.255 22.9196 327.472 23.2125 326.736 23.584C324.984 24.4523 323.722 25.7137 322.952 27.3682C322.182 29.0066 321.797 31.2517 321.797 34.1025V43.6133C321.797 46.0381 321.968 47.89 322.312 49.168C322.657 50.4294 323.272 51.5924 324.156 52.6572C325.057 53.7058 326.31 54.5334 327.916 55.1396C328.263 55.2708 328.623 55.3855 328.993 55.4883C327.854 59.1433 325.563 62.1523 322.492 64.2607L322.478 64.2705L322.462 64.2812C320.768 65.4361 318.978 66.2146 317.174 66.7002V71.4062H284.641V55.459H288.251V29.6787H293.928V22.8467H284.641V11.5439H307.588C309.127 11.1488 310.702 10.9541 312.286 10.9541L312.982 10.9668ZM312.286 22.2568C311.025 22.2568 309.861 22.5437 308.796 23.1172C307.731 23.6906 306.756 24.5585 305.871 25.7217L306.044 22.8467H295.942V60.1035H305.871V52.6328C306.739 53.7633 307.698 54.615 308.747 55.1885C309.796 55.7619 310.934 56.0488 312.163 56.0488C313.703 56.0488 315.013 55.6804 316.095 54.9434C317.192 54.1897 317.914 53.1895 318.258 51.9443C318.618 50.6827 318.799 48.5689 318.799 45.6035V31.8662C318.799 29.2779 318.659 27.4427 318.381 26.3613C318.102 25.28 317.398 24.329 316.268 23.5098C315.154 22.6742 313.826 22.2569 312.286 22.2568ZM307.42 28.0322C308.092 28.0322 308.501 28.2451 308.648 28.6709C308.796 29.0969 308.87 30.3178 308.87 32.333V46.3164C308.87 48.0531 308.788 49.1516 308.624 49.6104C308.476 50.0524 308.083 50.2734 307.444 50.2734C306.789 50.2734 306.363 50.0276 306.166 49.5361C305.969 49.0445 305.871 47.8155 305.871 45.8496V32.333C305.871 30.4491 305.961 29.2612 306.142 28.7695C306.338 28.278 306.765 28.0322 307.42 28.0322Z" fill="black"/>
<path d="M305.229 11.5439V22.8467H295.942V60.1035H299.553V66.7607H267.044V40.9805H261.807V22.8467H261.343V11.5439H305.229ZM288.251 55.459V29.6787H293.928V22.8467H272.645V29.6787H278.347V55.459H288.251Z" fill="black"/>
<path d="M273.108 11.5439V22.8467H272.645V29.6787H273.108V66.7607H228.165V55.459H236.075V22.8467H229.988C231.118 20.3203 232.859 17.9287 235.45 15.9707L235.739 15.7568C238.746 13.5886 242.196 12.7016 244.776 12.249C247.69 11.7379 250.979 11.544 254.458 11.5439H273.108ZM251.927 29.1875V36.9775C250.649 36.9775 249.764 36.7397 249.272 36.2646C248.798 35.773 248.561 34.7411 248.561 33.1689V32.751C248.561 31.2109 248.773 30.2358 249.199 29.8262C249.625 29.4002 250.199 29.1875 250.92 29.1875H251.927ZM248.561 55.459V46.4883C248.561 44.9978 248.798 43.9821 249.272 43.4414C249.764 42.9008 250.649 42.6299 251.927 42.6299V55.459H261.807V22.8467H254.458C248.216 22.8467 244.153 23.559 242.269 24.9844C240.401 26.3933 239.467 28.72 239.467 31.9639C239.467 34.8966 239.819 36.9371 240.523 38.084C241.228 39.2144 242.769 39.8856 245.145 40.0986C243.31 40.5902 242.006 41.0817 241.236 41.5732C240.483 42.0648 239.999 42.7449 239.786 43.6133C239.573 44.4652 239.467 45.866 239.467 47.8154V55.459H248.561Z" fill="black"/>
<path d="M222.633 22.8467H212.777V55.459H222.633V43.4414H226.196V55.459H236.075V22.8467H226.196V34.5693H222.633V22.8467ZM247.378 23.2773C245.012 23.6299 243.308 24.1979 242.269 24.9844C240.401 26.3933 239.467 28.72 239.467 31.9639C239.467 34.8966 239.819 36.9371 240.523 38.084C241.228 39.2144 242.769 39.8856 245.145 40.0986C243.31 40.5902 242.006 41.0817 241.236 41.5732C240.483 42.0648 239.999 42.7449 239.786 43.6133C239.573 44.4652 239.467 45.866 239.467 47.8154V55.459H247.378V66.7607H201.476V55.8008C202.329 55.6495 203.098 55.4305 203.782 55.1396C205.224 54.5171 206.412 53.5911 207.346 52.3623C208.279 51.1336 208.869 49.9787 209.115 48.8975C209.377 47.8161 209.509 46.2672 209.509 44.252V41.8438H201.476V39.7305H209.509V35.4053C209.509 32.2432 209.14 29.7934 208.402 28.0566C207.681 26.3037 206.412 24.903 204.594 23.8545C203.681 23.3149 202.641 22.9117 201.476 22.6455V11.5439H247.378V23.2773Z" fill="black"/>
<path d="M197.712 10.9541C201.836 10.9541 206.238 11.7304 210.238 14.0625C210.255 14.072 210.272 14.0823 210.288 14.0918C210.306 14.1026 210.325 14.1132 210.344 14.124H210.343C213.767 16.1231 216.651 19.025 218.453 22.8467H212.777V55.459H218.681C217.988 56.8639 217.171 58.1141 216.345 59.2012C214.213 62.0063 211.457 64.1363 208.263 65.5156L208.234 65.5283L208.206 65.54C204.945 66.9271 201.522 67.3506 198.4 67.3506C195.233 67.3506 191.984 66.8944 188.854 65.7129C185.899 64.5971 182.913 62.8144 180.515 60.0234L180.453 59.9521L180.393 59.8799C179.275 58.5348 178.322 57.0571 177.566 55.459H183.458V22.8467H177.522L177.653 22.5605C179.59 18.4236 182.785 15.3706 186.65 13.4561V13.457C190.195 11.6846 193.975 10.9541 197.712 10.9541ZM197.712 22.2568C195.435 22.2569 193.42 22.6994 191.667 23.584C189.914 24.4523 188.652 25.7135 187.882 27.3682C187.112 29.0066 186.727 31.2517 186.727 34.1025V43.6133C186.727 46.0381 186.899 47.89 187.243 49.168C187.587 50.4293 188.201 51.5924 189.086 52.6572C189.987 53.7057 191.24 54.5335 192.846 55.1396C194.451 55.7459 196.303 56.0488 198.4 56.0488C200.563 56.0488 202.357 55.7458 203.782 55.1396C205.224 54.5171 206.412 53.5911 207.346 52.3623C208.279 51.1336 208.869 49.9787 209.115 48.8975C209.377 47.8161 209.509 46.2672 209.509 44.252V41.8438H200.096V46.1445C200.096 47.7662 199.965 48.864 199.703 49.4375C199.457 49.9945 198.958 50.2733 198.204 50.2734C197.598 50.2734 197.188 50.0607 196.975 49.6348C196.762 49.2088 196.655 48.2578 196.655 46.7832V39.7305H209.509V35.4053C209.509 32.2432 209.14 29.7934 208.402 28.0566C207.681 26.3037 206.412 24.903 204.594 23.8545C202.792 22.7895 200.497 22.2568 197.712 22.2568ZM198.179 28.0322C198.736 28.0322 199.105 28.278 199.285 28.7695C199.465 29.2611 199.556 30.3507 199.556 32.0381V34.4219H196.655V32.0381C196.655 30.2031 196.738 29.0805 196.901 28.6709C197.065 28.2451 197.491 28.0323 198.179 28.0322Z" fill="black"/>
<path d="M183.458 22.8467H170.974L168.098 40.8604L164.928 22.8467H152.615V55.459H161.118V32.9717L165.395 55.459H170.826L174.955 32.9717V55.459H183.458V22.8467ZM194.761 22.5332C193.652 22.7526 192.621 23.1027 191.667 23.584C189.914 24.4523 188.652 25.7135 187.882 27.3682C187.112 29.0066 186.727 31.2517 186.727 34.1025V43.6133C186.727 46.0381 186.899 47.89 187.243 49.168C187.587 50.4293 188.201 51.5924 189.086 52.6572C189.987 53.7057 191.24 54.5335 192.846 55.1396C193.449 55.3675 194.088 55.5512 194.761 55.6934V66.7607H141.312V29.6787H141.703V22.8467H141.312V11.5439H194.761V22.5332Z" fill="black"/>
<path d="M153.006 11.5439V22.8467H152.615V40.9805H147.328V66.7607H114.82V54.0781C115.416 53.6501 115.949 53.1531 116.415 52.584C117.382 51.388 118.012 50.1098 118.307 48.75C118.602 47.3737 118.749 45.2189 118.749 42.2861V34.2988C118.749 31.9888 118.585 30.2682 118.258 29.1377C117.946 28.0073 117.357 26.9096 116.488 25.8447C115.62 24.7798 114.383 23.92 112.777 23.2646C111.704 22.8108 110.484 22.5105 109.118 22.3633V11.5439H153.006ZM136.026 55.459V29.6787H141.703V22.8467H120.421V29.6787H126.122V55.459H136.026Z" fill="black"/>
<path d="M107.051 10.9541C110.326 10.9541 113.764 11.4375 117.048 12.8008L117.049 12.7998C117.092 12.8174 117.135 12.8357 117.178 12.8535H117.177C119.86 13.9663 122.578 15.6485 124.803 18.1768L125.248 18.7021L125.562 19.0967C126.446 20.2316 127.246 21.4818 127.909 22.8467H120.421V29.6787H126.122V55.459H127.876C127.149 56.9881 126.245 58.4006 125.205 59.6875L125.181 59.7178L125.156 59.7471C122.845 62.5674 119.913 64.5667 116.66 65.791L116.629 65.8027L116.597 65.8145C113.59 66.9256 110.483 67.3506 107.469 67.3506C104.528 67.3506 101.461 67.0413 98.5254 66.126L98.4199 66.0928C95.4274 65.1274 92.334 63.443 89.8477 60.6221L89.7803 60.5459L89.7148 60.4688C87.672 58.0654 86.3442 55.3201 85.5986 52.4736L85.5947 52.458L85.5908 52.4414C84.8622 49.6258 84.6895 46.3838 84.6895 43.3672V35.0117C84.6895 31.3866 85.0506 27.4271 86.4258 23.8516C88.0639 19.5925 91.0191 16.3421 94.6582 14.1377L95.0312 13.918C98.8955 11.6891 103.125 10.9541 107.051 10.9541ZM107.051 22.2568C104.397 22.2569 102.218 22.7725 100.514 23.8047C98.8097 24.8369 97.63 26.2052 96.9746 27.9092C96.3193 29.6131 95.9922 31.9807 95.9922 35.0117V43.3672C95.9922 46.1361 96.1718 48.2177 96.5322 49.6104C96.8926 50.9863 97.4909 52.1656 98.3262 53.1484C99.1781 54.115 100.366 54.8444 101.89 55.3359C103.413 55.8111 105.273 56.0488 107.469 56.0488C109.435 56.0488 111.171 55.7699 112.679 55.2129C114.202 54.6395 115.448 53.7636 116.415 52.584C117.382 51.388 118.012 50.1098 118.307 48.75C118.602 47.3737 118.749 45.2189 118.749 42.2861V34.2988C118.749 31.9888 118.585 30.2682 118.258 29.1377C117.946 28.0073 117.357 26.9096 116.488 25.8447C115.62 24.7798 114.383 23.92 112.777 23.2646C111.188 22.5929 109.279 22.2568 107.051 22.2568ZM107.396 28.0322C107.985 28.0323 108.37 28.2533 108.55 28.6953C108.73 29.1213 108.82 30.1706 108.82 31.8418V46.8818C108.82 48.2909 108.722 49.2088 108.525 49.6348C108.345 50.0605 107.96 50.2734 107.37 50.2734C106.797 50.2733 106.412 50.0436 106.216 49.585C106.019 49.1098 105.921 48.1024 105.921 46.5625V31.8418C105.921 30.1706 106.019 29.1213 106.216 28.6953C106.412 28.2532 106.806 28.0322 107.396 28.0322ZM107.294 38.9727V39.3311C107.328 39.3315 107.363 39.334 107.396 39.334C107.413 39.334 107.43 39.3321 107.447 39.332V38.9727C107.43 38.9725 107.413 38.9717 107.396 38.9717H107.37C107.345 38.9717 107.32 38.9724 107.294 38.9727Z" fill="black"/>
<path d="M72.3984 10.9541C75.6739 10.9541 79.1112 11.4375 82.3955 12.8008L82.3965 12.7998C82.4395 12.8174 82.4823 12.8357 82.5254 12.8535H82.5244C85.2075 13.9663 87.9253 15.6485 90.1504 18.1768L90.5957 18.7021L90.9092 19.0967C92.4342 21.0531 93.7089 23.3508 94.459 25.9912H94.4609C94.4682 26.0164 94.4743 26.0422 94.4814 26.0674C94.488 26.0908 94.4955 26.1142 94.502 26.1377H94.501C95.2524 28.8174 95.3994 31.7852 95.3994 34.2988V42.2861C95.3994 45.3521 95.2651 48.5091 94.7061 51.1182L94.7002 51.1455C93.9934 54.4043 92.5098 57.2659 90.5527 59.6875L90.5283 59.7178L90.5039 59.7471C88.1928 62.5674 85.261 64.5667 82.0078 65.791L81.9766 65.8027L81.9443 65.8145C78.9377 66.9256 75.8306 67.3506 72.8164 67.3506C69.8759 67.3506 66.8085 67.0413 63.873 66.126L63.7676 66.0928C60.7751 65.1274 57.6816 63.443 55.1953 60.6221L55.1279 60.5459L55.0625 60.4688C53.7458 58.9197 52.7278 57.2278 51.9697 55.459H53.9424V29.6787H59.6191V22.8467H52.1943C53.8916 19.0784 56.6587 16.1653 60.0059 14.1377L60.3789 13.918C64.2432 11.6891 68.4727 10.9541 72.3984 10.9541ZM72.3984 22.2568C69.7444 22.2569 67.5652 22.7725 65.8613 23.8047C64.1574 24.8369 62.9776 26.2053 62.3223 27.9092C61.6669 29.6131 61.3398 31.9807 61.3398 35.0117V43.3672C61.3398 46.1361 61.5194 48.2177 61.8799 49.6104C62.2403 50.9862 62.8385 52.1656 63.6738 53.1484C64.5258 54.1151 65.7146 54.8444 67.2383 55.3359C68.7619 55.811 70.6212 56.0488 72.8164 56.0488C74.7824 56.0488 76.5191 55.7699 78.0264 55.2129C79.5501 54.6395 80.796 53.7636 81.7627 52.584C82.7293 51.388 83.3594 50.1097 83.6543 48.75C83.9492 47.3737 84.0967 45.2189 84.0967 42.2861V34.2988C84.0967 31.9888 83.9331 30.2682 83.6055 29.1377C83.2942 28.0073 82.7042 26.9096 81.8359 25.8447C80.9676 24.7798 79.7305 23.92 78.125 23.2646C76.5357 22.5929 74.6267 22.2568 72.3984 22.2568ZM72.7432 28.0322C73.3328 28.0323 73.7182 28.2531 73.8984 28.6953C74.0787 29.1213 74.168 30.1706 74.168 31.8418V46.8818C74.168 48.2909 74.0697 49.2088 73.873 49.6348C73.6928 50.0604 73.3081 50.2733 72.7188 50.2734C72.1453 50.2734 71.7601 50.0437 71.5635 49.585C71.3669 49.1097 71.2686 48.1024 71.2686 46.5625V31.8418C71.2686 30.1706 71.3669 29.1213 71.5635 28.6953C71.7601 28.2532 72.1535 28.0322 72.7432 28.0322ZM72.6416 38.9727V39.3311C72.6761 39.3315 72.7102 39.334 72.7432 39.334C72.7602 39.334 72.7775 39.3321 72.7949 39.332V38.9727C72.7775 38.9725 72.7603 38.9717 72.7432 38.9717H72.7188C72.6937 38.9717 72.6677 38.9724 72.6416 38.9727Z" fill="black"/>
<path d="M70.9219 11.5439V22.3145C68.925 22.4746 67.238 22.9708 65.8613 23.8047C64.1574 24.8369 62.9776 26.2053 62.3223 27.9092C61.6669 29.6131 61.3398 31.9807 61.3398 35.0117V43.3672C61.3398 46.1361 61.5194 48.2177 61.8799 49.6104C62.2403 50.9862 62.8385 52.1656 63.6738 53.1484C64.1093 53.6425 64.6332 54.0744 65.2441 54.4443V66.7607H32.7354V55.459H36.0996V15.6455H27.0342V11.5439H70.9219ZM53.9424 55.459V29.6787H59.6191V22.8467H38.3359V29.6787H44.0381V55.459H53.9424Z" fill="black"/>
<path d="M47.4023 4.34375V22.8467H38.3359V29.6787H44.0381V55.459H47.4023V66.7607H14.4268V54.0713C10.8865 53.4212 7.1418 51.7638 4.24023 48.2314L4.18945 48.1689C0.699366 43.8577 4.06288e-05 38.631 0 34.668V4.34375H47.4023ZM21.6738 15.6455H11.3027V34.668C11.3028 37.5514 11.8596 39.6814 12.9736 41.0576C14.1041 42.4339 15.9069 43.1221 18.3809 43.1221C19.757 43.122 21.1166 42.8592 22.46 42.335C23.8034 41.7943 24.893 41.0819 25.7285 40.1973V55.459H36.0996V15.6455H25.7285V33.6602C25.7285 36.3141 24.9588 37.6415 23.4189 37.6416C22.7964 37.6416 22.3459 37.3545 22.0674 36.7812C21.8052 36.1914 21.6738 35.118 21.6738 33.5615V15.6455Z" fill="black"/>
</svg>
