<svg width="700" height="700" viewBox="0 0 700 700" fill="none" xmlns="http://www.w3.org/2000/svg">
<path d="M130.518 45.146L154.403 88.9981L160.969 88.9378L161.545 87.0883L163.884 88.91L174.926 88.8091L174.251 89.4556L215.328 89.1576H215.328L215.853 89.1536L228.167 89.0654C229.62 88.7656 231.046 88.624 232.424 88.614L232.882 88.615C234.039 88.6308 235.327 88.741 236.707 89.0031L250.67 88.9021L255.36 88.8675C256.776 88.5777 258.21 88.4265 259.653 88.416H259.961L288.37 16.5902L288.638 87.1715L316.498 16.3842L316.772 88.422L316.803 88.421L331.571 88.314L342.298 88.2358C343.748 87.9432 345.207 87.7929 346.662 87.7824L347.397 87.7894C348.604 87.8195 349.815 87.9465 351.024 88.1725L358.699 88.118L361.78 88.0952L361.781 88.1091C363.288 88.1513 365.123 88.3573 367.145 88.9299C369.643 88.0413 372.193 87.5979 374.73 87.5794L375.466 87.5864C377.201 87.6297 378.944 87.8734 380.674 88.3239L380.671 87.9577L381.23 87.9527L381.996 85.4884L385.123 87.9249L385.313 87.923C386.744 87.6318 388.177 87.4819 389.601 87.4715L390.024 87.4724C391.31 87.4877 392.612 87.6149 393.914 87.8606L404.261 87.7853L440.484 12.8043L440.695 72.5713L442.287 69.7863L442.101 15.4734L452.248 52.3486L461.036 18.7168L461.2 68.7814L462.988 72.0674L483.48 15.1734L483.754 86.9279C484.591 86.8294 485.427 86.7746 486.264 86.7686L486.999 86.7756C488.206 86.8057 489.418 86.9327 490.626 87.1587L492.005 87.1487L492.006 87.4606C492.209 87.5114 492.41 87.5654 492.613 87.622L493.529 84.6776L496.693 87.1429C498.175 86.831 499.661 86.6713 501.133 86.6607L501.555 86.6616C502.846 86.6768 504.15 86.8051 505.455 87.0517L523.869 86.9181L560.089 11.937L560.376 86.2606C561.459 86.3056 562.545 86.4257 563.628 86.6279L592.777 86.4171C594.192 86.1279 595.625 85.9761 597.066 85.9656H597.373L625.783 14.1399L626.059 86.1765L628.178 86.1607L628.199 90.5506C632.38 92.9012 636.305 96.2191 639.798 100.553L639.849 100.615L639.899 100.68C645.519 107.721 649.035 116.192 650.617 125.152L698.68 138.197L667.346 158.562L700 178.593L678.541 184.828L643.409 219.322C643.411 219.47 643.413 219.618 643.413 219.766L643.406 220.913C643.38 222.579 643.277 224.251 643.103 225.919L643.112 228.348L645.078 229.45L643.135 233.948L643.136 234.225C643.367 236.282 643.488 238.342 643.496 240.387L643.495 240.994C643.483 242.846 643.381 244.717 643.185 246.589L643.427 288.549V288.55L643.43 289.304L643.501 307.012C643.74 309.104 643.853 217.884 643.862 219.866L643.861 220.524C643.849 222.188 643.761 224.041 643.551 226.025L643.631 246.106L643.659 252.851C643.891 254.887 644.011 256.949 644.02 259.025V259.468L686.765 300.324L645.012 300.71L686.928 340.776L644.015 341.171L644.016 341.216L644.1 362.453L644.163 377.881C644.396 379.967 644.516 382.064 644.525 384.156L644.519 385.213C644.495 386.95 644.394 388.691 644.214 390.429L644.257 401.466L644.276 405.899L644.264 405.9C644.231 408.067 644.067 410.705 643.61 413.614C644.318 417.207 644.672 420.874 644.687 424.523L644.682 425.581C644.647 428.076 644.452 430.582 644.092 433.07L644.385 433.067L644.39 433.87L646.355 434.972L644.411 439.47L644.413 439.742C644.645 441.8 644.765 443.862 644.773 445.909L644.772 446.516C644.76 448.367 644.658 450.239 644.462 452.111L644.523 466.993L689.785 519.085L656.661 519.39L658.883 521.678L687.655 521.412L672.795 536.005L685.068 548.644L659.684 548.878L657.063 551.451L682.486 428.31L639.797 428.703C639.877 429.907 639.919 431.11 639.924 432.313L639.919 433.37C639.895 435.107 639.793 436.848 639.613 438.586L639.621 440.569L639.373 440.571C639.332 440.863 639.29 441.153 639.245 441.444L641.593 442.76L639.626 447.312C639.875 449.443 640.002 451.579 640.011 453.698L640.01 454.304C639.998 456.16 639.896 458.035 639.699 459.912L639.806 486.393L685.068 538.484L640.329 538.898C640.294 540.455 640.198 542.016 640.036 543.573L640.205 585.496C640.436 587.529 640.557 589.589 640.565 591.663V592.105L683.311 632.962L640.396 633.358L640.409 636.405L623.196 636.563L623.222 641.745L621.104 641.761L621.389 697.55L594.276 646.599L546.73 646.945L546.708 642.299L531.752 642.408L495.611 699.015L495.341 646.11L488.351 642.116C487.919 642.259 487.484 642.388 487.049 642.505L487.099 652.445L478.851 652.505L479.087 698.584L457.339 657.717L456.338 659.519L456.53 697.22L445.933 678.229L437.678 693.073L437.526 663.159L426.641 643.654C425.385 643.608 424.12 643.455 422.856 643.198L420.91 643.212L412.146 643.277L376.006 699.881L375.716 643.26C373.747 643.804 371.758 644.077 369.782 644.092C367.296 644.109 364.795 643.72 362.338 642.903C360.357 643.441 358.488 643.654 356.826 643.676V643.678H356.7C356.699 643.678 356.695 643.679 356.695 643.679L346.476 643.754C344.891 644.104 343.298 644.284 341.712 644.295C340.122 644.308 338.526 644.149 336.939 643.824L311.898 644.003L311.819 644.004L312.104 699.795L283.703 646.426L283.977 700L254.668 644.927C253.098 644.936 251.541 644.776 250.007 644.456L235.258 644.562L234.479 644.567L232.174 650.731L230.167 648.396L228.248 654.325L226.506 654.337L216.303 687.16L207.036 660.741L196.21 654.557L170.544 654.744L143.608 654.94L121.123 695.371L121.001 671.521L116.73 665.466L108.048 691.185L92.0738 646.103C91.9592 646.105 91.8446 646.11 91.7307 646.11C90.0233 646.123 88.3232 645.966 86.6408 645.641L68.7373 645.77L70.2234 635.901C69.0538 634.618 67.9242 633.21 66.8429 631.677L66.7987 631.615L66.7538 631.55C65.6351 629.948 64.6101 628.267 63.6752 626.52C62.4773 625.342 61.3174 624.063 60.2017 622.678L60.1512 622.616L60.1008 622.551C54.4809 615.51 50.9652 607.04 49.383 598.079L1.31972 585.034L32.6539 564.669L0 544.638L21.4592 538.403L56.591 503.91C56.5892 503.762 56.5876 503.613 56.5871 503.465L56.5942 502.319C56.6209 500.652 56.7228 498.98 56.8977 497.313L56.8883 494.884L54.922 493.782L56.8653 489.283L56.8646 489.007C56.6326 486.95 56.5125 484.89 56.5043 482.845L56.505 482.237C56.5171 480.385 56.6189 478.515 56.8149 476.642L56.5729 416.434V416.433L56.5697 415.679L61.9077 550.582C61.6683 548.491 61.5554 546.44 61.5474 544.458L61.5482 543.8C61.5608 542.136 61.6489 540.283 61.858 538.299L61.7776 518.218L61.75 511.473C61.5188 509.437 61.3981 507.375 61.3897 505.299V504.856L18.6448 464L60.3972 463.614L18.4808 423.548L61.3945 423.153L61.3937 423.108L61.3085 401.871L61.2463 386.443C61.0128 384.357 60.8929 382.26 60.8845 380.168L60.89 379.111C60.914 377.374 61.0156 375.633 61.1958 373.895L61.1517 362.858L61.1335 358.425L61.1446 358.424C61.1782 356.257 61.3429 353.619 61.7997 350.71C61.0908 347.117 60.7367 343.45 60.722 339.801L60.7275 338.743C60.7621 336.248 60.957 333.742 61.3164 331.254L61.024 331.257L61.02 330.454L59.0539 329.352L60.998 324.854L60.9964 324.582C60.764 322.524 60.6443 320.462 60.6361 318.415L60.6369 317.808C60.649 315.957 60.7507 314.085 60.9467 312.213L60.8868 297.331L15.6246 245.239L48.7483 244.934L46.5268 242.645L17.7539 242.912L32.6145 228.319L20.3413 308.95L45.725 308.716L48.3463 306.143L17.5142 294.921L60.2025 294.528C60.1238 293.325 60.0804 292.121 60.0756 290.919L60.0811 289.861C60.1051 288.125 60.2067 286.383 60.3869 284.645L60.3791 282.662L60.6274 282.66C60.6679 282.368 60.7108 282.079 60.7559 281.788L58.4074 280.472L60.3743 275.92C60.1255 273.789 59.9981 271.653 59.9897 269.534L59.9904 268.927C60.0025 267.071 60.1042 265.197 60.301 263.319L60.1946 236.838L14.9324 184.747L59.6703 184.333C59.7061 182.776 59.8022 181.216 59.9636 179.659L59.7949 137.736C59.5642 135.702 59.443 133.642 59.4347 131.569V131.127L16.6896 90.2693L59.6033 89.8733L59.5907 86.827L78.0092 86.6567C81.4471 83.5262 85.1695 81.3725 89.0225 80.1462L98.0931 1.65437L112.254 59.178L126.182 0L130.518 45.146ZM170.494 645.03L170.542 654.216L173.635 645.008L170.494 645.03ZM282.19 609.087C282.34 609.1 282.492 609.106 282.647 609.105V609.104C282.492 609.105 282.34 609.1 282.19 609.087ZM286.823 608.568L286.889 608.569L288.94 608.553L286.823 608.568ZM427.464 608.053L427.464 608.054C427.519 608.054 427.576 608.05 427.632 608.048C427.665 608.047 427.698 608.046 427.732 608.044C427.643 608.05 427.554 608.052 427.464 608.053ZM430.358 607.074C430.4 607.044 430.442 607.015 430.484 606.982C430.499 606.971 430.514 606.958 430.53 606.946C430.473 606.99 430.415 607.033 430.358 607.074ZM305.257 600.328L305.285 605.733H305.285L305.258 600.328L305.259 600.327L305.257 600.328ZM552.671 604.112C552.994 604.267 553.334 604.366 553.689 604.409C553.346 604.368 553.017 604.271 552.703 604.125C552.628 604.09 552.554 604.052 552.479 604.011L552.671 604.112ZM550.65 602.03C550.693 602.112 550.737 602.193 550.784 602.272L550.785 602.273C550.715 602.156 550.651 602.033 550.589 601.907C550.568 601.864 550.545 601.823 550.524 601.779L550.65 602.03ZM273.963 601.662C273.982 601.729 274.002 601.798 274.02 601.867C274.004 601.804 273.987 601.742 273.969 601.682C273.968 601.675 273.965 601.668 273.963 601.662ZM401.565 590.209L402.376 590.204L402.436 601.774L402.377 590.203L401.565 590.209ZM560.323 600.606L560.325 600.605C560.332 600.566 560.339 600.526 560.346 600.487C560.339 600.526 560.33 600.567 560.323 600.606ZM337.187 599.503C337.188 599.82 337.2 600.126 337.223 600.421L337.197 599.97C337.192 599.817 337.188 599.661 337.188 599.502L337.187 599.503ZM476.789 598.49C476.792 598.999 476.822 599.481 476.879 599.935C476.823 599.481 476.793 598.999 476.789 598.491V598.489C476.789 598.419 476.791 598.35 476.791 598.281C476.79 598.35 476.789 598.42 476.789 598.49ZM560.561 597.881C560.564 598.467 560.535 599.03 560.477 599.571C560.519 599.183 560.547 598.783 560.557 598.372L560.562 597.88C560.561 597.762 560.558 597.643 560.555 597.525C560.558 597.643 560.56 597.762 560.561 597.881ZM363.184 597.396C363.111 598.007 363.076 598.646 363.08 599.315H363.08C363.077 598.646 363.111 598.007 363.184 597.396ZM549.827 598.818C549.831 598.887 549.836 598.955 549.842 599.022C549.838 598.976 549.836 598.932 549.832 598.886C549.831 598.864 549.829 598.84 549.827 598.818ZM286.752 597.936C286.774 598.076 286.795 598.218 286.811 598.364L286.811 598.353C286.777 598.062 286.731 597.783 286.677 597.514C286.705 597.652 286.729 597.793 286.752 597.936ZM487.548 597.959L487.547 597.916C487.544 597.83 487.538 597.743 487.534 597.659C487.539 597.759 487.545 597.858 487.548 597.959ZM487.524 597.469C487.523 597.457 487.523 597.443 487.522 597.43C487.518 597.366 487.512 597.302 487.508 597.239C487.513 597.316 487.519 597.392 487.524 597.469ZM560.53 596.972C560.529 596.949 560.529 596.925 560.527 596.902C560.523 596.838 560.516 596.775 560.511 596.712C560.518 596.799 560.525 596.885 560.53 596.972ZM380.933 596.482C380.92 596.542 380.91 596.605 380.899 596.667C380.92 596.545 380.945 596.424 380.971 596.308C380.958 596.365 380.945 596.422 380.933 596.482ZM286.199 595.997C286.25 596.109 286.297 596.225 286.342 596.343C286.371 596.418 286.397 596.495 286.424 596.572C286.356 596.373 286.282 596.18 286.199 595.997ZM534.386 589.244L536.462 589.232L536.5 596.409L536.471 590.738L536.463 589.229L534.386 589.244ZM272.967 596.126C272.969 596.098 272.973 596.07 272.975 596.04C272.982 595.948 272.987 595.854 272.99 595.759C272.985 595.883 272.978 596.006 272.967 596.126ZM560.448 596.073C560.444 596.036 560.441 596 560.436 595.963C560.432 595.935 560.427 595.907 560.423 595.879C560.432 595.943 560.44 596.008 560.448 596.073ZM272.995 595.452C272.995 595.543 272.996 595.633 272.992 595.722C272.996 595.633 272.996 595.541 272.996 595.45C272.995 595.328 272.99 595.207 272.984 595.088C272.99 595.207 272.994 595.329 272.995 595.452ZM560.389 595.648C560.382 595.602 560.376 595.557 560.369 595.512C560.364 595.484 560.358 595.455 560.353 595.428C560.366 595.501 560.378 595.574 560.389 595.648ZM560.278 595.032C560.289 595.086 560.299 595.141 560.309 595.196C560.301 595.154 560.295 595.113 560.287 595.071C560.284 595.058 560.281 595.046 560.278 595.032ZM272.954 594.707C272.967 594.818 272.975 594.931 272.982 595.048C272.975 594.931 272.967 594.816 272.954 594.705V594.707ZM431.192 594.893V594.889C431.168 594.848 431.143 594.81 431.12 594.769C431.144 594.811 431.168 594.851 431.192 594.893ZM560.19 594.64C560.208 594.716 560.224 594.792 560.241 594.869C560.192 594.649 560.14 594.433 560.079 594.221L560.19 594.64ZM431.036 594.627C431.04 594.632 431.044 594.638 431.048 594.645C431.034 594.623 431.02 594.601 431.006 594.578C431.016 594.593 431.025 594.611 431.036 594.627ZM180.956 594.598L180.953 593.654L180.944 591.828L180.956 594.598ZM272.82 593.948C272.82 593.943 272.819 593.938 272.817 593.933C272.806 593.89 272.796 593.846 272.784 593.804L272.82 593.948ZM486.461 593.133C486.562 593.344 486.656 593.56 486.743 593.783C486.696 593.662 486.648 593.543 486.596 593.426C486.56 593.346 486.524 593.264 486.487 593.186C486.478 593.168 486.469 593.151 486.461 593.133ZM258.618 593.741L258.58 593.671C258.569 593.652 258.557 593.633 258.547 593.613L258.618 593.741ZM430.266 593.601C430.269 593.603 430.271 593.605 430.273 593.607C430.246 593.578 430.22 593.548 430.192 593.52C430.217 593.546 430.242 593.574 430.266 593.601ZM559.814 593.416L559.689 593.101C559.685 593.092 559.681 593.084 559.677 593.075C559.725 593.188 559.771 593.301 559.814 593.416ZM286.733 591.044L286.744 593.059L286.736 591.043L286.733 591.044ZM429.65 593.046C429.651 593.047 429.653 593.047 429.655 593.049L429.601 593.011C429.617 593.022 429.634 593.034 429.65 593.046ZM380.465 592C380.434 592.043 380.403 592.089 380.372 592.134C380.406 592.086 380.438 592.038 380.472 591.991C380.47 591.994 380.468 591.997 380.465 592ZM358.341 591.538C358.385 591.589 358.429 591.639 358.471 591.692L358.341 591.538C358.304 591.495 358.266 591.455 358.228 591.416L358.341 591.538ZM209.033 591.607L210.536 591.597H210.444L209.033 591.607ZM367.851 590.288C367.642 590.358 367.439 590.441 367.241 590.538L367.542 590.403C367.644 590.363 367.747 590.323 367.851 590.288ZM368.489 590.12C368.381 590.141 368.273 590.166 368.167 590.194C368.38 590.138 368.598 590.095 368.82 590.067C368.709 590.081 368.598 590.098 368.489 590.12ZM557.161 589.682C557.252 589.748 557.343 589.819 557.432 589.894C557.254 589.745 557.071 589.61 556.883 589.488L557.161 589.682ZM556.303 589.166C556.402 589.213 556.5 589.262 556.597 589.316C556.404 589.209 556.207 589.116 556.003 589.035L556.303 589.166ZM493.76 175.291C493.327 175.434 492.893 175.564 492.458 175.681L492.508 185.621L484.26 185.681L484.496 231.759L462.748 190.893L461.747 192.694L461.939 230.396L451.342 211.404L443.087 226.248L442.934 196.335L432.05 176.829C430.794 176.784 429.529 176.63 428.265 176.374L426.319 176.387L417.555 176.453L381.415 233.057L381.125 176.436C379.156 176.979 377.167 177.253 375.191 177.267C372.705 177.284 370.204 176.895 367.747 176.079C365.765 176.616 363.897 176.829 362.235 176.851V176.853H362.109C362.108 176.853 362.104 176.855 362.104 176.855L351.885 176.93C350.3 177.279 348.707 177.46 347.12 177.471C345.531 177.483 343.935 177.325 342.348 176.999L317.307 177.179L317.228 177.18L317.513 232.971L289.112 179.602L289.386 233.176L260.077 178.103C258.507 178.112 256.95 177.951 255.416 177.631L240.667 177.738L239.887 177.743L237.583 183.907L235.576 181.572L233.657 187.5L231.915 187.513L221.712 220.336L212.445 193.917L201.619 187.733L175.953 187.919L149.017 188.116L131.92 218.857L176.095 269.697L133.887 270.086L130.701 280.138C130.815 280.761 130.918 281.385 131.011 282.011L138.942 281.939L138.989 293.8L175.751 293.462L143.148 306.489L144.585 307.93L174.664 307.654L159.512 229.622L171.355 241.494L147.489 241.714L131.927 257.367C131.891 259.174 131.769 260.993 131.564 262.811L131.575 265.609L131.627 278.213L176.787 330.189L131.614 330.604C132.047 333.436 132.265 336.297 132.277 339.14C132.291 342.714 131.98 346.311 131.329 349.844C131.758 352.694 131.928 355.381 131.946 357.771H131.947V357.953C131.947 357.955 131.948 357.957 131.948 357.959L132.007 372.655C132.286 374.935 132.43 377.227 132.439 379.508C132.449 381.794 132.323 384.09 132.063 386.372L132.206 422.384L132.207 422.499L176.718 422.088L134.14 462.934L176.881 462.539L132.943 504.689C132.95 506.948 132.823 509.186 132.567 511.391L132.652 532.604L132.656 533.725L137.574 537.04L135.711 539.925L140.442 542.685L140.451 545.191L166.638 559.862L140.152 420.58L135.217 436.149L135.367 473.06L135.523 511.8L167.779 544.135L148.752 544.311L145.19 548.837L147.135 552.409L153.675 556.389C153.677 556.389 153.678 556.389 153.68 556.39L155.37 556.378L156.136 553.913L159.263 556.35L159.455 556.349C160.886 556.058 162.319 555.908 163.74 555.897L164.163 555.898C165.451 555.913 166.752 556.04 168.054 556.286L209.919 555.982H209.919L210.444 555.978L222.758 555.89C224.212 555.59 225.637 555.448 227.015 555.438L227.473 555.439C228.63 555.456 229.918 555.565 231.298 555.828L245.261 555.726L249.951 555.692C251.367 555.402 252.801 555.251 254.244 555.241H254.552L282.962 501.663L283.23 553.996L311.089 501.457L311.363 555.247L311.394 555.246L326.162 555.138L336.889 555.06C338.34 554.768 339.798 554.617 341.253 554.607L341.988 554.614C343.195 554.643 344.406 554.771 345.615 554.997L353.29 554.943L356.371 554.92L356.372 554.933C357.879 554.976 359.714 555.182 361.736 555.755C364.234 554.866 366.784 554.422 369.321 554.404L370.057 554.411C371.792 554.454 373.535 554.698 375.265 555.148L375.262 554.782L375.821 554.777L376.587 552.313L379.714 554.75L379.904 554.748C381.335 554.456 382.768 554.306 384.192 554.296L384.615 554.297C385.901 554.312 387.203 554.44 388.505 554.685L398.852 554.61L435.075 497.877L435.286 539.396L436.878 536.611L436.692 500.547L446.839 519.173L455.627 503.79L455.791 535.606L457.579 538.892L478.071 500.247L478.345 553.752C479.182 553.654 480.018 553.599 480.855 553.593L481.59 553.6C482.797 553.63 484.009 553.757 485.217 553.983L486.596 553.973L486.597 554.286C486.8 554.336 487.001 554.39 487.204 554.447L488.12 551.502L491.284 553.967C492.766 553.655 494.252 553.496 495.724 553.485L496.146 553.486C497.437 553.501 498.741 553.63 500.046 553.876L518.46 553.742L554.68 497.01L554.967 553.085C556.05 553.13 557.136 553.251 558.219 553.452L565.552 553.4L565.448 527.051L569.153 527.019L569.067 505.51L523.906 453.535L566.113 453.145L569.299 443.093C569.185 442.471 569.082 441.846 568.989 441.221L561.058 441.293L561.012 429.431L524.249 429.77L562.261 551.105L560.824 549.665L530.745 549.94L545.898 534.702L534.055 522.83L557.92 522.61L573.483 506.957C573.519 505.15 573.641 503.332 573.846 501.513L573.834 498.715L573.783 486.111L528.622 434.135L573.795 433.72C573.362 430.888 573.144 428.027 573.132 425.184C573.118 421.61 573.429 418.013 574.081 414.48C573.652 411.63 573.481 408.943 573.463 406.553H573.462V406.371C573.462 406.369 573.461 406.367 573.461 406.365L573.402 391.669C573.123 389.389 572.98 387.097 572.971 384.816C572.961 382.53 573.087 380.234 573.347 377.952L573.202 341.94L573.202 341.825L528.691 342.236L571.269 301.391L528.527 301.785L572.467 259.635C572.46 257.376 572.587 255.138 572.842 252.933L572.757 231.72L572.753 230.599L567.835 227.284L569.698 224.399L564.968 221.639L564.958 219.133L538.771 297.732L559.848 284.403L564.783 287.083L564.634 250.171L564.477 211.431L533.865 180.744L501.02 232.19L500.75 179.286L493.76 175.291ZM599.621 535.595C599.558 535.83 599.507 536.073 599.466 536.32C599.504 536.089 599.552 535.863 599.609 535.642C599.638 535.533 599.667 535.426 599.7 535.319L599.621 535.595ZM601.28 532.687C601.215 532.749 601.151 532.814 601.088 532.881L601.087 532.882C601.181 532.783 601.279 532.69 601.379 532.6C601.413 532.57 601.446 532.537 601.481 532.508L601.28 532.687ZM611.493 512.285L605.765 512.338L610.29 512.298L611.493 512.286L611.482 509.299L611.493 512.285ZM127.617 473.131L134.945 473.063L127.599 468.615L127.617 473.131ZM86.6271 458.091L85.1708 458.104L87.3811 458.086L86.6271 458.091ZM95.3579 445.158C95.37 445.162 95.3829 445.166 95.395 445.17C95.3789 445.165 95.3635 445.158 95.3474 445.154C95.3514 445.155 95.3546 445.157 95.3579 445.158ZM96.7173 442.43C96.6907 442.415 96.6632 442.401 96.6358 442.388C96.6334 442.386 96.6301 442.385 96.6277 442.384C96.6576 442.399 96.6875 442.414 96.7173 442.43ZM604.54 441.937H604.564C604.607 441.934 604.65 441.928 604.693 441.924C604.642 441.928 604.592 441.933 604.54 441.937ZM604.89 441.907C604.91 441.905 604.93 441.904 604.95 441.902C604.993 441.897 605.035 441.889 605.076 441.883C605.015 441.892 604.953 441.9 604.89 441.907ZM606.26 441.605C606.269 441.602 606.28 441.6 606.289 441.596C606.311 441.589 606.332 441.58 606.353 441.573C606.322 441.584 606.291 441.595 606.26 441.605ZM608.649 440.128C608.481 440.288 608.31 440.438 608.134 440.577L608.146 440.569C608.209 440.517 608.275 440.467 608.338 440.413C608.435 440.329 608.532 440.241 608.628 440.15C608.635 440.144 608.641 440.135 608.649 440.128ZM604.105 426.465C603.669 426.47 603.259 426.519 602.874 426.611C603.259 426.52 603.669 426.471 604.104 426.466L604.105 426.467L604.106 426.466C604.137 426.466 604.168 426.467 604.199 426.467C604.167 426.467 604.137 426.465 604.105 426.465ZM84.9867 415.679L84.9948 417.709L84.9867 415.546V415.679ZM90.2195 415.629L89.9006 415.835L90.2211 415.628L90.2195 415.629ZM612.384 513.501H612.387C612.419 513.468 612.45 513.431 612.482 513.398C612.449 513.432 612.417 513.468 612.384 513.501ZM602.739 512.483C602.748 512.506 602.758 512.527 602.768 512.548C602.732 512.467 602.698 512.385 602.665 512.303C602.689 512.363 602.714 512.423 602.739 512.483ZM613.857 511.283C613.856 511.285 613.856 511.288 613.856 511.29L613.886 511.214C613.877 511.237 613.867 511.261 613.857 511.283ZM601.888 508.382C601.889 508.43 601.89 508.477 601.892 508.524C601.887 508.397 601.885 508.269 601.884 508.14L601.884 508.139C601.884 508.22 601.887 508.301 601.888 508.382ZM90.8494 479.879C90.8219 479.922 90.7969 479.966 90.771 480.012C90.7969 479.967 90.8227 479.922 90.8494 479.879C90.8897 479.815 90.9309 479.754 90.9729 479.694L90.8494 479.879ZM93.1469 478.351C92.9886 478.369 92.8361 478.395 92.6875 478.435L92.8764 478.391C92.9644 478.374 93.0548 478.361 93.1469 478.351ZM94.0091 478.373C93.9865 478.37 93.9638 478.365 93.9404 478.362C93.867 478.351 93.7919 478.344 93.716 478.339C93.8153 478.346 93.913 478.358 94.0091 478.373ZM93.4698 478.331C93.3737 478.332 93.2801 478.337 93.1872 478.346C93.2801 478.338 93.3753 478.333 93.4714 478.332C93.5441 478.332 93.6151 478.332 93.6861 478.336C93.6151 478.332 93.5425 478.331 93.4698 478.331ZM98.441 476.931C98.3732 476.966 98.3062 477.003 98.24 477.044C98.2441 477.042 98.2481 477.04 98.2521 477.038C98.307 477.004 98.3619 476.973 98.4184 476.943C98.4741 476.914 98.5315 476.885 98.5888 476.859C98.5387 476.881 98.4895 476.906 98.441 476.931ZM616.125 472.061L611.493 472.103L616.126 472.062L616.121 470.894L616.125 472.061ZM104.364 464.451C104.365 464.673 104.36 464.893 104.35 465.109C104.36 464.893 104.365 464.674 104.364 464.452C104.364 464.341 104.362 464.229 104.358 464.12V464.119C104.362 464.228 104.364 464.34 104.364 464.451ZM94.3691 459.018C94.2141 459.112 94.0648 459.215 93.9227 459.328C94.0066 459.261 94.093 459.198 94.1826 459.138C94.244 459.096 94.3061 459.057 94.3691 459.018ZM94.8825 458.752C94.8042 458.785 94.7275 458.823 94.6525 458.86C94.7275 458.823 94.8042 458.786 94.8825 458.752ZM95.7859 458.464C95.5534 458.512 95.3306 458.578 95.1166 458.656C95.2264 458.616 95.3387 458.58 95.4533 458.548L95.7859 458.464ZM89.9541 458.572L89.9549 458.575L91.5614 458.56L89.9541 458.572ZM103.935 458.446L103.936 458.351L103.923 455.401L103.935 458.446ZM611.256 441.278C611.21 441.258 611.164 441.239 611.117 441.222C611.068 441.205 611.017 441.189 610.968 441.174C611.066 441.205 611.163 441.239 611.256 441.278ZM614.699 440.56C614.697 440.556 614.694 440.553 614.692 440.55C614.657 440.504 614.622 440.459 614.586 440.415C614.623 440.463 614.662 440.51 614.699 440.56ZM615.966 421.965C615.999 422.111 616.03 422.259 616.058 422.408C616.002 422.109 615.936 421.817 615.858 421.532L615.966 421.965ZM607.455 418.867C607.466 418.864 607.478 418.862 607.489 418.859L607.492 418.858C607.481 418.862 607.467 418.864 607.455 418.867ZM607.632 418.824C607.634 418.824 607.636 418.823 607.637 418.823C607.665 418.817 607.694 418.808 607.721 418.801L607.632 418.824ZM608.856 415.547C609.39 415.542 609.9 415.591 610.388 415.695C609.9 415.591 609.39 415.541 608.856 415.546V415.547ZM615.061 408.731C615.021 408.795 614.979 408.858 614.937 408.918L615.061 408.731C615.095 408.678 615.127 408.624 615.159 408.568L615.061 408.731ZM97.436 385.964C97.2002 385.996 96.9556 386.012 96.703 386.015L96.7038 386.016C96.9564 386.013 97.2002 385.997 97.436 385.964ZM608.705 378.308C608.327 378.312 607.966 378.35 607.626 378.42C607.966 378.35 608.327 378.313 608.706 378.309L608.705 378.308ZM90.348 355.592C90.3141 355.645 90.2826 355.7 90.2512 355.756L90.348 355.593C90.3884 355.529 90.4296 355.466 90.4715 355.406L90.348 355.592ZM94.6605 348.54C95.2555 348.705 95.8868 348.785 96.5528 348.778V348.777C95.8868 348.784 95.2555 348.705 94.6605 348.54ZM97.7718 345.501C97.7444 345.507 97.7161 345.516 97.6886 345.523L97.7766 345.5C97.775 345.5 97.7734 345.501 97.7718 345.501ZM89.351 341.916C89.4067 342.215 89.4737 342.507 89.5512 342.792L89.4439 342.359C89.4108 342.213 89.3793 342.065 89.351 341.916ZM603.736 332.428V332.429L608.048 332.39L608.049 332.391L608.048 332.389L603.736 332.428ZM90.717 323.774C90.7517 323.82 90.788 323.865 90.8235 323.909C90.7856 323.86 90.7468 323.814 90.7097 323.764C90.7121 323.768 90.7145 323.771 90.717 323.774ZM94.2932 323.102C94.3417 323.119 94.3917 323.135 94.441 323.15C94.3433 323.119 94.2472 323.085 94.1536 323.046C94.1996 323.066 94.2456 323.085 94.2932 323.102ZM601.473 305.973L601.486 308.923L601.474 305.878L601.473 305.973ZM609.956 305.776C609.844 305.809 609.73 305.838 609.614 305.862L609.623 305.86C609.856 305.812 610.078 305.746 610.292 305.668C610.183 305.708 610.07 305.744 609.956 305.776ZM613.848 305.764L615.456 305.752L615.455 305.749L613.848 305.764ZM611.486 304.995C611.402 305.062 611.316 305.126 611.226 305.186C611.165 305.229 611.102 305.266 611.039 305.305C611.194 305.212 611.343 305.108 611.486 304.995ZM89.2832 292.262L89.2881 293.43L89.284 292.263L93.9162 292.22L89.2832 292.262ZM607.157 287.286C607.102 287.32 607.047 287.351 606.99 287.381C606.935 287.41 606.877 287.438 606.82 287.465C606.87 287.443 606.919 287.418 606.968 287.393C607.036 287.359 607.103 287.321 607.169 287.28C607.165 287.282 607.161 287.284 607.157 287.286ZM611.938 285.992C611.865 285.992 611.795 285.992 611.724 285.988C611.795 285.992 611.866 285.993 611.939 285.993C612.035 285.992 612.129 285.986 612.221 285.977C612.128 285.985 612.034 285.991 611.938 285.992ZM611.468 285.962C611.542 285.973 611.618 285.98 611.694 285.985C611.594 285.978 611.496 285.966 611.4 285.951C611.422 285.954 611.445 285.959 611.468 285.962ZM612.533 285.933C612.445 285.95 612.354 285.962 612.262 285.972C612.419 285.954 612.573 285.929 612.721 285.889L612.533 285.933ZM613.139 285.74C613.142 285.738 613.146 285.737 613.149 285.736C613.184 285.72 613.219 285.706 613.253 285.689L613.139 285.74ZM614.56 284.444C614.519 284.508 614.478 284.57 614.436 284.63L614.56 284.445C614.587 284.402 614.612 284.358 614.638 284.312C614.612 284.357 614.586 284.401 614.56 284.444ZM613.304 265.315L613.358 265.26C613.375 265.244 613.391 265.226 613.408 265.21L613.304 265.315ZM103.524 256.184L103.525 256.185C103.525 256.104 103.522 256.023 103.52 255.942C103.52 255.894 103.519 255.847 103.517 255.8C103.522 255.927 103.524 256.055 103.524 256.184ZM91.5234 253.11C91.5323 253.087 91.542 253.063 91.5517 253.041C91.5525 253.039 91.5525 253.036 91.5533 253.034L91.5234 253.11ZM91.9295 252.26C91.9505 252.224 91.9723 252.188 91.9941 252.153C91.9957 252.15 91.9973 252.147 91.9989 252.144C91.9755 252.182 91.9521 252.221 91.9295 252.26ZM102.744 252.021C102.72 251.961 102.696 251.901 102.67 251.841C102.662 251.818 102.651 251.797 102.641 251.776C102.677 251.857 102.711 251.939 102.744 252.021ZM92.7739 251.089C92.786 251.075 92.7997 251.062 92.8127 251.048C92.8175 251.042 92.8223 251.036 92.828 251.03C92.8102 251.05 92.7917 251.069 92.7739 251.089ZM92.9265 250.926C92.9596 250.892 92.9919 250.856 93.025 250.823H93.0217C92.9895 250.856 92.9588 250.893 92.9265 250.926ZM615.013 289.437V289.304L615.005 287.274L615.013 289.437ZM97.126 296.621C96.7417 296.712 96.3308 296.76 95.8957 296.766L95.8949 296.764L95.8941 296.766C95.8626 296.766 95.8319 296.763 95.8012 296.763C95.8319 296.763 95.8634 296.767 95.8949 296.767C96.3308 296.761 96.7409 296.713 97.126 296.621ZM94.9689 296.702C95.1433 296.728 95.3209 296.746 95.505 296.756C95.3217 296.746 95.1433 296.728 94.9689 296.702ZM94.3723 296.574C94.4426 296.594 94.5128 296.612 94.5846 296.63C94.5128 296.613 94.4426 296.593 94.3723 296.574ZM91.8544 282.662C91.7906 282.714 91.7261 282.765 91.6631 282.819C91.5646 282.903 91.4677 282.99 91.3725 283.081C91.3628 283.09 91.3531 283.1 91.3434 283.11C91.5129 282.946 91.6873 282.795 91.8665 282.654L91.8544 282.662ZM95.0496 281.329C95.0069 281.334 94.9649 281.341 94.9229 281.348C94.9851 281.338 95.0472 281.33 95.1094 281.323C95.09 281.325 95.0698 281.327 95.0496 281.329ZM95.4363 281.295C95.3927 281.298 95.35 281.302 95.3064 281.306C95.3572 281.302 95.4081 281.297 95.4589 281.294L95.4363 281.295ZM604.653 278.077C604.649 278.076 604.645 278.074 604.642 278.073C604.63 278.07 604.617 278.066 604.605 278.062C604.621 278.067 604.636 278.073 604.653 278.077ZM612.619 265.146L613.374 265.141L614.829 265.128L612.619 265.146ZM565.055 250.168L572.402 254.617L572.383 250.1L565.055 250.168ZM89.7103 210.935L88.5074 210.946L88.5179 213.933L88.5082 210.947L94.2351 210.893L89.7103 210.935ZM95.471 191.774L95.4719 191.775C95.5146 191.775 95.5574 191.77 95.5994 191.769C95.5566 191.77 95.5138 191.774 95.471 191.774ZM96.2105 191.719C96.1968 191.721 96.1831 191.723 96.1693 191.725C96.2178 191.719 96.2654 191.713 96.313 191.706C96.2791 191.71 96.2444 191.715 96.2105 191.719ZM97.1825 191.489C97.2503 191.464 97.3173 191.439 97.3843 191.412C97.3181 191.438 97.2503 191.464 97.1825 191.489ZM98.9125 190.349C98.8188 190.449 98.7212 190.542 98.6211 190.631C98.5871 190.662 98.5541 190.694 98.5193 190.723L98.7195 190.544C98.7849 190.482 98.8487 190.417 98.9117 190.35L98.9125 190.349ZM99.4445 189.676C99.4752 189.63 99.505 189.585 99.5349 189.539C99.505 189.585 99.4752 189.632 99.4445 189.676ZM100.3 187.912L100.38 187.636C100.383 187.623 100.386 187.608 100.389 187.595C100.362 187.701 100.333 187.807 100.3 187.912ZM175.903 178.206L175.951 187.391L179.044 178.184L175.903 178.206ZM600.16 183.815C600.164 183.863 600.169 183.911 600.173 183.958C600.167 183.881 600.161 183.804 600.156 183.727C600.158 183.757 600.158 183.786 600.16 183.815ZM537.161 175.583L534.934 179.071L551.249 178.921L552.128 177.802L552.117 175.475L537.161 175.583ZM292.232 141.743L292.298 141.744L294.349 141.728L292.232 141.743ZM432.873 141.228L432.872 141.229C432.928 141.229 432.985 141.225 433.041 141.223C433.074 141.222 433.107 141.221 433.141 141.219C433.052 141.225 432.963 141.227 432.873 141.228ZM435.767 140.25C435.809 140.22 435.851 140.19 435.893 140.158C435.908 140.147 435.923 140.133 435.939 140.121C435.882 140.166 435.824 140.208 435.767 140.25ZM310.666 133.503L310.693 138.909H310.694L310.667 133.503L310.668 133.502L310.666 133.503ZM558.08 137.288C558.403 137.443 558.743 137.541 559.098 137.585C558.755 137.543 558.426 137.447 558.112 137.301C558.037 137.265 557.963 137.228 557.888 137.186L558.08 137.288ZM565.404 135.1C565.361 135.233 565.316 135.366 565.269 135.495C565.317 135.365 565.362 135.233 565.405 135.099C565.414 135.07 565.422 135.04 565.431 135.011C565.421 135.04 565.413 135.07 565.404 135.1ZM556.059 135.205C556.102 135.287 556.146 135.369 556.193 135.448L556.194 135.449C556.124 135.331 556.06 135.208 555.998 135.083C555.977 135.04 555.954 134.998 555.933 134.955L556.059 135.205ZM279.429 135.042C279.413 134.979 279.396 134.917 279.378 134.858C279.377 134.85 279.374 134.843 279.372 134.837C279.391 134.904 279.411 134.973 279.429 135.042ZM406.974 123.384L407.785 123.379L407.845 134.95L407.786 123.378L406.974 123.384ZM279.304 134.62C279.323 134.677 279.34 134.734 279.358 134.792C279.339 134.729 279.321 134.666 279.3 134.604C279.301 134.609 279.303 134.615 279.304 134.62ZM565.599 134.405C565.626 134.295 565.651 134.183 565.676 134.071L565.687 134.017C565.659 134.148 565.63 134.278 565.599 134.405ZM342.596 132.679C342.597 132.995 342.609 133.301 342.632 133.596L342.606 133.145C342.601 132.992 342.597 132.836 342.596 132.678L342.596 132.679ZM482.197 131.665C482.201 132.175 482.231 132.657 482.288 133.111C482.232 132.657 482.202 132.175 482.198 131.666V131.664C482.198 131.594 482.2 131.525 482.2 131.456C482.199 131.525 482.197 131.595 482.197 131.665ZM565.97 131.057C565.973 131.643 565.944 132.205 565.886 132.747C565.928 132.359 565.955 131.958 565.966 131.547L565.971 131.056C565.97 130.945 565.966 130.835 565.964 130.725C565.966 130.836 565.969 130.946 565.97 131.057ZM368.593 130.571C368.52 131.183 368.485 131.821 368.488 132.49H368.489C368.486 131.821 368.52 131.183 368.593 130.571ZM555.236 131.994C555.24 132.062 555.244 132.13 555.251 132.197C555.247 132.152 555.244 132.107 555.241 132.061C555.24 132.039 555.238 132.016 555.236 131.994ZM292.161 131.112C292.183 131.251 292.203 131.393 292.22 131.539L292.22 131.528C292.186 131.237 292.14 130.958 292.086 130.69C292.114 130.828 292.138 130.969 292.161 131.112ZM492.957 131.127L492.956 131.091C492.953 131.005 492.947 130.919 492.943 130.835C492.948 130.931 492.954 131.028 492.957 131.127ZM492.933 130.644C492.932 130.632 492.932 130.619 492.931 130.606C492.927 130.542 492.921 130.478 492.917 130.415C492.922 130.491 492.928 130.567 492.933 130.644ZM565.939 130.147C565.938 130.124 565.938 130.101 565.936 130.077C565.932 130.014 565.925 129.951 565.92 129.888C565.927 129.974 565.934 130.06 565.939 130.147ZM386.342 129.658C386.329 129.718 386.319 129.78 386.308 129.842C386.329 129.721 386.354 129.6 386.38 129.483C386.367 129.54 386.354 129.598 386.342 129.658ZM291.608 129.172C291.659 129.285 291.706 129.4 291.751 129.519C291.78 129.594 291.806 129.671 291.833 129.748C291.765 129.548 291.691 129.356 291.608 129.172ZM539.795 122.419L541.871 122.407L541.909 129.585L541.88 123.914L541.872 122.405L539.795 122.419ZM278.376 129.302C278.378 129.274 278.382 129.245 278.384 129.216C278.391 129.123 278.396 129.029 278.399 128.935C278.394 129.059 278.387 129.181 278.376 129.302ZM565.857 129.248C565.853 129.212 565.85 129.175 565.845 129.139C565.841 129.11 565.836 129.083 565.832 129.055C565.841 129.118 565.849 129.183 565.857 129.248ZM278.404 128.628C278.404 128.719 278.405 128.808 278.401 128.897C278.405 128.808 278.405 128.717 278.405 128.626C278.404 128.503 278.399 128.382 278.392 128.264C278.399 128.382 278.403 128.504 278.404 128.628ZM565.798 128.823C565.791 128.778 565.785 128.732 565.778 128.688C565.773 128.662 565.767 128.638 565.763 128.613C565.775 128.682 565.787 128.753 565.798 128.823ZM565.718 128.371C565.71 128.33 565.704 128.288 565.696 128.247C565.693 128.233 565.69 128.221 565.687 128.208C565.698 128.262 565.708 128.316 565.718 128.371ZM278.391 128.223C278.389 128.19 278.388 128.156 278.386 128.123L278.363 127.883C278.376 127.993 278.384 128.107 278.391 128.223ZM436.601 128.068V128.064C436.577 128.023 436.552 127.985 436.529 127.944C436.553 127.986 436.577 128.027 436.601 128.068ZM565.599 127.816C565.617 127.892 565.633 127.968 565.65 128.045C565.601 127.825 565.549 127.609 565.488 127.397L565.599 127.816ZM436.445 127.802C436.449 127.808 436.453 127.814 436.457 127.821C436.443 127.798 436.429 127.776 436.415 127.754C436.425 127.769 436.434 127.786 436.445 127.802ZM186.365 127.773L186.362 126.829L186.353 125.003L186.365 127.773ZM491.87 126.308C491.97 126.519 492.065 126.736 492.152 126.958C492.105 126.837 492.057 126.719 492.005 126.601C491.969 126.521 491.933 126.44 491.896 126.362C491.887 126.344 491.878 126.326 491.87 126.308ZM264.027 126.916L263.989 126.846C263.978 126.827 263.966 126.809 263.956 126.789L264.027 126.916ZM435.675 126.777C435.678 126.779 435.68 126.781 435.682 126.783C435.655 126.753 435.629 126.724 435.601 126.695C435.626 126.722 435.651 126.749 435.675 126.777ZM565.223 126.592L565.098 126.277C565.094 126.268 565.09 126.259 565.086 126.25C565.134 126.364 565.18 126.476 565.223 126.592ZM292.142 124.22L292.153 126.234L292.145 124.219L292.142 124.22ZM435.059 126.222C435.06 126.223 435.062 126.223 435.063 126.224L435.01 126.186C435.026 126.198 435.043 126.21 435.059 126.222ZM491.795 126.161C491.768 126.106 491.742 126.051 491.713 125.997C491.706 125.985 491.699 125.973 491.693 125.96C491.728 126.026 491.761 126.094 491.795 126.161ZM385.874 125.176C385.843 125.218 385.812 125.265 385.781 125.31C385.815 125.262 385.847 125.213 385.881 125.167C385.879 125.17 385.877 125.173 385.874 125.176ZM363.75 124.713C363.794 124.764 363.838 124.815 363.88 124.868L363.75 124.713C363.713 124.671 363.675 124.63 363.637 124.592L363.75 124.713ZM214.442 124.782L215.945 124.772H215.853L214.442 124.782ZM373.26 123.463C373.051 123.533 372.848 123.616 372.65 123.714L372.951 123.579C373.053 123.538 373.156 123.499 373.26 123.463ZM373.898 123.295C373.79 123.316 373.682 123.342 373.576 123.369C373.789 123.313 374.007 123.271 374.229 123.242C374.118 123.257 374.007 123.274 373.898 123.295ZM562.57 122.857C562.661 122.923 562.752 122.995 562.841 123.07C562.663 122.921 562.48 122.785 562.292 122.663L562.57 122.857ZM561.712 122.341C561.811 122.389 561.909 122.437 562.006 122.491C561.813 122.385 561.616 122.291 561.412 122.21L561.712 122.341ZM273.891 601.429C273.893 601.434 273.894 601.44 273.895 601.445C273.914 601.502 273.931 601.558 273.949 601.616C273.93 601.553 273.912 601.49 273.891 601.429ZM486.386 592.986C486.359 592.931 486.333 592.875 486.304 592.821C486.298 592.809 486.29 592.797 486.284 592.785C486.319 592.851 486.352 592.919 486.386 592.986Z" fill="black"/>
<rect x="114" y="159" width="487" height="422" fill="black"/>
</svg>
