<svg width="143" height="53" viewBox="0 0 143 53" fill="none" xmlns="http://www.w3.org/2000/svg">
<path d="M129.729 13.1855H122.323L116.842 27.3037V13.1855H109.853V39.5361H117.16L122.74 25.2979V39.5361H129.729V13.1855ZM97.1436 27.0361C98.0731 27.1035 98.6491 27.2587 98.8711 27.5029C99.1489 27.7944 99.2881 28.6214 99.2881 29.9844V31.0371C99.2881 32.4668 99.0958 33.3206 98.7119 33.5986C98.413 33.8121 97.8902 33.9372 97.1436 33.9785V27.0361ZM142.438 52.2451H97.1436V39.5361H97.8779C100.605 39.5361 102.571 39.4106 103.775 39.1592C104.98 38.8944 105.861 38.239 106.417 37.1934C106.986 36.1475 107.271 34.4191 107.271 32.0098V29.3291C107.27 27.092 106.973 25.4574 106.377 24.4248C105.781 23.3922 104.854 22.7234 103.597 22.4189C102.339 22.1145 100.433 21.9619 97.8779 21.9619H97.1436V0.476562H142.438V52.2451Z" fill="white"/>
<path d="M109.276 0.476562V10.9473C110.638 11.5165 111.935 12.2621 113.129 13.1855H109.853V39.5361H117.16L119.975 32.3525C119.955 35.1195 119.676 39.3417 117.637 43.1582L117.639 43.1592C117.624 43.1875 117.607 43.215 117.592 43.2432C117.587 43.2515 117.584 43.2602 117.579 43.2686L117.578 43.2676C115.184 47.6939 111.137 50.5529 106.504 51.5713L106.438 51.5859L106.373 51.5996C103.786 52.1396 100.687 52.2451 97.8779 52.2451H75.8955V39.5361H82.3896V18.7051H86.9766V13.1855H75.8955V0.476562H96.5674V13.1855H88.6045V39.5361H97.8779C100.605 39.5361 102.571 39.4106 103.775 39.1592C104.98 38.8944 105.861 38.239 106.417 37.1934C106.986 36.1475 107.271 34.4191 107.271 32.0098V29.3291C107.27 27.092 106.973 25.4574 106.377 24.4248C105.781 23.3922 104.854 22.7234 103.597 22.4189C102.339 22.1145 100.433 21.9619 97.8779 21.9619H96.5674V0.476562H109.276ZM96.5674 27.0059C97.8383 27.0456 98.6063 27.2117 98.8711 27.5029C99.1489 27.7944 99.2881 28.6214 99.2881 29.9844V31.0371C99.2881 32.4668 99.0958 33.3206 98.7119 33.5986C98.3412 33.8633 97.6264 33.9961 96.5674 33.9961V27.0059ZM116.842 17.1953C116.945 17.3525 117.048 17.5116 117.147 17.6738L117.386 18.0732L117.597 18.4512C118.194 19.5525 118.643 20.6798 118.981 21.792L116.842 27.3037V17.1953Z" fill="white"/>
<path d="M96.5674 27.0059C97.8383 27.0456 98.6063 27.2117 98.8711 27.5029C99.1489 27.7944 99.2881 28.6214 99.2881 29.9844V31.0371C99.2881 31.1676 99.2844 31.2932 99.2812 31.4141H96.5674V27.0059ZM60.3076 31.4141H57.7793C57.8116 30.5565 57.9055 29.8748 58.0635 29.3691C58.2753 28.7337 59.0235 27.9458 60.3076 27.0059V31.4141ZM57.7656 20.6318C57.7656 19.1624 57.8325 18.2553 57.9648 17.9111C58.0973 17.5539 58.4349 17.375 58.9775 17.375C59.4539 17.3751 59.7917 17.5872 59.9902 18.0107C60.2019 18.4213 60.3076 19.315 60.3076 20.6914C60.3076 21.7901 60.2146 22.5186 60.0293 22.876C59.8758 23.1708 58.8891 23.6926 57.0713 24.4463V23.3916H57.7656V20.6318ZM96.5674 13.1855H88.6045V39.5361H95.0977V52.2451H61.6777V39.5361H68.3301V26.3105C68.3301 21.9554 68.1911 19.0824 67.9131 17.6924C67.635 16.2893 66.8073 15.1113 65.4307 14.1582C64.0539 13.1919 62.0087 12.709 59.2949 12.709C58.5016 12.709 57.7605 12.7622 57.0713 12.8662V0.476562H99.6855V21.9912C99.1242 21.9719 98.5216 21.9619 97.8779 21.9619H96.5674V13.1855ZM82.3896 39.5361V18.7051H86.9766V13.1855H69.7793V18.7051H74.3867V39.5361H82.3896Z" fill="white"/>
<path d="M59.2949 0C62.8243 4.53115e-06 67.4028 0.520967 71.5752 3.00781L73.0166 1.9541V3.95801C75.9766 6.10056 78.5528 9.17551 79.8496 13.1855H69.7793V18.7051H74.3867V39.5361H81.0391V52.2451H60.1055C58.649 52.5802 57.216 52.7217 55.8594 52.7217C54.3851 52.7217 52.9379 52.5602 51.5332 52.2451H47.8174V51.0039C46.833 50.5617 45.8787 50.0394 44.9648 49.4336L44.8281 49.3418C40.8573 46.6344 39.0365 42.8639 38.208 39.5361H44.3818V18.7051H48.9688V13.1855H42.2256L39.2539 11.9121C41.1082 7.58541 44.3578 4.80277 47.251 3.07227L47.626 2.85352C51.5094 0.643996 55.6703 0 59.2949 0ZM59.2949 12.709C57.0312 12.709 55.1909 13.1322 53.7744 13.9795C52.358 14.8267 51.4112 15.8061 50.9346 16.918C50.4712 18.0168 50.2402 19.5863 50.2402 21.625V23.3916H57.7656V20.6318C57.7656 19.1624 57.8325 18.2553 57.9648 17.9111C58.0973 17.5539 58.4349 17.375 58.9775 17.375C59.4539 17.3751 59.7917 17.5872 59.9902 18.0107C60.2019 18.4213 60.3076 19.315 60.3076 20.6914C60.3076 21.7901 60.2146 22.5186 60.0293 22.876C59.8431 23.2335 58.4333 23.9287 55.7998 24.9609C53.3376 25.9141 51.795 26.748 51.1729 27.4629C50.5508 28.1778 50.2402 29.5218 50.2402 31.4941V33.6582C50.2402 36.319 50.8224 38.0465 51.9873 38.8408C53.1655 39.6219 54.4562 40.0127 55.8594 40.0127C56.9317 40.0127 57.8523 39.7807 58.6201 39.3174C59.4009 38.8408 60.0367 38.133 60.5264 37.1934V39.5361H68.3301V26.3105C68.3301 21.9554 68.1911 19.0824 67.9131 17.6924C67.635 16.2893 66.8073 15.1113 65.4307 14.1582C64.0539 13.1919 62.0087 12.709 59.2949 12.709ZM60.3076 32.4268C60.3076 33.7506 60.2282 34.5719 60.0693 34.8896C59.9237 35.194 59.5994 35.3456 59.0967 35.3457C58.5671 35.3457 58.2098 35.1472 58.0244 34.75C57.8524 34.3527 57.7656 33.4727 57.7656 32.1094C57.7656 30.918 57.8649 30.0046 58.0635 29.3691C58.2753 28.7337 59.0235 27.9458 60.3076 27.0059V32.4268ZM42.2256 13.1855H38.7676C38.9052 12.783 39.056 12.3804 39.2246 11.9805L39.2539 11.9121L42.2256 13.1855Z" fill="white"/>
<path d="M61.6777 0.476562V12.8555C60.9508 12.758 60.1566 12.709 59.2949 12.709C57.0312 12.709 55.1909 13.1322 53.7744 13.9795C52.358 14.8267 51.4112 15.8061 50.9346 16.918C50.4712 18.0168 50.2402 19.5863 50.2402 21.625V23.3916H57.7656V20.6318C57.7656 19.1624 57.8325 18.2553 57.9648 17.9111C58.0973 17.5539 58.4349 17.375 58.9775 17.375C59.4539 17.3751 59.7917 17.5872 59.9902 18.0107C60.2019 18.4213 60.3076 19.315 60.3076 20.6914C60.3076 21.7901 60.2146 22.5186 60.0293 22.876C59.8431 23.2335 58.4333 23.9287 55.7998 24.9609C53.3376 25.9141 51.795 26.748 51.1729 27.4629C50.5508 28.1778 50.2402 29.5218 50.2402 31.4941V33.6582C50.2402 36.319 50.8224 38.0465 51.9873 38.8408C53.1655 39.6219 54.4562 40.0127 55.8594 40.0127C56.2951 40.0127 56.7054 39.972 57.0908 39.8955V52.2451H23.6699V39.8838C24.6165 39.7515 25.4576 39.5179 26.1924 39.1787C27.397 38.6095 28.37 37.7755 29.1113 36.6768C29.8659 35.5647 30.309 34.4853 30.4414 33.4395C30.587 32.3805 30.6664 30.7988 30.6797 28.6943H23.5312V31.4141H20.7314V20.0957C20.7314 18.944 20.8109 18.2021 20.9697 17.8711C21.1286 17.5404 21.4401 17.375 21.9033 17.375C22.3665 17.3751 22.6844 17.5673 22.8564 17.9512C23.0285 18.3219 23.1143 19.0369 23.1143 20.0957V23.1338H30.6797C30.6797 20.6582 30.4351 18.7448 29.9453 17.3945C29.4554 16.0444 28.4689 14.9259 26.9863 14.0391C25.5037 13.1522 23.7166 12.709 21.625 12.709C20.7113 12.709 19.8574 12.7933 19.0635 12.9629V0.476562H61.6777ZM60.3076 31.4141H57.7793C57.8116 30.5565 57.9055 29.8748 58.0635 29.3691C58.2753 28.7337 59.0235 27.9458 60.3076 27.0059V31.4141ZM44.3818 39.5361V18.7051H48.9688V13.1855H31.7725V18.7051H36.3789V39.5361H44.3818Z" fill="white"/>
<path d="M21.625 0C25.4076 0 29.419 0.788285 33.1504 2.92188L33.5107 3.13281L34.1572 3.53516C37.2664 5.54501 40.1219 8.51652 41.7305 12.6318L41.8926 13.0615L41.9355 13.1855H31.7725V18.7051H36.3789V39.5361H41.8936C41.2692 41.1337 40.4754 42.5635 39.6279 43.8125L39.627 43.8115C37.6033 46.8005 34.87 49.1342 31.6221 50.6689L31.5703 50.6934L31.5176 50.7178C28.1807 52.2578 24.7486 52.7217 21.7246 52.7217C18.2206 52.7217 13.9399 52.1589 9.9668 49.8545L9.92578 49.8311L9.88477 49.8066C6.21089 47.639 3.35277 44.397 1.72363 40.3242L1.69629 40.2568L1.66992 40.1895C0.298313 36.6433 2.46132e-05 32.8347 0 29.6475V22.1611C0 19.4249 0.225866 15.8132 1.56543 12.4248L1.74023 11.999C3.57573 7.69363 6.81702 4.93141 9.62598 3.22266L9.625 3.22168C13.4932 0.852073 17.6963 1.1243e-05 21.625 0ZM21.625 12.709C19.5202 12.709 17.7331 13.1585 16.2637 14.0586C14.7943 14.9455 13.8339 15.9583 13.3838 17.0967C12.9337 18.2352 12.709 19.9238 12.709 22.1611V29.6475C12.709 32.2155 12.9807 34.2013 13.5234 35.6045C14.0795 36.9944 15.019 38.0803 16.3428 38.8613C17.6666 39.6292 19.4609 40.0127 21.7246 40.0127C23.4984 40.0127 24.9877 39.7347 26.1924 39.1787C27.397 38.6095 28.37 37.7755 29.1113 36.6768C29.8659 35.5647 30.309 34.4853 30.4414 33.4395C30.587 32.3805 30.6664 30.7988 30.6797 28.6943H23.5312V31.8311C23.5312 33.1946 23.432 34.1215 23.2334 34.6113C23.0481 35.1011 22.6842 35.3456 22.1416 35.3457C21.6783 35.3457 21.3272 35.1146 21.0889 34.6514C20.8506 34.1748 20.7314 33.4663 20.7314 32.5264V20.0957C20.7314 18.944 20.8109 18.2021 20.9697 17.8711C21.1286 17.5404 21.4401 17.375 21.9033 17.375C22.3665 17.3751 22.6844 17.5673 22.8564 17.9512C23.0285 18.3219 23.1143 19.0369 23.1143 20.0957V23.1338H30.6797C30.6797 20.6582 30.4351 18.7448 29.9453 17.3945C29.4554 16.0444 28.4689 14.9259 26.9863 14.0391C25.5037 13.1522 23.7166 12.709 21.625 12.709Z" fill="white"/>
<rect x="4.99902" y="8.53613" width="129" height="36" fill="white"/>
</svg>
