<svg width="180" height="77" viewBox="0 0 180 77" fill="none" xmlns="http://www.w3.org/2000/svg">
<rect y="11.457" width="52.5431" height="52.9426" fill="black"/>
<rect x="98.4189" y="11.457" width="52.5431" height="52.9426" fill="black"/>
<rect x="31.7622" y="11.457" width="52.5431" height="60.4494" fill="black"/>
<path d="M156.061 29.6309L176.097 64.5967H136.026L156.061 29.6309Z" fill="black"/>
<path d="M156.06 46.6211L136.025 11.6553L176.095 11.6553L156.06 46.6211Z" fill="black"/>
<ellipse cx="86.6559" cy="41.8791" rx="26.6637" ry="26.8664" fill="black"/>
<path d="M158.497 51.7181C158.497 54.0444 149.375 53.2858 146.676 53.2858C142.952 53.2858 127.687 54.3478 127.687 51.3641V27.3424C127.687 24.2575 157.66 24.5609 157.753 27.0895C157.753 27.7469 155.705 28.809 154.402 28.809L140.718 28.8595C136.25 28.8595 134.668 30.8318 134.668 33.0064C134.668 40.8957 154.588 34.5236 154.588 38.7211C154.588 43.7783 134.668 35.9902 134.668 45.2449C134.668 55.1064 158.497 46.6609 158.497 51.7181Z" fill="white"/>
<path d="M126.166 51.9194L126.073 51.8688C126.073 53.9423 119.371 53.8411 119.371 51.7171V41.5521C119.371 40.743 118.905 36.9501 116.95 36.9501C113.134 36.9501 113.041 44.2324 108.387 44.2324C103.639 44.2324 103.174 36.9501 99.7298 36.8995C97.6819 36.8995 97.2165 40.6418 97.2165 41.5016L97.1234 51.7677C97.1234 53.8917 90.4214 54.0434 90.4214 51.8688V27.5942C90.4214 26.0265 93.9586 25.8242 96.1926 25.8242C106.432 25.8242 102.429 33.41 108.294 33.41C113.692 33.41 111.179 25.8242 119.371 25.8242C121.511 25.8242 126.166 25.9254 126.166 27.5942V51.9194Z" fill="white"/>
<path d="M88.0806 50.3016H87.9876C87.9876 52.2233 86.4051 52.4256 83.2403 52.4762C80.2616 52.4762 78.3999 52.2233 78.3999 50.3522C78.3999 48.481 80.3547 48.1776 83.3334 48.1776C86.4982 48.127 88.0806 48.3799 88.0806 50.3016Z" fill="white"/>
<path d="M73.9563 51.7181C73.9563 54.0444 64.8341 53.2858 62.1346 53.2858C58.4113 53.2858 43.1455 54.3478 43.1455 51.3641V27.3424C43.1455 24.2575 73.1186 24.5609 73.2116 27.0895C73.2116 27.7469 71.1638 28.809 69.8606 28.809L56.1773 28.8595C51.7092 28.8595 50.1268 30.8318 50.1268 33.0064C50.1268 40.8957 70.0468 34.5236 70.0468 38.7211C70.0468 43.7783 50.1268 35.9902 50.1268 45.2449C50.1268 55.1064 73.9563 46.6609 73.9563 51.7181Z" fill="white"/>
<path d="M41.6271 51.9194L41.534 51.8688C41.534 53.9423 34.8319 53.8411 34.8319 51.7171V41.5521C34.8319 40.743 34.3665 36.9501 32.4118 36.9501C28.5953 36.9501 28.5022 44.2324 23.848 44.2324C19.1007 44.2324 18.6353 36.9501 15.1912 36.8995C13.1434 36.8995 12.6779 40.6418 12.6779 41.5016L12.5849 51.7677C12.5849 53.8917 5.88281 54.0434 5.88281 51.8688V27.5942C5.88281 26.0265 9.42001 25.8242 11.654 25.8242C21.8933 25.8242 17.8907 33.41 23.7549 33.41C29.1538 33.41 26.6406 25.8242 34.8319 25.8242C36.9729 25.8242 41.6271 25.9254 41.6271 27.5942V51.9194Z" fill="white"/>
</svg>
