<svg width="253" height="58" viewBox="0 0 253 58" fill="none" xmlns="http://www.w3.org/2000/svg">
<mask id="path-1-outside-1_208_662" maskUnits="userSpaceOnUse" x="-0.482422" y="-0.463379" width="253" height="58" fill="black">
<rect fill="white" x="-0.482422" y="-0.463379" width="253" height="58"/>
<path d="M30.6801 23.1343H23.1144V20.0961C23.1144 19.037 23.0283 18.3221 22.8562 17.9515C22.6841 17.5675 22.3664 17.3756 21.9031 17.3756C21.4397 17.3756 21.1286 17.5411 20.9698 17.872C20.8109 18.203 20.7315 18.9443 20.7315 20.0961V32.5269C20.7315 33.4668 20.8506 34.1751 21.0889 34.6517C21.3272 35.115 21.678 35.3467 22.1414 35.3467C22.6841 35.3467 23.0482 35.1018 23.2335 34.6119C23.4321 34.1221 23.5314 33.1954 23.5314 31.8319V28.6944H30.6801C30.6669 30.7993 30.5875 32.3813 30.4418 33.4403C30.3095 34.4862 29.866 35.5651 29.1114 36.6771C28.37 37.7759 27.397 38.6099 26.1923 39.1792C24.9876 39.7352 23.4983 40.0132 21.7244 40.0132C19.4606 40.0132 17.6668 39.6293 16.343 38.8615C15.0191 38.0804 14.0792 36.9949 13.5232 35.6048C12.9804 34.2016 12.709 32.2158 12.709 29.6476V22.1613C12.709 19.924 12.9341 18.2361 13.3842 17.0976C13.8343 15.9591 14.7941 14.9463 16.2635 14.0594C17.733 13.1592 19.5202 12.7091 21.6251 12.7091C23.7167 12.7091 25.5039 13.1525 26.9866 14.0395C28.4693 14.9265 29.4556 16.0451 29.9454 17.3954C30.4352 18.7458 30.6801 20.6587 30.6801 23.1343ZM51.2327 22.4393V28.893C51.2327 31.2626 51.1136 33.0035 50.8753 34.1155C50.637 35.2143 50.1273 36.2469 49.3462 37.2133C48.5652 38.1664 47.5591 38.8747 46.3279 39.338C45.11 39.7882 43.7067 40.0132 42.1181 40.0132C40.3441 40.0132 38.8416 39.8212 37.6104 39.4373C36.3792 39.0402 35.4195 38.4511 34.7311 37.67C34.0559 36.8757 33.5727 35.9225 33.2815 34.8105C32.9902 33.6853 32.8446 32.004 32.8446 29.7667V23.0151C32.8446 20.566 33.1094 18.6531 33.6389 17.2763C34.1684 15.8995 35.1216 14.7941 36.4984 13.9601C37.8752 13.1261 39.6359 12.7091 41.7805 12.7091C43.5809 12.7091 45.1232 12.9804 46.4073 13.5232C47.7047 14.0527 48.7042 14.7478 49.4058 15.6083C50.1074 16.4688 50.584 17.3557 50.8356 18.2692C51.1003 19.1826 51.2327 20.5726 51.2327 22.4393ZM43.2102 20.4535C43.2102 19.1032 43.1374 18.2559 42.9918 17.9117C42.8462 17.5543 42.5351 17.3756 42.0585 17.3756C41.5819 17.3756 41.2642 17.5543 41.1053 17.9117C40.9465 18.2559 40.8671 19.1032 40.8671 20.4535V32.3482C40.8671 33.5926 40.9465 34.4068 41.1053 34.7907C41.2642 35.1613 41.5753 35.3467 42.0387 35.3467C42.5152 35.3467 42.8263 35.1746 42.972 34.8304C43.1308 34.4862 43.2102 33.7448 43.2102 32.6063V20.4535ZM68.1116 25.4179C69.3693 25.815 70.296 26.3975 70.8917 27.1654C71.4874 27.9332 71.7853 29.1313 71.7853 30.7596C71.7853 32.56 71.6529 33.8706 71.3881 34.6914C71.1234 35.4989 70.6071 36.3263 69.8392 37.1736C69.0847 38.0076 68.0454 38.6099 66.7216 38.9806C65.3978 39.3513 63.9283 39.5366 62.3132 39.5366C59.0963 39.5366 56.8458 38.9078 55.5617 37.6502C54.2775 36.3925 53.6355 34.1089 53.6355 30.7993V28.8731H61.2409V32.5865C61.2409 33.9103 61.7043 34.5722 62.6309 34.5722C63.1208 34.5722 63.4914 34.3869 63.743 34.0162C64.0077 33.6323 64.1401 32.6394 64.1401 31.0376V29.3695C64.1401 28.6017 63.882 28.0722 63.3657 27.7809C62.8494 27.4897 61.7771 27.3441 60.1488 27.3441V23.591H60.7643C61.8896 23.591 62.6243 23.5645 62.9685 23.5116C63.3127 23.4586 63.5907 23.2733 63.8025 22.9556C64.0276 22.6246 64.1401 22.0752 64.1401 21.3074V20.7514C64.1401 19.6261 64.0144 18.9112 63.7628 18.6067C63.5245 18.3023 63.1737 18.15 62.7104 18.15C61.7307 18.15 61.2409 18.7325 61.2409 19.8975V22.0421H53.6355V20.8705C53.6355 18.0905 54.3106 16.1179 55.6609 14.953C57.0245 13.7747 59.2949 13.1856 62.4721 13.1856C65.5169 13.1856 67.7741 13.7483 69.2435 14.8735C70.713 15.9988 71.4477 17.7396 71.4477 20.0961C71.4477 21.6847 71.2094 22.8695 70.7328 23.6506C70.2563 24.4184 69.3825 25.0075 68.1116 25.4179ZM97.759 44.6202H92.3974V39.5366H78.8943V44.6202H73.5327V33.2418H75.2405C76.2599 31.6664 77.0939 29.2239 77.7426 25.9143C78.4045 22.5915 78.7354 18.6729 78.7354 14.1587V13.1856H96.0512V33.2021H97.759V44.6202ZM88.0883 33.2021V19.123H86.0033V19.4011C86.0033 24.2993 85.209 28.8996 83.6204 33.2021H88.0883ZM106.933 23.3924H99.4072V21.6251C99.4072 19.5864 99.6388 18.0176 100.102 16.9189C100.579 15.8068 101.525 14.8272 102.942 13.9799C104.358 13.1327 106.198 12.7091 108.462 12.7091C111.176 12.7091 113.221 13.1923 114.598 14.1587C115.975 15.1118 116.802 16.29 117.08 17.6933C117.358 19.0833 117.497 21.9561 117.497 26.3115V39.5366H109.693V37.1934C109.204 38.1334 108.568 38.8416 107.787 39.3182C107.019 39.7815 106.099 40.0132 105.027 40.0132C103.624 40.0132 102.333 39.6227 101.155 38.8416C99.9896 38.0473 99.4072 36.3197 99.4072 33.6588V31.4943C99.4072 29.5218 99.7183 28.1781 100.34 27.4632C100.963 26.7484 102.505 25.9143 104.967 24.9612C107.602 23.9286 109.012 23.2336 109.197 22.8761C109.382 22.5187 109.475 21.7906 109.475 20.6918C109.475 19.315 109.369 18.4214 109.157 18.011C108.959 17.5874 108.621 17.3756 108.144 17.3756C107.602 17.3756 107.264 17.5543 107.132 17.9117C106.999 18.2559 106.933 19.1628 106.933 20.6322V23.3924ZM109.475 27.0065C108.191 27.9464 107.443 28.7341 107.231 29.3695C107.032 30.005 106.933 30.9184 106.933 32.1099C106.933 33.4734 107.019 34.3538 107.191 34.7509C107.377 35.1481 107.734 35.3467 108.264 35.3467C108.767 35.3467 109.091 35.1944 109.237 34.89C109.396 34.5722 109.475 33.7515 109.475 32.4276V27.0065ZM136.144 13.1856V18.706H131.557V39.5366H123.554V18.706H118.947V13.1856H136.144ZM156.438 32.0106C156.438 34.42 156.153 36.1476 155.584 37.1934C155.028 38.2393 154.148 38.8946 152.943 39.1593C151.738 39.4109 149.773 39.5366 147.045 39.5366H137.772V13.1856H145.735V21.9627H147.045C149.6 21.9627 151.507 22.1149 152.764 22.4194C154.022 22.7239 154.949 23.3924 155.544 24.425C156.14 25.4576 156.438 27.0925 156.438 29.3298V32.0106ZM148.455 31.0376V29.9851C148.455 28.6216 148.316 27.7942 148.038 27.5029C147.774 27.2117 147.006 27.0462 145.735 27.0065V33.9964C146.794 33.9964 147.509 33.864 147.879 33.5992C148.263 33.3212 148.455 32.4673 148.455 31.0376ZM191.129 39.5366H184.259V21.367L180.922 39.5366H176.534L173.079 21.367V39.5366H166.208V13.1856H176.157L178.718 27.7412L181.042 13.1856H191.129V39.5366ZM212.178 26.8278H201.793V32.5269C201.793 33.7184 201.879 34.4862 202.051 34.8304C202.223 35.1746 202.554 35.3467 203.044 35.3467C203.653 35.3467 204.057 35.1216 204.255 34.6715C204.467 34.2082 204.573 33.3212 204.573 32.0106V28.5355H212.178V30.4816C212.178 32.1099 212.072 33.3609 211.861 34.2347C211.662 35.1084 211.185 36.0417 210.431 37.0346C209.676 38.0274 208.716 38.7754 207.551 39.2785C206.4 39.7683 204.95 40.0132 203.203 40.0132C201.508 40.0132 200.012 39.7683 198.715 39.2785C197.417 38.7887 196.405 38.1201 195.677 37.2729C194.962 36.4124 194.465 35.4724 194.187 34.4531C193.909 33.4205 193.77 31.9246 193.77 29.9653V22.2804C193.77 19.9769 194.081 18.1633 194.704 16.8394C195.326 15.5024 196.345 14.483 197.762 13.7814C199.178 13.0665 200.806 12.7091 202.647 12.7091C204.897 12.7091 206.751 13.1393 208.207 13.9998C209.676 14.8471 210.702 15.9789 211.285 17.3954C211.88 18.7987 212.178 20.7778 212.178 23.3328V26.8278ZM204.136 22.5385V20.6124C204.136 19.2488 204.063 18.3685 203.918 17.9713C203.772 17.5742 203.474 17.3756 203.024 17.3756C202.468 17.3756 202.124 17.5477 201.991 17.8919C201.859 18.2228 201.793 19.1297 201.793 20.6124V22.5385H204.136ZM239.741 39.5366H232.87V21.367L229.534 39.5366H225.145L221.69 21.367V39.5366H214.819V13.1856H224.768L227.33 27.7412L229.653 13.1856H239.741V39.5366Z"/>
</mask>
<path d="M30.6801 23.1343H23.1144V20.0961C23.1144 19.037 23.0283 18.3221 22.8562 17.9515C22.6841 17.5675 22.3664 17.3756 21.9031 17.3756C21.4397 17.3756 21.1286 17.5411 20.9698 17.872C20.8109 18.203 20.7315 18.9443 20.7315 20.0961V32.5269C20.7315 33.4668 20.8506 34.1751 21.0889 34.6517C21.3272 35.115 21.678 35.3467 22.1414 35.3467C22.6841 35.3467 23.0482 35.1018 23.2335 34.6119C23.4321 34.1221 23.5314 33.1954 23.5314 31.8319V28.6944H30.6801C30.6669 30.7993 30.5875 32.3813 30.4418 33.4403C30.3095 34.4862 29.866 35.5651 29.1114 36.6771C28.37 37.7759 27.397 38.6099 26.1923 39.1792C24.9876 39.7352 23.4983 40.0132 21.7244 40.0132C19.4606 40.0132 17.6668 39.6293 16.343 38.8615C15.0191 38.0804 14.0792 36.9949 13.5232 35.6048C12.9804 34.2016 12.709 32.2158 12.709 29.6476V22.1613C12.709 19.924 12.9341 18.2361 13.3842 17.0976C13.8343 15.9591 14.7941 14.9463 16.2635 14.0594C17.733 13.1592 19.5202 12.7091 21.6251 12.7091C23.7167 12.7091 25.5039 13.1525 26.9866 14.0395C28.4693 14.9265 29.4556 16.0451 29.9454 17.3954C30.4352 18.7458 30.6801 20.6587 30.6801 23.1343ZM51.2327 22.4393V28.893C51.2327 31.2626 51.1136 33.0035 50.8753 34.1155C50.637 35.2143 50.1273 36.2469 49.3462 37.2133C48.5652 38.1664 47.5591 38.8747 46.3279 39.338C45.11 39.7882 43.7067 40.0132 42.1181 40.0132C40.3441 40.0132 38.8416 39.8212 37.6104 39.4373C36.3792 39.0402 35.4195 38.4511 34.7311 37.67C34.0559 36.8757 33.5727 35.9225 33.2815 34.8105C32.9902 33.6853 32.8446 32.004 32.8446 29.7667V23.0151C32.8446 20.566 33.1094 18.6531 33.6389 17.2763C34.1684 15.8995 35.1216 14.7941 36.4984 13.9601C37.8752 13.1261 39.6359 12.7091 41.7805 12.7091C43.5809 12.7091 45.1232 12.9804 46.4073 13.5232C47.7047 14.0527 48.7042 14.7478 49.4058 15.6083C50.1074 16.4688 50.584 17.3557 50.8356 18.2692C51.1003 19.1826 51.2327 20.5726 51.2327 22.4393ZM43.2102 20.4535C43.2102 19.1032 43.1374 18.2559 42.9918 17.9117C42.8462 17.5543 42.5351 17.3756 42.0585 17.3756C41.5819 17.3756 41.2642 17.5543 41.1053 17.9117C40.9465 18.2559 40.8671 19.1032 40.8671 20.4535V32.3482C40.8671 33.5926 40.9465 34.4068 41.1053 34.7907C41.2642 35.1613 41.5753 35.3467 42.0387 35.3467C42.5152 35.3467 42.8263 35.1746 42.972 34.8304C43.1308 34.4862 43.2102 33.7448 43.2102 32.6063V20.4535ZM68.1116 25.4179C69.3693 25.815 70.296 26.3975 70.8917 27.1654C71.4874 27.9332 71.7853 29.1313 71.7853 30.7596C71.7853 32.56 71.6529 33.8706 71.3881 34.6914C71.1234 35.4989 70.6071 36.3263 69.8392 37.1736C69.0847 38.0076 68.0454 38.6099 66.7216 38.9806C65.3978 39.3513 63.9283 39.5366 62.3132 39.5366C59.0963 39.5366 56.8458 38.9078 55.5617 37.6502C54.2775 36.3925 53.6355 34.1089 53.6355 30.7993V28.8731H61.2409V32.5865C61.2409 33.9103 61.7043 34.5722 62.6309 34.5722C63.1208 34.5722 63.4914 34.3869 63.743 34.0162C64.0077 33.6323 64.1401 32.6394 64.1401 31.0376V29.3695C64.1401 28.6017 63.882 28.0722 63.3657 27.7809C62.8494 27.4897 61.7771 27.3441 60.1488 27.3441V23.591H60.7643C61.8896 23.591 62.6243 23.5645 62.9685 23.5116C63.3127 23.4586 63.5907 23.2733 63.8025 22.9556C64.0276 22.6246 64.1401 22.0752 64.1401 21.3074V20.7514C64.1401 19.6261 64.0144 18.9112 63.7628 18.6067C63.5245 18.3023 63.1737 18.15 62.7104 18.15C61.7307 18.15 61.2409 18.7325 61.2409 19.8975V22.0421H53.6355V20.8705C53.6355 18.0905 54.3106 16.1179 55.6609 14.953C57.0245 13.7747 59.2949 13.1856 62.4721 13.1856C65.5169 13.1856 67.7741 13.7483 69.2435 14.8735C70.713 15.9988 71.4477 17.7396 71.4477 20.0961C71.4477 21.6847 71.2094 22.8695 70.7328 23.6506C70.2563 24.4184 69.3825 25.0075 68.1116 25.4179ZM97.759 44.6202H92.3974V39.5366H78.8943V44.6202H73.5327V33.2418H75.2405C76.2599 31.6664 77.0939 29.2239 77.7426 25.9143C78.4045 22.5915 78.7354 18.6729 78.7354 14.1587V13.1856H96.0512V33.2021H97.759V44.6202ZM88.0883 33.2021V19.123H86.0033V19.4011C86.0033 24.2993 85.209 28.8996 83.6204 33.2021H88.0883ZM106.933 23.3924H99.4072V21.6251C99.4072 19.5864 99.6388 18.0176 100.102 16.9189C100.579 15.8068 101.525 14.8272 102.942 13.9799C104.358 13.1327 106.198 12.7091 108.462 12.7091C111.176 12.7091 113.221 13.1923 114.598 14.1587C115.975 15.1118 116.802 16.29 117.08 17.6933C117.358 19.0833 117.497 21.9561 117.497 26.3115V39.5366H109.693V37.1934C109.204 38.1334 108.568 38.8416 107.787 39.3182C107.019 39.7815 106.099 40.0132 105.027 40.0132C103.624 40.0132 102.333 39.6227 101.155 38.8416C99.9896 38.0473 99.4072 36.3197 99.4072 33.6588V31.4943C99.4072 29.5218 99.7183 28.1781 100.34 27.4632C100.963 26.7484 102.505 25.9143 104.967 24.9612C107.602 23.9286 109.012 23.2336 109.197 22.8761C109.382 22.5187 109.475 21.7906 109.475 20.6918C109.475 19.315 109.369 18.4214 109.157 18.011C108.959 17.5874 108.621 17.3756 108.144 17.3756C107.602 17.3756 107.264 17.5543 107.132 17.9117C106.999 18.2559 106.933 19.1628 106.933 20.6322V23.3924ZM109.475 27.0065C108.191 27.9464 107.443 28.7341 107.231 29.3695C107.032 30.005 106.933 30.9184 106.933 32.1099C106.933 33.4734 107.019 34.3538 107.191 34.7509C107.377 35.1481 107.734 35.3467 108.264 35.3467C108.767 35.3467 109.091 35.1944 109.237 34.89C109.396 34.5722 109.475 33.7515 109.475 32.4276V27.0065ZM136.144 13.1856V18.706H131.557V39.5366H123.554V18.706H118.947V13.1856H136.144ZM156.438 32.0106C156.438 34.42 156.153 36.1476 155.584 37.1934C155.028 38.2393 154.148 38.8946 152.943 39.1593C151.738 39.4109 149.773 39.5366 147.045 39.5366H137.772V13.1856H145.735V21.9627H147.045C149.6 21.9627 151.507 22.1149 152.764 22.4194C154.022 22.7239 154.949 23.3924 155.544 24.425C156.14 25.4576 156.438 27.0925 156.438 29.3298V32.0106ZM148.455 31.0376V29.9851C148.455 28.6216 148.316 27.7942 148.038 27.5029C147.774 27.2117 147.006 27.0462 145.735 27.0065V33.9964C146.794 33.9964 147.509 33.864 147.879 33.5992C148.263 33.3212 148.455 32.4673 148.455 31.0376ZM191.129 39.5366H184.259V21.367L180.922 39.5366H176.534L173.079 21.367V39.5366H166.208V13.1856H176.157L178.718 27.7412L181.042 13.1856H191.129V39.5366ZM212.178 26.8278H201.793V32.5269C201.793 33.7184 201.879 34.4862 202.051 34.8304C202.223 35.1746 202.554 35.3467 203.044 35.3467C203.653 35.3467 204.057 35.1216 204.255 34.6715C204.467 34.2082 204.573 33.3212 204.573 32.0106V28.5355H212.178V30.4816C212.178 32.1099 212.072 33.3609 211.861 34.2347C211.662 35.1084 211.185 36.0417 210.431 37.0346C209.676 38.0274 208.716 38.7754 207.551 39.2785C206.4 39.7683 204.95 40.0132 203.203 40.0132C201.508 40.0132 200.012 39.7683 198.715 39.2785C197.417 38.7887 196.405 38.1201 195.677 37.2729C194.962 36.4124 194.465 35.4724 194.187 34.4531C193.909 33.4205 193.77 31.9246 193.77 29.9653V22.2804C193.77 19.9769 194.081 18.1633 194.704 16.8394C195.326 15.5024 196.345 14.483 197.762 13.7814C199.178 13.0665 200.806 12.7091 202.647 12.7091C204.897 12.7091 206.751 13.1393 208.207 13.9998C209.676 14.8471 210.702 15.9789 211.285 17.3954C211.88 18.7987 212.178 20.7778 212.178 23.3328V26.8278ZM204.136 22.5385V20.6124C204.136 19.2488 204.063 18.3685 203.918 17.9713C203.772 17.5742 203.474 17.3756 203.024 17.3756C202.468 17.3756 202.124 17.5477 201.991 17.8919C201.859 18.2228 201.793 19.1297 201.793 20.6124V22.5385H204.136ZM239.741 39.5366H232.87V21.367L229.534 39.5366H225.145L221.69 21.367V39.5366H214.819V13.1856H224.768L227.33 27.7412L229.653 13.1856H239.741V39.5366Z" fill="#FF00A0"/>
<path d="M30.6801 23.1343V35.8431H43.389V23.1343H30.6801ZM23.1144 23.1343H10.4056V35.8431H23.1144V23.1343ZM22.8562 17.9515L11.2593 23.1501L11.2938 23.2269L11.3292 23.3033L22.8562 17.9515ZM21.0889 34.6517L9.72179 40.3352L9.75408 40.3998L9.78711 40.464L21.0889 34.6517ZM23.2335 34.6119L11.4558 29.8372L11.3998 29.9751L11.3471 30.1144L23.2335 34.6119ZM23.5314 28.6944V15.9856H10.8226V28.6944H23.5314ZM30.6801 28.6944L43.3887 28.7743L43.4691 15.9856H30.6801V28.6944ZM30.4418 33.4403L17.8515 31.7092L17.8422 31.7767L17.8336 31.8444L30.4418 33.4403ZM29.1114 36.6771L18.5951 29.5411L18.5856 29.5551L18.5762 29.5691L29.1114 36.6771ZM26.1923 39.1792L31.5181 50.7183L31.5701 50.6943L31.6219 50.6698L26.1923 39.1792ZM16.343 38.8615L9.88498 49.8072L9.92576 49.8313L9.96671 49.855L16.343 38.8615ZM13.5232 35.6048L1.67012 40.1895L1.69634 40.2573L1.72333 40.3248L13.5232 35.6048ZM16.2635 14.0594L22.831 24.9398L22.8668 24.9182L22.9024 24.8963L16.2635 14.0594ZM30.6801 23.1343V10.4254H23.1144V23.1343V35.8431H30.6801V23.1343ZM23.1144 23.1343H35.8232V20.0961H23.1144H10.4056V23.1343H23.1144ZM23.1144 20.0961H35.8232C35.8232 19.2714 35.7923 18.2825 35.6676 17.2468C35.5669 16.4103 35.3047 14.5843 34.3833 12.5996L22.8562 17.9515L11.3292 23.3033C10.9099 22.4001 10.7041 21.6503 10.6051 21.2342C10.4994 20.7897 10.4526 20.4546 10.4321 20.2844C10.3935 19.9636 10.4056 19.8617 10.4056 20.0961H23.1144ZM22.8562 17.9515L34.4532 12.7528C33.4554 10.527 31.7212 8.24917 29.0608 6.64185C26.4818 5.08367 23.8806 4.66674 21.9031 4.66674V17.3756V30.0844C20.3889 30.0844 18.1783 29.7635 15.9169 28.3972C13.5743 26.9819 12.085 24.9919 11.2593 23.1501L22.8562 17.9515ZM21.9031 17.3756V4.66674C20.2226 4.66674 17.8344 4.96007 15.354 6.27941C12.7008 7.69071 10.7123 9.8728 9.51247 12.3725L20.9698 17.872L32.4271 23.3715C31.3861 25.5403 29.6326 27.4742 27.2905 28.72C25.1212 29.8738 23.1202 30.0844 21.9031 30.0844V17.3756ZM20.9698 17.872L9.51247 12.3725C8.44596 14.5944 8.22322 16.6813 8.15454 17.3223C8.04819 18.315 8.02265 19.2827 8.02265 20.0961H20.7315H33.4403C33.4403 19.7577 33.4545 19.7789 33.4276 20.0302C33.4134 20.1622 33.3737 20.4951 33.2717 20.9541C33.1839 21.3495 32.9592 22.2631 32.4271 23.3715L20.9698 17.872ZM20.7315 20.0961H8.02265V32.5269H20.7315H33.4403V20.0961H20.7315ZM20.7315 32.5269H8.02265C8.02265 34.1496 8.16415 37.2199 9.72179 40.3352L21.0889 34.6517L32.4561 28.9681C33.0578 30.1716 33.2717 31.1681 33.3536 31.6547C33.4406 32.172 33.4403 32.493 33.4403 32.5269H20.7315ZM21.0889 34.6517L9.78711 40.464C10.6679 42.1767 12.1446 44.2044 14.5274 45.778C16.9909 47.4049 19.684 48.0555 22.1414 48.0555V35.3467V22.6378C24.1354 22.6378 26.4214 23.1726 28.5341 24.5678C30.5661 25.9097 31.7482 27.5899 32.3907 28.8393L21.0889 34.6517ZM22.1414 35.3467V48.0555C24.3372 48.0555 27.1867 47.5434 29.9153 45.7078C32.6794 43.8483 34.2798 41.33 35.1199 39.1095L23.2335 34.6119L11.3471 30.1144C12.002 28.3837 13.3276 26.2328 15.7277 24.6182C18.0923 23.0275 20.4883 22.6378 22.1414 22.6378V35.3467ZM23.2335 34.6119L35.0113 39.3867C36.2584 36.3105 36.2402 33.0259 36.2402 31.8319H23.5314H10.8226C10.8226 32.2478 10.8054 32.3355 10.8204 32.1957C10.8288 32.1173 10.8559 31.8856 10.927 31.5474C10.9925 31.236 11.1402 30.6157 11.4558 29.8372L23.2335 34.6119ZM23.5314 31.8319H36.2402V28.6944H23.5314H10.8226V31.8319H23.5314ZM23.5314 28.6944V41.4032H30.6801V28.6944V15.9856H23.5314V28.6944ZM30.6801 28.6944L17.9715 28.6145C17.9657 29.5373 17.9457 30.2657 17.9178 30.8223C17.9039 31.0977 17.8892 31.3109 17.8757 31.469C17.8691 31.5469 17.8632 31.606 17.8586 31.648C17.854 31.6903 17.8514 31.7099 17.8515 31.7092L30.4418 33.4403L43.0322 35.1715C43.2943 33.2654 43.3746 31.011 43.3887 28.7743L30.6801 28.6944ZM30.4418 33.4403L17.8336 31.8444C18.0121 30.4347 18.526 29.643 18.5951 29.5411L29.1114 36.6771L39.6276 43.8132C41.2059 41.4873 42.6069 38.5377 43.0501 35.0363L30.4418 33.4403ZM29.1114 36.6771L18.5762 29.5691C18.821 29.2062 19.1467 28.8273 19.5548 28.4775C19.9626 28.1279 20.3809 27.869 20.7627 27.6886L26.1923 39.1792L31.6219 50.6698C34.8799 49.1303 37.621 46.7874 39.6466 43.7852L29.1114 36.6771ZM26.1923 39.1792L20.8666 27.6401C21.3425 27.4204 21.694 27.3389 21.8398 27.3117C21.9812 27.2852 21.9578 27.3044 21.7244 27.3044V40.0132V52.722C24.7485 52.722 28.181 52.2585 31.5181 50.7183L26.1923 39.1792ZM21.7244 40.0132V27.3044C21.2877 27.3044 21.1886 27.2653 21.3409 27.2979C21.4992 27.3317 22.0222 27.4637 22.7192 27.8679L16.343 38.8615L9.96671 49.855C13.9398 52.1594 18.2204 52.722 21.7244 52.722V40.0132ZM16.343 38.8615L22.8009 27.9157C23.2406 28.1751 23.7606 28.574 24.2529 29.1426C24.7479 29.7142 25.0984 30.3231 25.3231 30.8849L13.5232 35.6048L1.72333 40.3248C3.35249 44.3977 6.211 47.6395 9.88498 49.8072L16.343 38.8615ZM13.5232 35.6048L25.3763 31.0201C25.5571 31.4876 25.5474 31.657 25.5044 31.3422C25.4647 31.0521 25.4179 30.5073 25.4179 29.6476H12.709H0.00019154C0.00019154 32.8349 0.298454 36.6432 1.67012 40.1895L13.5232 35.6048ZM12.709 29.6476H25.4179V22.1613H12.709H0.00019154V29.6476H12.709ZM12.709 22.1613H25.4179C25.4179 21.8122 25.4267 21.5319 25.4392 21.3138C25.4518 21.0942 25.4669 20.9591 25.4752 20.897C25.4838 20.8325 25.4811 20.8764 25.4499 21.0072C25.4194 21.1346 25.348 21.4031 25.2029 21.7701L13.3842 17.0976L1.56547 12.4251C0.225826 15.8136 0.00019154 19.4249 0.00019154 22.1613H12.709ZM13.3842 17.0976L25.2029 21.7701C24.7536 22.9067 24.1481 23.7176 23.666 24.2263C23.2045 24.7133 22.8589 24.9229 22.831 24.9398L16.2635 14.0594L9.69608 3.17896C6.77971 4.9393 3.3789 7.83813 1.56547 12.4251L13.3842 17.0976ZM16.2635 14.0594L22.9024 24.8963C22.4672 25.163 22.0764 25.3035 21.8098 25.3706C21.5569 25.4343 21.474 25.4179 21.6251 25.4179V12.7091V0.000213005C17.6963 0.000213005 13.493 0.852611 9.62467 3.22239L16.2635 14.0594ZM21.6251 12.7091V25.4179C21.7762 25.4179 21.7059 25.4341 21.4734 25.3764C21.2284 25.3156 20.8672 25.188 20.4623 24.9458L26.9866 14.0395L33.5109 3.13319C29.6783 0.840455 25.5298 0.000213005 21.6251 0.000213005V12.7091ZM26.9866 14.0395L20.4623 24.9458C20.2522 24.8202 19.805 24.5151 19.3055 23.9484C18.787 23.3603 18.3168 22.6073 17.9983 21.7292L29.9454 17.3954L41.8925 13.0617C40.2137 8.43361 36.975 5.20546 33.5109 3.13319L26.9866 14.0395ZM29.9454 17.3954L17.9983 21.7292C17.8368 21.2841 17.8492 21.1344 17.8905 21.4568C17.9284 21.7529 17.9713 22.2933 17.9713 23.1343H30.6801H43.389C43.389 20.0898 43.1236 16.4555 41.8925 13.0617L29.9454 17.3954ZM50.8753 34.1155L63.2954 36.809L63.2987 36.7937L63.302 36.7784L50.8753 34.1155ZM49.3462 37.2133L59.1762 45.2684L59.2034 45.2352L59.2304 45.2019L49.3462 37.2133ZM46.3279 39.338L50.7334 51.2589L50.7689 51.2458L50.8043 51.2324L46.3279 39.338ZM37.6104 39.4373L33.7088 51.5324L33.7678 51.5515L33.8271 51.57L37.6104 39.4373ZM34.7311 37.67L25.0477 45.9009L25.1215 45.9877L25.1968 46.0731L34.7311 37.67ZM33.2815 34.8105L20.978 37.9949L20.9826 38.0127L20.9873 38.0304L33.2815 34.8105ZM46.4073 13.5232L41.4594 25.2293L41.5318 25.2599L41.6047 25.2897L46.4073 13.5232ZM50.8356 18.2692L38.5828 21.6431L38.6054 21.7254L38.6291 21.8073L50.8356 18.2692ZM42.9918 17.9117L31.2223 22.7067L31.2543 22.7854L31.2874 22.8636L42.9918 17.9117ZM41.1053 17.9117L52.6445 23.2375L52.6822 23.1556L52.7188 23.0733L41.1053 17.9117ZM41.1053 34.7907L29.3622 39.6499L29.3927 39.7236L29.4241 39.7969L41.1053 34.7907ZM42.972 34.8304L31.4328 29.5046L31.3472 29.6902L31.2675 29.8785L42.972 34.8304ZM51.2327 22.4393H38.5239V28.893H51.2327H63.9415V22.4393H51.2327ZM51.2327 28.893H38.5239C38.5239 29.883 38.4984 30.6076 38.4642 31.1081C38.4266 31.6573 38.3929 31.7122 38.4485 31.4526L50.8753 34.1155L63.302 36.7784C63.8373 34.2801 63.9415 31.4124 63.9415 28.893H51.2327ZM50.8753 34.1155L38.4551 31.422C38.68 30.3852 39.1292 29.6365 39.4621 29.2247L49.3462 37.2133L59.2304 45.2019C61.1254 42.8572 62.594 40.0434 63.2954 36.809L50.8753 34.1155ZM49.3462 37.2133L39.5162 29.1581C40.247 28.2663 41.1379 27.7122 41.8515 27.4437L46.3279 39.338L50.8043 51.2324C53.9802 50.0372 56.8833 48.0666 59.1762 45.2684L49.3462 37.2133ZM46.3279 39.338L41.9224 27.4172C42.1577 27.3303 42.3108 27.3021 42.3495 27.2959C42.3857 27.2901 42.3158 27.3044 42.1181 27.3044V40.0132V52.722C44.8853 52.722 47.8295 52.3321 50.7334 51.2589L46.3279 39.338ZM42.1181 40.0132V27.3044C41.6811 27.3044 41.4073 27.2802 41.2712 27.2629C41.1329 27.2452 41.1904 27.2413 41.3937 27.3047L37.6104 39.4373L33.8271 51.57C36.6458 52.4489 39.5063 52.722 42.1181 52.722V40.0132ZM37.6104 39.4373L41.5121 27.3422C41.9326 27.4779 43.1159 27.9627 44.2654 29.2669L34.7311 37.67L25.1968 46.0731C27.723 48.9394 30.8259 50.6025 33.7088 51.5324L37.6104 39.4373ZM34.7311 37.67L44.4144 29.4391C45.0968 30.2419 45.4339 31.0494 45.5756 31.5906L33.2815 34.8105L20.9873 38.0304C21.7115 40.7957 23.015 43.5095 25.0477 45.9009L34.7311 37.67ZM33.2815 34.8105L45.5849 31.6261C45.6761 31.9785 45.6517 32.03 45.6153 31.609C45.5823 31.2282 45.5534 30.6292 45.5534 29.7667H32.8446H20.1358C20.1358 32.2826 20.2727 35.2696 20.978 37.9949L33.2815 34.8105ZM32.8446 29.7667H45.5534V23.0151H32.8446H20.1358V29.7667H32.8446ZM32.8446 23.0151H45.5534C45.5534 22.2269 45.5974 21.7362 45.632 21.486C45.6694 21.2159 45.6737 21.3886 45.5006 21.8385L33.6389 17.2763L21.7772 12.7141C20.4382 16.1954 20.1358 19.898 20.1358 23.0151H32.8446ZM33.6389 17.2763L45.5006 21.8385C45.2461 22.5004 44.8646 23.147 44.3757 23.7139C43.8955 24.2708 43.4202 24.6258 43.0831 24.8301L36.4984 13.9601L29.9137 3.0901C26.3609 5.24229 23.4118 8.46405 21.7772 12.7141L33.6389 17.2763ZM36.4984 13.9601L43.0831 24.8301C41.9185 25.5355 41.2083 25.4179 41.7805 25.4179V12.7091V0.000213005C38.0635 0.000213005 33.8319 0.716583 29.9137 3.0901L36.4984 13.9601ZM41.7805 12.7091V25.4179C42.0494 25.4179 42.1394 25.4387 42.085 25.4291C42.0271 25.4189 41.7994 25.373 41.4594 25.2293L46.4073 13.5232L51.3553 1.81712C48.1212 0.450158 44.8069 0.000213005 41.7805 0.000213005V12.7091ZM46.4073 13.5232L41.6047 25.2897C41.4394 25.2222 40.5054 24.8035 39.5562 23.6395L49.4058 15.6083L59.2554 7.57705C56.903 4.69202 53.9699 2.88328 51.2099 1.75676L46.4073 13.5232ZM49.4058 15.6083L39.5562 23.6395C39.3316 23.364 38.8737 22.6996 38.5828 21.6431L50.8356 18.2692L63.0883 14.8952C62.2944 12.0119 60.8833 9.57352 59.2554 7.57705L49.4058 15.6083ZM50.8356 18.2692L38.6291 21.8073C38.5383 21.4938 38.4984 21.2795 38.4853 21.2029C38.4711 21.1207 38.4735 21.1145 38.4818 21.2017C38.4997 21.3889 38.5239 21.7837 38.5239 22.4393H51.2327H63.9415C63.9415 20.2925 63.824 17.429 63.042 14.7311L50.8356 18.2692ZM43.2102 20.4535H55.9191C55.9191 19.5991 55.8979 18.6486 55.8178 17.7172C55.7752 17.2216 55.6211 15.1459 54.6962 12.9599L42.9918 17.9117L31.2874 22.8636C31.0267 22.2475 30.8691 21.7295 30.777 21.39C30.6814 21.0373 30.6224 20.7495 30.5869 20.556C30.5186 20.1836 30.4973 19.9379 30.4935 19.8935C30.4862 19.8093 30.5014 19.9575 30.5014 20.4535H43.2102ZM42.9918 17.9117L54.7614 13.1167C53.7063 10.527 51.7829 8.09995 48.9799 6.48971C46.3666 4.98847 43.8125 4.66674 42.0585 4.66674V17.3756V30.0844C40.7811 30.0844 38.6209 29.8521 36.3187 28.5295C33.8268 27.098 32.1317 24.939 31.2223 22.7067L42.9918 17.9117ZM42.0585 17.3756V4.66674C40.2892 4.66674 37.7902 4.99397 35.2321 6.4329C32.5107 7.96368 30.5961 10.2656 29.4919 12.7502L41.1053 17.9117L52.7188 23.0733C51.7734 25.2004 50.0971 27.2343 47.6934 28.5863C45.453 29.8466 43.3513 30.0844 42.0585 30.0844V17.3756ZM41.1053 17.9117L29.5662 12.586C28.5022 14.8914 28.3221 17.0984 28.2733 17.6191C28.1817 18.5959 28.1582 19.5827 28.1582 20.4535H40.8671H53.5759C53.5759 19.974 53.5921 19.862 53.58 19.9916C53.5736 20.0593 53.5462 20.3414 53.4631 20.7566C53.42 20.9722 53.3494 21.287 53.2364 21.669C53.1272 22.0383 52.9436 22.5894 52.6445 23.2375L41.1053 17.9117ZM40.8671 20.4535H28.1582V32.3482H40.8671H53.5759V20.4535H40.8671ZM40.8671 32.3482H28.1582C28.1582 33.1941 28.1833 34.1566 28.2778 35.1261C28.3454 35.8189 28.5383 37.659 29.3622 39.6499L41.1053 34.7907L52.8485 29.9314C53.2367 30.8696 53.4015 31.6197 53.4658 31.9429C53.54 32.3159 53.5672 32.574 53.5754 32.6581C53.5906 32.8134 53.5759 32.7466 53.5759 32.3482H40.8671ZM41.1053 34.7907L29.4241 39.7969C30.4353 42.1564 32.2307 44.5038 34.9534 46.1259C37.5543 47.6754 40.1464 48.0555 42.0387 48.0555V35.3467V22.6378C43.4676 22.6378 45.6724 22.9253 47.9623 24.2895C50.3739 25.7262 51.9343 27.7956 52.7866 29.7844L41.1053 34.7907ZM42.0387 35.3467V48.0555C43.7244 48.0555 46.2097 47.7608 48.7813 46.3383C51.5595 44.8014 53.5562 42.4299 54.6764 39.7823L42.972 34.8304L31.2675 29.8785C32.2421 27.575 34.0105 25.4617 36.4776 24.0969C38.738 22.8465 40.8295 22.6378 42.0387 22.6378V35.3467ZM42.972 34.8304L54.5111 40.1561C55.492 38.0308 55.7139 36.0542 55.7872 35.3701C55.8931 34.3814 55.9191 33.4191 55.9191 32.6063H43.2102H30.5014C30.5014 32.932 30.4877 32.9097 30.5142 32.6623C30.5282 32.5315 30.5664 32.2125 30.6629 31.7729C30.7478 31.3863 30.9555 30.5389 31.4328 29.5046L42.972 34.8304ZM43.2102 32.6063H55.9191V20.4535H43.2102H30.5014V32.6063H43.2102ZM68.1116 25.4179L64.2063 13.324L26.3358 25.553L64.2846 37.5368L68.1116 25.4179ZM71.3881 34.6914L83.4644 38.6508L83.4739 38.6219L83.4832 38.593L71.3881 34.6914ZM69.8392 37.1736L60.4222 28.6393L60.4152 28.647L69.8392 37.1736ZM55.5617 37.6502L46.6692 46.7298L55.5617 37.6502ZM53.6355 28.8731V16.1643H40.9266V28.8731H53.6355ZM61.2409 28.8731H73.9498V16.1643H61.2409V28.8731ZM63.743 34.0162L53.2809 26.801L53.2537 26.8405L53.2267 26.8802L63.743 34.0162ZM60.1488 27.3441H47.4399V40.0529H60.1488V27.3441ZM60.1488 23.591V10.8822H47.4399V23.591H60.1488ZM62.9685 23.5116L61.0361 10.9505L62.9685 23.5116ZM63.8025 22.9556L53.2933 15.8092L53.2605 15.8575L53.2281 15.906L63.8025 22.9556ZM63.7628 18.6067L53.7546 26.4393L53.8579 26.5714L53.9648 26.7008L63.7628 18.6067ZM61.2409 22.0421V34.7509H73.9498V22.0421H61.2409ZM53.6355 22.0421H40.9266V34.7509H53.6355V22.0421ZM55.6609 14.953L63.9628 24.5755L63.9701 24.5692L55.6609 14.953ZM70.7328 23.6506L81.5308 30.3527L81.5563 30.3115L81.5816 30.2702L70.7328 23.6506ZM68.1116 25.4179L64.2846 37.5368C63.9392 37.4278 62.3133 36.8411 60.8506 34.9558L70.8917 27.1654L80.9328 19.3749C78.2786 15.954 74.7993 14.2023 71.9387 13.299L68.1116 25.4179ZM70.8917 27.1654L60.8506 34.9558C59.8129 33.6183 59.3952 32.3766 59.2285 31.7061C59.0635 31.0423 59.0764 30.6717 59.0764 30.7596H71.7853H84.4941C84.4941 28.0476 84.0843 23.4369 80.9328 19.3749L70.8917 27.1654ZM71.7853 30.7596H59.0764C59.0764 31.0566 59.0709 31.294 59.0631 31.4777C59.0552 31.6633 59.0459 31.7722 59.0415 31.8156C59.0395 31.8357 59.0394 31.8324 59.0428 31.8082C59.0461 31.7844 59.0538 31.7324 59.0681 31.6559C59.0823 31.5799 59.1048 31.4692 59.1392 31.3293C59.1734 31.1901 59.2228 31.0073 59.293 30.7897L71.3881 34.6914L83.4832 38.593C84.3947 35.7674 84.4941 32.7686 84.4941 30.7596H71.7853ZM71.3881 34.6914L59.3118 30.7319C59.7593 29.367 60.3838 28.6817 60.4222 28.6393L69.8392 37.1736L79.2563 45.7078C80.8304 43.9709 82.4874 41.6308 83.4644 38.6508L71.3881 34.6914ZM69.8392 37.1736L60.4152 28.647C61.5942 27.344 62.8245 26.8742 63.2949 26.7425L66.7216 38.9806L70.1483 51.2188C73.2663 50.3457 76.5751 48.6712 79.2633 45.7001L69.8392 37.1736ZM66.7216 38.9806L63.2949 26.7425C63.2611 26.7519 62.9664 26.8278 62.3132 26.8278V39.5366V52.2455C64.8902 52.2455 67.5345 51.9506 70.1483 51.2188L66.7216 38.9806ZM62.3132 39.5366V26.8278C61.4598 26.8278 61.3151 26.7362 61.6326 26.825C61.9679 26.9186 63.1762 27.319 64.4541 28.5705L55.5617 37.6502L46.6692 46.7298C51.6177 51.5762 58.1685 52.2455 62.3132 52.2455V39.5366ZM55.5617 37.6502L64.4541 28.5705C65.8291 29.9172 66.2575 31.22 66.3515 31.5544C66.4418 31.8757 66.3443 31.7124 66.3443 30.7993H53.6355H40.9266C40.9266 34.9203 41.5615 41.7274 46.6692 46.7298L55.5617 37.6502ZM53.6355 30.7993H66.3443V28.8731H53.6355H40.9266V30.7993H53.6355ZM53.6355 28.8731V41.582H61.2409V28.8731V16.1643H53.6355V28.8731ZM61.2409 28.8731H48.5321V32.5865H61.2409H73.9498V28.8731H61.2409ZM61.2409 32.5865H48.5321C48.5321 34.3413 48.7687 37.9234 51.1769 41.3638C54.1636 45.6304 58.7241 47.2811 62.6309 47.2811V34.5722V21.8634C63.91 21.8634 65.6412 22.095 67.4868 22.9738C69.396 23.883 70.921 25.2464 71.9999 26.7877C73.9449 29.5662 73.9498 32.1555 73.9498 32.5865H61.2409ZM62.6309 34.5722V47.2811C66.8695 47.2811 71.3935 45.3754 74.2592 41.1523L63.743 34.0162L53.2267 26.8802C54.2212 25.4147 55.6755 24.0247 57.5928 23.0661C59.4658 22.1296 61.2598 21.8634 62.6309 21.8634V34.5722ZM63.743 34.0162L74.2051 41.2314C76.1817 38.3653 76.5443 35.3671 76.6382 34.6633C76.809 33.3822 76.849 32.1105 76.849 31.0376H64.1401H51.4313C51.4313 31.5665 51.405 31.5922 51.4435 31.304C51.4635 31.1541 51.528 30.708 51.7058 30.0917C51.855 29.5744 52.2687 28.2686 53.2809 26.801L63.743 34.0162ZM64.1401 31.0376H76.849V29.3695H64.1401H51.4313V31.0376H64.1401ZM64.1401 29.3695H76.849C76.849 25.5807 75.3186 19.9322 69.6098 16.7118L63.3657 27.7809L57.1216 38.8501C55.1505 37.7382 53.5303 36.0322 52.5228 33.9656C51.59 32.052 51.4313 30.3524 51.4313 29.3695H64.1401ZM63.3657 27.7809L69.6098 16.7118C67.2331 15.3711 64.9196 15.0006 63.8844 14.86C62.5753 14.6823 61.2803 14.6352 60.1488 14.6352V27.3441V40.0529C60.6455 40.0529 60.7008 40.0787 60.464 40.0465C60.3347 40.029 59.9891 39.977 59.5044 39.8437C59.0577 39.7209 58.1729 39.4431 57.1216 38.8501L63.3657 27.7809ZM60.1488 27.3441H72.8576V23.591H60.1488H47.4399V27.3441H60.1488ZM60.1488 23.591V36.2998H60.7643V23.591V10.8822H60.1488V23.591ZM60.7643 23.591V36.2998C61.6713 36.2998 63.4189 36.3006 64.901 36.0726L62.9685 23.5116L61.0361 10.9505C61.2406 10.919 61.4001 10.9007 61.4957 10.8907C61.5954 10.8802 61.6675 10.8745 61.7041 10.8718C61.7422 10.869 61.7612 10.868 61.7572 10.8682C61.754 10.8684 61.7361 10.8693 61.7017 10.8705C61.6305 10.8731 61.5172 10.8762 61.3542 10.8785C61.1929 10.8808 60.9973 10.8822 60.7643 10.8822V23.591ZM62.9685 23.5116L64.901 36.0726C69.1344 35.4213 72.399 32.9721 74.3769 30.0052L63.8025 22.9556L53.2281 15.906C53.9209 14.8668 54.9432 13.7201 56.3856 12.7585C57.8526 11.7804 59.4574 11.1934 61.0361 10.9505L62.9685 23.5116ZM63.8025 22.9556L74.3118 30.1019C76.7804 26.4716 76.849 22.6463 76.849 21.3074H64.1401H51.4313C51.4313 21.1246 51.44 20.5526 51.6054 19.7452C51.7605 18.9878 52.1637 17.4704 53.2933 15.8092L63.8025 22.9556ZM64.1401 21.3074H76.849V20.7514H64.1401H51.4313V21.3074H64.1401ZM64.1401 20.7514H76.849C76.849 19.8054 76.8027 18.5352 76.5624 17.1693C76.3893 16.185 75.8271 13.256 73.5609 10.5127L63.7628 18.6067L53.9648 26.7008C52.8487 25.3497 52.2845 24.0672 52.0093 23.3235C51.7198 22.5415 51.5892 21.9142 51.5292 21.5733C51.4146 20.9222 51.4313 20.5721 51.4313 20.7514H64.1401ZM63.7628 18.6067L73.7711 10.7742C70.6368 6.7692 66.2169 5.44119 62.7104 5.44119V18.15V30.8589C61.5616 30.8589 59.9832 30.6697 58.2617 29.9226C56.4722 29.146 54.9255 27.9355 53.7546 26.4393L63.7628 18.6067ZM62.7104 18.15V5.44119C59.6282 5.44119 55.1993 6.46194 51.8814 10.4075C48.9183 13.9312 48.5321 17.8414 48.5321 19.8975H61.2409H73.9498C73.9498 20.7886 73.8085 23.825 71.3351 26.7663C68.5071 30.1294 64.8129 30.8589 62.7104 30.8589V18.15ZM61.2409 19.8975H48.5321V22.0421H61.2409H73.9498V19.8975H61.2409ZM61.2409 22.0421V9.33327H53.6355V22.0421V34.7509H61.2409V22.0421ZM53.6355 22.0421H66.3443V20.8705H53.6355H40.9266V22.0421H53.6355ZM53.6355 20.8705H66.3443C66.3443 20.4432 66.4045 20.7244 66.1658 21.4217C65.8979 22.2045 65.2646 23.4524 63.9628 24.5755L55.6609 14.953L47.3591 5.33037C41.959 9.98926 40.9266 16.4517 40.9266 20.8705H53.6355ZM55.6609 14.953L63.9701 24.5692C62.7987 25.5814 61.7837 25.8757 61.5783 25.9289C61.3773 25.9811 61.6075 25.8945 62.4721 25.8945V13.1856V0.476795C58.3471 0.476795 52.2302 1.12135 47.3518 5.33671L55.6609 14.953ZM62.4721 13.1856V25.8945C63.2574 25.8945 63.5054 25.9717 63.3747 25.9391C63.2343 25.9041 62.4692 25.6931 61.5168 24.9637L69.2435 14.8735L76.9702 4.78332C72.2553 1.17276 66.657 0.476795 62.4721 0.476795V13.1856ZM69.2435 14.8735L61.5168 24.9637C60.4618 24.1559 59.6597 23.0826 59.1879 21.9648C58.7539 20.9364 58.7389 20.2096 58.7389 20.0961H71.4477H84.1565C84.1565 14.9708 82.4155 8.95314 76.9702 4.78332L69.2435 14.8735ZM71.4477 20.0961H58.7389C58.7389 20.2949 58.7205 20.1134 58.8096 19.6704C58.8946 19.2479 59.1459 18.2407 59.8841 17.031L70.7328 23.6506L81.5816 30.2702C83.873 26.5148 84.1565 22.515 84.1565 20.0961H71.4477ZM70.7328 23.6506L59.9349 16.9484C61.6519 14.1822 63.942 13.4093 64.2063 13.324L68.1116 25.4179L72.017 37.5118C74.8231 36.6057 78.8607 34.6546 81.5308 30.3527L70.7328 23.6506ZM97.759 44.6202V57.329H110.468V44.6202H97.759ZM92.3974 44.6202H79.6886V57.329H92.3974V44.6202ZM92.3974 39.5366H105.106V26.8278H92.3974V39.5366ZM78.8943 39.5366V26.8278H66.1854V39.5366H78.8943ZM78.8943 44.6202V57.329H91.6031V44.6202H78.8943ZM73.5327 44.6202H60.8239V57.329H73.5327V44.6202ZM73.5327 33.2418V20.5329H60.8239V33.2418H73.5327ZM75.2405 33.2418V45.9506H82.1544L85.9105 40.1459L75.2405 33.2418ZM77.7426 25.9143L65.2786 23.4315L65.2748 23.4507L65.271 23.4699L77.7426 25.9143ZM78.7354 13.1856V0.476795H66.0266V13.1856H78.7354ZM96.0512 13.1856H108.76V0.476795H96.0512V13.1856ZM96.0512 33.2021H83.3424V45.9109H96.0512V33.2021ZM97.759 33.2021H110.468V20.4932H97.759V33.2021ZM88.0883 33.2021V45.9109H100.797V33.2021H88.0883ZM88.0883 19.123H100.797V6.41421H88.0883V19.123ZM86.0033 19.123V6.41421H73.2945V19.123H86.0033ZM83.6204 33.2021L71.6983 28.8L65.3804 45.9109H83.6204V33.2021ZM97.759 44.6202V31.9113H92.3974V44.6202V57.329H97.759V44.6202ZM92.3974 44.6202H105.106V39.5366H92.3974H79.6886V44.6202H92.3974ZM92.3974 39.5366V26.8278H78.8943V39.5366V52.2455H92.3974V39.5366ZM78.8943 39.5366H66.1854V44.6202H78.8943H91.6031V39.5366H78.8943ZM78.8943 44.6202V31.9113H73.5327V44.6202V57.329H78.8943V44.6202ZM73.5327 44.6202H86.2416V33.2418H73.5327H60.8239V44.6202H73.5327ZM73.5327 33.2418V45.9506H75.2405V33.2418V20.5329H73.5327V33.2418ZM75.2405 33.2418L85.9105 40.1459C88.2497 36.5307 89.4622 32.1949 90.2141 28.3588L77.7426 25.9143L65.271 23.4699C65.0257 24.7215 64.7887 25.5792 64.6035 26.1216C64.4067 26.698 64.3487 26.6805 64.5705 26.3377L75.2405 33.2418ZM77.7426 25.9143L90.2065 28.3972C91.0747 24.0388 91.4443 19.2502 91.4443 14.1587H78.7354H66.0266C66.0266 18.0957 65.7342 21.1442 65.2786 23.4315L77.7426 25.9143ZM78.7354 14.1587H91.4443V13.1856H78.7354H66.0266V14.1587H78.7354ZM78.7354 13.1856V25.8945H96.0512V13.1856V0.476795H78.7354V13.1856ZM96.0512 13.1856H83.3424V33.2021H96.0512H108.76V13.1856H96.0512ZM96.0512 33.2021V45.9109H97.759V33.2021V20.4932H96.0512V33.2021ZM97.759 33.2021H85.0501V44.6202H97.759H110.468V33.2021H97.759ZM88.0883 33.2021H100.797V19.123H88.0883H75.3795V33.2021H88.0883ZM88.0883 19.123V6.41421H86.0033V19.123V31.8319H88.0883V19.123ZM86.0033 19.123H73.2945V19.4011H86.0033H98.7121V19.123H86.0033ZM86.0033 19.4011H73.2945C73.2945 22.8997 72.7321 26.0002 71.6983 28.8L83.6204 33.2021L95.5425 37.6041C97.6859 31.799 98.7121 25.6988 98.7121 19.4011H86.0033ZM83.6204 33.2021V45.9109H88.0883V33.2021V20.4932H83.6204V33.2021ZM106.933 23.3924V36.1013H119.642V23.3924H106.933ZM99.4072 23.3924H86.6983V36.1013H99.4072V23.3924ZM100.102 16.9189L88.4209 11.9126L88.4063 11.9467L88.3919 11.9808L100.102 16.9189ZM114.598 14.1587L107.297 24.5607L107.33 24.5844L107.364 24.6078L114.598 14.1587ZM117.08 17.6933L104.614 20.1631L104.616 20.1744L104.618 20.1857L117.08 17.6933ZM117.497 39.5366V52.2455H130.206V39.5366H117.497ZM109.693 39.5366H96.9845V52.2455H109.693V39.5366ZM109.693 37.1934H122.402L98.4231 31.3202L109.693 37.1934ZM107.787 39.3182L114.353 50.1993L114.38 50.1832L114.407 50.167L107.787 39.3182ZM101.155 38.8416L93.9953 49.342L94.0636 49.3886L94.1325 49.4343L101.155 38.8416ZM100.34 27.4632L90.7541 19.1196L100.34 27.4632ZM104.967 24.9612L109.555 36.813L109.58 36.8033L109.605 36.7936L104.967 24.9612ZM109.157 18.011L97.6499 23.4051L97.7527 23.6245L97.8639 23.8398L109.157 18.011ZM107.132 17.9117L118.993 22.4739L119.022 22.4L119.049 22.3257L107.132 17.9117ZM109.475 27.0065H122.184V1.9546L101.969 16.7513L109.475 27.0065ZM107.231 29.3695L95.1744 25.3507L95.1365 25.4644L95.1007 25.5788L107.231 29.3695ZM107.191 34.7509L95.5303 39.8041L95.6003 39.9657L95.6748 40.1253L107.191 34.7509ZM109.237 34.89L97.8695 29.2064L97.8197 29.3061L97.7716 29.4067L109.237 34.89ZM106.933 23.3924V10.6836H99.4072V23.3924V36.1013H106.933V23.3924ZM99.4072 23.3924H112.116V21.6251H99.4072H86.6983V23.3924H99.4072ZM99.4072 21.6251H112.116C112.116 21.3534 112.124 21.1468 112.133 20.9987C112.138 20.9256 112.143 20.8706 112.147 20.8325C112.151 20.7943 112.153 20.7761 112.153 20.7762C112.153 20.7762 112.15 20.7983 112.142 20.8402C112.133 20.882 112.119 20.948 112.096 21.0353C112.052 21.2043 111.967 21.4898 111.812 21.8569L100.102 16.9189L88.3919 11.9808C86.9607 15.3747 86.6983 18.9242 86.6983 21.6251H99.4072ZM100.102 16.9189L111.783 21.9251C110.882 24.0278 109.526 24.8507 109.465 24.8867L102.942 13.9799L96.4182 3.07321C93.5249 4.80373 90.2752 7.58583 88.4209 11.9126L100.102 16.9189ZM102.942 13.9799L109.465 24.8867C108.884 25.2347 108.426 25.3677 108.235 25.4117C108.057 25.4527 108.107 25.4179 108.462 25.4179V12.7091V0.000213005C104.721 0.000213005 100.408 0.687024 96.4182 3.07321L102.942 13.9799ZM108.462 12.7091V25.4179C109.104 25.4179 109.275 25.4788 109.11 25.4398C108.939 25.3994 108.214 25.2049 107.297 24.5607L114.598 14.1587L121.9 3.75657C117.435 0.622405 112.321 0.000213005 108.462 0.000213005V12.7091ZM114.598 14.1587L107.364 24.6078C107.017 24.3676 106.427 23.8811 105.851 23.0609C105.253 22.2099 104.821 21.2106 104.614 20.1631L117.08 17.6933L129.547 15.2235C128.519 10.0337 125.426 6.19785 121.832 3.70955L114.598 14.1587ZM117.08 17.6933L104.618 20.1857C104.563 19.9106 104.636 20.1958 104.699 21.5046C104.755 22.6612 104.789 24.2462 104.789 26.3115H117.497H130.206C130.206 22.194 130.11 18.0382 129.542 15.2009L117.08 17.6933ZM117.497 26.3115H104.789V39.5366H117.497H130.206V26.3115H117.497ZM117.497 39.5366V26.8278H109.693V39.5366V52.2455H117.497V39.5366ZM109.693 39.5366H122.402V37.1934H109.693H96.9845V39.5366H109.693ZM109.693 37.1934L98.4231 31.3202C98.83 30.5393 99.6794 29.3774 101.167 28.4694L107.787 39.3182L114.407 50.167C117.457 48.3058 119.577 45.7274 120.964 43.0667L109.693 37.1934ZM107.787 39.3182L101.221 28.437C102.791 27.4893 104.241 27.3044 105.027 27.3044V40.0132V52.722C107.958 52.722 111.247 52.0738 114.353 50.1993L107.787 39.3182ZM105.027 40.0132V27.3044C105.521 27.3044 106.091 27.3758 106.687 27.5561C107.282 27.7361 107.784 27.9888 108.177 28.2489L101.155 38.8416L94.1325 49.4343C97.3763 51.5846 101.106 52.722 105.027 52.722V40.0132ZM101.155 38.8416L108.314 28.3412C110.609 29.9057 111.554 31.9042 111.887 32.8898C112.189 33.7862 112.116 34.1837 112.116 33.6588H99.4072H86.6983C86.6983 36.9808 87.2072 44.7138 93.9953 49.342L101.155 38.8416ZM99.4072 33.6588H112.116V31.4943H99.4072H86.6983V33.6588H99.4072ZM99.4072 31.4943H112.116C112.116 31.0976 112.155 31.2994 112.022 31.8738C111.907 32.3702 111.462 34.0429 109.927 35.8069L100.34 27.4632L90.7541 19.1196C86.842 23.6144 86.6983 29.2224 86.6983 31.4943H99.4072ZM100.34 27.4632L109.927 35.8069C109.56 36.2278 109.227 36.5428 108.979 36.7597C108.728 36.9792 108.518 37.1378 108.375 37.2399C108.103 37.4347 107.954 37.5105 108.009 37.4805C108.052 37.4574 108.197 37.3823 108.472 37.2593C108.743 37.1383 109.1 36.9892 109.555 36.813L104.967 24.9612L100.379 13.1093C98.8715 13.693 97.3324 14.358 95.9185 15.1226C94.7468 15.7562 92.5857 17.0151 90.7541 19.1196L100.34 27.4632ZM104.967 24.9612L109.605 36.7936C111.038 36.2321 112.437 35.6478 113.62 35.0645C114.187 34.7849 114.995 34.3648 115.827 33.8156C116.243 33.5409 116.879 33.0952 117.567 32.4771C118.131 31.9693 119.444 30.7225 120.479 28.7262L109.197 22.8761L97.9146 17.026C98.4488 15.9959 99.0284 15.2312 99.4491 14.7343C99.8817 14.2235 100.281 13.8376 100.574 13.5748C101.138 13.0672 101.613 12.7425 101.83 12.5994C102.263 12.3133 102.519 12.1985 102.381 12.2664C102.155 12.3781 101.531 12.6577 100.329 13.1288L104.967 24.9612ZM109.197 22.8761L120.479 28.7262C121.61 26.5458 121.906 24.5006 122.013 23.6665C122.151 22.579 122.184 21.5421 122.184 20.6918H109.475H96.7661C96.7661 20.9402 96.7525 20.8169 96.7983 20.4574C96.8225 20.2676 96.8785 19.8874 97.007 19.3856C97.1261 18.9206 97.3817 18.0539 97.9146 17.026L109.197 22.8761ZM109.475 20.6918H122.184C122.184 19.7355 122.15 18.6231 122.016 17.4932C121.921 16.6892 121.641 14.4879 120.451 12.1822L109.157 18.011L97.8639 23.8398C97.2984 22.7442 97.0501 21.8346 96.9486 21.418C96.834 20.9477 96.79 20.6111 96.775 20.4848C96.747 20.2485 96.7661 20.2713 96.7661 20.6918H109.475ZM109.157 18.011L120.665 12.617C119.713 10.587 118.084 8.38417 115.51 6.76924C112.951 5.16362 110.3 4.66674 108.144 4.66674V17.3756V30.0844C106.466 30.0844 104.222 29.6935 102 28.2996C99.7643 26.8965 98.4029 25.0114 97.6499 23.4051L109.157 18.011ZM108.144 17.3756V4.66674C106.619 4.66674 104.147 4.89659 101.538 6.2777C98.6148 7.8252 96.3677 10.3829 95.214 13.4978L107.132 17.9117L119.049 22.3257C118.028 25.0831 116.016 27.3728 113.431 28.7415C111.159 29.9439 109.127 30.0844 108.144 30.0844V17.3756ZM107.132 17.9117L95.27 13.3495C94.452 15.4764 94.3372 17.5203 94.3077 17.9248C94.2428 18.8142 94.2243 19.7515 94.2243 20.6322H106.933H119.642C119.642 20.3566 119.645 20.145 119.649 19.9895C119.654 19.8289 119.659 19.7644 119.658 19.7752C119.657 19.7833 119.654 19.8273 119.646 19.9008C119.638 19.9719 119.623 20.0985 119.597 20.2677C119.571 20.4306 119.525 20.692 119.446 21.0203C119.372 21.3301 119.235 21.8465 118.993 22.4739L107.132 17.9117ZM106.933 20.6322H94.2243V23.3924H106.933H119.642V20.6322H106.933ZM109.475 27.0065L101.969 16.7513C100.968 17.4839 99.8127 18.4162 98.735 19.551C97.7832 20.5534 96.124 22.5017 95.1744 25.3507L107.231 29.3695L119.288 33.3884C118.891 34.5793 118.38 35.4466 118.027 35.9705C117.666 36.5062 117.344 36.8669 117.167 37.0534C116.837 37.4006 116.698 37.469 116.981 37.2617L109.475 27.0065ZM107.231 29.3695L95.1007 25.5788C94.3292 28.0475 94.2243 30.4773 94.2243 32.1099H106.933H119.642C119.642 31.8465 119.654 31.7947 119.642 31.9045C119.635 31.9658 119.619 32.102 119.581 32.2983C119.544 32.4915 119.478 32.7884 119.361 33.1603L107.231 29.3695ZM106.933 32.1099H94.2243C94.2243 33.0095 94.2506 34.0214 94.3491 35.0291C94.4157 35.7103 94.6147 37.6912 95.5303 39.8041L107.191 34.7509L118.852 29.6978C119.087 30.2398 119.239 30.7024 119.334 31.0314C119.432 31.3677 119.495 31.6467 119.535 31.8453C119.613 32.2279 119.639 32.4871 119.646 32.5565C119.659 32.6839 119.642 32.5738 119.642 32.1099H106.933ZM107.191 34.7509L95.6748 40.1253C96.814 42.5664 98.7343 44.8117 101.426 46.3073C103.97 47.7203 106.459 48.0555 108.264 48.0555V35.3467V22.6378C109.538 22.6378 111.584 22.8738 113.77 24.0882C116.105 25.3853 117.754 27.3326 118.708 29.3766L107.191 34.7509ZM108.264 35.3467V48.0555C110.952 48.0555 117.484 47.1002 120.702 40.3733L109.237 34.89L97.7716 29.4067C99.0463 26.7414 101.166 24.8159 103.484 23.728C105.551 22.7579 107.353 22.6378 108.264 22.6378V35.3467ZM109.237 34.89L120.604 40.5735C121.836 38.1095 122.022 35.7084 122.065 35.2602C122.16 34.2756 122.184 33.2859 122.184 32.4276H109.475H96.7661C96.7661 32.8932 96.7498 32.9758 96.7656 32.8119C96.7737 32.7282 96.8059 32.4112 96.9016 31.9538C96.9513 31.7163 97.0332 31.3678 97.1654 30.9462C97.2927 30.5401 97.5103 29.9248 97.8695 29.2064L109.237 34.89ZM109.475 32.4276H122.184V27.0065H109.475H96.7661V32.4276H109.475ZM136.144 13.1856H148.852V0.476795H136.144V13.1856ZM136.144 18.706V31.4149H148.852V18.706H136.144ZM131.557 18.706V5.9972H118.848V18.706H131.557ZM131.557 39.5366V52.2455H144.265V39.5366H131.557ZM123.554 39.5366H110.845V52.2455H123.554V39.5366ZM123.554 18.706H136.263V5.9972H123.554V18.706ZM118.947 18.706H106.238V31.4149H118.947V18.706ZM118.947 13.1856V0.476795H106.238V13.1856H118.947ZM136.144 13.1856H123.435V18.706H136.144H148.852V13.1856H136.144ZM136.144 18.706V5.9972H131.557V18.706V31.4149H136.144V18.706ZM131.557 18.706H118.848V39.5366H131.557H144.265V18.706H131.557ZM131.557 39.5366V26.8278H123.554V39.5366V52.2455H131.557V39.5366ZM123.554 39.5366H136.263V18.706H123.554H110.845V39.5366H123.554ZM123.554 18.706V5.9972H118.947V18.706V31.4149H123.554V18.706ZM118.947 18.706H131.656V13.1856H118.947H106.238V18.706H118.947ZM118.947 13.1856V25.8945H136.144V13.1856V0.476795H118.947V13.1856ZM155.584 37.1934L144.422 31.1177L144.392 31.1725L144.363 31.2275L155.584 37.1934ZM152.943 39.1593L155.541 51.5999L155.606 51.5862L155.671 51.5719L152.943 39.1593ZM137.772 39.5366H125.063V52.2455H137.772V39.5366ZM137.772 13.1856V0.476795H125.063V13.1856H137.772ZM145.735 13.1856H158.444V0.476795H145.735V13.1856ZM145.735 21.9627H133.026V34.6715H145.735V21.9627ZM148.038 27.5029L138.635 36.0518L138.739 36.1662L138.845 36.2781L148.038 27.5029ZM145.735 27.0065L146.132 14.3039L133.026 13.8943V27.0065H145.735ZM145.735 33.9964H133.026V46.7052H145.735V33.9964ZM147.879 33.5992L155.266 43.9408L155.3 43.9168L155.333 43.8926L147.879 33.5992ZM156.438 32.0106H143.729C143.729 32.3672 143.719 32.6326 143.706 32.8175C143.693 33.0052 143.68 33.075 143.685 33.0474C143.689 33.0246 143.719 32.8416 143.812 32.5417C143.902 32.2474 144.083 31.7406 144.422 31.1177L155.584 37.1934L166.747 43.2692C168.927 39.2634 169.147 34.7881 169.147 32.0106H156.438ZM155.584 37.1934L144.363 31.2275C144.897 30.2233 145.732 29.1575 146.918 28.2747C148.092 27.401 149.277 26.9529 150.215 26.7467L152.943 39.1593L155.671 51.5719C160.343 50.5452 164.419 47.6481 166.806 43.1593L155.584 37.1934ZM152.943 39.1593L150.346 26.7188C150.574 26.6711 150.447 26.715 149.754 26.7594C149.121 26.7999 148.233 26.8278 147.045 26.8278V39.5366V52.2455C149.855 52.2455 152.954 52.14 155.541 51.5999L152.943 39.1593ZM147.045 39.5366V26.8278H137.772V39.5366V52.2455H147.045V39.5366ZM137.772 39.5366H150.481V13.1856H137.772H125.063V39.5366H137.772ZM137.772 13.1856V25.8945H145.735V13.1856V0.476795H137.772V13.1856ZM145.735 13.1856H133.026V21.9627H145.735H158.444V13.1856H145.735ZM145.735 21.9627V34.6715H147.045V21.9627V9.25384H145.735V21.9627ZM147.045 21.9627V34.6715C148.09 34.6715 148.853 34.7033 149.38 34.7454C149.949 34.7909 150.023 34.8317 149.774 34.7714L152.764 22.4194L155.755 10.0674C152.976 9.39469 149.832 9.25384 147.045 9.25384V21.9627ZM152.764 22.4194L149.774 34.7714C149.013 34.5873 148.004 34.2041 146.967 33.4558C145.91 32.6933 145.097 31.747 144.536 30.7759L155.544 24.425L166.553 18.0741C164.06 13.7534 160.073 11.1128 155.755 10.0674L152.764 22.4194ZM155.544 24.425L144.536 30.7759C144.194 30.1823 143.996 29.6807 143.885 29.3492C143.773 29.0159 143.727 28.7874 143.712 28.7035C143.686 28.5627 143.729 28.7315 143.729 29.3298H156.438H169.147C169.147 26.507 168.867 22.0858 166.553 18.0741L155.544 24.425ZM156.438 29.3298H143.729V32.0106H156.438H169.147V29.3298H156.438ZM148.455 31.0376H161.164V29.9851H148.455H135.746V31.0376H148.455ZM148.455 29.9851H161.164C161.164 28.9758 161.12 27.6392 160.884 26.2363C160.764 25.519 160.209 21.8468 157.231 18.7278L148.038 27.5029L138.845 36.2781C137.295 34.6537 136.598 33.0259 136.312 32.2611C135.995 31.4096 135.868 30.7437 135.818 30.4475C135.721 29.872 135.746 29.6309 135.746 29.9851H148.455ZM148.038 27.5029L157.442 18.954C154.468 15.6826 150.767 14.9148 149.941 14.7368C148.493 14.4246 147.127 14.3349 146.132 14.3039L145.735 27.0065L145.338 39.7091C145.614 39.7178 145.267 39.7307 144.586 39.584C144.234 39.508 143.507 39.3299 142.605 38.9308C141.764 38.559 140.159 37.7292 138.635 36.0518L148.038 27.5029ZM145.735 27.0065H133.026V33.9964H145.735H158.444V27.0065H145.735ZM145.735 33.9964V46.7052C146.723 46.7052 148 46.6489 149.379 46.3934C150.596 46.1681 152.931 45.6088 155.266 43.9408L147.879 33.5992L140.493 23.2576C141.541 22.509 142.505 22.0811 143.17 21.8378C143.846 21.5905 144.401 21.4656 144.751 21.4007C145.112 21.334 145.379 21.3084 145.519 21.2979C145.594 21.2923 145.65 21.2898 145.684 21.2887C145.701 21.2881 145.714 21.2878 145.722 21.2877C145.727 21.2876 145.73 21.2876 145.732 21.2875C145.733 21.2875 145.734 21.2875 145.734 21.2875C145.734 21.2875 145.735 21.2875 145.735 21.2875C145.735 21.2875 145.735 21.2875 145.735 21.2875C145.734 21.2875 145.735 21.2875 145.735 21.2875C145.734 21.2875 145.735 21.2875 145.735 21.2875V33.9964ZM147.879 33.5992L155.333 43.8926C159.429 40.9265 160.445 36.7184 160.711 35.5378C161.1 33.8052 161.164 32.1802 161.164 31.0376H148.455H135.746C135.746 31.3247 135.714 30.8415 135.912 29.9628C136.015 29.5024 136.254 28.6011 136.804 27.5198C137.349 26.4486 138.431 24.7499 140.426 23.3058L147.879 33.5992ZM191.129 39.5366V52.2455H203.838V39.5366H191.129ZM184.259 39.5366H171.55V52.2455H184.259V39.5366ZM184.259 21.367H196.967L171.759 19.0719L184.259 21.367ZM180.922 39.5366V52.2455H191.51L193.422 41.8317L180.922 39.5366ZM176.534 39.5366L164.049 41.9108L166.014 52.2455H176.534V39.5366ZM173.079 21.367L185.564 18.9927L160.37 21.367H173.079ZM173.079 39.5366V52.2455H185.788V39.5366H173.079ZM166.208 39.5366H153.499V52.2455H166.208V39.5366ZM166.208 13.1856V0.476795H153.499V13.1856H166.208ZM176.157 13.1856L188.673 10.9829L186.824 0.476795H176.157V13.1856ZM178.718 27.7412L166.202 29.944L191.268 29.7444L178.718 27.7412ZM181.042 13.1856V0.476795H170.2L168.492 11.1824L181.042 13.1856ZM191.129 13.1856H203.838V0.476795H191.129V13.1856ZM191.129 39.5366V26.8278H184.259V39.5366V52.2455H191.129V39.5366ZM184.259 39.5366H196.967V21.367H184.259H171.55V39.5366H184.259ZM184.259 21.367L171.759 19.0719L168.423 37.2416L180.922 39.5366L193.422 41.8317L196.758 23.662L184.259 21.367ZM180.922 39.5366V26.8278H176.534V39.5366V52.2455H180.922V39.5366ZM176.534 39.5366L189.019 37.1624L185.564 18.9927L173.079 21.367L160.594 23.7412L164.049 41.9108L176.534 39.5366ZM173.079 21.367H160.37V39.5366H173.079H185.788V21.367H173.079ZM173.079 39.5366V26.8278H166.208V39.5366V52.2455H173.079V39.5366ZM166.208 39.5366H178.917V13.1856H166.208H153.499V39.5366H166.208ZM166.208 13.1856V25.8945H176.157V13.1856V0.476795H166.208V13.1856ZM176.157 13.1856L163.64 15.3884L166.202 29.944L178.718 27.7412L191.235 25.5385L188.673 10.9829L176.157 13.1856ZM178.718 27.7412L191.268 29.7444L193.592 15.1888L181.042 13.1856L168.492 11.1824L166.168 25.738L178.718 27.7412ZM181.042 13.1856V25.8945H191.129V13.1856V0.476795H181.042V13.1856ZM191.129 13.1856H178.42V39.5366H191.129H203.838V13.1856H191.129ZM212.178 26.8278V39.5366H224.887V26.8278H212.178ZM201.793 26.8278V14.1189H189.084V26.8278H201.793ZM204.255 34.6715L192.697 29.3877L192.662 29.4645L192.628 29.5417L204.255 34.6715ZM204.573 28.5355V15.8267H191.864V28.5355H204.573ZM212.178 28.5355H224.887V15.8267H212.178V28.5355ZM211.861 34.2347L199.509 31.2404L199.488 31.3291L199.468 31.4181L211.861 34.2347ZM207.551 39.2785L212.525 50.9736L212.557 50.9599L212.59 50.946L207.551 39.2785ZM198.715 39.2785L194.226 51.1681L198.715 39.2785ZM195.677 37.2729L185.901 45.3941L185.969 45.4756L186.038 45.5561L195.677 37.2729ZM194.187 34.4531L181.915 37.757L181.921 37.777L181.926 37.797L194.187 34.4531ZM194.704 16.8394L206.205 22.2453L206.216 22.2233L206.226 22.2013L194.704 16.8394ZM197.762 13.7814L203.403 25.1697L203.445 25.1486L203.488 25.1272L197.762 13.7814ZM208.207 13.9998L201.741 24.9412L201.8 24.9757L201.859 25.0097L208.207 13.9998ZM211.285 17.3954L199.531 22.2288L199.558 22.2954L199.586 22.3617L211.285 17.3954ZM204.136 22.5385V35.2474H216.845V22.5385H204.136ZM201.991 17.8919L213.791 22.6118L213.823 22.5332L213.853 22.4541L201.991 17.8919ZM201.793 22.5385H189.084V35.2474H201.793V22.5385ZM212.178 26.8278V14.1189H201.793V26.8278V39.5366H212.178V26.8278ZM201.793 26.8278H189.084V32.5269H201.793H214.502V26.8278H201.793ZM201.793 32.5269H189.084C189.084 33.3718 189.112 34.3784 189.228 35.4118C189.304 36.0938 189.548 38.242 190.684 40.5139L202.051 34.8304L213.418 29.1468C213.98 30.2714 214.221 31.2047 214.318 31.619C214.428 32.0948 214.471 32.4412 214.487 32.581C214.517 32.8465 214.502 32.8734 214.502 32.5269H201.793ZM202.051 34.8304L190.684 40.5139C193.628 46.4029 199.302 48.0555 203.044 48.0555V35.3467V22.6378C204.224 22.6378 206.169 22.8383 208.291 23.9421C210.584 25.1341 212.346 27.0022 213.418 29.1468L202.051 34.8304ZM203.044 35.3467V48.0555C204.849 48.0555 207.39 47.7282 209.991 46.2788C212.767 44.7311 214.744 42.3821 215.883 39.8013L204.255 34.6715L192.628 29.5417C193.568 27.411 195.243 25.3996 197.616 24.077C199.813 22.8526 201.848 22.6378 203.044 22.6378V35.3467ZM204.255 34.6715L215.813 39.9553C216.729 37.9521 217.002 36.0887 217.113 35.1656C217.246 34.0501 217.282 32.9602 217.282 32.0106H204.573H191.864C191.864 32.3716 191.847 32.3805 191.874 32.152C191.889 32.0281 191.928 31.7374 192.023 31.3338C192.112 30.9575 192.302 30.2512 192.697 29.3877L204.255 34.6715ZM204.573 32.0106H217.282V28.5355H204.573H191.864V32.0106H204.573ZM204.573 28.5355V41.2444H212.178V28.5355V15.8267H204.573V28.5355ZM212.178 28.5355H199.469V30.4816H212.178H224.887V28.5355H212.178ZM212.178 30.4816H199.469C199.469 31.0365 199.451 31.3864 199.435 31.569C199.428 31.6554 199.424 31.6717 199.43 31.6291C199.436 31.5896 199.458 31.4527 199.509 31.2404L211.861 34.2347L224.212 37.2289C224.78 34.8857 224.887 32.4458 224.887 30.4816H212.178ZM211.861 34.2347L199.468 31.4181C199.638 30.6702 199.873 30.1286 200.036 29.8102C200.118 29.648 200.189 29.5301 200.236 29.4566C200.283 29.383 200.312 29.3458 200.312 29.3447L210.431 37.0346L220.549 44.7245C221.999 42.8173 223.528 40.2432 224.253 37.0512L211.861 34.2347ZM210.431 37.0346L200.312 29.3447C200.905 28.5651 201.708 27.9588 202.513 27.611L207.551 39.2785L212.59 50.946C215.725 49.592 218.447 47.4898 220.549 44.7245L210.431 37.0346ZM207.551 39.2785L202.578 27.5833C203.061 27.3779 203.392 27.3137 203.483 27.2983C203.574 27.2829 203.495 27.3044 203.203 27.3044V40.0132V52.722C206.029 52.722 209.309 52.3415 212.525 50.9736L207.551 39.2785ZM203.203 40.0132V27.3044C202.964 27.3044 202.858 27.2869 202.863 27.2876C202.87 27.2889 202.995 27.31 203.204 27.3888L198.715 39.2785L194.226 51.1681C197.237 52.3049 200.304 52.722 203.203 52.722V40.0132ZM198.715 39.2785L203.204 27.3888C203.424 27.472 204.36 27.8776 205.315 28.9897L195.677 37.2729L186.038 45.5561C188.45 48.3626 191.411 50.1053 194.226 51.1681L198.715 39.2785ZM195.677 37.2729L205.452 29.1517C205.828 29.604 206.221 30.2748 206.448 31.1092L194.187 34.4531L181.926 37.797C182.71 40.6701 184.096 43.2207 185.901 45.3941L195.677 37.2729ZM194.187 34.4531L206.459 31.1491C206.518 31.3685 206.541 31.5022 206.544 31.5237C206.548 31.5488 206.54 31.5055 206.529 31.3808C206.505 31.1203 206.479 30.663 206.479 29.9653H193.77H181.061C181.061 32.279 181.2 35.1003 181.915 37.757L194.187 34.4531ZM193.77 29.9653H206.479V22.2804H193.77H181.061V29.9653H193.77ZM193.77 22.2804H206.479C206.479 21.9881 206.489 21.7643 206.501 21.6022C206.514 21.4394 206.527 21.356 206.53 21.3412C206.532 21.3256 206.52 21.4003 206.477 21.5477C206.433 21.6951 206.35 21.9369 206.205 22.2453L194.704 16.8394L183.202 11.4336C181.458 15.1437 181.061 19.0689 181.061 22.2804H193.77ZM194.704 16.8394L206.226 22.2013C205.925 22.8484 205.487 23.4933 204.921 24.0586C204.364 24.6158 203.814 24.9661 203.403 25.1697L197.762 13.7814L192.121 2.39302C188.315 4.27796 185.113 7.32677 183.181 11.4775L194.704 16.8394ZM197.762 13.7814L203.488 25.1272C203.197 25.2738 202.944 25.3522 202.77 25.3904C202.602 25.4272 202.549 25.4179 202.647 25.4179V12.7091V0.000213005C199.135 0.000213005 195.492 0.691458 192.036 2.43552L197.762 13.7814ZM202.647 12.7091V25.4179C203.352 25.4179 202.788 25.5594 201.741 24.9412L208.207 13.9998L214.672 3.05842C210.713 0.719158 206.443 0.000213005 202.647 0.000213005V12.7091ZM208.207 13.9998L201.859 25.0097C201.573 24.8451 201.129 24.5344 200.662 24.0193C200.185 23.493 199.797 22.8769 199.531 22.2288L211.285 17.3954L223.039 12.5621C221.271 8.26472 218.183 5.08186 214.555 2.98993L208.207 13.9998ZM211.285 17.3954L199.586 22.3617C199.467 22.0796 199.41 21.8823 199.388 21.802C199.367 21.7205 199.372 21.7216 199.388 21.8236C199.421 22.0437 199.469 22.5246 199.469 23.3328H212.178H224.887C224.887 20.0711 224.549 16.1172 222.983 12.4292L211.285 17.3954ZM212.178 23.3328H199.469V26.8278H212.178H224.887V23.3328H212.178ZM204.136 22.5385H216.845V20.6124H204.136H191.427V22.5385H204.136ZM204.136 20.6124H216.845C216.845 19.7466 216.823 18.8037 216.747 17.8819C216.695 17.259 216.546 15.4959 215.85 13.5962L203.918 17.9713L191.985 22.3464C191.808 21.8619 191.696 21.4566 191.628 21.1788C191.558 20.8932 191.513 20.6609 191.486 20.5017C191.434 20.1957 191.418 20.002 191.416 19.977C191.412 19.9355 191.427 20.1146 191.427 20.6124H204.136ZM203.918 17.9713L215.85 13.5962C215.022 11.3393 213.414 8.80301 210.634 6.95012C207.919 5.13961 205.113 4.66674 203.024 4.66674V17.3756V30.0844C201.385 30.0844 198.953 29.7108 196.535 28.0989C194.054 26.4446 192.667 24.2061 191.985 22.3464L203.918 17.9713ZM203.024 17.3756V4.66674C200.326 4.66674 193.064 5.70118 190.13 13.3297L201.991 17.8919L213.853 22.4541C212.728 25.3802 210.561 27.6076 208.032 28.8718C205.832 29.9718 203.904 30.0844 203.024 30.0844V17.3756ZM201.991 17.8919L190.191 13.1719C189.304 15.3909 189.193 17.5467 189.167 17.895C189.102 18.7864 189.084 19.7282 189.084 20.6124H201.793H214.502C214.502 20.3325 214.505 20.1178 214.509 19.9602C214.514 19.7973 214.518 19.7329 214.518 19.7454C214.517 19.7544 214.513 19.8007 214.505 19.8775C214.497 19.9516 214.481 20.0842 214.453 20.2612C214.426 20.431 214.376 20.7072 214.292 21.0544C214.212 21.3795 214.061 21.9362 213.791 22.6118L201.991 17.8919ZM201.793 20.6124H189.084V22.5385H201.793H214.502V20.6124H201.793ZM201.793 22.5385V35.2474H204.136V22.5385V9.82971H201.793V22.5385ZM239.741 39.5366V52.2455H252.449V39.5366H239.741ZM232.87 39.5366H220.161V52.2455H232.87V39.5366ZM232.87 21.367H245.579L220.37 19.0719L232.87 21.367ZM229.534 39.5366V52.2455H240.122L242.034 41.8317L229.534 39.5366ZM225.145 39.5366L212.66 41.9108L214.625 52.2455H225.145V39.5366ZM221.69 21.367L234.175 18.9927L208.981 21.367H221.69ZM221.69 39.5366V52.2455H234.399V39.5366H221.69ZM214.819 39.5366H202.11V52.2455H214.819V39.5366ZM214.819 13.1856V0.476795H202.11V13.1856H214.819ZM224.768 13.1856L237.284 10.9829L235.435 0.476795H224.768V13.1856ZM227.33 27.7412L214.813 29.944L239.88 29.7444L227.33 27.7412ZM229.653 13.1856V0.476795H218.812L217.103 11.1824L229.653 13.1856ZM239.741 13.1856H252.449V0.476795H239.741V13.1856ZM239.741 39.5366V26.8278H232.87V39.5366V52.2455H239.741V39.5366ZM232.87 39.5366H245.579V21.367H232.87H220.161V39.5366H232.87ZM232.87 21.367L220.37 19.0719L217.034 37.2416L229.534 39.5366L242.034 41.8317L245.37 23.662L232.87 21.367ZM229.534 39.5366V26.8278H225.145V39.5366V52.2455H229.534V39.5366ZM225.145 39.5366L237.63 37.1624L234.175 18.9927L221.69 21.367L209.205 23.7412L212.66 41.9108L225.145 39.5366ZM221.69 21.367H208.981V39.5366H221.69H234.399V21.367H221.69ZM221.69 39.5366V26.8278H214.819V39.5366V52.2455H221.69V39.5366ZM214.819 39.5366H227.528V13.1856H214.819H202.11V39.5366H214.819ZM214.819 13.1856V25.8945H224.768V13.1856V0.476795H214.819V13.1856ZM224.768 13.1856L212.251 15.3884L214.813 29.944L227.33 27.7412L239.846 25.5385L237.284 10.9829L224.768 13.1856ZM227.33 27.7412L239.88 29.7444L242.203 15.1888L229.653 13.1856L217.103 11.1824L214.78 25.738L227.33 27.7412ZM229.653 13.1856V25.8945H239.741V13.1856V0.476795H229.653V13.1856ZM239.741 13.1856H227.032V39.5366H239.741H252.449V13.1856H239.741Z" fill="#FF00A0" mask="url(#path-1-outside-1_208_662)"/>
</svg>
