<svg width="356" height="166" viewBox="0 0 356 166" fill="none" xmlns="http://www.w3.org/2000/svg">
<mask id="path-1-outside-1_451_3035" maskUnits="userSpaceOnUse" x="-0.931641" y="-0.460938" width="357" height="167" fill="black">
<rect fill="white" x="-0.931641" y="-0.460938" width="357" height="167"/>
<path d="M17.9995 120.965V105.607L72.3692 19.7209H84.4718V42.3288H76.7925L37.9043 103.886V104.869H112.425V120.965H17.9995ZM77.6526 145.539V116.296L77.7754 109.293V19.7209H95.7758V145.539H77.6526ZM177.637 147.628C167.931 147.587 159.637 145.027 152.756 139.949C145.876 134.87 140.613 127.477 136.968 117.771C133.323 108.064 131.5 96.3709 131.5 82.6914C131.5 69.0529 133.323 57.4008 136.968 47.7351C140.654 38.0694 145.937 30.6972 152.818 25.6186C159.74 20.54 168.013 18.0007 177.637 18.0007C187.262 18.0007 195.515 20.5605 202.396 25.68C209.276 30.7586 214.539 38.1308 218.184 47.7965C221.87 57.4213 223.713 69.0529 223.713 82.6914C223.713 96.4118 221.891 108.125 218.246 117.832C214.601 127.498 209.338 134.89 202.457 140.01C195.576 145.089 187.303 147.628 177.637 147.628ZM177.637 131.225C186.156 131.225 192.812 127.068 197.604 118.754C202.437 110.439 204.853 98.4187 204.853 82.6914C204.853 72.2475 203.747 63.4214 201.536 56.2131C199.365 48.9638 196.232 43.4756 192.136 39.7486C188.081 35.9806 183.249 34.0966 177.637 34.0966C169.159 34.0966 162.504 38.2741 157.671 46.6293C152.838 54.9844 150.401 67.0051 150.36 82.6914C150.36 93.1763 151.446 102.043 153.617 109.293C155.828 116.501 158.961 121.969 163.016 125.696C167.071 129.382 171.945 131.225 177.637 131.225ZM242.866 120.965V105.607L297.235 19.7209H309.338V42.3288H301.659L262.771 103.886V104.869H337.291V120.965H242.866ZM302.519 145.539V116.296L302.642 109.293V19.7209H320.642V145.539H302.519Z"/>
</mask>
<path d="M17.9995 120.965H-0.000488281V138.965H17.9995V120.965ZM17.9995 105.607L2.7908 95.9787L-0.000488281 100.388V105.607H17.9995ZM72.3692 19.7209V1.72087H62.4605L57.1605 10.093L72.3692 19.7209ZM84.4718 19.7209H102.472V1.72087H84.4718V19.7209ZM84.4718 42.3288V60.3288H102.472V42.3288H84.4718ZM76.7925 42.3288V24.3288H66.8728L61.5748 32.7152L76.7925 42.3288ZM37.9043 103.886L22.6866 94.2728L19.9043 98.677V103.886H37.9043ZM37.9043 104.869H19.9043V122.869H37.9043V104.869ZM112.425 104.869H130.425V86.8693H112.425V104.869ZM112.425 120.965V138.965H130.425V120.965H112.425ZM77.6526 145.539H59.6526V163.539H77.6526V145.539ZM77.6526 116.296L59.6553 115.98L59.6526 116.138V116.296H77.6526ZM77.7754 109.293L95.7727 109.608L95.7754 109.451V109.293H77.7754ZM77.7754 19.7209V1.72087H59.7754V19.7209H77.7754ZM95.7758 19.7209H113.776V1.72087H95.7758V19.7209ZM95.7758 145.539V163.539H113.776V145.539H95.7758ZM17.9995 120.965H35.9995V105.607H17.9995H-0.000488281V120.965H17.9995ZM17.9995 105.607L33.2082 115.234L87.5779 29.3487L72.3692 19.7209L57.1605 10.093L2.7908 95.9787L17.9995 105.607ZM72.3692 19.7209V37.7209H84.4718V19.7209V1.72087H72.3692V19.7209ZM84.4718 19.7209H66.4718V42.3288H84.4718H102.472V19.7209H84.4718ZM84.4718 42.3288V24.3288H76.7925V42.3288V60.3288H84.4718V42.3288ZM76.7925 42.3288L61.5748 32.7152L22.6866 94.2728L37.9043 103.886L53.1221 113.5L92.0102 51.9424L76.7925 42.3288ZM37.9043 103.886H19.9043V104.869H37.9043H55.9043V103.886H37.9043ZM37.9043 104.869V122.869H112.425V104.869V86.8693H37.9043V104.869ZM112.425 104.869H94.4246V120.965H112.425H130.425V104.869H112.425ZM112.425 120.965V102.965H17.9995V120.965V138.965H112.425V120.965ZM77.6526 145.539H95.6526V116.296H77.6526H59.6526V145.539H77.6526ZM77.6526 116.296L95.6498 116.612L95.7727 109.608L77.7754 109.293L59.7782 108.977L59.6553 115.98L77.6526 116.296ZM77.7754 109.293H95.7754V19.7209H77.7754H59.7754V109.293H77.7754ZM77.7754 19.7209V37.7209H95.7758V19.7209V1.72087H77.7754V19.7209ZM95.7758 19.7209H77.7758V145.539H95.7758H113.776V19.7209H95.7758ZM95.7758 145.539V127.539H77.6526V145.539V163.539H95.7758V145.539ZM177.637 147.628L177.562 165.628L177.6 165.628H177.637V147.628ZM136.968 117.771L153.819 111.443V111.443L136.968 117.771ZM136.968 47.7351L120.149 41.3212L120.137 41.3524L120.126 41.3836L136.968 47.7351ZM152.818 25.6186L142.17 11.106L142.149 11.1211L142.129 11.1363L152.818 25.6186ZM202.396 25.68L191.651 40.1212L191.678 40.1418L191.706 40.1624L202.396 25.68ZM218.184 47.7965L201.342 54.148L201.358 54.1911L201.375 54.2342L218.184 47.7965ZM218.246 117.832L235.088 124.184L235.092 124.172L235.097 124.16L218.246 117.832ZM202.457 140.01L213.146 154.492L213.174 154.472L213.202 154.451L202.457 140.01ZM197.604 118.754L182.042 109.708L182.025 109.736L182.009 109.765L197.604 118.754ZM201.536 56.2131L184.292 61.3764L184.309 61.4347L184.327 61.4929L201.536 56.2131ZM192.136 39.7486L179.883 52.9341L179.952 52.9982L180.021 53.0615L192.136 39.7486ZM157.671 46.6293L142.09 37.6166V37.6166L157.671 46.6293ZM150.36 82.6914L132.361 82.6444L132.36 82.6679V82.6914H150.36ZM153.617 109.293L136.373 114.456L136.39 114.514L136.408 114.572L153.617 109.293ZM163.016 125.696L150.835 138.948L150.871 138.981L150.908 139.015L163.016 125.696ZM177.637 147.628L177.713 129.628C171.29 129.601 166.845 127.975 163.446 125.466L152.756 139.949L142.067 154.431C152.429 162.079 164.572 165.573 177.562 165.628L177.637 147.628ZM152.756 139.949L163.446 125.466C159.909 122.855 156.503 118.591 153.819 111.443L136.968 117.771L120.117 124.099C124.723 136.364 131.843 146.884 142.067 154.431L152.756 139.949ZM136.968 117.771L153.819 111.443C151.133 104.291 149.5 94.8612 149.5 82.6914H131.5H113.5C113.5 97.8805 115.512 111.837 120.117 124.099L136.968 117.771ZM131.5 82.6914H149.5C149.5 70.5666 151.132 61.1877 153.81 54.0866L136.968 47.7351L120.126 41.3836C115.513 53.6139 113.5 67.5392 113.5 82.6914H131.5ZM136.968 47.7351L153.786 54.1489C156.504 47.0232 159.933 42.7389 163.507 40.1009L152.818 25.6186L142.129 11.1363C131.941 18.6555 124.804 29.1155 120.149 41.3212L136.968 47.7351ZM152.818 25.6186L163.466 40.1312C166.93 37.5897 171.357 36.0007 177.637 36.0007V18.0007V0.000701904C164.668 0.000701904 152.549 3.49033 142.17 11.106L152.818 25.6186ZM177.637 18.0007V36.0007C183.887 36.0007 188.252 37.5921 191.651 40.1212L202.396 25.68L213.141 11.2389C202.778 3.5289 190.637 0.000701904 177.637 0.000701904V18.0007ZM202.396 25.68L191.706 40.1624C195.262 42.7867 198.664 47.0473 201.342 54.148L218.184 47.7965L235.027 41.445C230.414 29.2143 223.291 18.7306 213.085 11.1977L202.396 25.68ZM218.184 47.7965L201.375 54.2342C204.065 61.2583 205.713 70.5819 205.713 82.6914H223.713H241.713C241.713 67.5239 239.676 53.5843 234.994 41.3589L218.184 47.7965ZM223.713 82.6914H205.713C205.713 94.9095 204.079 104.357 201.395 111.504L218.246 117.832L235.097 124.16C239.703 111.893 241.713 97.9141 241.713 82.6914H223.713ZM218.246 117.832L201.404 111.481C198.723 118.587 195.308 122.894 191.712 125.569L202.457 140.01L213.202 154.451C223.368 146.887 230.478 136.408 235.088 124.184L218.246 117.832ZM202.457 140.01L191.768 125.528C188.379 128.029 183.979 129.628 177.637 129.628V147.628V165.628C190.627 165.628 202.774 162.148 213.146 154.492L202.457 140.01ZM177.637 131.225V149.225C193.516 149.225 205.683 140.783 213.199 127.742L197.604 118.754L182.009 109.765C180.762 111.928 179.807 112.638 179.482 112.84C179.259 112.98 178.825 113.225 177.637 113.225V131.225ZM197.604 118.754L213.166 127.799C220.308 115.512 222.853 99.7903 222.853 82.6914H204.853H186.853C186.853 97.047 184.565 105.367 182.042 109.708L197.604 118.754ZM204.853 82.6914H222.853C222.853 71.0929 221.639 60.3687 218.744 50.9333L201.536 56.2131L184.327 61.4929C185.856 66.4741 186.853 73.4021 186.853 82.6914H204.853ZM201.536 56.2131L218.779 51.0497C216.001 41.7728 211.494 33.0274 204.251 26.4357L192.136 39.7486L180.021 53.0615C180.969 53.9238 182.728 56.1547 184.292 61.3764L201.536 56.2131ZM192.136 39.7486L204.389 26.563C196.954 19.6538 187.725 16.0966 177.637 16.0966V34.0966V52.0966C178.772 52.0966 179.208 52.3074 179.883 52.9341L192.136 39.7486ZM177.637 34.0966V16.0966C161.733 16.0966 149.606 24.6237 142.09 37.6166L157.671 46.6293L173.252 55.6419C174.532 53.429 175.515 52.6899 175.857 52.4752C176.091 52.3286 176.506 52.0966 177.637 52.0966V34.0966ZM157.671 46.6293L142.09 37.6166C134.985 49.8994 132.405 65.5731 132.361 82.6444L150.36 82.6914L168.36 82.7384C168.398 68.4371 170.691 60.0694 173.252 55.6419L157.671 46.6293ZM150.36 82.6914H132.36C132.36 94.3044 133.549 105.026 136.373 114.456L153.617 109.293L170.86 104.129C169.342 99.0608 168.36 92.0481 168.36 82.6914H150.36ZM153.617 109.293L136.408 114.572C139.226 123.756 143.713 132.402 150.835 138.948L163.016 125.696L175.197 112.444C174.209 111.536 172.43 109.246 170.825 104.013L153.617 109.293ZM163.016 125.696L150.908 139.015C158.415 145.839 167.658 149.225 177.637 149.225V131.225V113.225C176.231 113.225 175.726 112.924 175.124 112.377L163.016 125.696ZM242.866 120.965H224.866V138.965H242.866V120.965ZM242.866 105.607L227.657 95.9787L224.866 100.388V105.607H242.866ZM297.235 19.7209V1.72087H287.327L282.027 10.093L297.235 19.7209ZM309.338 19.7209H327.338V1.72087H309.338V19.7209ZM309.338 42.3288V60.3288H327.338V42.3288H309.338ZM301.659 42.3288V24.3288H291.739L286.441 32.7152L301.659 42.3288ZM262.771 103.886L247.553 94.2728L244.771 98.677V103.886H262.771ZM262.771 104.869H244.771V122.869H262.771V104.869ZM337.291 104.869H355.291V86.8693H337.291V104.869ZM337.291 120.965V138.965H355.291V120.965H337.291ZM302.519 145.539H284.519V163.539H302.519V145.539ZM302.519 116.296L284.522 115.98L284.519 116.138V116.296H302.519ZM302.642 109.293L320.639 109.608L320.642 109.451V109.293H302.642ZM302.642 19.7209V1.72087H284.642V19.7209H302.642ZM320.642 19.7209H338.642V1.72087H320.642V19.7209ZM320.642 145.539V163.539H338.642V145.539H320.642ZM242.866 120.965H260.866V105.607H242.866H224.866V120.965H242.866ZM242.866 105.607L258.074 115.234L312.444 29.3487L297.235 19.7209L282.027 10.093L227.657 95.9787L242.866 105.607ZM297.235 19.7209V37.7209H309.338V19.7209V1.72087H297.235V19.7209ZM309.338 19.7209H291.338V42.3288H309.338H327.338V19.7209H309.338ZM309.338 42.3288V24.3288H301.659V42.3288V60.3288H309.338V42.3288ZM301.659 42.3288L286.441 32.7152L247.553 94.2728L262.771 103.886L277.988 113.5L316.876 51.9424L301.659 42.3288ZM262.771 103.886H244.771V104.869H262.771H280.771V103.886H262.771ZM262.771 104.869V122.869H337.291V104.869V86.8693H262.771V104.869ZM337.291 104.869H319.291V120.965H337.291H355.291V104.869H337.291ZM337.291 120.965V102.965H242.866V120.965V138.965H337.291V120.965ZM302.519 145.539H320.519V116.296H302.519H284.519V145.539H302.519ZM302.519 116.296L320.516 116.612L320.639 109.608L302.642 109.293L284.644 108.977L284.522 115.98L302.519 116.296ZM302.642 109.293H320.642V19.7209H302.642H284.642V109.293H302.642ZM302.642 19.7209V37.7209H320.642V19.7209V1.72087H302.642V19.7209ZM320.642 19.7209H302.642V145.539H320.642H338.642V19.7209H320.642ZM320.642 145.539V127.539H302.519V145.539V163.539H320.642V145.539Z" fill="black" mask="url(#path-1-outside-1_451_3035)"/>
</svg>
