<svg width="143" height="53" viewBox="0 0 143 53" fill="none" xmlns="http://www.w3.org/2000/svg">
<mask id="path-1-outside-1_208_658" maskUnits="userSpaceOnUse" x="-0.482422" y="-0.463379" width="143" height="54" fill="black">
<rect fill="white" x="-0.482422" y="-0.463379" width="143" height="54"/>
<path d="M30.6801 23.1343H23.1144V20.0961C23.1144 19.037 23.0283 18.3221 22.8562 17.9515C22.6841 17.5675 22.3664 17.3756 21.9031 17.3756C21.4397 17.3756 21.1286 17.5411 20.9698 17.872C20.8109 18.203 20.7315 18.9443 20.7315 20.0961V32.5269C20.7315 33.4668 20.8506 34.1751 21.0889 34.6517C21.3272 35.115 21.678 35.3467 22.1414 35.3467C22.6841 35.3467 23.0482 35.1018 23.2335 34.6119C23.4321 34.1221 23.5314 33.1954 23.5314 31.8319V28.6944H30.6801C30.6669 30.7993 30.5875 32.3813 30.4418 33.4403C30.3095 34.4862 29.866 35.5651 29.1114 36.6771C28.37 37.7759 27.397 38.6099 26.1923 39.1792C24.9876 39.7352 23.4983 40.0132 21.7244 40.0132C19.4606 40.0132 17.6668 39.6293 16.343 38.8615C15.0191 38.0804 14.0792 36.9949 13.5232 35.6048C12.9804 34.2016 12.709 32.2158 12.709 29.6476V22.1613C12.709 19.924 12.9341 18.2361 13.3842 17.0976C13.8343 15.9591 14.7941 14.9463 16.2635 14.0594C17.733 13.1592 19.5202 12.7091 21.6251 12.7091C23.7167 12.7091 25.5039 13.1525 26.9866 14.0395C28.4693 14.9265 29.4556 16.0451 29.9454 17.3954C30.4352 18.7458 30.6801 20.6587 30.6801 23.1343ZM48.9689 13.1856V18.706H44.3818V39.5366H36.3792V18.706H31.7723V13.1856H48.9689ZM57.7658 23.3924H50.2398V21.6251C50.2398 19.5864 50.4715 18.0176 50.9348 16.9189C51.4114 15.8068 52.358 14.8272 53.7745 13.9799C55.191 13.1327 57.0311 12.7091 59.2949 12.7091C62.0087 12.7091 64.0541 13.1923 65.4309 14.1587C66.8077 15.1118 67.6351 16.29 67.9131 17.6933C68.1911 19.0833 68.3301 21.9561 68.3301 26.3115V39.5366H60.526V37.1934C60.0362 38.1334 59.4008 38.8416 58.6197 39.3182C57.8519 39.7815 56.9318 40.0132 55.8595 40.0132C54.4562 40.0132 53.1655 39.6227 51.9873 38.8416C50.8223 38.0473 50.2398 36.3197 50.2398 33.6588V31.4943C50.2398 29.5218 50.5509 28.1781 51.1731 27.4632C51.7953 26.7484 53.3376 25.9143 55.7999 24.9612C58.4344 23.9286 59.8443 23.2336 60.0296 22.8761C60.2149 22.5187 60.3076 21.7906 60.3076 20.6918C60.3076 19.315 60.2017 18.4214 59.9899 18.011C59.7913 17.5874 59.4537 17.3756 58.9772 17.3756C58.4344 17.3756 58.0968 17.5543 57.9644 17.9117C57.832 18.2559 57.7658 19.1628 57.7658 20.6322V23.3924ZM60.3076 27.0065C59.0235 27.9464 58.2755 28.7341 58.0637 29.3695C57.8651 30.005 57.7658 30.9184 57.7658 32.1099C57.7658 33.4734 57.8519 34.3538 58.024 34.7509C58.2093 35.1481 58.5668 35.3467 59.0963 35.3467C59.5994 35.3467 59.9237 35.1944 60.0693 34.89C60.2282 34.5722 60.3076 33.7515 60.3076 32.4276V27.0065ZM86.9763 13.1856V18.706H82.3892V39.5366H74.3866V18.706H69.7797V13.1856H86.9763ZM107.271 32.0106C107.271 34.42 106.986 36.1476 106.417 37.1934C105.861 38.2393 104.981 38.8946 103.776 39.1593C102.571 39.4109 100.605 39.5366 97.8781 39.5366H88.6046V13.1856H96.5675V21.9627H97.8781C100.433 21.9627 102.339 22.1149 103.597 22.4194C104.855 22.7239 105.781 23.3924 106.377 24.425C106.973 25.4576 107.271 27.0925 107.271 29.3298V32.0106ZM99.288 31.0376V29.9851C99.288 28.6216 99.149 27.7942 98.871 27.5029C98.6062 27.2117 97.8384 27.0462 96.5675 27.0065V33.9964C97.6266 33.9964 98.3415 33.864 98.7121 33.5992C99.0961 33.3212 99.288 32.4673 99.288 31.0376ZM129.73 39.5366H122.74V25.2987L117.16 39.5366H109.852V13.1856H116.842V27.3044L122.323 13.1856H129.73V39.5366Z"/>
</mask>
<path d="M30.6801 23.1343H23.1144V20.0961C23.1144 19.037 23.0283 18.3221 22.8562 17.9515C22.6841 17.5675 22.3664 17.3756 21.9031 17.3756C21.4397 17.3756 21.1286 17.5411 20.9698 17.872C20.8109 18.203 20.7315 18.9443 20.7315 20.0961V32.5269C20.7315 33.4668 20.8506 34.1751 21.0889 34.6517C21.3272 35.115 21.678 35.3467 22.1414 35.3467C22.6841 35.3467 23.0482 35.1018 23.2335 34.6119C23.4321 34.1221 23.5314 33.1954 23.5314 31.8319V28.6944H30.6801C30.6669 30.7993 30.5875 32.3813 30.4418 33.4403C30.3095 34.4862 29.866 35.5651 29.1114 36.6771C28.37 37.7759 27.397 38.6099 26.1923 39.1792C24.9876 39.7352 23.4983 40.0132 21.7244 40.0132C19.4606 40.0132 17.6668 39.6293 16.343 38.8615C15.0191 38.0804 14.0792 36.9949 13.5232 35.6048C12.9804 34.2016 12.709 32.2158 12.709 29.6476V22.1613C12.709 19.924 12.9341 18.2361 13.3842 17.0976C13.8343 15.9591 14.7941 14.9463 16.2635 14.0594C17.733 13.1592 19.5202 12.7091 21.6251 12.7091C23.7167 12.7091 25.5039 13.1525 26.9866 14.0395C28.4693 14.9265 29.4556 16.0451 29.9454 17.3954C30.4352 18.7458 30.6801 20.6587 30.6801 23.1343ZM48.9689 13.1856V18.706H44.3818V39.5366H36.3792V18.706H31.7723V13.1856H48.9689ZM57.7658 23.3924H50.2398V21.6251C50.2398 19.5864 50.4715 18.0176 50.9348 16.9189C51.4114 15.8068 52.358 14.8272 53.7745 13.9799C55.191 13.1327 57.0311 12.7091 59.2949 12.7091C62.0087 12.7091 64.0541 13.1923 65.4309 14.1587C66.8077 15.1118 67.6351 16.29 67.9131 17.6933C68.1911 19.0833 68.3301 21.9561 68.3301 26.3115V39.5366H60.526V37.1934C60.0362 38.1334 59.4008 38.8416 58.6197 39.3182C57.8519 39.7815 56.9318 40.0132 55.8595 40.0132C54.4562 40.0132 53.1655 39.6227 51.9873 38.8416C50.8223 38.0473 50.2398 36.3197 50.2398 33.6588V31.4943C50.2398 29.5218 50.5509 28.1781 51.1731 27.4632C51.7953 26.7484 53.3376 25.9143 55.7999 24.9612C58.4344 23.9286 59.8443 23.2336 60.0296 22.8761C60.2149 22.5187 60.3076 21.7906 60.3076 20.6918C60.3076 19.315 60.2017 18.4214 59.9899 18.011C59.7913 17.5874 59.4537 17.3756 58.9772 17.3756C58.4344 17.3756 58.0968 17.5543 57.9644 17.9117C57.832 18.2559 57.7658 19.1628 57.7658 20.6322V23.3924ZM60.3076 27.0065C59.0235 27.9464 58.2755 28.7341 58.0637 29.3695C57.8651 30.005 57.7658 30.9184 57.7658 32.1099C57.7658 33.4734 57.8519 34.3538 58.024 34.7509C58.2093 35.1481 58.5668 35.3467 59.0963 35.3467C59.5994 35.3467 59.9237 35.1944 60.0693 34.89C60.2282 34.5722 60.3076 33.7515 60.3076 32.4276V27.0065ZM86.9763 13.1856V18.706H82.3892V39.5366H74.3866V18.706H69.7797V13.1856H86.9763ZM107.271 32.0106C107.271 34.42 106.986 36.1476 106.417 37.1934C105.861 38.2393 104.981 38.8946 103.776 39.1593C102.571 39.4109 100.605 39.5366 97.8781 39.5366H88.6046V13.1856H96.5675V21.9627H97.8781C100.433 21.9627 102.339 22.1149 103.597 22.4194C104.855 22.7239 105.781 23.3924 106.377 24.425C106.973 25.4576 107.271 27.0925 107.271 29.3298V32.0106ZM99.288 31.0376V29.9851C99.288 28.6216 99.149 27.7942 98.871 27.5029C98.6062 27.2117 97.8384 27.0462 96.5675 27.0065V33.9964C97.6266 33.9964 98.3415 33.864 98.7121 33.5992C99.0961 33.3212 99.288 32.4673 99.288 31.0376ZM129.73 39.5366H122.74V25.2987L117.16 39.5366H109.852V13.1856H116.842V27.3044L122.323 13.1856H129.73V39.5366Z" fill="#FF00A0"/>
<path d="M30.6801 23.1343V35.8431H43.389V23.1343H30.6801ZM23.1144 23.1343H10.4056V35.8431H23.1144V23.1343ZM22.8562 17.9515L11.2593 23.1501L11.2938 23.2269L11.3292 23.3033L22.8562 17.9515ZM21.0889 34.6517L9.72179 40.3352L9.75408 40.3998L9.78711 40.464L21.0889 34.6517ZM23.2335 34.6119L11.4558 29.8372L11.3998 29.9751L11.3471 30.1144L23.2335 34.6119ZM23.5314 28.6944V15.9856H10.8226V28.6944H23.5314ZM30.6801 28.6944L43.3887 28.7743L43.4691 15.9856H30.6801V28.6944ZM30.4418 33.4403L17.8515 31.7092L17.8422 31.7767L17.8336 31.8444L30.4418 33.4403ZM29.1114 36.6771L18.5951 29.5411L18.5856 29.5551L18.5762 29.5691L29.1114 36.6771ZM26.1923 39.1792L31.5181 50.7183L31.5701 50.6943L31.6219 50.6698L26.1923 39.1792ZM16.343 38.8615L9.88498 49.8072L9.92576 49.8313L9.96671 49.855L16.343 38.8615ZM13.5232 35.6048L1.67012 40.1895L1.69634 40.2573L1.72333 40.3248L13.5232 35.6048ZM16.2635 14.0594L22.831 24.9398L22.8668 24.9182L22.9024 24.8963L16.2635 14.0594ZM30.6801 23.1343V10.4254H23.1144V23.1343V35.8431H30.6801V23.1343ZM23.1144 23.1343H35.8232V20.0961H23.1144H10.4056V23.1343H23.1144ZM23.1144 20.0961H35.8232C35.8232 19.2714 35.7923 18.2825 35.6676 17.2468C35.5669 16.4103 35.3047 14.5843 34.3833 12.5996L22.8562 17.9515L11.3292 23.3033C10.9099 22.4001 10.7041 21.6503 10.6051 21.2342C10.4994 20.7897 10.4526 20.4546 10.4321 20.2844C10.3935 19.9636 10.4056 19.8617 10.4056 20.0961H23.1144ZM22.8562 17.9515L34.4532 12.7528C33.4554 10.527 31.7212 8.24917 29.0608 6.64185C26.4818 5.08367 23.8806 4.66674 21.9031 4.66674V17.3756V30.0844C20.3889 30.0844 18.1783 29.7635 15.9169 28.3972C13.5743 26.9819 12.085 24.9919 11.2593 23.1501L22.8562 17.9515ZM21.9031 17.3756V4.66674C20.2226 4.66674 17.8344 4.96007 15.354 6.27941C12.7008 7.69071 10.7123 9.8728 9.51247 12.3725L20.9698 17.872L32.4271 23.3715C31.3861 25.5403 29.6326 27.4742 27.2905 28.72C25.1212 29.8738 23.1202 30.0844 21.9031 30.0844V17.3756ZM20.9698 17.872L9.51247 12.3725C8.44596 14.5944 8.22322 16.6813 8.15454 17.3223C8.04819 18.315 8.02265 19.2827 8.02265 20.0961H20.7315H33.4403C33.4403 19.7577 33.4545 19.7789 33.4276 20.0302C33.4134 20.1622 33.3737 20.4951 33.2717 20.9541C33.1839 21.3495 32.9592 22.2631 32.4271 23.3715L20.9698 17.872ZM20.7315 20.0961H8.02265V32.5269H20.7315H33.4403V20.0961H20.7315ZM20.7315 32.5269H8.02265C8.02265 34.1496 8.16415 37.2199 9.72179 40.3352L21.0889 34.6517L32.4561 28.9681C33.0578 30.1716 33.2717 31.1681 33.3536 31.6547C33.4406 32.172 33.4403 32.493 33.4403 32.5269H20.7315ZM21.0889 34.6517L9.78711 40.464C10.6679 42.1767 12.1446 44.2044 14.5274 45.778C16.9909 47.4049 19.684 48.0555 22.1414 48.0555V35.3467V22.6378C24.1354 22.6378 26.4214 23.1726 28.5341 24.5678C30.5661 25.9097 31.7482 27.5899 32.3907 28.8393L21.0889 34.6517ZM22.1414 35.3467V48.0555C24.3372 48.0555 27.1867 47.5434 29.9153 45.7078C32.6794 43.8483 34.2798 41.33 35.1199 39.1095L23.2335 34.6119L11.3471 30.1144C12.002 28.3837 13.3276 26.2328 15.7277 24.6182C18.0923 23.0275 20.4883 22.6378 22.1414 22.6378V35.3467ZM23.2335 34.6119L35.0113 39.3867C36.2584 36.3105 36.2402 33.0259 36.2402 31.8319H23.5314H10.8226C10.8226 32.2478 10.8054 32.3355 10.8204 32.1957C10.8288 32.1173 10.8559 31.8856 10.927 31.5474C10.9925 31.236 11.1402 30.6157 11.4558 29.8372L23.2335 34.6119ZM23.5314 31.8319H36.2402V28.6944H23.5314H10.8226V31.8319H23.5314ZM23.5314 28.6944V41.4032H30.6801V28.6944V15.9856H23.5314V28.6944ZM30.6801 28.6944L17.9715 28.6145C17.9657 29.5373 17.9457 30.2657 17.9178 30.8223C17.9039 31.0977 17.8892 31.3109 17.8757 31.469C17.8691 31.5469 17.8632 31.606 17.8586 31.648C17.854 31.6903 17.8514 31.7099 17.8515 31.7092L30.4418 33.4403L43.0322 35.1715C43.2943 33.2654 43.3746 31.011 43.3887 28.7743L30.6801 28.6944ZM30.4418 33.4403L17.8336 31.8444C18.0121 30.4347 18.526 29.643 18.5951 29.5411L29.1114 36.6771L39.6276 43.8132C41.2059 41.4873 42.6069 38.5377 43.0501 35.0363L30.4418 33.4403ZM29.1114 36.6771L18.5762 29.5691C18.821 29.2062 19.1467 28.8273 19.5548 28.4775C19.9626 28.1279 20.3809 27.869 20.7627 27.6886L26.1923 39.1792L31.6219 50.6698C34.8799 49.1303 37.621 46.7874 39.6466 43.7852L29.1114 36.6771ZM26.1923 39.1792L20.8666 27.6401C21.3425 27.4204 21.694 27.3389 21.8398 27.3117C21.9812 27.2852 21.9578 27.3044 21.7244 27.3044V40.0132V52.722C24.7485 52.722 28.181 52.2585 31.5181 50.7183L26.1923 39.1792ZM21.7244 40.0132V27.3044C21.2877 27.3044 21.1886 27.2653 21.3409 27.2979C21.4992 27.3317 22.0222 27.4637 22.7192 27.8679L16.343 38.8615L9.96671 49.855C13.9398 52.1594 18.2204 52.722 21.7244 52.722V40.0132ZM16.343 38.8615L22.8009 27.9157C23.2406 28.1751 23.7606 28.574 24.2529 29.1426C24.7479 29.7142 25.0984 30.3231 25.3231 30.8849L13.5232 35.6048L1.72333 40.3248C3.35249 44.3977 6.211 47.6395 9.88498 49.8072L16.343 38.8615ZM13.5232 35.6048L25.3763 31.0201C25.5571 31.4876 25.5474 31.657 25.5044 31.3422C25.4647 31.0521 25.4179 30.5073 25.4179 29.6476H12.709H0.00019154C0.00019154 32.8349 0.298454 36.6432 1.67012 40.1895L13.5232 35.6048ZM12.709 29.6476H25.4179V22.1613H12.709H0.00019154V29.6476H12.709ZM12.709 22.1613H25.4179C25.4179 21.8122 25.4267 21.5319 25.4392 21.3138C25.4518 21.0942 25.4669 20.9591 25.4752 20.897C25.4838 20.8325 25.4811 20.8764 25.4499 21.0072C25.4194 21.1346 25.348 21.4031 25.2029 21.7701L13.3842 17.0976L1.56547 12.4251C0.225826 15.8136 0.00019154 19.4249 0.00019154 22.1613H12.709ZM13.3842 17.0976L25.2029 21.7701C24.7536 22.9067 24.1481 23.7176 23.666 24.2263C23.2045 24.7133 22.8589 24.9229 22.831 24.9398L16.2635 14.0594L9.69608 3.17896C6.77971 4.9393 3.3789 7.83813 1.56547 12.4251L13.3842 17.0976ZM16.2635 14.0594L22.9024 24.8963C22.4672 25.163 22.0764 25.3035 21.8098 25.3706C21.5569 25.4343 21.474 25.4179 21.6251 25.4179V12.7091V0.000213005C17.6963 0.000213005 13.493 0.852611 9.62467 3.22239L16.2635 14.0594ZM21.6251 12.7091V25.4179C21.7762 25.4179 21.7059 25.4341 21.4734 25.3764C21.2284 25.3156 20.8672 25.188 20.4623 24.9458L26.9866 14.0395L33.5109 3.13319C29.6783 0.840455 25.5298 0.000213005 21.6251 0.000213005V12.7091ZM26.9866 14.0395L20.4623 24.9458C20.2522 24.8202 19.805 24.5151 19.3055 23.9484C18.787 23.3603 18.3168 22.6073 17.9983 21.7292L29.9454 17.3954L41.8925 13.0617C40.2137 8.43361 36.975 5.20546 33.5109 3.13319L26.9866 14.0395ZM29.9454 17.3954L17.9983 21.7292C17.8368 21.2841 17.8492 21.1344 17.8905 21.4568C17.9284 21.7529 17.9713 22.2933 17.9713 23.1343H30.6801H43.389C43.389 20.0898 43.1236 16.4555 41.8925 13.0617L29.9454 17.3954ZM48.9689 13.1856H61.6778V0.476795H48.9689V13.1856ZM48.9689 18.706V31.4149H61.6778V18.706H48.9689ZM44.3818 18.706V5.9972H31.673V18.706H44.3818ZM44.3818 39.5366V52.2455H57.0907V39.5366H44.3818ZM36.3792 39.5366H23.6704V52.2455H36.3792V39.5366ZM36.3792 18.706H49.0881V5.9972H36.3792V18.706ZM31.7723 18.706H19.0635V31.4149H31.7723V18.706ZM31.7723 13.1856V0.476795H19.0635V13.1856H31.7723ZM48.9689 13.1856H36.2601V18.706H48.9689H61.6778V13.1856H48.9689ZM48.9689 18.706V5.9972H44.3818V18.706V31.4149H48.9689V18.706ZM44.3818 18.706H31.673V39.5366H44.3818H57.0907V18.706H44.3818ZM44.3818 39.5366V26.8278H36.3792V39.5366V52.2455H44.3818V39.5366ZM36.3792 39.5366H49.0881V18.706H36.3792H23.6704V39.5366H36.3792ZM36.3792 18.706V5.9972H31.7723V18.706V31.4149H36.3792V18.706ZM31.7723 18.706H44.4811V13.1856H31.7723H19.0635V18.706H31.7723ZM31.7723 13.1856V25.8945H48.9689V13.1856V0.476795H31.7723V13.1856ZM57.7658 23.3924V36.1013H70.4747V23.3924H57.7658ZM50.2398 23.3924H37.531V36.1013H50.2398V23.3924ZM50.9348 16.9189L39.2536 11.9126L39.239 11.9467L39.2246 11.9808L50.9348 16.9189ZM65.4309 14.1587L58.1294 24.5607L58.1631 24.5844L58.1969 24.6078L65.4309 14.1587ZM67.9131 17.6933L55.4465 20.1631L55.4488 20.1744L55.451 20.1857L67.9131 17.6933ZM68.3301 39.5366V52.2455H81.0389V39.5366H68.3301ZM60.526 39.5366H47.8172V52.2455H60.526V39.5366ZM60.526 37.1934H73.2349L49.2558 31.3202L60.526 37.1934ZM58.6197 39.3182L65.1859 50.1993L65.2127 50.1832L65.2393 50.167L58.6197 39.3182ZM51.9873 38.8416L44.8279 49.342L44.8963 49.3886L44.9652 49.4343L51.9873 38.8416ZM51.1731 27.4632L41.5868 19.1196L51.1731 27.4632ZM55.7999 24.9612L60.3878 36.813L60.4128 36.8033L60.4378 36.7936L55.7999 24.9612ZM59.9899 18.011L48.4826 23.4051L48.5854 23.6245L48.6966 23.8398L59.9899 18.011ZM57.9644 17.9117L69.8262 22.4739L69.8546 22.4L69.8821 22.3257L57.9644 17.9117ZM60.3076 27.0065H73.0165V1.9546L52.8012 16.7513L60.3076 27.0065ZM58.0637 29.3695L46.007 25.3507L45.9691 25.4644L45.9334 25.5788L58.0637 29.3695ZM58.024 34.7509L46.3629 39.8041L46.433 39.9657L46.5075 40.1253L58.024 34.7509ZM60.0693 34.89L48.7022 29.2064L48.6523 29.3061L48.6042 29.4067L60.0693 34.89ZM57.7658 23.3924V10.6836H50.2398V23.3924V36.1013H57.7658V23.3924ZM50.2398 23.3924H62.9487V21.6251H50.2398H37.531V23.3924H50.2398ZM50.2398 21.6251H62.9487C62.9487 21.3534 62.9565 21.1468 62.966 20.9987C62.9707 20.9256 62.9755 20.8706 62.9795 20.8325C62.9834 20.7943 62.9861 20.7761 62.9861 20.7762C62.9861 20.7762 62.9828 20.7983 62.9745 20.8402C62.9661 20.882 62.9518 20.948 62.929 21.0353C62.885 21.2043 62.7999 21.4898 62.6451 21.8569L50.9348 16.9189L39.2246 11.9808C37.7934 15.3747 37.531 18.9242 37.531 21.6251H50.2398ZM50.9348 16.9189L62.6161 21.9251C61.7149 24.0278 60.3583 24.8507 60.2981 24.8867L53.7745 13.9799L47.2508 3.07321C44.3576 4.80373 41.1079 7.58583 39.2536 11.9126L50.9348 16.9189ZM53.7745 13.9799L60.2981 24.8867C59.7163 25.2347 59.2589 25.3677 59.0681 25.4117C58.8901 25.4527 58.9394 25.4179 59.2949 25.4179V12.7091V0.000213005C55.5532 0.000213005 51.2402 0.687024 47.2508 3.07321L53.7745 13.9799ZM59.2949 12.7091V25.4179C59.9367 25.4179 60.1075 25.4788 59.9423 25.4398C59.7714 25.3994 59.0471 25.2049 58.1294 24.5607L65.4309 14.1587L72.7323 3.75657C68.2672 0.622405 63.1537 0.000213005 59.2949 0.000213005V12.7091ZM65.4309 14.1587L58.1969 24.6078C57.85 24.3676 57.2595 23.8811 56.6835 23.0609C56.0859 22.2099 55.654 21.2106 55.4465 20.1631L67.9131 17.6933L80.3796 15.2235C79.3514 10.0337 76.2591 6.19785 72.6649 3.70955L65.4309 14.1587ZM67.9131 17.6933L55.451 20.1857C55.396 19.9106 55.4685 20.1958 55.5318 21.5046C55.5878 22.6612 55.6212 24.2462 55.6212 26.3115H68.3301H81.0389C81.0389 22.194 80.9426 18.0382 80.3751 15.2009L67.9131 17.6933ZM68.3301 26.3115H55.6212V39.5366H68.3301H81.0389V26.3115H68.3301ZM68.3301 39.5366V26.8278H60.526V39.5366V52.2455H68.3301V39.5366ZM60.526 39.5366H73.2349V37.1934H60.526H47.8172V39.5366H60.526ZM60.526 37.1934L49.2558 31.3202C49.6627 30.5393 50.5121 29.3774 52.0001 28.4694L58.6197 39.3182L65.2393 50.167C68.2895 48.3058 70.4098 45.7274 71.7963 43.0667L60.526 37.1934ZM58.6197 39.3182L52.0535 28.437C53.624 27.4893 55.0732 27.3044 55.8595 27.3044V40.0132V52.722C58.7905 52.722 62.0797 52.0738 65.1859 50.1993L58.6197 39.3182ZM55.8595 40.0132V27.3044C56.3539 27.3044 56.9236 27.3758 57.5195 27.5561C58.1146 27.7361 58.617 27.9888 59.0094 28.2489L51.9873 38.8416L44.9652 49.4343C48.209 51.5846 51.9389 52.722 55.8595 52.722V40.0132ZM51.9873 38.8416L59.1467 28.3412C61.4413 29.9057 62.3871 31.9042 62.7194 32.8898C63.0217 33.7862 62.9487 34.1837 62.9487 33.6588H50.2398H37.531C37.531 36.9808 38.0399 44.7138 44.8279 49.342L51.9873 38.8416ZM50.2398 33.6588H62.9487V31.4943H50.2398H37.531V33.6588H50.2398ZM50.2398 31.4943H62.9487C62.9487 31.0976 62.9875 31.2994 62.8545 31.8738C62.7395 32.3702 62.2948 34.0429 60.7595 35.8069L51.1731 27.4632L41.5868 19.1196C37.6746 23.6144 37.531 29.2224 37.531 31.4943H50.2398ZM51.1731 27.4632L60.7595 35.8069C60.3932 36.2278 60.06 36.5428 59.8118 36.7597C59.5607 36.9792 59.3508 37.1378 59.2081 37.2399C58.936 37.4347 58.7863 37.5105 58.8418 37.4805C58.8846 37.4574 59.0292 37.3823 59.305 37.2593C59.5761 37.1383 59.9328 36.9892 60.3878 36.813L55.7999 24.9612L51.2121 13.1093C49.7041 13.693 48.165 14.358 46.7512 15.1226C45.5795 15.7562 43.4184 17.0151 41.5868 19.1196L51.1731 27.4632ZM55.7999 24.9612L60.4378 36.7936C61.8702 36.2321 63.2692 35.6478 64.4524 35.0645C65.0197 34.7849 65.8273 34.3648 66.6597 33.8156C67.0761 33.5409 67.7116 33.0952 68.3992 32.4771C68.964 31.9693 70.2768 30.7225 71.3119 28.7262L60.0296 22.8761L48.7473 17.026C49.2814 15.9959 49.861 15.2312 50.2818 14.7343C50.7144 14.2235 51.1139 13.8376 51.4062 13.5748C51.9709 13.0672 52.4453 12.7425 52.6623 12.5994C53.0959 12.3133 53.3516 12.1985 53.2139 12.2664C52.9873 12.3781 52.3641 12.6577 51.1621 13.1288L55.7999 24.9612ZM60.0296 22.8761L71.3119 28.7262C72.4425 26.5458 72.7391 24.5006 72.8453 23.6665C72.9837 22.579 73.0165 21.5421 73.0165 20.6918H60.3076H47.5988C47.5988 20.9402 47.5852 20.8169 47.631 20.4574C47.6551 20.2676 47.7112 19.8874 47.8397 19.3856C47.9588 18.9206 48.2143 18.0539 48.7473 17.026L60.0296 22.8761ZM60.3076 20.6918H73.0165C73.0165 19.7355 72.9826 18.6231 72.8487 17.4932C72.7534 16.6892 72.4733 14.4879 71.2832 12.1822L59.9899 18.011L48.6966 23.8398C48.1311 22.7442 47.8828 21.8346 47.7813 21.418C47.6667 20.9477 47.6226 20.6111 47.6077 20.4848C47.5797 20.2485 47.5988 20.2713 47.5988 20.6918H60.3076ZM59.9899 18.011L71.4972 12.617C70.5457 10.587 68.9162 8.38417 66.3424 6.76924C63.7834 5.16362 61.1324 4.66674 58.9772 4.66674V17.3756V30.0844C57.2985 30.0844 55.0545 29.6935 52.8331 28.2996C50.5969 26.8965 49.2355 25.0114 48.4826 23.4051L59.9899 18.011ZM58.9772 17.3756V4.66674C57.4518 4.66674 54.9793 4.89659 52.3706 6.2777C49.4475 7.8252 47.2004 10.3829 46.0467 13.4978L57.9644 17.9117L69.8821 22.3257C68.8609 25.0831 66.8487 27.3728 64.2632 28.7415C61.992 29.9439 59.9598 30.0844 58.9772 30.0844V17.3756ZM57.9644 17.9117L46.1027 13.3495C45.2847 15.4764 45.1699 17.5203 45.1404 17.9248C45.0755 18.8142 45.057 19.7515 45.057 20.6322H57.7658H70.4747C70.4747 20.3566 70.4778 20.145 70.4822 19.9895C70.4866 19.8289 70.4914 19.7644 70.4906 19.7752C70.49 19.7833 70.4867 19.8273 70.4788 19.9008C70.4711 19.9719 70.4561 20.0985 70.4292 20.2677C70.4034 20.4306 70.3573 20.692 70.2788 21.0203C70.2048 21.3301 70.0675 21.8465 69.8262 22.4739L57.9644 17.9117ZM57.7658 20.6322H45.057V23.3924H57.7658H70.4747V20.6322H57.7658ZM60.3076 27.0065L52.8012 16.7513C51.8004 17.4839 50.6454 18.4162 49.5677 19.551C48.6159 20.5534 46.9567 22.5017 46.007 25.3507L58.0637 29.3695L70.1204 33.3884C69.7234 34.5793 69.2129 35.4466 68.8596 35.9705C68.4983 36.5062 68.1764 36.8669 67.9994 37.0534C67.6697 37.4006 67.5307 37.469 67.814 37.2617L60.3076 27.0065ZM58.0637 29.3695L45.9334 25.5788C45.1619 28.0475 45.057 30.4773 45.057 32.1099H57.7658H70.4747C70.4747 31.8465 70.4867 31.7947 70.4747 31.9045C70.4681 31.9658 70.4513 32.102 70.4136 32.2983C70.3764 32.4915 70.3102 32.7884 70.194 33.1603L58.0637 29.3695ZM57.7658 32.1099H45.057C45.057 33.0095 45.0833 34.0214 45.1818 35.0291C45.2484 35.7103 45.4474 37.6912 46.3629 39.8041L58.024 34.7509L69.6851 29.6978C69.9199 30.2398 70.0714 30.7024 70.167 31.0314C70.2648 31.3677 70.328 31.6467 70.3681 31.8453C70.4454 32.2279 70.4722 32.4871 70.4789 32.5565C70.4914 32.6839 70.4747 32.5738 70.4747 32.1099H57.7658ZM58.024 34.7509L46.5075 40.1253C47.6466 42.5664 49.567 44.8117 52.2591 46.3073C54.8026 47.7203 57.292 48.0555 59.0963 48.0555V35.3467V22.6378C60.3711 22.6378 62.417 22.8738 64.603 24.0882C66.9377 25.3853 68.5867 27.3326 69.5405 29.3766L58.024 34.7509ZM59.0963 35.3467V48.0555C61.7844 48.0555 68.3171 47.1002 71.5344 40.3733L60.0693 34.89L48.6042 29.4067C49.8789 26.7414 51.9991 24.8159 54.3168 23.728C56.3836 22.7579 58.1861 22.6378 59.0963 22.6378V35.3467ZM60.0693 34.89L71.4365 40.5735C72.6685 38.1095 72.8544 35.7084 72.8978 35.2602C72.9931 34.2756 73.0165 33.2859 73.0165 32.4276H60.3076H47.5988C47.5988 32.8932 47.5824 32.9758 47.5983 32.8119C47.6064 32.7282 47.6385 32.4112 47.7343 31.9538C47.784 31.7163 47.8659 31.3678 47.9981 30.9462C48.1254 30.5401 48.343 29.9248 48.7022 29.2064L60.0693 34.89ZM60.3076 32.4276H73.0165V27.0065H60.3076H47.5988V32.4276H60.3076ZM86.9763 13.1856H99.6852V0.476795H86.9763V13.1856ZM86.9763 18.706V31.4149H99.6852V18.706H86.9763ZM82.3892 18.706V5.9972H69.6804V18.706H82.3892ZM82.3892 39.5366V52.2455H95.0981V39.5366H82.3892ZM74.3866 39.5366H61.6778V52.2455H74.3866V39.5366ZM74.3866 18.706H87.0955V5.9972H74.3866V18.706ZM69.7797 18.706H57.0708V31.4149H69.7797V18.706ZM69.7797 13.1856V0.476795H57.0708V13.1856H69.7797ZM86.9763 13.1856H74.2675V18.706H86.9763H99.6852V13.1856H86.9763ZM86.9763 18.706V5.9972H82.3892V18.706V31.4149H86.9763V18.706ZM82.3892 18.706H69.6804V39.5366H82.3892H95.0981V18.706H82.3892ZM82.3892 39.5366V26.8278H74.3866V39.5366V52.2455H82.3892V39.5366ZM74.3866 39.5366H87.0955V18.706H74.3866H61.6778V39.5366H74.3866ZM74.3866 18.706V5.9972H69.7797V18.706V31.4149H74.3866V18.706ZM69.7797 18.706H82.4885V13.1856H69.7797H57.0708V18.706H69.7797ZM69.7797 13.1856V25.8945H86.9763V13.1856V0.476795H69.7797V13.1856ZM106.417 37.1934L95.2544 31.1177L95.2246 31.1725L95.1953 31.2275L106.417 37.1934ZM103.776 39.1593L106.373 51.5999L106.439 51.5862L106.504 51.5719L103.776 39.1593ZM88.6046 39.5366H75.8958V52.2455H88.6046V39.5366ZM88.6046 13.1856V0.476795H75.8958V13.1856H88.6046ZM96.5675 13.1856H109.276V0.476795H96.5675V13.1856ZM96.5675 21.9627H83.8587V34.6715H96.5675V21.9627ZM98.871 27.5029L89.4672 36.0518L89.5712 36.1662L89.678 36.2781L98.871 27.5029ZM96.5675 27.0065L96.9645 14.3039L83.8587 13.8943V27.0065H96.5675ZM96.5675 33.9964H83.8587V46.7052H96.5675V33.9964ZM98.7121 33.5992L106.099 43.9408L106.133 43.9168L106.166 43.8926L98.7121 33.5992ZM107.271 32.0106H94.5619C94.5619 32.3672 94.5512 32.6326 94.5385 32.8175C94.5256 33.0052 94.5129 33.075 94.5175 33.0474C94.5212 33.0246 94.5519 32.8416 94.6442 32.5417C94.7348 32.2474 94.9154 31.7406 95.2544 31.1177L106.417 37.1934L117.579 43.2692C119.76 39.2634 119.98 34.7881 119.98 32.0106H107.271ZM106.417 37.1934L95.1953 31.2275C95.7293 30.2233 96.5651 29.1575 97.7511 28.2747C98.9249 27.401 100.11 26.9529 101.048 26.7467L103.776 39.1593L106.504 51.5719C111.175 50.5452 115.252 47.6481 117.638 43.1593L106.417 37.1934ZM103.776 39.1593L101.178 26.7188C101.406 26.6711 101.28 26.715 100.587 26.7594C99.9538 26.7999 99.0654 26.8278 97.8781 26.8278V39.5366V52.2455C100.688 52.2455 103.787 52.14 106.373 51.5999L103.776 39.1593ZM97.8781 39.5366V26.8278H88.6046V39.5366V52.2455H97.8781V39.5366ZM88.6046 39.5366H101.313V13.1856H88.6046H75.8958V39.5366H88.6046ZM88.6046 13.1856V25.8945H96.5675V13.1856V0.476795H88.6046V13.1856ZM96.5675 13.1856H83.8587V21.9627H96.5675H109.276V13.1856H96.5675ZM96.5675 21.9627V34.6715H97.8781V21.9627V9.25384H96.5675V21.9627ZM97.8781 21.9627V34.6715C98.9222 34.6715 99.6858 34.7033 100.212 34.7454C100.782 34.7909 100.856 34.8317 100.607 34.7714L103.597 22.4194L106.588 10.0674C103.809 9.39469 100.665 9.25384 97.8781 9.25384V21.9627ZM103.597 22.4194L100.607 34.7714C99.846 34.5873 98.837 34.2041 97.7998 33.4558C96.7429 32.6933 95.9292 31.747 95.3689 30.7759L106.377 24.425L117.385 18.0741C114.893 13.7534 110.905 11.1128 106.588 10.0674L103.597 22.4194ZM106.377 24.425L95.3689 30.7759C95.0265 30.1823 94.8285 29.6807 94.7174 29.3492C94.6058 29.0159 94.5596 28.7874 94.5443 28.7035C94.5187 28.5627 94.5619 28.7315 94.5619 29.3298H107.271H119.98C119.98 26.507 119.7 22.0858 117.385 18.0741L106.377 24.425ZM107.271 29.3298H94.5619V32.0106H107.271H119.98V29.3298H107.271ZM99.288 31.0376H111.997V29.9851H99.288H86.5792V31.0376H99.288ZM99.288 29.9851H111.997C111.997 28.9758 111.953 27.6392 111.717 26.2363C111.596 25.519 111.041 21.8468 108.064 18.7278L98.871 27.5029L89.678 36.2781C88.1274 34.6537 87.4302 33.0259 87.1451 32.2611C86.8277 31.4096 86.7003 30.7437 86.6506 30.4475C86.5539 29.872 86.5792 29.6309 86.5792 29.9851H99.288ZM98.871 27.5029L108.275 18.954C105.301 15.6826 101.6 14.9148 100.774 14.7368C99.3254 14.4246 97.9592 14.3349 96.9645 14.3039L96.5675 27.0065L96.1706 39.7091C96.4467 39.7178 96.0999 39.7307 95.4191 39.584C95.0667 39.508 94.3396 39.3299 93.4373 38.9308C92.5967 38.559 90.9921 37.7292 89.4672 36.0518L98.871 27.5029ZM96.5675 27.0065H83.8587V33.9964H96.5675H109.276V27.0065H96.5675ZM96.5675 33.9964V46.7052C97.5559 46.7052 98.8324 46.6489 100.212 46.3934C101.429 46.1681 103.764 45.6088 106.099 43.9408L98.7121 33.5992L91.3253 23.2576C92.3734 22.509 93.3381 22.0811 94.0031 21.8378C94.6791 21.5905 95.2335 21.4656 95.5838 21.4007C95.9443 21.334 96.2113 21.3084 96.3515 21.2979C96.4268 21.2923 96.4826 21.2898 96.5165 21.2887C96.5339 21.2881 96.5468 21.2878 96.5551 21.2877C96.5593 21.2876 96.5624 21.2876 96.5645 21.2875C96.5655 21.2875 96.5663 21.2875 96.5668 21.2875C96.567 21.2875 96.5672 21.2875 96.5673 21.2875C96.5674 21.2875 96.5674 21.2875 96.5675 21.2875C96.567 21.2875 96.568 21.2875 96.5675 21.2875C96.567 21.2875 96.568 21.2875 96.5675 21.2875V33.9964ZM98.7121 33.5992L106.166 43.8926C110.262 40.9265 111.278 36.7184 111.543 35.5378C111.933 33.8052 111.997 32.1802 111.997 31.0376H99.288H86.5792C86.5792 31.3247 86.5471 30.8415 86.7447 29.9628C86.8482 29.5024 87.0869 28.6011 87.637 27.5198C88.182 26.4486 89.2641 24.7499 91.2583 23.3058L98.7121 33.5992ZM129.73 39.5366V52.2455H142.438V39.5366H129.73ZM122.74 39.5366H110.031V52.2455H122.74V39.5366ZM122.74 25.2987H135.449L110.907 20.6614L122.74 25.2987ZM117.16 39.5366V52.2455H125.829L128.992 44.1739L117.16 39.5366ZM109.852 39.5366H97.1434V52.2455H109.852V39.5366ZM109.852 13.1856V0.476795H97.1434V13.1856H109.852ZM116.842 13.1856H129.551V0.476795H116.842V13.1856ZM116.842 27.3044H104.133L128.69 31.9034L116.842 27.3044ZM122.323 13.1856V0.476795H113.623L110.475 8.5866L122.323 13.1856ZM129.73 13.1856H142.438V0.476795H129.73V13.1856ZM129.73 39.5366V26.8278H122.74V39.5366V52.2455H129.73V39.5366ZM122.74 39.5366H135.449V25.2987H122.74H110.031V39.5366H122.74ZM122.74 25.2987L110.907 20.6614L105.327 34.8993L117.16 39.5366L128.992 44.1739L134.572 29.9361L122.74 25.2987ZM117.16 39.5366V26.8278H109.852V39.5366V52.2455H117.16V39.5366ZM109.852 39.5366H122.561V13.1856H109.852H97.1434V39.5366H109.852ZM109.852 13.1856V25.8945H116.842V13.1856V0.476795H109.852V13.1856ZM116.842 13.1856H104.133V27.3044H116.842H129.551V13.1856H116.842ZM116.842 27.3044L128.69 31.9034L134.17 17.7847L122.323 13.1856L110.475 8.5866L104.995 22.7053L116.842 27.3044ZM122.323 13.1856V25.8945H129.73V13.1856V0.476795H122.323V13.1856ZM129.73 13.1856H117.021V39.5366H129.73H142.438V13.1856H129.73Z" fill="#FF00A0" mask="url(#path-1-outside-1_208_658)"/>
</svg>
