<svg width="180" height="77" viewBox="0 0 180 77" fill="none" xmlns="http://www.w3.org/2000/svg">
<path d="M52.5477 11.458H0V64.4053H52.5477V11.458Z" fill="#FF65A6"/>
<path d="M150.975 11.458H98.4277V64.4053H150.975V11.458Z" fill="#FF65A6"/>
<path d="M84.3133 11.458H31.7656V71.9127H84.3133V11.458Z" fill="#FF65A6"/>
<path d="M156.074 29.6328L176.111 64.6017H136.037L156.074 29.6328Z" fill="#FF65A6"/>
<path d="M156.074 46.6251L136.037 11.6562H176.111L156.074 46.6251Z" fill="#FF65A6"/>
<path d="M86.664 68.7513C101.391 68.7513 113.33 56.7217 113.33 41.8825C113.33 27.0432 101.391 15.0137 86.664 15.0137C71.9368 15.0137 59.998 27.0432 59.998 41.8825C59.998 56.7217 71.9368 68.7513 86.664 68.7513Z" fill="#FF65A6"/>
<path d="M158.511 51.7219C158.511 54.0484 149.388 53.2898 146.688 53.2898C142.964 53.2898 127.697 54.3519 127.697 51.3679V27.344C127.697 24.2589 157.673 24.5623 157.766 27.0912C157.766 27.7486 155.718 28.8108 154.415 28.8108L140.73 28.8613C136.262 28.8613 134.679 30.8338 134.679 33.0086C134.679 40.8985 154.601 34.5259 154.601 38.7237C154.601 43.7814 134.679 35.9926 134.679 45.2481C134.679 55.1105 158.511 46.6643 158.511 51.7219Z" fill="white"/>
<path d="M126.175 51.9227L126.082 51.8721C126.082 53.9457 119.379 53.8446 119.379 51.7204V41.5545C119.379 40.7453 118.914 36.952 116.959 36.952C113.142 36.952 113.049 44.235 108.395 44.235C103.647 44.235 103.181 36.952 99.737 36.9014C97.6889 36.9014 97.2235 40.6441 97.2235 41.5039L97.1304 51.7709C97.1304 53.8952 90.4277 54.0469 90.4277 51.8721V27.5954C90.4277 26.0275 93.9652 25.8252 96.1994 25.8252C106.44 25.8252 102.437 33.4117 108.301 33.4117C113.701 33.4117 111.187 25.8252 119.379 25.8252C121.521 25.8252 126.175 25.9263 126.175 27.5954V51.9227Z" fill="white"/>
<path d="M88.0879 50.3057H87.9948C87.9948 52.2276 86.4123 52.4299 83.2471 52.4805C80.2682 52.4805 78.4062 52.2276 78.4062 50.3563C78.4062 48.4849 80.3613 48.1815 83.3402 48.1815C86.5054 48.1309 88.0879 48.3838 88.0879 50.3057Z" fill="white"/>
<path d="M73.9619 51.7219C73.9619 54.0484 64.8389 53.2898 62.1392 53.2898C58.4156 53.2898 43.1484 54.3519 43.1484 51.3679V27.344C43.1484 24.2589 73.1241 24.5623 73.2172 27.0912C73.2172 27.7486 71.1692 28.8108 69.8659 28.8108L56.1813 28.8613C51.7129 28.8613 50.1303 30.8338 50.1303 33.0086C50.1303 40.8985 70.0521 34.5259 70.0521 38.7237C70.0521 43.7814 50.1303 35.9926 50.1303 45.2481C50.1303 55.1105 73.9619 46.6643 73.9619 51.7219Z" fill="white"/>
<path d="M41.6302 51.9227L41.5371 51.8721C41.5371 53.9457 34.8345 53.8446 34.8345 51.7204V41.5545C34.8345 40.7453 34.369 36.952 32.4141 36.952C28.5973 36.952 28.5042 44.235 23.8496 44.235C19.1019 44.235 18.6364 36.952 15.192 36.9014C13.144 36.9014 12.6785 40.6441 12.6785 41.5039L12.5855 51.7709C12.5855 53.8952 5.88281 54.0469 5.88281 51.8721V27.5954C5.88281 26.0275 9.42032 25.8252 11.6545 25.8252C21.8947 25.8252 17.8917 33.4117 23.7565 33.4117C29.1559 33.4117 26.6424 25.8252 34.8345 25.8252C36.9756 25.8252 41.6302 25.9263 41.6302 27.5954V51.9227Z" fill="white"/>
</svg>
