<svg width="1920" height="1080" viewBox="0 0 1920 1080" fill="none" xmlns="http://www.w3.org/2000/svg">
<path d="M19.3613 -282.426L121.726 -170.165L149.868 -170.319L152.335 -175.054L162.361 -170.39L209.684 -170.649L206.792 -168.994L382.832 -169.757H382.836L385.085 -169.767L437.857 -169.992C444.088 -170.76 450.198 -171.123 456.104 -171.148L458.065 -171.146C463.023 -171.105 468.545 -170.823 474.458 -170.152L534.302 -170.411L554.4 -170.499C560.468 -171.241 566.613 -171.628 572.799 -171.655H574.117L695.874 -355.529L697.022 -174.841L816.419 -356.056L817.596 -171.64L817.727 -171.642L881.017 -171.916L926.991 -172.116C933.208 -172.866 939.46 -173.25 945.694 -173.277L948.843 -173.259C954.018 -173.182 959.208 -172.857 964.388 -172.278L997.28 -172.418L1010.49 -172.476L1010.49 -172.441C1016.95 -172.333 1024.81 -171.805 1033.48 -170.339C1044.18 -172.614 1055.11 -173.75 1065.99 -173.797L1069.14 -173.779C1076.57 -173.668 1084.04 -173.044 1091.46 -171.891L1091.45 -172.828L1093.84 -172.841L1097.13 -179.15L1110.53 -172.912L1111.34 -172.917C1117.47 -173.663 1123.62 -174.046 1129.72 -174.073L1131.53 -174.071C1137.04 -174.032 1142.62 -173.706 1148.2 -173.077L1192.55 -173.27L1347.79 -365.221L1348.69 -212.217L1355.52 -219.347L1354.72 -358.388L1398.21 -263.988L1435.87 -350.085L1436.57 -221.92L1444.24 -213.508L1532.06 -359.156L1533.23 -175.465C1536.82 -175.717 1540.4 -175.857 1543.99 -175.872L1547.14 -175.855C1552.31 -175.778 1557.51 -175.452 1562.68 -174.874L1568.59 -174.899L1568.6 -174.101C1569.47 -173.971 1570.33 -173.833 1571.2 -173.688L1575.12 -181.225L1588.68 -174.914C1595.04 -175.713 1601.4 -176.121 1607.71 -176.149L1609.52 -176.146C1615.06 -176.107 1620.64 -175.779 1626.24 -175.148L1705.15 -175.49L1860.38 -367.441L1861.61 -177.173C1866.25 -177.058 1870.91 -176.75 1875.55 -176.232L2000.48 -176.772C2006.54 -177.513 2012.68 -177.901 2018.85 -177.928H2020.17L2141.93 -361.802L2143.11 -177.388L2152.19 -177.429L2152.28 -166.191C2170.2 -160.173 2187.02 -151.679 2201.99 -140.584L2202.21 -140.425L2202.43 -140.26C2226.51 -122.235 2241.58 -100.55 2248.36 -77.6099L2454.34 -44.2156L2320.06 7.91966L2460 59.1985L2368.03 75.1599L2217.47 163.464C2217.48 163.843 2217.48 164.222 2217.49 164.601L2217.46 167.536C2217.34 171.803 2216.9 176.082 2216.15 180.352L2216.2 186.57L2224.62 189.391L2216.29 200.907L2216.3 201.615C2217.29 206.881 2217.81 212.155 2217.84 217.39L2217.84 218.945C2217.78 223.686 2217.35 228.475 2216.51 233.268L2217.55 340.684V340.687L2217.56 342.618L2217.86 387.951C2218.89 393.305 2219.37 159.784 2219.41 164.858L2219.4 166.542C2219.35 170.801 2218.97 175.545 2218.07 180.624L2218.42 232.03L2218.54 249.3C2219.53 254.511 2220.05 259.79 2220.08 265.103V266.237L2403.28 370.829L2224.34 371.818L2403.98 474.386L2220.06 475.398L2220.07 475.513L2220.43 529.88L2220.7 569.376C2221.7 574.714 2222.21 580.084 2222.25 585.438L2222.23 588.145C2222.12 592.591 2221.69 597.05 2220.92 601.498L2221.1 629.754L2221.18 641.101L2221.13 641.103C2220.99 646.652 2220.29 653.405 2218.33 660.851C2221.36 670.049 2222.88 679.437 2222.95 688.78L2222.92 691.487C2222.77 697.874 2221.94 704.29 2220.4 710.659L2221.65 710.651L2221.67 712.706L2230.09 715.527L2221.76 727.043L2221.77 727.738C2222.77 733.007 2223.28 738.286 2223.31 743.526L2223.31 745.081C2223.26 749.82 2222.82 754.611 2221.98 759.404L2222.24 797.501L2416.22 930.858L2274.26 931.639L2283.78 937.497L2407.09 936.814L2343.41 974.172L2396 1006.53L2287.22 1007.13L2275.98 1013.71L2384.94 698.474L2201.99 699.48C2202.33 702.561 2202.51 705.642 2202.53 708.72L2202.51 711.427C2202.41 715.873 2201.97 720.331 2201.2 724.78L2201.23 729.856L2200.17 729.862C2200 730.609 2199.81 731.351 2199.62 732.096L2209.68 735.465L2201.25 747.118C2202.32 752.573 2202.87 758.042 2202.9 763.466L2202.9 765.018C2202.85 769.77 2202.41 774.569 2201.57 779.376L2202.02 847.166L2396 980.52L2204.27 981.579C2204.12 985.565 2203.71 989.56 2203.01 993.546L2203.74 1100.87C2204.73 1106.07 2205.25 1111.35 2205.28 1116.66V1117.79L2388.48 1222.38L2204.56 1223.4L2204.61 1231.2L2130.84 1231.6L2130.95 1244.87L2121.87 1244.91L2123.1 1387.73L2006.9 1257.29L1803.13 1258.18L1803.03 1246.29L1738.94 1246.56L1584.05 1391.48L1582.89 1256.04L1552.93 1245.82C1551.08 1246.18 1549.22 1246.51 1547.35 1246.81L1547.57 1272.26L1512.22 1272.41L1513.23 1390.37L1420.03 1285.76L1415.73 1290.37L1416.56 1386.88L1371.14 1338.26L1335.76 1376.27L1335.11 1299.69L1288.46 1249.75C1283.08 1249.64 1277.66 1249.24 1272.24 1248.59L1263.9 1248.62L1226.34 1248.79L1071.45 1393.7L1070.21 1248.75C1061.77 1250.14 1053.25 1250.84 1044.78 1250.87C1034.13 1250.92 1023.41 1249.92 1012.88 1247.83C1004.39 1249.21 996.379 1249.75 989.256 1249.81V1249.82H988.716C988.709 1249.82 988.695 1249.82 988.695 1249.82L944.898 1250.01C938.106 1250.91 931.277 1251.37 924.478 1251.4C917.666 1251.43 910.826 1251.02 904.024 1250.19L796.705 1250.65L796.366 1250.65L797.587 1393.48L675.868 1256.85L677.045 1394L551.434 1253.01C544.705 1253.04 538.034 1252.63 531.461 1251.81L468.247 1252.08L464.908 1252.09L455.03 1267.87L446.429 1261.89L438.205 1277.07L430.739 1277.1L387.015 1361.13L347.296 1293.5L300.901 1277.67L190.904 1278.14L75.461 1278.65L-20.901 1382.15L-21.4234 1321.09L-39.7291 1305.59L-76.9356 1371.43L-145.398 1256.02C-145.889 1256.03 -146.38 1256.04 -146.868 1256.04C-154.186 1256.08 -161.472 1255.67 -168.682 1254.84L-245.411 1255.17L-239.043 1229.91C-244.055 1226.62 -248.896 1223.02 -253.531 1219.09L-253.72 1218.93L-253.912 1218.77C-258.707 1214.67 -263.1 1210.36 -267.106 1205.89C-272.24 1202.88 -277.211 1199.6 -281.993 1196.06L-282.209 1195.9L-282.425 1195.73C-306.51 1177.71 -321.578 1156.02 -328.358 1133.08L-534.344 1099.69L-400.055 1047.55L-540 996.274L-448.032 980.312L-297.467 892.008C-297.475 891.629 -297.482 891.25 -297.484 890.871L-297.454 887.936C-297.339 883.669 -296.902 879.39 -296.153 875.12L-296.193 868.902L-304.62 866.081L-296.291 854.565L-296.295 853.857C-297.289 848.591 -297.803 843.317 -297.839 838.082L-297.836 836.528C-297.784 831.786 -297.348 826.997 -296.508 822.204L-297.545 668.072V668.069L-297.558 666.138L-274.681 1011.49C-275.707 1006.14 -276.191 1000.89 -276.225 995.812L-276.222 994.127C-276.168 989.868 -275.791 985.124 -274.894 980.045L-275.239 928.639L-275.357 911.37C-276.348 906.158 -276.865 900.879 -276.901 895.567V894.432L-460.094 789.84L-281.155 788.851L-460.797 686.283L-276.881 685.271L-276.884 685.157L-277.249 630.789L-277.516 591.293C-278.516 585.955 -279.031 580.585 -279.067 575.231L-279.043 572.524C-278.94 568.078 -278.505 563.619 -277.732 559.171L-277.921 530.915L-277.999 519.569L-277.952 519.566C-277.808 514.017 -277.102 507.264 -275.144 499.818C-278.182 490.62 -279.7 481.233 -279.763 471.889L-279.739 469.182C-279.591 462.795 -278.756 456.38 -277.215 450.011L-278.469 450.018L-278.486 447.963L-286.912 445.142L-278.58 433.626L-278.587 432.931C-279.583 427.662 -280.096 422.383 -280.131 417.143L-280.128 415.589C-280.076 410.85 -279.64 406.059 -278.8 401.265L-279.057 363.168L-473.038 229.811L-331.079 229.03L-340.6 223.172L-463.912 223.855L-400.223 186.498L-452.823 392.913L-344.036 392.314L-332.802 385.727L-464.939 356.999L-281.989 355.992C-282.326 352.911 -282.512 349.83 -282.533 346.752L-282.51 344.045C-282.407 339.599 -281.971 335.141 -281.199 330.692L-281.232 325.616L-280.168 325.611C-279.995 324.863 -279.811 324.121 -279.617 323.376L-289.683 320.007L-281.253 308.354C-282.319 302.899 -282.865 297.43 -282.901 292.006L-282.898 290.454C-282.846 285.702 -282.41 280.903 -281.567 276.097L-282.023 208.306L-476.004 74.9523L-284.27 73.8933C-284.117 69.9068 -283.705 65.9127 -283.013 61.9262L-283.736 -45.3965C-284.725 -50.6027 -285.244 -55.8765 -285.28 -61.1839V-62.3156L-468.473 -166.911L-284.557 -167.924L-284.611 -175.723L-205.675 -176.159C-190.941 -184.173 -174.988 -189.686 -158.475 -192.826L-119.601 -393.765L-58.9094 -246.504L0.77876 -398L19.3613 -282.426ZM190.689 1253.28L190.893 1276.79L204.151 1253.22L190.689 1253.28ZM669.385 1161.26C670.028 1161.3 670.682 1161.31 671.343 1161.31V1161.31C670.682 1161.31 670.028 1161.3 669.385 1161.26ZM689.241 1159.93L689.524 1159.94L698.316 1159.89L689.241 1159.93ZM1291.99 1158.61L1291.99 1158.62C1292.23 1158.62 1292.47 1158.61 1292.71 1158.6C1292.85 1158.6 1292.99 1158.6 1293.14 1158.59C1292.75 1158.61 1292.37 1158.61 1291.99 1158.61ZM1304.39 1156.11C1304.57 1156.03 1304.75 1155.96 1304.93 1155.87C1305 1155.85 1305.06 1155.81 1305.13 1155.78C1304.88 1155.9 1304.64 1156 1304.39 1156.11ZM768.245 1138.84L768.362 1152.68H768.366L768.248 1138.84L768.252 1138.84L768.245 1138.84ZM1828.59 1148.53C1829.97 1148.92 1831.43 1149.18 1832.95 1149.29C1831.48 1149.18 1830.07 1148.93 1828.73 1148.56C1828.41 1148.47 1828.09 1148.37 1827.77 1148.27L1828.59 1148.53ZM1819.93 1143.2C1820.11 1143.41 1820.3 1143.61 1820.5 1143.82L1820.51 1143.82C1820.21 1143.52 1819.93 1143.2 1819.67 1142.88C1819.58 1142.77 1819.48 1142.67 1819.39 1142.56L1819.93 1143.2ZM634.126 1142.25C634.209 1142.43 634.296 1142.6 634.372 1142.78C634.303 1142.62 634.23 1142.46 634.154 1142.31C634.147 1142.29 634.137 1142.27 634.126 1142.25ZM1180.99 1112.93L1184.47 1112.92L1184.73 1142.54L1184.47 1112.92L1180.99 1112.93ZM1861.38 1139.55L1861.39 1139.55C1861.42 1139.45 1861.45 1139.35 1861.48 1139.25C1861.45 1139.35 1861.42 1139.45 1861.38 1139.55ZM905.086 1136.73C905.093 1137.54 905.145 1138.32 905.242 1139.08L905.131 1137.92C905.107 1137.53 905.093 1137.13 905.09 1136.73L905.086 1136.73ZM1503.38 1134.13C1503.39 1135.44 1503.52 1136.67 1503.77 1137.83C1503.53 1136.67 1503.4 1135.44 1503.38 1134.14V1134.13C1503.38 1133.95 1503.39 1133.78 1503.39 1133.6C1503.39 1133.78 1503.38 1133.95 1503.38 1134.13ZM1862.4 1132.58C1862.42 1134.08 1862.29 1135.52 1862.05 1136.9C1862.22 1135.91 1862.34 1134.88 1862.39 1133.83L1862.41 1132.57C1862.4 1132.27 1862.39 1131.97 1862.38 1131.67C1862.39 1131.97 1862.4 1132.27 1862.4 1132.58ZM1016.5 1131.33C1016.19 1132.9 1016.04 1134.53 1016.06 1136.25H1016.06C1016.04 1134.53 1016.19 1132.9 1016.5 1131.33ZM1816.4 1134.97C1816.42 1135.15 1816.44 1135.32 1816.47 1135.5C1816.45 1135.38 1816.44 1135.26 1816.42 1135.15C1816.42 1135.09 1816.41 1135.03 1816.4 1134.97ZM688.936 1132.72C689.033 1133.07 689.119 1133.44 689.192 1133.81L689.189 1133.78C689.043 1133.04 688.846 1132.32 688.614 1131.64C688.735 1131.99 688.839 1132.35 688.936 1132.72ZM1549.49 1132.78L1549.49 1132.66C1549.47 1132.44 1549.45 1132.22 1549.43 1132.01C1549.45 1132.26 1549.48 1132.52 1549.49 1132.78ZM1549.39 1131.52C1549.38 1131.49 1549.38 1131.45 1549.38 1131.42C1549.36 1131.26 1549.34 1131.09 1549.32 1130.93C1549.34 1131.13 1549.37 1131.32 1549.39 1131.52ZM1862.27 1130.25C1862.27 1130.19 1862.27 1130.13 1862.26 1130.07C1862.24 1129.91 1862.21 1129.74 1862.19 1129.58C1862.22 1129.8 1862.25 1130.02 1862.27 1130.25ZM1092.57 1128.99C1092.52 1129.15 1092.47 1129.31 1092.43 1129.47C1092.52 1129.16 1092.62 1128.85 1092.73 1128.55C1092.68 1128.69 1092.62 1128.84 1092.57 1128.99ZM686.566 1127.75C686.784 1128.04 686.988 1128.34 687.178 1128.64C687.303 1128.83 687.417 1129.03 687.531 1129.23C687.241 1128.71 686.923 1128.22 686.566 1127.75ZM1750.22 1110.46L1759.12 1110.43L1759.29 1128.81L1759.16 1114.29L1759.13 1110.43L1750.22 1110.46ZM629.86 1128.08C629.867 1128.01 629.884 1127.94 629.895 1127.86C629.922 1127.63 629.943 1127.39 629.957 1127.14C629.936 1127.46 629.905 1127.77 629.86 1128.08ZM1861.92 1127.95C1861.9 1127.85 1861.89 1127.76 1861.87 1127.67C1861.85 1127.59 1861.83 1127.52 1861.81 1127.45C1861.85 1127.61 1861.89 1127.78 1861.92 1127.95ZM629.978 1126.36C629.978 1126.59 629.981 1126.82 629.967 1127.05C629.981 1126.82 629.981 1126.59 629.981 1126.35C629.978 1126.04 629.957 1125.73 629.929 1125.43C629.957 1125.73 629.974 1126.04 629.978 1126.36ZM1861.67 1126.86C1861.64 1126.74 1861.61 1126.62 1861.58 1126.51C1861.56 1126.44 1861.53 1126.37 1861.51 1126.3C1861.57 1126.48 1861.62 1126.67 1861.67 1126.86ZM1861.19 1125.28C1861.24 1125.42 1861.28 1125.56 1861.33 1125.7C1861.29 1125.59 1861.26 1125.49 1861.23 1125.38C1861.22 1125.35 1861.2 1125.32 1861.19 1125.28ZM629.805 1124.45C629.857 1124.73 629.895 1125.02 629.923 1125.32C629.895 1125.02 629.857 1124.73 629.805 1124.44V1124.45ZM1307.96 1124.92V1124.91C1307.86 1124.81 1307.76 1124.71 1307.66 1124.61C1307.76 1124.71 1307.86 1124.82 1307.96 1124.92ZM1860.81 1124.28C1860.89 1124.47 1860.96 1124.67 1861.03 1124.87C1860.82 1124.3 1860.6 1123.75 1860.34 1123.21L1860.81 1124.28ZM1307.3 1124.25C1307.31 1124.26 1307.33 1124.27 1307.35 1124.29C1307.29 1124.23 1307.23 1124.18 1307.17 1124.12C1307.21 1124.16 1307.25 1124.2 1307.3 1124.25ZM235.528 1124.17L235.514 1121.75L235.476 1117.08L235.528 1124.17ZM629.231 1122.51C629.227 1122.49 629.224 1122.48 629.217 1122.47C629.168 1122.36 629.127 1122.25 629.075 1122.14L629.231 1122.51ZM1544.83 1120.42C1545.26 1120.96 1545.67 1121.51 1546.04 1122.08C1545.84 1121.77 1545.63 1121.47 1545.41 1121.17C1545.26 1120.96 1545.1 1120.76 1544.95 1120.56C1544.91 1120.51 1544.87 1120.47 1544.83 1120.42ZM568.363 1121.98L568.2 1121.8C568.151 1121.75 568.103 1121.7 568.058 1121.65L568.363 1121.98ZM1304 1121.62C1304.01 1121.62 1304.02 1121.63 1304.03 1121.63C1303.91 1121.56 1303.8 1121.48 1303.68 1121.41C1303.79 1121.48 1303.9 1121.55 1304 1121.62ZM1859.2 1121.15L1858.67 1120.34C1858.65 1120.32 1858.63 1120.29 1858.62 1120.27C1858.82 1120.56 1859.02 1120.85 1859.2 1121.15ZM688.857 1115.07L688.902 1120.23L688.867 1115.07L688.857 1115.07ZM1301.36 1120.2C1301.36 1120.2 1301.37 1120.2 1301.38 1120.2L1301.15 1120.11C1301.22 1120.14 1301.29 1120.17 1301.36 1120.2ZM1090.56 1117.52C1090.43 1117.63 1090.3 1117.75 1090.17 1117.86C1090.31 1117.74 1090.45 1117.62 1090.6 1117.5C1090.59 1117.5 1090.58 1117.51 1090.56 1117.52ZM995.746 1116.34C995.937 1116.47 996.123 1116.6 996.303 1116.73L995.746 1116.34C995.587 1116.23 995.428 1116.12 995.262 1116.03L995.746 1116.34ZM355.856 1116.51L362.298 1116.49H361.903L355.856 1116.51ZM1036.5 1113.14C1035.61 1113.32 1034.74 1113.53 1033.89 1113.78L1035.18 1113.43C1035.62 1113.33 1036.06 1113.23 1036.5 1113.14ZM1039.24 1112.71C1038.78 1112.76 1038.31 1112.83 1037.86 1112.9C1038.77 1112.75 1039.71 1112.64 1040.66 1112.57C1040.18 1112.61 1039.71 1112.65 1039.24 1112.71ZM1847.83 1111.58C1848.22 1111.75 1848.61 1111.94 1848.99 1112.13C1848.23 1111.75 1847.45 1111.4 1846.64 1111.09L1847.83 1111.58ZM1844.15 1110.26C1844.58 1110.39 1845 1110.51 1845.42 1110.65C1844.59 1110.38 1843.74 1110.14 1842.87 1109.93L1844.15 1110.26ZM1576.12 50.7455C1574.26 51.1114 1572.4 51.4436 1570.53 51.7421L1570.75 77.1894L1535.4 77.3426L1272.24 162.273L1443.21 90.6852L1438.91 95.2972L1551.94 126.368L1394.32 143.194L1272.24 126.368L1358.29 104.617L1311.64 54.6826C1306.26 54.5658 1300.84 54.1739 1295.42 53.5173L1287.08 53.551L1131.53 126.368L1033.48 86.5949L1093.39 53.6756C1084.95 55.0667 1076.43 55.7674 1067.96 55.8038C1057.31 55.8479 1046.59 54.8513 1036.06 52.762C1027.57 54.1376 1019.56 54.6826 1012.44 54.7397V54.7449H1011.9C1011.89 54.7449 1011.88 54.7474 1011.88 54.7474L968.079 54.9395C961.287 55.8349 954.458 56.2969 947.66 56.3254C940.847 56.3566 929.315 165.691 922.513 164.858L819.886 55.578L591.544 162.273L748.044 126.368L699.05 61.7809L432.923 162.273L574.615 57.9423C567.886 57.9657 561.215 57.5557 554.642 56.7356L491.428 57.008L488.089 57.021L478.212 72.8007L469.611 66.8237L461.387 82.0012L453.92 82.0323L410.196 166.059L370.477 98.4271L324.082 82.5955L214.085 83.0731L98.6422 83.5766L25.371 162.273L213.87 195.202L33.8024 293.421L20.1466 319.153C20.6344 320.747 21.0773 322.346 21.4752 323.947L55.4642 323.763L55.6682 354.128L27.5955 415.589L73.4896 386.612L79.6515 390.3H125.87L118.629 183.848L149.868 314.225L92.0963 220.787L25.402 260.859C25.2463 265.484 24.7239 270.143 23.8452 274.796L23.8936 281.959L24.1151 314.225L152.335 629.754L24.0596 448.347C25.9175 455.596 26.8517 462.92 26.9001 470.197C26.9624 479.349 25.6304 488.557 22.8383 497.601C24.6755 504.897 25.4055 511.775 25.4816 517.894H25.4886V518.359C25.4886 518.364 25.492 518.37 25.492 518.375L25.7446 555.997C26.9417 561.834 27.5574 567.702 27.5955 573.541C27.637 579.394 27.0974 585.27 25.9833 591.112L26.5991 683.304L26.6026 683.597L163.557 469.182L34.8854 787.11L143.38 707.653L29.7545 894.004C29.7856 899.786 29.2424 905.517 28.1457 911.162L28.509 965.467L28.5262 968.335L49.6033 976.821L41.6181 984.208L61.8924 991.272L61.9339 997.688L174.162 1035.25L60.6497 678.684L39.5035 718.541L40.1436 813.035L40.8113 912.208L143.38 896.106L97.5068 995.435L82.2421 1007.02L90.5802 1016.17L118.608 1026.36C118.615 1026.36 118.622 1026.36 118.629 1026.36L125.87 1026.33L129.153 1020.02L142.557 1026.26L143.38 1026.25C149.511 1025.51 155.652 1025.12 161.745 1025.09L163.557 1025.1C169.076 1025.14 174.65 1025.46 180.23 1026.09L347.296 974.172L235.528 1006.53L359.651 1025.31L347.296 1035.25L361.903 1025.3L324.082 936.814C330.313 936.046 427.017 1023.95 432.923 1023.92L434.884 1023.92C439.842 1023.97 445.364 1024.25 451.277 1024.92L511.12 1024.66L531.218 1024.57C478.212 931.084 543.431 1023.44 549.617 1023.42H550.936L657.553 980.045L673.841 1020.23L591.544 928.639L794.415 1023.43L794.546 1023.43L857.836 1023.15L1111.34 928.639C1117.56 927.892 916.279 1021.82 922.513 1021.79L925.661 1021.81C930.837 1021.89 936.027 1022.21 941.206 1022.79L974.098 1022.65L987.304 1022.6L987.308 1022.63C993.767 1022.74 1001.63 1023.27 1010.3 1024.73C1021 1022.46 1031.93 1021.32 1042.81 1021.27L1045.96 1021.29C1053.39 1021.4 1060.86 1022.03 1068.28 1023.18L1068.27 1022.24L1070.66 1022.23L1073.94 1015.92L1087.35 1022.16L1088.16 1022.15C1094.29 1021.41 1100.44 1021.02 1106.54 1021L922.513 931.639C928.028 931.678 1119.44 1021.37 1125.02 1021.99L1169.37 1021.8L1263.9 993.546L1325.51 982.853L1332.33 975.724L1226.34 965.457L1375.03 931.084L1503.38 997.688L1413.39 973.152L1421.05 981.563L1444.24 914.123L1510.05 1019.61C1513.64 1019.35 1517.22 1019.21 1520.81 1019.2L1523.96 1019.22C1529.13 1019.29 1534.32 1019.62 1539.5 1020.2L1545.41 1020.17L1545.42 1020.97C1546.28 1021.1 1547.15 1021.24 1548.02 1021.38L1551.94 1013.84L1565.5 1020.16C1571.86 1019.36 1675.66 951.198 1681.97 951.169L1586.34 1018.92C1591.87 1018.96 1597.46 1019.29 1603.06 1019.92L1681.97 1019.58L1837.2 874.344L1838.43 1017.9C1843.07 1018.01 1847.73 1018.32 1852.37 1018.84L1883.8 1018.7L1883.35 951.25L1899.23 951.169L1898.86 896.106L1705.31 763.048L1886.2 762.052L1899.85 736.319C1899.37 734.725 1898.92 733.127 1898.53 731.525L1864.54 731.709L1864.34 701.344L1725.52 452.915L1869.69 1012.83L1863.53 1009.14L1734.62 1009.85L1799.56 970.837L1748.81 940.445L1851.09 939.882L1917.78 899.81C1917.94 895.185 1918.46 890.529 1919.34 885.873L1919.29 878.71L1919.07 846.444H1681.97L1919.12 712.322C1917.26 705.073 1916.33 697.749 1916.28 690.472C1916.22 681.321 1917.55 672.112 1920.35 663.068C1918.51 655.772 1917.78 648.895 1917.7 642.775H1917.69V642.31C1917.69 642.305 1917.69 642.3 1917.69 642.295L1917.44 604.672C1916.24 598.835 1915.63 592.967 1915.59 587.128C1915.55 581.275 1916.09 575.4 1917.2 569.557L1916.58 477.366L1916.58 477.072L1681.97 530.915L1816.4 433.626L1706.78 260.859L1913.43 266.665C1913.4 260.883 1913.94 255.152 1915.04 249.507L1914.67 195.202L1914.66 192.335L1893.58 183.848L1901.56 176.461L1881.29 169.397L1881.25 162.981L1799.56 293.421L1859.35 330.072L1880.5 336.932L1879.86 242.438L1879.19 143.264L1747.99 64.7058L1681.97 149.67L1606.07 60.971L1576.12 50.7455ZM2029.8 973.123C2029.53 973.725 2029.32 974.346 2029.14 974.979C2029.3 974.387 2029.51 973.809 2029.75 973.243C2029.88 972.965 2030 972.69 2030.14 972.417L2029.8 973.123ZM2036.92 965.68C2036.64 965.838 2036.36 966.004 2036.09 966.175L2036.09 966.178C2036.49 965.924 2036.91 965.685 2037.34 965.457C2037.48 965.379 2037.63 965.296 2037.77 965.22L2036.92 965.68ZM2080.68 913.448L2056.14 913.586L2075.53 913.482L2080.69 913.451L2080.64 905.805L2080.68 913.448ZM6.92963 813.216L38.3341 813.042L6.85345 801.654L6.92963 813.216ZM-168.741 774.712L-174.982 774.745L-165.51 774.699L-168.741 774.712ZM-131.323 741.606C-131.271 741.613 -131.216 741.624 -131.164 741.634C-131.233 741.621 -131.299 741.605 -131.368 741.595C-131.351 741.598 -131.337 741.603 -131.323 741.606ZM-125.497 734.621C-125.611 734.582 -125.729 734.546 -125.847 734.512C-125.857 734.507 -125.871 734.505 -125.881 734.502C-125.753 734.541 -125.625 734.58 -125.497 734.621ZM2050.89 733.357H2050.99C2051.17 733.352 2051.36 733.337 2051.54 733.326C2051.32 733.337 2051.11 733.35 2050.89 733.357ZM2052.39 733.282C2052.47 733.277 2052.56 733.274 2052.64 733.269C2052.83 733.256 2053.01 733.235 2053.18 733.22C2052.92 733.243 2052.66 733.264 2052.39 733.282ZM2058.26 732.509C2058.3 732.501 2058.34 732.496 2058.38 732.485C2058.47 732.467 2058.56 732.444 2058.66 732.426C2058.52 732.454 2058.39 732.483 2058.26 732.509ZM2068.49 728.727C2067.78 729.138 2067.04 729.522 2066.29 729.877L2066.34 729.856C2066.61 729.724 2066.89 729.594 2067.16 729.457C2067.58 729.241 2068 729.018 2068.4 728.784C2068.43 728.769 2068.46 728.746 2068.49 728.727ZM2049.02 693.75C2047.15 693.763 2045.4 693.888 2043.75 694.124C2045.4 693.89 2047.15 693.765 2049.02 693.752L2049.02 693.755L2049.03 693.752C2049.16 693.752 2049.29 693.755 2049.42 693.755C2049.29 693.755 2049.16 693.75 2049.02 693.75ZM-175.771 666.138L-175.737 671.334L-175.771 665.798V666.138ZM-153.345 666.011L-154.712 666.538L-153.338 666.008L-153.345 666.011ZM2084.5 916.563H2084.52C2084.65 916.477 2084.79 916.384 2084.92 916.298C2084.78 916.386 2084.64 916.477 2084.5 916.563ZM2043.17 913.957C2043.21 914.014 2043.25 914.069 2043.29 914.123C2043.14 913.916 2042.99 913.705 2042.85 913.495C2042.95 913.648 2043.06 913.804 2043.17 913.957ZM2090.82 910.884C2090.81 910.889 2090.81 910.897 2090.81 910.902L2090.94 910.708C2090.9 910.767 2090.86 910.827 2090.82 910.884ZM2039.52 903.459C2039.53 903.581 2039.53 903.7 2039.54 903.822C2039.52 903.495 2039.51 903.168 2039.5 902.839L2039.5 902.836C2039.5 903.044 2039.52 903.251 2039.52 903.459ZM-150.646 830.491C-150.763 830.6 -150.871 830.714 -150.981 830.831C-150.871 830.716 -150.76 830.6 -150.646 830.491C-150.473 830.327 -150.296 830.169 -150.116 830.016L-150.646 830.491ZM-140.799 826.579C-141.477 826.624 -142.131 826.691 -142.768 826.792L-141.958 826.681C-141.581 826.637 -141.193 826.603 -140.799 826.579ZM-137.104 826.634C-137.201 826.626 -137.298 826.613 -137.398 826.606C-137.713 826.58 -138.035 826.561 -138.36 826.548C-137.934 826.567 -137.516 826.595 -137.104 826.634ZM-139.415 826.528C-139.827 826.53 -140.228 826.543 -140.626 826.566C-140.228 826.546 -139.82 826.533 -139.408 826.53C-139.097 826.53 -138.792 826.53 -138.488 826.541C-138.792 826.53 -139.104 826.528 -139.415 826.528ZM-118.11 822.943C-118.4 823.032 -118.688 823.128 -118.971 823.231C-118.954 823.226 -118.937 823.221 -118.919 823.216C-118.684 823.13 -118.449 823.05 -118.207 822.975C-117.968 822.899 -117.722 822.827 -117.477 822.759C-117.691 822.816 -117.902 822.879 -118.11 822.943ZM2100.54 810.476L2080.68 810.585L2100.54 810.478L2100.52 807.488L2100.54 810.476ZM-92.7253 790.995C-92.7219 791.563 -92.7426 792.126 -92.7841 792.679C-92.7426 792.126 -92.7219 791.566 -92.7253 790.997C-92.7253 790.712 -92.7357 790.426 -92.753 790.146V790.143C-92.7357 790.424 -92.7253 790.709 -92.7253 790.995ZM-135.561 777.086C-136.225 777.328 -136.865 777.59 -137.474 777.881C-137.114 777.709 -136.744 777.546 -136.36 777.393C-136.097 777.286 -135.831 777.185 -135.561 777.086ZM-133.36 776.404C-133.696 776.49 -134.025 776.586 -134.347 776.682C-134.025 776.586 -133.696 776.492 -133.36 776.404ZM-129.489 775.667C-130.485 775.791 -131.44 775.96 -132.357 776.16C-131.887 776.056 -131.406 775.965 -130.914 775.882L-129.489 775.667ZM-154.483 775.945L-154.479 775.952L-147.594 775.913L-154.483 775.945ZM-94.5625 775.623L-94.559 775.379L-94.6144 767.826L-94.5625 775.623ZM2079.67 731.671C2079.47 731.621 2079.28 731.572 2079.07 731.528C2078.86 731.484 2078.65 731.445 2078.43 731.406C2078.85 731.484 2079.27 731.572 2079.67 731.671ZM2094.43 729.833C2094.42 729.823 2094.4 729.815 2094.39 729.807C2094.25 729.69 2094.09 729.576 2093.94 729.462C2094.1 729.586 2094.27 729.706 2094.43 729.833ZM2099.85 682.229C2100 682.603 2100.13 682.982 2100.25 683.363C2100.01 682.598 2099.73 681.85 2099.39 681.121L2099.85 682.229ZM2063.38 674.3C2063.43 674.293 2063.48 674.287 2063.53 674.28L2063.54 674.277C2063.49 674.287 2063.43 674.293 2063.38 674.3ZM2064.14 674.189C2064.15 674.189 2064.15 674.186 2064.16 674.186C2064.28 674.17 2064.4 674.147 2064.52 674.132L2064.14 674.189ZM2069.38 665.8C2071.67 665.788 2073.86 665.912 2075.95 666.179C2073.86 665.912 2071.67 665.785 2069.38 665.798V665.8ZM2095.98 648.352C2095.8 648.516 2095.63 648.677 2095.45 648.83L2095.98 648.352C2096.12 648.215 2096.26 648.077 2096.39 647.934L2095.98 648.352ZM-122.417 590.068C-123.427 590.149 -124.476 590.19 -125.559 590.198L-125.555 590.201C-124.472 590.193 -123.427 590.151 -122.417 590.068ZM2068.74 570.468C2067.11 570.479 2065.57 570.575 2064.11 570.754C2065.57 570.575 2067.12 570.481 2068.74 570.471L2068.74 570.468ZM-152.794 512.314C-152.939 512.452 -153.074 512.592 -153.209 512.735L-152.794 512.317C-152.621 512.154 -152.445 511.993 -152.265 511.84L-152.794 512.314ZM-134.312 494.261C-131.762 494.684 -129.057 494.889 -126.202 494.871V494.869C-129.057 494.887 -131.762 494.684 -134.312 494.261ZM-120.978 486.483C-121.096 486.499 -121.217 486.522 -121.334 486.537L-120.957 486.48C-120.964 486.48 -120.971 486.483 -120.978 486.483ZM-157.067 477.306C-156.828 478.072 -156.541 478.819 -156.209 479.548L-156.669 478.44C-156.811 478.066 -156.946 477.687 -157.067 477.306ZM2047.44 453.016V453.019L2065.92 452.917L2065.92 452.92L2065.92 452.915L2047.44 453.016ZM-151.213 430.862C-151.064 430.979 -150.909 431.093 -150.756 431.207C-150.919 431.083 -151.085 430.963 -151.244 430.836C-151.234 430.847 -151.223 430.854 -151.213 430.862ZM-135.886 429.141C-135.679 429.186 -135.464 429.224 -135.253 429.263C-135.672 429.186 -136.083 429.097 -136.485 428.999C-136.288 429.048 -136.09 429.097 -135.886 429.141ZM2037.74 385.291L2037.8 392.843L2037.74 385.047L2037.74 385.291ZM2074.1 384.787C2073.62 384.87 2073.13 384.945 2072.63 385.008L2072.67 385.002C2073.67 384.878 2074.62 384.709 2075.54 384.509C2075.07 384.613 2074.59 384.704 2074.1 384.787ZM2090.78 384.756L2097.67 384.725L2097.66 384.717L2090.78 384.756ZM2080.66 382.786C2080.29 382.957 2079.93 383.123 2079.54 383.277C2079.28 383.386 2079.01 383.482 2078.74 383.58C2079.4 383.341 2080.04 383.077 2080.66 382.786ZM-157.358 350.191L-157.337 353.181L-157.354 350.194L-137.502 350.082L-157.358 350.191ZM2062.1 337.453C2061.87 337.539 2061.63 337.619 2061.39 337.695C2061.15 337.77 2060.9 337.842 2060.66 337.91C2060.87 337.853 2061.08 337.791 2061.29 337.726C2061.58 337.64 2061.87 337.541 2062.15 337.438C2062.14 337.443 2062.12 337.448 2062.1 337.453ZM2082.59 334.139C2082.28 334.139 2081.98 334.139 2081.67 334.129C2081.98 334.139 2082.29 334.141 2082.6 334.141C2083.01 334.139 2083.41 334.123 2083.8 334.1C2083.41 334.121 2083 334.136 2082.59 334.139ZM2080.58 334.064C2080.89 334.09 2081.22 334.108 2081.54 334.121C2081.12 334.103 2080.7 334.074 2080.29 334.035C2080.38 334.043 2080.48 334.056 2080.58 334.064ZM2085.14 333.988C2084.76 334.033 2084.38 334.064 2083.98 334.087C2084.66 334.043 2085.31 333.978 2085.95 333.877L2085.14 333.988ZM2087.74 333.495C2087.75 333.49 2087.77 333.487 2087.78 333.485C2087.93 333.443 2088.08 333.407 2088.23 333.363L2087.74 333.495ZM2093.83 330.176C2093.65 330.339 2093.48 330.5 2093.3 330.653L2093.83 330.178C2093.94 330.069 2094.05 329.955 2094.16 329.838C2094.05 329.953 2093.94 330.067 2093.83 330.176ZM2088.45 281.207L2088.68 281.067C2088.75 281.025 2088.82 280.978 2088.89 280.937L2088.45 281.207ZM-96.3235 257.831L-96.3201 257.833C-96.3201 257.626 -96.334 257.418 -96.3409 257.21C-96.3443 257.088 -96.3478 256.969 -96.3547 256.847C-96.3339 257.174 -96.327 257.501 -96.3235 257.831ZM-147.757 249.961C-147.719 249.902 -147.677 249.842 -147.636 249.785C-147.632 249.78 -147.632 249.772 -147.629 249.767L-147.757 249.961ZM-146.016 247.787C-145.926 247.693 -145.833 247.602 -145.74 247.511C-145.733 247.504 -145.726 247.496 -145.719 247.488C-145.819 247.587 -145.92 247.685 -146.016 247.787ZM-99.6691 247.174C-99.7729 247.021 -99.8732 246.865 -99.9839 246.712C-100.022 246.655 -100.067 246.601 -100.109 246.546C-99.9563 246.754 -99.811 246.964 -99.6691 247.174ZM-142.397 244.789C-142.346 244.753 -142.287 244.719 -142.231 244.683C-142.211 244.667 -142.19 244.651 -142.166 244.636C-142.242 244.688 -142.321 244.737 -142.397 244.789ZM-141.744 244.371C-141.602 244.283 -141.463 244.192 -141.321 244.106H-141.335C-141.474 244.192 -141.605 244.286 -141.744 244.371ZM2095.77 342.958V342.618L2095.74 337.422L2095.77 342.958ZM-123.746 361.348C-125.393 361.582 -127.154 361.707 -129.018 361.72L-129.022 361.717L-129.025 361.72C-129.16 361.72 -129.292 361.714 -129.423 361.714C-129.292 361.714 -129.157 361.722 -129.022 361.722C-127.154 361.709 -125.396 361.585 -123.746 361.348ZM-132.99 361.556C-132.243 361.624 -131.482 361.67 -130.693 361.696C-131.478 361.67 -132.243 361.624 -132.99 361.556ZM-135.547 361.229C-135.246 361.281 -134.945 361.328 -134.637 361.372C-134.945 361.33 -135.246 361.278 -135.547 361.229ZM-146.338 325.616C-146.611 325.748 -146.888 325.878 -147.158 326.015C-147.58 326.231 -147.995 326.454 -148.404 326.688C-148.445 326.711 -148.487 326.737 -148.528 326.76C-147.802 326.342 -147.054 325.956 -146.286 325.595L-146.338 325.616ZM-132.644 322.203C-132.828 322.216 -133.008 322.234 -133.188 322.25C-132.921 322.226 -132.655 322.206 -132.388 322.187C-132.471 322.193 -132.558 322.198 -132.644 322.203ZM-130.987 322.115C-131.174 322.122 -131.357 322.133 -131.544 322.143C-131.326 322.133 -131.108 322.12 -130.89 322.112L-130.987 322.115ZM2051.37 313.877C2051.35 313.874 2051.34 313.869 2051.32 313.867C2051.27 313.859 2051.22 313.849 2051.16 313.838C2051.23 313.851 2051.3 313.867 2051.37 313.877ZM2085.51 280.773L2088.74 280.76L2094.98 280.727L2085.51 280.773ZM1881.67 242.43L1913.15 253.818L1913.07 242.256L1881.67 242.43ZM-155.527 141.993L-160.682 142.021L-160.637 149.67L-160.679 142.024L-136.135 141.886L-155.527 141.993ZM-130.838 92.9406L-130.835 92.9432C-130.651 92.9432 -130.468 92.9302 -130.288 92.9276C-130.472 92.9302 -130.655 92.9406 -130.838 92.9406ZM-127.669 92.8004C-127.728 92.8056 -127.787 92.8108 -127.846 92.816C-127.638 92.8004 -127.434 92.7849 -127.23 92.7667C-127.375 92.7771 -127.524 92.79 -127.669 92.8004ZM-123.504 92.2113C-123.213 92.149 -122.926 92.0841 -122.639 92.014C-122.922 92.0815 -123.213 92.149 -123.504 92.2113ZM-116.089 89.2942C-116.491 89.5485 -116.909 89.7872 -117.338 90.0156C-117.484 90.0935 -117.625 90.1765 -117.774 90.2518L-116.916 89.7924C-116.636 89.6341 -116.363 89.468 -116.093 89.2967L-116.089 89.2942ZM-113.809 87.5708C-113.678 87.454 -113.55 87.3372 -113.422 87.2204C-113.55 87.3372 -113.678 87.4566 -113.809 87.5708ZM-110.142 83.0549L-109.799 82.3489C-109.786 82.3152 -109.775 82.2763 -109.761 82.2426C-109.879 82.5151 -110.003 82.785 -110.142 83.0549ZM213.87 58.2071L142.557 104.617L227.332 58.15L213.87 58.2071ZM2032.11 72.5671C2032.13 72.6891 2032.15 72.8111 2032.17 72.933C2032.14 72.7358 2032.12 72.5386 2032.1 72.3413C2032.1 72.4166 2032.11 72.4918 2032.11 72.5671ZM1762.12 51.4929L1752.57 60.4209L1822.5 60.0368L1826.26 57.1741L1826.22 51.2152L1762.12 51.4929ZM712.422 -35.1371L712.706 -35.1345L721.497 -35.176L712.422 -35.1371ZM1315.17 -36.4556L1315.17 -36.4529C1315.41 -36.4529 1315.65 -36.4633 1315.89 -36.4685C1316.03 -36.4711 1316.17 -36.4737 1316.32 -36.4789C1315.94 -36.4633 1315.56 -36.4581 1315.17 -36.4556ZM1327.57 -38.96C1327.75 -39.0379 1327.93 -39.1132 1328.11 -39.1962C1328.18 -39.2248 1328.24 -39.2585 1328.31 -39.2896C1328.07 -39.1755 1327.82 -39.0664 1327.57 -38.96ZM791.426 -56.2321L791.544 -42.3937H791.547L791.43 -56.2321L791.433 -56.2346L791.426 -56.2321ZM1851.77 -46.5436C1853.15 -46.1465 1854.61 -45.8948 1856.13 -45.7832C1854.66 -45.8896 1853.25 -46.1362 1851.91 -46.5099C1851.59 -46.6007 1851.27 -46.6968 1850.95 -46.8032L1851.77 -46.5436ZM1883.16 -52.1444C1882.98 -51.8044 1882.78 -51.4618 1882.58 -51.1322C1882.79 -51.4644 1882.98 -51.8044 1883.16 -52.1469C1883.2 -52.2196 1883.24 -52.2975 1883.27 -52.3728C1883.23 -52.2975 1883.2 -52.2196 1883.16 -52.1444ZM1843.11 -51.8745C1843.29 -51.6643 1843.48 -51.4566 1843.68 -51.2542L1843.69 -51.2516C1843.39 -51.5526 1843.11 -51.8667 1842.85 -52.1885C1842.76 -52.2975 1842.66 -52.4039 1842.57 -52.5155L1843.11 -51.8745ZM657.553 -52.2923C657.484 -52.4532 657.411 -52.6115 657.335 -52.7647C657.328 -52.7828 657.318 -52.801 657.307 -52.8165C657.39 -52.6452 657.477 -52.4688 657.553 -52.2923ZM1204.17 -82.1362L1207.65 -82.1492L1207.91 -52.5285L1207.66 -82.1518L1204.17 -82.1362ZM657.017 -53.372C657.1 -53.2266 657.172 -53.0813 657.249 -52.9334C657.169 -53.0943 657.089 -53.2552 656.999 -53.4135C657.006 -53.4005 657.013 -53.3849 657.017 -53.372ZM1883.99 -53.9222C1884.11 -54.2051 1884.22 -54.4906 1884.33 -54.7786L1884.37 -54.9162C1884.25 -54.5814 1884.13 -54.2492 1883.99 -53.9222ZM928.267 -58.342C928.274 -57.5323 928.326 -56.7485 928.423 -55.9932L928.312 -57.1482C928.288 -57.5401 928.274 -57.9398 928.271 -58.3447L928.267 -58.342ZM1526.56 -60.9374C1526.57 -59.6319 1526.71 -58.3992 1526.95 -57.2364C1526.71 -58.3992 1526.58 -59.6319 1526.56 -60.9348V-60.94C1526.56 -61.1191 1526.57 -61.2956 1526.57 -61.4721C1526.57 -61.2956 1526.56 -61.1165 1526.56 -60.9374ZM1885.59 -62.4946C1885.6 -60.9945 1885.48 -59.5541 1885.23 -58.1682C1885.41 -59.1622 1885.52 -60.1873 1885.57 -61.2385L1885.59 -62.4973C1885.59 -62.7801 1885.57 -63.063 1885.56 -63.3433C1885.57 -63.0604 1885.58 -62.7775 1885.59 -62.4946ZM1039.68 -63.7378C1039.37 -62.1728 1039.22 -60.5377 1039.24 -58.8248H1039.24C1039.23 -60.5377 1039.37 -62.1728 1039.68 -63.7378ZM1839.58 -60.0965C1839.6 -59.9201 1839.62 -59.7461 1839.65 -59.5748C1839.63 -59.6916 1839.62 -59.8058 1839.61 -59.9226C1839.6 -59.9797 1839.59 -60.0394 1839.58 -60.0965ZM712.117 -62.3545C712.214 -61.9963 712.301 -61.633 712.373 -61.2592L712.37 -61.2878C712.225 -62.0326 712.027 -62.7464 711.796 -63.4341C711.917 -63.0812 712.02 -62.7204 712.117 -62.3545ZM1572.67 -62.3156L1572.67 -62.4064C1572.66 -62.627 1572.63 -62.8475 1572.61 -63.063C1572.63 -62.8164 1572.66 -62.5673 1572.67 -62.3156ZM1572.57 -63.551C1572.57 -63.5821 1572.57 -63.6158 1572.56 -63.6495C1572.54 -63.813 1572.52 -63.9765 1572.5 -64.1374C1572.52 -63.9428 1572.55 -63.7482 1572.57 -63.551ZM1885.45 -64.8226C1885.45 -64.8823 1885.45 -64.942 1885.44 -65.0017C1885.42 -65.1652 1885.39 -65.3261 1885.37 -65.487C1885.4 -65.2664 1885.43 -65.0458 1885.45 -64.8226ZM1115.75 -66.0762C1115.7 -65.9231 1115.65 -65.7621 1115.61 -65.6038C1115.7 -65.9153 1115.8 -66.2241 1115.92 -66.5226C1115.86 -66.3772 1115.8 -66.2293 1115.75 -66.0762ZM709.747 -67.3194C709.965 -67.0313 710.17 -66.7354 710.36 -66.4318C710.484 -66.2397 710.598 -66.0424 710.713 -65.8452C710.422 -66.3565 710.104 -66.8496 709.747 -67.3194ZM1773.41 -84.607L1782.3 -84.6381L1782.47 -66.263L1782.34 -80.7814L1782.31 -84.6433L1773.41 -84.607ZM653.042 -66.9872C653.048 -67.0598 653.066 -67.1325 653.076 -67.2078C653.104 -67.444 653.124 -67.6853 653.138 -67.9267C653.118 -67.61 653.087 -67.296 653.042 -66.9872ZM1885.1 -67.1247C1885.08 -67.2181 1885.07 -67.3116 1885.05 -67.405C1885.03 -67.4777 1885.01 -67.5477 1884.99 -67.6204C1885.03 -67.4569 1885.07 -67.2908 1885.1 -67.1247ZM653.159 -68.7131C653.159 -68.4795 653.163 -68.2511 653.149 -68.0227C653.163 -68.2511 653.163 -68.4847 653.163 -68.7183C653.159 -69.0323 653.138 -69.3411 653.111 -69.6448C653.138 -69.3411 653.156 -69.0297 653.159 -68.7131ZM1884.85 -68.2121C1884.82 -68.3289 1884.79 -68.4457 1884.76 -68.5599C1884.74 -68.6248 1884.72 -68.6871 1884.7 -68.752C1884.75 -68.5729 1884.8 -68.3912 1884.85 -68.2121ZM1884.51 -69.3697C1884.47 -69.4761 1884.44 -69.5825 1884.41 -69.6889C1884.4 -69.7226 1884.39 -69.7538 1884.37 -69.7875C1884.42 -69.65 1884.46 -69.5098 1884.51 -69.3697ZM653.104 -69.7486C653.097 -69.8342 653.093 -69.9199 653.083 -70.0055L652.986 -70.6207C653.038 -70.3378 653.076 -70.0471 653.104 -69.7486ZM1331.15 -70.1457V-70.1561C1331.05 -70.2599 1330.94 -70.3585 1330.84 -70.4623C1330.94 -70.3559 1331.05 -70.2521 1331.15 -70.1457ZM1883.99 -70.7919C1884.07 -70.5973 1884.14 -70.4026 1884.21 -70.2054C1884 -70.7686 1883.78 -71.3214 1883.52 -71.8638L1883.99 -70.7919ZM1330.48 -70.8257C1330.5 -70.8127 1330.51 -70.7971 1330.53 -70.779C1330.47 -70.8361 1330.41 -70.8931 1330.35 -70.9502C1330.39 -70.9113 1330.43 -70.8672 1330.48 -70.8257ZM258.709 -70.9009L258.695 -73.3172L258.657 -77.9914L258.709 -70.9009ZM1568.01 -74.6512C1568.45 -74.1114 1568.85 -73.556 1569.22 -72.9876C1569.02 -73.2964 1568.82 -73.6001 1568.59 -73.9012C1568.44 -74.1062 1568.29 -74.3138 1568.13 -74.5137C1568.09 -74.5604 1568.05 -74.6045 1568.01 -74.6512ZM591.544 -73.094L591.381 -73.2731C591.333 -73.3224 591.284 -73.3691 591.239 -73.421L591.544 -73.094ZM1327.18 -73.4521C1327.19 -73.4469 1327.2 -73.4418 1327.21 -73.4366C1327.09 -73.5119 1326.98 -73.5871 1326.86 -73.6598C1326.97 -73.5923 1327.08 -73.5222 1327.18 -73.4521ZM1882.39 -73.9245L1881.85 -74.7317C1881.83 -74.755 1881.81 -74.7758 1881.8 -74.7991C1882 -74.5085 1882.2 -74.2204 1882.39 -73.9245ZM712.038 -79.9976L712.083 -74.8407L712.048 -80.0002L712.038 -79.9976ZM1324.54 -74.8718C1324.54 -74.8692 1324.55 -74.8692 1324.56 -74.8666L1324.33 -74.9626C1324.4 -74.9341 1324.47 -74.903 1324.54 -74.8718ZM1567.69 -75.0275C1567.58 -75.1677 1567.47 -75.3104 1567.34 -75.448C1567.31 -75.4791 1567.28 -75.5103 1567.25 -75.5414C1567.41 -75.3727 1567.55 -75.1988 1567.69 -75.0275ZM1113.75 -77.5502C1113.61 -77.4412 1113.48 -77.3219 1113.35 -77.2077C1113.49 -77.3296 1113.63 -77.4542 1113.78 -77.5736C1113.77 -77.5658 1113.76 -77.558 1113.75 -77.5502ZM1018.93 -78.7337C1019.12 -78.6039 1019.3 -78.4741 1019.48 -78.3392L1018.93 -78.7337C1018.77 -78.8427 1018.61 -78.9465 1018.44 -79.0451L1018.93 -78.7337ZM379.037 -78.5572L385.479 -78.5832H385.085L379.037 -78.5572ZM1059.68 -81.9337C1058.79 -81.7547 1057.92 -81.5418 1057.07 -81.2927L1058.36 -81.6379C1058.8 -81.7417 1059.24 -81.8429 1059.68 -81.9337ZM1062.42 -82.3646C1061.96 -82.3101 1061.49 -82.2452 1061.04 -82.1751C1061.95 -82.3178 1062.89 -82.4269 1063.84 -82.4995C1063.36 -82.4632 1062.89 -82.4191 1062.42 -82.3646ZM1871.01 -83.4858C1871.4 -83.3171 1871.8 -83.1328 1872.18 -82.9407C1871.41 -83.3223 1870.63 -83.6701 1869.82 -83.9815L1871.01 -83.4858ZM1867.34 -84.8068C1867.76 -84.6848 1868.18 -84.5603 1868.6 -84.4227C1867.77 -84.6952 1866.92 -84.934 1866.05 -85.1416L1867.34 -84.8068ZM633.818 1141.66C633.825 1141.67 633.832 1141.69 633.836 1141.7C633.919 1141.84 633.991 1141.99 634.067 1142.14C633.988 1141.98 633.908 1141.82 633.818 1141.66ZM1544.51 1120.04C1544.4 1119.9 1544.28 1119.76 1544.16 1119.62C1544.13 1119.59 1544.1 1119.56 1544.07 1119.53C1544.23 1119.7 1544.37 1119.87 1544.51 1120.04Z" fill="#262626"/>
</svg>
