<svg width="219" height="69" viewBox="0 0 219 69" fill="none" xmlns="http://www.w3.org/2000/svg">
<path d="M207.592 25.1875V33.273H200.096V25.1875H207.592ZM207.592 42.9806V51.0907H200.096V42.9806H207.592Z" fill="black"/>
<path d="M196.533 51.091H186.653V38.2623C185.375 38.2623 184.49 38.5326 183.999 39.0733C183.524 39.6139 183.286 40.6298 183.286 42.1207V51.091H174.193V43.4478C174.193 41.4981 174.299 40.0973 174.512 39.2453C174.725 38.3769 175.209 37.697 175.962 37.2055C176.732 36.714 178.035 36.2224 179.87 35.7309C177.494 35.5179 175.954 34.8462 175.25 33.7157C174.545 32.5688 174.193 30.529 174.193 27.5962C174.193 24.3522 175.127 22.0257 176.995 20.6166C178.879 19.1912 182.942 18.4785 189.184 18.4785H196.533V51.091ZM186.653 32.6098V24.8191H185.645C184.924 24.8191 184.351 25.0321 183.925 25.4581C183.499 25.8677 183.286 26.8426 183.286 28.3827V28.8005C183.286 30.3733 183.524 31.4055 183.999 31.8971C184.49 32.3722 185.375 32.6098 186.653 32.6098Z" fill="black"/>
<path d="M170.802 51.091H160.922V39.0733H157.358V51.091H147.503V18.4785H157.358V30.2013H160.922V18.4785H170.802V51.091Z" fill="black"/>
<path d="M145.021 57.3824H138.385V51.091H121.674V57.3824H115.038V43.3004H117.152C118.413 41.3507 119.445 38.3278 120.248 34.2318C121.067 30.1194 121.477 25.2697 121.477 19.6827V18.4785H142.907V43.2512H145.021V57.3824ZM133.052 43.2512V25.8268H130.472V26.1708C130.472 32.2329 129.489 37.9264 127.523 43.2512H133.052Z" fill="black"/>
<path d="M103.684 51.091H95.181V28.6039L91.0522 51.091H85.6209L81.3446 28.6039V51.091H72.8413V18.4785H85.1539L88.3242 36.4928L91.1996 18.4785H103.684V51.091Z" fill="black"/>
<path d="M69.5726 35.3623H56.7193V42.4156C56.7193 43.8902 56.8258 44.8404 57.0388 45.2664C57.2517 45.6924 57.6613 45.9054 58.2676 45.9054C59.0212 45.9054 59.5209 45.6269 59.7667 45.0698C60.0288 44.4964 60.1599 43.3986 60.1599 41.7766V37.4758H69.5726V39.8843C69.5726 41.8995 69.4415 43.4478 69.1793 44.5291C68.9336 45.6105 68.3437 46.7656 67.4099 47.9944C66.476 49.2232 65.2881 50.1489 63.8463 50.7715C62.4209 51.3777 60.6269 51.6808 58.4642 51.6808C56.367 51.6808 54.5156 51.3777 52.91 50.7715C51.3043 50.1653 50.051 49.3379 49.1498 48.2893C48.2651 47.2243 47.6507 46.061 47.3066 44.7995C46.9626 43.5215 46.7905 41.6701 46.7905 39.2453V29.7343C46.7905 26.8835 47.1756 24.6389 47.9456 23.0005C48.7157 21.3457 49.9772 20.0841 51.7303 19.2158C53.4834 18.331 55.4987 17.8887 57.776 17.8887C60.5613 17.8887 62.8551 18.4212 64.6573 19.4861C66.476 20.5347 67.7457 21.9355 68.4666 23.6886C69.2039 25.4253 69.5726 27.8748 69.5726 31.0369V35.3623ZM59.6192 30.0538V27.67C59.6192 25.9824 59.5291 24.8929 59.3489 24.4013C59.1687 23.9098 58.8 23.664 58.243 23.664C57.5549 23.664 57.1289 23.877 56.965 24.303C56.8012 24.7126 56.7193 25.8349 56.7193 27.67V30.0538H59.6192Z" fill="black"/>
<path d="M43.2271 11.3018V51.0904H34.1831V24.2288L30.5704 51.0904H24.156L20.3467 24.8432V51.0904H11.3027V11.3018H24.6967C25.0899 13.6938 25.5077 16.5119 25.9501 19.7559L27.3755 29.8813L29.7348 11.3018H43.2271Z" fill="black"/>
<path d="M218.894 13.8857V62.3926H188.794V51.0908H196.532V18.4785H189.185C189.053 18.4785 188.923 18.4798 188.794 18.4805V13.8857H218.894ZM200.096 42.9805V51.0908H207.592V42.9805H200.096ZM200.096 25.1875V33.2734H207.592V25.1875H200.096Z" fill="black"/>
<path d="M207.592 51.0908V42.9805H200.096V51.0908H207.592ZM200.096 25.1875V33.2734H207.592V25.1875H200.096ZM186.653 24.8193V32.6094C185.375 32.6094 184.491 32.3716 183.999 31.8965C183.524 31.405 183.286 30.3733 183.286 28.8008V28.3828C183.286 26.8429 183.499 25.8677 183.925 25.458C184.351 25.032 184.925 24.8193 185.646 24.8193H186.653ZM183.286 51.0908V42.1201C183.286 40.6294 183.524 39.6139 183.999 39.0732C184.491 38.5326 185.375 38.2617 186.653 38.2617V51.0908H196.532V18.4785H189.185C182.942 18.4785 178.878 19.1908 176.994 20.6162C175.127 22.0252 174.193 24.352 174.193 27.5957C174.193 30.5284 174.545 32.5689 175.25 33.7158C175.955 34.8461 177.495 35.5175 179.87 35.7305C178.035 36.222 176.732 36.7136 175.962 37.2051C175.208 37.6966 174.726 38.3769 174.513 39.2451C174.3 40.097 174.193 41.4978 174.193 43.4473V51.0908H183.286ZM207.835 62.3926H162.891V51.0908H170.802V18.4785H164.715C165.844 15.9523 167.585 13.5604 170.176 11.6025L170.465 11.3887C173.472 9.2202 176.923 8.3334 179.503 7.88086C182.417 7.36977 185.705 7.17578 189.185 7.17578H207.835V62.3926Z" fill="black"/>
<path d="M157.358 18.4785H147.503V51.0908H157.358V39.0732H160.922V51.0908H170.802V18.4785H160.922V30.2012H157.358V18.4785ZM182.104 18.9092C179.737 19.2617 178.034 19.8298 176.994 20.6162C175.127 22.0252 174.193 24.352 174.193 27.5957C174.193 30.5284 174.545 32.5689 175.25 33.7158C175.955 34.8461 177.495 35.5175 179.87 35.7305C178.035 36.222 176.732 36.7136 175.962 37.2051C175.208 37.6966 174.726 38.3769 174.513 39.2451C174.3 40.097 174.193 41.4978 174.193 43.4473V51.0908H182.104V62.3926H136.201V51.0908H138.386V57.3818H145.021V43.251H142.907V18.4785H136.201V7.17578H182.104V18.9092Z" fill="black"/>
<path d="M154.21 7.17578V18.4785H147.503V51.0908H156.323V68.6846H103.736V31.998H109.169C109.802 28.8104 110.175 24.7427 110.175 19.6826V7.17578H154.21ZM133.053 25.8262V43.251H127.522C129.489 37.9262 130.472 32.2329 130.472 26.1709V25.8262H133.053ZM121.674 57.3818V51.0908H138.386V57.3818H145.021V43.251H142.907V18.4785H121.478V19.6826C121.478 25.2695 121.067 30.1191 120.248 34.2314C119.445 38.3274 118.413 41.3501 117.151 43.2998H115.038V57.3818H121.674Z" fill="black"/>
<path d="M103.685 18.4785H91.1992L88.3242 36.4922L85.1533 18.4785H72.8408V51.0908H81.3447V28.6035L85.6211 51.0908H91.0518L95.1807 28.6035V51.0908H103.685V18.4785ZM114.986 62.3926H61.5391V51.4326C62.3929 51.2813 63.1626 51.0624 63.8467 50.7715C65.2884 50.1489 66.4763 49.2229 67.4102 47.9941C68.3439 46.7655 68.9339 45.6105 69.1797 44.5293C69.4418 43.4479 69.5723 41.899 69.5723 39.8838V37.4756H61.5391V35.3623H69.5723V31.0371C69.5723 27.875 69.2041 25.4252 68.4668 23.6885C67.7459 21.9354 66.4758 20.5349 64.6572 19.4863C63.744 18.9467 62.7047 18.5435 61.5391 18.2773V7.17578H114.986V62.3926Z" fill="black"/>
<path d="M57.7764 6.58594C61.9 6.58598 66.302 7.36238 70.3018 9.69434H70.3027C70.3191 9.70378 70.3352 9.71415 70.3516 9.72363C70.37 9.73444 70.3888 9.74499 70.4072 9.75586H70.4062C73.8309 11.7549 76.7139 14.6568 78.5166 18.4785H72.8408V51.0908H78.7441C78.0512 52.4957 77.2344 53.746 76.4082 54.833C74.2764 57.638 71.5212 59.7682 68.3271 61.1475L68.2979 61.1602L68.2695 61.1719C65.008 62.5589 61.5858 62.9824 58.4639 62.9824C55.2962 62.9824 52.0475 62.5263 48.918 61.3447C45.9626 60.2289 42.9767 58.4463 40.5781 55.6553L40.5166 55.584L40.4561 55.5117C39.3387 54.1667 38.3865 52.6888 37.6309 51.0908H43.2266V11.3018H43.1943C44.2843 10.4462 45.4638 9.70711 46.7139 9.08789V9.08887C50.2589 7.31628 54.0393 6.58594 57.7764 6.58594ZM57.7764 17.8887C55.499 17.8887 53.4836 18.3311 51.7305 19.2158C49.9774 20.0841 48.7154 21.3453 47.9453 23C47.1753 24.6384 46.791 26.8835 46.791 29.7344V39.2451C46.791 41.67 46.9626 43.5218 47.3066 44.7998C47.6507 46.0611 48.2649 47.2243 49.1494 48.2891C50.0505 49.3376 51.3045 50.1653 52.9102 50.7715C54.5157 51.3776 56.3669 51.6806 58.4639 51.6807C60.6266 51.6807 62.4213 51.3777 63.8467 50.7715C65.2884 50.1489 66.4763 49.2229 67.4102 47.9941C68.3439 46.7655 68.9339 45.6105 69.1797 44.5293C69.4418 43.4479 69.5723 41.899 69.5723 39.8838V37.4756H60.1602V41.7764C60.1602 43.3982 60.0287 44.4958 59.7666 45.0693C59.5208 45.6264 59.0212 45.9053 58.2676 45.9053C57.6615 45.9053 57.2521 45.6923 57.0391 45.2666C56.8261 44.8406 56.7197 43.8896 56.7197 42.415V35.3623H69.5723V31.0371C69.5723 27.875 69.2041 25.4252 68.4668 23.6885C67.7459 21.9354 66.4758 20.5349 64.6572 19.4863C62.8551 18.4214 60.5615 17.8887 57.7764 17.8887ZM58.2432 23.6641C58.8001 23.6641 59.1684 23.9099 59.3486 24.4014C59.5288 24.8929 59.6191 25.9824 59.6191 27.6699V30.0537H56.7197V27.6699C56.7197 25.8349 56.801 24.7123 56.9648 24.3027C57.1287 23.8768 57.5551 23.6641 58.2432 23.6641Z" fill="black"/>
<path d="M43.2266 11.3018H29.7344L27.375 29.8818L25.9502 19.7559C25.5078 16.512 25.0895 13.6937 24.6963 11.3018H11.3027V51.0908H20.3467V24.8438L24.1562 51.0908H30.5703L34.1826 24.2295V51.0908H43.2266V11.3018ZM54.5293 18.2266C53.532 18.4477 52.5991 18.7775 51.7305 19.2158C49.9774 20.0841 48.7154 21.3453 47.9453 23C47.1753 24.6384 46.791 26.8835 46.791 29.7344V39.2451C46.791 41.67 46.9626 43.5218 47.3066 44.7998C47.6507 46.0611 48.2649 47.2243 49.1494 48.2891C50.0505 49.3376 51.3045 50.1653 52.9102 50.7715C53.4246 50.9657 53.9644 51.1278 54.5293 51.2598V62.3926H0V0H54.5293V18.2266Z" fill="black"/>
</svg>
