<svg width="164" height="53" viewBox="0 0 164 53" fill="none" xmlns="http://www.w3.org/2000/svg">
<mask id="path-1-outside-1_208_654" maskUnits="userSpaceOnUse" x="-0.720703" y="-0.463379" width="165" height="54" fill="black">
<rect fill="white" x="-0.720703" y="-0.463379" width="165" height="54"/>
<path d="M12.709 39.5366V13.1856H25.3186V17.733H20.7116V39.5366H12.709ZM38.9607 39.5366V18.706H36.1211V32.0106C36.1211 34.4332 35.8431 36.1675 35.2871 37.2133C34.7311 38.2459 33.8507 38.8946 32.646 39.1593C31.4546 39.4109 29.4953 39.5366 26.7682 39.5366H25.4576V35.2275C26.477 35.2143 27.1786 35.0885 27.5625 34.8502C27.9464 34.5987 28.1384 33.7316 28.1384 32.2489V13.1856H46.9236V39.5366H38.9607ZM56.773 23.3924H49.247V21.6251C49.247 19.5864 49.4786 18.0176 49.942 16.9189C50.4186 15.8068 51.3651 14.8272 52.7816 13.9799C54.1981 13.1327 56.0382 12.7091 58.302 12.7091C61.0159 12.7091 63.0612 13.1923 64.438 14.1587C65.8148 15.1118 66.6422 16.29 66.9202 17.6933C67.1982 19.0833 67.3372 21.9561 67.3372 26.3115V39.5366H59.5332V37.1934C59.0434 38.1334 58.4079 38.8416 57.6268 39.3182C56.859 39.7815 55.939 40.0132 54.8666 40.0132C53.4634 40.0132 52.1726 39.6227 50.9944 38.8416C49.8294 38.0473 49.247 36.3197 49.247 33.6588V31.4943C49.247 29.5218 49.5581 28.1781 50.1803 27.4632C50.8025 26.7484 52.3447 25.9143 54.8071 24.9612C57.4415 23.9286 58.8514 23.2336 59.0367 22.8761C59.2221 22.5187 59.3147 21.7906 59.3147 20.6918C59.3147 19.315 59.2088 18.4214 58.997 18.011C58.7984 17.5874 58.4609 17.3756 57.9843 17.3756C57.4415 17.3756 57.1039 17.5543 56.9715 17.9117C56.8392 18.2559 56.773 19.1628 56.773 20.6322V23.3924ZM59.3147 27.0065C58.0306 27.9464 57.2827 28.7341 57.0708 29.3695C56.8723 30.005 56.773 30.9184 56.773 32.1099C56.773 33.4734 56.859 34.3538 57.0311 34.7509C57.2165 35.1481 57.5739 35.3467 58.1034 35.3467C58.6065 35.3467 58.9308 35.1944 59.0765 34.89C59.2353 34.5722 59.3147 33.7515 59.3147 32.4276V27.0065ZM88.6841 32.5865C88.6841 35.2739 88.095 37.1074 86.9168 38.087C85.7518 39.0534 83.21 39.5366 79.2915 39.5366H70.0974V13.1856H79.5695C82.8129 13.1856 85.0435 13.7218 86.2615 14.7941C87.4926 15.8664 88.1082 17.6999 88.1082 20.2946C88.1082 23.2733 86.5593 24.9678 83.4615 25.3782C85.0766 25.6429 86.3475 26.2784 87.2742 27.2845C88.2141 28.2774 88.6841 29.5284 88.6841 31.0376V32.5865ZM78.0603 22.9754C79.2782 22.9754 80.0196 22.8232 80.2843 22.5187C80.5623 22.2142 80.7013 21.6119 80.7013 20.7117C80.7013 19.9571 80.5491 19.4341 80.2446 19.1429C79.9401 18.8517 79.212 18.706 78.0603 18.706V22.9754ZM80.7013 31.3553V30.4617C80.7013 29.3232 80.5491 28.615 80.2446 28.337C79.9401 28.0457 79.212 27.9001 78.0603 27.9001V33.9964C79.1326 33.9964 79.8408 33.8441 80.185 33.5396C80.5292 33.2219 80.7013 32.4938 80.7013 31.3553ZM109.852 39.5366H101.87V29.8263H98.9902V39.5366H91.0273V13.1856H98.9902V22.6577H101.87V13.1856H109.852V39.5366ZM119.88 23.3924H112.354V21.6251C112.354 19.5864 112.586 18.0176 113.049 16.9189C113.526 15.8068 114.472 14.8272 115.889 13.9799C117.305 13.1327 119.146 12.7091 121.409 12.7091C124.123 12.7091 126.169 13.1923 127.545 14.1587C128.922 15.1118 129.75 16.29 130.028 17.6933C130.306 19.0833 130.445 21.9561 130.445 26.3115V39.5366H122.641V37.1934C122.151 38.1334 121.515 38.8416 120.734 39.3182C119.966 39.7815 119.046 40.0132 117.974 40.0132C116.571 40.0132 115.28 39.6227 114.102 38.8416C112.937 38.0473 112.354 36.3197 112.354 33.6588V31.4943C112.354 29.5218 112.665 28.1781 113.288 27.4632C113.91 26.7484 115.452 25.9143 117.914 24.9612C120.549 23.9286 121.959 23.2336 122.144 22.8761C122.329 22.5187 122.422 21.7906 122.422 20.6918C122.422 19.315 122.316 18.4214 122.104 18.011C121.906 17.5874 121.568 17.3756 121.092 17.3756C120.549 17.3756 120.211 17.5543 120.079 17.9117C119.946 18.2559 119.88 19.1628 119.88 20.6322V23.3924ZM122.422 27.0065C121.138 27.9464 120.39 28.7341 120.178 29.3695C119.98 30.005 119.88 30.9184 119.88 32.1099C119.88 33.4734 119.966 34.3538 120.138 34.7509C120.324 35.1481 120.681 35.3467 121.211 35.3467C121.714 35.3467 122.038 35.1944 122.184 34.89C122.343 34.5722 122.422 33.7515 122.422 32.4276V27.0065ZM151.136 39.5366H143.153V29.171C142.121 29.171 141.406 29.3894 141.009 29.8263C140.625 30.2631 140.433 31.0839 140.433 32.2886V39.5366H133.086V33.3609C133.086 31.7856 133.172 30.6537 133.344 29.9653C133.516 29.2636 133.906 28.7142 134.515 28.3171C135.138 27.9199 136.19 27.5228 137.673 27.1256C135.753 26.9535 134.509 26.4108 133.939 25.4973C133.37 24.5706 133.086 22.9225 133.086 20.5528C133.086 17.9316 133.84 16.0517 135.349 14.9132C136.872 13.7615 140.155 13.1856 145.199 13.1856H151.136V39.5366ZM143.153 24.6037V18.3089H142.339C141.757 18.3089 141.293 18.481 140.949 18.8252C140.605 19.1561 140.433 19.9438 140.433 21.1882V21.5258C140.433 22.7967 140.625 23.6307 141.009 24.0279C141.406 24.4118 142.121 24.6037 143.153 24.6037Z"/>
</mask>
<path d="M12.709 39.5366V13.1856H25.3186V17.733H20.7116V39.5366H12.709ZM38.9607 39.5366V18.706H36.1211V32.0106C36.1211 34.4332 35.8431 36.1675 35.2871 37.2133C34.7311 38.2459 33.8507 38.8946 32.646 39.1593C31.4546 39.4109 29.4953 39.5366 26.7682 39.5366H25.4576V35.2275C26.477 35.2143 27.1786 35.0885 27.5625 34.8502C27.9464 34.5987 28.1384 33.7316 28.1384 32.2489V13.1856H46.9236V39.5366H38.9607ZM56.773 23.3924H49.247V21.6251C49.247 19.5864 49.4786 18.0176 49.942 16.9189C50.4186 15.8068 51.3651 14.8272 52.7816 13.9799C54.1981 13.1327 56.0382 12.7091 58.302 12.7091C61.0159 12.7091 63.0612 13.1923 64.438 14.1587C65.8148 15.1118 66.6422 16.29 66.9202 17.6933C67.1982 19.0833 67.3372 21.9561 67.3372 26.3115V39.5366H59.5332V37.1934C59.0434 38.1334 58.4079 38.8416 57.6268 39.3182C56.859 39.7815 55.939 40.0132 54.8666 40.0132C53.4634 40.0132 52.1726 39.6227 50.9944 38.8416C49.8294 38.0473 49.247 36.3197 49.247 33.6588V31.4943C49.247 29.5218 49.5581 28.1781 50.1803 27.4632C50.8025 26.7484 52.3447 25.9143 54.8071 24.9612C57.4415 23.9286 58.8514 23.2336 59.0367 22.8761C59.2221 22.5187 59.3147 21.7906 59.3147 20.6918C59.3147 19.315 59.2088 18.4214 58.997 18.011C58.7984 17.5874 58.4609 17.3756 57.9843 17.3756C57.4415 17.3756 57.1039 17.5543 56.9715 17.9117C56.8392 18.2559 56.773 19.1628 56.773 20.6322V23.3924ZM59.3147 27.0065C58.0306 27.9464 57.2827 28.7341 57.0708 29.3695C56.8723 30.005 56.773 30.9184 56.773 32.1099C56.773 33.4734 56.859 34.3538 57.0311 34.7509C57.2165 35.1481 57.5739 35.3467 58.1034 35.3467C58.6065 35.3467 58.9308 35.1944 59.0765 34.89C59.2353 34.5722 59.3147 33.7515 59.3147 32.4276V27.0065ZM88.6841 32.5865C88.6841 35.2739 88.095 37.1074 86.9168 38.087C85.7518 39.0534 83.21 39.5366 79.2915 39.5366H70.0974V13.1856H79.5695C82.8129 13.1856 85.0435 13.7218 86.2615 14.7941C87.4926 15.8664 88.1082 17.6999 88.1082 20.2946C88.1082 23.2733 86.5593 24.9678 83.4615 25.3782C85.0766 25.6429 86.3475 26.2784 87.2742 27.2845C88.2141 28.2774 88.6841 29.5284 88.6841 31.0376V32.5865ZM78.0603 22.9754C79.2782 22.9754 80.0196 22.8232 80.2843 22.5187C80.5623 22.2142 80.7013 21.6119 80.7013 20.7117C80.7013 19.9571 80.5491 19.4341 80.2446 19.1429C79.9401 18.8517 79.212 18.706 78.0603 18.706V22.9754ZM80.7013 31.3553V30.4617C80.7013 29.3232 80.5491 28.615 80.2446 28.337C79.9401 28.0457 79.212 27.9001 78.0603 27.9001V33.9964C79.1326 33.9964 79.8408 33.8441 80.185 33.5396C80.5292 33.2219 80.7013 32.4938 80.7013 31.3553ZM109.852 39.5366H101.87V29.8263H98.9902V39.5366H91.0273V13.1856H98.9902V22.6577H101.87V13.1856H109.852V39.5366ZM119.88 23.3924H112.354V21.6251C112.354 19.5864 112.586 18.0176 113.049 16.9189C113.526 15.8068 114.472 14.8272 115.889 13.9799C117.305 13.1327 119.146 12.7091 121.409 12.7091C124.123 12.7091 126.169 13.1923 127.545 14.1587C128.922 15.1118 129.75 16.29 130.028 17.6933C130.306 19.0833 130.445 21.9561 130.445 26.3115V39.5366H122.641V37.1934C122.151 38.1334 121.515 38.8416 120.734 39.3182C119.966 39.7815 119.046 40.0132 117.974 40.0132C116.571 40.0132 115.28 39.6227 114.102 38.8416C112.937 38.0473 112.354 36.3197 112.354 33.6588V31.4943C112.354 29.5218 112.665 28.1781 113.288 27.4632C113.91 26.7484 115.452 25.9143 117.914 24.9612C120.549 23.9286 121.959 23.2336 122.144 22.8761C122.329 22.5187 122.422 21.7906 122.422 20.6918C122.422 19.315 122.316 18.4214 122.104 18.011C121.906 17.5874 121.568 17.3756 121.092 17.3756C120.549 17.3756 120.211 17.5543 120.079 17.9117C119.946 18.2559 119.88 19.1628 119.88 20.6322V23.3924ZM122.422 27.0065C121.138 27.9464 120.39 28.7341 120.178 29.3695C119.98 30.005 119.88 30.9184 119.88 32.1099C119.88 33.4734 119.966 34.3538 120.138 34.7509C120.324 35.1481 120.681 35.3467 121.211 35.3467C121.714 35.3467 122.038 35.1944 122.184 34.89C122.343 34.5722 122.422 33.7515 122.422 32.4276V27.0065ZM151.136 39.5366H143.153V29.171C142.121 29.171 141.406 29.3894 141.009 29.8263C140.625 30.2631 140.433 31.0839 140.433 32.2886V39.5366H133.086V33.3609C133.086 31.7856 133.172 30.6537 133.344 29.9653C133.516 29.2636 133.906 28.7142 134.515 28.3171C135.138 27.9199 136.19 27.5228 137.673 27.1256C135.753 26.9535 134.509 26.4108 133.939 25.4973C133.37 24.5706 133.086 22.9225 133.086 20.5528C133.086 17.9316 133.84 16.0517 135.349 14.9132C136.872 13.7615 140.155 13.1856 145.199 13.1856H151.136V39.5366ZM143.153 24.6037V18.3089H142.339C141.757 18.3089 141.293 18.481 140.949 18.8252C140.605 19.1561 140.433 19.9438 140.433 21.1882V21.5258C140.433 22.7967 140.625 23.6307 141.009 24.0279C141.406 24.4118 142.121 24.6037 143.153 24.6037Z" fill="#FF00A0"/>
<path d="M12.709 39.5366H0.000201046V52.2455H12.709V39.5366ZM12.709 13.1856V0.476795H0.000201046V13.1856H12.709ZM25.3186 13.1856H38.0274V0.476795H25.3186V13.1856ZM25.3186 17.733V30.4419H38.0274V17.733H25.3186ZM20.7116 17.733V5.02418H8.0028V17.733H20.7116ZM20.7116 39.5366V52.2455H33.4205V39.5366H20.7116ZM12.709 39.5366H25.4179V13.1856H12.709H0.000201046V39.5366H12.709ZM12.709 13.1856V25.8945H25.3186V13.1856V0.476795H12.709V13.1856ZM25.3186 13.1856H12.6098V17.733H25.3186H38.0274V13.1856H25.3186ZM25.3186 17.733V5.02418H20.7116V17.733V30.4419H25.3186V17.733ZM20.7116 17.733H8.0028V39.5366H20.7116H33.4205V17.733H20.7116ZM20.7116 39.5366V26.8278H12.709V39.5366V52.2455H20.7116V39.5366ZM38.9607 39.5366H26.2519V52.2455H38.9607V39.5366ZM38.9607 18.706H51.6696V5.9972H38.9607V18.706ZM36.1211 18.706V5.9972H23.4123V18.706H36.1211ZM35.2871 37.2133L46.4769 43.2385L46.4928 43.2089L46.5086 43.1792L35.2871 37.2133ZM32.646 39.1593L35.2712 51.5941L35.3227 51.5832L35.3741 51.5719L32.646 39.1593ZM25.4576 39.5366H12.7488V52.2455H25.4576V39.5366ZM25.4576 35.2275L25.2926 22.5198L12.7488 22.6827V35.2275H25.4576ZM27.5625 34.8502L34.2647 45.6482L34.397 45.566L34.5273 45.4807L27.5625 34.8502ZM28.1384 13.1856V0.476795H15.4295V13.1856H28.1384ZM46.9236 13.1856H59.6325V0.476795H46.9236V13.1856ZM46.9236 39.5366V52.2455H59.6325V39.5366H46.9236ZM38.9607 39.5366H51.6696V18.706H38.9607H26.2519V39.5366H38.9607ZM38.9607 18.706V5.9972H36.1211V18.706V31.4149H38.9607V18.706ZM36.1211 18.706H23.4123V32.0106H36.1211H48.8299V18.706H36.1211ZM36.1211 32.0106H23.4123C23.4123 32.3776 23.4016 32.6541 23.3885 32.8504C23.3751 33.0496 23.3616 33.1316 23.364 33.1166C23.3656 33.1066 23.3927 32.9361 23.4791 32.648C23.5636 32.3663 23.7361 31.867 24.0656 31.2474L35.2871 37.2133L46.5086 43.1792C48.6205 39.2069 48.8299 34.7695 48.8299 32.0106H36.1211ZM35.2871 37.2133L24.0973 31.188C24.6445 30.1718 25.4903 29.1129 26.6709 28.2429C27.8367 27.3839 29.0043 26.9476 29.918 26.7467L32.646 39.1593L35.3741 51.5719C39.9818 50.5592 44.0644 47.7188 46.4769 43.2385L35.2871 37.2133ZM32.646 39.1593L30.0209 26.7246C30.2701 26.672 30.1597 26.7152 29.4689 26.7596C28.8414 26.7998 27.9559 26.8278 26.7682 26.8278V39.5366V52.2455C29.5674 52.2455 32.6784 52.1415 35.2712 51.5941L32.646 39.1593ZM26.7682 39.5366V26.8278H25.4576V39.5366V52.2455H26.7682V39.5366ZM25.4576 39.5366H38.1664V35.2275H25.4576H12.7488V39.5366H25.4576ZM25.4576 35.2275L25.6226 47.9353C26.7173 47.9211 30.6285 47.9051 34.2647 45.6482L27.5625 34.8502L20.8603 24.0523C21.7871 23.477 22.6122 23.147 23.1741 22.9586C23.7477 22.7662 24.2125 22.6664 24.5061 22.6138C25.0635 22.5139 25.3754 22.5187 25.2926 22.5198L25.4576 35.2275ZM27.5625 34.8502L34.5273 45.4807C39.1479 42.4534 40.1792 37.7685 40.4028 36.7582C40.7868 35.0235 40.8472 33.3881 40.8472 32.2489H28.1384H15.4295C15.4295 32.5924 15.3939 32.1319 15.586 31.2643C15.6855 30.8146 15.9288 29.868 16.515 28.7293C17.0918 27.6087 18.301 25.7246 20.5977 24.2198L27.5625 34.8502ZM28.1384 32.2489H40.8472V13.1856H28.1384H15.4295V32.2489H28.1384ZM28.1384 13.1856V25.8945H46.9236V13.1856V0.476795H28.1384V13.1856ZM46.9236 13.1856H34.2148V39.5366H46.9236H59.6325V13.1856H46.9236ZM46.9236 39.5366V26.8278H38.9607V39.5366V52.2455H46.9236V39.5366ZM56.773 23.3924V36.1013H69.4818V23.3924H56.773ZM49.247 23.3924H36.5381V36.1013H49.247V23.3924ZM49.942 16.9189L38.2607 11.9126L38.2461 11.9467L38.2317 11.9808L49.942 16.9189ZM64.438 14.1587L57.1365 24.5607L57.1702 24.5844L57.204 24.6078L64.438 14.1587ZM66.9202 17.6933L54.4536 20.1631L54.4559 20.1744L54.4581 20.1857L66.9202 17.6933ZM67.3372 39.5366V52.2455H80.046V39.5366H67.3372ZM59.5332 39.5366H46.8243V52.2455H59.5332V39.5366ZM59.5332 37.1934H72.242L48.2629 31.3202L59.5332 37.1934ZM57.6268 39.3182L64.1931 50.1993L64.2198 50.1832L64.2464 50.167L57.6268 39.3182ZM50.9944 38.8416L43.8351 49.342L43.9034 49.3886L43.9723 49.4343L50.9944 38.8416ZM50.1803 27.4632L40.5939 19.1196L50.1803 27.4632ZM54.8071 24.9612L59.3949 36.813L59.4199 36.8033L59.4449 36.7936L54.8071 24.9612ZM58.997 18.011L47.4897 23.4051L47.5925 23.6245L47.7037 23.8398L58.997 18.011ZM56.9715 17.9117L68.8333 22.4739L68.8617 22.4L68.8892 22.3257L56.9715 17.9117ZM59.3147 27.0065H72.0236V1.9546L51.8084 16.7513L59.3147 27.0065ZM57.0708 29.3695L45.0142 25.3507L44.9763 25.4644L44.9405 25.5788L57.0708 29.3695ZM57.0311 34.7509L45.3701 39.8041L45.4401 39.9657L45.5146 40.1253L57.0311 34.7509ZM59.0765 34.89L47.7093 29.2064L47.6595 29.3061L47.6114 29.4067L59.0765 34.89ZM56.773 23.3924V10.6836H49.247V23.3924V36.1013H56.773V23.3924ZM49.247 23.3924H61.9558V21.6251H49.247H36.5381V23.3924H49.247ZM49.247 21.6251H61.9558C61.9558 21.3534 61.9636 21.1468 61.9731 20.9987C61.9778 20.9256 61.9827 20.8706 61.9866 20.8325C61.9905 20.7943 61.9932 20.7761 61.9932 20.7762C61.9932 20.7762 61.9899 20.7983 61.9816 20.8402C61.9732 20.882 61.9589 20.948 61.9362 21.0353C61.8921 21.2043 61.807 21.4898 61.6522 21.8569L49.942 16.9189L38.2317 11.9808C36.8005 15.3747 36.5381 18.9242 36.5381 21.6251H49.247ZM49.942 16.9189L61.6232 21.9251C60.7221 24.0278 59.3654 24.8507 59.3053 24.8867L52.7816 13.9799L46.258 3.07321C43.3647 4.80373 40.115 7.58583 38.2607 11.9126L49.942 16.9189ZM52.7816 13.9799L59.3053 24.8867C58.7234 25.2347 58.2661 25.3677 58.0753 25.4117C57.8972 25.4527 57.9466 25.4179 58.302 25.4179V12.7091V0.000213005C54.5603 0.000213005 50.2474 0.687024 46.258 3.07321L52.7816 13.9799ZM58.302 12.7091V25.4179C58.9438 25.4179 59.1146 25.4788 58.9494 25.4398C58.7785 25.3994 58.0542 25.2049 57.1365 24.5607L64.438 14.1587L71.7395 3.75657C67.2743 0.622405 62.1609 0.000213005 58.302 0.000213005V12.7091ZM64.438 14.1587L57.204 24.6078C56.8571 24.3676 56.2666 23.8811 55.6906 23.0609C55.093 22.2099 54.6612 21.2106 54.4536 20.1631L66.9202 17.6933L79.3867 15.2235C78.3586 10.0337 75.2662 6.19785 71.672 3.70955L64.438 14.1587ZM66.9202 17.6933L54.4581 20.1857C54.4031 19.9106 54.4756 20.1958 54.539 21.5046C54.5949 22.6612 54.6284 24.2462 54.6284 26.3115H67.3372H80.046C80.046 22.194 79.9497 18.0382 79.3822 15.2009L66.9202 17.6933ZM67.3372 26.3115H54.6284V39.5366H67.3372H80.046V26.3115H67.3372ZM67.3372 39.5366V26.8278H59.5332V39.5366V52.2455H67.3372V39.5366ZM59.5332 39.5366H72.242V37.1934H59.5332H46.8243V39.5366H59.5332ZM59.5332 37.1934L48.2629 31.3202C48.6698 30.5393 49.5192 29.3774 51.0073 28.4694L57.6268 39.3182L64.2464 50.167C67.2966 48.3058 69.4169 45.7274 70.8035 43.0667L59.5332 37.1934ZM57.6268 39.3182L51.0606 28.437C52.6312 27.4893 54.0803 27.3044 54.8666 27.3044V40.0132V52.722C57.7976 52.722 61.0869 52.0738 64.1931 50.1993L57.6268 39.3182ZM54.8666 40.0132V27.3044C55.361 27.3044 55.9307 27.3758 56.5266 27.5561C57.1217 27.7361 57.6242 27.9888 58.0165 28.2489L50.9944 38.8416L43.9723 49.4343C47.2161 51.5846 50.9461 52.722 54.8666 52.722V40.0132ZM50.9944 38.8416L58.1538 28.3412C60.4484 29.9057 61.3943 31.9042 61.7266 32.8898C62.0288 33.7862 61.9558 34.1837 61.9558 33.6588H49.247H36.5381C36.5381 36.9808 37.047 44.7138 43.8351 49.342L50.9944 38.8416ZM49.247 33.6588H61.9558V31.4943H49.247H36.5381V33.6588H49.247ZM49.247 31.4943H61.9558C61.9558 31.0976 61.9946 31.2994 61.8616 31.8738C61.7467 32.3702 61.3019 34.0429 59.7666 35.8069L50.1803 27.4632L40.5939 19.1196C36.6818 23.6144 36.5381 29.2224 36.5381 31.4943H49.247ZM50.1803 27.4632L59.7666 35.8069C59.4003 36.2278 59.0671 36.5428 58.819 36.7597C58.5678 36.9792 58.358 37.1378 58.2153 37.2399C57.9431 37.4347 57.7935 37.5105 57.8489 37.4805C57.8917 37.4574 58.0364 37.3823 58.3122 37.2593C58.5832 37.1383 58.9399 36.9892 59.3949 36.813L54.8071 24.9612L50.2193 13.1093C48.7113 13.693 47.1722 14.358 45.7583 15.1226C44.5866 15.7562 42.4255 17.0151 40.5939 19.1196L50.1803 27.4632ZM54.8071 24.9612L59.4449 36.7936C60.8774 36.2321 62.2763 35.6478 63.4596 35.0645C64.0268 34.7849 64.8344 34.3648 65.6669 33.8156C66.0832 33.5409 66.7188 33.0952 67.4063 32.4771C67.9712 31.9693 69.2839 30.7225 70.3191 28.7262L59.0367 22.8761L47.7544 17.026C48.2886 15.9959 48.8682 15.2312 49.2889 14.7343C49.7215 14.2235 50.1211 13.8376 50.4133 13.5748C50.978 13.0672 51.4524 12.7425 51.6694 12.5994C52.1031 12.3133 52.3588 12.1985 52.2211 12.2664C51.9944 12.3781 51.3712 12.6577 50.1693 13.1288L54.8071 24.9612ZM59.0367 22.8761L70.3191 28.7262C71.4496 26.5458 71.7462 24.5006 71.8524 23.6665C71.9908 22.579 72.0236 21.5421 72.0236 20.6918H59.3147H46.6059C46.6059 20.9402 46.5924 20.8169 46.6381 20.4574C46.6623 20.2676 46.7183 19.8874 46.8468 19.3856C46.9659 18.9206 47.2215 18.0539 47.7544 17.026L59.0367 22.8761ZM59.3147 20.6918H72.0236C72.0236 19.7355 71.9897 18.6231 71.8558 17.4932C71.7605 16.6892 71.4804 14.4879 70.2904 12.1822L58.997 18.011L47.7037 23.8398C47.1382 22.7442 46.8899 21.8346 46.7884 21.418C46.6738 20.9477 46.6298 20.6111 46.6148 20.4848C46.5868 20.2485 46.6059 20.2713 46.6059 20.6918H59.3147ZM58.997 18.011L70.5044 12.617C69.5528 10.587 67.9233 8.38417 65.3495 6.76924C62.7906 5.16362 60.1395 4.66674 57.9843 4.66674V17.3756V30.0844C56.3057 30.0844 54.0617 29.6935 51.8403 28.2996C49.6041 26.8965 48.2427 25.0114 47.4897 23.4051L58.997 18.011ZM57.9843 17.3756V4.66674C56.4589 4.66674 53.9865 4.89659 51.3777 6.2777C48.4546 7.8252 46.2075 10.3829 45.0538 13.4978L56.9715 17.9117L68.8892 22.3257C67.868 25.0831 65.8558 27.3728 63.2703 28.7415C60.9991 29.9439 58.9669 30.0844 57.9843 30.0844V17.3756ZM56.9715 17.9117L45.1098 13.3495C44.2918 15.4764 44.177 17.5203 44.1475 17.9248C44.0826 18.8142 44.0641 19.7515 44.0641 20.6322H56.773H69.4818C69.4818 20.3566 69.485 20.145 69.4893 19.9895C69.4938 19.8289 69.4985 19.7644 69.4977 19.7752C69.4971 19.7833 69.4939 19.8273 69.4859 19.9008C69.4782 19.9719 69.4632 20.0985 69.4364 20.2677C69.4105 20.4306 69.3644 20.692 69.286 21.0203C69.212 21.3301 69.0746 21.8465 68.8333 22.4739L56.9715 17.9117ZM56.773 20.6322H44.0641V23.3924H56.773H69.4818V20.6322H56.773ZM59.3147 27.0065L51.8084 16.7513C50.8075 17.4839 49.6525 18.4162 48.5748 19.551C47.623 20.5534 45.9638 22.5017 45.0142 25.3507L57.0708 29.3695L69.1275 33.3884C68.7305 34.5793 68.2201 35.4466 67.8668 35.9705C67.5055 36.5062 67.1836 36.8669 67.0065 37.0534C66.6768 37.4006 66.5379 37.469 66.8211 37.2617L59.3147 27.0065ZM57.0708 29.3695L44.9405 25.5788C44.169 28.0475 44.0641 30.4773 44.0641 32.1099H56.773H69.4818C69.4818 31.8465 69.4938 31.7947 69.4819 31.9045C69.4752 31.9658 69.4584 32.102 69.4207 32.2983C69.3835 32.4915 69.3174 32.7884 69.2012 33.1603L57.0708 29.3695ZM56.773 32.1099H44.0641C44.0641 33.0095 44.0904 34.0214 44.1889 35.0291C44.2555 35.7103 44.4545 37.6912 45.3701 39.8041L57.0311 34.7509L68.6922 29.6978C68.927 30.2398 69.0785 30.7024 69.1742 31.0314C69.2719 31.3677 69.3351 31.6467 69.3752 31.8453C69.4526 32.2279 69.4793 32.4871 69.4861 32.5565C69.4985 32.6839 69.4818 32.5738 69.4818 32.1099H56.773ZM57.0311 34.7509L45.5146 40.1253C46.6538 42.5664 48.5741 44.8117 51.2662 46.3073C53.8097 47.7203 56.2991 48.0555 58.1034 48.0555V35.3467V22.6378C59.3782 22.6378 61.4241 22.8738 63.6102 24.0882C65.9448 25.3853 67.5938 27.3326 68.5477 29.3766L57.0311 34.7509ZM58.1034 35.3467V48.0555C60.7916 48.0555 67.3243 47.1002 70.5415 40.3733L59.0765 34.89L47.6114 29.4067C48.8861 26.7414 51.0062 24.8159 53.3239 23.728C55.3907 22.7579 57.1933 22.6378 58.1034 22.6378V35.3467ZM59.0765 34.89L70.4436 40.5735C71.6756 38.1095 71.8615 35.7084 71.9049 35.2602C72.0002 34.2756 72.0236 33.2859 72.0236 32.4276H59.3147H46.6059C46.6059 32.8932 46.5896 32.9758 46.6054 32.8119C46.6135 32.7282 46.6457 32.4112 46.7414 31.9538C46.7911 31.7163 46.873 31.3678 47.0052 30.9462C47.1325 30.5401 47.3501 29.9248 47.7093 29.2064L59.0765 34.89ZM59.3147 32.4276H72.0236V27.0065H59.3147H46.6059V32.4276H59.3147ZM86.9168 38.087L95.0309 47.8684L95.0364 47.8638L95.042 47.8592L86.9168 38.087ZM70.0974 39.5366H57.3886V52.2455H70.0974V39.5366ZM70.0974 13.1856V0.476795H57.3886V13.1856H70.0974ZM86.2615 14.7941L77.8633 24.3327L77.8889 24.3552L77.9145 24.3776L86.2615 14.7941ZM83.4615 25.3782L81.7925 12.7794L81.4056 37.9196L83.4615 25.3782ZM87.2742 27.2845L77.9263 35.8944L77.9852 35.9584L78.0449 36.0215L87.2742 27.2845ZM78.0603 22.9754H65.3514V35.6843H78.0603V22.9754ZM80.2843 22.5187L70.899 13.9495L70.7952 14.0632L70.6942 14.1794L80.2843 22.5187ZM80.2446 19.1429L71.46 28.3268L80.2446 19.1429ZM78.0603 18.706V5.9972H65.3514V18.706H78.0603ZM80.2446 28.337L71.46 37.5209L71.5665 37.6228L71.6754 37.7222L80.2446 28.337ZM78.0603 27.9001V15.1912H65.3514V27.9001H78.0603ZM78.0603 33.9964H65.3514V46.7052H78.0603V33.9964ZM80.185 33.5396L88.6056 43.0585L88.7063 42.9694L88.8052 42.8781L80.185 33.5396ZM88.6841 32.5865H75.9752C75.9752 33.0907 75.909 32.8166 76.1426 32.0895C76.398 31.2947 77.1001 29.7212 78.7916 28.3148L86.9168 38.087L95.042 47.8592C100.707 43.1488 101.393 36.342 101.393 32.5865H88.6841ZM86.9168 38.087L78.8026 28.3056C79.8259 27.4568 80.7296 27.0521 81.1562 26.8853C81.6022 26.7109 81.8439 26.6736 81.7632 26.689C81.6988 26.7012 81.4668 26.7395 81.0243 26.7726C80.5893 26.8051 80.0177 26.8278 79.2915 26.8278V39.5366V52.2455C81.6855 52.2455 84.1676 52.1048 86.5102 51.6595C88.5833 51.2653 92.0058 50.3778 95.0309 47.8684L86.9168 38.087ZM79.2915 39.5366V26.8278H70.0974V39.5366V52.2455H79.2915V39.5366ZM70.0974 39.5366H82.8062V13.1856H70.0974H57.3886V39.5366H70.0974ZM70.0974 13.1856V25.8945H79.5695V13.1856V0.476795H70.0974V13.1856ZM79.5695 13.1856V25.8945C80.5669 25.8945 80.8704 25.9844 80.7049 25.9447C80.5986 25.9191 80.2637 25.8308 79.7862 25.6081C79.3034 25.3829 78.6089 24.9892 77.8633 24.3327L86.2615 14.7941L94.6596 5.25546C89.7066 0.894681 83.2705 0.476795 79.5695 0.476795V13.1856ZM86.2615 14.7941L77.9145 24.3776C76.535 23.1761 75.8764 21.846 75.5986 21.0184C75.348 20.272 75.3994 19.9335 75.3994 20.2946H88.1082H100.817C100.817 16.1609 99.893 9.81336 94.6084 5.21059L86.2615 14.7941ZM88.1082 20.2946H75.3994C75.3994 19.5819 75.6237 17.3501 77.566 15.2251C79.4337 13.1818 81.4479 12.8251 81.7925 12.7794L83.4615 25.3782L85.1306 37.9769C88.573 37.5209 92.9105 36.1117 96.3271 32.3739C99.8183 28.5544 100.817 23.986 100.817 20.2946H88.1082ZM83.4615 25.3782L81.4056 37.9196C81.1392 37.8759 80.6086 37.7535 79.9424 37.4205C79.2536 37.0761 78.5474 36.5688 77.9263 35.8944L87.2742 27.2845L96.6221 18.6746C93.4145 15.192 89.3645 13.4674 85.5175 12.8367L83.4615 25.3782ZM87.2742 27.2845L78.0449 36.0215C77.3775 35.3165 76.8094 34.4345 76.4345 33.4367C76.068 32.4609 75.9752 31.6137 75.9752 31.0376H88.6841H101.393C101.393 26.6456 99.9181 22.1545 96.5034 18.5475L87.2742 27.2845ZM88.6841 31.0376H75.9752V32.5865H88.6841H101.393V31.0376H88.6841ZM78.0603 22.9754V35.6843C79.0768 35.6843 80.5248 35.6309 82.0862 35.3103C83.1204 35.0979 86.8917 34.2882 89.8745 30.858L80.2843 22.5187L70.6942 14.1794C72.1808 12.4698 73.7854 11.581 74.7432 11.1462C75.7316 10.6975 76.5452 10.5001 76.9732 10.4122C77.7933 10.2438 78.2617 10.2666 78.0603 10.2666V22.9754ZM80.2843 22.5187L89.6696 31.0879C91.8391 28.7117 92.6462 26.1447 92.9805 24.6963C93.3398 23.1391 93.4102 21.7294 93.4102 20.7117H80.7013H67.9925C67.9925 20.5941 67.9934 19.9357 68.2137 18.9809C68.409 18.1348 69.0075 16.0212 70.899 13.9495L80.2843 22.5187ZM80.7013 20.7117H93.4102C93.4102 19.0163 93.215 13.9627 89.0293 9.95896L80.2446 19.1429L71.46 28.3268C69.5917 26.5397 68.7547 24.5762 68.3849 23.3061C68.0237 22.0652 67.9925 21.1103 67.9925 20.7117H80.7013ZM80.2446 19.1429L89.0293 9.95896C86.2541 7.30449 83.1185 6.58439 81.9626 6.35321C80.4594 6.05257 79.0696 5.9972 78.0603 5.9972V18.706V31.4149C78.2027 31.4149 77.7529 31.4323 76.9778 31.2773C76.5703 31.1958 75.8552 31.0244 74.985 30.6562C74.1361 30.2971 72.7989 29.6075 71.46 28.3268L80.2446 19.1429ZM78.0603 18.706H65.3514V22.9754H78.0603H90.7691V18.706H78.0603ZM80.7013 31.3553H93.4102V30.4617H80.7013H67.9925V31.3553H80.7013ZM80.7013 30.4617H93.4102C93.4102 29.4417 93.3521 27.9874 93.0122 26.4058C92.7524 25.1971 91.9103 21.7789 88.8138 18.9517L80.2446 28.337L71.6754 37.7222C70.1769 36.354 69.3501 34.9124 68.9121 33.9666C68.4679 33.0073 68.2608 32.2065 68.1621 31.7475C67.9744 30.8742 67.9925 30.3432 67.9925 30.4617H80.7013ZM80.2446 28.337L89.0293 19.153C86.2541 16.4985 83.1185 15.7784 81.9626 15.5473C80.4594 15.2466 79.0696 15.1912 78.0603 15.1912V27.9001V40.6089C78.2027 40.6089 77.7529 40.6264 76.9778 40.4713C76.5703 40.3899 75.8552 40.2185 74.985 39.8503C74.1361 39.4911 72.7989 38.8016 71.46 37.5209L80.2446 28.337ZM78.0603 27.9001H65.3514V33.9964H78.0603H90.7691V27.9001H78.0603ZM78.0603 33.9964V46.7052C79.1098 46.7052 80.5251 46.6385 82.0665 46.3072C83.4408 46.0118 86.1163 45.2605 88.6056 43.0585L80.185 33.5396L71.7645 24.0208C73.9095 22.1232 76.0589 21.6003 76.7249 21.4571C77.1758 21.3602 77.5201 21.3217 77.7136 21.3052C77.9137 21.2881 78.0358 21.2875 78.0603 21.2875V33.9964ZM80.185 33.5396L88.8052 42.8781C91.6457 40.2561 92.5904 37.1588 92.9403 35.6786C93.3376 33.9977 93.4102 32.455 93.4102 31.3553H80.7013H67.9925C67.9925 31.3297 67.993 31.1917 68.0139 30.9654C68.034 30.7479 68.0816 30.3509 68.2042 29.8319C68.382 29.0798 69.0685 26.5055 71.5649 24.2011L80.185 33.5396ZM109.852 39.5366V52.2455H122.561V39.5366H109.852ZM101.87 39.5366H89.1607V52.2455H101.87V39.5366ZM101.87 29.8263H114.578V17.1174H101.87V29.8263ZM98.9902 29.8263V17.1174H86.2813V29.8263H98.9902ZM98.9902 39.5366V52.2455H111.699V39.5366H98.9902ZM91.0273 39.5366H78.3184V52.2455H91.0273V39.5366ZM91.0273 13.1856V0.476795H78.3184V13.1856H91.0273ZM98.9902 13.1856H111.699V0.476795H98.9902V13.1856ZM98.9902 22.6577H86.2813V35.3665H98.9902V22.6577ZM101.87 22.6577V35.3665H114.578V22.6577H101.87ZM101.87 13.1856V0.476795H89.1607V13.1856H101.87ZM109.852 13.1856H122.561V0.476795H109.852V13.1856ZM109.852 39.5366V26.8278H101.87V39.5366V52.2455H109.852V39.5366ZM101.87 39.5366H114.578V29.8263H101.87H89.1607V39.5366H101.87ZM101.87 29.8263V17.1174H98.9902V29.8263V42.5351H101.87V29.8263ZM98.9902 29.8263H86.2813V39.5366H98.9902H111.699V29.8263H98.9902ZM98.9902 39.5366V26.8278H91.0273V39.5366V52.2455H98.9902V39.5366ZM91.0273 39.5366H103.736V13.1856H91.0273H78.3184V39.5366H91.0273ZM91.0273 13.1856V25.8945H98.9902V13.1856V0.476795H91.0273V13.1856ZM98.9902 13.1856H86.2813V22.6577H98.9902H111.699V13.1856H98.9902ZM98.9902 22.6577V35.3665H101.87V22.6577V9.94885H98.9902V22.6577ZM101.87 22.6577H114.578V13.1856H101.87H89.1607V22.6577H101.87ZM101.87 13.1856V25.8945H109.852V13.1856V0.476795H101.87V13.1856ZM109.852 13.1856H97.1434V39.5366H109.852H122.561V13.1856H109.852ZM119.88 23.3924V36.1013H132.589V23.3924H119.88ZM112.354 23.3924H99.6455V36.1013H112.354V23.3924ZM113.049 16.9189L101.368 11.9126L101.353 11.9467L101.339 11.9808L113.049 16.9189ZM127.545 14.1587L120.244 24.5607L120.278 24.5844L120.311 24.6078L127.545 14.1587ZM130.028 17.6933L117.561 20.1631L117.563 20.1744L117.565 20.1857L130.028 17.6933ZM130.445 39.5366V52.2455H143.153V39.5366H130.445ZM122.641 39.5366H109.932V52.2455H122.641V39.5366ZM122.641 37.1934H135.349L111.37 31.3202L122.641 37.1934ZM120.734 39.3182L127.3 50.1993L127.327 50.1832L127.354 50.167L120.734 39.3182ZM114.102 38.8416L106.942 49.342L107.011 49.3886L107.08 49.4343L114.102 38.8416ZM113.288 27.4632L103.701 19.1196L113.288 27.4632ZM117.914 24.9612L122.502 36.813L122.527 36.8033L122.552 36.7936L117.914 24.9612ZM122.104 18.011L110.597 23.4051L110.7 23.6245L110.811 23.8398L122.104 18.011ZM120.079 17.9117L131.941 22.4739L131.969 22.4L131.997 22.3257L120.079 17.9117ZM122.422 27.0065H135.131V1.9546L114.916 16.7513L122.422 27.0065ZM120.178 29.3695L108.122 25.3507L108.084 25.4644L108.048 25.5788L120.178 29.3695ZM120.138 34.7509L108.477 39.8041L108.547 39.9657L108.622 40.1253L120.138 34.7509ZM122.184 34.89L110.817 29.2064L110.767 29.3061L110.719 29.4067L122.184 34.89ZM119.88 23.3924V10.6836H112.354V23.3924V36.1013H119.88V23.3924ZM112.354 23.3924H125.063V21.6251H112.354H99.6455V23.3924H112.354ZM112.354 21.6251H125.063C125.063 21.3534 125.071 21.1468 125.08 20.9987C125.085 20.9256 125.09 20.8706 125.094 20.8325C125.098 20.7943 125.101 20.7761 125.101 20.7762C125.101 20.7762 125.097 20.7983 125.089 20.8402C125.081 20.882 125.066 20.948 125.044 21.0353C124.999 21.2043 124.914 21.4898 124.76 21.8569L113.049 16.9189L101.339 11.9808C99.9079 15.3747 99.6455 18.9242 99.6455 21.6251H112.354ZM113.049 16.9189L124.731 21.9251C123.829 24.0278 122.473 24.8507 122.413 24.8867L115.889 13.9799L109.365 3.07321C106.472 4.80373 103.222 7.58583 101.368 11.9126L113.049 16.9189ZM115.889 13.9799L122.413 24.8867C121.831 25.2347 121.373 25.3677 121.183 25.4117C121.005 25.4527 121.054 25.4179 121.409 25.4179V12.7091V0.000213005C117.668 0.000213005 113.355 0.687024 109.365 3.07321L115.889 13.9799ZM121.409 12.7091V25.4179C122.051 25.4179 122.222 25.4788 122.057 25.4398C121.886 25.3994 121.162 25.2049 120.244 24.5607L127.545 14.1587L134.847 3.75657C130.382 0.622405 125.268 0.000213005 121.409 0.000213005V12.7091ZM127.545 14.1587L120.311 24.6078C119.964 24.3676 119.374 23.8811 118.798 23.0609C118.2 22.2099 117.769 21.2106 117.561 20.1631L130.028 17.6933L142.494 15.2235C141.466 10.0337 138.374 6.19785 134.779 3.70955L127.545 14.1587ZM130.028 17.6933L117.565 20.1857C117.51 19.9106 117.583 20.1958 117.646 21.5046C117.702 22.6612 117.736 24.2462 117.736 26.3115H130.445H143.153C143.153 22.194 143.057 18.0382 142.49 15.2009L130.028 17.6933ZM130.445 26.3115H117.736V39.5366H130.445H143.153V26.3115H130.445ZM130.445 39.5366V26.8278H122.641V39.5366V52.2455H130.445V39.5366ZM122.641 39.5366H135.349V37.1934H122.641H109.932V39.5366H122.641ZM122.641 37.1934L111.37 31.3202C111.777 30.5393 112.627 29.3774 114.115 28.4694L120.734 39.3182L127.354 50.167C130.404 48.3058 132.524 45.7274 133.911 43.0667L122.641 37.1934ZM120.734 39.3182L114.168 28.437C115.739 27.4893 117.188 27.3044 117.974 27.3044V40.0132V52.722C120.905 52.722 124.194 52.0738 127.3 50.1993L120.734 39.3182ZM117.974 40.0132V27.3044C118.468 27.3044 119.038 27.3758 119.634 27.5561C120.229 27.7361 120.732 27.9888 121.124 28.2489L114.102 38.8416L107.08 49.4343C110.323 51.5846 114.053 52.722 117.974 52.722V40.0132ZM114.102 38.8416L121.261 28.3412C123.556 29.9057 124.502 31.9042 124.834 32.8898C125.136 33.7862 125.063 34.1837 125.063 33.6588H112.354H99.6455C99.6455 36.9808 100.154 44.7138 106.942 49.342L114.102 38.8416ZM112.354 33.6588H125.063V31.4943H112.354H99.6455V33.6588H112.354ZM112.354 31.4943H125.063C125.063 31.0976 125.102 31.2994 124.969 31.8738C124.854 32.3702 124.409 34.0429 122.874 35.8069L113.288 27.4632L103.701 19.1196C99.7891 23.6144 99.6455 29.2224 99.6455 31.4943H112.354ZM113.288 27.4632L122.874 35.8069C122.508 36.2278 122.174 36.5428 121.926 36.7597C121.675 36.9792 121.465 37.1378 121.323 37.2399C121.05 37.4347 120.901 37.5105 120.956 37.4805C120.999 37.4574 121.144 37.3823 121.42 37.2593C121.691 37.1383 122.047 36.9892 122.502 36.813L117.914 24.9612L113.327 13.1093C111.819 13.693 110.28 14.358 108.866 15.1226C107.694 15.7562 105.533 17.0151 103.701 19.1196L113.288 27.4632ZM117.914 24.9612L122.552 36.7936C123.985 36.2321 125.384 35.6478 126.567 35.0645C127.134 34.7849 127.942 34.3648 128.774 33.8156C129.191 33.5409 129.826 33.0952 130.514 32.4771C131.079 31.9693 132.391 30.7225 133.426 28.7262L122.144 22.8761L110.862 17.026C111.396 15.9959 111.976 15.2312 112.396 14.7343C112.829 14.2235 113.228 13.8376 113.521 13.5748C114.085 13.0672 114.56 12.7425 114.777 12.5994C115.21 12.3133 115.466 12.1985 115.328 12.2664C115.102 12.3781 114.479 12.6577 113.277 13.1288L117.914 24.9612ZM122.144 22.8761L133.426 28.7262C134.557 26.5458 134.854 24.5006 134.96 23.6665C135.098 22.579 135.131 21.5421 135.131 20.6918H122.422H109.713C109.713 20.9402 109.7 20.8169 109.745 20.4574C109.77 20.2676 109.826 19.8874 109.954 19.3856C110.073 18.9206 110.329 18.0539 110.862 17.026L122.144 22.8761ZM122.422 20.6918H135.131C135.131 19.7355 135.097 18.6231 134.963 17.4932C134.868 16.6892 134.588 14.4879 133.398 12.1822L122.104 18.011L110.811 23.8398C110.246 22.7442 109.997 21.8346 109.896 21.418C109.781 20.9477 109.737 20.6111 109.722 20.4848C109.694 20.2485 109.713 20.2713 109.713 20.6918H122.422ZM122.104 18.011L133.612 12.617C132.66 10.587 131.031 8.38417 128.457 6.76924C125.898 5.16362 123.247 4.66674 121.092 4.66674V17.3756V30.0844C119.413 30.0844 117.169 29.6935 114.948 28.2996C112.711 26.8965 111.35 25.0114 110.597 23.4051L122.104 18.011ZM121.092 17.3756V4.66674C119.566 4.66674 117.094 4.89659 114.485 6.2777C111.562 7.8252 109.315 10.3829 108.161 13.4978L120.079 17.9117L131.997 22.3257C130.975 25.0831 128.963 27.3728 126.378 28.7415C124.106 29.9439 122.074 30.0844 121.092 30.0844V17.3756ZM120.079 17.9117L108.217 13.3495C107.399 15.4764 107.284 17.5203 107.255 17.9248C107.19 18.8142 107.171 19.7515 107.171 20.6322H119.88H132.589C132.589 20.3566 132.592 20.145 132.597 19.9895C132.601 19.8289 132.606 19.7644 132.605 19.7752C132.604 19.7833 132.601 19.8273 132.593 19.9008C132.586 19.9719 132.571 20.0985 132.544 20.2677C132.518 20.4306 132.472 20.692 132.393 21.0203C132.319 21.3301 132.182 21.8465 131.941 22.4739L120.079 17.9117ZM119.88 20.6322H107.171V23.3924H119.88H132.589V20.6322H119.88ZM122.422 27.0065L114.916 16.7513C113.915 17.4839 112.76 18.4162 111.682 19.551C110.73 20.5534 109.071 22.5017 108.122 25.3507L120.178 29.3695L132.235 33.3884C131.838 34.5793 131.327 35.4466 130.974 35.9705C130.613 36.5062 130.291 36.8669 130.114 37.0534C129.784 37.4006 129.645 37.469 129.928 37.2617L122.422 27.0065ZM120.178 29.3695L108.048 25.5788C107.276 28.0475 107.171 30.4773 107.171 32.1099H119.88H132.589C132.589 31.8465 132.601 31.7947 132.589 31.9045C132.583 31.9658 132.566 32.102 132.528 32.2983C132.491 32.4915 132.425 32.7884 132.309 33.1603L120.178 29.3695ZM119.88 32.1099H107.171C107.171 33.0095 107.198 34.0214 107.296 35.0291C107.363 35.7103 107.562 37.6912 108.477 39.8041L120.138 34.7509L131.8 29.6978C132.034 30.2398 132.186 30.7024 132.281 31.0314C132.379 31.3677 132.442 31.6467 132.483 31.8453C132.56 32.2279 132.587 32.4871 132.593 32.5565C132.606 32.6839 132.589 32.5738 132.589 32.1099H119.88ZM120.138 34.7509L108.622 40.1253C109.761 42.5664 111.681 44.8117 114.374 46.3073C116.917 47.7203 119.406 48.0555 121.211 48.0555V35.3467V22.6378C122.486 22.6378 124.531 22.8738 126.717 24.0882C129.052 25.3853 130.701 27.3326 131.655 29.3766L120.138 34.7509ZM121.211 35.3467V48.0555C123.899 48.0555 130.432 47.1002 133.649 40.3733L122.184 34.89L110.719 29.4067C111.993 26.7414 114.114 24.8159 116.431 23.728C118.498 22.7579 120.301 22.6378 121.211 22.6378V35.3467ZM122.184 34.89L133.551 40.5735C134.783 38.1095 134.969 35.7084 135.012 35.2602C135.108 34.2756 135.131 33.2859 135.131 32.4276H122.422H109.713C109.713 32.8932 109.697 32.9758 109.713 32.8119C109.721 32.7282 109.753 32.4112 109.849 31.9538C109.898 31.7163 109.98 31.3678 110.113 30.9462C110.24 30.5401 110.457 29.9248 110.817 29.2064L122.184 34.89ZM122.422 32.4276H135.131V27.0065H122.422H109.713V32.4276H122.422ZM151.136 39.5366V52.2455H163.845V39.5366H151.136ZM143.153 39.5366H130.445V52.2455H143.153V39.5366ZM143.153 29.171H155.862V16.4621H143.153V29.171ZM141.009 29.8263L131.605 21.2774L131.533 21.3566L131.462 21.437L141.009 29.8263ZM140.433 39.5366V52.2455H153.142V39.5366H140.433ZM133.086 39.5366H120.377V52.2455H133.086V39.5366ZM133.344 29.9653L145.673 33.0476L145.68 33.0202L145.687 32.9928L133.344 29.9653ZM134.515 28.3171L127.678 17.6045L127.625 17.638L127.573 17.672L134.515 28.3171ZM137.673 27.1256L140.961 39.4017L138.808 14.4676L137.673 27.1256ZM133.939 25.4973L123.111 32.1494L123.132 32.1842L123.154 32.2189L133.939 25.4973ZM135.349 14.9132L143.003 25.0589L143.01 25.0537L143.017 25.0485L135.349 14.9132ZM151.136 13.1856H163.845V0.476795H151.136V13.1856ZM143.153 24.6037V37.3126H155.862V24.6037H143.153ZM143.153 18.3089H155.862V5.60005H143.153V18.3089ZM140.949 18.8252L149.758 27.9861L149.848 27.8998L149.936 27.8117L140.949 18.8252ZM141.009 24.0279L131.871 32.8608L132.021 33.0157L132.176 33.1654L141.009 24.0279ZM151.136 39.5366V26.8278H143.153V39.5366V52.2455H151.136V39.5366ZM143.153 39.5366H155.862V29.171H143.153H130.445V39.5366H143.153ZM143.153 29.171V16.4621C141.058 16.4621 135.7 16.7732 131.605 21.2774L141.009 29.8263L150.413 38.3752C148.714 40.2432 146.812 41.1054 145.557 41.4889C144.35 41.8576 143.453 41.8798 143.153 41.8798V29.171ZM141.009 29.8263L131.462 21.437C127.752 25.6587 127.724 30.7671 127.724 32.2886H140.433H153.142C153.142 32.3173 153.141 32.4462 153.121 32.6561C153.102 32.8612 153.058 33.2107 152.952 33.6636C152.771 34.4367 152.225 36.3153 150.555 38.2156L141.009 29.8263ZM140.433 32.2886H127.724V39.5366H140.433H153.142V32.2886H140.433ZM140.433 39.5366V26.8278H133.086V39.5366V52.2455H140.433V39.5366ZM133.086 39.5366H145.794V33.3609H133.086H120.377V39.5366H133.086ZM133.086 33.3609H145.794C145.794 33.0806 145.798 32.8506 145.804 32.6663C145.81 32.4803 145.817 32.3592 145.822 32.2939C145.828 32.2247 145.828 32.2497 145.814 32.3492C145.806 32.4017 145.793 32.486 145.772 32.5972C145.752 32.7075 145.72 32.8604 145.673 33.0476L133.344 29.9653L121.014 26.8829C120.434 29.205 120.377 31.6926 120.377 33.3609H133.086ZM133.344 29.9653L145.687 32.9928C145.418 34.0867 144.923 35.2664 144.124 36.3902C143.326 37.5128 142.382 38.3594 141.458 38.9622L134.515 28.3171L127.573 17.672C124.282 19.8186 121.947 23.0815 121.001 26.9378L133.344 29.9653ZM134.515 28.3171L141.353 39.0297C140.966 39.2771 140.664 39.4284 140.509 39.5019C140.425 39.542 140.361 39.5697 140.321 39.5863C140.281 39.603 140.26 39.6113 140.258 39.6118C140.257 39.6124 140.271 39.607 140.303 39.5961C140.334 39.5853 140.38 39.5702 140.441 39.551C140.565 39.5122 140.736 39.4619 140.961 39.4017L137.673 27.1256L134.384 14.8496C132.697 15.3014 130.04 16.0964 127.678 17.6045L134.515 28.3171ZM137.673 27.1256L138.808 14.4676C138.686 14.4567 139.346 14.4892 140.381 14.9405C141.498 15.4277 143.333 16.5419 144.725 18.7757L133.939 25.4973L123.154 32.2189C127.033 38.4432 133.654 39.5251 136.538 39.7837L137.673 27.1256ZM133.939 25.4973L144.768 18.8453C145.246 19.6221 145.5 20.2778 145.629 20.6668C145.761 21.0644 145.81 21.3299 145.823 21.4035C145.843 21.52 145.794 21.2858 145.794 20.5528H133.086H120.377C120.377 23.0961 120.529 27.9469 123.111 32.1494L133.939 25.4973ZM133.086 20.5528H145.794C145.794 20.4096 145.822 20.9749 145.446 21.9113C145.025 22.9589 144.228 24.1349 143.003 25.0589L135.349 14.9132L127.696 4.76757C121.886 9.15059 120.377 15.5899 120.377 20.5528H133.086ZM135.349 14.9132L143.017 25.0485C142.094 25.7464 141.348 26.0352 141.121 26.1169C140.867 26.208 140.841 26.1893 141.149 26.1353C141.798 26.0214 143.08 25.8945 145.199 25.8945V13.1856V0.476795C142.274 0.476795 139.392 0.637815 136.758 1.0998C134.406 1.51231 130.839 2.3896 127.682 4.77799L135.349 14.9132ZM145.199 13.1856V25.8945H151.136V13.1856V0.476795H145.199V13.1856ZM151.136 13.1856H138.427V39.5366H151.136H163.845V13.1856H151.136ZM143.153 24.6037H155.862V18.3089H143.153H130.445V24.6037H143.153ZM143.153 18.3089V5.60005H142.339V18.3089V31.0177H143.153V18.3089ZM142.339 18.3089V5.60005C139.096 5.60005 135.149 6.65204 131.963 9.83868L140.949 18.8252L149.936 27.8117C147.437 30.3099 144.417 31.0177 142.339 31.0177V18.3089ZM140.949 18.8252L132.141 9.66423C129.29 12.4049 128.439 15.612 128.146 16.9514C127.79 18.5794 127.724 20.089 127.724 21.1882H140.433H153.142C153.142 21.0431 153.161 21.5366 152.978 22.3769C152.881 22.821 152.681 23.5773 152.262 24.4848C151.847 25.3849 151.091 26.7045 149.758 27.9861L140.949 18.8252ZM140.433 21.1882H127.724V21.5258H140.433H153.142V21.1882H140.433ZM140.433 21.5258H127.724C127.724 22.7057 127.804 24.2707 128.192 25.955C128.545 27.4893 129.421 30.3258 131.871 32.8608L141.009 24.0279L150.146 15.1949C152.213 17.3328 152.801 19.5537 152.962 20.254C153.068 20.7158 153.109 21.0618 153.125 21.2429C153.134 21.3403 153.138 21.4129 153.14 21.4574C153.142 21.5021 153.142 21.5257 153.142 21.5258H140.433ZM141.009 24.0279L132.176 33.1654C136.3 37.1516 141.383 37.3126 143.153 37.3126V24.6037V11.8949C143.348 11.8949 144.092 11.9046 145.139 12.1857C146.182 12.4659 148.052 13.1605 149.842 14.8904L141.009 24.0279Z" fill="#FF00A0" mask="url(#path-1-outside-1_208_654)"/>
</svg>
