<svg width="1132" height="1526" viewBox="0 0 1132 1526" fill="none" xmlns="http://www.w3.org/2000/svg">
<rect x="137.973" y="232.764" width="263.284" height="420.069" fill="black"/>
<rect x="631.139" y="232.764" width="263.284" height="420.069" fill="black"/>
<rect x="297.123" y="232.764" width="263.284" height="479.631" fill="black"/>
<path d="M919.966 376.966L1020.36 654.4L819.574 654.4L919.966 376.966Z" fill="black"/>
<path d="M919.965 511.757L819.573 234.323L1020.36 234.323L919.965 511.757Z" fill="black"/>
<ellipse cx="572.194" cy="474.147" rx="133.607" ry="213.17" fill="black"/>
<rect x="612.143" y="90.9092" width="341.723" height="420.069" fill="black"/>
<rect x="818.707" y="90.9092" width="341.723" height="479.631" fill="black"/>
<ellipse cx="1175.73" cy="332.293" rx="173.412" ry="213.17" fill="black"/>
<path d="M0.000488281 489.41L2163.98 489.411L2163.98 1339.25L977.612 1339.25L883.479 939.858L0.000488281 489.41Z" fill="black"/>
<rect x="1529.04" y="792.972" width="399.833" height="394.269" transform="rotate(-180 1529.04 792.972)" fill="black"/>
<rect x="780.098" y="792.972" width="399.833" height="394.269" transform="rotate(-180 780.098 792.972)" fill="black"/>
<rect x="1287.35" y="792.972" width="399.833" height="450.173" transform="rotate(-180 1287.35 792.972)" fill="black"/>
<path d="M341.472 657.625L189.012 397.231L493.933 397.231L341.472 657.625Z" fill="black"/>
<path d="M341.472 531.105L493.932 791.5L189.011 791.5L341.472 531.105Z" fill="black"/>
<ellipse cx="869.61" cy="566.414" rx="202.901" ry="200.077" transform="rotate(-180 869.61 566.414)" fill="black"/>
</svg>
