<svg width="470" height="558" viewBox="0 0 470 558" fill="none" xmlns="http://www.w3.org/2000/svg">
<path d="M85.5677 14.8783L101.628 39.2374C101.696 39.2362 101.765 39.2323 101.834 39.2319L102.367 39.2366C103.145 39.2551 103.926 39.3258 104.705 39.4475L105.114 39.4459L105.829 39.4404L106.343 38.0773L108.438 39.4246L108.561 39.4238C109.521 39.2623 110.482 39.1792 111.436 39.1734L112.002 39.1789C112.768 39.1984 113.542 39.2681 114.315 39.3882L150.973 39.164C151.941 38.9999 152.891 38.9209 153.808 38.9152L154.43 38.9223C155.12 38.9422 155.875 39.0039 156.674 39.1292L158.223 39.1205L158.799 39.1166L169.165 39.0534C170.114 38.8929 171.075 38.8089 172.041 38.803L172.246 38.8054L191.275 9.16392L191.452 38.112L210.111 9.04788L210.292 38.8022L210.353 38.8007L220.202 38.7406L227.388 38.6965C228.358 38.5347 229.334 38.4521 230.307 38.4461L230.799 38.4501C231.608 38.4666 232.419 38.5362 233.227 38.6609L239.912 38.6206H239.914L240.432 38.6174L240.432 38.6246C241.442 38.6478 242.669 38.763 244.023 39.0794C245.697 38.5876 247.403 38.342 249.104 38.3316L249.596 38.3347C250.758 38.3585 251.925 38.493 253.084 38.7422L253.082 38.5401L253.455 38.5377L253.97 37.1739L256.064 38.5211H256.185C257.145 38.3594 258.107 38.2759 259.062 38.27C260.016 38.2641 260.982 38.3348 261.95 38.4856L268.879 38.4437L293.139 7.05855L293.279 30.0261L294.344 28.4853L294.222 8.53372L301.016 18.838L306.904 10.3264L307.011 27.9285L308.207 29.7434L321.932 8.36398L322.112 37.9627C322.672 37.9082 323.233 37.8778 323.792 37.8744L324.286 37.8775C325.094 37.894 325.904 37.9644 326.712 38.0891L327.637 38.0836L327.638 38.2565C327.773 38.2847 327.909 38.3137 328.044 38.345L328.657 36.7174L330.776 38.0804C331.768 37.9078 332.763 37.8196 333.75 37.8135C334.703 37.8077 335.668 37.8782 336.633 38.0283L342.872 37.9904L348.975 37.9525L373.234 6.56813L373.423 37.5869C374.151 37.6116 374.881 37.6778 375.609 37.7906H375.633L382.805 37.7464L384.173 37.7385L384.619 37.7353L395.116 37.6714C396.064 37.5109 397.025 37.4262 397.991 37.4202C398.06 37.4198 398.128 37.4222 398.196 37.4226L417.227 7.78114L417.407 37.5347L418.236 37.53H418.297L419.147 37.5244C420.095 37.3639 421.055 37.2793 422.021 37.2733C422.09 37.2729 422.159 37.2753 422.227 37.2757L441.257 7.63425L441.438 37.3879L442.857 37.3792L442.875 40.4559L468.165 40.2743L442.99 59.5017L443.048 68.9128L468.312 68.732L441.752 89.0175L441.924 117.346L440.293 114.815L440.361 127.933L437.795 127.951L437.804 129.748L437.855 139.81L469.132 168.475L439.904 168.684L437.698 174.227C437.776 174.571 437.848 174.915 437.913 175.26L443.405 175.222L443.438 181.763L468.894 181.579L446.319 198.821L447.314 199.615L468.144 199.466L457.652 207.868L465.853 214.416L449.326 214.534L438.552 223.163C438.527 224.157 438.442 225.158 438.301 226.159L438.345 234.659L469.622 263.324L438.339 263.548C438.639 265.109 438.791 266.687 438.799 268.255C438.81 270.226 438.595 272.209 438.144 274.157C438.441 275.728 438.557 277.209 438.569 278.528H438.572L438.614 286.741C438.806 287.996 438.907 289.258 438.914 290.514C438.92 291.774 438.833 293.038 438.654 294.295L438.756 314.219L469.577 313.998L440.095 336.515L469.692 336.303L439.269 359.541C439.275 360.785 439.186 362.019 439.009 363.235L439.072 375.551L442.478 377.378L441.188 378.97L444.463 380.491L444.47 381.873L462.605 389.966L448.012 397.312L444.594 405.899L444.7 426.393L444.81 447.614L467.149 465.446L453.973 465.541L450.628 486.71L464.838 493.596L443.033 504.684L443.155 524.771L441.736 524.779L441.924 555.64L425.967 530.87C423.391 532.334 420.626 533.35 417.76 533.917L417.892 555.787L403.234 533.03C399.871 531.913 396.687 530.13 393.857 527.641L367.9 527.801L367.885 525.232L366.368 525.241L357.87 525.293L333.664 556.608L333.488 527.344L328.808 525.135C328.517 525.214 328.226 525.285 327.935 525.349L327.968 530.848L322.443 530.881L322.599 556.37L308.039 533.767L307.368 534.762L307.494 555.619L300.399 545.114L294.87 553.326L294.771 536.778L287.483 525.99C286.643 525.965 285.798 525.881 284.952 525.739L277.775 525.783L253.57 557.099L253.38 525.777C252.062 526.077 250.729 526.229 249.405 526.237C247.741 526.248 246.066 526.033 244.421 525.581C243.094 525.879 241.844 525.995 240.73 526.008V526.01L233.794 526.052C232.735 526.245 231.669 526.346 230.609 526.353C229.544 526.359 228.478 526.272 227.416 526.092L210.591 526.194L210.778 557.053L191.763 527.535L191.943 557.169L172.319 526.708C171.268 526.714 170.226 526.625 169.199 526.448L158.799 526.511L157.256 529.921L155.912 528.629L154.628 531.908L153.461 531.915L146.626 550.073L140.423 535.461L133.172 532.039L115.865 532.146L97.9453 532.255L82.8877 554.623L82.8068 541.431L79.9468 538.081L74.1321 552.308L66.2846 534.011C64.6918 534.296 63.0702 534.446 61.4342 534.458C54.2699 534.51 47.2056 531.972 41.6926 526.527L41.6223 526.456C37.7307 522.574 35.2959 517.903 34.1997 512.962L0.916869 505.765L22.6137 494.538L0 465.707L14.8594 462.271L39.1885 443.253C39.1872 443.172 39.1833 443.091 39.1829 443.009L39.1876 442.378C39.2061 441.456 39.2769 440.532 39.3985 439.61L39.3961 439.124L39.3913 438.278L38.0299 437.67L39.3756 435.189L39.3748 435.043C39.2136 433.907 39.1303 432.768 39.1245 431.639L39.13 430.969C39.1494 430.061 39.2193 429.144 39.3393 428.228L39.1149 384.818C38.9511 383.672 38.8719 382.548 38.8662 381.462L38.8733 380.725C38.8932 379.907 38.9551 379.014 39.0803 378.068L39.0715 376.233L39.0676 375.551L39.0044 363.275C38.844 362.152 38.76 361.014 38.7541 359.87L38.7565 359.627L9.15211 337.092L38.0646 336.883L9.0368 314.787L38.7533 314.573L38.7525 314.501L38.6925 302.838L38.6483 294.327C38.4868 293.178 38.4039 292.023 38.3979 290.871L38.4019 290.288C38.4184 289.331 38.4881 288.37 38.6127 287.412L38.5724 279.497V279.495L38.5693 278.881L38.5764 278.88C38.5996 277.686 38.7144 276.232 39.0304 274.629C38.5392 272.647 38.2938 270.625 38.2834 268.612L38.2865 268.029C38.3103 266.653 38.4451 265.271 38.694 263.899L38.4919 263.901L38.4895 263.459L37.1272 262.851L38.4729 260.37V260.227C38.3114 259.09 38.2277 257.951 38.2218 256.82C38.2159 255.69 38.2869 254.545 38.4374 253.399L38.3955 245.194L7.04985 216.466L29.9881 216.3L28.4498 215.038L8.52272 215.182L18.8143 207.137L10.3138 200.165L27.8938 200.038L29.7062 198.622L8.35371 182.369L37.9154 182.155C37.8609 181.492 37.8304 180.828 37.827 180.165L37.8301 179.582C37.8466 178.625 37.9172 177.665 38.0417 176.709L38.0363 175.613L38.2083 175.611C38.2364 175.451 38.2657 175.29 38.2968 175.13L36.6716 174.405L38.033 171.895C37.8606 170.72 37.7722 169.543 37.7662 168.374C37.7603 167.246 37.8309 166.103 37.9809 164.959L37.943 157.571L37.9051 150.344L6.56022 121.617L37.5395 121.393C37.5642 120.531 37.6306 119.666 37.7433 118.804V118.776L37.699 110.282L37.6911 108.662L37.688 108.134L37.624 95.7044C37.4636 94.5812 37.3795 93.4434 37.3736 92.2991C37.3732 92.2182 37.3756 92.1373 37.376 92.0565L7.77166 69.5209L37.4881 69.3069L37.4826 68.3252V68.2534L37.4771 67.2464C37.3167 66.1238 37.2327 64.9864 37.2268 63.842C37.2264 63.7611 37.2287 63.6797 37.2291 63.5988L7.62477 41.0632L37.3413 40.8492L37.3325 39.1695L48.8901 39.0858C51.5961 36.6702 54.6221 35.0727 57.7785 34.2424L63.8562 0.917662L73.3368 22.6421L82.6669 0L85.5677 14.8783ZM115.953 526.772L115.984 531.855L118.055 526.76L115.953 526.772ZM102.296 507.428C102.224 507.433 102.15 507.435 102.075 507.435C102.006 507.436 101.937 507.434 101.869 507.431C101.936 507.434 102.005 507.436 102.074 507.436C102.149 507.436 102.223 507.433 102.295 507.429C102.363 507.425 102.429 507.418 102.495 507.411C102.429 507.418 102.363 507.424 102.296 507.428ZM101.822 507.428C101.826 507.428 101.83 507.428 101.835 507.428C101.786 507.426 101.738 507.421 101.69 507.417C101.734 507.421 101.778 507.426 101.822 507.428ZM101.619 507.41C101.638 507.413 101.658 507.413 101.676 507.415C101.637 507.411 101.596 507.406 101.557 507.401C101.578 507.403 101.598 507.408 101.619 507.41ZM101.427 507.382C101.448 507.385 101.47 507.388 101.491 507.391C101.46 507.386 101.428 507.381 101.397 507.375C101.406 507.376 101.417 507.38 101.427 507.382ZM111.49 507.372C111.559 507.375 111.627 507.376 111.696 507.376C111.617 507.376 111.538 507.374 111.461 507.37C111.47 507.371 111.48 507.372 111.49 507.372ZM111.288 507.359C111.322 507.362 111.356 507.363 111.389 507.365C111.333 507.361 111.277 507.357 111.221 507.351C111.244 507.354 111.266 507.357 111.288 507.359ZM103.061 507.301C103.081 507.296 103.102 507.292 103.122 507.285C103.169 507.271 103.215 507.254 103.261 507.238C103.195 507.261 103.129 507.283 103.061 507.301ZM101.015 507.279C101.042 507.288 101.068 507.294 101.095 507.302C101.12 507.309 101.145 507.317 101.17 507.323C101.183 507.327 101.198 507.33 101.211 507.334C101.087 507.302 100.966 507.264 100.848 507.218C100.903 507.24 100.958 507.261 101.015 507.279ZM110.896 507.303C110.905 507.304 110.913 507.305 110.922 507.307C110.849 507.293 110.777 507.278 110.705 507.259L110.896 507.303ZM100.758 507.182C100.76 507.182 100.764 507.183 100.767 507.184C100.751 507.178 100.735 507.17 100.72 507.163C100.733 507.169 100.745 507.176 100.758 507.182ZM154.473 507.075C154.364 507.089 154.253 507.1 154.139 507.107C154.156 507.106 154.172 507.106 154.188 507.106C154.285 507.098 154.38 507.087 154.473 507.075ZM154.486 507.073C154.499 507.072 154.511 507.07 154.524 507.068C154.579 507.06 154.633 507.051 154.685 507.041C154.621 507.053 154.553 507.063 154.486 507.073ZM172.029 507.003C172.093 507.005 172.158 507.006 172.223 507.006C172.09 507.007 171.96 507 171.833 506.988C171.898 506.995 171.963 507 172.029 507.003ZM190.853 506.887C190.92 506.89 190.99 506.892 191.059 506.891C191.09 506.891 191.123 506.889 191.155 506.887L191.058 506.89C190.92 506.891 190.785 506.886 190.652 506.873L190.853 506.887ZM190.261 506.812C190.297 506.819 190.332 506.825 190.368 506.831L190.26 506.811C190.246 506.808 190.231 506.804 190.218 506.801C190.232 506.804 190.247 506.809 190.261 506.812ZM191.931 506.768C191.964 506.759 191.998 506.749 192.031 506.738L192.034 506.737C192 506.747 191.965 506.759 191.931 506.768ZM192.108 506.712C192.112 506.711 192.114 506.71 192.117 506.709C192.136 506.702 192.154 506.695 192.174 506.688C192.201 506.677 192.227 506.666 192.254 506.655C192.206 506.675 192.157 506.695 192.108 506.712ZM230.195 506.642C230.208 506.643 230.222 506.642 230.236 506.643C230.19 506.64 230.144 506.637 230.098 506.634C230.131 506.637 230.163 506.64 230.195 506.642ZM232.786 505.924C232.239 506.321 231.618 506.556 230.922 506.627C230.93 506.626 230.938 506.626 230.946 506.625C231.632 506.552 232.245 506.317 232.786 505.924ZM99.4106 506.1C99.4834 506.195 99.5578 506.286 99.6354 506.371C99.7049 506.447 99.7777 506.518 99.8513 506.586L99.8505 506.585C99.6888 506.434 99.5359 506.264 99.3912 506.074C99.3976 506.083 99.4041 506.091 99.4106 506.1ZM189.35 506.473C189.386 506.493 189.422 506.51 189.458 506.527C189.412 506.505 189.367 506.48 189.322 506.456C189.331 506.462 189.341 506.467 189.35 506.473ZM192.679 506.436C192.687 506.431 192.695 506.427 192.701 506.422C192.709 506.417 192.717 506.412 192.725 506.407C192.71 506.417 192.694 506.426 192.679 506.436ZM259.845 506.436C259.865 506.433 259.885 506.431 259.905 506.428C259.917 506.425 259.93 506.422 259.943 506.42C259.911 506.425 259.878 506.431 259.845 506.436ZM349.977 506.314L351.371 504.513L352.031 503.657L349.977 506.314ZM302.472 506.189C302.586 506.2 302.7 506.205 302.817 506.206H302.879C302.714 506.208 302.553 506.197 302.395 506.178C302.421 506.181 302.447 506.186 302.472 506.189ZM303.105 506.197C303.109 506.197 303.113 506.197 303.116 506.197C303.178 506.193 303.241 506.187 303.302 506.179C303.237 506.188 303.171 506.193 303.105 506.197ZM302.168 506.143C302.203 506.151 302.239 506.158 302.275 506.163C302.3 506.167 302.325 506.169 302.35 506.172C302.286 506.164 302.222 506.153 302.159 506.141C302.161 506.142 302.164 506.143 302.168 506.143ZM314.057 506.138L314.245 506.134C314.249 506.133 314.253 506.131 314.257 506.131C314.192 506.134 314.125 506.138 314.057 506.138ZM302.083 506.127C302.092 506.129 302.101 506.13 302.11 506.132C302.037 506.117 301.965 506.1 301.893 506.08L302.083 506.127ZM193.276 505.957C193.225 506.008 193.173 506.057 193.121 506.104L193.277 505.958C193.328 505.906 193.378 505.852 193.426 505.797L193.276 505.957ZM313.272 506.056C313.309 506.064 313.347 506.072 313.385 506.079C313.325 506.068 313.265 506.055 313.206 506.041C313.228 506.046 313.25 506.051 313.272 506.056ZM323.756 506.074C323.828 506.077 323.901 506.079 323.974 506.078L323.745 506.073C323.748 506.074 323.752 506.074 323.756 506.074ZM301.345 505.877C301.358 505.884 301.371 505.888 301.384 505.895C301.43 505.916 301.478 505.936 301.525 505.956L301.345 505.877ZM242.161 505.867C242.161 505.867 242.158 505.868 242.156 505.869L242.163 505.866L242.161 505.867ZM325.453 505.803C325.464 505.8 325.474 505.796 325.485 505.792C325.511 505.782 325.536 505.77 325.561 505.759C325.525 505.774 325.49 505.789 325.453 505.803ZM301.146 505.774C301.154 505.779 301.162 505.783 301.17 505.788C301.173 505.79 301.175 505.791 301.179 505.792C301.167 505.786 301.156 505.779 301.145 505.773L301.146 505.774ZM335.433 505.732C335.436 505.731 335.437 505.731 335.44 505.73C335.443 505.728 335.445 505.727 335.449 505.725C335.444 505.728 335.439 505.73 335.433 505.732ZM301 505.69C301.014 505.698 301.03 505.707 301.045 505.715C301.021 505.701 300.996 505.686 300.972 505.671C300.981 505.677 300.99 505.684 301 505.69ZM335.523 505.692C335.528 505.69 335.533 505.688 335.538 505.686C335.54 505.685 335.542 505.682 335.545 505.681C335.538 505.685 335.53 505.688 335.523 505.692ZM316.905 504.65C316.861 504.711 316.816 504.77 316.771 504.828C316.816 504.77 316.861 504.71 316.906 504.649L316.905 504.65ZM241.012 504.704C240.885 504.743 240.741 504.773 240.579 504.791C240.45 504.806 240.31 504.815 240.16 504.815C240.462 504.813 240.719 504.785 240.932 504.729L241.012 504.704ZM261.003 504.267C260.995 504.274 260.988 504.28 260.981 504.287C260.929 504.338 260.877 504.388 260.822 504.433C260.884 504.382 260.944 504.326 261.003 504.267ZM257.672 504.274C257.703 504.306 257.736 504.337 257.769 504.367C257.718 504.32 257.668 504.27 257.618 504.218L257.672 504.274ZM299.655 504.325C299.664 504.34 299.674 504.354 299.683 504.367C299.663 504.337 299.643 504.305 299.624 504.274C299.634 504.291 299.645 504.308 299.655 504.325ZM247.138 503.973L247.144 503.981C247.14 503.976 247.138 503.971 247.135 503.966C247.136 503.968 247.137 503.971 247.138 503.973ZM246.791 503.428C246.783 503.412 246.776 503.395 246.768 503.379C246.765 503.372 246.761 503.365 246.758 503.357C246.768 503.381 246.779 503.404 246.791 503.428ZM227.781 503.005C227.805 503.083 227.831 503.161 227.86 503.237L227.861 503.238C227.832 503.162 227.805 503.084 227.781 503.005ZM246.617 503.009C246.615 503.001 246.612 502.993 246.609 502.984C246.603 502.969 246.599 502.953 246.595 502.938C246.591 502.929 246.587 502.921 246.585 502.912C246.595 502.945 246.606 502.977 246.617 503.009ZM234.641 503.003C234.654 502.946 234.667 502.889 234.679 502.832C234.682 502.816 234.684 502.799 234.687 502.782C234.673 502.857 234.658 502.93 234.641 503.003ZM243.209 502.744C243.209 502.744 243.209 502.741 243.208 502.74C243.205 502.727 243.203 502.714 243.199 502.702L243.197 502.698C243.201 502.713 243.205 502.728 243.209 502.744ZM234.747 502.366C234.749 502.354 234.751 502.341 234.752 502.329C234.755 502.304 234.756 502.279 234.759 502.254C234.755 502.292 234.751 502.329 234.747 502.366ZM184.749 501.93C184.858 502.055 184.953 502.186 185.036 502.326L185.001 502.265C184.97 502.216 184.937 502.169 184.902 502.122C184.855 502.055 184.803 501.992 184.749 501.93ZM317.85 502.3C317.863 502.221 317.875 502.14 317.887 502.059C317.887 502.048 317.888 502.037 317.89 502.026C317.878 502.118 317.866 502.21 317.85 502.3ZM246.396 501.883C246.402 501.964 246.41 502.043 246.42 502.122C246.417 502.1 246.415 502.078 246.413 502.056C246.409 502.018 246.405 501.98 246.402 501.941C246.4 501.922 246.398 501.903 246.396 501.883ZM234.773 502.084C234.774 502.079 234.775 502.073 234.775 502.068C234.781 501.981 234.786 501.892 234.789 501.802C234.785 501.897 234.78 501.991 234.773 502.084ZM298.914 501.965C298.916 501.981 298.918 501.997 298.921 502.013C298.912 501.935 298.904 501.856 298.897 501.776C298.903 501.839 298.908 501.903 298.914 501.965ZM317.9 501.941C317.904 501.899 317.911 501.856 317.915 501.814C317.918 501.78 317.919 501.745 317.922 501.711C317.916 501.789 317.908 501.865 317.9 501.941ZM298.89 501.682C298.891 501.695 298.892 501.71 298.893 501.725C298.888 501.639 298.883 501.552 298.879 501.464C298.882 501.538 298.884 501.61 298.89 501.682ZM246.379 501.46C246.379 501.535 246.381 501.609 246.384 501.682C246.384 501.677 246.383 501.671 246.383 501.666C246.38 501.598 246.379 501.53 246.379 501.459L246.379 501.46ZM263.075 501.658L263.076 501.658V501.541L263.077 501.54C263.077 501.535 263.076 501.53 263.076 501.524L263.075 501.658ZM242.285 501.27C242.406 501.359 242.519 501.462 242.622 501.577C242.587 501.538 242.552 501.5 242.516 501.464C242.443 501.394 242.366 501.329 242.285 501.27ZM104.429 501.42C104.432 501.433 104.434 501.446 104.437 501.459C104.431 501.429 104.428 501.399 104.422 501.369L104.429 501.42ZM298.875 501.391C298.875 501.399 298.875 501.408 298.875 501.416C298.871 501.31 298.869 501.201 298.868 501.092C298.869 501.193 298.871 501.293 298.875 501.391ZM104.413 501.327C104.404 501.281 104.397 501.235 104.386 501.189C104.382 501.168 104.376 501.146 104.37 501.125C104.386 501.192 104.4 501.259 104.413 501.327ZM104.347 501.035C104.338 501 104.331 500.965 104.321 500.93L104.31 500.895C104.323 500.941 104.335 500.988 104.347 501.035ZM241.594 500.929C241.692 500.959 241.788 500.994 241.879 501.035C241.789 500.994 241.693 500.958 241.594 500.928L241.594 500.929ZM321.075 500.643C321.07 500.76 321.066 500.88 321.066 501.003L321.067 501.002C321.067 500.88 321.07 500.76 321.075 500.643ZM209.05 500.736C209.215 500.795 209.37 500.864 209.512 500.948L209.513 500.947C209.37 500.863 209.216 500.795 209.05 500.736ZM208.345 500.571C208.34 500.571 208.334 500.571 208.33 500.57C208.304 500.567 208.279 500.563 208.252 500.559C208.283 500.563 208.314 500.567 208.345 500.571ZM104.12 500.389C104.147 500.448 104.173 500.508 104.198 500.569C104.171 500.502 104.143 500.436 104.113 500.372L104.12 500.389ZM240.215 500.533C240.18 500.54 240.144 500.546 240.107 500.55C240.102 500.55 240.097 500.552 240.093 500.552C240.134 500.548 240.175 500.541 240.215 500.533ZM240.432 500.477C240.428 500.478 240.424 500.48 240.419 500.481C240.413 500.483 240.407 500.485 240.402 500.487C240.435 500.477 240.467 500.466 240.498 500.453L240.499 500.452C240.477 500.461 240.454 500.469 240.432 500.477ZM169.852 500.385C169.854 500.377 169.858 500.37 169.861 500.362C169.871 500.33 169.879 500.298 169.89 500.267C169.877 500.305 169.863 500.345 169.852 500.385ZM246.485 500.317C246.481 500.332 246.48 500.347 246.476 500.362C246.48 500.341 246.484 500.32 246.489 500.3L246.485 500.317ZM170.089 499.777C170.018 499.918 169.955 500.068 169.903 500.225L169.92 500.178C169.976 500.02 170.04 499.87 170.115 499.73L170.089 499.777ZM240.936 500.106L240.953 500.085C240.965 500.067 240.976 500.047 240.986 500.029C240.971 500.055 240.954 500.081 240.936 500.106ZM305.624 500.005L305.6 499.89C305.587 499.83 305.573 499.771 305.558 499.713C305.583 499.808 305.604 499.906 305.624 500.005ZM184.534 499.97C184.538 499.958 184.542 499.946 184.544 499.933C184.549 499.907 184.552 499.879 184.557 499.852C184.55 499.891 184.542 499.931 184.534 499.97ZM193.569 499.909C193.547 499.858 193.524 499.807 193.5 499.758C193.49 499.736 193.477 499.714 193.466 499.693C193.503 499.763 193.537 499.835 193.569 499.909ZM184.563 499.819C184.563 499.809 184.566 499.8 184.567 499.79C184.572 499.753 184.576 499.715 184.58 499.677C184.575 499.725 184.569 499.772 184.563 499.819ZM103.604 499.603C103.63 499.633 103.657 499.663 103.683 499.693L103.579 499.574C103.562 499.555 103.543 499.536 103.525 499.516C103.552 499.544 103.578 499.574 103.604 499.603ZM227.961 499.602C227.955 499.613 227.95 499.625 227.946 499.636C227.974 499.575 228.002 499.515 228.033 499.457L227.961 499.602ZM262.787 499.189C262.787 499.187 262.787 499.183 262.787 499.181C262.767 499.117 262.747 499.054 262.727 498.993C262.749 499.057 262.767 499.123 262.787 499.189ZM228.393 498.93C228.396 498.926 228.399 498.923 228.403 498.919V498.918C228.399 498.922 228.396 498.926 228.393 498.93ZM262.72 498.973C262.719 498.971 262.719 498.969 262.718 498.966C262.707 498.935 262.696 498.905 262.686 498.874C262.678 498.854 262.67 498.834 262.663 498.814C262.682 498.867 262.702 498.919 262.72 498.973ZM315.863 498.664C315.89 498.704 315.916 498.746 315.941 498.788L315.856 498.652C315.858 498.656 315.861 498.66 315.863 498.664ZM153.019 498.621C152.974 498.644 152.93 498.669 152.887 498.697C152.871 498.707 152.855 498.719 152.84 498.729C152.912 498.682 152.985 498.639 153.059 498.602C153.077 498.593 153.095 498.584 153.114 498.575C153.082 498.589 153.049 498.604 153.019 498.621ZM231.953 498.409C232.018 498.456 232.083 498.505 232.145 498.559C232.108 498.527 232.069 498.495 232.031 498.465C232.005 498.445 231.979 498.428 231.953 498.409ZM228.953 498.409C228.917 498.435 228.88 498.462 228.844 498.491C228.883 498.461 228.923 498.432 228.962 498.403L228.953 498.409ZM191.882 498.289C191.916 498.3 191.95 498.312 191.983 498.324C191.998 498.33 192.014 498.335 192.029 498.341C191.996 498.327 191.962 498.315 191.928 498.303C191.913 498.298 191.897 498.293 191.882 498.289ZM231.748 498.276L231.671 498.232C231.646 498.218 231.62 498.207 231.594 498.194C231.646 498.22 231.698 498.247 231.748 498.276ZM229.612 498.071C229.476 498.117 229.346 498.174 229.219 498.243C229.305 498.196 229.392 498.156 229.481 498.12C229.524 498.103 229.568 498.086 229.612 498.071ZM191.296 498.18C191.379 498.184 191.461 498.192 191.542 498.205L191.425 498.189C191.382 498.185 191.338 498.182 191.296 498.18ZM193.085 497.432C193.295 497.616 193.49 497.832 193.671 498.083L193.672 498.084C193.491 497.833 193.295 497.616 193.085 497.432C193.055 497.407 193.027 497.384 192.997 497.36L193.085 497.432ZM251.244 496.839C251.206 496.818 251.167 496.795 251.127 496.773C251.087 496.752 251.045 496.733 251.005 496.712L251.001 496.712C251.083 496.752 251.164 496.794 251.244 496.839ZM240.838 496.702C240.825 496.699 240.812 496.694 240.8 496.691C240.783 496.687 240.766 496.685 240.749 496.682C240.779 496.687 240.808 496.695 240.838 496.702ZM240.432 496.636C240.529 496.646 240.623 496.659 240.714 496.675C240.664 496.666 240.612 496.655 240.559 496.648C240.556 496.648 240.554 496.648 240.551 496.647L240.432 496.636ZM332.808 495.96C332.799 495.962 332.79 495.965 332.781 495.968C332.806 495.96 332.832 495.953 332.858 495.946C332.841 495.951 332.824 495.955 332.808 495.96ZM328.808 86.8413C328.517 86.9198 328.226 86.9909 327.935 87.0556L327.968 92.5546L322.443 92.5878L322.599 118.076L308.039 95.4731L307.368 96.4686L307.494 117.325L300.399 106.82L294.87 115.032L294.771 98.4838L287.483 87.6961C286.643 87.671 285.798 87.5869 284.952 87.4454L277.775 87.4891L253.57 118.805L253.38 87.4834C252.062 87.7834 250.729 87.9355 249.405 87.9436C247.741 87.9541 246.066 87.739 244.421 87.2877C243.094 87.5853 241.844 87.7018 240.73 87.7139V87.7163L233.794 87.7584C232.735 87.9508 231.669 88.0527 230.609 88.0592C229.544 88.0657 228.478 87.9783 227.416 87.798L210.591 87.9007L210.778 118.76L191.763 89.2415L191.943 118.875L172.319 88.4142C171.268 88.4199 170.226 88.3309 169.199 88.1538L158.799 88.2169L157.256 91.6271L155.912 90.3356L154.628 93.6148L153.461 93.6213L146.626 111.779L140.423 97.1673L133.172 93.7458L115.865 93.8525L97.9453 93.9617L89.2851 106.825L89.3951 127.933L86.8292 127.951L86.8381 129.748L86.8898 139.81L118.166 168.475L88.9382 168.684L86.7321 174.227C86.8106 174.571 86.8826 174.915 86.9473 175.26L92.439 175.222L92.4721 181.763L117.928 181.579L95.3535 198.821L96.3481 199.615L117.178 199.466L106.686 207.868L114.888 214.416L98.3609 214.534L87.5869 223.163C87.5619 224.157 87.4769 225.158 87.3354 226.159L87.3799 234.659L118.656 263.324L87.3734 263.548C87.6734 265.109 87.8255 266.687 87.8336 268.255C87.8441 270.226 87.629 272.209 87.1785 274.157C87.4753 275.728 87.5918 277.209 87.6039 278.528H87.6063L87.6484 286.741C87.8409 287.996 87.9419 289.258 87.9484 290.514C87.9549 291.774 87.8675 293.038 87.688 294.295L87.7907 314.219L118.612 313.998L89.1299 336.515L118.727 336.303L88.3034 359.541C88.3091 360.785 88.2201 362.019 88.043 363.235L88.1061 375.551L91.5122 377.378L90.2224 378.97L93.4975 380.491L93.5048 381.873L111.639 389.966L97.046 397.312L90.2224 399.59L93.7345 394.855L99.8513 391.504L109.166 400.811C109.925 400.71 110.683 400.656 111.436 400.651L112.002 400.657C112.768 400.676 113.542 400.746 114.315 400.866L150.973 400.642C151.941 400.478 152.891 400.399 153.808 400.393L154.43 400.401C155.12 400.421 155.875 400.482 156.674 400.608L158.223 400.599L158.799 400.595L169.165 400.532C170.114 400.371 171.075 400.287 172.041 400.281L172.246 400.283L191.275 370.642L191.452 399.59L210.111 370.526L210.292 400.28L210.353 400.279L220.202 400.219L227.388 400.175C228.358 400.013 229.334 399.93 230.307 399.924L230.799 399.928C231.608 399.945 232.419 400.014 233.227 400.139L239.912 400.099H239.914L240.432 400.096L240.432 400.103C241.442 400.126 242.669 400.241 244.023 400.558C245.697 400.066 247.403 399.82 249.104 399.81L249.596 399.813C250.758 399.837 251.925 399.971 253.084 400.22L253.082 400.018L253.455 400.016L253.97 398.652L256.064 400H256.185C257.145 399.838 258.107 399.755 259.062 399.748C260.016 399.742 260.982 399.813 261.95 399.964L268.879 399.922L293.139 368.537L293.279 391.504L294.344 389.964L294.222 370.012L301.016 380.316L306.904 371.805L307.011 389.407L308.207 391.221L321.932 369.842L322.112 399.441C322.672 399.387 323.233 399.356 323.792 399.353L324.286 399.356C325.094 399.372 325.904 399.442 326.712 399.568L327.637 399.562L327.638 399.735C327.773 399.763 327.909 399.792 328.044 399.823L328.657 398.195L330.776 399.559C331.768 399.386 332.763 399.298 333.75 399.292C334.703 399.286 335.668 399.357 336.633 399.506L342.872 399.469L348.975 399.431L373.234 368.046L373.412 397.307L373.364 389.407C373.362 389.326 373.965 373.778 383.16 393.744H384.43C384.448 392.823 386.424 401.44 386.547 400.518L388.664 401.788L388.24 399.431L390.096 399.43L390.341 403.651L390.34 403.504C390.179 402.368 390.096 401.23 390.09 400.101L390.096 399.43C390.115 398.522 390.185 397.606 390.304 396.69L390.08 384.818C389.917 383.672 389.838 382.548 389.832 381.462L389.839 380.725C389.859 379.907 389.92 379.014 390.046 378.068L390.037 376.233L390.033 375.551L389.97 363.275C389.809 362.152 389.725 361.014 389.72 359.87L389.722 359.627L360.117 337.092L389.03 336.883L360.002 314.787L389.719 314.573L389.718 314.501L389.658 302.838L389.614 294.327C389.452 293.178 389.37 292.023 389.363 290.871L389.367 290.288C389.384 289.331 389.454 288.37 389.578 287.412L389.538 279.497V279.495L389.535 278.881L389.542 278.88C389.565 277.686 389.68 276.232 389.996 274.629C389.505 272.647 389.26 270.625 389.249 268.612L389.252 268.029C389.276 266.653 389.411 265.271 389.66 263.899L389.458 263.901L389.455 263.459L388.093 262.851L389.438 260.37V260.227C389.277 259.09 389.193 257.951 389.188 256.82C389.181 255.69 389.252 254.545 389.403 253.399L389.361 245.194L358.016 216.466L380.954 216.3L379.416 215.038L359.488 215.182L369.78 207.137L361.279 200.165L378.859 200.038L380.671 198.622L359.319 182.369L388.881 182.155C388.826 181.492 388.796 180.828 388.792 180.165L388.795 179.582C388.812 178.625 388.883 177.665 389.007 176.709L389.002 175.613L389.174 175.611C389.202 175.451 389.231 175.29 389.262 175.13L387.637 174.405L388.998 171.895C388.826 170.72 388.738 169.543 388.732 168.374C388.726 167.246 388.796 166.103 388.947 164.959L388.909 157.571L388.871 150.344L357.525 121.617L388.505 121.393C388.529 120.531 388.596 119.666 388.709 118.804V118.776L388.664 110.282L388.656 108.662L388.653 108.134L388.589 95.7044C388.429 94.5812 388.345 93.4434 388.339 92.2991C388.339 92.2182 388.341 92.1373 388.342 92.0565L384.856 89.4032L367.9 89.5075L367.885 86.9384L366.368 86.9473L357.87 86.999L333.664 118.314L333.488 89.0498L328.808 86.8413ZM419.172 445.358C419.022 445.548 418.852 445.729 418.663 445.899C418.671 445.892 418.68 445.886 418.687 445.879C418.782 445.793 418.873 445.705 418.957 445.613C419.033 445.531 419.105 445.444 419.173 445.357L419.172 445.358ZM419.749 444.329C419.755 444.314 419.761 444.299 419.767 444.284C419.768 444.28 419.769 444.276 419.77 444.273C419.764 444.292 419.756 444.31 419.749 444.329ZM419.92 443.747C419.888 443.895 419.85 444.038 419.804 444.178C419.826 444.112 419.846 444.045 419.865 443.979C419.874 443.947 419.88 443.916 419.888 443.885C419.895 443.855 419.902 443.825 419.909 443.794C419.912 443.779 419.916 443.763 419.92 443.747ZM419.98 443.389C419.965 443.501 419.948 443.612 419.925 443.719C419.928 443.709 419.929 443.699 419.931 443.689C419.944 443.624 419.958 443.558 419.967 443.491C419.972 443.457 419.975 443.423 419.98 443.389ZM419.985 443.345C419.988 443.318 419.993 443.291 419.995 443.264C419.997 443.248 419.997 443.234 419.998 443.218C419.994 443.261 419.99 443.303 419.985 443.345ZM420.006 443.114C420.009 443.084 420.012 443.054 420.014 443.024C420.014 443.019 420.014 443.014 420.014 443.008C420.012 443.044 420.009 443.079 420.006 443.114ZM420.014 442.462C420.018 442.547 420.02 442.635 420.021 442.724C420.021 442.806 420.019 442.887 420.016 442.968C420.019 442.888 420.022 442.807 420.022 442.725C420.021 442.636 420.018 442.548 420.014 442.463C420.01 442.383 420.003 442.303 419.996 442.226C420.003 442.303 420.009 442.382 420.014 442.462ZM419.823 441.319C419.871 441.481 419.911 441.646 419.941 441.818C419.935 441.785 419.931 441.751 419.924 441.718C419.908 441.639 419.891 441.56 419.871 441.484C419.857 441.428 419.84 441.374 419.823 441.319ZM68.8797 432.504L68.9231 432.278C68.9252 432.265 68.9266 432.253 68.9286 432.24C68.9291 432.236 68.9288 432.233 68.9294 432.229C68.9149 432.322 68.8991 432.413 68.8797 432.504ZM419.845 432.504L419.888 432.278C419.891 432.265 419.892 432.253 419.894 432.24C419.895 432.236 419.895 432.233 419.895 432.229C419.88 432.322 419.865 432.413 419.845 432.504ZM68.9713 431.885C68.9735 431.861 68.9773 431.837 68.9791 431.813C68.9834 431.757 68.9852 431.702 68.9879 431.647C68.984 431.727 68.9784 431.806 68.9713 431.885ZM419.937 431.885C419.939 431.861 419.943 431.837 419.945 431.813C419.949 431.757 419.95 431.702 419.954 431.647C419.95 431.727 419.944 431.806 419.937 431.885ZM68.9894 431.628C68.9902 431.61 68.9919 431.592 68.9925 431.574C68.9955 431.494 68.9969 431.413 68.9965 431.331L68.9957 431.33C68.9963 431.43 68.9938 431.53 68.9894 431.628ZM419.955 431.628C419.956 431.61 419.958 431.592 419.958 431.574C419.961 431.494 419.963 431.413 419.962 431.331L419.961 431.33C419.962 431.43 419.959 431.53 419.955 431.628ZM88.3673 394.751L93.4442 394.715L88.356 392.261L88.3673 394.751ZM439.333 426.29L444.41 426.253L439.322 423.799L439.333 426.29ZM66.7908 385.055C66.6328 385.151 66.4645 385.24 66.2862 385.323C66.3753 385.282 66.462 385.239 66.546 385.194C66.6302 385.15 66.7117 385.103 66.7908 385.055ZM417.757 385.055C417.598 385.151 417.43 385.24 417.252 385.323C417.341 385.282 417.427 385.239 417.511 385.194C417.596 385.15 417.677 385.103 417.757 385.055ZM60.2512 382.396C60.2746 382.449 60.3003 382.501 60.3277 382.553C60.3378 382.572 60.3496 382.59 60.3601 382.608C60.3121 382.523 60.2694 382.437 60.2322 382.349C60.2231 382.327 60.2139 382.304 60.2053 382.283C60.2201 382.321 60.2344 382.359 60.2512 382.396ZM411.217 382.396C411.24 382.449 411.266 382.501 411.294 382.553C411.303 382.572 411.315 382.59 411.326 382.608C411.277 382.523 411.235 382.437 411.197 382.349C411.188 382.327 411.18 382.304 411.171 382.283C411.186 382.321 411.2 382.359 411.217 382.396ZM68.7272 381.085C68.726 381.06 68.7271 381.036 68.7257 381.012C68.7236 380.979 68.7203 380.946 68.7178 380.912C68.7221 380.969 68.7242 381.026 68.7272 381.085ZM419.692 381.085C419.692 381.06 419.692 381.036 419.691 381.012C419.689 380.979 419.686 380.946 419.684 380.912C419.688 380.969 419.69 381.026 419.692 381.085ZM68.6609 380.423C68.6726 380.496 68.6826 380.571 68.6917 380.646C68.6903 380.635 68.6899 380.625 68.6886 380.613C68.6804 380.549 68.6709 380.485 68.6609 380.423ZM419.626 380.423C419.638 380.496 419.648 380.571 419.657 380.646C419.656 380.635 419.655 380.625 419.654 380.613C419.646 380.549 419.637 380.485 419.626 380.423ZM62.0146 362.462C62.0066 362.458 61.9989 362.455 61.9909 362.452C61.9587 362.441 61.9268 362.429 61.8954 362.417C61.9346 362.433 61.9742 362.448 62.0146 362.462ZM412.98 362.462C412.972 362.458 412.964 362.455 412.956 362.452C412.924 362.441 412.892 362.429 412.861 362.417C412.9 362.433 412.94 362.448 412.98 362.462ZM61.269 362.094C61.4486 362.216 61.6437 362.319 61.8543 362.403L61.8077 362.382C61.6491 362.315 61.4997 362.238 61.3591 362.15C61.329 362.132 61.2984 362.113 61.269 362.094ZM412.235 362.094C412.414 362.216 412.609 362.319 412.82 362.403L412.773 362.382C412.615 362.315 412.465 362.238 412.325 362.15C412.295 362.132 412.264 362.113 412.235 362.094ZM68.6261 359.655C68.6269 359.812 68.621 359.965 68.6087 360.116C68.615 360.04 68.6201 359.962 68.623 359.884C68.6257 359.808 68.6265 359.732 68.6261 359.655ZM419.591 359.655C419.592 359.812 419.587 359.965 419.574 360.116C419.581 360.04 419.586 359.962 419.588 359.884C419.591 359.808 419.592 359.732 419.591 359.655ZM61.5976 345.074C61.5857 345.071 61.5741 345.067 61.5621 345.064C61.5319 345.057 61.5013 345.052 61.4705 345.046C61.5135 345.054 61.5558 345.064 61.5976 345.074ZM412.563 345.074C412.551 345.071 412.54 345.067 412.528 345.064C412.498 345.057 412.467 345.052 412.436 345.046C412.479 345.054 412.521 345.064 412.563 345.074ZM61.4562 345.044C61.4441 345.041 61.4321 345.039 61.4199 345.036C61.3864 345.031 61.3523 345.027 61.318 345.023C61.3648 345.028 61.4109 345.035 61.4562 345.044ZM412.422 345.044C412.41 345.041 412.397 345.039 412.385 345.036C412.352 345.031 412.318 345.027 412.283 345.023C412.33 345.028 412.376 345.035 412.422 345.044ZM63.8917 344.524C63.8851 344.528 63.8786 344.534 63.872 344.539C63.8982 344.519 63.925 344.5 63.9517 344.481L63.8917 344.524ZM414.857 344.524C414.851 344.528 414.844 344.534 414.837 344.539C414.864 344.519 414.891 344.5 414.917 344.481L414.857 344.524ZM66.0256 339.514L65.896 339.617L65.8953 339.617C65.9395 339.584 65.983 339.549 66.0256 339.514C66.0672 339.477 66.1074 339.441 66.1464 339.403L66.0256 339.514ZM416.991 339.514L416.861 339.617L416.861 339.617C416.905 339.584 416.949 339.549 416.991 339.514C417.033 339.477 417.073 339.441 417.112 339.403L416.991 339.514ZM68.0749 339.41C68.0809 339.397 68.088 339.385 68.0939 339.372C68.1133 339.33 68.1303 339.287 68.1484 339.245C68.1248 339.3 68.1003 339.355 68.0749 339.41ZM419.041 339.41C419.046 339.397 419.054 339.385 419.059 339.372C419.079 339.33 419.096 339.287 419.113 339.245C419.09 339.3 419.066 339.355 419.041 339.41ZM68.4311 338.294C68.428 338.311 68.424 338.328 68.4208 338.345C68.4241 338.328 68.4287 338.311 68.4319 338.293C68.4394 338.251 68.4452 338.209 68.4516 338.167L68.4311 338.294ZM419.396 338.294C419.393 338.311 419.389 338.328 419.386 338.345C419.389 338.328 419.394 338.311 419.397 338.293C419.405 338.251 419.41 338.209 419.417 338.167L419.396 338.294ZM68.5108 337.35C68.5113 337.432 68.5107 337.512 68.5077 337.592C68.5108 337.512 68.512 337.431 68.5116 337.349C68.5115 337.311 68.5087 337.273 68.5077 337.235L68.5108 337.35ZM419.477 337.35C419.477 337.432 419.476 337.512 419.473 337.592C419.477 337.512 419.477 337.431 419.477 337.349C419.477 337.311 419.474 337.273 419.473 337.235L419.477 337.35ZM59.8207 336.916C59.8162 336.967 59.8134 337.018 59.8112 337.069C59.8154 336.971 59.8235 336.873 59.8365 336.776L59.8207 336.916ZM410.787 336.916C410.782 336.967 410.779 337.018 410.777 337.069C410.781 336.971 410.789 336.873 410.802 336.776L410.787 336.916ZM59.9345 336.32C59.9291 336.337 59.9244 336.356 59.9194 336.374C59.9306 336.333 59.943 336.294 59.9557 336.254C59.9615 336.236 59.9663 336.218 59.9723 336.2C59.9589 336.24 59.9463 336.279 59.9345 336.32ZM410.9 336.32C410.895 336.337 410.89 336.356 410.885 336.374C410.897 336.333 410.909 336.294 410.922 336.254C410.927 336.236 410.932 336.218 410.938 336.2C410.924 336.24 410.912 336.279 410.9 336.32ZM68.3892 336.316C68.3798 336.276 68.3698 336.237 68.3592 336.198L68.3577 336.194C68.3686 336.235 68.3795 336.275 68.3892 336.316ZM419.354 336.316C419.346 336.276 419.335 336.237 419.325 336.198C419.325 336.198 419.324 336.196 419.323 336.194C419.334 336.235 419.345 336.275 419.354 336.316ZM68.3332 336.107C68.332 336.103 68.3311 336.1 68.33 336.096C68.3233 336.074 68.3158 336.052 68.3086 336.029C68.2982 335.997 68.2875 335.965 68.2763 335.933C68.2964 335.99 68.3156 336.049 68.3332 336.107ZM419.299 336.107C419.298 336.103 419.296 336.1 419.295 336.096C419.289 336.074 419.282 336.052 419.274 336.029C419.264 335.997 419.253 335.965 419.242 335.933C419.262 335.99 419.281 336.049 419.299 336.107ZM68.0567 335.43C68.0522 335.421 68.0479 335.412 68.0433 335.404C68.0382 335.394 68.0326 335.385 68.0275 335.376C68.0374 335.394 68.0471 335.412 68.0567 335.43ZM419.022 335.43C419.018 335.421 419.013 335.412 419.009 335.404C419.004 335.394 418.998 335.385 418.993 335.376C419.003 335.394 419.012 335.412 419.022 335.43ZM59.7149 334.255C59.4645 334.469 59.2473 334.7 59.0642 334.949C59.0391 334.984 59.0161 335.018 58.9923 335.053L58.982 335.069L59.0642 334.949C59.2473 334.7 59.4638 334.469 59.7141 334.256L59.7149 334.255ZM410.681 334.255C410.43 334.469 410.213 334.7 410.03 334.949C410.005 334.984 409.982 335.018 409.958 335.053L409.948 335.069L410.03 334.949C410.212 334.7 410.429 334.469 410.68 334.256L410.681 334.255ZM67.579 334.723C67.6302 334.784 67.6797 334.845 67.7266 334.908L67.5798 334.722C67.5284 334.662 67.4743 334.603 67.4186 334.545L67.579 334.723ZM418.544 334.723C418.596 334.784 418.645 334.845 418.692 334.908L418.545 334.722C418.494 334.662 418.44 334.603 418.384 334.545L418.544 334.723ZM61.3875 334.458C61.3696 334.469 61.3523 334.48 61.3346 334.49C61.4007 334.45 61.4685 334.412 61.5384 334.376C61.4871 334.402 61.4367 334.43 61.3875 334.458ZM412.353 334.458C412.335 334.469 412.317 334.48 412.3 334.49C412.366 334.45 412.434 334.412 412.504 334.376C412.452 334.402 412.402 334.43 412.353 334.458ZM62.5745 315.496C62.5066 315.634 62.4472 315.782 62.396 315.94C62.4474 315.783 62.5074 315.635 62.5753 315.497L62.5745 315.496ZM413.54 315.496C413.472 315.634 413.413 315.782 413.361 315.94C413.413 315.783 413.473 315.635 413.541 315.497L413.54 315.496ZM63.0988 314.757C63.1297 314.726 63.1615 314.696 63.1936 314.666L63.0988 314.757ZM414.064 314.757C414.096 314.726 414.127 314.696 414.16 314.666L414.064 314.757ZM64.6254 293.864C64.7059 293.835 64.785 293.804 64.8615 293.769L64.8623 293.769C64.7855 293.804 64.7062 293.835 64.6254 293.864ZM415.591 293.864C415.672 293.835 415.75 293.804 415.827 293.769L415.828 293.769C415.751 293.804 415.672 293.835 415.591 293.864ZM61.232 293.65C61.2439 293.656 61.2563 293.662 61.2683 293.668C61.2065 293.635 61.1456 293.6 61.0867 293.563L61.232 293.65ZM412.198 293.65C412.209 293.656 412.222 293.662 412.234 293.668C412.172 293.635 412.111 293.6 412.052 293.563L412.198 293.65ZM65.7121 293.199C65.6171 293.289 65.5161 293.372 65.4112 293.448C65.5157 293.372 65.6166 293.29 65.7113 293.199L65.7121 293.199ZM416.678 293.199C416.582 293.289 416.482 293.372 416.377 293.448C416.481 293.372 416.582 293.29 416.677 293.199L416.678 293.199ZM60.5607 293.138C60.5567 293.134 60.5537 293.13 60.5496 293.126H60.548C60.5522 293.13 60.5565 293.134 60.5607 293.138ZM411.526 293.138C411.522 293.134 411.519 293.13 411.515 293.126H411.514C411.518 293.13 411.522 293.134 411.526 293.138ZM60.0403 292.474C60.0665 292.518 60.0939 292.56 60.1224 292.603C60.0918 292.557 60.0628 292.51 60.0347 292.463L60.0403 292.474ZM411.006 292.474C411.032 292.518 411.059 292.56 411.088 292.603C411.057 292.557 411.028 292.51 411 292.463L411.006 292.474ZM59.7022 291.694C59.7481 291.854 59.8053 292.01 59.8744 292.159C59.8279 292.058 59.7872 291.955 59.7512 291.848C59.7338 291.798 59.7172 291.746 59.7022 291.694ZM410.668 291.694C410.714 291.854 410.771 292.01 410.84 292.159C410.794 292.058 410.753 291.955 410.717 291.848C410.699 291.798 410.683 291.746 410.668 291.694ZM410.533 290.719C410.534 290.927 410.552 291.128 410.585 291.323C410.552 291.129 410.535 290.928 410.533 290.719ZM68.255 291.118C68.2575 291.08 68.261 291.042 68.2629 291.004C68.2643 290.974 68.2642 290.943 68.2652 290.913C68.2625 290.982 68.2595 291.051 68.255 291.118ZM419.22 291.118C419.223 291.08 419.227 291.042 419.228 291.004C419.23 290.974 419.23 290.943 419.231 290.913C419.228 290.982 419.225 291.051 419.22 291.118ZM68.1436 289.442C68.2167 289.783 68.2576 290.139 68.2676 290.514C68.2643 290.379 68.2581 290.245 68.2463 290.114C68.2254 289.883 68.1903 289.659 68.1436 289.442ZM419.109 289.442C419.182 289.783 419.223 290.139 419.233 290.514C419.23 290.379 419.223 290.245 419.212 290.114C419.191 289.883 419.156 289.659 419.109 289.442ZM59.8634 289.255C59.85 289.285 59.8379 289.316 59.8255 289.347C59.8509 289.285 59.8783 289.225 59.9076 289.165L59.8634 289.255ZM410.829 289.255C410.816 289.285 410.804 289.316 410.791 289.347C410.816 289.285 410.844 289.225 410.873 289.165L410.829 289.255ZM60.0964 288.829C60.037 288.921 59.9829 289.014 59.9337 289.111C59.9584 289.062 59.9845 289.014 60.0119 288.968C60.066 288.875 60.1254 288.783 60.1895 288.694C60.1574 288.739 60.1259 288.784 60.0964 288.829ZM411.061 288.829C411.002 288.921 410.948 289.014 410.899 289.111C410.924 289.062 410.95 289.014 410.977 288.968C411.032 288.875 411.091 288.783 411.155 288.694C411.123 288.739 411.091 288.784 411.061 288.829ZM63.1668 287.286C63.0249 287.287 62.887 287.294 62.753 287.305L62.9575 287.292C63.0263 287.289 63.0961 287.287 63.1668 287.286ZM414.132 287.286C413.991 287.287 413.852 287.294 413.719 287.305L413.923 287.292C413.992 287.289 414.062 287.287 414.132 287.286ZM64.653 285.744C64.5883 285.726 64.5232 285.709 64.4572 285.694C64.4428 285.691 64.4282 285.688 64.4137 285.685C64.4944 285.703 64.5742 285.722 64.653 285.744ZM415.618 285.744C415.554 285.726 415.489 285.709 415.423 285.694C415.408 285.691 415.394 285.688 415.379 285.685C415.46 285.703 415.54 285.722 415.618 285.744ZM64.0268 285.616C64.0028 285.613 63.979 285.61 63.9549 285.607C63.9131 285.601 63.8709 285.598 63.8286 285.593C63.8952 285.6 63.9613 285.608 64.0268 285.616ZM414.992 285.616C414.968 285.613 414.945 285.61 414.92 285.607C414.878 285.601 414.836 285.598 414.794 285.593C414.861 285.6 414.927 285.608 414.992 285.616ZM63.7298 285.582C63.7183 285.582 63.7067 285.581 63.6951 285.58C63.6074 285.573 63.5187 285.567 63.4289 285.564C63.5305 285.568 63.6308 285.574 63.7298 285.582ZM414.696 285.582C414.684 285.582 414.672 285.581 414.661 285.58C414.573 285.573 414.485 285.567 414.395 285.564C414.496 285.568 414.596 285.574 414.696 285.582ZM58.757 283.016L59.1227 283.013L67.9509 282.95L67.9502 282.949L58.757 283.016ZM409.722 283.016L410.088 283.013L418.916 282.95L418.915 282.949L409.722 283.016ZM62.1607 279.131C62.1676 279.174 62.1734 279.22 62.1781 279.266C62.1786 279.272 62.1798 279.278 62.1804 279.284C62.1745 279.221 62.1659 279.16 62.1559 279.101C62.1574 279.111 62.1591 279.12 62.1607 279.131ZM413.126 279.131C413.133 279.174 413.139 279.22 413.144 279.266C413.144 279.272 413.145 279.278 413.146 279.284C413.14 279.221 413.132 279.16 413.121 279.101C413.123 279.111 413.124 279.12 413.126 279.131ZM66.4149 278.707C66.4293 278.859 66.4377 279.025 66.4386 279.204C66.4371 278.915 66.4166 278.662 66.3802 278.442C66.3943 278.525 66.4062 278.614 66.4149 278.707ZM417.38 278.707C417.395 278.859 417.403 279.025 417.404 279.204C417.402 278.915 417.382 278.662 417.346 278.442C417.359 278.525 417.372 278.614 417.38 278.707ZM62.1046 278.881C62.1061 278.887 62.1078 278.891 62.1093 278.897C62.1121 278.906 62.1151 278.916 62.1181 278.925C62.1067 278.883 62.0949 278.842 62.081 278.802L62.0801 278.802C62.0893 278.828 62.0966 278.854 62.1046 278.881ZM413.07 278.881C413.072 278.887 413.073 278.891 413.075 278.897C413.078 278.906 413.081 278.916 413.083 278.925C413.073 278.883 413.061 278.842 413.047 278.802L413.046 278.802C413.055 278.828 413.062 278.854 413.07 278.881ZM58.2815 278.73C58.2812 278.734 58.2811 278.737 58.2807 278.741L58.2697 278.881C58.278 278.779 58.2891 278.68 58.3029 278.584C58.2956 278.632 58.2872 278.68 58.2815 278.73ZM409.247 278.73C409.247 278.734 409.247 278.737 409.246 278.741L409.236 278.881C409.244 278.779 409.255 278.68 409.269 278.584C409.261 278.632 409.253 278.68 409.247 278.73ZM61.908 278.466C61.955 278.532 61.9965 278.604 62.0319 278.681L61.9751 278.57C61.9545 278.534 61.9322 278.499 61.9088 278.467L61.908 278.466ZM412.874 278.466C412.921 278.532 412.962 278.604 412.997 278.681L412.941 278.57C412.92 278.534 412.898 278.499 412.875 278.467L412.874 278.466ZM58.3242 278.447C58.321 278.464 58.3193 278.481 58.3163 278.499C58.3217 278.467 58.3276 278.435 58.3337 278.404C58.3308 278.418 58.3269 278.432 58.3242 278.447ZM409.29 278.447C409.286 278.464 409.285 278.481 409.282 278.499C409.287 278.467 409.293 278.435 409.299 278.404C409.296 278.418 409.292 278.432 409.29 278.447ZM66.377 278.424C66.369 278.377 66.3621 278.333 66.3525 278.289L66.3272 278.194C66.3462 278.266 66.3626 278.342 66.377 278.424ZM417.342 278.424C417.334 278.377 417.328 278.333 417.318 278.289L417.293 278.194C417.312 278.266 417.328 278.342 417.342 278.424ZM61.7358 278.284L61.7137 278.264C61.6959 278.249 61.6762 278.237 61.6576 278.224C61.6843 278.243 61.7104 278.263 61.7358 278.284ZM412.702 278.284L412.679 278.264C412.661 278.249 412.642 278.237 412.623 278.224C412.65 278.243 412.676 278.263 412.702 278.284ZM63.2031 276.288C63.1647 276.329 63.1273 276.371 63.0918 276.414C62.8416 276.719 62.663 277.082 62.5563 277.505L62.5571 277.505C62.679 277.023 62.8938 276.617 63.2031 276.288ZM414.168 276.288C414.13 276.329 414.092 276.371 414.058 276.414C413.807 276.719 413.628 277.082 413.521 277.505L413.522 277.505C413.644 277.023 413.86 276.617 414.168 276.288ZM64.3656 275.594C64.3529 275.597 64.3401 275.6 64.3277 275.604L64.3237 275.606C64.3389 275.601 64.3542 275.597 64.3695 275.593L64.3656 275.594ZM415.331 275.594C415.318 275.597 415.305 275.6 415.293 275.604L415.289 275.606C415.305 275.601 415.32 275.597 415.335 275.593L415.331 275.594ZM64.7115 271.524C64.707 271.525 64.7026 271.528 64.6981 271.53C64.714 271.523 64.7304 271.517 64.7463 271.51C64.7349 271.515 64.7228 271.519 64.7115 271.524ZM415.677 271.524C415.673 271.525 415.668 271.528 415.664 271.53C415.68 271.523 415.696 271.517 415.711 271.51C415.701 271.515 415.689 271.519 415.677 271.524ZM64.9365 271.414C64.9251 271.421 64.9142 271.428 64.9026 271.434L64.942 271.412C64.9403 271.413 64.9383 271.414 64.9365 271.414ZM415.902 271.414C415.891 271.421 415.88 271.428 415.868 271.434L415.908 271.412C415.906 271.413 415.904 271.414 415.902 271.414ZM65.5904 270.945C65.5923 270.943 65.5949 270.941 65.5967 270.94L65.6047 270.932C65.6001 270.936 65.595 270.94 65.5904 270.945ZM416.556 270.945C416.558 270.943 416.561 270.941 416.562 270.94L416.57 270.932C416.565 270.936 416.56 270.94 416.556 270.945ZM58.4063 266.216C58.3849 266.264 58.3654 266.312 58.3455 266.361C58.3455 266.361 58.3453 266.363 58.3447 266.365C58.3855 266.265 58.429 266.167 58.4758 266.071C58.452 266.118 58.4285 266.167 58.4063 266.216ZM409.372 266.216C409.35 266.264 409.331 266.312 409.311 266.361C409.311 266.361 409.311 266.363 409.31 266.365C409.351 266.265 409.395 266.167 409.442 266.071C409.417 266.118 409.394 266.167 409.372 266.216ZM58.6298 265.781C58.5762 265.873 58.5269 265.968 58.4797 266.063C58.5265 265.967 58.5763 265.873 58.6298 265.781ZM409.595 265.781C409.542 265.873 409.493 265.968 409.445 266.063C409.492 265.967 409.542 265.873 409.595 265.781ZM68.0567 255.892C68.054 255.868 68.0519 255.845 68.0488 255.822C68.0469 255.807 68.0431 255.792 68.041 255.777C68.0462 255.815 68.0523 255.853 68.0567 255.892ZM419.022 255.892C419.02 255.868 419.017 255.845 419.014 255.822C419.012 255.807 419.008 255.792 419.007 255.777C419.012 255.815 419.018 255.853 419.022 255.892ZM65.8211 254.446C65.844 254.471 65.8681 254.494 65.8905 254.52C65.8975 254.529 65.9035 254.538 65.9103 254.547C65.9614 254.608 66.011 254.67 66.0564 254.735C66.0051 254.662 65.9499 254.591 65.8913 254.521C65.8443 254.467 65.796 254.414 65.7468 254.363C65.7722 254.39 65.7961 254.418 65.8211 254.446ZM416.787 254.446C416.81 254.471 416.834 254.494 416.856 254.52C416.863 254.529 416.869 254.538 416.876 254.547C416.927 254.608 416.976 254.67 417.022 254.735C416.97 254.662 416.915 254.591 416.856 254.521C416.81 254.467 416.762 254.414 416.713 254.363C416.738 254.39 416.762 254.418 416.787 254.446ZM60.597 252.49C60.5659 252.502 60.5353 252.516 60.5046 252.529C60.4851 252.537 60.4655 252.546 60.4462 252.554C60.498 252.531 60.5503 252.509 60.6033 252.488C60.6014 252.489 60.599 252.489 60.597 252.49ZM411.563 252.49C411.531 252.502 411.501 252.516 411.47 252.529C411.45 252.537 411.431 252.546 411.412 252.554C411.463 252.531 411.516 252.509 411.569 252.488C411.567 252.489 411.564 252.489 411.563 252.49ZM60.811 252.409C60.7475 252.432 60.6849 252.456 60.6231 252.48C60.6874 252.454 60.7528 252.431 60.8189 252.407C60.8164 252.408 60.8135 252.408 60.811 252.409ZM411.776 252.409C411.713 252.432 411.65 252.456 411.589 252.48C411.653 252.454 411.718 252.431 411.784 252.407C411.782 252.408 411.779 252.408 411.776 252.409ZM63.1518 252.065H63.1502C63.1952 252.066 63.2405 252.065 63.286 252.066L63.2852 252.065H63.1684L63.1676 252.064C63.1623 252.064 63.1571 252.065 63.1518 252.065ZM414.117 252.065H414.116C414.161 252.066 414.206 252.065 414.252 252.066L414.251 252.065H414.134L414.133 252.064C414.128 252.064 414.122 252.065 414.117 252.065ZM63.3705 209.649C63.1604 209.668 62.9436 209.679 62.7198 209.681C62.8207 209.68 62.9202 209.678 63.0183 209.674C63.1166 209.67 63.2135 209.664 63.3089 209.656C63.3295 209.654 63.35 209.65 63.3705 209.649ZM414.336 209.649C414.126 209.668 413.909 209.679 413.686 209.681C413.786 209.68 413.885 209.678 413.984 209.674C414.082 209.67 414.179 209.664 414.274 209.656C414.295 209.654 414.316 209.65 414.336 209.649ZM63.4069 209.645C63.469 209.64 63.5308 209.634 63.5916 209.627C63.6254 209.623 63.6587 209.617 63.6919 209.612C63.5984 209.625 63.5033 209.636 63.4069 209.645ZM414.372 209.645C414.435 209.64 414.496 209.634 414.557 209.627C414.591 209.623 414.625 209.617 414.658 209.612C414.564 209.625 414.469 209.636 414.372 209.645ZM65.9189 208.769C65.9289 208.762 65.9393 208.756 65.949 208.749C65.9662 208.736 65.9825 208.723 65.9996 208.71C65.973 208.73 65.946 208.749 65.9189 208.769ZM416.885 208.769C416.895 208.762 416.905 208.756 416.915 208.749C416.932 208.736 416.948 208.723 416.965 208.71C416.938 208.73 416.911 208.749 416.885 208.769ZM67.3049 207.167C67.3068 207.163 67.3094 207.159 67.3112 207.156C67.3146 207.15 67.3174 207.143 67.3207 207.137C67.3155 207.146 67.3102 207.156 67.3049 207.167ZM418.271 207.167C418.272 207.163 418.275 207.159 418.277 207.156C418.281 207.15 418.283 207.143 418.286 207.137C418.281 207.146 418.276 207.156 418.271 207.167ZM67.3989 206.976C67.4025 206.969 67.4066 206.962 67.41 206.955C67.4122 206.95 67.414 206.945 67.4163 206.939C67.4107 206.952 67.4045 206.964 67.3989 206.976ZM418.365 206.976C418.368 206.969 418.372 206.962 418.375 206.955C418.378 206.95 418.379 206.945 418.382 206.939C418.376 206.952 418.37 206.964 418.365 206.976ZM67.4992 206.747C67.5052 206.732 67.5107 206.717 67.5165 206.701C67.5378 206.648 67.5584 206.591 67.5774 206.535L67.4992 206.747ZM418.465 206.747C418.471 206.732 418.476 206.717 418.482 206.701C418.503 206.648 418.524 206.591 418.543 206.535L418.465 206.747ZM67.7021 206.099L67.7487 205.874C67.7514 205.86 67.7528 205.845 67.7551 205.831C67.7396 205.921 67.7227 206.011 67.7021 206.099ZM418.668 206.099L418.714 205.874C418.717 205.86 418.718 205.845 418.72 205.831C418.705 205.921 418.688 206.011 418.668 206.099ZM67.7646 205.773C67.7713 205.731 67.7786 205.689 67.7843 205.646C67.7882 205.616 67.7904 205.587 67.7938 205.556C67.7855 205.629 67.7759 205.701 67.7646 205.773ZM418.73 205.773C418.737 205.731 418.744 205.689 418.75 205.646C418.754 205.616 418.756 205.587 418.759 205.556C418.751 205.629 418.741 205.701 418.73 205.773ZM67.7993 205.501C67.8023 205.472 67.807 205.442 67.8095 205.413C67.8136 205.365 67.8156 205.317 67.8183 205.27C67.8139 205.347 67.807 205.425 67.7993 205.501ZM418.765 205.501C418.768 205.472 418.772 205.442 418.775 205.413C418.779 205.365 418.781 205.317 418.784 205.27C418.779 205.347 418.772 205.425 418.765 205.501ZM67.8222 205.211C67.8252 205.142 67.8272 205.073 67.8277 205.004C67.8279 204.98 67.8278 204.955 67.8277 204.931C67.8282 205.025 67.8263 205.118 67.8222 205.211ZM418.788 205.211C418.791 205.142 418.792 205.073 418.793 205.004C418.793 204.98 418.793 204.955 418.793 204.931C418.794 205.025 418.792 205.118 418.788 205.211ZM61.5186 201.708C61.511 201.71 61.5033 201.712 61.4957 201.715C61.5415 201.702 61.588 201.692 61.6347 201.681L61.5186 201.708ZM412.484 201.708C412.477 201.71 412.469 201.712 412.461 201.715C412.507 201.702 412.554 201.692 412.6 201.681L412.484 201.708ZM62.5627 201.564C62.6085 201.563 62.6549 201.563 62.7016 201.562L62.8872 201.563C62.8258 201.561 62.7635 201.56 62.7009 201.561C62.6544 201.562 62.6083 201.563 62.5627 201.564ZM413.528 201.564C413.574 201.563 413.62 201.563 413.667 201.562L413.853 201.563C413.792 201.561 413.729 201.56 413.666 201.561C413.62 201.562 413.574 201.563 413.528 201.564ZM67.7369 192.212C67.7207 192.38 67.6959 192.543 67.6627 192.703C67.668 192.677 67.6728 192.651 67.6777 192.625C67.688 192.571 67.6985 192.516 67.7069 192.46C67.7192 192.378 67.7288 192.295 67.7369 192.212ZM418.703 192.212C418.686 192.38 418.661 192.543 418.628 192.703C418.633 192.677 418.638 192.651 418.643 192.625C418.653 192.571 418.664 192.516 418.673 192.46C418.685 192.378 418.695 192.295 418.703 192.212ZM67.7598 191.694L67.7543 191.471C67.7541 191.466 67.7529 191.461 67.7527 191.457C67.7562 191.535 67.7594 191.614 67.7598 191.694ZM418.725 191.694L418.72 191.471C418.72 191.466 418.719 191.461 418.718 191.457C418.722 191.535 418.725 191.614 418.725 191.694ZM60.2819 189.564C60.2859 189.561 60.2905 189.559 60.2946 189.555C60.335 189.524 60.3758 189.492 60.4177 189.462L60.2819 189.564ZM411.247 189.564C411.252 189.561 411.256 189.559 411.26 189.555C411.301 189.524 411.341 189.492 411.383 189.462L411.247 189.564ZM66.2727 188.322C66.3956 188.426 66.511 188.534 66.6187 188.647C66.5109 188.534 66.395 188.426 66.272 188.321L66.2727 188.322ZM417.238 188.322C417.361 188.426 417.477 188.534 417.584 188.647C417.477 188.534 417.36 188.426 417.237 188.321L417.238 188.322ZM63.9273 187.202C63.8475 187.187 63.767 187.172 63.6856 187.159C63.6765 187.158 63.6672 187.157 63.658 187.156C63.7487 187.169 63.8385 187.184 63.9273 187.202ZM414.893 187.202C414.813 187.187 414.732 187.172 414.651 187.159C414.642 187.158 414.633 187.157 414.624 187.156C414.714 187.169 414.804 187.184 414.893 187.202ZM63.553 187.141C63.5155 187.137 63.4779 187.131 63.44 187.126C63.4214 187.124 63.4026 187.124 63.384 187.122C63.4407 187.128 63.4969 187.134 63.553 187.141ZM414.519 187.141C414.481 187.137 414.443 187.131 414.405 187.126C414.387 187.124 414.368 187.124 414.35 187.122C414.406 187.128 414.463 187.134 414.519 187.141ZM62.2673 183.383C62.3857 183.389 62.507 183.394 62.6313 183.393L62.6305 183.392C62.5065 183.392 62.3854 183.389 62.2673 183.383ZM413.233 183.383C413.351 183.389 413.472 183.394 413.597 183.393L413.596 183.392C413.472 183.392 413.351 183.389 413.233 183.383ZM63.2355 183.353C63.1711 183.362 63.1059 183.369 63.0396 183.375L63.2355 183.353C63.2999 183.345 63.3633 183.336 63.4258 183.325L63.2355 183.353ZM414.201 183.353C414.137 183.362 414.071 183.369 414.005 183.375L414.201 183.353C414.265 183.345 414.329 183.336 414.392 183.325L414.201 183.353ZM67.695 180.222C67.6952 180.218 67.6957 180.214 67.6958 180.209C67.6987 180.124 67.7003 180.037 67.6998 179.95L67.695 180.222ZM418.661 180.222C418.661 180.218 418.661 180.214 418.661 180.209C418.665 180.124 418.665 180.037 418.665 179.95L418.661 180.222ZM67.6745 179.408L67.6532 179.211C67.6513 179.196 67.6481 179.181 67.6461 179.166C67.6568 179.246 67.6671 179.326 67.6745 179.408ZM418.64 179.408L418.619 179.211C418.617 179.196 418.614 179.181 418.611 179.166C418.623 179.246 418.632 179.326 418.64 179.408ZM67.425 178.196C67.4214 178.185 67.4179 178.172 67.4139 178.161C67.4079 178.143 67.4004 178.126 67.3942 178.108C67.4046 178.137 67.4151 178.167 67.425 178.196ZM418.391 178.196C418.387 178.185 418.383 178.172 418.379 178.161C418.374 178.143 418.366 178.126 418.36 178.108C418.37 178.137 418.381 178.167 418.391 178.196ZM418.196 177.704C418.208 177.731 418.219 177.758 418.231 177.785C418.219 177.758 418.209 177.731 418.196 177.704C418.18 177.67 418.163 177.637 418.146 177.603C418.163 177.637 418.179 177.67 418.196 177.704ZM58.9046 171.628C58.9133 171.636 58.9221 171.644 58.9307 171.652C58.8835 171.611 58.8382 171.568 58.7933 171.526C58.8299 171.56 58.8666 171.595 58.9046 171.628ZM409.87 171.628C409.879 171.636 409.887 171.644 409.896 171.652C409.849 171.611 409.804 171.568 409.759 171.526C409.795 171.56 409.832 171.595 409.87 171.628ZM57.5937 169.489C57.5959 169.497 57.5986 169.506 57.6008 169.514C57.5955 169.493 57.59 169.473 57.585 169.452C57.588 169.464 57.5906 169.477 57.5937 169.489ZM408.559 169.489C408.561 169.497 408.564 169.506 408.567 169.514C408.561 169.493 408.555 169.473 408.551 169.452C408.554 169.464 408.556 169.477 408.559 169.489ZM67.312 166.27C67.3103 166.266 67.309 166.261 67.3073 166.257C67.3062 166.254 67.3044 166.252 67.3034 166.248C67.3062 166.256 67.309 166.263 67.312 166.27ZM418.277 166.27C418.276 166.266 418.275 166.261 418.272 166.257C418.272 166.254 418.27 166.252 418.269 166.248C418.272 166.256 418.275 166.263 418.277 166.27ZM67.9351 149.158L66.1361 147.507L65.2817 146.725L67.9351 149.158ZM418.901 149.158L417.102 147.507L416.248 146.725L418.901 149.158ZM65.9727 125.753L65.9734 125.754C66.0287 125.697 66.0811 125.638 66.133 125.579C66.0809 125.638 66.0279 125.697 65.9727 125.753ZM416.938 125.753L416.939 125.754C416.994 125.697 417.046 125.638 417.098 125.579C417.046 125.638 416.993 125.697 416.938 125.753ZM66.3098 125.372C66.2787 125.411 66.2452 125.448 66.2127 125.487C66.2286 125.468 66.2453 125.45 66.2609 125.431C66.2771 125.411 66.2941 125.393 66.3098 125.372ZM417.275 125.372C417.244 125.411 417.211 125.448 417.178 125.487C417.194 125.468 417.211 125.45 417.227 125.431C417.242 125.411 417.259 125.392 417.275 125.372ZM67.3997 122.057C67.4025 122.595 67.3399 123.102 67.2141 123.575C67.2321 123.508 67.2509 123.44 67.2663 123.371C67.3031 123.205 67.3322 123.035 67.3539 122.862C67.3647 122.776 67.3737 122.688 67.3808 122.599C67.3949 122.423 67.4014 122.242 67.4005 122.058L67.3997 122.057ZM418.365 122.057C418.368 122.595 418.306 123.102 418.179 123.575C418.197 123.508 418.217 123.44 418.232 123.371C418.268 123.205 418.298 123.035 418.319 122.862C418.33 122.776 418.339 122.688 418.346 122.599C418.361 122.423 418.367 122.242 418.366 122.058L418.365 122.057ZM66.4291 118.97C66.908 119.611 67.208 120.347 67.3326 121.179L67.3334 121.179C67.2085 120.347 66.9084 119.61 66.4299 118.971L66.4291 118.97ZM417.395 118.97C417.874 119.611 418.174 120.347 418.298 121.179L418.299 121.179C418.174 120.347 417.874 119.61 417.395 118.97ZM60.4612 119.092C60.3909 119.128 60.3233 119.168 60.2567 119.209C60.3082 119.178 60.3609 119.147 60.4146 119.119C60.4811 119.083 60.5485 119.048 60.6184 119.017L60.4612 119.092ZM411.427 119.092C411.357 119.128 411.289 119.168 411.222 119.209C411.273 119.178 411.327 119.147 411.38 119.119C411.446 119.083 411.514 119.048 411.584 119.017L411.427 119.092ZM61.4917 118.756L61.4926 118.757C61.4944 118.756 61.4963 118.756 61.4981 118.756C61.5593 118.745 61.6214 118.735 61.6845 118.727C61.6193 118.736 61.555 118.744 61.4917 118.756ZM412.457 118.756L412.458 118.757C412.46 118.756 412.464 118.756 412.464 118.756C412.525 118.745 412.587 118.735 412.65 118.727C412.585 118.736 412.52 118.744 412.457 118.756ZM57.3568 106.291L59.5301 106.276L61.6726 106.261L57.3568 106.291ZM408.323 106.291L410.495 106.276L410.665 106.275L408.323 106.291ZM65.3464 105.565C65.3431 105.561 65.3396 105.558 65.3361 105.554C65.3193 105.538 65.302 105.522 65.2848 105.506C65.3055 105.526 65.3262 105.545 65.3464 105.565ZM115.953 88.4781L115.984 93.5614L118.055 88.466L115.953 88.4781ZM418.211 92.0832C418.211 92.0452 418.21 92.0071 418.209 91.9699C418.209 91.9667 418.208 91.9635 418.208 91.9602C418.209 92.0007 418.211 92.0419 418.211 92.0832ZM93.745 68.9009L93.7224 65.0202L93.6965 60.7597L93.745 68.9009ZM154.473 68.7809C154.364 68.7956 154.253 68.806 154.139 68.8133C154.156 68.8123 154.172 68.8129 154.188 68.8117C154.285 68.8045 154.38 68.7935 154.473 68.7809ZM154.486 68.7794C154.499 68.7776 154.511 68.7765 154.524 68.7746C154.579 68.7664 154.633 68.757 154.685 68.7469C154.621 68.7593 154.553 68.7699 154.486 68.7794ZM172.029 68.709C172.093 68.7118 172.158 68.7127 172.223 68.7123C172.09 68.7131 171.96 68.7071 171.833 68.6949C171.898 68.7011 171.963 68.7062 172.029 68.709ZM190.853 68.5938C190.92 68.5969 190.99 68.5981 191.059 68.5977C191.09 68.5975 191.123 68.5948 191.155 68.5938L191.058 68.5969C190.92 68.5978 190.785 68.592 190.652 68.5788L190.853 68.5938ZM190.261 68.5179C190.297 68.5255 190.332 68.5312 190.368 68.5377L190.26 68.5171C190.246 68.5141 190.231 68.5101 190.218 68.5069C190.232 68.5102 190.247 68.5148 190.261 68.5179ZM191.931 68.4745C191.964 68.465 191.998 68.4551 192.031 68.4445L192.034 68.4429C192 68.454 191.965 68.4647 191.931 68.4745ZM192.108 68.4185C192.112 68.4174 192.114 68.4164 192.117 68.4153C192.136 68.4086 192.154 68.401 192.174 68.394C192.201 68.3836 192.227 68.3728 192.254 68.3616C192.206 68.3817 192.157 68.4009 192.108 68.4185ZM230.195 68.3482C230.208 68.3489 230.222 68.3483 230.236 68.3489C230.19 68.3464 230.144 68.3438 230.098 68.3403C230.131 68.3428 230.163 68.3462 230.195 68.3482ZM232.786 67.6303C232.239 68.0277 231.618 68.2624 230.922 68.3331C230.93 68.3323 230.938 68.3324 230.946 68.3315C231.632 68.2579 232.245 68.0233 232.786 67.6303ZM99.4106 67.8064C99.4834 67.9012 99.5578 67.9926 99.6354 68.0773C99.7049 68.1535 99.7777 68.224 99.8513 68.2921L99.8505 68.2913C99.6888 68.1409 99.5359 67.9705 99.3912 67.7803C99.3976 67.7889 99.4041 67.7979 99.4106 67.8064ZM189.35 68.1792C189.386 68.1985 189.422 68.2156 189.458 68.2337C189.412 68.2108 189.367 68.1872 189.322 68.1626C189.331 68.1679 189.341 68.1739 189.35 68.1792ZM192.679 68.1421C192.687 68.1375 192.695 68.1332 192.701 68.1286C192.709 68.1235 192.717 68.118 192.725 68.1128C192.71 68.1227 192.694 68.1324 192.679 68.1421ZM259.845 68.1421C259.865 68.1393 259.885 68.1372 259.905 68.1341C259.917 68.1321 259.93 68.1284 259.943 68.1262C259.911 68.1316 259.878 68.1375 259.845 68.1421ZM349.977 68.0204L351.371 66.219L352.031 65.3638L349.977 68.0204ZM302.472 67.8948C302.586 67.9062 302.7 67.912 302.817 67.913H302.879L302.624 67.9059C302.547 67.9014 302.471 67.8937 302.395 67.8846C302.421 67.8877 302.447 67.8923 302.472 67.8948ZM303.105 67.9036C303.109 67.9033 303.113 67.9038 303.116 67.9036C303.178 67.899 303.241 67.8933 303.302 67.8854C303.237 67.8938 303.171 67.899 303.105 67.9036ZM302.168 67.8498C302.203 67.8566 302.239 67.8639 302.275 67.8696C302.3 67.8735 302.325 67.8757 302.35 67.8791C302.286 67.8704 302.222 67.8596 302.159 67.8475C302.161 67.848 302.164 67.8492 302.168 67.8498ZM314.057 67.8451L314.245 67.8395C314.249 67.8393 314.253 67.8374 314.257 67.8372C314.192 67.8408 314.125 67.8447 314.057 67.8451ZM302.083 67.8332C302.092 67.8353 302.101 67.8363 302.11 67.838C302.037 67.823 301.965 67.8064 301.893 67.7867L302.083 67.8332ZM193.276 67.6635C193.225 67.7148 193.173 67.7641 193.121 67.8111L193.277 67.6643C193.328 67.6129 193.378 67.5588 193.426 67.5031L193.276 67.6635ZM313.272 67.7621C313.309 67.7706 313.347 67.7785 313.385 67.7858C313.325 67.7745 313.265 67.7618 313.206 67.7472C313.228 67.7525 313.25 67.7573 313.272 67.7621ZM323.756 67.7803C323.828 67.7832 323.901 67.7848 323.974 67.7843L323.745 67.7795C323.748 67.7797 323.752 67.7802 323.756 67.7803ZM301.345 67.5837C301.358 67.5898 301.371 67.5952 301.384 67.6011C301.43 67.6224 301.478 67.6429 301.525 67.6619L301.345 67.5837ZM242.161 67.5727C242.161 67.5727 242.158 67.5748 242.156 67.5758L242.163 67.5719L242.161 67.5727ZM325.453 67.5094C325.464 67.5057 325.474 67.5026 325.485 67.4984C325.511 67.4881 325.536 67.4762 325.561 67.4653C325.525 67.4806 325.49 67.4952 325.453 67.5094ZM301.17 67.4945C301.173 67.4958 301.175 67.497 301.179 67.4984L301.146 67.4802C301.154 67.4848 301.162 67.4899 301.17 67.4945ZM371.364 67.2236C371.491 67.2722 371.62 67.3158 371.753 67.3508C371.892 67.3876 372.036 67.4166 372.182 67.4384C372.256 67.4493 372.329 67.4581 372.404 67.4653C372.553 67.4794 372.706 67.4859 372.861 67.485L372.862 67.4842C372.324 67.4874 371.825 67.4002 371.364 67.2236ZM335.433 67.4384C335.436 67.4375 335.437 67.4369 335.44 67.436C335.443 67.4346 335.445 67.4327 335.449 67.4313C335.444 67.4336 335.439 67.4362 335.433 67.4384ZM301 67.3957C301.014 67.4049 301.03 67.413 301.045 67.4218C301.021 67.4073 300.996 67.3927 300.972 67.3776C300.981 67.3834 300.99 67.39 301 67.3957ZM375.048 66.8382C374.612 67.1309 374.13 67.3234 373.603 67.4171L373.604 67.4179C374.13 67.3242 374.611 67.1315 375.047 66.839L375.048 66.8382ZM335.523 67.3982C335.528 67.396 335.533 67.394 335.538 67.3918C335.54 67.3907 335.542 67.3889 335.545 67.3879C335.538 67.3912 335.53 67.3946 335.523 67.3982ZM316.905 66.3557C316.861 66.417 316.816 66.4766 316.771 66.5342C316.816 66.4763 316.861 66.4164 316.906 66.3549L316.905 66.3557ZM370.252 66.5626C370.278 66.5845 370.306 66.6046 370.332 66.6258C370.299 66.5989 370.265 66.5725 370.231 66.5444L370.252 66.5626ZM241.012 66.4102C240.885 66.4497 240.741 66.4797 240.579 66.4979C240.45 66.5123 240.31 66.5207 240.16 66.5216C240.462 66.5197 240.719 66.4912 240.932 66.4354L241.012 66.4102ZM370.062 66.3928C370.101 66.4294 370.142 66.4638 370.181 66.4986C370.117 66.4425 370.054 66.3842 369.993 66.3233L370.062 66.3928ZM369.741 66.0564C369.787 66.1106 369.835 66.1627 369.884 66.2135C369.836 66.1624 369.788 66.1098 369.741 66.0556L369.741 66.0564ZM260.981 65.9932C260.929 66.0443 260.877 66.0939 260.822 66.1393C260.884 66.0879 260.944 66.0321 261.003 65.9734C260.995 65.9802 260.988 65.9865 260.981 65.9932ZM257.672 65.9797C257.703 66.0122 257.736 66.0435 257.769 66.0738C257.718 66.0268 257.668 65.9762 257.618 65.9237L257.672 65.9797ZM299.655 66.0319C299.664 66.0461 299.674 66.0596 299.683 66.0738C299.663 66.0427 299.643 66.0115 299.624 65.9797C299.634 65.9973 299.645 66.0147 299.655 66.0319ZM247.138 65.6789L247.144 65.6868C247.14 65.6823 247.138 65.6771 247.135 65.6726C247.136 65.6745 247.137 65.677 247.138 65.6789ZM386.789 65.4286C386.792 65.4252 386.795 65.4217 386.798 65.4183C386.812 65.4015 386.825 65.3841 386.838 65.3669C386.822 65.3876 386.805 65.4083 386.789 65.4286ZM246.791 65.1339C246.783 65.1183 246.776 65.1017 246.768 65.0858C246.765 65.0785 246.761 65.0711 246.758 65.0637C246.768 65.0871 246.779 65.1109 246.791 65.1339ZM227.781 64.7107C227.805 64.7899 227.831 64.8675 227.86 64.9429L227.861 64.9437C227.832 64.868 227.805 64.7903 227.781 64.7107ZM246.617 64.7155C246.615 64.7074 246.612 64.699 246.609 64.691C246.603 64.6755 246.599 64.6592 246.595 64.6436C246.591 64.6352 246.587 64.6268 246.585 64.6182C246.595 64.6508 246.606 64.6835 246.617 64.7155ZM234.641 64.7091C234.654 64.6525 234.667 64.5954 234.679 64.5377C234.682 64.5215 234.684 64.505 234.687 64.4888C234.673 64.563 234.658 64.6364 234.641 64.7091ZM243.209 64.45L243.208 64.4462C243.205 64.4335 243.203 64.4207 243.199 64.4082L243.197 64.4043C243.201 64.4195 243.205 64.4348 243.209 64.45ZM234.747 64.0726C234.749 64.0601 234.751 64.0472 234.752 64.0347C234.756 64.002 234.758 63.969 234.761 63.936C234.757 63.9817 234.752 64.0274 234.747 64.0726ZM184.749 63.6367C184.858 63.7605 184.953 63.892 185.036 64.0316L185.001 63.9715C184.97 63.9225 184.937 63.8748 184.902 63.8278C184.855 63.7619 184.803 63.6985 184.749 63.6367ZM317.85 64.0071C317.863 63.9272 317.875 63.8467 317.887 63.7654C317.887 63.7544 317.888 63.7433 317.89 63.7322C317.878 63.8248 317.866 63.9165 317.85 64.0071ZM246.396 63.5893C246.402 63.6702 246.41 63.7497 246.42 63.8278C246.417 63.806 246.415 63.7842 246.413 63.7623C246.409 63.7245 246.405 63.6863 246.402 63.6478C246.4 63.6284 246.398 63.6089 246.396 63.5893ZM234.773 63.7898C234.774 63.7849 234.775 63.7799 234.775 63.7749C234.781 63.6871 234.786 63.5985 234.789 63.5087C234.785 63.6035 234.78 63.6973 234.773 63.7898ZM298.914 63.6715C298.916 63.6875 298.918 63.7036 298.921 63.7196C298.913 63.6537 298.906 63.5871 298.901 63.5198C298.905 63.5707 298.909 63.6213 298.914 63.6715ZM317.9 63.6478C317.904 63.6052 317.911 63.5627 317.915 63.5198C317.918 63.4859 317.919 63.4513 317.922 63.4171C317.916 63.4947 317.908 63.5715 317.9 63.6478ZM298.89 63.3879C298.891 63.4021 298.892 63.4165 298.893 63.4305C298.888 63.3451 298.883 63.2585 298.879 63.1707C298.882 63.2439 298.884 63.3164 298.89 63.3879ZM377.095 63.4171C377.107 63.3337 377.117 63.249 377.127 63.1636C377.13 63.132 377.133 63.1 377.135 63.0681C377.125 63.1863 377.112 63.3026 377.095 63.4171ZM246.379 63.1668C246.379 63.2416 246.381 63.3153 246.384 63.3879C246.384 63.383 246.383 63.3777 246.383 63.3729C246.38 63.3049 246.379 63.2358 246.379 63.166L246.379 63.1668ZM263.075 63.365L263.076 63.3642V63.2473L263.077 63.2466C263.077 63.2413 263.076 63.236 263.076 63.2307L263.075 63.365ZM242.285 62.9765C242.406 63.0656 242.519 63.1679 242.622 63.2829C242.587 63.2445 242.552 63.2062 242.516 63.1707C242.443 63.1001 242.366 63.0357 242.285 62.9765ZM104.429 63.1257C104.432 63.1391 104.434 63.1525 104.437 63.166C104.431 63.1355 104.428 63.1051 104.422 63.0751L104.429 63.1257ZM104.413 63.0333C104.404 62.9871 104.397 62.9411 104.386 62.8959C104.382 62.8745 104.376 62.8532 104.37 62.832C104.386 62.8979 104.4 62.965 104.413 63.0333ZM104.347 62.7411C104.338 62.706 104.331 62.6706 104.321 62.6361L104.31 62.6013C104.323 62.6472 104.335 62.6941 104.347 62.7411ZM241.594 62.6353C241.692 62.665 241.788 62.7004 241.879 62.7411C241.789 62.7004 241.693 62.6642 241.594 62.6345L241.594 62.6353ZM321.075 62.3494C321.07 62.4666 321.066 62.5866 321.066 62.7095L321.067 62.7087C321.067 62.586 321.07 62.4663 321.075 62.3494ZM209.05 62.4426C209.215 62.5009 209.37 62.5707 209.512 62.6535L209.513 62.6527C209.37 62.5699 209.216 62.5006 209.05 62.4426ZM104.12 62.0951C104.147 62.1537 104.173 62.2141 104.198 62.2752C104.171 62.2084 104.143 62.1424 104.113 62.0785L104.12 62.0951ZM240.107 62.2563C240.102 62.2568 240.097 62.258 240.093 62.2586C240.134 62.2539 240.175 62.2468 240.215 62.2396C240.18 62.2461 240.144 62.2518 240.107 62.2563ZM240.432 62.1828C240.428 62.1843 240.424 62.186 240.419 62.1875C240.413 62.1895 240.407 62.1916 240.402 62.1938C240.435 62.1832 240.467 62.1722 240.498 62.1591L240.499 62.1583C240.477 62.1674 240.454 62.1747 240.432 62.1828ZM169.852 62.092C169.854 62.084 169.858 62.0763 169.861 62.0682C169.871 62.0361 169.879 62.0041 169.89 61.9728C169.877 62.012 169.863 62.0516 169.852 62.092ZM246.485 62.0233C246.481 62.0382 246.48 62.0533 246.476 62.0682C246.48 62.0474 246.484 62.0265 246.489 62.0059L246.485 62.0233ZM170.089 61.4839C170.018 61.6244 169.955 61.7737 169.903 61.9317L169.92 61.8851C169.976 61.7263 170.04 61.5764 170.115 61.4357L170.089 61.4839ZM240.936 61.8116L240.953 61.7911C240.965 61.7733 240.976 61.7536 240.986 61.735C240.971 61.7612 240.954 61.7867 240.936 61.8116ZM375.65 61.5755C375.658 61.6367 375.667 61.6988 375.675 61.7618C375.667 61.6967 375.659 61.6324 375.65 61.5691V61.5755ZM305.624 61.7121L305.6 61.596C305.587 61.5365 305.573 61.4774 305.558 61.4199C305.583 61.514 305.604 61.6124 305.624 61.7121ZM184.534 61.6758C184.538 61.6636 184.542 61.6518 184.544 61.6395C184.549 61.6127 184.552 61.5853 184.557 61.5581C184.55 61.5979 184.542 61.6371 184.534 61.6758ZM193.569 61.6158C193.547 61.5644 193.524 61.5133 193.5 61.4642C193.49 61.4422 193.477 61.4209 193.466 61.3994C193.503 61.4693 193.537 61.5414 193.569 61.6158ZM184.563 61.525C184.563 61.5156 184.566 61.5059 184.567 61.4965C184.572 61.4593 184.576 61.4216 184.58 61.3835C184.575 61.4314 184.569 61.4786 184.563 61.525ZM103.604 61.3101C103.63 61.3394 103.657 61.3687 103.683 61.3994L103.579 61.2809C103.562 61.261 103.543 61.2417 103.525 61.2225C103.552 61.2507 103.578 61.2804 103.604 61.3101ZM227.961 61.3086C227.955 61.3197 227.95 61.3313 227.946 61.3425C227.974 61.2816 228.002 61.2214 228.033 61.1633L227.961 61.3086ZM262.787 60.8955C262.787 60.893 262.787 60.8894 262.787 60.8869C262.767 60.8233 262.747 60.7608 262.727 60.6989C262.749 60.7633 262.767 60.8293 262.787 60.8955ZM102.922 60.7336C102.961 60.7563 102.999 60.7803 103.037 60.8055L102.922 60.7336C102.884 60.7109 102.845 60.6891 102.806 60.6689L102.922 60.7336ZM375.43 60.6942L375.367 60.537L375.344 60.4904C375.374 60.5569 375.403 60.6243 375.43 60.6942ZM262.72 60.6792C262.719 60.6772 262.719 60.6748 262.718 60.6728C262.707 60.6417 262.696 60.6111 262.686 60.5805C262.678 60.5602 262.67 60.5404 262.663 60.5204C262.682 60.5728 262.702 60.6255 262.72 60.6792ZM228.393 60.6365C228.396 60.6324 228.399 60.6295 228.403 60.6255V60.6239C228.399 60.6281 228.396 60.6323 228.393 60.6365ZM315.863 60.3704C315.89 60.4108 315.916 60.4516 315.941 60.4936L315.856 60.3577C315.858 60.3617 315.861 60.3665 315.863 60.3704ZM153.019 60.3269C152.974 60.3505 152.93 60.3761 152.887 60.4035C152.871 60.4135 152.855 60.4254 152.84 60.4359C152.912 60.388 152.985 60.3453 153.059 60.308C153.077 60.2989 153.095 60.2896 153.114 60.2812C153.082 60.2959 153.049 60.3103 153.019 60.3269ZM231.953 60.1153C232.018 60.1619 232.083 60.2119 232.145 60.2653C232.108 60.2331 232.069 60.201 232.031 60.1713C232.005 60.1519 231.979 60.1337 231.953 60.1153ZM228.953 60.1153C228.917 60.1416 228.88 60.169 228.844 60.1975C228.883 60.1668 228.923 60.1378 228.962 60.1098L228.953 60.1153ZM375.135 60.1003L375.045 59.9668L375.038 59.9574C375.071 60.0039 375.104 60.0514 375.135 60.1003ZM191.983 60.0308C191.998 60.0365 192.014 60.0413 192.029 60.0474C191.996 60.0339 191.962 60.0213 191.928 60.0094C191.913 60.0042 191.898 60.0001 191.883 59.9953C191.917 60.0064 191.95 60.018 191.983 60.0308ZM231.748 59.9826L231.671 59.9384C231.646 59.9249 231.62 59.9131 231.594 59.9005C231.646 59.926 231.698 59.9532 231.748 59.9826ZM229.612 59.7773C229.476 59.823 229.346 59.8804 229.219 59.9494C229.305 59.9029 229.392 59.8622 229.481 59.8263C229.524 59.8089 229.568 59.7922 229.612 59.7773ZM191.296 59.8863C191.379 59.8904 191.461 59.8985 191.542 59.9115L191.425 59.8957C191.382 59.8912 191.338 59.8885 191.296 59.8863ZM193.085 59.1384C193.295 59.3217 193.49 59.5386 193.671 59.7892L193.672 59.7899C193.491 59.5393 193.295 59.3217 193.085 59.1384C193.055 59.1133 193.027 59.0903 192.997 59.0665L193.085 59.1384ZM251.494 58.7033C251.415 58.6489 251.334 58.5994 251.253 58.5516C251.335 58.5989 251.416 58.6489 251.494 58.7033ZM251.244 58.5461C251.206 58.5236 251.167 58.5009 251.127 58.4798C251.087 58.4584 251.045 58.4388 251.005 58.4189L251.001 58.4182C251.083 58.4581 251.164 58.5005 251.244 58.5461ZM240.838 58.4079C240.825 58.4049 240.812 58.4006 240.8 58.3977C240.783 58.394 240.766 58.3916 240.749 58.3881C240.779 58.3941 240.808 58.4011 240.838 58.4079ZM240.432 58.3432C240.529 58.3526 240.623 58.3653 240.714 58.3818C240.664 58.3722 240.612 58.3614 240.559 58.3542C240.556 58.3539 240.554 58.3538 240.551 58.3534L240.432 58.3432ZM332.808 57.6656C332.799 57.6683 332.79 57.6714 332.781 57.6742C332.806 57.6664 332.832 57.6594 332.858 57.6522C332.841 57.6568 332.824 57.6607 332.808 57.6656ZM102.84 507.355C102.868 507.349 102.897 507.345 102.923 507.338C102.967 507.328 103.01 507.316 103.053 507.304C102.983 507.323 102.912 507.34 102.84 507.355Z" fill="black"/>
</svg>
