<svg width="164" height="53" viewBox="0 0 164 53" fill="none" xmlns="http://www.w3.org/2000/svg">
<path d="M163.845 0.476562V52.2451H120.377V39.5088C120.499 39.4497 120.619 39.387 120.734 39.3174C121.515 38.8409 122.151 38.133 122.641 37.1934V39.5361H130.444V26.3105C130.444 21.9554 130.305 19.0824 130.027 17.6924C129.749 16.2893 128.922 15.1113 127.545 14.1582C126.227 13.2333 124.297 12.7515 121.754 12.7119C122.845 9.83981 124.697 7.02885 127.695 4.7666C130.849 2.38613 134.409 1.51152 136.758 1.09961C139.392 0.637649 142.274 0.47658 145.198 0.476562H163.845ZM120.377 33.3604C120.377 32.0857 120.411 30.3329 120.686 28.541C121.07 28.0851 121.648 27.5725 122.422 27.0059V32.4268C122.422 33.7506 122.342 34.5719 122.184 34.8896C122.038 35.1939 121.714 35.3457 121.211 35.3457C120.854 35.3457 120.577 35.2536 120.377 35.0732V33.3604ZM143.153 18.3086V24.6035C142.121 24.6035 141.406 24.4112 141.009 24.0273C140.625 23.6302 140.433 22.7962 140.433 21.5254V21.1875C140.433 19.9432 140.605 19.1552 140.949 18.8242C141.293 18.4803 141.757 18.3087 142.339 18.3086H143.153ZM120.377 20.5527C120.377 19.5664 120.437 18.5215 120.578 17.4463C120.722 17.3985 120.893 17.375 121.092 17.375C121.568 17.3751 121.906 17.5872 122.104 18.0107C122.316 18.4212 122.422 19.3149 122.422 20.6914C122.422 21.7901 122.33 22.5186 122.145 22.876C122.035 23.0877 121.493 23.4147 120.524 23.8633C120.397 22.5679 120.377 21.4248 120.377 20.5527ZM140.433 39.5361V32.2881C140.433 31.0836 140.625 30.2631 141.009 29.8262C141.406 29.3893 142.121 29.1709 143.153 29.1709V39.5361H151.136V13.1855H145.198L144.273 13.1924C139.751 13.2599 136.777 13.8333 135.35 14.9131C133.84 16.0516 133.086 17.9315 133.086 20.5527C133.086 22.9222 133.37 24.5704 133.939 25.4971C134.509 26.4104 135.753 26.9529 137.673 27.125C136.19 27.5221 135.138 27.9193 134.516 28.3164C133.907 28.7136 133.516 29.2632 133.344 29.9648C133.172 30.6532 133.086 31.7851 133.086 33.3604V39.5361H140.433Z" fill="white"/>
<path d="M121.409 0C124.939 0 129.517 0.521035 133.689 3.00781L135.131 1.9541V3.95703C138.114 6.11612 140.707 9.22257 141.994 13.2783C138.736 13.4825 136.521 14.0266 135.35 14.9131C133.84 16.0516 133.086 17.9315 133.086 20.5527C133.086 22.9222 133.37 24.5704 133.939 25.4971C134.509 26.4104 135.753 26.9529 137.673 27.125C136.19 27.5221 135.138 27.9193 134.516 28.3164C133.907 28.7136 133.516 29.2632 133.344 29.9648C133.172 30.6532 133.086 31.7851 133.086 33.3604V39.5361H140.433V32.2881C140.433 31.0836 140.625 30.2631 141.009 29.8262C141.406 29.3893 142.121 29.1709 143.153 29.1709V52.2451H122.22C120.763 52.5802 119.33 52.7217 117.974 52.7217C116.499 52.7217 115.052 52.5602 113.647 52.2451H109.932V51.0039C108.947 50.5617 107.994 50.0393 107.08 49.4336L107.011 49.3877L106.942 49.3418C101.502 45.6328 100.096 39.9294 99.752 36.1006H99.6455V29.8262H101.869V39.5361H109.853V13.1855H104.34L101.368 11.9121C103.222 7.58537 106.472 4.80278 109.365 3.07227C113.355 0.686189 117.668 1.95676e-05 121.409 0ZM121.409 12.709C119.145 12.709 117.305 13.1323 115.889 13.9795C114.472 14.8267 113.525 15.8061 113.049 16.918C112.585 18.0168 112.354 19.5863 112.354 21.625V23.3916H119.88V20.6318C119.88 19.1624 119.947 18.2553 120.079 17.9111C120.212 17.5538 120.549 17.375 121.092 17.375C121.568 17.3751 121.906 17.5872 122.104 18.0107C122.316 18.4212 122.422 19.3149 122.422 20.6914C122.422 21.7901 122.33 22.5186 122.145 22.876C121.959 23.2334 120.548 23.9284 117.914 24.9609C115.452 25.914 113.909 26.7481 113.287 27.4629C112.665 28.1778 112.354 29.5219 112.354 31.4941V33.6582C112.354 36.3189 112.937 38.0464 114.102 38.8408C115.28 39.6218 116.57 40.0126 117.974 40.0127C119.046 40.0127 119.967 39.7807 120.734 39.3174C121.515 38.8409 122.151 38.133 122.641 37.1934V39.5361H130.444V26.3105C130.444 21.9554 130.305 19.0824 130.027 17.6924C129.749 16.2893 128.922 15.1113 127.545 14.1582C126.168 13.1919 124.123 12.709 121.409 12.709ZM122.422 32.4268C122.422 33.7506 122.342 34.5719 122.184 34.8896C122.038 35.1939 121.714 35.3457 121.211 35.3457C120.681 35.3457 120.324 35.1472 120.139 34.75C119.967 34.3527 119.88 33.4726 119.88 32.1094C119.88 30.9181 119.979 30.0046 120.178 29.3691C120.39 28.7337 121.138 27.9458 122.422 27.0059V32.4268ZM142.903 18.3086C143.067 20.2212 143.127 22.3901 143.146 24.6025C142.117 24.6016 141.405 24.4103 141.009 24.0273C140.625 23.6302 140.433 22.7962 140.433 21.5254V21.1875C140.433 19.9432 140.605 19.1552 140.949 18.8242C141.293 18.4803 141.757 18.3087 142.339 18.3086H142.903ZM99.6455 21.625C99.6455 18.9241 99.9078 15.3743 101.339 11.9805L101.368 11.9121L104.34 13.1855H101.869V22.6572H99.6455V21.625Z" fill="white"/>
<path d="M109.853 13.1855H101.869V22.6572H98.9902V13.1855H91.0273V39.5361H98.9902V29.8262H101.869V39.5361H109.853V13.1855ZM122.422 32.4268C122.422 33.7506 122.342 34.5719 122.184 34.8896C122.038 35.1939 121.714 35.3457 121.211 35.3457C120.681 35.3457 120.324 35.1472 120.139 34.75C119.967 34.3527 119.88 33.4726 119.88 32.1094C119.88 30.9181 119.979 30.0046 120.178 29.3691C120.39 28.7337 121.138 27.9458 122.422 27.0059V32.4268ZM78.3184 27.9033C79.3214 27.924 79.9631 28.0681 80.2441 28.3369C80.5486 28.6149 80.7011 29.3226 80.7012 30.4609V31.3545C80.7012 32.493 80.5288 33.2213 80.1846 33.5391C79.8687 33.8183 79.2468 33.9672 78.3184 33.9902V27.9033ZM78.3184 18.709C79.3212 18.7296 79.963 18.8738 80.2441 19.1426C80.5486 19.4338 80.7011 19.9565 80.7012 20.7109C80.7012 21.6111 80.5622 22.2141 80.2842 22.5186C80.0385 22.8007 79.3831 22.9492 78.3184 22.9697V18.709ZM121.409 12.709C119.145 12.709 117.305 13.1323 115.889 13.9795C114.472 14.8267 113.525 15.8061 113.049 16.918C112.585 18.0168 112.354 19.5863 112.354 21.625V23.3916H119.88V20.6318C119.88 19.1624 119.947 18.2553 120.079 17.9111C120.212 17.5538 120.549 17.375 121.092 17.375C121.568 17.3751 121.906 17.5872 122.104 18.0107C122.316 18.4212 122.422 19.3149 122.422 20.6914C122.422 21.7901 122.33 22.5186 122.145 22.876C121.959 23.2334 120.548 23.9284 117.914 24.9609C115.452 25.914 113.909 26.7481 113.287 27.4629C112.665 28.1778 112.354 29.5219 112.354 31.4941V33.6582C112.354 36.3189 112.937 38.0464 114.102 38.8408C115.28 39.6218 116.57 40.0126 117.974 40.0127C119.046 40.0127 119.967 39.7807 120.734 39.3174C121.475 38.8652 122.083 38.2032 122.562 37.334V52.2451H78.3184V39.5361H79.291C83.2095 39.5361 85.752 39.0533 86.917 38.0869C88.0952 37.1073 88.6836 35.2733 88.6836 32.5859V31.0371C88.6836 29.528 88.2142 28.277 87.2744 27.2842C86.3478 26.2781 85.0768 25.6427 83.4619 25.3779C86.5595 24.9675 88.1084 23.2725 88.1084 20.2939C88.1084 17.6996 87.4926 15.8663 86.2617 14.7939C85.0438 13.7216 82.8127 13.1855 79.5693 13.1855H78.3184V0.476562H122.562V12.7412C122.192 12.7204 121.808 12.709 121.409 12.709Z" fill="white"/>
<path d="M70.0977 13.1855V39.5361H79.291C83.2095 39.5361 85.752 39.0533 86.917 38.0869C88.0952 37.1073 88.6836 35.2733 88.6836 32.5859V31.0371C88.6836 29.528 88.2142 28.277 87.2744 27.2842C86.3478 26.2781 85.0768 25.6427 83.4619 25.3779C86.5595 24.9675 88.1084 23.2725 88.1084 20.2939C88.1084 17.6996 87.4926 15.8663 86.2617 14.7939C85.0438 13.7216 82.8127 13.1855 79.5693 13.1855H70.0977ZM59.3145 32.4268C59.3145 33.7506 59.235 34.5719 59.0762 34.8896C58.9305 35.1939 58.6064 35.3457 58.1035 35.3457C57.8128 35.3457 57.5756 35.2837 57.3887 35.1641V28.7812C57.7595 28.2667 58.401 27.6745 59.3145 27.0059V32.4268ZM78.0605 27.8994C79.2121 27.8994 79.9397 28.0457 80.2441 28.3369C80.5486 28.6149 80.7011 29.3226 80.7012 30.4609V31.3545C80.7012 32.493 80.5288 33.2213 80.1846 33.5391C79.8403 33.8434 79.1325 33.9961 78.0605 33.9961V27.8994ZM57.9844 17.375C58.4609 17.375 58.7985 17.5871 58.9971 18.0107C59.2088 18.4212 59.3145 19.3148 59.3145 20.6914C59.3144 21.7901 59.2224 22.5186 59.0371 22.876C58.9261 23.0898 58.3756 23.4217 57.3887 23.877V17.4805C57.5479 17.4115 57.746 17.375 57.9844 17.375ZM78.0605 18.7051C79.2119 18.7051 79.9396 18.8515 80.2441 19.1426C80.5486 19.4338 80.7011 19.9565 80.7012 20.7109C80.7012 21.6111 80.5622 22.2141 80.2842 22.5186C80.0192 22.8228 79.278 22.9746 78.0605 22.9746V18.7051ZM98.9902 13.1855H91.0273V39.5361H98.9902V29.8262H101.354C101.38 30.2302 101.393 30.634 101.393 31.0371V32.5859C101.393 36.3414 100.707 43.148 95.042 47.8584L95.0361 47.8633L95.0312 47.8682C92.0062 50.3776 88.5829 51.2651 86.5098 51.6592C84.1673 52.1044 81.685 52.2451 79.291 52.2451H57.3887V39.4482C57.4692 39.4062 57.5495 39.3641 57.627 39.3174C58.4078 38.8409 59.0435 38.133 59.5332 37.1934V39.5361H67.3369V26.3105C67.3369 21.9554 67.1979 19.0824 66.9199 17.6924C66.6418 16.2894 65.8149 15.1112 64.4385 14.1582C63.0617 13.1918 61.0156 12.709 58.3018 12.709C57.9893 12.709 57.685 12.7173 57.3887 12.7334V0.476562H79.5693C83.2576 0.476562 89.6614 0.892291 94.6074 5.21094L94.6084 5.20996C94.619 5.21918 94.6291 5.22905 94.6396 5.23828C94.6461 5.24392 94.6528 5.24924 94.6592 5.25488H94.6582C99.8982 9.85394 100.817 16.1734 100.817 20.2939C100.817 21.0496 100.772 21.842 100.676 22.6572H98.9902V13.1855Z" fill="white"/>
<path d="M58.3018 0C61.8311 0 66.4096 0.521068 70.582 3.00781L72.0234 1.9541V3.95703C74.9836 6.09959 77.5595 9.17525 78.8564 13.1855H70.0977V39.5361H79.291C79.5484 39.5361 79.8004 39.5335 80.0459 39.5293V52.2451H59.1123C57.6559 52.5802 56.2228 52.7217 54.8662 52.7217C53.3919 52.7216 51.9447 52.5602 50.54 52.2451H46.8242V51.0039C45.8399 50.5617 44.8864 50.0393 43.9727 49.4336L43.9033 49.3877L43.835 49.3418C38.3951 45.6328 36.9889 39.9294 36.6445 36.1006H36.5381V21.625C36.5381 20.7324 36.5682 19.7468 36.6582 18.7051H38.9609V39.5361H46.9238V13.1855H41.2324L38.2607 11.9121C40.1151 7.58535 43.3646 4.80278 46.2578 3.07227C50.2471 0.686177 54.5602 3.03043e-05 58.3018 0ZM58.3018 12.709C56.0381 12.709 54.1977 13.1323 52.7812 13.9795C51.3651 14.8266 50.419 15.8062 49.9424 16.918C49.479 18.0168 49.2471 19.5863 49.2471 21.625V23.3916H56.7734V20.6318C56.7734 19.1624 56.8393 18.2553 56.9717 17.9111C57.1041 17.5538 57.4417 17.375 57.9844 17.375C58.4609 17.375 58.7985 17.5871 58.9971 18.0107C59.2088 18.4212 59.3145 19.3148 59.3145 20.6914C59.3144 21.7901 59.2224 22.5186 59.0371 22.876C58.8515 23.2334 57.4408 23.9285 54.8066 24.9609C52.3447 25.914 50.8029 26.7481 50.1807 27.4629C49.5585 28.1778 49.2471 29.5216 49.2471 31.4941V33.6582C49.2471 36.3189 49.8294 38.0464 50.9941 38.8408C52.1722 39.6218 53.4631 40.0126 54.8662 40.0127C55.9385 40.0127 56.8591 39.7807 57.627 39.3174C58.4078 38.8409 59.0435 38.133 59.5332 37.1934V39.5361H67.3369V26.3105C67.3369 21.9554 67.1979 19.0824 66.9199 17.6924C66.6418 16.2894 65.8149 15.1112 64.4385 14.1582C63.0617 13.1918 61.0156 12.709 58.3018 12.709ZM59.3145 32.4268C59.3145 33.7506 59.235 34.5719 59.0762 34.8896C58.9305 35.1939 58.6064 35.3457 58.1035 35.3457C57.574 35.3457 57.2166 35.1472 57.0312 34.75C56.8592 34.3527 56.7734 33.4725 56.7734 32.1094C56.7734 30.9179 56.8727 30.0046 57.0713 29.3691C57.2831 28.7337 58.0304 27.9457 59.3145 27.0059V32.4268ZM78.0605 27.8994C79.0111 27.8994 79.6725 27.9998 80.0459 28.1982V33.6416C79.6663 33.8776 79.0046 33.9961 78.0605 33.9961V27.8994ZM78.0605 18.7051C78.8587 18.7051 79.4525 18.7781 79.8438 18.918C79.9304 20.1118 79.9797 21.392 80.0088 22.7109C79.6334 22.8862 78.9844 22.9746 78.0605 22.9746V18.7051ZM41.2324 13.1855H37.7744C37.9121 12.783 38.0628 12.3804 38.2314 11.9805L38.2607 11.9121L41.2324 13.1855Z" fill="white"/>
<path d="M59.6328 0.476562V12.752C59.2087 12.7238 58.7649 12.709 58.3018 12.709C56.0381 12.709 54.1977 13.1323 52.7812 13.9795C51.3651 14.8266 50.419 15.8062 49.9424 16.918C49.479 18.0168 49.2471 19.5863 49.2471 21.625V23.3916H56.7734V20.6318C56.7734 19.1624 56.8393 18.2553 56.9717 17.9111C57.1041 17.5538 57.4417 17.375 57.9844 17.375C58.4609 17.375 58.7985 17.5871 58.9971 18.0107C59.2088 18.4212 59.3145 19.3148 59.3145 20.6914C59.3144 21.7901 59.2224 22.5186 59.0371 22.876C58.8515 23.2334 57.4408 23.9285 54.8066 24.9609C52.3447 25.914 50.8029 26.7481 50.1807 27.4629C49.5585 28.1778 49.2471 29.5216 49.2471 31.4941V33.6582C49.2471 36.3189 49.8294 38.0464 50.9941 38.8408C52.1722 39.6218 53.4631 40.0126 54.8662 40.0127C55.9385 40.0127 56.8591 39.7807 57.627 39.3174C58.4078 38.8409 59.0435 38.133 59.5332 37.1934V39.5361H59.6328V52.2451H12.749V39.5361H20.7119V17.7324H25.3184V13.1855H15.4297V0.476562H59.6328ZM59.3145 32.4268C59.3145 33.7506 59.235 34.5719 59.0762 34.8896C58.9305 35.1939 58.6064 35.3457 58.1035 35.3457C57.574 35.3457 57.2166 35.1472 57.0312 34.75C56.8592 34.3527 56.7734 33.4725 56.7734 32.1094C56.7734 30.9179 56.8727 30.0046 57.0713 29.3691C57.2831 28.7337 58.0304 27.9457 59.3145 27.0059V32.4268ZM26.7686 39.5361C29.4955 39.5361 31.4551 39.4107 32.6465 39.1592C33.851 38.8944 34.7312 38.2453 35.2871 37.2129C35.8431 36.1671 36.1211 34.4324 36.1211 32.0098V18.7051H38.9609V39.5361H46.9238V13.1855H28.1387V32.248C28.1387 33.7307 27.9464 34.598 27.5625 34.8496C27.1786 35.0879 26.4771 35.2133 25.458 35.2266V39.5361H26.7686Z" fill="white"/>
<path d="M38.0273 0.476562V13.1855H28.1387V32.248C28.1387 33.7307 27.9464 34.598 27.5625 34.8496C27.1786 35.0879 26.4771 35.2133 25.458 35.2266V39.5361H26.7686C29.4955 39.5361 31.4551 39.4107 32.6465 39.1592C32.9217 39.0987 33.1795 39.0166 33.4209 38.916V52.2451H0V0.476562H38.0273ZM38.0273 18.7051V30.4414H36.1211V18.7051H38.0273ZM20.7119 39.5361V17.7324H25.3184V13.1855H12.709V39.5361H20.7119Z" fill="white"/>
<rect x="9.2793" y="6.53613" width="144" height="38" fill="white"/>
</svg>
