<svg width="580" height="63" viewBox="0 0 580 63" fill="none" xmlns="http://www.w3.org/2000/svg">
<path d="M565.525 20.6279L567.601 33.8848L565.525 47.8252H559.739L561.814 33.8848L559.739 20.6279H565.525ZM556.59 20.6279L558.641 33.8848L556.59 47.8252H550.804L552.854 33.8848L550.804 20.6279H556.59Z" fill="black"/>
<path d="M548.143 50.8525H539.695V28.5137L535.594 50.8525H530.198L525.95 28.5137V50.8525H517.503V18.4551H529.734L532.884 36.3506L535.74 18.4551H548.143V50.8525Z" fill="black"/>
<path d="M514.256 35.2275H501.487V42.2344C501.487 43.6992 501.593 44.6432 501.805 45.0664C502.016 45.4896 502.423 45.7012 503.025 45.7012C503.774 45.7012 504.271 45.4245 504.515 44.8711C504.775 44.3014 504.905 43.2109 504.905 41.5996V37.3271H514.256V39.7197C514.256 41.7217 514.126 43.2598 513.865 44.334C513.621 45.4082 513.035 46.5557 512.107 47.7764C511.18 48.9971 510 49.9167 508.567 50.5352C507.151 51.1374 505.369 51.4385 503.221 51.4385C501.137 51.4385 499.298 51.1374 497.703 50.5352C496.108 49.9329 494.863 49.111 493.968 48.0693C493.089 47.0114 492.479 45.8558 492.137 44.6025C491.795 43.333 491.624 41.4938 491.624 39.085V29.6367C491.624 26.8047 492.007 24.5749 492.771 22.9473C493.536 21.3034 494.79 20.0501 496.531 19.1875C498.273 18.3086 500.275 17.8691 502.537 17.8691C505.304 17.8691 507.583 18.3981 509.373 19.4561C511.18 20.4977 512.441 21.8893 513.157 23.6309C513.89 25.3561 514.256 27.7894 514.256 30.9307V35.2275ZM504.368 29.9541V27.5859C504.368 25.9095 504.279 24.8271 504.1 24.3389C503.921 23.8506 503.554 23.6064 503.001 23.6064C502.317 23.6064 501.894 23.818 501.731 24.2412C501.569 24.6481 501.487 25.763 501.487 27.5859V29.9541H504.368Z" fill="black"/>
<path d="M488.377 50.8525H479.93V28.5137L475.828 50.8525H470.433L466.185 28.5137V50.8525H457.737V18.4551H469.969L473.118 36.3506L475.975 18.4551H488.377V50.8525Z" fill="black"/>
<path d="M440.354 20.6279H446.141L444.09 33.8848L446.141 47.8252H440.354L438.304 33.8848L440.354 20.6279ZM449.314 20.6279H455.101L453.025 33.8848L455.101 47.8252H449.314L447.239 33.8848L449.314 20.6279Z" fill="black"/>
<path d="M404.661 44.041H408.152V18.4551H418.016V50.8525H381.468V18.4551H391.307V44.041H394.798V18.4551H404.661V44.041Z" fill="black"/>
<path d="M365.086 31.0039H355.833V28.8311C355.833 26.3245 356.118 24.3958 356.688 23.0449C357.273 21.6777 358.437 20.4733 360.179 19.4316C361.92 18.39 364.183 17.8691 366.966 17.8691C370.302 17.8691 372.817 18.4632 374.51 19.6514C376.202 20.8232 377.22 22.2718 377.562 23.9971C377.903 25.7061 378.074 29.238 378.074 34.5928V50.8525H368.479V47.9717C367.877 49.1273 367.096 49.998 366.136 50.584C365.192 51.1536 364.061 51.4385 362.742 51.4385C361.017 51.4385 359.43 50.9583 357.981 49.998C356.549 49.0215 355.833 46.8975 355.833 43.626V40.9648C355.833 38.5397 356.215 36.8877 356.98 36.0088C357.745 35.1299 359.642 34.1045 362.669 32.9326C365.908 31.6631 367.641 30.8086 367.869 30.3691C368.097 29.9297 368.211 29.0345 368.211 27.6836C368.211 25.9909 368.081 24.8923 367.82 24.3877C367.576 23.8669 367.161 23.6064 366.575 23.6064C365.908 23.6064 365.493 23.8262 365.33 24.2656C365.167 24.6888 365.086 25.8037 365.086 27.6104V31.0039ZM368.211 35.4473C366.632 36.6029 365.713 37.5713 365.452 38.3525C365.208 39.1338 365.086 40.2568 365.086 41.7217C365.086 43.3981 365.192 44.4805 365.403 44.9688C365.631 45.457 366.071 45.7012 366.722 45.7012C367.34 45.7012 367.739 45.514 367.918 45.1396C368.113 44.749 368.211 43.7399 368.211 42.1123V35.4473Z" fill="black"/>
<path d="M353.392 42.3076C353.392 45.6117 352.667 47.8659 351.219 49.0703C349.786 50.2585 346.661 50.8525 341.844 50.8525H330.54V18.4551H342.186C346.173 18.4551 348.916 19.1143 350.413 20.4326C351.927 21.751 352.684 24.0052 352.684 27.1953C352.684 30.8574 350.779 32.9408 346.971 33.4453C348.956 33.7708 350.519 34.5521 351.658 35.7891C352.814 37.0098 353.392 38.5479 353.392 40.4033V42.3076ZM340.33 30.4912C341.827 30.4912 342.739 30.304 343.064 29.9297C343.406 29.5553 343.577 28.8148 343.577 27.708C343.577 26.7803 343.39 26.1374 343.016 25.7793C342.641 25.4212 341.746 25.2422 340.33 25.2422V30.4912ZM343.577 40.7939V39.6953C343.577 38.2956 343.39 37.4248 343.016 37.083C342.641 36.7249 341.746 36.5459 340.33 36.5459V44.041C341.648 44.041 342.519 43.8538 342.942 43.4795C343.366 43.0889 343.577 42.1937 343.577 40.7939Z" fill="black"/>
<path d="M319.7 18.4551V25.2422H314.061V50.8525H304.222V25.2422H298.558V18.4551H319.7Z" fill="black"/>
<path d="M296.897 29.832V37.7666C296.897 40.68 296.751 42.8203 296.458 44.1875C296.165 45.5384 295.538 46.8079 294.578 47.9961C293.618 49.168 292.381 50.0387 290.867 50.6084C289.37 51.1618 287.645 51.4385 285.691 51.4385C283.51 51.4385 281.663 51.2025 280.149 50.7305C278.636 50.2422 277.456 49.5179 276.609 48.5576C275.779 47.5811 275.185 46.4092 274.827 45.042C274.469 43.6585 274.29 41.5915 274.29 38.8408V30.54C274.29 27.529 274.616 25.1771 275.267 23.4844C275.918 21.7917 277.09 20.4326 278.782 19.4072C280.475 18.3818 282.64 17.8691 285.276 17.8691C287.49 17.8691 289.386 18.2028 290.965 18.8701C292.56 19.5212 293.789 20.3757 294.651 21.4336C295.514 22.4915 296.1 23.582 296.409 24.7051C296.735 25.8281 296.897 27.5371 296.897 29.832ZM287.034 27.3906C287.034 25.7305 286.945 24.6888 286.766 24.2656C286.587 23.8262 286.204 23.6064 285.618 23.6064C285.032 23.6064 284.642 23.8262 284.446 24.2656C284.251 24.6888 284.153 25.7305 284.153 27.3906V42.0146C284.153 43.5446 284.251 44.5456 284.446 45.0176C284.642 45.4733 285.024 45.7012 285.594 45.7012C286.18 45.7012 286.562 45.4896 286.741 45.0664C286.937 44.6432 287.034 43.7318 287.034 42.332V27.3906Z" fill="black"/>
<path d="M272.581 18.4551V25.2422H266.941V50.8525H257.103V25.2422H251.438V18.4551H272.581Z" fill="black"/>
<path d="M235.984 31.6631H240.452V26.0479C240.452 25.1038 240.33 24.4772 240.086 24.168C239.842 23.8587 239.459 23.7041 238.938 23.7041C238.32 23.7041 237.929 23.9808 237.767 24.5342C237.62 25.0876 237.547 26.1292 237.547 27.6592V29.71H227.732V28.2451C227.732 26.1292 228.188 24.3063 229.1 22.7764C230.027 21.2464 231.297 20.1559 232.908 19.5049C234.52 18.8376 236.684 18.5039 239.402 18.5039C242.869 18.5039 245.465 19.3096 247.19 20.9209C248.932 22.5322 249.803 25.4619 249.803 29.71V39.1582C249.803 41.2253 249.681 42.8936 249.437 44.1631C249.192 45.4163 248.615 46.6045 247.703 47.7275C246.808 48.8343 245.62 49.6481 244.139 50.1689C242.674 50.6898 240.859 50.9502 238.694 50.9502C236.546 50.9502 234.772 50.7305 233.372 50.291C231.989 49.8353 230.809 49.0459 229.832 47.9229C228.872 46.7835 228.27 45.6117 228.025 44.4072C227.798 43.1865 227.684 41.6322 227.684 39.7441V38.3525H236.985V42.3564C236.985 43.626 237.132 44.513 237.425 45.0176C237.734 45.5059 238.222 45.75 238.89 45.75C239.394 45.75 239.777 45.5628 240.037 45.1885C240.314 44.8141 240.452 43.8538 240.452 42.3076V36.0576H235.984V31.6631Z" fill="black"/>
<path d="M215.965 35.2275H203.196V42.2344C203.196 43.6992 203.302 44.6432 203.514 45.0664C203.725 45.4896 204.132 45.7012 204.734 45.7012C205.483 45.7012 205.979 45.4245 206.224 44.8711C206.484 44.3014 206.614 43.2109 206.614 41.5996V37.3271H215.965V39.7197C215.965 41.7217 215.835 43.2598 215.574 44.334C215.33 45.4082 214.744 46.5557 213.816 47.7764C212.889 48.9971 211.709 49.9167 210.276 50.5352C208.86 51.1374 207.078 51.4385 204.93 51.4385C202.846 51.4385 201.007 51.1374 199.412 50.5352C197.817 49.9329 196.572 49.111 195.677 48.0693C194.798 47.0114 194.188 45.8558 193.846 44.6025C193.504 43.333 193.333 41.4938 193.333 39.085V29.6367C193.333 26.8047 193.715 24.5749 194.48 22.9473C195.245 21.3034 196.499 20.0501 198.24 19.1875C199.982 18.3086 201.984 17.8691 204.246 17.8691C207.013 17.8691 209.292 18.3981 211.082 19.4561C212.889 20.4977 214.15 21.8893 214.866 23.6309C215.599 25.3561 215.965 27.7894 215.965 30.9307V35.2275ZM206.077 29.9541V27.5859C206.077 25.9095 205.988 24.8271 205.809 24.3389C205.63 23.8506 205.263 23.6064 204.71 23.6064C204.026 23.6064 203.603 23.818 203.44 24.2412C203.278 24.6481 203.196 25.763 203.196 27.5859V29.9541H206.077Z" fill="black"/>
<path d="M190.354 29.832V37.7666C190.354 40.68 190.208 42.8203 189.915 44.1875C189.622 45.5384 188.995 46.8079 188.035 47.9961C187.075 49.168 185.838 50.0387 184.324 50.6084C182.827 51.1618 181.102 51.4385 179.148 51.4385C176.967 51.4385 175.12 51.2025 173.606 50.7305C172.093 50.2422 170.913 49.5179 170.066 48.5576C169.236 47.5811 168.642 46.4092 168.284 45.042C167.926 43.6585 167.747 41.5915 167.747 38.8408V30.54C167.747 27.529 168.073 25.1771 168.724 23.4844C169.375 21.7917 170.547 20.4326 172.239 19.4072C173.932 18.3818 176.097 17.8691 178.733 17.8691C180.947 17.8691 182.843 18.2028 184.422 18.8701C186.017 19.5212 187.246 20.3757 188.108 21.4336C188.971 22.4915 189.557 23.582 189.866 24.7051C190.192 25.8281 190.354 27.5371 190.354 29.832ZM180.491 27.3906C180.491 25.7305 180.402 24.6888 180.223 24.2656C180.044 23.8262 179.661 23.6064 179.075 23.6064C178.489 23.6064 178.099 23.8262 177.903 24.2656C177.708 24.6888 177.61 25.7305 177.61 27.3906V42.0146C177.61 43.5446 177.708 44.5456 177.903 45.0176C178.099 45.4733 178.481 45.7012 179.051 45.7012C179.637 45.7012 180.019 45.4896 180.198 45.0664C180.394 44.6432 180.491 43.7318 180.491 42.332V27.3906Z" fill="black"/>
<path d="M152.195 18.4551V31.0527C154.262 31.0527 155.296 29.9541 155.296 27.7568V22.2637C155.296 20.0501 155.662 18.7806 156.395 18.4551H165.892C165.159 19.513 164.793 21.0755 164.793 23.1426V27.6592C164.793 29.238 164.15 30.5482 162.864 31.5898C162.392 31.9805 161.399 32.5339 159.886 33.25C158.909 33.722 157.811 33.9743 156.59 34.0068C157.16 34.1045 158.226 34.373 159.788 34.8125C163.157 35.8867 164.842 37.7666 164.842 40.4521V46.1406C164.842 48.224 165.208 49.7946 165.94 50.8525H156.443C155.711 49.8597 155.345 48.5902 155.345 47.0439V40.208C155.345 38.0107 154.295 36.9121 152.195 36.9121V50.8525H142.454V18.4551H152.195Z" fill="black"/>
<path d="M126.072 31.0039H116.819V28.8311C116.819 26.3245 117.104 24.3958 117.674 23.0449C118.26 21.6777 119.424 20.4733 121.165 19.4316C122.907 18.39 125.169 17.8691 127.952 17.8691C131.289 17.8691 133.803 18.4632 135.496 19.6514C137.189 20.8232 138.206 22.2718 138.548 23.9971C138.89 25.7061 139.061 29.238 139.061 34.5928V50.8525H129.466V47.9717C128.864 49.1273 128.082 49.998 127.122 50.584C126.178 51.1536 125.047 51.4385 123.729 51.4385C122.003 51.4385 120.416 50.9583 118.968 49.998C117.535 49.0215 116.819 46.8975 116.819 43.626V40.9648C116.819 38.5397 117.202 36.8877 117.967 36.0088C118.732 35.1299 120.628 34.1045 123.655 32.9326C126.894 31.6631 128.628 30.8086 128.855 30.3691C129.083 29.9297 129.197 29.0345 129.197 27.6836C129.197 25.9909 129.067 24.8923 128.807 24.3877C128.562 23.8669 128.147 23.6064 127.562 23.6064C126.894 23.6064 126.479 23.8262 126.316 24.2656C126.154 24.6888 126.072 25.8037 126.072 27.6104V31.0039ZM129.197 35.4473C127.618 36.6029 126.699 37.5713 126.438 38.3525C126.194 39.1338 126.072 40.2568 126.072 41.7217C126.072 43.3981 126.178 44.4805 126.39 44.9688C126.618 45.457 127.057 45.7012 127.708 45.7012C128.326 45.7012 128.725 45.514 128.904 45.1396C129.1 44.749 129.197 43.7399 129.197 42.1123V35.4473Z" fill="black"/>
<path d="M115.257 18.4551V25.2422H109.617V50.8525H99.7783V25.2422H94.1143V18.4551H115.257Z" fill="black"/>
<path d="M83.6162 29.832V37.7666C83.6162 40.68 83.4697 42.8203 83.1768 44.1875C82.8838 45.5384 82.2572 46.8079 81.2969 47.9961C80.3366 49.168 79.0996 50.0387 77.5859 50.6084C76.0885 51.1618 74.3633 51.4385 72.4102 51.4385C70.2292 51.4385 68.3818 51.2025 66.8682 50.7305C65.3545 50.2422 64.1745 49.5179 63.3281 48.5576C62.498 47.5811 61.904 46.4092 61.5459 45.042C61.1878 43.6585 61.0088 41.5915 61.0088 38.8408V30.54C61.0088 27.529 61.3343 25.1771 61.9854 23.4844C62.6364 21.7917 63.8083 20.4326 65.501 19.4072C67.1937 18.3818 69.3584 17.8691 71.9951 17.8691C74.2087 17.8691 76.1048 18.2028 77.6836 18.8701C79.2786 19.5212 80.5075 20.3757 81.3701 21.4336C82.2327 22.4915 82.8187 23.582 83.1279 24.7051C83.4535 25.8281 83.6162 27.5371 83.6162 29.832ZM73.7529 27.3906C73.7529 25.7305 73.6634 24.6888 73.4844 24.2656C73.3053 23.8262 72.9229 23.6064 72.3369 23.6064C71.751 23.6064 71.3604 23.8262 71.165 24.2656C70.9697 24.6888 70.8721 25.7305 70.8721 27.3906V42.0146C70.8721 43.5446 70.9697 44.5456 71.165 45.0176C71.3604 45.4733 71.7428 45.7012 72.3125 45.7012C72.8984 45.7012 73.2809 45.4896 73.46 45.0664C73.6553 44.6432 73.7529 43.7318 73.7529 42.332V27.3906Z" fill="black"/>
<path d="M59.2998 18.4551V25.2422H53.6602V50.8525H43.8213V25.2422H38.1572V18.4551H59.2998Z" fill="black"/>
<path d="M25.6328 35.6914C24.8027 36.5703 23.7204 37.2783 22.3857 37.8154C21.0511 38.3363 19.7002 38.5967 18.333 38.5967C15.8753 38.5967 14.085 37.9131 12.9619 36.5459C11.8551 35.1787 11.3018 33.0628 11.3018 30.1982V11.3018H21.6045V29.0996C21.6045 30.6458 21.7347 31.7119 21.9951 32.2979C22.2718 32.8675 22.7194 33.1523 23.3379 33.1523C24.8678 33.1523 25.6328 31.834 25.6328 29.1973V11.3018H35.9355V50.8525H25.6328V35.6914Z" fill="black"/>
<path d="M575.196 9.32617L579.034 33.8418L575.27 59.127H537.717L539.695 45.6826V50.8525H548.143V18.4551H539.031L537.619 9.32617H575.196ZM550.804 20.6279L552.854 33.8848L550.804 47.8252H556.59L558.641 33.8848L556.59 20.6279H550.804ZM559.739 20.6279L561.814 33.8848L559.739 47.8252H565.525L567.601 33.8848L565.525 20.6279H559.739Z" fill="black"/>
<path d="M548.143 18.4551H535.74L532.884 36.3506L529.734 18.4551H517.503V50.8525H525.95V28.5137L530.198 50.8525H535.594L539.695 28.5137V50.8525H548.143V18.4551ZM550.804 20.6279L552.854 33.8848L550.804 47.8252H556.59L558.641 33.8848L556.59 20.6279H550.804ZM559.444 62.1543H506.201V51.2061C507.079 51.0555 507.868 50.8326 508.567 50.5352C510 49.9167 511.18 48.9971 512.107 47.7764C513.035 46.5557 513.621 45.4082 513.865 44.334C514.126 43.2598 514.256 41.7217 514.256 39.7197V37.3271H506.201V35.2275H514.256V30.9307C514.256 27.7894 513.89 25.3561 513.157 23.6309C512.441 21.8893 511.18 20.4977 509.373 19.4561C508.447 18.9086 507.389 18.5034 506.201 18.2393V7.15332H559.444V62.1543Z" fill="black"/>
<path d="M502.537 6.56738C506.643 6.56738 511.03 7.33989 515.018 9.66504H515.019C515.023 9.66766 515.028 9.67023 515.032 9.67285C515.062 9.69047 515.093 9.70779 515.123 9.72559L515.122 9.72656C518.545 11.7248 521.427 14.6281 523.224 18.4551H517.503V50.8525H523.45C522.756 52.2668 521.935 53.524 521.105 54.6152C518.98 57.4121 516.232 59.536 513.048 60.9111L513.02 60.9238L512.99 60.9355C509.738 62.3185 506.328 62.7402 503.221 62.7402C500.067 62.7402 496.83 62.286 493.711 61.1084C490.766 59.9966 487.788 58.2196 485.396 55.4355L485.335 55.3643L485.274 55.292C484.153 53.9423 483.198 52.4581 482.442 50.8525H488.377V18.4551H482.397C482.439 18.3627 482.481 18.2707 482.524 18.1787C484.454 14.0326 487.649 10.9745 491.515 9.05957V9.06055C495.048 7.29378 498.815 6.56738 502.537 6.56738ZM502.537 17.8691C500.275 17.8691 498.273 18.3086 496.531 19.1875C494.79 20.0501 493.536 21.3034 492.771 22.9473C492.007 24.5749 491.624 26.8047 491.624 29.6367V39.085C491.624 41.4938 491.795 43.333 492.137 44.6025C492.479 45.8558 493.089 47.0114 493.968 48.0693C494.863 49.111 496.108 49.9329 497.703 50.5352C499.298 51.1374 501.137 51.4385 503.221 51.4385C505.369 51.4385 507.151 51.1374 508.567 50.5352C510 49.9167 511.18 48.9971 512.107 47.7764C513.035 46.5557 513.621 45.4082 513.865 44.334C514.126 43.2598 514.256 41.7217 514.256 39.7197V37.3271H504.905V41.5996C504.905 43.2109 504.775 44.3014 504.515 44.8711C504.271 45.4245 503.774 45.7012 503.025 45.7012C502.423 45.7012 502.016 45.4896 501.805 45.0664C501.593 44.6432 501.487 43.6992 501.487 42.2344V35.2275H514.256V30.9307C514.256 27.7894 513.89 25.3561 513.157 23.6309C512.441 21.8893 511.18 20.4977 509.373 19.4561C507.583 18.3981 505.304 17.8691 502.537 17.8691ZM503.001 23.6064C503.554 23.6064 503.921 23.8506 504.1 24.3389C504.279 24.8271 504.368 25.9095 504.368 27.5859V29.9541H501.487V27.5859C501.487 25.763 501.569 24.6481 501.731 24.2412C501.894 23.818 502.317 23.6064 503.001 23.6064Z" fill="black"/>
<path d="M488.377 18.4551H475.975L473.118 36.3506L469.969 18.4551H457.737V50.8525H466.185V28.5137L470.433 50.8525H475.828L479.93 28.5137V50.8525H488.377V18.4551ZM449.314 20.6279L447.239 33.8848L449.314 47.8252H455.101L453.025 33.8848L455.101 20.6279H449.314ZM499.679 18.1289C498.549 18.3459 497.5 18.6987 496.531 19.1875C494.79 20.0501 493.536 21.3034 492.771 22.9473C492.007 24.5749 491.624 26.8047 491.624 29.6367V39.085C491.624 41.4938 491.795 43.333 492.137 44.6025C492.479 45.8558 493.089 47.0114 493.968 48.0693C494.863 49.111 496.108 49.9329 497.703 50.5352C498.325 50.7698 498.983 50.9574 499.679 51.1006V62.1543H446.436V7.15332H499.679V18.1289Z" fill="black"/>
<path d="M468.31 9.32617L466.881 18.4551H457.737V50.8525H466.185V45.5244L468.21 59.127H430.594L426.874 33.8428L430.666 9.32617H468.31ZM440.354 20.6279L438.304 33.8848L440.354 47.8252H446.141L444.09 33.8848L446.141 20.6279H440.354ZM449.314 20.6279L447.239 33.8848L449.314 47.8252H455.101L453.025 33.8848L455.101 20.6279H449.314Z" fill="black"/>
<path d="M404.661 18.4551H394.798V44.041H391.307V18.4551H381.468V50.8525H418.016V18.4551H408.152V44.041H404.661V18.4551ZM429.317 62.1543H370.166V50.8525H378.074V34.5928C378.074 29.238 377.903 25.7061 377.562 23.9971C377.22 22.2718 376.202 20.8232 374.51 19.6514C373.409 18.8789 371.961 18.3591 370.166 18.0889V7.15332H429.317V62.1543Z" fill="black"/>
<path d="M366.966 6.56738C371.301 6.56738 376.516 7.27825 380.942 10.3584C383.755 12.3053 386.193 15.004 387.632 18.4551H381.468V50.8525H389.376V62.1543H367.451C365.854 62.5669 364.264 62.7402 362.742 62.7402C361.097 62.7402 359.488 62.5406 357.934 62.1543H357.178V61.9502C355.263 61.392 353.436 60.5447 351.736 59.418L351.675 59.3779L351.614 59.3359C348.186 56.9981 346.4 53.7858 345.479 50.7109C348.273 50.472 350.186 49.9271 351.219 49.0703C352.667 47.8659 353.392 45.6117 353.392 42.3076V40.4033C353.392 38.5479 352.814 37.0098 351.658 35.7891C350.519 34.5521 348.956 33.7708 346.971 33.4453C350.779 32.9408 352.684 30.8574 352.684 27.1953C352.684 24.0052 351.927 21.751 350.413 20.4326C349.492 19.6214 348.099 19.0611 346.234 18.749C346.248 18.7172 346.26 18.685 346.273 18.6533L346.299 18.5928C348.11 14.3668 351.322 11.5596 354.377 9.73242L354.756 9.51074C358.685 7.27512 362.996 6.56738 366.966 6.56738ZM366.966 17.8691C364.183 17.8691 361.92 18.39 360.179 19.4316C358.437 20.4733 357.273 21.6777 356.688 23.0449C356.118 24.3958 355.833 26.3245 355.833 28.8311V31.0039H365.086V27.6104C365.086 25.8037 365.167 24.6888 365.33 24.2656C365.493 23.8262 365.908 23.6064 366.575 23.6064C367.161 23.6064 367.576 23.8669 367.82 24.3877C368.081 24.8923 368.211 25.9909 368.211 27.6836C368.211 29.0345 368.097 29.9297 367.869 30.3691C367.641 30.8086 365.908 31.6631 362.669 32.9326C359.642 34.1045 357.745 35.1299 356.98 36.0088C356.215 36.8877 355.833 38.5397 355.833 40.9648V43.626C355.833 46.8975 356.549 49.0215 357.981 49.998C359.43 50.9583 361.017 51.4385 362.742 51.4385C364.061 51.4385 365.192 51.1536 366.136 50.584C367.096 49.998 367.877 49.1273 368.479 47.9717V50.8525H378.074V34.5928C378.074 29.238 377.903 25.7061 377.562 23.9971C377.22 22.2718 376.202 20.8232 374.51 19.6514C372.817 18.4632 370.302 17.8691 366.966 17.8691ZM368.211 42.1123C368.211 43.7399 368.113 44.749 367.918 45.1396C367.739 45.514 367.34 45.7012 366.722 45.7012C366.071 45.7012 365.631 45.457 365.403 44.9688C365.192 44.4805 365.086 43.3981 365.086 41.7217C365.086 40.2568 365.208 39.1338 365.452 38.3525C365.713 37.5713 366.632 36.6029 368.211 35.4473V42.1123Z" fill="black"/>
<path d="M342.186 7.15332C346.566 7.15332 353.021 7.70417 357.835 11.9102H357.836C357.843 11.9159 357.849 11.922 357.855 11.9277C357.864 11.9353 357.873 11.9427 357.882 11.9502H357.881C360.078 13.8778 361.516 16.1401 362.441 18.4551C361.609 18.7024 360.854 19.0275 360.179 19.4316C358.437 20.4733 357.273 21.6777 356.688 23.0449C356.118 24.3958 355.833 26.3245 355.833 28.8311V31.0039H363.626C363.515 31.5726 363.376 32.145 363.205 32.7178C363.031 32.7872 362.853 32.8605 362.669 32.9326C359.642 34.1045 357.745 35.1299 356.98 36.0088C356.215 36.8877 355.833 38.5397 355.833 40.9648V43.626C355.833 46.8975 356.549 49.0215 357.981 49.998C359.43 50.9583 361.017 51.4385 362.742 51.4385C362.85 51.4385 362.956 51.4325 363.062 51.4287C362.125 53.6911 360.674 55.9071 358.444 57.7607L358.435 57.7695C355.546 60.1653 352.187 61.0781 349.911 61.5107C347.396 61.9889 344.639 62.1543 341.844 62.1543H319.238V25.2422H319.7V18.4551H319.238V7.15332H342.186ZM330.54 18.4551V50.8525H341.844C346.661 50.8525 349.786 50.2585 351.219 49.0703C352.667 47.8659 353.392 45.6117 353.392 42.3076V40.4033C353.392 38.5479 352.814 37.0098 351.658 35.7891C350.519 34.5521 348.956 33.7708 346.971 33.4453C350.779 32.9408 352.684 30.8574 352.684 27.1953C352.684 24.0052 351.927 21.751 350.413 20.4326C348.916 19.1143 346.173 18.4551 342.186 18.4551H330.54ZM340.33 36.5459C341.746 36.5459 342.641 36.7249 343.016 37.083C343.39 37.4248 343.577 38.2956 343.577 39.6953V40.7939C343.577 42.1937 343.366 43.0889 342.942 43.4795C342.519 43.8538 341.648 44.041 340.33 44.041V36.5459ZM340.33 25.2422C341.746 25.2422 342.641 25.4212 343.016 25.7793C343.39 26.1374 343.577 26.7803 343.577 27.708C343.577 28.8148 343.406 29.5553 343.064 29.9297C342.739 30.304 341.827 30.4912 340.33 30.4912V25.2422Z" fill="black"/>
<path d="M331.002 7.15332V18.4551H330.54V36.5439H325.362V62.1543H292.92V49.5352C293.543 49.0982 294.095 48.5852 294.578 47.9961C295.538 46.8079 296.165 45.5384 296.458 44.1875C296.751 42.8203 296.897 40.68 296.897 37.7666V29.832C296.897 27.5371 296.735 25.8281 296.409 24.7051C296.1 23.582 295.514 22.4915 294.651 21.4336C293.789 20.3757 292.56 19.5212 290.965 18.8701C289.879 18.411 288.642 18.1091 287.256 17.9658V7.15332H331.002ZM314.061 50.8525V25.2422H319.7V18.4551H298.558V25.2422H304.222V50.8525H314.061Z" fill="black"/>
<path d="M285.276 6.56738C288.537 6.56738 291.961 7.04832 295.235 8.40723L295.236 8.40625C295.265 8.41798 295.294 8.43052 295.322 8.44238C295.336 8.44835 295.351 8.45396 295.365 8.45996H295.364C298.038 9.56876 300.747 11.2456 302.967 13.7676L303.411 14.291L303.724 14.6836C304.613 15.8239 305.416 17.0813 306.08 18.4551H298.558V25.2422H304.222V50.8525H306.047C305.319 52.3897 304.412 53.8087 303.368 55.1006L303.345 55.1299L303.32 55.1602C301.016 57.9727 298.091 59.966 294.848 61.1865L294.785 61.21C291.788 62.3175 288.693 62.7402 285.691 62.7402C282.765 62.7402 279.711 62.4327 276.785 61.5205L276.68 61.4873C273.697 60.5252 270.611 58.845 268.13 56.0303L268.063 55.9551L267.998 55.8779C266.678 54.3245 265.658 52.6267 264.901 50.8525H266.941V25.2422H272.581V18.4551H265.123C266.815 14.6819 269.581 11.7671 272.927 9.74023L273.298 9.52051C277.151 7.2978 281.367 6.56738 285.276 6.56738ZM285.276 17.8691C282.64 17.8691 280.475 18.3818 278.782 19.4072C277.09 20.4326 275.918 21.7917 275.267 23.4844C274.616 25.1771 274.29 27.529 274.29 30.54V38.8408C274.29 41.5915 274.469 43.6585 274.827 45.042C275.185 46.4092 275.779 47.5811 276.609 48.5576C277.456 49.5179 278.636 50.2422 280.149 50.7305C281.663 51.2025 283.51 51.4385 285.691 51.4385C287.645 51.4385 289.37 51.1618 290.867 50.6084C292.381 50.0387 293.618 49.168 294.578 47.9961C295.538 46.8079 296.165 45.5384 296.458 44.1875C296.751 42.8203 296.897 40.68 296.897 37.7666V29.832C296.897 27.5371 296.735 25.8281 296.409 24.7051C296.1 23.582 295.514 22.4915 294.651 21.4336C293.789 20.3757 292.56 19.5212 290.965 18.8701C289.386 18.2028 287.49 17.8691 285.276 17.8691ZM285.618 23.6064C286.204 23.6064 286.587 23.8262 286.766 24.2656C286.945 24.6888 287.034 25.7305 287.034 27.3906V42.332C287.034 43.7318 286.937 44.6432 286.741 45.0664C286.562 45.4896 286.18 45.7012 285.594 45.7012C285.024 45.7012 284.642 45.4733 284.446 45.0176C284.251 44.5456 284.153 43.5446 284.153 42.0146V27.3906C284.153 25.7305 284.251 24.6888 284.446 24.2656C284.642 23.8262 285.032 23.6064 285.618 23.6064ZM285.592 34.3994V34.9072C285.593 34.9072 285.594 34.9072 285.596 34.9072V34.3994H285.592Z" fill="black"/>
<path d="M283.883 7.15332V17.9199C281.867 18.0726 280.167 18.5686 278.782 19.4072C277.09 20.4326 275.918 21.7917 275.267 23.4844C274.616 25.1771 274.29 27.529 274.29 30.54V38.8408C274.29 41.5915 274.469 43.6585 274.827 45.042C275.185 46.4092 275.779 47.5811 276.609 48.5576C277.059 49.0682 277.605 49.5106 278.243 49.8877V62.1543H245.801V49.3857C246.538 48.9355 247.172 48.3838 247.703 47.7275C248.615 46.6045 249.192 45.4163 249.437 44.1631C249.681 42.8936 249.803 41.2253 249.803 39.1582V29.71C249.803 25.4619 248.932 22.5322 247.19 20.9209C245.589 19.4254 243.238 18.6251 240.137 18.5176V7.15332H283.883ZM240.452 36.0576V36.5439H240.137V36.0576H240.452ZM240.137 24.2451C240.345 24.5753 240.452 25.1752 240.452 26.0479V31.6631H240.137V24.2451ZM266.941 50.8525V25.2422H272.581V18.4551H251.438V25.2422H257.103V50.8525H266.941Z" fill="black"/>
<path d="M239.402 7.20215C244.395 7.20215 250.253 8.34168 254.865 12.625H254.866C254.871 12.6291 254.875 12.6336 254.879 12.6377C254.887 12.6456 254.897 12.6532 254.905 12.6611H254.904C256.762 14.3907 258.079 16.3808 259.007 18.4551H251.438V25.2422H257.103V50.8525H259.023C258.324 52.3077 257.458 53.6422 256.479 54.8496L256.478 54.8486C254.142 57.7304 251.152 59.6756 247.924 60.8174L247.925 60.8184C244.87 61.9043 241.681 62.252 238.694 62.252C235.879 62.252 232.862 61.9771 229.986 61.0742L229.911 61.0508L229.836 61.0254C226.476 59.9187 223.585 57.9622 221.304 55.3389L221.246 55.2734L221.19 55.207C219.267 52.9246 217.641 50.0699 216.948 46.6523L216.931 46.5674L216.915 46.4814C216.512 44.322 216.382 42.009 216.382 39.7441V27.0508H216.461C216.621 23.6599 217.48 20.1981 219.39 16.9922L219.412 16.9541L219.436 16.916C221.587 13.3673 224.731 10.6185 228.674 9.02539V9.02637C232.18 7.5943 235.969 7.20215 239.402 7.20215ZM239.402 18.5039C236.684 18.5039 234.52 18.8376 232.908 19.5049C231.297 20.1559 230.027 21.2464 229.1 22.7764C228.188 24.3063 227.732 26.1292 227.732 28.2451V29.71H237.547V27.6592C237.547 26.1292 237.62 25.0876 237.767 24.5342C237.929 23.9808 238.32 23.7041 238.938 23.7041C239.459 23.7041 239.842 23.8587 240.086 24.168C240.33 24.4772 240.452 25.1038 240.452 26.0479V31.6631H235.984V36.0576H240.452V42.3076C240.452 43.8538 240.314 44.8141 240.037 45.1885C239.777 45.5628 239.394 45.75 238.89 45.75C238.222 45.75 237.734 45.5059 237.425 45.0176C237.132 44.513 236.985 43.626 236.985 42.3564V38.3525H227.684V39.7441C227.684 41.6322 227.798 43.1865 228.025 44.4072C228.27 45.6117 228.872 46.7835 229.832 47.9229C230.809 49.0459 231.989 49.8353 233.372 50.291C234.772 50.7305 236.546 50.9502 238.694 50.9502C240.859 50.9502 242.674 50.6898 244.139 50.1689C245.62 49.6481 246.808 48.8343 247.703 47.7275C248.615 46.6045 249.192 45.4163 249.437 44.1631C249.681 42.8936 249.803 41.2253 249.803 39.1582V29.71C249.803 25.4619 248.932 22.5322 247.19 20.9209C245.465 19.3096 242.869 18.5039 239.402 18.5039Z" fill="black"/>
<path d="M204.246 6.56738C208.352 6.56738 212.738 7.33989 216.727 9.66504H216.728C216.732 9.66766 216.737 9.67023 216.741 9.67285C216.771 9.69047 216.802 9.70779 216.832 9.72559L216.831 9.72656C220.477 11.8548 223.509 15.0099 225.27 19.2139C225.272 19.2202 225.275 19.2271 225.277 19.2334C225.291 19.2663 225.306 19.299 225.319 19.332H225.316C226.211 21.4784 226.722 23.7616 226.994 26.0254H227.267V46.5293H226.665C226.643 46.6326 226.619 46.7353 226.595 46.8379C226.592 46.8494 226.59 46.8616 226.587 46.873C226.577 46.9143 226.569 46.956 226.559 46.9971L226.557 46.9961C225.829 50.0617 224.334 52.6156 222.814 54.6152C220.689 57.4121 217.941 59.536 214.757 60.9111L214.729 60.9238L214.699 60.9355C211.447 62.3185 208.037 62.7402 204.93 62.7402C201.776 62.7402 198.539 62.286 195.42 61.1084C192.475 59.9966 189.497 58.2196 187.104 55.4355L187.044 55.3643L186.983 55.292C185.826 53.8983 184.843 52.3623 184.076 50.6963C184.159 50.6677 184.242 50.6387 184.324 50.6084C185.838 50.0387 187.075 49.168 188.035 47.9961C188.995 46.8079 189.622 45.5384 189.915 44.1875C190.208 42.8203 190.354 40.68 190.354 37.7666V29.832C190.354 27.5371 190.192 25.8281 189.866 24.7051C189.557 23.582 188.971 22.4915 188.108 21.4336C187.246 20.3757 186.017 19.5212 184.422 18.8701C184.283 18.8115 184.142 18.7566 183.998 18.7031C184.074 18.5277 184.152 18.3527 184.233 18.1787C186.163 14.0326 189.358 10.9745 193.224 9.05957V9.06055C196.757 7.29378 200.524 6.56738 204.246 6.56738ZM204.246 17.8691C201.984 17.8691 199.982 18.3086 198.24 19.1875C196.499 20.0501 195.245 21.3034 194.48 22.9473C193.715 24.5749 193.333 26.8047 193.333 29.6367V39.085C193.333 41.4938 193.504 43.333 193.846 44.6025C194.188 45.8558 194.798 47.0114 195.677 48.0693C196.572 49.111 197.817 49.9329 199.412 50.5352C201.007 51.1374 202.846 51.4385 204.93 51.4385C207.078 51.4385 208.86 51.1374 210.276 50.5352C211.709 49.9167 212.889 48.9971 213.816 47.7764C214.744 46.5557 215.33 45.4082 215.574 44.334C215.835 43.2598 215.965 41.7217 215.965 39.7197V37.3271H206.614V41.5996C206.614 43.2109 206.484 44.3014 206.224 44.8711C205.979 45.4245 205.483 45.7012 204.734 45.7012C204.132 45.7012 203.725 45.4896 203.514 45.0664C203.302 44.6432 203.196 43.6992 203.196 42.2344V35.2275H215.965V30.9307C215.965 27.7894 215.599 25.3561 214.866 23.6309C214.15 21.8893 212.889 20.4977 211.082 19.4561C209.292 18.3981 207.013 17.8691 204.246 17.8691ZM204.71 23.6064C205.263 23.6064 205.63 23.8506 205.809 24.3389C205.988 24.8271 206.077 25.9095 206.077 27.5859V29.9541H203.196V27.5859C203.196 25.763 203.278 24.6481 203.44 24.2412C203.603 23.818 204.026 23.6064 204.71 23.6064Z" fill="black"/>
<path d="M178.733 6.56738C181.994 6.56738 185.418 7.04832 188.692 8.40723L188.693 8.40625C188.722 8.41798 188.751 8.43052 188.779 8.44238C188.793 8.44835 188.808 8.45396 188.822 8.45996H188.821C191.495 9.56876 194.204 11.2456 196.424 13.7676L196.868 14.291L197.181 14.6836C198.102 15.8654 198.931 17.1728 199.609 18.6055C199.136 18.7714 198.68 18.9655 198.24 19.1875C196.499 20.0501 195.245 21.3034 194.48 22.9473C193.715 24.5749 193.333 26.8047 193.333 29.6367V39.085C193.333 41.4938 193.504 43.333 193.846 44.6025C194.188 45.8558 194.798 47.0114 195.677 48.0693C196.572 49.111 197.817 49.9329 199.412 50.5352C199.48 50.561 199.55 50.5847 199.619 50.6094C198.874 52.2408 197.924 53.7406 196.825 55.1006L196.802 55.1299L196.777 55.1602C194.473 57.9727 191.548 59.966 188.305 61.1865L188.242 61.21C185.245 62.3175 182.15 62.7402 179.148 62.7402C176.222 62.7402 173.168 62.4327 170.242 61.5205L170.137 61.4873C167.154 60.5252 164.068 58.845 161.587 56.0303L161.521 55.9551L161.455 55.8779C160.135 54.3245 159.115 52.6267 158.358 50.8525H165.94C165.208 49.7946 164.842 48.224 164.842 46.1406V40.4521C164.842 37.7666 163.157 35.8867 159.788 34.8125C158.226 34.373 157.16 34.1045 156.59 34.0068C157.811 33.9743 158.909 33.722 159.886 33.25C161.399 32.5339 162.392 31.9805 162.864 31.5898C164.15 30.5482 164.793 29.238 164.793 27.6592V23.1426C164.793 21.0755 165.159 19.513 165.892 18.4551H158.58C160.272 14.6819 163.038 11.7671 166.384 9.74023L166.755 9.52051C170.608 7.2978 174.824 6.56738 178.733 6.56738ZM178.733 17.8691C176.097 17.8691 173.932 18.3818 172.239 19.4072C170.547 20.4326 169.375 21.7917 168.724 23.4844C168.073 25.1771 167.747 27.529 167.747 30.54V38.8408C167.747 41.5915 167.926 43.6585 168.284 45.042C168.642 46.4092 169.236 47.5811 170.066 48.5576C170.913 49.5179 172.093 50.2422 173.606 50.7305C175.12 51.2025 176.967 51.4385 179.148 51.4385C181.102 51.4385 182.827 51.1618 184.324 50.6084C185.838 50.0387 187.075 49.168 188.035 47.9961C188.995 46.8079 189.622 45.5384 189.915 44.1875C190.208 42.8203 190.354 40.68 190.354 37.7666V29.832C190.354 27.5371 190.192 25.8281 189.866 24.7051C189.557 23.582 188.971 22.4915 188.108 21.4336C187.246 20.3757 186.017 19.5212 184.422 18.8701C182.843 18.2028 180.947 17.8691 178.733 17.8691ZM179.075 23.6064C179.661 23.6064 180.044 23.8262 180.223 24.2656C180.402 24.6888 180.491 25.7305 180.491 27.3906V42.332C180.491 43.7318 180.394 44.6432 180.198 45.0664C180.019 45.4896 179.637 45.7012 179.051 45.7012C178.481 45.7012 178.099 45.4733 177.903 45.0176C177.708 44.5456 177.61 43.5446 177.61 42.0146V27.3906C177.61 25.7305 177.708 24.6888 177.903 24.2656C178.099 23.8262 178.489 23.6064 179.075 23.6064ZM179.049 34.3994V34.9072C179.05 34.9072 179.051 34.9072 179.053 34.9072V34.3994H179.049Z" fill="black"/>
<path d="M187.463 7.15332L180.016 17.9092C179.601 17.8828 179.173 17.8691 178.733 17.8691C176.097 17.8691 173.932 18.3818 172.239 19.4072C170.547 20.4326 169.375 21.7917 168.724 23.4844C168.073 25.1771 167.747 27.529 167.747 30.54V38.8408C167.747 41.5915 167.926 43.6585 168.284 45.042C168.642 46.4092 169.236 47.5811 170.066 48.5576C170.913 49.5179 172.093 50.2422 173.606 50.7305C175.12 51.2025 176.967 51.4385 179.148 51.4385C179.464 51.4385 179.773 51.4285 180.076 51.4141L187.512 62.1543H131.152V50.8525H139.061V34.5928C139.061 29.238 138.89 25.7061 138.548 23.9971C138.206 22.2718 137.189 20.8232 135.496 19.6514C134.396 18.8789 132.948 18.3591 131.152 18.0889V7.15332H187.463ZM142.454 50.8525H152.195V36.9121C154.295 36.9121 155.345 38.0107 155.345 40.208V47.0439C155.345 48.5902 155.711 49.8597 156.443 50.8525H165.94C165.208 49.7946 164.842 48.224 164.842 46.1406V40.4521C164.842 37.7666 163.157 35.8867 159.788 34.8125C158.226 34.373 157.16 34.1045 156.59 34.0068C157.811 33.9743 158.909 33.722 159.886 33.25C161.399 32.5339 162.392 31.9805 162.864 31.5898C164.15 30.5482 164.793 29.238 164.793 27.6592V23.1426C164.793 21.0755 165.159 19.513 165.892 18.4551H156.395C155.662 18.7806 155.296 20.0501 155.296 22.2637V27.7568C155.296 29.9541 154.262 31.0527 152.195 31.0527V18.4551H142.454V50.8525Z" fill="black"/>
<path d="M127.952 6.56738C132.287 6.56738 137.502 7.27825 141.929 10.3584C144.741 12.3053 147.18 15.004 148.618 18.4551H142.454V50.8525H150.362V62.1543H128.438C126.841 62.5669 125.25 62.7402 123.729 62.7402C122.083 62.7402 120.475 62.5406 118.92 62.1543H118.164V61.9502C116.249 61.392 114.422 60.5447 112.723 59.418L112.661 59.3779L112.601 59.3359C109.225 57.0341 107.442 53.8841 106.51 50.8525H109.617V25.2422H115.257V18.4551H107.347C109.168 14.306 112.342 11.5396 115.363 9.73242L115.742 9.51074C119.671 7.27512 123.983 6.56738 127.952 6.56738ZM127.952 17.8691C125.169 17.8691 122.907 18.39 121.165 19.4316C119.424 20.4733 118.26 21.6777 117.674 23.0449C117.104 24.3958 116.819 26.3245 116.819 28.8311V31.0039H126.072V27.6104C126.072 25.8037 126.154 24.6888 126.316 24.2656C126.479 23.8262 126.894 23.6064 127.562 23.6064C128.147 23.6064 128.562 23.8669 128.807 24.3877C129.067 24.8923 129.197 25.9909 129.197 27.6836C129.197 29.0345 129.083 29.9297 128.855 30.3691C128.628 30.8086 126.894 31.6631 123.655 32.9326C120.628 34.1045 118.732 35.1299 117.967 36.0088C117.202 36.8877 116.819 38.5397 116.819 40.9648V43.626C116.819 46.8975 117.535 49.0215 118.968 49.998C120.416 50.9583 122.003 51.4385 123.729 51.4385C125.047 51.4385 126.178 51.1536 127.122 50.584C128.082 49.998 128.864 49.1273 129.466 47.9717V50.8525H139.061V34.5928C139.061 29.238 138.89 25.7061 138.548 23.9971C138.206 22.2718 137.189 20.8232 135.496 19.6514C133.803 18.4632 131.289 17.8691 127.952 17.8691ZM129.197 42.1123C129.197 43.7399 129.1 44.749 128.904 45.1396C128.725 45.514 128.326 45.7012 127.708 45.7012C127.057 45.7012 126.618 45.457 126.39 44.9688C126.178 44.4805 126.072 43.3981 126.072 41.7217C126.072 40.2568 126.194 39.1338 126.438 38.3525C126.699 37.5713 127.618 36.6029 129.197 35.4473V42.1123Z" fill="black"/>
<path d="M126.559 7.15332V17.916C124.404 18.0647 122.606 18.5696 121.165 19.4316C119.424 20.4733 118.26 21.6777 117.674 23.0449C117.104 24.3958 116.819 26.3245 116.819 28.8311V31.0039H126.072V27.6104C126.072 25.8037 126.154 24.6888 126.316 24.2656C126.37 24.1214 126.451 24.0012 126.559 23.9043V31.7256C125.784 32.0741 124.817 32.4773 123.655 32.9326C120.628 34.1045 118.732 35.1299 117.967 36.0088C117.202 36.8877 116.819 38.5397 116.819 40.9648V43.626C116.819 46.8975 117.535 49.0215 118.968 49.998C119.592 50.4121 120.243 50.7362 120.919 50.9717V62.1543H88.4766V36.5439H83.6162V29.832C83.6162 27.5371 83.4535 25.8281 83.1279 24.7051C83.0438 24.3997 82.9375 24.0974 82.8125 23.7969V7.15332H126.559ZM109.617 50.8525V25.2422H115.257V18.4551H94.1143V25.2422H99.7783V50.8525H109.617Z" fill="black"/>
<path d="M71.9951 6.56738C75.256 6.56738 78.6802 7.04832 81.9541 8.40723L81.9551 8.40625C81.9838 8.41798 82.0123 8.43052 82.041 8.44238C82.0552 8.44835 82.0698 8.45396 82.084 8.45996H82.083C84.7563 9.56876 87.4662 11.2456 89.6855 13.7676L90.1299 14.291L90.4424 14.6836C91.9624 16.6336 93.2332 18.925 93.9814 21.5586H93.9834C93.9889 21.5777 93.9935 21.5971 93.999 21.6162C94.0073 21.6455 94.0163 21.6747 94.0244 21.7041H94.0225C94.0536 21.8151 94.0852 21.9262 94.1143 22.0381V25.2422H94.6914C94.8712 26.8294 94.918 28.4054 94.918 29.832V37.7666C94.918 40.8132 94.7856 43.9557 94.2285 46.5557L94.2227 46.583C93.5178 49.8331 92.0378 52.6867 90.0869 55.1006L90.0635 55.1299L90.0391 55.1602C87.7343 57.9727 84.8096 59.966 81.5664 61.1865L81.5039 61.21C78.5071 62.3175 75.4114 62.7402 72.4102 62.7402C69.4842 62.7402 66.4293 62.4327 63.5039 61.5205L63.3984 61.4873C60.4159 60.5252 57.3294 58.845 54.8486 56.0303L54.7822 55.9551L54.7168 55.8779C53.3963 54.3245 52.3772 52.6267 51.6201 50.8525H53.6602V25.2422H59.2998V18.4551H51.8418C53.5334 14.6819 56.2996 11.7671 59.6455 9.74023L60.0166 9.52051C63.87 7.2978 68.0861 6.56738 71.9951 6.56738ZM71.9951 17.8691C69.3584 17.8691 67.1937 18.3818 65.501 19.4072C63.8083 20.4326 62.6364 21.7917 61.9854 23.4844C61.3343 25.1771 61.0088 27.529 61.0088 30.54V38.8408C61.0088 41.5915 61.1878 43.6585 61.5459 45.042C61.904 46.4092 62.498 47.5811 63.3281 48.5576C64.1745 49.5179 65.3545 50.2422 66.8682 50.7305C68.3818 51.2025 70.2292 51.4385 72.4102 51.4385C74.3633 51.4385 76.0885 51.1618 77.5859 50.6084C79.0996 50.0387 80.3366 49.168 81.2969 47.9961C82.2572 46.8079 82.8838 45.5384 83.1768 44.1875C83.4697 42.8203 83.6162 40.68 83.6162 37.7666V29.832C83.6162 27.5371 83.4535 25.8281 83.1279 24.7051C82.8187 23.582 82.2327 22.4915 81.3701 21.4336C80.5075 20.3757 79.2786 19.5212 77.6836 18.8701C76.1048 18.2028 74.2087 17.8691 71.9951 17.8691ZM72.3369 23.6064C72.9229 23.6064 73.3053 23.8262 73.4844 24.2656C73.6634 24.6888 73.7529 25.7305 73.7529 27.3906V42.332C73.7529 43.7318 73.6553 44.6432 73.46 45.0664C73.2809 45.4896 72.8984 45.7012 72.3125 45.7012C71.7428 45.7012 71.3604 45.4733 71.165 45.0176C70.9697 44.5456 70.8721 43.5446 70.8721 42.0146V27.3906C70.8721 25.7305 70.9697 24.6888 71.165 24.2656C71.3604 23.8262 71.751 23.6064 72.3369 23.6064ZM72.3105 34.3994V34.9072C72.3119 34.9072 72.3132 34.9072 72.3145 34.9072V34.3994H72.3105Z" fill="black"/>
<path d="M70.6016 7.15332V17.9199C68.5856 18.0726 66.8854 18.5686 65.501 19.4072C63.8083 20.4326 62.6364 21.7917 61.9854 23.4844C61.3343 25.1771 61.0088 27.529 61.0088 30.54V38.8408C61.0088 41.5915 61.1878 43.6585 61.5459 45.042C61.904 46.4092 62.498 47.5811 63.3281 48.5576C63.7781 49.0682 64.3233 49.5106 64.9619 49.8877V62.1543H32.5195V50.8525H35.9355V11.3018H26.8555V7.15332H70.6016ZM53.6602 50.8525V25.2422H59.2998V18.4551H38.1572V25.2422H43.8213V50.8525H53.6602Z" fill="black"/>
<path d="M47.2373 0V18.4551H38.1572V25.2422H43.8213V50.8525H47.2373V62.1543H14.3311V49.5361C10.8187 48.8801 7.10811 47.2253 4.22852 43.7197L4.17773 43.6572C0.69489 39.3549 0 34.1423 0 30.1982V0H47.2373ZM21.6045 11.3018H11.3018V30.1982C11.3018 33.0628 11.8551 35.1787 12.9619 36.5459C14.085 37.9131 15.8753 38.5967 18.333 38.5967C19.7002 38.5967 21.0511 38.3363 22.3857 37.8154C23.7204 37.2783 24.8027 36.5703 25.6328 35.6914V50.8525H35.9355V11.3018H25.6328V29.1973C25.6328 31.834 24.8678 33.1523 23.3379 33.1523C22.7194 33.1523 22.2718 32.8675 21.9951 32.2979C21.7347 31.7119 21.6045 30.6458 21.6045 29.0996V11.3018Z" fill="black"/>
</svg>
