<svg width="1067" height="1118" viewBox="0 0 1067 1118" fill="none" xmlns="http://www.w3.org/2000/svg">
<rect x="2052.98" y="1079.8" width="1597.43" height="169.402" transform="rotate(-180 2052.98 1079.8)" fill="black"/>
<path d="M442.022 1021.55L383.113 910.884H500.93L442.022 1021.55Z" fill="black"/>
<path d="M442.022 967.007L500.93 1080.25L383.114 1080.25L442.022 967.007Z" fill="black"/>
<rect x="289.153" y="451.56" width="113.828" height="197.96" fill="black"/>
<rect x="502.368" y="451.56" width="113.828" height="197.96" fill="black"/>
<rect x="357.96" y="451.56" width="113.828" height="226.029" fill="black"/>
<path d="M627.24 519.517L670.644 650.259L583.837 650.259L627.24 519.517Z" fill="black"/>
<path d="M627.24 583.041L583.836 452.299L670.644 452.299L627.24 583.041Z" fill="black"/>
<ellipse cx="476.884" cy="565.313" rx="57.7636" ry="100.457" fill="black"/>
<rect x="636.74" y="451.558" width="113.828" height="197.96" fill="black"/>
<rect x="849.955" y="451.558" width="113.828" height="197.96" fill="black"/>
<rect x="705.546" y="451.558" width="113.828" height="226.029" fill="black"/>
<path d="M974.827 519.515L1018.23 650.257L931.423 650.257L974.827 519.515Z" fill="black"/>
<path d="M974.827 583.04L931.423 452.298L1018.23 452.298L974.827 583.04Z" fill="black"/>
<ellipse cx="824.472" cy="565.311" rx="57.7636" ry="100.457" fill="black"/>
<path d="M289.153 635.246L1243.63 635.246L1243.63 897.396L720.354 897.395L678.834 774.195L289.153 635.246Z" fill="black"/>
<path d="M1071.5 105.153L1071.5 623.211L157.748 623.211L157.748 105.152L1071.5 105.153Z" fill="black"/>
<path d="M131.819 443.135L17.6607 104.713L245.978 104.713L131.819 443.135Z" fill="black"/>
<path d="M131.82 276.337L245.979 622.661L17.6613 622.661L131.82 276.337Z" fill="black"/>
<rect x="1308.47" y="980.227" width="399.833" height="394.269" transform="rotate(-180 1308.47 980.227)" fill="black"/>
<path d="M869.848 844.88L717.388 584.486L1022.31 584.486L869.848 844.88Z" fill="black"/>
<path d="M869.847 718.359L1022.31 978.754L717.386 978.754L869.847 718.359Z" fill="black"/>
</svg>
