<svg width="1760" height="199" viewBox="0 0 1760 199" fill="none" xmlns="http://www.w3.org/2000/svg">
<path d="M1664.48 62.0572H98.4766L93.9766 29.0635L77.9766 62.0572L62.4766 29.0635L71.9766 76.1973L49.4766 66.1814L1.47656 62.0572L58.4766 88.5699H30.4766L58.4766 113.315H36.9766L18.9766 122.153L49.4766 134.525L26.9766 139.828L49.4766 147.487L18.9766 170.465L71.9766 147.487L58.4766 175.178L77.9766 159.271V196.978L98.4766 159.271H1664.48L1682.48 169.876V152.2L1707.98 169.876V135.114L1737.48 152.2L1719.48 115.672L1737.48 102.121L1719.48 93.2833L1749.48 62.0572L1707.98 69.7164L1719.48 44.382L1696.48 62.0572V11.9775L1664.48 62.0572Z" stroke="#FF65A6" stroke-width="7"/>
</svg>
