<svg width="431" height="72" viewBox="0 0 431 72" fill="none" xmlns="http://www.w3.org/2000/svg">
<path d="M419.634 27.6201V35.7056H412.139V27.6201H419.634ZM419.634 45.4132V53.5233H412.139V45.4132H419.634Z" fill="black"/>
<path d="M408.575 53.5236H400.072V31.0365L395.943 53.5236H390.512L386.235 31.0365V53.5236H377.732V20.9111H390.045L393.215 38.9254L396.09 20.9111H408.575V53.5236Z" fill="black"/>
<path d="M374.464 37.7949H361.61V44.8482C361.61 46.3228 361.717 47.2731 361.93 47.699C362.143 48.125 362.552 48.338 363.159 48.338C363.912 48.338 364.412 48.0595 364.658 47.5024C364.92 46.929 365.051 45.8313 365.051 44.2092V39.9084H374.464V42.3169C374.464 44.3321 374.333 45.8804 374.07 46.9618C373.825 48.0431 373.235 49.1982 372.301 50.427C371.367 51.6558 370.179 52.5815 368.737 53.2041C367.312 53.8103 365.518 54.1134 363.355 54.1134C361.258 54.1134 359.407 53.8103 357.801 53.2041C356.195 52.5979 354.942 51.7705 354.041 50.7219C353.156 49.6569 352.542 48.4937 352.198 47.2321C351.854 45.9541 351.682 44.1027 351.682 41.6779V32.167C351.682 29.3161 352.067 27.0715 352.837 25.4331C353.607 23.7783 354.868 22.5168 356.621 21.6484C358.375 20.7637 360.39 20.3213 362.667 20.3213C365.452 20.3213 367.746 20.8538 369.548 21.9187C371.367 22.9673 372.637 24.3681 373.358 26.1212C374.095 27.858 374.464 30.3074 374.464 33.4695V37.7949ZM364.51 32.4864V30.1026C364.51 28.415 364.42 27.3255 364.24 26.834C364.06 26.3424 363.691 26.0967 363.134 26.0967C362.446 26.0967 362.02 26.3097 361.856 26.7356C361.692 27.1452 361.61 28.2676 361.61 30.1026V32.4864H364.51Z" fill="black"/>
<path d="M348.413 53.5236H339.909V31.0365L335.781 53.5236H330.349L326.073 31.0365V53.5236H317.57V20.9111H329.882L333.053 38.9254L335.928 20.9111H348.413V53.5236Z" fill="black"/>
<path d="M305.109 53.5235H296.459V35.9024L289.553 53.5235H280.509V20.911H289.16V38.3846L295.943 20.911H305.109V53.5235ZM295.549 11.3018H299.727C299.629 13.53 298.974 15.324 297.761 16.6839C296.565 18.0438 294.894 18.7237 292.748 18.7237C290.585 18.7237 288.906 18.0438 287.71 16.6839C286.53 15.3077 285.891 13.5136 285.793 11.3018H289.971C290.167 13.5464 291.093 14.6687 292.748 14.6687C294.419 14.6687 295.353 13.5464 295.549 11.3018Z" fill="black"/>
<path d="M277.216 32.3636V40.3508C277.216 43.2835 277.068 45.438 276.774 46.8143C276.479 48.1742 275.848 49.4521 274.881 50.6482C273.915 51.8278 272.669 52.7044 271.146 53.2778C269.638 53.8349 267.902 54.1134 265.936 54.1134C263.74 54.1134 261.88 53.8758 260.357 53.4007C258.833 52.9092 257.645 52.1801 256.793 51.2134C255.958 50.2304 255.36 49.0507 254.999 47.6745C254.639 46.2818 254.458 44.201 254.458 41.4321V33.0763C254.458 30.0452 254.786 27.6777 255.442 25.9738C256.097 24.2698 257.277 22.9018 258.98 21.8696C260.684 20.8374 262.864 20.3213 265.518 20.3213C267.746 20.3213 269.655 20.6572 271.244 21.3289C272.85 21.9843 274.087 22.8444 274.955 23.9094C275.823 24.9744 276.413 26.0721 276.724 27.2026C277.052 28.3331 277.216 30.0534 277.216 32.3636ZM267.287 29.906C267.287 28.2348 267.197 27.1862 267.017 26.7602C266.837 26.3179 266.452 26.0967 265.862 26.0967C265.272 26.0967 264.879 26.3179 264.682 26.7602C264.486 27.1862 264.387 28.2348 264.387 29.906V44.627C264.387 46.1671 264.486 47.1747 264.682 47.6499C264.879 48.1086 265.264 48.338 265.837 48.338C266.427 48.338 266.812 48.125 266.992 47.699C267.189 47.2731 267.287 46.3555 267.287 44.9465V29.906Z" fill="black"/>
<path d="M251.853 44.922C251.853 48.2479 251.124 50.5171 249.666 51.7295C248.224 52.9256 245.079 53.5236 240.229 53.5236H228.85V20.9111H240.573C244.587 20.9111 247.348 21.5747 248.855 22.9018C250.379 24.2289 251.141 26.4981 251.141 29.7094C251.141 33.3958 249.224 35.4929 245.39 36.0008C247.389 36.3285 248.962 37.115 250.108 38.3601C251.272 39.589 251.853 41.1372 251.853 43.005V44.922ZM238.705 33.0271C240.212 33.0271 241.13 32.8387 241.458 32.4619C241.802 32.0851 241.974 31.3396 241.974 30.2255C241.974 29.2916 241.785 28.6444 241.408 28.284C241.032 27.9235 240.131 27.7433 238.705 27.7433V33.0271ZM241.974 43.3982V42.2923C241.974 40.8833 241.785 40.0067 241.408 39.6627C241.032 39.3022 240.131 39.122 238.705 39.122V46.6669C240.032 46.6669 240.909 46.4784 241.335 46.1016C241.761 45.7084 241.974 44.8073 241.974 43.3982Z" fill="black"/>
<path d="M225.877 33.2237H216.513V29.4636C216.513 28.1529 216.407 27.2681 216.194 26.8094C215.981 26.3342 215.587 26.0967 215.014 26.0967C214.441 26.0967 214.056 26.3015 213.859 26.7111C213.662 27.1207 213.564 28.0382 213.564 29.4636V44.8482C213.564 46.0115 213.711 46.888 214.006 47.4779C214.301 48.0513 214.735 48.338 215.309 48.338C215.981 48.338 216.431 48.0349 216.661 47.4287C216.906 46.8225 217.029 45.6756 217.029 43.9881V40.105H225.877C225.86 42.7101 225.762 44.668 225.582 45.9787C225.418 47.2731 224.869 48.6084 223.935 49.9846C223.018 51.3445 221.813 52.3767 220.322 53.0812C218.831 53.7693 216.988 54.1134 214.793 54.1134C211.991 54.1134 209.771 53.6383 208.133 52.688C206.494 51.7213 205.331 50.3778 204.643 48.6575C203.971 46.9208 203.635 44.4632 203.635 41.2847V32.0195C203.635 29.2506 203.914 27.1616 204.471 25.7526C205.028 24.3436 206.216 23.0902 208.034 21.9925C209.853 20.8783 212.065 20.3213 214.67 20.3213C217.259 20.3213 219.47 20.8702 221.305 21.9679C223.14 23.0656 224.361 24.4501 224.967 26.1212C225.573 27.7924 225.877 30.1599 225.877 33.2237Z" fill="black"/>
<path d="M191.838 44.2093C191.838 47.1911 191.486 49.3293 190.782 50.6236C190.093 51.9179 189.004 52.729 187.513 53.0566C186.022 53.3679 183.589 53.5236 180.214 53.5236H168.737V20.9111H178.592V31.7738H180.214C183.376 31.7738 185.735 31.9622 187.292 32.339C188.848 32.7158 189.995 33.5432 190.732 34.8212C191.47 36.0991 191.838 38.1226 191.838 40.8915V44.2093ZM181.959 43.005V41.7025C181.959 40.0149 181.787 38.9909 181.443 38.6305C181.115 38.27 180.165 38.0652 178.592 38.0161V46.6669C179.903 46.6669 180.787 46.503 181.246 46.1753C181.721 45.8313 181.959 44.7745 181.959 43.005Z" fill="black"/>
<path d="M166.722 20.9111V27.7433H161.045V53.5236H151.141V27.7433H145.439V20.9111H166.722Z" fill="black"/>
<path d="M130.57 33.5432H121.256V31.3559C121.256 28.8328 121.543 26.8913 122.116 25.5314C122.706 24.1552 123.877 22.9427 125.63 21.8942C127.383 20.8456 129.661 20.3213 132.463 20.3213C135.821 20.3213 138.353 20.9193 140.057 22.1153C141.76 23.295 142.784 24.7532 143.129 26.4899C143.473 28.2102 143.645 31.7655 143.645 37.1559V53.5236H133.986V50.6236C133.38 51.7869 132.594 52.6634 131.627 53.2532C130.677 53.8267 129.538 54.1134 128.211 54.1134C126.474 54.1134 124.877 53.6301 123.419 52.6634C121.977 51.6804 121.256 49.5422 121.256 46.2491V43.5703C121.256 41.129 121.641 39.4661 122.411 38.5813C123.181 37.6966 125.09 36.6644 128.137 35.4847C131.398 34.2068 133.142 33.3466 133.372 32.9042C133.601 32.4619 133.716 31.5607 133.716 30.2009C133.716 28.4969 133.585 27.391 133.323 26.8831C133.077 26.3588 132.659 26.0967 132.069 26.0967C131.398 26.0967 130.98 26.3179 130.816 26.7602C130.652 27.1862 130.57 28.3085 130.57 30.1271V33.5432ZM133.716 38.0161C132.127 39.1793 131.201 40.1542 130.939 40.9406C130.693 41.7271 130.57 42.8576 130.57 44.3321C130.57 46.0197 130.677 47.1092 130.89 47.6007C131.119 48.0923 131.561 48.338 132.217 48.338C132.839 48.338 133.241 48.1496 133.421 47.7728C133.618 47.3796 133.716 46.3637 133.716 44.7253V38.0161Z" fill="black"/>
<path d="M119.216 59.8151H112.581V53.5236H95.8689V59.8151H89.2334V45.733H91.3469C92.6085 43.7833 93.6407 40.7604 94.4435 36.6644C95.2627 32.552 95.6723 27.7023 95.6723 22.1154V20.9111H117.103V45.6838H119.216V59.8151ZM107.248 45.6838V28.2594H104.667V28.6034C104.667 34.6655 103.684 40.359 101.718 45.6838H107.248Z" fill="black"/>
<path d="M82.5244 36.05C84.0808 36.5415 85.2277 37.2624 85.965 38.2127C86.7023 39.163 87.0709 40.6457 87.0709 42.661C87.0709 44.8892 86.9071 46.5112 86.5794 47.527C86.2517 48.5265 85.6128 49.5505 84.6625 50.599C83.7286 51.6312 82.4424 52.3767 80.804 52.8355C79.1656 53.2942 77.347 53.5236 75.3481 53.5236C71.3668 53.5236 68.5815 52.7453 66.9923 51.1889C65.403 49.6324 64.6084 46.8061 64.6084 42.7101V40.3262H74.021V44.922C74.021 46.5604 74.5945 47.3796 75.7414 47.3796C76.3476 47.3796 76.8063 47.1502 77.1176 46.6914C77.4453 46.2163 77.6091 44.9875 77.6091 43.005V40.9406C77.6091 39.9904 77.2897 39.335 76.6507 38.9745C76.0117 38.6141 74.6846 38.4339 72.6693 38.4339V33.789H73.4312C74.8239 33.789 75.7332 33.7562 76.1592 33.6907C76.5851 33.6252 76.9292 33.3958 77.1914 33.0026C77.4699 32.593 77.6091 31.913 77.6091 30.9627V30.2746C77.6091 28.882 77.4535 27.9972 77.1422 27.6204C76.8473 27.2436 76.4131 27.0552 75.8397 27.0552C74.6272 27.0552 74.021 27.7761 74.021 29.2178V31.8721H64.6084V30.4221C64.6084 26.9814 65.444 24.5402 67.1152 23.0984C68.8027 21.6402 71.6126 20.9111 75.5448 20.9111C79.3131 20.9111 82.1066 21.6075 83.9252 23.0001C85.7438 24.3927 86.6531 26.5472 86.6531 29.4636C86.6531 31.4297 86.3582 32.8961 85.7684 33.8627C85.1786 34.813 84.0972 35.5421 82.5244 36.05Z" fill="black"/>
<path d="M61.6344 32.3636V40.3508C61.6344 43.2835 61.4869 45.438 61.192 46.8143C60.8971 48.1742 60.2663 49.4521 59.2997 50.6482C58.333 51.8278 57.0878 52.7044 55.5641 53.2778C54.0568 53.8349 52.3201 54.1134 50.354 54.1134C48.1585 54.1134 46.2989 53.8758 44.7752 53.4007C43.2515 52.9092 42.0637 52.1801 41.2117 51.2134C40.3761 50.2304 39.7781 49.0507 39.4176 47.6745C39.0572 46.2818 38.877 44.201 38.877 41.4321V33.0763C38.877 30.0452 39.2046 27.6777 39.86 25.9738C40.5154 24.2698 41.695 22.9018 43.3989 21.8696C45.1029 20.8374 47.282 20.3213 49.9362 20.3213C52.1644 20.3213 54.0732 20.6572 55.6624 21.3289C57.2681 21.9843 58.505 22.8444 59.3734 23.9094C60.2418 24.9744 60.8316 26.0721 61.1429 27.2026C61.4706 28.3331 61.6344 30.0534 61.6344 32.3636ZM51.7057 29.906C51.7057 28.2348 51.6156 27.1862 51.4353 26.7602C51.2551 26.3179 50.8701 26.0967 50.2803 26.0967C49.6904 26.0967 49.2972 26.3179 49.1006 26.7602C48.904 27.1862 48.8057 28.2348 48.8057 29.906V44.627C48.8057 46.1671 48.904 47.1747 49.1006 47.6499C49.2972 48.1086 49.6822 48.338 50.2557 48.338C50.8455 48.338 51.2305 48.125 51.4108 47.699C51.6074 47.2731 51.7057 46.3555 51.7057 44.9465V29.906Z" fill="black"/>
<path d="M35.7559 31.0857H25.4094V24.1553C25.4094 22.14 25.2947 20.8866 25.0653 20.3951C24.8523 19.8872 24.369 19.6333 23.6153 19.6333C22.7634 19.6333 22.2227 19.9364 21.9933 20.5426C21.764 21.1488 21.6493 22.4595 21.6493 24.4747V42.956C21.6493 44.8893 21.764 46.1508 21.9933 46.7407C22.2227 47.3305 22.7388 47.6254 23.5416 47.6254C24.3117 47.6254 24.8114 47.3305 25.0408 46.7407C25.2865 46.1508 25.4094 44.7664 25.4094 42.5873V37.5984H35.7559V39.1467C35.7559 43.2591 35.461 46.1754 34.8712 47.8957C34.2978 49.6161 33.0116 51.1234 31.0127 52.4177C29.0303 53.7121 26.5809 54.3593 23.6645 54.3593C20.6335 54.3593 18.1349 53.8104 16.1688 52.7127C14.2027 51.6149 12.9002 50.0994 12.2612 48.1661C11.6222 46.2164 11.3027 43.2918 11.3027 39.3924V27.7679C11.3027 24.9007 11.401 22.7544 11.5976 21.329C11.7943 19.8872 12.3759 18.5028 13.3425 17.1757C14.3256 15.8485 15.6773 14.8082 17.3976 14.0545C19.1343 13.2844 21.125 12.8994 23.3696 12.8994C26.417 12.8994 28.932 13.4892 30.9144 14.6689C32.8969 15.8485 34.1994 17.3231 34.822 19.0926C35.4446 20.8457 35.7559 23.5818 35.7559 27.301V31.0857Z" fill="black"/>
<path d="M430.937 16.3184V64.8252H400.836V53.5234H408.575V20.9111H400.836V16.3184H430.937ZM412.139 45.4131V53.5234H419.634V45.4131H412.139ZM412.139 27.6201V35.7061H419.634V27.6201H412.139Z" fill="black"/>
<path d="M419.634 53.5234V45.4131H412.139V53.5234H419.634ZM412.139 27.6201V35.7061H419.634V27.6201H412.139ZM396.09 20.9111L393.215 38.9248L390.045 20.9111H377.732V53.5234H386.235V31.0361L390.512 53.5234H395.943L400.071 31.0361V53.5234H408.575V20.9111H396.09ZM419.877 64.8252H366.43V53.8652C367.284 53.7139 368.053 53.495 368.737 53.2041C370.179 52.5815 371.367 51.6555 372.301 50.4268C373.235 49.1981 373.825 48.0432 374.07 46.9619C374.332 45.8806 374.463 44.3316 374.463 42.3164V39.9082H366.43V37.7949H374.463V33.4697C374.463 30.3076 374.095 27.8578 373.357 26.1211C372.637 24.368 371.366 22.9675 369.548 21.9189C368.635 21.3793 367.595 20.9761 366.43 20.71V9.6084H419.877V64.8252Z" fill="black"/>
<path d="M362.667 9.01855C366.791 9.01857 371.193 9.79502 375.192 12.127H375.193C375.21 12.1364 375.226 12.1468 375.242 12.1562C375.261 12.1671 375.279 12.1776 375.298 12.1885H375.297C378.722 14.1875 381.605 17.0894 383.407 20.9111H377.732V53.5234H383.636C382.943 54.9284 382.125 56.1785 381.299 57.2656C379.167 60.0707 376.412 62.2008 373.218 63.5801L373.189 63.5928L373.16 63.6045C369.899 64.9914 366.477 65.415 363.355 65.415C360.188 65.415 356.938 64.9589 353.809 63.7773C350.853 62.6615 347.867 60.8789 345.469 58.0879L345.407 58.0166L345.347 57.9443C344.229 56.5993 343.277 55.1214 342.521 53.5234H348.413V20.9111H342.477C342.52 20.8157 342.563 20.72 342.607 20.625H342.608C344.545 16.4882 347.739 13.4351 351.604 11.5205V11.5215C355.15 9.74884 358.93 9.01855 362.667 9.01855ZM362.667 20.3213C360.39 20.3213 358.374 20.7637 356.621 21.6484C354.868 22.5167 353.607 23.7781 352.837 25.4326C352.067 27.071 351.682 29.3162 351.682 32.167V41.6777C351.682 44.1026 351.853 45.9545 352.197 47.2324C352.541 48.4938 353.156 49.6568 354.041 50.7217C354.942 51.7702 356.195 52.5979 357.801 53.2041C359.406 53.8103 361.258 54.1133 363.355 54.1133C365.518 54.1132 367.312 53.8103 368.737 53.2041C370.179 52.5815 371.367 51.6555 372.301 50.4268C373.235 49.1981 373.825 48.0432 374.07 46.9619C374.332 45.8806 374.463 44.3316 374.463 42.3164V39.9082H365.051V44.209C365.051 45.8308 364.919 46.9285 364.657 47.502C364.411 48.059 363.912 48.3379 363.158 48.3379C362.552 48.3378 362.143 48.125 361.93 47.6992C361.717 47.2732 361.61 46.3222 361.61 44.8477V37.7949H374.463V33.4697C374.463 30.3076 374.095 27.8578 373.357 26.1211C372.637 24.368 371.366 22.9675 369.548 21.9189C367.746 20.854 365.452 20.3213 362.667 20.3213ZM363.134 26.0967C363.691 26.0967 364.059 26.3425 364.239 26.834C364.419 27.3255 364.51 28.415 364.51 30.1025V32.4863H361.61V30.1025C361.61 28.2675 361.692 27.145 361.855 26.7354C362.019 26.3094 362.446 26.0967 363.134 26.0967Z" fill="black"/>
<path d="M348.413 20.9111H335.928L333.053 38.9248L329.883 20.9111H317.569V53.5234H326.073V31.0361L330.35 53.5234H335.78L339.909 31.0361V53.5234H348.413V20.9111ZM359.715 20.5977C358.606 20.8171 357.575 21.1672 356.621 21.6484C354.868 22.5167 353.607 23.7781 352.837 25.4326C352.067 27.071 351.682 29.3162 351.682 32.167V41.6777C351.682 44.1026 351.853 45.9545 352.197 47.2324C352.541 48.4938 353.156 49.6568 354.041 50.7217C354.942 51.7702 356.195 52.5979 357.801 53.2041C358.404 53.4319 359.042 53.6156 359.715 53.7578V64.8252H306.268V9.6084H359.715V20.5977Z" fill="black"/>
<path d="M311.539 0L311.115 9.6084H316.412V64.8252H269.207V53.8135C269.89 53.6794 270.537 53.5023 271.146 53.2773C272.669 52.704 273.914 51.8279 274.881 50.6484C275.847 49.4525 276.478 48.1742 276.773 46.8145C277.068 45.4382 277.216 43.2833 277.216 40.3506V32.3633C277.216 30.0532 277.052 28.3326 276.725 27.2021C276.413 26.0717 275.823 24.9741 274.955 23.9092C274.087 22.8443 272.85 21.9844 271.244 21.3291C270.615 21.0633 269.936 20.8501 269.207 20.6895V9.6084H274.404L273.978 0H311.539ZM285.793 11.3018C285.891 13.5135 286.53 15.3074 287.71 16.6836C288.906 18.0435 290.585 18.7236 292.748 18.7236C294.894 18.7236 296.566 18.0434 297.762 16.6836C298.974 15.3238 299.629 13.5298 299.728 11.3018H295.55C295.353 13.5463 294.419 14.6689 292.748 14.6689C291.093 14.6689 290.167 13.5464 289.971 11.3018H285.793ZM295.964 9.6084H296.51C296.443 9.51533 296.371 9.42096 296.291 9.32812L295.964 9.6084ZM292.748 7.42188C292.632 7.42188 292.099 7.44096 291.352 7.74512C290.857 7.94625 290.388 8.22416 289.971 8.55762V9.6084H295.754L296.196 9.21973C295.632 8.57863 294.898 8.05703 294.108 7.7373C293.552 7.51223 293.12 7.44729 292.897 7.42871L292.748 7.42188ZM289.971 8.55762C289.728 8.75141 289.503 8.9644 289.301 9.19141C289.292 9.20116 289.284 9.21093 289.275 9.2207L289.717 9.6084H289.971V8.55762ZM289.275 9.2207C289.165 9.349 289.067 9.47931 288.979 9.6084H289.717L289.275 9.2207ZM289.553 53.5234L296.459 35.9023V53.5234H305.109V20.9111H295.942L289.16 38.3848V20.9111H280.509V53.5234H289.553Z" fill="black"/>
<path d="M265.518 9.01855C268.793 9.01855 272.23 9.50214 275.514 10.8652L275.515 10.8643C275.558 10.8819 275.601 10.9 275.645 10.918H275.644C278.508 12.1061 281.412 13.9437 283.714 16.7666C284.723 18.0045 285.635 19.3865 286.376 20.9111H280.509V53.5234H286.343C285.616 55.0527 284.711 56.4649 283.671 57.752L283.647 57.7822L283.623 57.8115C281.312 60.6318 278.38 62.6311 275.127 63.8555L275.095 63.8672L275.063 63.8789C272.057 64.9901 268.95 65.415 265.936 65.415C262.995 65.415 259.928 65.1058 256.992 64.1904L256.887 64.1572C253.894 63.1919 250.801 61.5075 248.314 58.6865L248.247 58.6104L248.182 58.5332C246.802 56.9098 245.75 55.1298 244.981 53.2686C247.205 52.9878 248.767 52.4752 249.666 51.7295C251.124 50.5171 251.854 48.2478 251.854 44.9219V43.0049C251.854 41.1372 251.272 39.5891 250.108 38.3604C248.962 37.1152 247.389 36.3287 245.39 36.001C249.224 35.4931 251.141 33.3954 251.141 29.709C251.141 26.4979 250.379 24.2285 248.855 22.9014C248.011 22.1582 246.774 21.6229 245.144 21.2959C246.823 17.3404 249.664 14.2983 253.124 12.2021C257.088 9.80085 261.465 9.01856 265.518 9.01855ZM265.518 20.3213C262.863 20.3213 260.684 20.837 258.98 21.8691C257.277 22.9013 256.097 24.2697 255.441 25.9736C254.786 27.6776 254.458 30.0451 254.458 33.0762V41.4316C254.458 44.2005 254.639 46.2822 254.999 47.6748C255.359 49.0507 255.958 50.23 256.793 51.2129C257.645 52.1795 258.833 52.9089 260.356 53.4004C261.88 53.8755 263.74 54.1133 265.936 54.1133C267.902 54.1133 269.638 53.8344 271.146 53.2773C272.669 52.704 273.914 51.8279 274.881 50.6484C275.847 49.4525 276.478 48.1742 276.773 46.8145C277.068 45.4382 277.216 43.2833 277.216 40.3506V32.3633C277.216 30.0532 277.052 28.3326 276.725 27.2021C276.413 26.0717 275.823 24.9741 274.955 23.9092C274.087 22.8443 272.85 21.9844 271.244 21.3291C269.655 20.6574 267.746 20.3213 265.518 20.3213ZM265.861 26.0967C266.451 26.0967 266.836 26.3176 267.017 26.7598C267.197 27.1858 267.287 28.2351 267.287 29.9062V44.9463C267.287 46.3553 267.189 47.2732 266.992 47.6992C266.812 48.125 266.427 48.3379 265.837 48.3379C265.264 48.3378 264.878 48.1081 264.682 47.6494C264.485 47.1741 264.387 46.1666 264.387 44.627V29.9062C264.387 28.2351 264.485 27.1858 264.682 26.7598C264.878 26.3176 265.272 26.0968 265.861 26.0967ZM265.761 37.0371V37.3955C265.795 37.3959 265.829 37.3984 265.861 37.3984C265.879 37.3984 265.896 37.3966 265.914 37.3965V37.0371C265.896 37.037 265.879 37.0362 265.861 37.0361H265.837C265.812 37.0361 265.787 37.0369 265.761 37.0371Z" fill="black"/>
<path d="M240.573 9.6084C244.98 9.60843 251.453 10.1648 256.277 14.3799L256.278 14.3789C256.29 14.389 256.301 14.4 256.312 14.4102C256.316 14.4132 256.32 14.4159 256.323 14.4189H256.322C258.539 16.3636 259.986 18.6485 260.913 20.9863C260.212 21.2195 259.568 21.5132 258.98 21.8691C257.277 22.9013 256.097 24.2697 255.441 25.9736C254.786 27.6776 254.458 30.0451 254.458 33.0762V41.4316C254.458 44.2005 254.639 46.2822 254.999 47.6748C255.359 49.0507 255.958 50.23 256.793 51.2129C257.645 52.1795 258.833 52.9089 260.356 53.4004C260.765 53.5279 261.199 53.6362 261.656 53.7295C260.724 56.1166 259.238 58.469 256.892 60.4199L256.882 60.4277C253.989 62.8277 250.622 63.7441 248.336 64.1787C245.81 64.6589 243.04 64.8252 240.229 64.8252H217.548V53.9023C218.579 53.732 219.504 53.4588 220.322 53.0811C221.813 52.3766 223.017 51.3442 223.935 49.9844C224.868 48.6081 225.417 47.2729 225.581 45.9785C225.761 44.6678 225.86 42.7096 225.876 40.1045H217.548V33.2236H225.876C225.876 30.1598 225.573 27.7923 224.967 26.1211C224.361 24.4501 223.14 23.0655 221.306 21.9678C220.192 21.3016 218.939 20.839 217.548 20.5771V9.6084H240.573ZM228.851 20.9111V53.5234H240.229C245.078 53.5234 248.224 52.9255 249.666 51.7295C251.124 50.5171 251.854 48.2478 251.854 44.9219V43.0049C251.854 41.1372 251.272 39.5891 250.108 38.3604C248.962 37.1152 247.389 36.3287 245.39 36.001C249.224 35.4931 251.141 33.3954 251.141 29.709C251.141 26.4979 250.379 24.2285 248.855 22.9014C247.348 21.5743 244.587 20.9112 240.573 20.9111H228.851ZM238.705 39.1221C240.13 39.1221 241.031 39.3019 241.408 39.6621C241.785 40.0062 241.974 40.8831 241.974 42.292V43.3984C241.974 44.8072 241.761 45.7084 241.335 46.1016C240.909 46.4784 240.032 46.667 238.705 46.667V39.1221ZM238.705 27.7432C240.13 27.7432 241.031 27.9237 241.408 28.2842C241.785 28.6446 241.974 29.2917 241.974 30.2256C241.974 31.3395 241.802 32.0851 241.458 32.4619C241.13 32.8387 240.212 33.0273 238.705 33.0273V27.7432Z" fill="black"/>
<path d="M214.67 9.01855C218.871 9.01858 223.183 9.9207 227.107 12.2686C230.339 14.2019 233.269 17.0306 235.037 20.9111H228.851V53.5234H234.923C234.431 54.5249 233.876 55.4626 233.287 56.3311L233.286 56.3301C231.228 59.3707 228.458 61.7367 225.15 63.2998L225.059 63.3428C221.671 64.9061 218.1 65.415 214.793 65.415C210.888 65.415 206.456 64.7816 202.462 62.4648L202.39 62.4219C198.661 60.2221 195.791 56.9607 194.148 52.8545L194.125 52.7949L194.102 52.7344C192.693 49.0919 192.333 45.0132 192.333 41.2842V32.0195C192.333 28.8068 192.612 25.0067 193.96 21.5967C195.717 17.1516 199.042 14.2304 202.13 12.3545C206.082 9.93346 210.443 9.01855 214.67 9.01855ZM214.67 20.3213C212.065 20.3213 209.853 20.8781 208.034 21.9922C206.216 23.0899 205.028 24.3439 204.471 25.7529C203.914 27.162 203.635 29.2509 203.635 32.0195V41.2842C203.635 44.4626 203.971 46.9205 204.643 48.6572C205.331 50.3776 206.494 51.7208 208.133 52.6875C209.771 53.6377 211.991 54.1133 214.793 54.1133C216.988 54.1132 218.831 53.7691 220.322 53.0811C221.813 52.3766 223.017 51.3442 223.935 49.9844C224.868 48.6081 225.417 47.2729 225.581 45.9785C225.761 44.6678 225.86 42.7096 225.876 40.1045H217.029V43.9883C217.029 45.6756 216.906 46.8225 216.66 47.4287C216.431 48.0348 215.98 48.3379 215.309 48.3379C214.735 48.3379 214.301 48.0509 214.006 47.4775C213.711 46.8877 213.563 46.0107 213.563 44.8477V29.4639C213.563 28.0386 213.662 27.1206 213.858 26.7109C214.055 26.3014 214.44 26.0967 215.014 26.0967C215.587 26.0967 215.98 26.3344 216.193 26.8096C216.406 27.2684 216.513 28.1534 216.513 29.4639V33.2236H225.876C225.876 30.1598 225.573 27.7923 224.967 26.1211C224.361 24.4501 223.14 23.0655 221.306 21.9678C219.471 20.8701 217.259 20.3213 214.67 20.3213Z" fill="black"/>
<path d="M189.895 9.6084V21.3408C189.913 21.3453 189.932 21.3499 189.951 21.3545C194.096 22.3579 197.856 24.8112 200.291 28.7842L200.522 29.1729L200.729 29.543C202.81 33.3806 203.141 37.7048 203.141 40.8916V44.209C203.141 47.4907 202.849 52.023 200.76 55.9277L200.762 55.9287C200.752 55.9467 200.741 55.9645 200.731 55.9824C200.724 55.9969 200.717 56.0119 200.709 56.0264L200.708 56.0254C198.385 60.3262 194.479 63.0979 189.939 64.0957L189.881 64.1084L189.823 64.1201C187.103 64.688 183.662 64.8252 180.214 64.8252H157.435V53.5234H161.045V27.7432H166.722V20.9111H157.435V9.6084H189.895ZM178.592 38.0156C180.164 38.0648 181.114 38.2697 181.442 38.6299C181.786 38.9903 181.959 40.0147 181.959 41.7021V43.0049C181.959 44.7743 181.721 45.8307 181.246 46.1748C180.787 46.5025 179.903 46.667 178.592 46.667V38.0156ZM168.737 53.5234H180.214C183.589 53.5234 186.022 53.3679 187.513 53.0566C189.004 52.729 190.094 51.9174 190.782 50.623C191.487 49.3287 191.839 47.1905 191.839 44.209V40.8916C191.839 38.1228 191.47 36.0993 190.732 34.8213C189.995 33.5433 188.848 32.7157 187.292 32.3389C185.736 31.962 183.376 31.7734 180.214 31.7734H178.592V20.9111H168.737V53.5234Z" fill="black"/>
<path d="M178.024 9.6084V20.9111H168.737V53.5234H172.347V64.8252H139.838V53.5234H143.645V37.1562C143.645 31.7664 143.473 28.2107 143.129 26.4902C142.785 24.7535 141.761 23.2949 140.057 22.1152C138.648 21.1268 136.675 20.5475 134.137 20.376V9.6084H178.024ZM161.045 53.5234V27.7432H166.722V20.9111H145.438V27.7432H151.141V53.5234H161.045Z" fill="black"/>
<path d="M132.463 9.01855C136.82 9.01857 142.052 9.73429 146.489 12.8223C149.302 14.7697 151.741 17.4658 153.185 20.9111H145.438V27.7432H151.141V53.5234H154.947V64.8252H132.943C131.339 65.2408 129.74 65.415 128.211 65.415C126.558 65.415 124.942 65.214 123.38 64.8252H122.685V64.6377C120.744 64.0783 118.894 63.2245 117.174 62.084L117.112 62.043L117.052 62.002C116.076 61.3364 115.233 60.5985 114.505 59.8145H119.216V45.6836H117.103V20.9111H111.803C113.63 16.7697 116.804 14.004 119.829 12.1943L120.209 11.9727C124.15 9.73057 128.475 9.01855 132.463 9.01855ZM112.581 53.5234V57.2324C111.864 56.0208 111.34 54.7627 110.957 53.5234H112.581ZM132.463 20.3213C129.661 20.3213 127.384 20.8451 125.631 21.8936C123.878 22.9421 122.706 24.155 122.116 25.5312C121.543 26.8911 121.256 28.8325 121.256 31.3555V33.543H130.57V30.127C130.57 28.3084 130.653 27.1857 130.816 26.7598C130.98 26.3177 131.398 26.0967 132.069 26.0967C132.659 26.0967 133.077 26.3585 133.323 26.8828C133.585 27.3907 133.716 28.4972 133.716 30.2012C133.716 31.5608 133.601 32.462 133.372 32.9043C133.142 33.3467 131.398 34.2066 128.138 35.4844C125.09 36.664 123.181 37.6963 122.411 38.5811C121.641 39.4658 121.256 41.1291 121.256 43.5703V46.249C121.256 49.5422 121.977 51.6801 123.419 52.6631C124.877 53.6297 126.474 54.1133 128.211 54.1133C129.538 54.1133 130.677 53.8263 131.627 53.2529C132.594 52.6631 133.38 51.7863 133.986 50.623V53.5234H143.645V37.1562C143.645 31.7664 143.473 28.2107 143.129 26.4902C142.785 24.7535 141.761 23.2949 140.057 22.1152C138.353 20.9192 135.822 20.3213 132.463 20.3213ZM133.716 44.7256C133.716 46.3637 133.617 47.3793 133.421 47.7725C133.241 48.1493 132.839 48.3379 132.217 48.3379C131.562 48.3378 131.119 48.0921 130.89 47.6006C130.677 47.109 130.57 46.0195 130.57 44.332C130.57 42.8575 130.694 41.7269 130.939 40.9404C131.202 40.154 132.127 39.1788 133.716 38.0156V44.7256Z" fill="black"/>
<path d="M128.405 9.6084V20.7754C127.368 21.0361 126.443 21.4078 125.631 21.8936C123.878 22.9421 122.706 24.155 122.116 25.5312C121.543 26.8911 121.256 28.8325 121.256 31.3555V33.543H128.405V34.3818H130.519V34.5078C129.843 34.8001 129.05 35.1267 128.138 35.4844C125.09 36.664 123.181 37.6963 122.411 38.5811C121.641 39.4658 121.256 41.1291 121.256 43.5703V46.249C121.256 49.5422 121.977 51.6801 123.419 52.6631C124.877 53.6297 126.474 54.1133 128.211 54.1133C129.057 54.1133 129.826 53.9956 130.519 53.7627V71.1172H77.9316V53.3818C78.9436 53.2683 79.9011 53.0877 80.8037 52.835C82.4421 52.3762 83.7282 51.6308 84.6621 50.5986C85.6122 49.5502 86.2514 48.5266 86.5791 47.5273C86.9068 46.5116 87.0703 44.8892 87.0703 42.6611C87.0703 40.6461 86.702 39.1632 85.9648 38.2129C85.2276 37.2627 84.0808 36.5413 82.5244 36.0498C84.0971 35.5419 85.1788 34.8125 85.7686 33.8623C86.3582 32.8957 86.6533 31.4295 86.6533 29.4639C86.6533 26.792 85.8879 24.7611 84.3613 23.3682C84.3665 22.9575 84.3701 22.5398 84.3701 22.1152V9.6084H128.405ZM107.248 28.2588V45.6836H101.718C103.684 40.3588 104.667 34.6655 104.667 28.6035V28.2588H107.248ZM95.8691 59.8145V53.5234H112.581V59.8145H119.216V45.6836H117.103V20.9111H95.6719V22.1152C95.6719 27.7021 95.2625 32.5517 94.4434 36.6641C93.6406 40.76 92.6082 43.7827 91.3467 45.7324H89.2334V59.8145H95.8691Z" fill="black"/>
<path d="M75.5449 9.6084C80.1777 9.60844 85.7325 10.3738 90.3525 13.6973L90.7969 14.0264L91.2881 14.416C93.581 16.2979 95.1754 18.5357 96.2295 20.9111H95.6719V22.1152C95.6719 27.7021 95.2625 32.5517 94.4434 36.6641C93.6406 40.76 92.6082 43.7827 91.3467 45.7324H89.2334V59.8145H91.3535C89.0512 61.7683 86.4299 62.9968 83.8516 63.7188C81.066 64.4987 78.202 64.8252 75.3477 64.8252C70.5413 64.8252 63.9319 64.0115 59.084 59.2637C57.2891 57.5058 56.0393 55.493 55.1729 53.4131C55.3048 53.3696 55.4358 53.3249 55.5645 53.2773C57.0879 52.7039 58.3332 51.8279 59.2998 50.6484C60.2664 49.4525 60.8974 48.1742 61.1924 46.8145C61.4873 45.4382 61.6348 43.2833 61.6348 40.3506V32.3633C61.6348 30.0532 61.4703 28.3326 61.1426 27.2021C60.8313 26.0718 60.2413 24.974 59.373 23.9092C58.5047 22.8443 57.2676 21.9844 55.6621 21.3291C55.4544 21.2413 55.2411 21.1593 55.0225 21.083C56.0021 18.7396 57.4936 16.4733 59.7256 14.5459L60.1807 14.166C64.9267 10.3391 70.9191 9.6084 75.5449 9.6084ZM96.2891 53.5234C96.1541 53.7904 96.0137 54.0513 95.8691 54.3066V53.5234H96.2891ZM75.5449 20.9111C71.6127 20.9111 68.8028 21.6405 67.1152 23.0986C65.4441 24.5404 64.6084 26.9813 64.6084 30.4219V31.8721H74.0205V29.2178C74.0205 27.776 74.6274 27.0547 75.8398 27.0547C76.413 27.0548 76.8468 27.2436 77.1416 27.6201C77.4529 27.9969 77.6094 28.8818 77.6094 30.2744V30.9629C77.6093 31.9127 77.4697 32.5923 77.1914 33.002C76.9293 33.3951 76.5851 33.6248 76.1592 33.6904C75.7332 33.756 74.8233 33.7891 73.4307 33.7891H72.6689V38.4336C74.6842 38.4336 76.0114 38.6142 76.6504 38.9746C77.2893 39.3351 77.6094 39.9902 77.6094 40.9404V43.0049C77.6094 44.9873 77.4449 46.2163 77.1172 46.6914C76.8059 47.15 76.3473 47.3799 75.7412 47.3799C74.5943 47.3799 74.0205 46.5602 74.0205 44.9219V40.3262H64.6084V42.71C64.6084 46.8059 65.403 49.632 66.9922 51.1885C68.5814 52.7449 71.3665 53.5234 75.3477 53.5234C77.3465 53.5234 79.1653 53.2937 80.8037 52.835C82.4421 52.3762 83.7282 51.6308 84.6621 50.5986C85.6122 49.5502 86.2514 48.5266 86.5791 47.5273C86.9068 46.5116 87.0703 44.8892 87.0703 42.6611C87.0703 40.6461 86.702 39.1632 85.9648 38.2129C85.2276 37.2627 84.0808 36.5413 82.5244 36.0498C84.0971 35.5419 85.1788 34.8125 85.7686 33.8623C86.3582 32.8957 86.6533 31.4295 86.6533 29.4639C86.6533 26.5475 85.7434 24.3926 83.9248 23C82.1062 21.6074 79.313 20.9112 75.5449 20.9111ZM51.7061 38.1699L48.8057 37.2539V35.0605L51.7061 34.124V38.1699Z" fill="black"/>
<path d="M49.9365 9.01855C53.2118 9.01858 56.6485 9.50209 59.9326 10.8652L59.9336 10.8643C59.9616 10.8757 59.9895 10.8878 60.0176 10.8994C60.0325 10.9057 60.0476 10.9117 60.0625 10.918H60.0615C62.9264 12.1061 65.8308 13.9434 68.1328 16.7666C69.2355 18.1189 70.2213 19.6432 70.9951 21.3379C69.3514 21.6974 68.0582 22.2839 67.1152 23.0986C65.4441 24.5404 64.6084 26.9813 64.6084 30.4219V31.8721H72.9326C72.9339 32.0376 72.9365 32.2014 72.9365 32.3633V33.7891H72.6689V38.4336C72.7595 38.4336 72.8488 38.4358 72.9365 38.4365V40.3262H64.6084V42.71C64.6084 46.8059 65.403 49.632 66.9922 51.1885C67.912 52.0893 69.233 52.727 70.9541 53.1064C70.1971 54.7969 69.2239 56.3487 68.0898 57.752L68.0664 57.7822L68.042 57.8115C65.7308 60.632 62.7982 62.6311 59.5449 63.8555L59.4824 63.8789C56.4759 64.99 53.3686 65.415 50.3545 65.415C47.4141 65.415 44.3465 65.1057 41.4111 64.1904L41.3057 64.1572C38.313 63.1919 35.2188 61.5077 32.7324 58.6865L32.666 58.6104L32.6006 58.5332C31.2236 56.9132 30.1721 55.1373 29.4043 53.2803C29.9705 53.0344 30.5072 52.748 31.0127 52.418C33.0115 51.1236 34.2977 49.6158 34.8711 47.8955C35.4609 46.1752 35.7559 43.2589 35.7559 39.1465V37.5977H27.5752V33.0762C27.5752 32.4222 27.5869 31.7574 27.6143 31.0859H35.7559V27.3008C35.7559 23.5819 35.4448 20.8459 34.8223 19.0928C34.4306 17.9797 33.7695 16.9832 32.8398 16.1035C34.2028 14.5644 35.7934 13.262 37.543 12.2021C41.507 9.80087 45.884 9.01855 49.9365 9.01855ZM49.9365 20.3213C47.2825 20.3213 45.1033 20.8371 43.3994 21.8691C41.6955 22.9013 40.5157 24.2697 39.8604 25.9736C39.205 27.6776 38.877 30.0451 38.877 33.0762V41.4316C38.877 44.2005 39.0575 46.2822 39.418 47.6748C39.7784 49.0508 40.3765 50.23 41.2119 51.2129C42.0639 52.1795 43.2517 52.9089 44.7754 53.4004C46.2991 53.8755 48.159 54.1133 50.3545 54.1133C52.3204 54.1132 54.0572 53.8344 55.5645 53.2773C57.0879 52.7039 58.3332 51.8279 59.2998 50.6484C60.2664 49.4525 60.8974 48.1742 61.1924 46.8145C61.4873 45.4382 61.6348 43.2833 61.6348 40.3506V32.3633C61.6348 30.0532 61.4703 28.3326 61.1426 27.2021C60.8313 26.0718 60.2413 24.974 59.373 23.9092C58.5047 22.8443 57.2676 21.9844 55.6621 21.3291C54.073 20.6574 52.1645 20.3213 49.9365 20.3213ZM50.2803 26.0967C50.87 26.0967 51.2553 26.3176 51.4355 26.7598C51.6158 27.1858 51.7061 28.2351 51.7061 29.9062V44.9463C51.7061 46.3553 51.6077 47.2732 51.4111 47.6992C51.2309 48.1251 50.8456 48.3379 50.2559 48.3379C49.6824 48.3379 49.2972 48.1082 49.1006 47.6494C48.9041 47.1741 48.8057 46.1667 48.8057 44.627V29.9062C48.8057 28.2351 48.904 27.1858 49.1006 26.7598C49.2972 26.3176 49.6906 26.0967 50.2803 26.0967ZM50.1797 37.0371V37.3955C50.214 37.3959 50.2475 37.3984 50.2803 37.3984C50.2973 37.3984 50.3146 37.3966 50.332 37.3965V37.0371C50.3146 37.037 50.2974 37.0362 50.2803 37.0361H50.2559C50.231 37.0361 50.2055 37.0369 50.1797 37.0371Z" fill="black"/>
<path d="M23.3691 1.59668C27.6769 1.59668 32.1958 2.401 36.2979 4.72656L36.6943 4.95605L37.3867 5.38379C40.8192 7.58891 43.8842 10.8234 45.4717 15.3096C46.0618 16.9713 46.4413 18.777 46.6816 20.626C45.4407 20.8808 44.3467 21.2954 43.3994 21.8691C41.6955 22.9013 40.5157 24.2697 39.8604 25.9736C39.205 27.6776 38.877 30.0451 38.877 33.0762V41.4316C38.877 44.2005 39.0575 46.2822 39.418 47.6748C39.7784 49.0508 40.3765 50.23 41.2119 51.2129C42.0639 52.1795 43.2517 52.9089 44.7754 53.4004C44.7889 53.4046 44.8028 53.4079 44.8164 53.4121C43.0401 57.2128 40.1426 59.9705 37.1562 61.9043L37.1553 61.9033C32.9588 64.6317 28.251 65.6611 23.6641 65.6611C19.3458 65.6611 14.7923 64.8886 10.6592 62.5811C6.50601 60.2622 3.15399 56.6254 1.53027 51.7129L1.52539 51.6992L1.52148 51.6855C0.311362 47.9931 1.88698e-05 43.6146 0 39.3926V27.7676C2.75568e-06 24.7847 0.0949902 22.0054 0.401367 19.7842H0.402344C0.884913 16.2692 2.28557 13.1595 4.20703 10.5215L4.2334 10.4844L4.26074 10.4482C6.55987 7.34443 9.56015 5.15839 12.8164 3.72363V3.72168C16.2333 2.2067 19.8293 1.59672 23.3691 1.59668ZM23.3691 12.8994C21.1247 12.8995 19.1341 13.2847 17.3975 14.0547C15.6772 14.8083 14.3258 15.8487 13.3428 17.1758C12.3762 18.5029 11.7943 19.8873 11.5977 21.3291C11.4011 22.7545 11.3027 24.9006 11.3027 27.7676V39.3926C11.3028 43.2918 11.6218 46.2164 12.2607 48.166C12.8997 50.0993 14.2029 51.6152 16.1689 52.7129C18.1349 53.8104 20.6334 54.3593 23.6641 54.3594C26.5803 54.3594 29.0303 53.7122 31.0127 52.418C33.0115 51.1236 34.2977 49.6158 34.8711 47.8955C35.4609 46.1752 35.7559 43.2589 35.7559 39.1465V37.5977H25.4092V42.5869C25.4092 44.7656 25.2867 46.1502 25.041 46.7402C24.8117 47.33 24.3118 47.6249 23.542 47.625C22.7392 47.625 22.2225 47.3301 21.9932 46.7402C21.7639 46.1504 21.6494 44.889 21.6494 42.9561V24.4746C21.6494 22.4594 21.7638 21.1482 21.9932 20.542C22.2226 19.936 22.7634 19.6328 23.6152 19.6328C24.3688 19.6328 24.8524 19.8868 25.0654 20.3945C25.2948 20.8861 25.4092 22.14 25.4092 24.1553V31.0859H35.7559V27.3008C35.7559 23.5819 35.4448 20.8459 34.8223 19.0928C34.1997 17.3233 32.8965 15.8486 30.9141 14.6689C28.9316 13.4893 26.4165 12.8994 23.3691 12.8994Z" fill="black"/>
</svg>
