<svg width="114" height="53" viewBox="0 0 114 53" fill="none" xmlns="http://www.w3.org/2000/svg">
<mask id="path-1-outside-1_208_656" maskUnits="userSpaceOnUse" x="-0.482422" y="-0.463379" width="115" height="54" fill="black">
<rect fill="white" x="-0.482422" y="-0.463379" width="115" height="54"/>
<path d="M31.0971 22.4393V28.893C31.0971 31.2626 30.978 33.0035 30.7397 34.1155C30.5014 35.2143 29.9917 36.2469 29.2107 37.2133C28.4296 38.1664 27.4235 38.8747 26.1923 39.338C24.9744 39.7882 23.5711 40.0132 21.9825 40.0132C20.2086 40.0132 18.706 39.8212 17.4748 39.4373C16.2437 39.0402 15.2839 38.4511 14.5955 37.67C13.9203 36.8757 13.4371 35.9225 13.1459 34.8105C12.8547 33.6853 12.709 32.004 12.709 29.7667V23.0151C12.709 20.566 12.9738 18.6531 13.5033 17.2763C14.0329 15.8995 14.986 14.7941 16.3628 13.9601C17.7396 13.1261 19.5003 12.7091 21.6449 12.7091C23.4454 12.7091 24.9876 12.9804 26.2717 13.5232C27.5691 14.0527 28.5686 14.7478 29.2702 15.6083C29.9719 16.4688 30.4485 17.3557 30.7 18.2692C30.9648 19.1826 31.0971 20.5726 31.0971 22.4393ZM23.0747 20.4535C23.0747 19.1032 23.0019 18.2559 22.8562 17.9117C22.7106 17.5543 22.3995 17.3756 21.9229 17.3756C21.4464 17.3756 21.1286 17.5543 20.9698 17.9117C20.8109 18.2559 20.7315 19.1032 20.7315 20.4535V32.3482C20.7315 33.5926 20.8109 34.4068 20.9698 34.7907C21.1286 35.1613 21.4397 35.3467 21.9031 35.3467C22.3797 35.3467 22.6908 35.1746 22.8364 34.8304C22.9952 34.4862 23.0747 33.7448 23.0747 32.6063V20.4535ZM59.7715 39.5366H51.7887V29.8263H48.9094V39.5366H40.9465V13.1856H48.9094V22.6577H51.7887V13.1856H59.7715V39.5366ZM69.7995 23.3924H62.2735V21.6251C62.2735 19.5864 62.5052 18.0176 62.9685 16.9189C63.4451 15.8068 64.3917 14.8272 65.8082 13.9799C67.2247 13.1327 69.0648 12.7091 71.3286 12.7091C74.0424 12.7091 76.0878 13.1923 77.4645 14.1587C78.8413 15.1118 79.6687 16.29 79.9467 17.6933C80.2247 19.0833 80.3638 21.9561 80.3638 26.3115V39.5366H72.5597V37.1934C72.0699 38.1334 71.4345 38.8416 70.6534 39.3182C69.8856 39.7815 68.9655 40.0132 67.8932 40.0132C66.4899 40.0132 65.1992 39.6227 64.021 38.8416C62.856 38.0473 62.2735 36.3197 62.2735 33.6588V31.4943C62.2735 29.5218 62.5846 28.1781 63.2068 27.4632C63.829 26.7484 65.3713 25.9143 67.8336 24.9612C70.4681 23.9286 71.878 23.2336 72.0633 22.8761C72.2486 22.5187 72.3413 21.7906 72.3413 20.6918C72.3413 19.315 72.2354 18.4214 72.0236 18.011C71.825 17.5874 71.4874 17.3756 71.0108 17.3756C70.4681 17.3756 70.1305 17.5543 69.9981 17.9117C69.8657 18.2559 69.7995 19.1628 69.7995 20.6322V23.3924ZM72.3413 27.0065C71.0572 27.9464 70.3092 28.7341 70.0974 29.3695C69.8988 30.005 69.7995 30.9184 69.7995 32.1099C69.7995 33.4734 69.8856 34.3538 70.0577 34.7509C70.243 35.1481 70.6004 35.3467 71.13 35.3467C71.633 35.3467 71.9574 35.1944 72.103 34.89C72.2619 34.5722 72.3413 33.7515 72.3413 32.4276V27.0065ZM100.857 23.1343H93.291V20.0961C93.291 19.037 93.205 18.3221 93.0329 17.9515C92.8608 17.5675 92.5431 17.3756 92.0797 17.3756C91.6164 17.3756 91.3053 17.5411 91.1464 17.872C90.9875 18.203 90.9081 18.9443 90.9081 20.0961V32.5269C90.9081 33.4668 91.0273 34.1751 91.2656 34.6517C91.5038 35.115 91.8547 35.3467 92.318 35.3467C92.8608 35.3467 93.2248 35.1018 93.4102 34.6119C93.6087 34.1221 93.708 33.1954 93.708 31.8319V28.6944H100.857C100.844 30.7993 100.764 32.3813 100.618 33.4403C100.486 34.4862 100.043 35.5651 99.288 36.6771C98.5467 37.7759 97.5736 38.6099 96.3689 39.1792C95.1643 39.7352 93.6749 40.0132 91.901 40.0132C89.6372 40.0132 87.8434 39.6293 86.5196 38.8615C85.1958 38.0804 84.2558 36.9949 83.6998 35.6048C83.157 34.2016 82.8857 32.2158 82.8857 29.6476V22.1613C82.8857 19.924 83.1107 18.2361 83.5608 17.0976C84.0109 15.9591 84.9707 14.9463 86.4402 14.0594C87.9096 13.1592 89.6968 12.7091 91.8017 12.7091C93.8934 12.7091 95.6805 13.1525 97.1632 14.0395C98.6459 14.9265 99.6322 16.0451 100.122 17.3954C100.612 18.7458 100.857 20.6587 100.857 23.1343Z"/>
</mask>
<path d="M31.0971 22.4393V28.893C31.0971 31.2626 30.978 33.0035 30.7397 34.1155C30.5014 35.2143 29.9917 36.2469 29.2107 37.2133C28.4296 38.1664 27.4235 38.8747 26.1923 39.338C24.9744 39.7882 23.5711 40.0132 21.9825 40.0132C20.2086 40.0132 18.706 39.8212 17.4748 39.4373C16.2437 39.0402 15.2839 38.4511 14.5955 37.67C13.9203 36.8757 13.4371 35.9225 13.1459 34.8105C12.8547 33.6853 12.709 32.004 12.709 29.7667V23.0151C12.709 20.566 12.9738 18.6531 13.5033 17.2763C14.0329 15.8995 14.986 14.7941 16.3628 13.9601C17.7396 13.1261 19.5003 12.7091 21.6449 12.7091C23.4454 12.7091 24.9876 12.9804 26.2717 13.5232C27.5691 14.0527 28.5686 14.7478 29.2702 15.6083C29.9719 16.4688 30.4485 17.3557 30.7 18.2692C30.9648 19.1826 31.0971 20.5726 31.0971 22.4393ZM23.0747 20.4535C23.0747 19.1032 23.0019 18.2559 22.8562 17.9117C22.7106 17.5543 22.3995 17.3756 21.9229 17.3756C21.4464 17.3756 21.1286 17.5543 20.9698 17.9117C20.8109 18.2559 20.7315 19.1032 20.7315 20.4535V32.3482C20.7315 33.5926 20.8109 34.4068 20.9698 34.7907C21.1286 35.1613 21.4397 35.3467 21.9031 35.3467C22.3797 35.3467 22.6908 35.1746 22.8364 34.8304C22.9952 34.4862 23.0747 33.7448 23.0747 32.6063V20.4535ZM59.7715 39.5366H51.7887V29.8263H48.9094V39.5366H40.9465V13.1856H48.9094V22.6577H51.7887V13.1856H59.7715V39.5366ZM69.7995 23.3924H62.2735V21.6251C62.2735 19.5864 62.5052 18.0176 62.9685 16.9189C63.4451 15.8068 64.3917 14.8272 65.8082 13.9799C67.2247 13.1327 69.0648 12.7091 71.3286 12.7091C74.0424 12.7091 76.0878 13.1923 77.4645 14.1587C78.8413 15.1118 79.6687 16.29 79.9467 17.6933C80.2247 19.0833 80.3638 21.9561 80.3638 26.3115V39.5366H72.5597V37.1934C72.0699 38.1334 71.4345 38.8416 70.6534 39.3182C69.8856 39.7815 68.9655 40.0132 67.8932 40.0132C66.4899 40.0132 65.1992 39.6227 64.021 38.8416C62.856 38.0473 62.2735 36.3197 62.2735 33.6588V31.4943C62.2735 29.5218 62.5846 28.1781 63.2068 27.4632C63.829 26.7484 65.3713 25.9143 67.8336 24.9612C70.4681 23.9286 71.878 23.2336 72.0633 22.8761C72.2486 22.5187 72.3413 21.7906 72.3413 20.6918C72.3413 19.315 72.2354 18.4214 72.0236 18.011C71.825 17.5874 71.4874 17.3756 71.0108 17.3756C70.4681 17.3756 70.1305 17.5543 69.9981 17.9117C69.8657 18.2559 69.7995 19.1628 69.7995 20.6322V23.3924ZM72.3413 27.0065C71.0572 27.9464 70.3092 28.7341 70.0974 29.3695C69.8988 30.005 69.7995 30.9184 69.7995 32.1099C69.7995 33.4734 69.8856 34.3538 70.0577 34.7509C70.243 35.1481 70.6004 35.3467 71.13 35.3467C71.633 35.3467 71.9574 35.1944 72.103 34.89C72.2619 34.5722 72.3413 33.7515 72.3413 32.4276V27.0065ZM100.857 23.1343H93.291V20.0961C93.291 19.037 93.205 18.3221 93.0329 17.9515C92.8608 17.5675 92.5431 17.3756 92.0797 17.3756C91.6164 17.3756 91.3053 17.5411 91.1464 17.872C90.9875 18.203 90.9081 18.9443 90.9081 20.0961V32.5269C90.9081 33.4668 91.0273 34.1751 91.2656 34.6517C91.5038 35.115 91.8547 35.3467 92.318 35.3467C92.8608 35.3467 93.2248 35.1018 93.4102 34.6119C93.6087 34.1221 93.708 33.1954 93.708 31.8319V28.6944H100.857C100.844 30.7993 100.764 32.3813 100.618 33.4403C100.486 34.4862 100.043 35.5651 99.288 36.6771C98.5467 37.7759 97.5736 38.6099 96.3689 39.1792C95.1643 39.7352 93.6749 40.0132 91.901 40.0132C89.6372 40.0132 87.8434 39.6293 86.5196 38.8615C85.1958 38.0804 84.2558 36.9949 83.6998 35.6048C83.157 34.2016 82.8857 32.2158 82.8857 29.6476V22.1613C82.8857 19.924 83.1107 18.2361 83.5608 17.0976C84.0109 15.9591 84.9707 14.9463 86.4402 14.0594C87.9096 13.1592 89.6968 12.7091 91.8017 12.7091C93.8934 12.7091 95.6805 13.1525 97.1632 14.0395C98.6459 14.9265 99.6322 16.0451 100.122 17.3954C100.612 18.7458 100.857 20.6587 100.857 23.1343Z" fill="#FF00A0"/>
<path d="M30.7397 34.1155L43.1598 36.809L43.1631 36.7937L43.1664 36.7784L30.7397 34.1155ZM29.2107 37.2133L39.0407 45.2684L39.0679 45.2352L39.0949 45.2019L29.2107 37.2133ZM26.1923 39.338L30.5978 51.2589L30.6333 51.2458L30.6687 51.2324L26.1923 39.338ZM17.4748 39.4373L13.5732 51.5324L13.6323 51.5515L13.6915 51.57L17.4748 39.4373ZM14.5955 37.67L4.91214 45.9009L4.9859 45.9877L5.06122 46.0731L14.5955 37.67ZM13.1459 34.8105L0.842479 37.9949L0.847073 38.0127L0.851719 38.0304L13.1459 34.8105ZM26.2717 13.5232L21.3238 25.2293L21.3963 25.2599L21.4691 25.2897L26.2717 13.5232ZM30.7 18.2692L18.4472 21.6431L18.4698 21.7254L18.4936 21.8073L30.7 18.2692ZM22.8562 17.9117L11.0867 22.7067L11.1187 22.7854L11.1518 22.8636L22.8562 17.9117ZM20.9698 17.9117L32.5089 23.2375L32.5467 23.1556L32.5833 23.0733L20.9698 17.9117ZM20.9698 34.7907L9.2266 39.6499L9.25709 39.7236L9.28851 39.7969L20.9698 34.7907ZM22.8364 34.8304L11.2973 29.5046L11.2116 29.6902L11.132 29.8785L22.8364 34.8304ZM31.0971 22.4393H18.3883V28.893H31.0971H43.806V22.4393H31.0971ZM31.0971 28.893H18.3883C18.3883 29.883 18.3628 30.6076 18.3286 31.1081C18.291 31.6573 18.2573 31.7122 18.313 31.4526L30.7397 34.1155L43.1664 36.7784C43.7018 34.2801 43.806 31.4124 43.806 28.893H31.0971ZM30.7397 34.1155L18.3196 31.422C18.5444 30.3852 18.9936 29.6365 19.3265 29.2247L29.2107 37.2133L39.0949 45.2019C40.9898 42.8572 42.4584 40.0434 43.1598 36.809L30.7397 34.1155ZM29.2107 37.2133L19.3807 29.1581C20.1115 28.2663 21.0023 27.7122 21.7159 27.4437L26.1923 39.338L30.6687 51.2324C33.8447 50.0372 36.7477 48.0666 39.0407 45.2684L29.2107 37.2133ZM26.1923 39.338L21.7868 27.4172C22.0221 27.3303 22.1753 27.3021 22.2139 27.2959C22.2501 27.2901 22.1802 27.3044 21.9825 27.3044V40.0132V52.722C24.7497 52.722 27.6939 52.3321 30.5978 51.2589L26.1923 39.338ZM21.9825 40.0132V27.3044C21.5455 27.3044 21.2717 27.2802 21.1356 27.2629C20.9973 27.2452 21.0548 27.2413 21.2581 27.3047L17.4748 39.4373L13.6915 51.57C16.5102 52.4489 19.3708 52.722 21.9825 52.722V40.0132ZM17.4748 39.4373L21.3765 27.3422C21.797 27.4779 22.9803 27.9627 24.1298 29.2669L14.5955 37.67L5.06122 46.0731C7.58748 48.9394 10.6903 50.6025 13.5732 51.5324L17.4748 39.4373ZM14.5955 37.67L24.2789 29.4391C24.9612 30.2419 25.2983 31.0494 25.4401 31.5906L13.1459 34.8105L0.851719 38.0304C1.57597 40.7957 2.87944 43.5095 4.91214 45.9009L14.5955 37.67ZM13.1459 34.8105L25.4493 31.6261C25.5405 31.9785 25.5162 32.03 25.4797 31.609C25.4467 31.2282 25.4179 30.6292 25.4179 29.7667H12.709H0.00019154C0.00019154 32.2826 0.137085 35.2696 0.842479 37.9949L13.1459 34.8105ZM12.709 29.7667H25.4179V23.0151H12.709H0.00019154V29.7667H12.709ZM12.709 23.0151H25.4179C25.4179 22.2269 25.4618 21.7362 25.4964 21.486C25.5338 21.2159 25.5381 21.3886 25.3651 21.8385L13.5033 17.2763L1.64159 12.7141C0.302617 16.1954 0.00019154 19.898 0.00019154 23.0151H12.709ZM13.5033 17.2763L25.3651 21.8385C25.1105 22.5004 24.729 23.147 24.2402 23.7139C23.76 24.2708 23.2847 24.6258 22.9475 24.8301L16.3628 13.9601L9.77813 3.0901C6.2253 5.24229 3.27622 8.46405 1.64159 12.7141L13.5033 17.2763ZM16.3628 13.9601L22.9475 24.8301C21.7829 25.5355 21.0727 25.4179 21.6449 25.4179V12.7091V0.000213005C17.928 0.000213005 13.6963 0.716583 9.77813 3.0901L16.3628 13.9601ZM21.6449 12.7091V25.4179C21.9138 25.4179 22.0038 25.4387 21.9495 25.4291C21.8916 25.4189 21.6638 25.373 21.3238 25.2293L26.2717 13.5232L31.2197 1.81712C27.9856 0.450158 24.6713 0.000213005 21.6449 0.000213005V12.7091ZM26.2717 13.5232L21.4691 25.2897C21.3039 25.2222 20.3698 24.8035 19.4207 23.6395L29.2702 15.6083L39.1198 7.57705C36.7674 4.69202 33.8343 2.88328 31.0744 1.75676L26.2717 13.5232ZM29.2702 15.6083L19.4207 23.6395C19.196 23.364 18.7381 22.6996 18.4472 21.6431L30.7 18.2692L42.9528 14.8952C42.1588 12.0119 40.7477 9.57352 39.1198 7.57705L29.2702 15.6083ZM30.7 18.2692L18.4936 21.8073C18.4027 21.4938 18.3629 21.2795 18.3497 21.2029C18.3355 21.1207 18.338 21.1145 18.3463 21.2017C18.3641 21.3889 18.3883 21.7837 18.3883 22.4393H31.0971H43.806C43.806 20.2925 43.6884 17.429 42.9064 14.7311L30.7 18.2692ZM23.0747 20.4535H35.7835C35.7835 19.5991 35.7623 18.6486 35.6822 17.7172C35.6397 17.2216 35.4855 15.1459 34.5607 12.9599L22.8562 17.9117L11.1518 22.8636C10.8912 22.2475 10.7335 21.7295 10.6414 21.39C10.5458 21.0373 10.4868 20.7495 10.4513 20.556C10.3831 20.1836 10.3617 19.9379 10.3579 19.8935C10.3507 19.8093 10.3658 19.9575 10.3658 20.4535H23.0747ZM22.8562 17.9117L34.6258 13.1167C33.5707 10.527 31.6473 8.09995 28.8443 6.48971C26.231 4.98847 23.677 4.66674 21.9229 4.66674V17.3756V30.0844C20.6455 30.0844 18.4853 29.8521 16.1831 28.5295C13.6912 27.098 11.9961 24.939 11.0867 22.7067L22.8562 17.9117ZM21.9229 17.3756V4.66674C20.1536 4.66674 17.6547 4.99397 15.0966 6.4329C12.3752 7.96368 10.4605 10.2656 9.35629 12.7502L20.9698 17.9117L32.5833 23.0733C31.6379 25.2004 29.9615 27.2343 27.5579 28.5863C25.3175 29.8466 23.2157 30.0844 21.9229 30.0844V17.3756ZM20.9698 17.9117L9.43067 12.586C8.36665 14.8914 8.18652 17.0984 8.1377 17.6191C8.04613 18.5959 8.02265 19.5827 8.02265 20.4535H20.7315H33.4403C33.4403 19.974 33.4566 19.862 33.4444 19.9916C33.4381 20.0593 33.4106 20.3414 33.3276 20.7566C33.2844 20.9722 33.2139 21.287 33.1009 21.669C32.9916 22.0383 32.808 22.5894 32.5089 23.2375L20.9698 17.9117ZM20.7315 20.4535H8.02265V32.3482H20.7315H33.4403V20.4535H20.7315ZM20.7315 32.3482H8.02265C8.02265 33.1941 8.04769 34.1566 8.14227 35.1261C8.20986 35.8189 8.40275 37.659 9.2266 39.6499L20.9698 34.7907L32.713 29.9314C33.1012 30.8696 33.2659 31.6197 33.3302 31.9429C33.4044 32.3159 33.4316 32.574 33.4398 32.6581C33.455 32.8134 33.4403 32.7466 33.4403 32.3482H20.7315ZM20.9698 34.7907L9.28851 39.7969C10.2997 42.1564 12.0951 44.5038 14.8178 46.1259C17.4188 47.6754 20.0108 48.0555 21.9031 48.0555V35.3467V22.6378C23.332 22.6378 25.5368 22.9253 27.8267 24.2895C30.2383 25.7262 31.7987 27.7956 32.651 29.7844L20.9698 34.7907ZM21.9031 35.3467V48.0555C23.5888 48.0555 26.0741 47.7608 28.6457 46.3383C31.4239 44.8014 33.4207 42.4299 34.5408 39.7823L22.8364 34.8304L11.132 29.8785C12.1065 27.575 13.8749 25.4617 16.342 24.0969C18.6024 22.8465 20.6939 22.6378 21.9031 22.6378V35.3467ZM22.8364 34.8304L34.3755 40.1561C35.3564 38.0308 35.5783 36.0542 35.6516 35.3701C35.7576 34.3814 35.7835 33.4191 35.7835 32.6063H23.0747H10.3658C10.3658 32.932 10.3521 32.9097 10.3786 32.6623C10.3926 32.5315 10.4309 32.2125 10.5274 31.7729C10.6122 31.3863 10.8199 30.5389 11.2973 29.5046L22.8364 34.8304ZM23.0747 32.6063H35.7835V20.4535H23.0747H10.3658V32.6063H23.0747ZM59.7715 39.5366V52.2455H72.4803V39.5366H59.7715ZM51.7887 39.5366H39.0799V52.2455H51.7887V39.5366ZM51.7887 29.8263H64.4976V17.1174H51.7887V29.8263ZM48.9094 29.8263V17.1174H36.2005V29.8263H48.9094ZM48.9094 39.5366V52.2455H61.6182V39.5366H48.9094ZM40.9465 39.5366H28.2376V52.2455H40.9465V39.5366ZM40.9465 13.1856V0.476795H28.2376V13.1856H40.9465ZM48.9094 13.1856H61.6182V0.476795H48.9094V13.1856ZM48.9094 22.6577H36.2005V35.3665H48.9094V22.6577ZM51.7887 22.6577V35.3665H64.4976V22.6577H51.7887ZM51.7887 13.1856V0.476795H39.0799V13.1856H51.7887ZM59.7715 13.1856H72.4803V0.476795H59.7715V13.1856ZM59.7715 39.5366V26.8278H51.7887V39.5366V52.2455H59.7715V39.5366ZM51.7887 39.5366H64.4976V29.8263H51.7887H39.0799V39.5366H51.7887ZM51.7887 29.8263V17.1174H48.9094V29.8263V42.5351H51.7887V29.8263ZM48.9094 29.8263H36.2005V39.5366H48.9094H61.6182V29.8263H48.9094ZM48.9094 39.5366V26.8278H40.9465V39.5366V52.2455H48.9094V39.5366ZM40.9465 39.5366H53.6553V13.1856H40.9465H28.2376V39.5366H40.9465ZM40.9465 13.1856V25.8945H48.9094V13.1856V0.476795H40.9465V13.1856ZM48.9094 13.1856H36.2005V22.6577H48.9094H61.6182V13.1856H48.9094ZM48.9094 22.6577V35.3665H51.7887V22.6577V9.94885H48.9094V22.6577ZM51.7887 22.6577H64.4976V13.1856H51.7887H39.0799V22.6577H51.7887ZM51.7887 13.1856V25.8945H59.7715V13.1856V0.476795H51.7887V13.1856ZM59.7715 13.1856H47.0626V39.5366H59.7715H72.4803V13.1856H59.7715ZM69.7995 23.3924V36.1013H82.5084V23.3924H69.7995ZM62.2735 23.3924H49.5647V36.1013H62.2735V23.3924ZM62.9685 16.9189L51.2873 11.9126L51.2727 11.9467L51.2583 11.9808L62.9685 16.9189ZM77.4645 14.1587L70.1631 24.5607L70.1967 24.5844L70.2305 24.6078L77.4645 14.1587ZM79.9467 17.6933L67.4802 20.1631L67.4824 20.1744L67.4847 20.1857L79.9467 17.6933ZM80.3638 39.5366V52.2455H93.0726V39.5366H80.3638ZM72.5597 39.5366H59.8509V52.2455H72.5597V39.5366ZM72.5597 37.1934H85.2686L61.2894 31.3202L72.5597 37.1934ZM70.6534 39.3182L77.2196 50.1993L77.2463 50.1832L77.273 50.167L70.6534 39.3182ZM64.021 38.8416L56.8616 49.342L56.9299 49.3886L56.9989 49.4343L64.021 38.8416ZM63.2068 27.4632L53.6205 19.1196L63.2068 27.4632ZM67.8336 24.9612L72.4214 36.813L72.4465 36.8033L72.4714 36.7936L67.8336 24.9612ZM72.0236 18.011L60.5162 23.4051L60.6191 23.6245L60.7302 23.8398L72.0236 18.011ZM69.9981 17.9117L81.8598 22.4739L81.8883 22.4L81.9158 22.3257L69.9981 17.9117ZM72.3413 27.0065H85.0501V1.9546L64.8349 16.7513L72.3413 27.0065ZM70.0974 29.3695L58.0407 25.3507L58.0028 25.4644L57.9671 25.5788L70.0974 29.3695ZM70.0577 34.7509L58.3966 39.8041L58.4666 39.9657L58.5411 40.1253L70.0577 34.7509ZM72.103 34.89L60.7359 29.2064L60.686 29.3061L60.6379 29.4067L72.103 34.89ZM69.7995 23.3924V10.6836H62.2735V23.3924V36.1013H69.7995V23.3924ZM62.2735 23.3924H74.9824V21.6251H62.2735H49.5647V23.3924H62.2735ZM62.2735 21.6251H74.9824C74.9824 21.3534 74.9902 21.1468 74.9997 20.9987C75.0044 20.9256 75.0092 20.8706 75.0132 20.8325C75.0171 20.7943 75.0198 20.7761 75.0197 20.7762C75.0197 20.7762 75.0165 20.7983 75.0081 20.8402C74.9998 20.882 74.9855 20.948 74.9627 21.0353C74.9187 21.2043 74.8336 21.4898 74.6788 21.8569L62.9685 16.9189L51.2583 11.9808C49.8271 15.3747 49.5647 18.9242 49.5647 21.6251H62.2735ZM62.9685 16.9189L74.6498 21.9251C73.7486 24.0278 72.392 24.8507 72.3318 24.8867L65.8082 13.9799L59.2845 3.07321C56.3913 4.80373 53.1416 7.58583 51.2873 11.9126L62.9685 16.9189ZM65.8082 13.9799L72.3318 24.8867C71.75 25.2347 71.2926 25.3677 71.1018 25.4117C70.9237 25.4527 70.9731 25.4179 71.3286 25.4179V12.7091V0.000213005C67.5869 0.000213005 63.2739 0.687024 59.2845 3.07321L65.8082 13.9799ZM71.3286 12.7091V25.4179C71.9704 25.4179 72.1411 25.4788 71.976 25.4398C71.805 25.3994 71.0808 25.2049 70.1631 24.5607L77.4645 14.1587L84.766 3.75657C80.3009 0.622405 75.1874 0.000213005 71.3286 0.000213005V12.7091ZM77.4645 14.1587L70.2305 24.6078C69.8837 24.3676 69.2932 23.8811 68.7172 23.0609C68.1196 22.2099 67.6877 21.2106 67.4802 20.1631L79.9467 17.6933L92.4133 15.2235C91.3851 10.0337 88.2928 6.19785 84.6985 3.70955L77.4645 14.1587ZM79.9467 17.6933L67.4847 20.1857C67.4297 19.9106 67.5022 20.1958 67.5655 21.5046C67.6215 22.6612 67.6549 24.2462 67.6549 26.3115H80.3638H93.0726C93.0726 22.194 92.9762 18.0382 92.4088 15.2009L79.9467 17.6933ZM80.3638 26.3115H67.6549V39.5366H80.3638H93.0726V26.3115H80.3638ZM80.3638 39.5366V26.8278H72.5597V39.5366V52.2455H80.3638V39.5366ZM72.5597 39.5366H85.2686V37.1934H72.5597H59.8509V39.5366H72.5597ZM72.5597 37.1934L61.2894 31.3202C61.6964 30.5393 62.5457 29.3774 64.0338 28.4694L70.6534 39.3182L77.273 50.167C80.3232 48.3058 82.4434 45.7274 83.83 43.0667L72.5597 37.1934ZM70.6534 39.3182L64.0872 28.437C65.6577 27.4893 67.1069 27.3044 67.8932 27.3044V40.0132V52.722C70.8241 52.722 74.1134 52.0738 77.2196 50.1993L70.6534 39.3182ZM67.8932 40.0132V27.3044C68.3875 27.3044 68.9573 27.3758 69.5532 27.5561C70.1483 27.7361 70.6507 27.9888 71.0431 28.2489L64.021 38.8416L56.9989 49.4343C60.2426 51.5846 63.9726 52.722 67.8932 52.722V40.0132ZM64.021 38.8416L71.1803 28.3412C73.475 29.9057 74.4208 31.9042 74.7531 32.8898C75.0554 33.7862 74.9824 34.1837 74.9824 33.6588H62.2735H49.5647C49.5647 36.9808 50.0736 44.7138 56.8616 49.342L64.021 38.8416ZM62.2735 33.6588H74.9824V31.4943H62.2735H49.5647V33.6588H62.2735ZM62.2735 31.4943H74.9824C74.9824 31.0976 75.0211 31.2994 74.8882 31.8738C74.7732 32.3702 74.3285 34.0429 72.7932 35.8069L63.2068 27.4632L53.6205 19.1196C49.7083 23.6144 49.5647 29.2224 49.5647 31.4943H62.2735ZM63.2068 27.4632L72.7932 35.8069C72.4268 36.2278 72.0937 36.5428 71.8455 36.7597C71.5944 36.9792 71.3845 37.1378 71.2418 37.2399C70.9697 37.4347 70.82 37.5105 70.8754 37.4805C70.9183 37.4574 71.0629 37.3823 71.3387 37.2593C71.6097 37.1383 71.9664 36.9892 72.4214 36.813L67.8336 24.9612L63.2458 13.1093C61.7378 13.693 60.1987 14.358 58.7849 15.1226C57.6132 15.7562 55.4521 17.0151 53.6205 19.1196L63.2068 27.4632ZM67.8336 24.9612L72.4714 36.7936C73.9039 36.2321 75.3029 35.6478 76.4861 35.0645C77.0534 34.7849 77.861 34.3648 78.6934 33.8156C79.1098 33.5409 79.7453 33.0952 80.4329 32.4771C80.9977 31.9693 82.3105 30.7225 83.3456 28.7262L72.0633 22.8761L60.781 17.026C61.3151 15.9959 61.8947 15.2312 62.3155 14.7343C62.7481 14.2235 63.1476 13.8376 63.4399 13.5748C64.0046 13.0672 64.479 12.7425 64.696 12.5994C65.1296 12.3133 65.3853 12.1985 65.2476 12.2664C65.021 12.3781 64.3978 12.6577 63.1958 13.1288L67.8336 24.9612ZM72.0633 22.8761L83.3456 28.7262C84.4762 26.5458 84.7728 24.5006 84.8789 23.6665C85.0174 22.579 85.0501 21.5421 85.0501 20.6918H72.3413H59.6325C59.6325 20.9402 59.6189 20.8169 59.6647 20.4574C59.6888 20.2676 59.7449 19.8874 59.8734 19.3856C59.9925 18.9206 60.248 18.0539 60.781 17.026L72.0633 22.8761ZM72.3413 20.6918H85.0501C85.0501 19.7355 85.0163 18.6231 84.8824 17.4932C84.7871 16.6892 84.507 14.4879 83.3169 12.1822L72.0236 18.011L60.7302 23.8398C60.1648 22.7442 59.9165 21.8346 59.815 21.418C59.7004 20.9477 59.6563 20.6111 59.6414 20.4848C59.6133 20.2485 59.6325 20.2713 59.6325 20.6918H72.3413ZM72.0236 18.011L83.5309 12.617C82.5794 10.587 80.9499 8.38417 78.3761 6.76924C75.8171 5.16362 73.1661 4.66674 71.0108 4.66674V17.3756V30.0844C69.3322 30.0844 67.0882 29.6935 64.8668 28.2996C62.6306 26.8965 61.2692 25.0114 60.5162 23.4051L72.0236 18.011ZM71.0108 17.3756V4.66674C69.4854 4.66674 67.013 4.89659 64.4043 6.2777C61.4812 7.8252 59.234 10.3829 58.0804 13.4978L69.9981 17.9117L81.9158 22.3257C80.8945 25.0831 78.8824 27.3728 76.2969 28.7415C74.0257 29.9439 71.9935 30.0844 71.0108 30.0844V17.3756ZM69.9981 17.9117L58.1364 13.3495C57.3183 15.4764 57.2036 17.5203 57.1741 17.9248C57.1091 18.8142 57.0907 19.7515 57.0907 20.6322H69.7995H82.5084C82.5084 20.3566 82.5115 20.145 82.5159 19.9895C82.5203 19.8289 82.5251 19.7644 82.5243 19.7752C82.5237 19.7833 82.5204 19.8273 82.5125 19.9008C82.5048 19.9719 82.4898 20.0985 82.4629 20.2677C82.4371 20.4306 82.391 20.692 82.3125 21.0203C82.2385 21.3301 82.1012 21.8465 81.8598 22.4739L69.9981 17.9117ZM69.7995 20.6322H57.0907V23.3924H69.7995H82.5084V20.6322H69.7995ZM72.3413 27.0065L64.8349 16.7513C63.8341 17.4839 62.6791 18.4162 61.6014 19.551C60.6495 20.5534 58.9904 22.5017 58.0407 25.3507L70.0974 29.3695L82.1541 33.3884C81.7571 34.5793 81.2466 35.4466 80.8933 35.9705C80.532 36.5062 80.2101 36.8669 80.0331 37.0534C79.7034 37.4006 79.5644 37.469 79.8477 37.2617L72.3413 27.0065ZM70.0974 29.3695L57.9671 25.5788C57.1956 28.0475 57.0907 30.4773 57.0907 32.1099H69.7995H82.5084C82.5084 31.8465 82.5204 31.7947 82.5084 31.9045C82.5018 31.9658 82.485 32.102 82.4472 32.2983C82.4101 32.4915 82.3439 32.7884 82.2277 33.1603L70.0974 29.3695ZM69.7995 32.1099H57.0907C57.0907 33.0095 57.117 34.0214 57.2155 35.0291C57.2821 35.7103 57.481 37.6912 58.3966 39.8041L70.0577 34.7509L81.7187 29.6978C81.9536 30.2398 82.1051 30.7024 82.2007 31.0314C82.2985 31.3677 82.3617 31.6467 82.4018 31.8453C82.4791 32.2279 82.5058 32.4871 82.5126 32.5565C82.5251 32.6839 82.5084 32.5738 82.5084 32.1099H69.7995ZM70.0577 34.7509L58.5411 40.1253C59.6803 42.5664 61.6007 44.8117 64.2928 46.3073C66.8362 47.7203 69.3257 48.0555 71.13 48.0555V35.3467V22.6378C72.4047 22.6378 74.4507 22.8738 76.6367 24.0882C78.9714 25.3853 80.6204 27.3326 81.5742 29.3766L70.0577 34.7509ZM71.13 35.3467V48.0555C73.8181 48.0555 80.3508 47.1002 83.5681 40.3733L72.103 34.89L60.6379 29.4067C61.9126 26.7414 64.0327 24.8159 66.3505 23.728C68.4172 22.7579 70.2198 22.6378 71.13 22.6378V35.3467ZM72.103 34.89L83.4701 40.5735C84.7022 38.1095 84.8881 35.7084 84.9315 35.2602C85.0268 34.2756 85.0501 33.2859 85.0501 32.4276H72.3413H59.6325C59.6325 32.8932 59.6161 32.9758 59.632 32.8119C59.6401 32.7282 59.6722 32.4112 59.768 31.9538C59.8177 31.7163 59.8996 31.3678 60.0317 30.9462C60.159 30.5401 60.3767 29.9248 60.7359 29.2064L72.103 34.89ZM72.3413 32.4276H85.0501V27.0065H72.3413H59.6325V32.4276H72.3413ZM100.857 23.1343V35.8431H113.566V23.1343H100.857ZM93.291 23.1343H80.5822V35.8431H93.291V23.1343ZM93.0329 17.9515L81.4359 23.1501L81.4704 23.2269L81.5058 23.3033L93.0329 17.9515ZM91.2656 34.6517L79.8984 40.3352L79.9307 40.3998L79.9637 40.464L91.2656 34.6517ZM93.4102 34.6119L81.6324 29.8372L81.5765 29.9751L81.5238 30.1144L93.4102 34.6119ZM93.708 28.6944V15.9856H80.9992V28.6944H93.708ZM100.857 28.6944L113.565 28.7743L113.646 15.9856H100.857V28.6944ZM100.618 33.4403L88.0281 31.7092L88.0188 31.7767L88.0102 31.8444L100.618 33.4403ZM99.288 36.6771L88.7717 29.5411L88.7623 29.5551L88.7528 29.5691L99.288 36.6771ZM96.3689 39.1792L101.695 50.7183L101.747 50.6943L101.799 50.6698L96.3689 39.1792ZM86.5196 38.8615L80.0616 49.8072L80.1024 49.8313L80.1433 49.855L86.5196 38.8615ZM83.6998 35.6048L71.8467 40.1895L71.873 40.2573L71.9 40.3248L83.6998 35.6048ZM86.4402 14.0594L93.0076 24.9398L93.0434 24.9182L93.079 24.8963L86.4402 14.0594ZM100.857 23.1343V10.4254H93.291V23.1343V35.8431H100.857V23.1343ZM93.291 23.1343H106V20.0961H93.291H80.5822V23.1343H93.291ZM93.291 20.0961H106C106 19.2714 105.969 18.2825 105.844 17.2468C105.744 16.4103 105.481 14.5843 104.56 12.5996L93.0329 17.9515L81.5058 23.3033C81.0865 22.4001 80.8807 21.6503 80.7818 21.2342C80.6761 20.7897 80.6292 20.4546 80.6087 20.2844C80.5701 19.9636 80.5822 19.8617 80.5822 20.0961H93.291ZM93.0329 17.9515L104.63 12.7528C103.632 10.527 101.898 8.24917 99.2374 6.64185C96.6584 5.08367 94.0573 4.66674 92.0797 4.66674V17.3756V30.0844C90.5655 30.0844 88.3549 29.7635 86.0936 28.3972C83.7509 26.9819 82.2616 24.9919 81.4359 23.1501L93.0329 17.9515ZM92.0797 17.3756V4.66674C90.3992 4.66674 88.011 4.96007 85.5306 6.27941C82.8774 7.69071 80.889 9.8728 79.6891 12.3725L91.1464 17.872L102.604 23.3715C101.563 25.5403 99.8093 27.4742 97.4671 28.72C95.2979 29.8738 93.2968 30.0844 92.0797 30.0844V17.3756ZM91.1464 17.872L79.6891 12.3725C78.6226 14.5944 78.3999 16.6813 78.3312 17.3223C78.2248 18.315 78.1993 19.2827 78.1993 20.0961H90.9081H103.617C103.617 19.7577 103.631 19.7789 103.604 20.0302C103.59 20.1622 103.55 20.4951 103.448 20.9541C103.36 21.3495 103.136 22.2631 102.604 23.3715L91.1464 17.872ZM90.9081 20.0961H78.1993V32.5269H90.9081H103.617V20.0961H90.9081ZM90.9081 32.5269H78.1993C78.1993 34.1496 78.3408 37.2199 79.8984 40.3352L91.2656 34.6517L102.633 28.9681C103.234 30.1716 103.448 31.1681 103.53 31.6547C103.617 32.172 103.617 32.493 103.617 32.5269H90.9081ZM91.2656 34.6517L79.9637 40.464C80.8445 42.1767 82.3212 44.2044 84.704 45.778C87.1676 47.4049 89.8606 48.0555 92.318 48.0555V35.3467V22.6378C94.312 22.6378 96.598 23.1726 98.7107 24.5678C100.743 25.9097 101.925 27.5899 102.567 28.8393L91.2656 34.6517ZM92.318 35.3467V48.0555C94.5139 48.0555 97.3633 47.5434 100.092 45.7078C102.856 43.8483 104.456 41.33 105.297 39.1095L93.4102 34.6119L81.5238 30.1144C82.1786 28.3837 83.5043 26.2328 85.9043 24.6182C88.2689 23.0275 90.6649 22.6378 92.318 22.6378V35.3467ZM93.4102 34.6119L105.188 39.3867C106.435 36.3105 106.417 33.0259 106.417 31.8319H93.708H80.9992C80.9992 32.2478 80.9821 32.3355 80.997 32.1957C81.0054 32.1173 81.0325 31.8856 81.1036 31.5474C81.1691 31.236 81.3168 30.6157 81.6324 29.8372L93.4102 34.6119ZM93.708 31.8319H106.417V28.6944H93.708H80.9992V31.8319H93.708ZM93.708 28.6944V41.4032H100.857V28.6944V15.9856H93.708V28.6944ZM100.857 28.6944L88.1482 28.6145C88.1424 29.5373 88.1223 30.2657 88.0944 30.8223C88.0806 31.0977 88.0658 31.3109 88.0523 31.469C88.0457 31.5469 88.0398 31.606 88.0353 31.648C88.0307 31.6903 88.028 31.7099 88.0281 31.7092L100.618 33.4403L113.209 35.1715C113.471 33.2654 113.551 31.011 113.565 28.7743L100.857 28.6944ZM100.618 33.4403L88.0102 31.8444C88.1887 30.4347 88.7026 29.643 88.7717 29.5411L99.288 36.6771L109.804 43.8132C111.383 41.4873 112.783 38.5377 113.227 35.0363L100.618 33.4403ZM99.288 36.6771L88.7528 29.5691C88.9976 29.2062 89.3233 28.8273 89.7314 28.4775C90.1392 28.1279 90.5576 27.869 90.9393 27.6886L96.3689 39.1792L101.799 50.6698C105.057 49.1303 107.798 46.7874 109.823 43.7852L99.288 36.6771ZM96.3689 39.1792L91.0432 27.6401C91.5191 27.4204 91.8706 27.3389 92.0164 27.3117C92.1578 27.2852 92.1345 27.3044 91.901 27.3044V40.0132V52.722C94.9251 52.722 98.3576 52.2585 101.695 50.7183L96.3689 39.1792ZM91.901 40.0132V27.3044C91.4644 27.3044 91.3652 27.2653 91.5176 27.2979C91.6758 27.3317 92.1988 27.4637 92.8958 27.8679L86.5196 38.8615L80.1433 49.855C84.1164 52.1594 88.397 52.722 91.901 52.722V40.0132ZM86.5196 38.8615L92.9776 27.9157C93.4172 28.1751 93.9373 28.574 94.4296 29.1426C94.9245 29.7142 95.275 30.3231 95.4997 30.8849L83.6998 35.6048L71.9 40.3248C73.5291 44.3977 76.3876 47.6395 80.0616 49.8072L86.5196 38.8615ZM83.6998 35.6048L95.5529 31.0201C95.7337 31.4876 95.724 31.657 95.681 31.3422C95.6413 31.0521 95.5945 30.5073 95.5945 29.6476H82.8857H70.1768C70.1768 32.8349 70.4751 36.6432 71.8467 40.1895L83.6998 35.6048ZM82.8857 29.6476H95.5945V22.1613H82.8857H70.1768V29.6476H82.8857ZM82.8857 22.1613H95.5945C95.5945 21.8122 95.6034 21.5319 95.6159 21.3138C95.6284 21.0942 95.6435 20.9591 95.6518 20.897C95.6604 20.8325 95.6577 20.8764 95.6265 21.0072C95.5961 21.1346 95.5246 21.4031 95.3795 21.7701L83.5608 17.0976L71.7421 12.4251C70.4025 15.8136 70.1768 19.4249 70.1768 22.1613H82.8857ZM83.5608 17.0976L95.3795 21.7701C94.9302 22.9067 94.3247 23.7176 93.8427 24.2263C93.3811 24.7133 93.0355 24.9229 93.0076 24.9398L86.4402 14.0594L79.8727 3.17896C76.9563 4.9393 73.5555 7.83813 71.7421 12.4251L83.5608 17.0976ZM86.4402 14.0594L93.079 24.8963C92.6438 25.163 92.2531 25.3035 91.9865 25.3706C91.7336 25.4343 91.6507 25.4179 91.8017 25.4179V12.7091V0.000213005C87.8729 0.000213005 83.6696 0.852611 79.8013 3.22239L86.4402 14.0594ZM91.8017 12.7091V25.4179C91.9528 25.4179 91.8825 25.4341 91.65 25.3764C91.405 25.3156 91.0438 25.188 90.6389 24.9458L97.1632 14.0395L103.688 3.13319C99.8549 0.840455 95.7065 0.000213005 91.8017 0.000213005V12.7091ZM97.1632 14.0395L90.6389 24.9458C90.4289 24.8202 89.9817 24.5151 89.4821 23.9484C88.9636 23.3603 88.4935 22.6073 88.1749 21.7292L100.122 17.3954L112.069 13.0617C110.39 8.43361 107.152 5.20546 103.688 3.13319L97.1632 14.0395ZM100.122 17.3954L88.1749 21.7292C88.0135 21.2841 88.0259 21.1344 88.0671 21.4568C88.105 21.7529 88.1479 22.2933 88.1479 23.1343H100.857H113.566C113.566 20.0898 113.3 16.4555 112.069 13.0617L100.122 17.3954Z" fill="#FF00A0" mask="url(#path-1-outside-1_208_656)"/>
</svg>
